<?xml version="1.0" encoding="utf-8"?>
<!-- Generator: Adobe Illustrator 27.7.0, SVG Export Plug-In . SVG Version: 6.00 Build 0)  -->
<svg version="1.1" id="Capa_16" xmlns="http://www.w3.org/2000/svg" xmlns:xlink="http://www.w3.org/1999/xlink" x="0px" y="0px"
	 viewBox="0 0 776 107.9" style="enable-background:new 0 0 776 107.9;" xml:space="preserve">
<path d="M24.6,54.9c0,15.2,0,30.4,0,45.6c0,2.4,0,2.4-2.4,2.4c-5,0-10,0-15,0c-1.4,0-1.8-0.4-1.8-1.8c0-30.8,0-61.5,0-92.3
	c0-1.5,0.5-1.9,1.9-1.9c5,0.1,10,0,15,0c2.2,0,2.3,0.1,2.3,2.2C24.6,24.4,24.6,39.7,24.6,54.9z"/>
<path d="M102.7,55c0,15.1,0,30.2,0,45.4c0,1.7-0.8,2.5-2.5,2.5c-4.9,0-9.8,0-14.7,0c-1.4,0-2-0.4-2-1.9c0-30.7,0-61.4,0-92.1
	c0-1.5,0.6-1.9,2-1.9c5,0.1,10,0,15,0c2,0,2.1,0.1,2.1,2.2C102.7,24.5,102.7,39.7,102.7,55L102.7,55z"/>
<path d="M122.6,54.9c0-15.2,0-30.4,0-45.6c0-2.4,0-2.4,2.4-2.4c4.9,0,9.8,0,14.7,0c1.6,0,2.2,0.4,2.2,2.1c0,30.6,0,61.3,0,91.9
	c0,1.5-0.5,2-2,2c-5.1-0.1-10.1-0.1-15.2,0c-1.7,0-2-0.6-2-2.1C122.7,85.5,122.6,70.2,122.6,54.9L122.6,54.9z"/>
<path d="M180.9,55.1c0,15.1,0,30.2,0,45.4c0,2.4,0,2.4-2.4,2.4c-4.9,0-9.8,0-14.7,0c-1.5,0-2-0.5-2-2c0-30.6,0-61.3,0-91.9
	c0-1.6,0.6-2,2.1-2c4.9,0.1,9.8,0,14.7,0c2.3,0,2.4,0,2.4,2.3C180.9,24.6,180.9,39.8,180.9,55.1L180.9,55.1z"/>
<path d="M220,54.9c0,15.2,0,30.4,0,45.5c0,2.5,0,2.5-2.5,2.5c-4.9,0-9.8,0-14.7,0c-1.5,0-2-0.4-2-2c0-30.7,0-61.4,0-92.1
	c0-1.5,0.5-1.9,1.9-1.9c5,0.1,10,0,15,0c2.2,0,2.3,0.1,2.3,2.2C220,24.4,220,39.7,220,54.9L220,54.9z"/>
<path d="M44.5,54.9c0-15.1,0-30.2,0-45.4c0-1.7,0.9-2.5,2.6-2.6c4.7,0,9.5,0,14.2,0c2.1,0,2.2,0.2,2.2,2.1c0,30.6,0,61.1,0,91.7
	c0,1.4-0.5,2-1.9,1.9c-5-0.1-10-0.1-15,0c-1.7,0-2.2-0.6-2.2-2.2C44.6,85.4,44.5,70.2,44.5,54.9L44.5,54.9z"/>
<path d="M253.5,102.9c-7.5,0-15,0-22.5,0c-1.6,0-2.2-0.4-2.1-2.1c0.1-5.1,0.1-10.1,0-15.2c0-1.6,0.6-2,2.1-2c15.2,0,30.4,0,45.6,0
	c1.5,0,2.1,0.4,2,2c-0.1,5.1-0.1,10.2,0,15.4c0,1.5-0.5,1.9-2,1.9C268.9,102.9,261.2,102.9,253.5,102.9L253.5,102.9z"/>
<path d="M345,98.6c-1.4,1.1-2.5,2.2-3.9,3.1c-7.3,4.5-15.6,1.3-17.9-6.9c-1.1-4.2-1-8.4,0.3-12.5c1.9-5.9,6.8-9.5,13-9.7
	c2.2-0.1,4.3,0.1,6.5,0.4c1.3,0.2,1.6-0.2,1.6-1.4c0-3.6,0-7.2,0-10.8c0-0.7-0.3-1.7,0.7-2c1-0.3,2.1-0.3,3.1,0
	c0.4,0.1,0.5,0.5,0.5,0.8c0,0.4,0.1,0.8,0.1,1.2c0,13.3,0,26.6,0,39.8c0,2-0.4,2.4-2.3,2.1c-0.7-0.1-1.1-0.4-1.2-1.1
	C345.3,100.8,345.1,99.8,345,98.6L345,98.6z M344.5,85.9c0-2.4,0-4.8,0-7.2c0-1.1-0.4-1.6-1.5-1.9c-2.3-0.6-4.7-0.8-7.1-0.7
	c-3,0.2-5.6,1.4-7,4.1c-2.8,5.3-2.8,10.8-0.3,16.2c1.1,2.4,3.3,3.5,6,3.5c3.4,0,5.8-1.8,8.1-4c1.2-1.1,1.8-2.4,1.7-4.1
	C344.4,89.9,344.5,87.9,344.5,85.9L344.5,85.9z"/>
<path d="M326.5,27.5c0-6.1,0-12.2,0-18.3c0-2.1,0.1-2.2,2.2-2.2c3.8,0.1,7.6-0.3,11.3,0.2c6.5,0.9,10.4,5,10.5,11.5
	c0.1,6.4-3.1,11.2-9.5,12.8c-2.7,0.6-5.4,0.3-8.1,0.3c-1.5,0-2,0.4-2,2c0.1,4.1,0,8.2,0.1,12.3c0,1.6-0.5,2.1-2.1,2.1
	c-1.5,0-2.4-0.2-2.4-2.1C326.5,40,326.5,33.7,326.5,27.5L326.5,27.5z M330.9,19.3c0,2.4,0,4.8,0,7.2c0,1.1,0.4,1.6,1.5,1.6
	c1.8-0.1,3.7,0,5.5,0c4.2-0.1,6.8-2.4,7.7-6.5c1.1-5.2-1.7-9.7-6.3-10.4c-2.3-0.3-4.6-0.3-7-0.3c-1.1,0-1.5,0.4-1.5,1.5
	C330.9,14.6,330.9,17,330.9,19.3L330.9,19.3z"/>
<path d="M461.2,33.8c-2.8,0-5.7,0.1-8.5,0c-1.6-0.1-2,0.6-1.9,2.1c0.7,6.4,3.5,9.7,11.4,9.3c2.3-0.1,4.5-0.4,6.7-1
	c0.8-0.2,1.5-0.3,1.6,0.8c0.1,0.9,1,2.1-0.7,2.6c-2.7,0.8-5.4,1.2-8.2,1.3c-1.2,0.1-2.5,0.1-3.7-0.1c-7.4-1-11-5.1-11.6-13.1
	c-0.3-3.6,0-7.1,1.5-10.4c2.1-4.5,5.6-7.1,10.6-7.5c4.9-0.4,8.9,1,11.5,5.4c1.7,2.9,2,6.1,1.8,9.3c-0.1,1.1-0.8,1.3-1.7,1.3
	C467.1,33.8,464.2,33.8,461.2,33.8L461.2,33.8L461.2,33.8z M459.1,30.1c2.3,0,4.6,0,6.8,0c0.9,0,1.5-0.2,1.5-1.3
	c0.1-3.1-2.1-6.4-5.1-7.3c-5.2-1.6-10.4,1.8-11.3,7.2c-0.2,1.1,0.3,1.4,1.2,1.4C454.5,30.1,456.8,30.1,459.1,30.1z"/>
<path d="M427.8,45.3c-3.9,3.2-8,4.1-12.6,3.2c-3.6-0.7-6.1-3.2-6.6-6.4c-0.6-4.2,0.8-7.4,4.3-9.3c2.2-1.2,4.7-1.7,7.2-1.8
	c1.9-0.1,3.9-0.1,5.8,0c1,0,1.5-0.3,1.4-1.3c0-1.1,0-2.2-0.1-3.3c-0.6-3.8-3.2-5.2-7.9-5.1c-2.2,0.1-4.4,0.5-6.5,1.3
	c-0.9,0.3-1.5,0.2-1.7-0.8c-0.1-0.9-1.2-2.1,0.5-2.6c3.9-1.2,7.9-1.9,12-1.2c5.4,0.8,8,4.2,8.1,10.1c0.1,6.1,0,12.2,0,18.3
	c0,0.9,0.2,1.9-1.2,1.9c-1.3,0.1-2.4,0-2.5-1.6C428,46.2,427.9,45.9,427.8,45.3L427.8,45.3z M427.4,38.7c0-1.1,0-1.8,0-2.4
	c0.1-1.4-0.5-1.9-1.8-1.8c-1.9,0.1-3.8,0-5.7,0.1c-1.6,0.1-3.2,0.4-4.6,1.3c-1.9,1.2-2.5,3.1-2.1,5.2c0.3,2.1,1.6,3.4,3.6,3.9
	c2.3,0.6,4.5,0.2,6.7-0.8C426,43.1,428.3,41.7,427.4,38.7L427.4,38.7z"/>
<path d="M367.9,88.5c-2.9,0-5.8,0-8.7,0c-1.3,0-1.6,0.5-1.6,1.7c0.1,7,4.8,10.8,12.3,9.8c1.9-0.3,3.9-0.5,5.7-1
	c0.9-0.3,1.6-0.2,1.7,0.9c0.1,0.9,1,2-0.7,2.5c-4.8,1.3-9.6,1.9-14.5,0.8c-4.8-1.1-7.4-4.5-8.5-9.1c-0.9-3.9-0.9-7.9,0.2-11.9
	c2.1-7.6,9.9-11.6,17.3-8.9c4.5,1.6,6.6,5.3,7.2,9.8c0.2,1.4,0.3,2.7,0.1,4.1c-0.1,1.2-0.6,1.5-1.7,1.5
	C373.8,88.5,370.9,88.5,367.9,88.5L367.9,88.5L367.9,88.5z M365.8,85c2.3,0,4.7,0,7,0c0.8,0,1.4-0.1,1.5-1.1
	c0.2-3.2-2.1-6.6-5.1-7.6c-5.1-1.6-10.5,1.8-11.3,7.1c-0.2,1.1,0.1,1.6,1.4,1.6C361.3,85,363.5,85,365.8,85z"/>
<path d="M422.4,91.4c0,3.2,0,6.4,0,9.7c0,0.9,0,1.9-1.3,1.8c-1.1,0-2.1,0.2-2.3-1.4c-0.1-1.4-0.8-0.9-1.5-0.4
	c-3.8,2.7-8,3.2-12.4,1.9c-3.3-0.9-5.2-3.2-5.6-6.6c-0.5-3.5,0.5-6.4,3.6-8.4c2.4-1.6,5.1-2.1,7.9-2.3c2-0.1,4-0.1,6,0
	c1.1,0,1.5-0.4,1.5-1.5c0-1.4-0.1-2.7-0.5-4c-0.6-2.4-2.5-3.9-5.1-4.1c-3.1-0.3-6.2,0.1-9.2,1.1c-0.8,0.3-1.5,0.4-1.6-0.7
	c-0.1-1-1.3-2.2,0.5-2.8c4-1.2,8.1-2,12.3-1.2c4.9,0.9,7.6,4.2,7.7,9.2C422.5,85.1,422.4,88.2,422.4,91.4L422.4,91.4z M413.4,89.2
	c-1.9-0.1-4.3,0-6.6,1c-2.1,0.9-3.2,2.7-3.1,4.9c0.1,2.4,1.4,4,3.6,4.7c2.9,0.9,5.6,0,8.1-1.4c1.9-1,2.9-2.3,2.8-4.7
	C418.1,89.2,418.3,89.2,413.4,89.2L413.4,89.2z"/>
<path d="M368.7,45.3c-3.9,3.1-8,4.1-12.6,3.2c-3.9-0.8-6.2-3.1-6.8-7.2c-0.5-3.6,1.1-6.8,4.4-8.6c2.2-1.2,4.6-1.7,7.1-1.8
	c2-0.1,4-0.1,6,0c1,0,1.4-0.4,1.4-1.4c0-1.1,0.1-2.1-0.1-3.2c-0.7-3.8-2.9-5.4-8.3-5.2c-1.9,0.1-3.9,0.4-5.7,1.1
	c-0.8,0.3-1.5,0.2-1.6-0.8c-0.1-0.9-1.2-2.2,0.5-2.7c4.4-1.3,8.8-2,13.3-0.7c3.6,1,6,4,6.1,7.7c0.1,6.9,0,13.9,0.1,20.8
	c0,0.9-0.3,1.4-1.2,1.4c-0.9,0-2,0.3-2.2-1.1C368.9,46.6,368.8,46.1,368.7,45.3L368.7,45.3z M363.7,34.5c-1.8,0-3.5-0.1-5.3,0.4
	c-3.3,0.8-4.8,2.8-4.4,6c0.3,2.7,2.3,4.4,5.5,4.4c2.2,0,4.1-0.7,6-1.7c2-1,2.9-2.3,2.8-4.7C368,34.5,368.2,34.5,363.7,34.5
	L363.7,34.5z"/>
<path d="M482.5,98.9c-1,0.8-1.9,1.6-2.8,2.3c-2.9,2.2-6.2,2.8-9.6,2.2c-4.9-0.9-7.8-4.4-8-10.2c-0.2-6.2,0-12.4-0.1-18.7
	c0-1.9,1.3-1.4,2.3-1.5c1.2-0.1,1.9,0.2,1.9,1.6c0,5.4,0,10.8,0,16.2c0,1.1,0.1,2.1,0.3,3.1c0.9,4.9,4.1,7,9,5.6
	c2.7-0.8,4.7-2.7,6.6-4.7c0.5-0.6,0.4-1.4,0.4-2.1c0-5.8,0-11.7,0-17.5c0-0.7-0.3-1.7,0.6-2.1c1-0.4,2.1-0.3,3.1,0
	c0.6,0.2,0.5,0.8,0.5,1.3c0,9,0,18,0,27c0,1-0.4,1.4-1.4,1.4c-1,0-1.9,0.1-2.1-1.3C483,100.8,483.2,99.8,482.5,98.9L482.5,98.9z"/>
<path d="M501.6,102.9c-2.9,0-5.8,0-8.7,0c-2.4,0-2.7-0.4-2.4-2.7c0.1-0.9,0.6-1.6,1.2-2.4c4.7-6.4,9.3-12.9,14-19.3
	c0.3-0.4,1-0.9,0.7-1.4c-0.3-0.6-1.1-0.3-1.7-0.3c-3.8,0-7.6-0.1-11.4,0c-1.4,0-2-0.5-2-1.9c0-1.5,0.6-1.9,2-1.9
	c5.2,0.1,10.5,0,15.7,0c2.5,0,3.5,1.6,2.3,3.9c-0.4,0.7-0.9,1.4-1.4,2.1c-4.6,6.3-9.2,12.6-13.7,18.9c-0.3,0.4-0.9,0.7-0.5,1.3
	c0.2,0.4,0.8,0.2,1.3,0.2c4.7,0,9.5,0.1,14.2,0c1.4,0,1.8,0.5,1.8,1.9c0,1.3-0.5,1.8-1.8,1.7C507.9,102.9,504.8,102.9,501.6,102.9
	L501.6,102.9z"/>
<path d="M438.7,82.4c0-6,0-12,0-18c0-2.5,0.1-2.6,2.3-2.6c2.1,0,2.1,0.1,2.1,2.5c0,10.8,0,21.7,0,32.5c0,2.3,0,2.3,2.3,2.3
	c4.6,0,9.2,0.1,13.8,0c1.6,0,1.9,0.7,1.9,2c0,1.3-0.4,1.9-1.8,1.9c-6.3-0.1-12.6-0.1-18.9,0c-1.5,0-1.8-0.6-1.8-1.9
	C438.7,94.8,438.7,88.6,438.7,82.4L438.7,82.4z"/>
<path d="M398.1,17.6c1.8-0.1,3.5,0.3,5.2,0.7c1.7,0.5,1,1.7,0.8,2.7c-0.2,1.2-0.9,1-1.7,0.8c-2.2-0.5-4.4-1.1-6.7-0.4
	c-2,0.6-3.3,2-3.5,4c-0.2,2,0.7,3.4,2.5,4.3c1.2,0.6,2.4,1.1,3.7,1.6c1.3,0.6,2.6,1.1,3.8,1.6c6.2,2.9,5.2,11,0.6,13.8
	c-4.7,2.8-9.6,2.4-14.5,0.9c-1.6-0.5-0.4-1.9-0.4-2.9c0-1,0.8-1,1.6-0.8c2.4,0.7,4.8,1,7.2,0.9c1.2-0.1,2.3-0.3,3.3-1
	c2.6-1.6,2.8-5.3,0.3-7.2c-1.3-1-2.9-1.5-4.4-2.1c-1.1-0.5-2.3-0.9-3.4-1.4c-3.5-1.7-5.1-4.4-4.8-7.7c0.5-4.1,2.8-6.8,6.7-7.7
	C395.6,17.7,396.9,17.5,398.1,17.6L398.1,17.6z"/>
<path d="M552.2,55c0-15.1,0-30.2,0-45.4c0-0.6,0-1.1,0-1.7c0-0.6,0.4-0.9,1-0.9c0.6,0,1,0.3,1,0.9c0,0.5,0.1,1,0.1,1.5
	c0,30.4,0,60.7,0,91.1c0,0.1,0,0.2,0,0.3c-0.1,0.8,0.3,2-1.1,2c-1.5,0-1-1.2-1-2C552.2,85.5,552.2,70.2,552.2,55L552.2,55z"/>
<path d="M391.3,81c0-6.7,0-13.3,0-20c0-0.7-0.3-1.7,0.7-2c1-0.3,2.1-0.3,3.1,0c0.6,0.2,0.6,0.9,0.6,1.4c0,1.8,0,3.6,0,5.3
	c0,11.6,0,23.2,0,34.8c0,2.1-2,3.2-3.8,2.2c-0.8-0.5-0.5-1.3-0.5-2C391.3,94.2,391.3,87.6,391.3,81L391.3,81z"/>
<path d="M441.8,35.9c0,4.8,0,9.7,0,14.5c0,2.2-0.3,4.3-1.1,6.4c-1.4,3.6-6.2,5.5-9.7,3.9c-1.1-0.5-0.7-1.5-0.7-2.3
	c-0.1-0.8,0.4-1.2,1.2-1.3c0.6,0,1.2,0,1.8,0c2.3-0.1,3.4-1,4-3.2c0.4-1.5,0.4-3.1,0.4-4.6c0-9.5,0-19,0-28.5c0-2.2,1.5-3.2,3.5-2.3
	c0.8,0.3,0.6,1.1,0.6,1.7C441.8,25.3,441.8,30.6,441.8,35.9L441.8,35.9z"/>
<path d="M383,33.2c0,4.3-0.1,8.7,0,13c0,1.7-0.7,2.1-2.2,2c-1.4,0-2.1-0.3-2.1-1.9c0.1-8.7,0.1-17.4,0-26.1c0-1.8,0.9-1.9,2.3-1.9
	c1.5-0.1,2,0.5,2,2C383,24.6,383.1,28.9,383,33.2L383,33.2z"/>
<path d="M613.8,53.5c-3.5,0-3.4,0.6-3.4-3.4c0-3.7,0-7.4,0-11.2c0-1.4,0.5-1.9,1.9-1.9c1.2,0.1,2.4,0,3.7,0.2c3,0.6,4.5,3.5,2.9,6.2
	c-0.5,0.9-0.7,1.3,0.2,2.1c1.5,1.3,1.8,3,1.1,4.9c-0.7,1.9-2.1,2.8-4,3C615.4,53.6,614.6,53.5,613.8,53.5L613.8,53.5z M612.5,48.9
	c0,1.9,0.7,2.8,2.1,2.8c2.6,0,3.7-0.8,3.7-2.7c0-2-1.1-2.9-3.7-2.9C613.2,46.1,612.5,47,612.5,48.9L612.5,48.9z M612.4,41.5
	c0.4,1-0.8,2.8,1.5,2.8c2.3,0,3.4-0.9,3.4-2.7c0-1.8-1.1-2.7-3.4-2.7C611.6,38.8,612.8,40.6,612.4,41.5L612.4,41.5z"/>
<path d="M665.5,45.3c0-2.2,0-4.4,0-6.7c0-1,0.4-1.5,1.5-1.5c1.4,0,2.8,0,4.2,0.3c1.9,0.4,3.2,1.5,3.5,3.1c0.4,2-0.2,3.7-2,4.7
	c-1.1,0.6-1.1,1.1-0.5,2.1c1,1.5,1.8,3,2.7,4.6c0.3,0.5,1,1.1,0.2,1.5c-0.7,0.4-1.5,0.3-2-0.5c-1-1.6-1.9-3.3-2.8-4.9
	c-0.2-0.4-0.4-0.8-0.7-1.1c-0.3-0.5-0.8-0.6-1.3-0.6c-0.7,0.1-0.7,0.6-0.7,1.2c0,1.4,0,2.8,0,4.2c0,0.8,0.3,1.9-1,1.9
	c-1.3,0-1-1.1-1-1.8C665.5,49.5,665.5,47.4,665.5,45.3L665.5,45.3z M667.5,41.5c0.3,1.1-0.7,2.9,1.7,2.8c2.2-0.1,3.4-0.9,3.3-2.8
	c0-1.8-1.2-2.7-3.6-2.7C666.7,38.9,667.9,40.6,667.5,41.5L667.5,41.5z"/>
<path d="M730.7,28.1c-1.4,1.2-2.9,1.8-4.6,1.6c-2.7-0.4-4.4-3-4.1-6.3c0.4-4.3,2.8-6.4,7.2-6c1.2,0.1,1.5-0.3,1.5-1.3
	c0-0.9,0-1.8,0-2.7c0-0.7,0-1.4,1-1.4s1,0.8,1,1.4c0,3.9,0,7.8,0,11.7c0,0.9,0,1.9,0,2.8c0,0.6,0.1,1.3-0.7,1.5
	C731.1,29.6,731,28.8,730.7,28.1L730.7,28.1z M730.6,23c0-1,0-1.8,0-2.6c0-0.5-0.2-1-0.7-1.2c-2.3-1-4.9,0.2-5.6,2.6
	c-0.4,1.3-0.4,2.6,0,3.9c0.7,2.2,2.4,2.8,4.4,1.8S730.8,24.7,730.6,23L730.6,23z"/>
<path d="M727.1,78.2c-1.2-0.1-0.8-0.9-0.6-1.6c0.9-2.8,1.9-5.6,2.9-8.3c0.7-1.8,1.4-3.6,2.2-5.4c0.2-0.6,0.6-1.1,1.3-1.1
	c0.7,0,1.1,0.4,1.3,1.1c2,4.6,3.7,9.3,5.3,14c0.1,0.4,0.5,1-0.3,1.2c-0.7,0.2-1.4,0.2-1.7-0.6c-0.3-0.8-0.6-1.6-0.8-2.4
	c-0.2-1-0.8-1.4-1.8-1.3c-0.5,0-1,0-1.5,0c-2.4,0-4.1,1.1-5,3.4C728.1,77.8,727.8,78.3,727.1,78.2L727.1,78.2z M732.8,64.5
	c-0.5,1.5-1,2.6-1.3,3.7c-1.6,4.5-2.3,3.8,2.9,3.8c0.8,0,1.1-0.3,0.8-1.1C734.4,69,733.7,67,732.8,64.5L732.8,64.5z"/>
<path d="M675.6,69.5c0,2.4,0,4.8,0,7.2c0,0.5,0.1,1.2-0.6,1.4c-0.6,0.2-0.9-0.1-1.2-0.6c-0.4-0.6-0.8-0.1-1.1,0.1
	c-4.3,2.2-7.6,0.2-7.7-4.6c-0.1-4.9,2.4-7.2,7.4-6.8c1,0.1,1.3-0.2,1.3-1.2c0-0.9,0-1.8,0-2.7c0-0.7-0.3-1.6,0.8-1.6
	c1.2,0,1,1,1,1.7C675.7,64.8,675.6,67.2,675.6,69.5L675.6,69.5z M673.8,72c0-1.1,0-1.9,0-2.7c0-0.7-0.3-1.2-1-1.3
	c-2.8-0.4-4.9-0.3-5.6,3.1c-0.2,1.2-0.1,2.3,0.2,3.4c0.5,2,2.2,2.8,4.1,1.9C673.6,75.4,674.1,73.8,673.8,72L673.8,72z"/>
<path d="M666.6,20.7c0,2.4,0,4.8,0,7.2c0,0.5,0.2,1.2-0.5,1.5c-0.6,0.2-0.9-0.1-1.2-0.6c-0.3-0.5-0.6-0.2-1,0
	c-2.1,1.2-4.2,1.7-6.2-0.1c-2.2-2.1-2.1-4.8-1.3-7.4c0.7-2.5,2.6-3.6,5.1-3.8c0.1,0,0.2,0,0.3,0c0.9-0.2,2.1,0.8,2.6-0.2
	c0.4-0.7,0.1-1.8,0.2-2.8c0.1-0.8-0.6-2.2,0.8-2.3c1.6,0,0.9,1.5,1,2.3C666.7,16.5,666.6,18.6,666.6,20.7L666.6,20.7z M664.8,23.2
	c0-1.2,0-1.9,0-2.7c0-0.5-0.1-0.9-0.5-1.1c-2-1.3-5.4,0.1-5.9,2.5c-0.3,1.2-0.3,2.6,0,3.8c0.4,2.2,2.3,3,4.3,1.9
	C664.7,26.6,665.1,24.9,664.8,23.2L664.8,23.2z"/>
<path d="M594.7,69.9c0-2.2,0-4.3,0-6.5c0-1.2,0.5-1.8,1.7-1.7c1.5,0.1,3,0.1,4.5,0.3c2.3,0.4,3.7,2.5,3.6,4.9
	c-0.1,2.6-1.9,4.5-4.5,4.8c-2.1,0.2-3.2,1.4-3.2,3.6c0,0.6,0,1.1,0,1.7c0,0.6-0.3,1.1-1,1.1c-0.7,0-1-0.4-1-1.1c0-1.9,0-3.8,0-5.7
	C594.7,71,594.7,70.5,594.7,69.9L594.7,69.9L594.7,69.9z M596.8,66.9c0,3.3,0.1,3.5,2.9,3.1c1.8-0.2,2.8-1.6,2.6-3.6
	c-0.2-2-1.4-2.7-4-2.7c-2.2,0.1-1.3,1.7-1.5,2.8C596.8,66.7,596.8,66.8,596.8,66.9L596.8,66.9z"/>
<path d="M594.7,21.2c0-2.2,0-4.3,0-6.5c0-1.1,0.4-1.7,1.6-1.6c1.3,0,2.5-0.1,3.8,0.2c2.9,0.5,4.4,2.3,4.3,5
	c-0.1,2.7-1.8,4.6-4.5,4.9c-3.1,0.4-3.1,0.4-3.2,3.7c0,0.9,0.7,2.6-1,2.6c-1.6,0-0.9-1.6-1-2.5C594.6,25,594.7,23.1,594.7,21.2
	L594.7,21.2L594.7,21.2z M596.8,17.9c0,0.7,0,1.3,0,2c-0.1,1.1,0.5,1.5,1.5,1.4c0.5,0,1.1,0,1.7-0.1c1.6-0.3,2.6-1.8,2.4-3.6
	c-0.2-1.9-1.7-2.9-4.2-2.8c-2.2,0.1-1,1.8-1.3,2.7C596.8,17.7,596.8,17.8,596.8,17.9L596.8,17.9z"/>
<path d="M691.8,21.2c0-2.2,0-4.4,0-6.7c0-1.1,0.4-1.5,1.5-1.5c1.4,0,2.8-0.1,4.2,0.2c2.4,0.5,3.8,1.9,4,4.2c0.2,2.7-1,4.7-3.5,5.4
	c-0.5,0.2-1.1,0.3-1.6,0.3c-2.9,0-2.6-0.1-2.6,2.8c0,0.5,0,1,0,1.5c-0.1,0.7,0.4,1.9-0.9,1.9c-1.4,0.1-0.9-1.1-1-1.9
	C691.8,25.4,691.8,23.3,691.8,21.2L691.8,21.2z M693.7,18c0,3.5,0.1,3.6,2.9,3.3c1.9-0.2,2.8-1.4,2.6-3.5c-0.1-2-1.6-3-4.2-3
	c-2.3,0.1-1,1.9-1.3,2.8C693.7,17.8,693.7,17.9,693.7,18L693.7,18z"/>
<path d="M666.2,101.5c0.8-0.1,1.5-0.3,2.3-0.4c0.5-0.1,1-0.2,1.2,0.5c0.2,0.6-0.2,0.9-0.7,1.1c-2.5,0.7-6,0.8-7.7-1.2
	c-1.7-2-1.8-6.2-0.3-8.5c1.2-1.9,3.7-2.8,6-2.1c2,0.6,3.3,2.6,3.3,4.9c0,1-0.4,1.4-1.4,1.4c-1.8,0-3.7,0-5.5,0
	c-1.1,0-1.5,0.4-1.2,1.5C662.6,100.7,663.8,101.5,666.2,101.5L666.2,101.5z M664.9,95.5c0.6,0,1.2,0,1.8,0c0.5,0,1.1,0.1,1.3-0.5
	c0.2-0.6-0.1-1.1-0.4-1.5c-1.1-1.5-3.3-1.6-4.6-0.1c-0.4,0.5-1,1.1-0.7,1.7c0.3,0.7,1.1,0.3,1.6,0.4
	C664.2,95.5,664.5,95.5,664.9,95.5L664.9,95.5z"/>
<path d="M720,24.9c0,1.2,0,2.3,0,3.5c0,0.7-0.5,1.4-1.1,1c-1-0.8-1.6-0.1-2.4,0.1c-1.1,0.3-2.2,0.4-3.3,0.1
	c-1.6-0.4-2.5-1.5-2.6-3.1c-0.1-1.6,0.7-2.8,2.1-3.4c1.1-0.5,2.2-0.6,3.4-0.7c0.8-0.1,1.8,0.2,1.8-1.1c0-1.1-0.5-1.9-1.7-2.1
	c-1-0.2-2.1-0.1-3.2,0.1c-0.6,0.1-1.3,0.3-1.4-0.6c-0.1-0.8,0.5-0.9,1-1.1c1.5-0.4,3-0.5,4.5-0.2c1.8,0.4,2.6,1.6,2.9,3.6
	c0,0.2,0,0.3,0,0.5C720,22.7,720,23.8,720,24.9C720,24.9,720,24.9,720,24.9L720,24.9z M716.2,24.1c-2.5,0-3.6,0.7-3.5,2.2
	c0.1,1.5,1.1,1.8,2.3,1.7c1.9-0.1,2.9-0.9,2.9-2.4C718,24.1,717,24.1,716.2,24.1L716.2,24.1z"/>
<path d="M624.1,98.2c0,1.2,0,2.3,0,3.5c0,0.7-0.4,1.5-1,1.1c-1.1-0.8-1.8,0-2.7,0.2c-0.9,0.2-1.8,0.4-2.8,0.1
	c-1.7-0.4-2.7-1.4-2.8-3c-0.1-1.7,0.7-2.9,2.2-3.6c1-0.5,2.1-0.5,3.2-0.6c0.7-0.1,1.7,0.3,1.8-0.9c0.1-1.2-0.4-2-1.6-2.4
	c-1.1-0.4-2.1,0-3.1,0.1c-0.6,0.1-1.4,0.6-1.6-0.5c-0.2-1,0.6-1,1.2-1.2c1.1-0.4,2.3-0.3,3.5-0.2c1.9,0.1,3.1,1.1,3.5,3
	c0.1,0.4,0.2,0.8,0.2,1.1C624.1,96,624.1,97.1,624.1,98.2C624.1,98.2,624.1,98.2,624.1,98.2L624.1,98.2z M620.4,97.6
	c-2.7,0-3.6,0.6-3.6,2c0,1.3,0.8,1.9,2,1.9c1.8,0,3.1-1,3.2-2.4C622.1,97.4,621.1,97.5,620.4,97.6L620.4,97.6z"/>
<path d="M710,98.1c0,1.2,0,2.4,0,3.7c0,0.7-0.5,1.4-1.1,1c-1-0.8-1.6-0.1-2.4,0.1c-0.8,0.2-1.5,0.4-2.3,0.3
	c-2.1-0.2-3.5-1.4-3.6-3.3c-0.1-1.7,1-3.2,3-3.7c0.9-0.2,1.8-0.3,2.6-0.4c0.7-0.1,1.5,0.1,1.7-0.9c0.1-0.9-0.1-1.8-1.1-2.2
	c-1.2-0.6-2.4-0.2-3.6,0c-0.6,0.1-1.4,0.5-1.6-0.5c-0.2-0.9,0.6-0.9,1.2-1.1c1.4-0.4,2.8-0.4,4.1-0.2c1.8,0.2,2.9,1.6,3.1,3.6
	C710.1,95.6,710,96.9,710,98.1L710,98.1z M705.9,97.6c-2.1,0-3.2,0.7-3.2,2.1c0.1,1.4,1.1,1.8,2.3,1.8c1.8,0,2.9-1,2.9-2.5
	C708,97.4,706.9,97.6,705.9,97.6L705.9,97.6z"/>
<path d="M720.8,47.4c0,3.8-2.6,6.5-6.2,6.4c-3.3-0.1-5.6-2.5-5.6-6.2c0-3.7,2.5-6.3,6-6.3C718.6,41.3,720.8,43.6,720.8,47.4
	L720.8,47.4z M718.6,47.6c0-3-1.4-4.7-3.8-4.6c-2.4,0.1-3.9,2-3.7,4.9c0.2,2.8,1.8,4.3,4.4,4C717.5,51.8,718.6,50.2,718.6,47.6
	L718.6,47.6z"/>
<path d="M649.3,23.4c0,3.7-2.6,6.4-6,6.4c-3.4,0-5.8-2.6-5.7-6.2c0.1-3.8,2.5-6.3,6.1-6.3C647.1,17.3,649.3,19.6,649.3,23.4
	L649.3,23.4z M647.2,23.5c0-2.3-0.8-3.8-2.4-4.3c-1.5-0.5-2.9-0.3-4,0.8c-1.5,1.6-1.4,3.5-0.9,5.5c0.4,1.4,1.4,2.2,2.8,2.4
	C645.5,28.3,647.2,26.6,647.2,23.5L647.2,23.5z"/>
<path d="M740.7,17.3c3.6,0,5.8,2.2,5.8,6c0,3.8-2.5,6.5-6.1,6.5c-3.3,0-5.6-2.5-5.7-6.1C734.7,20,737.1,17.3,740.7,17.3z
	 M736.8,23.5c0,2.8,1.4,4.4,3.8,4.5c2.3,0,3.8-1.7,3.9-4.3c0-2.8-1.5-4.8-3.8-4.8C738.4,18.8,736.8,20.7,736.8,23.5L736.8,23.5z"/>
<path d="M640.5,73.6c0,1.2,0,2.3,0,3.5c0,0.9-0.6,1.5-1.4,0.9c-0.7-0.5-1.1-0.2-1.6,0c-1.3,0.6-2.7,0.7-4,0.3
	c-1.4-0.5-2.2-1.5-2.3-2.9c-0.2-1.5,0.5-2.6,1.8-3.3c1.2-0.7,2.4-0.7,3.7-0.7c0.8,0,1.8,0.3,1.8-1.1c0-1.2-0.3-2.2-1.7-2.4
	c-1.1-0.1-2.2-0.1-3.3,0.2c-0.5,0.1-1,0.2-1.2-0.4c-0.2-0.7,0.2-1,0.8-1.2c1.5-0.4,3-0.6,4.6-0.3c1.8,0.4,2.8,1.6,3,3.7
	C640.6,71.1,640.5,72.3,640.5,73.6C640.5,73.6,640.5,73.6,640.5,73.6L640.5,73.6z M635,76.8c2.3,0,3.4-0.9,3.5-2.4
	c0.1-1.5-0.8-1.6-1.9-1.5c-2.2,0-3.3,0.7-3.3,2C633.2,76.3,634.2,76.7,635,76.8L635,76.8z"/>
<path d="M683.8,72.6c-0.7,0-1.5,0-2.2,0c-1.8,0-2.2,0.5-1.5,2.2c0.5,1.2,1.3,1.9,2.7,2c1.2,0.1,2.3,0.1,3.5-0.2
	c0.5-0.1,1-0.1,1.2,0.5c0.2,0.6-0.2,0.9-0.8,1.1c-2,0.5-3.9,0.7-5.9,0c-0.3-0.1-0.5-0.2-0.8-0.4c-2.1-1.3-3-5-1.9-8.2
	c0.9-2.5,3-3.8,5.8-3.5c2.5,0.3,4.4,2.9,4.1,5.4c-0.1,0.8-0.5,1.1-1.2,1.1C685.8,72.6,684.8,72.6,683.8,72.6L683.8,72.6L683.8,72.6z
	 M683,71c0.5,0,1.1,0,1.7,0c1.5,0.1,1.4-0.6,1-1.6c-0.7-1.8-3.2-2.3-4.7-0.8c-0.6,0.5-1.2,1.2-0.9,2c0.3,0.8,1.2,0.4,1.8,0.4
	C682.3,71,682.7,71,683,71L683,71z"/>
<path d="M682.4,47.9c-0.8,0-1.7,0.1-2.5,0c-1.3-0.1-1.5,0.5-1.2,1.6c0.3,1.5,1.3,2.4,2.9,2.6c1.2,0.1,2.3,0.1,3.5-0.2
	c0.5-0.1,1-0.1,1.2,0.6c0.2,0.7-0.3,0.9-0.8,1c-1.6,0.4-3.2,0.6-4.8,0.3c-2.1-0.4-3.4-1.6-3.8-3.7c-0.4-2-0.5-4,0.4-5.9
	c1-2.2,3.4-3.3,5.8-2.8c2.1,0.4,3.6,2.4,3.7,4.8c0,1.2-0.3,1.8-1.6,1.7C684.2,47.8,683.3,47.9,682.4,47.9L682.4,47.9z M681.6,46.3
	c0.5,0,1.1-0.1,1.7,0c1.5,0.2,1.5-0.6,1.1-1.7c-0.8-2-3.7-2.2-5.1-0.5c-0.4,0.5-0.9,1.2-0.6,1.8c0.3,0.7,1.1,0.3,1.6,0.4
	C680.7,46.3,681.2,46.3,681.6,46.3L681.6,46.3z"/>
<path d="M640.8,52.1c0.8-0.1,1.5-0.2,2.3-0.3c0.5-0.1,1,0,1.1,0.6c0.1,0.6-0.2,0.8-0.7,0.9c-2.7,0.7-6.1,0.8-7.8-1.3
	c-1.7-2.1-1.7-6.4-0.1-8.7c1.3-1.8,3.8-2.6,6-1.8c2,0.7,3.3,2.8,3.2,5.2c0,0.9-0.5,1.1-1.3,1.1c-1.8,0-3.7,0-5.5,0
	c-1.3,0-1.6,0.5-1.2,1.6C637.2,51.3,638.3,52,640.8,52.1L640.8,52.1z M639.6,46.3c0.5,0,1.1,0,1.7,0c1.5,0,1.8-0.7,1-2
	c-1-1.7-3.6-1.8-4.9-0.1c-0.4,0.5-0.9,1.1-0.6,1.8c0.3,0.6,1,0.3,1.5,0.3C638.8,46.3,639.2,46.3,639.6,46.3L639.6,46.3z"/>
<path d="M762.9,76.8c0.8-0.1,1.5-0.2,2.3-0.3c0.5-0.1,0.9,0,1,0.6c0.2,0.6-0.2,0.8-0.6,1c-2.5,1.2-6.6,0.5-8-1.5
	c-1.7-2.4-1.4-7.2,0.7-9.2c1.4-1.4,4-1.8,5.8-1c1.7,0.8,2.8,2.9,2.8,4.8c0,1-0.5,1.4-1.5,1.4c-1.8,0-3.6,0.1-5.3,0
	c-1.4-0.1-1.6,0.5-1.2,1.7C759.4,76.1,760.4,76.8,762.9,76.8z M761.6,71c0.5,0,1.1,0,1.7,0c1.5-0.1,1.8-0.8,1-2
	c-1-1.6-3.6-1.7-4.8-0.1c-0.4,0.5-0.9,1.1-0.7,1.8c0.3,0.7,1.1,0.3,1.7,0.4C760.8,71,761.2,71,761.6,71L761.6,71z"/>
<path d="M631.9,23.8c-0.8,0-1.6,0-2.3,0c-1.6,0-1.9,0.4-1.4,1.9c0.5,1.4,1.5,2.2,3,2.3c1.2,0.1,2.3,0,3.5-0.3c0.5-0.1,0.9,0,1,0.6
	c0.1,0.6-0.2,0.8-0.7,1c-2.6,1.1-6.4,0.5-7.9-1.4c-1.6-2.1-1.6-6.5,0-8.7c1.3-1.8,3.9-2.5,6-1.7c1.9,0.7,3.2,2.9,3,5.1
	c0,0.8-0.5,1.2-1.3,1.2C633.9,23.8,632.9,23.8,631.9,23.8L631.9,23.8L631.9,23.8z M631,22.3c0.5,0,1.1,0,1.7,0
	c1.4-0.1,1.7-0.6,1.1-1.8c-0.9-1.8-3.2-2.2-4.8-0.7c-0.6,0.6-1.2,1.3-0.9,2c0.2,0.8,1.2,0.3,1.8,0.4C630.2,22.3,630.6,22.3,631,22.3
	L631,22.3z"/>
<path d="M675.7,28c0.3,0,1.1-0.2,1.8-0.3c0.5-0.1,0.9,0,1,0.6c0.1,0.6-0.2,0.8-0.7,1c-2.5,1.2-6.5,0.5-7.9-1.4
	c-1.7-2.3-1.5-7,0.4-9.1c1.3-1.5,4-2,5.9-1.2c1.8,0.8,2.8,2.6,2.8,4.7c0,1.1-0.5,1.5-1.5,1.5c-1.7,0-3.5,0-5.2,0
	c-1.3,0-1.5,0.6-1.3,1.7C671.5,27.3,672.7,28,675.7,28L675.7,28z M674.1,22.3c0.5,0,1.1,0,1.7,0c1.3,0.1,1.5-0.5,1.1-1.6
	c-0.8-2.1-3.5-2.4-5-0.6c-0.4,0.5-1,1.1-0.7,1.8c0.3,0.7,1.1,0.4,1.6,0.4C673.2,22.3,673.6,22.2,674.1,22.3L674.1,22.3z"/>
<path d="M614.8,24.6c0,1.3,0,2.6,0,3.8c0,0.9-0.5,1.3-1.3,0.8c-0.7-0.4-1.1-0.2-1.7,0c-1.3,0.5-2.6,0.7-3.9,0.2s-2.2-1.3-2.3-2.7
	c-0.2-1.6,0.3-2.9,1.8-3.6c1.2-0.6,2.5-0.7,3.7-0.8c0.7-0.1,1.8,0.3,1.8-0.9c0-1.1-0.4-2.1-1.7-2.3c-1.1-0.2-2.2-0.1-3.3,0.1
	c-0.6,0.1-1.1,0.3-1.3-0.5c-0.2-0.9,0.4-1,1-1.2c1.3-0.4,2.8-0.4,4.1-0.2c1.9,0.3,3,1.6,3.1,3.6C614.9,22.2,614.8,23.4,614.8,24.6
	L614.8,24.6L614.8,24.6z M611,24.1c-2.2,0-3.5,0.8-3.4,2.1c0.1,1.3,1,1.8,2.3,1.8c1.9-0.1,3-1,3.1-2.5
	C613.1,23.8,611.9,24.1,611,24.1L611,24.1z"/>
<path d="M653.9,72.6c-0.7,0-1.4,0-2.2,0c-1.8,0-2.1,0.3-1.5,2c0.4,1.3,1.3,2,2.7,2.1c1.2,0.1,2.3,0.1,3.5-0.2c0.5-0.1,1-0.2,1.2,0.5
	c0.2,0.7-0.2,0.9-0.8,1.1c-1.5,0.4-3.1,0.6-4.6,0.4c-2.5-0.4-3.9-2-4.2-4.5c-0.2-1.5-0.2-3,0.3-4.4c0.9-2.5,3.2-3.8,5.8-3.4
	c2.3,0.3,4,2.3,4,5c0,1.1-0.4,1.5-1.5,1.5C655.8,72.5,654.9,72.6,653.9,72.6L653.9,72.6L653.9,72.6z M653,71c0.5,0,1.1,0,1.7,0
	c0.5,0,1.1,0.2,1.3-0.4c0.3-0.6,0-1.2-0.3-1.7c-0.9-1.4-3.2-1.6-4.5-0.4c-0.6,0.6-1.2,1.3-0.9,2c0.2,0.8,1.2,0.3,1.8,0.4
	C652.3,71,652.6,71,653,71L653,71z"/>
<path d="M648.8,102.9c-4.3,0-6.7-2-7.5-6c-0.4-2.1-0.2-4.1,0.5-6.1c1.5-3.9,6.5-5.8,10.2-4c0.5,0.2,0.9,0.4,0.7,1.1
	c-0.2,0.7-0.7,0.8-1.3,0.6c0,0-0.1,0-0.2,0c-2.5-0.6-5-0.9-6.6,1.5c-1.9,2.7-1.9,5.6-0.4,8.5c1.1,2.2,3.6,3,6.6,2.3
	c0.3-0.1,0.6-0.2,1-0.3c0.5-0.1,0.9-0.1,1.1,0.4c0.2,0.6,0,0.9-0.5,1.2C651.1,102.9,649.9,103,648.8,102.9z"/>
<path d="M614.5,73.3c0,1.3,0,2.6,0,3.8c0,0.7-0.5,1.4-1.1,0.9c-0.8-0.7-1.3-0.2-1.9,0c-1.3,0.5-2.6,0.6-3.9,0.2
	c-1.4-0.5-2.2-1.4-2.3-2.9c-0.1-1.6,0.5-2.7,1.9-3.4c1.1-0.6,2.3-0.6,3.6-0.6c0.7,0,1.8,0.4,1.9-0.9c0-1.2-0.3-2.2-1.7-2.5
	c-1.1-0.2-2.2-0.1-3.3,0.2c-0.5,0.1-1.1,0.4-1.3-0.4c-0.2-0.9,0.4-1.1,1-1.2c0.9-0.2,1.9-0.4,2.8-0.4c3.1-0.1,4.5,1.3,4.5,4.4
	C614.5,71.4,614.5,72.3,614.5,73.3C614.5,73.3,614.5,73.3,614.5,73.3L614.5,73.3z M611,72.9c-2.5,0-3.5,0.6-3.5,2.1
	c0,1.4,0.9,1.8,2.1,1.8c1.9,0,3-0.9,3.1-2.4C612.8,72.8,611.8,72.8,611,72.9L611,72.9z"/>
<path d="M709.1,73.2c0,1.3,0,2.6,0,3.8c0,0.7-0.4,1.5-1,1c-0.9-0.7-1.5-0.2-2.2,0.1c-3.2,1.3-6.1-0.4-6-3.4c0.1-1.8,1.3-3,3.3-3.3
	c0.7-0.1,1.4,0,2.2-0.1c0.7-0.1,1.7,0.4,1.8-0.9c0.1-1.2-0.2-2.3-1.6-2.6c-1.2-0.2-2.3-0.2-3.5,0.1c-0.6,0.2-1.1,0.3-1.3-0.5
	c-0.2-0.8,0.4-1,0.9-1.1c1.2-0.4,2.5-0.5,3.8-0.4c2.1,0.2,3.4,1.5,3.5,3.7C709.1,70.9,709.1,72,709.1,73.2L709.1,73.2z M705.6,72.9
	c-2.6,0-3.6,0.6-3.6,2c0,1.5,0.9,1.9,2.2,1.8c1.9,0,3-1,3-2.5C707.3,72.7,706.3,72.9,705.6,72.9L705.6,72.9z"/>
<path d="M647.1,47.6c0-1.6,0-3.1,0-4.7c0-0.4,0-0.9,0.5-1.1c0.5-0.2,1-0.1,1.2,0.5c0.4,0.8,0.8,0.2,1.2-0.1c0.9-0.6,1.9-0.9,3-0.9
	c2.2,0.1,3.5,1.2,3.9,3.3c0.5,2.5,0.2,5.1,0.2,7.6c0,0.7-0.2,1.2-1,1.2c-0.8,0-1-0.6-1-1.2c0-2.1,0-4.1,0-6.2c0-2-0.8-2.9-2.4-3
	c-1.9,0-3.5,1.4-3.5,3.2c0,1.9,0,3.8,0,5.7c0,0.7,0,1.6-1,1.5s-1-0.9-1-1.6C647.1,50.5,647.1,49,647.1,47.6L647.1,47.6L647.1,47.6z"
	/>
<path d="M598.1,100.4c1.2-2.9,2-5.3,2.6-7.8c0.1-0.5,0.3-1,0.5-1.4s0.7-0.5,1.2-0.3c0.5,0.2,0.5,0.6,0.4,1c-1.5,5-2.9,10.1-5.9,14.5
	c-0.7,1.1-1.8,1.7-3.1,1.5c-0.5-0.1-0.9-0.2-0.9-0.8c0-0.5,0.3-0.8,0.8-0.9c2.9-0.9,3.7-2.8,2.5-5.6c-1-2.5-1.9-5-2.8-7.5
	c-0.2-0.6-1.1-1.6,0.1-2.1c1.2-0.4,1.4,0.7,1.7,1.5C596.2,95,597.1,97.5,598.1,100.4L598.1,100.4z"/>
<path d="M598.2,50.9c1.2-2.6,1.8-5,2.5-7.4c0.1-0.5,0.3-1,0.5-1.4c0.2-0.5,0.7-0.4,1.2-0.4c0.5,0.1,0.5,0.6,0.4,0.9
	c-1.5,5-2.9,10-5.9,14.4c-0.7,1-1.6,1.6-2.8,1.5c-0.5,0-1,0-1.1-0.7c-0.1-0.6,0.3-1,0.8-1c1.2-0.1,1.8-0.9,2.4-1.8
	c0.8-1.1,0.8-2.1,0.2-3.4c-1.2-2.7-2.3-5.5-3.2-8.4c-0.2-0.5-0.7-1.2,0.4-1.5c0.8-0.2,1.2,0.2,1.5,0.9C596,45.3,596.9,48,598.2,50.9
	L598.2,50.9z"/>
<path d="M682.6,98.3c0,1.2,0,2.3,0,3.5c0,0.6-0.3,1.1-1,1c-0.7,0-0.8-0.5-0.8-1.1c0-1.7,0-3.4,0-5.2c0-0.9-0.1-1.8-0.4-2.6
	c-0.4-1.2-1.3-1.8-2.6-1.6c-2,0.3-3.2,1.7-3.2,3.8c0,1.8,0,3.6,0,5.3c0,0.6,0,1.3-0.9,1.3c-1,0-1-0.7-1-1.4c0-3.1,0-6.1,0-9.1
	c0-0.5-0.1-1.1,0.5-1.3c0.5-0.2,0.8,0.1,1,0.5c0.3,0.8,0.8,0.3,1.2,0c3.9-2.2,7-0.4,7.1,4C682.7,96.5,682.6,97.4,682.6,98.3
	C682.6,98.3,682.6,98.3,682.6,98.3L682.6,98.3z"/>
<path d="M632.2,47.7c0,1.6,0,3.1,0,4.7c0,0.4,0,0.9-0.6,1.1c-0.4,0.1-0.8-0.1-0.9-0.5c-0.4-0.9-0.9-0.3-1.3-0.1c-1,0.6-2,1-3.1,0.9
	c-2.1-0.1-3.6-1.4-3.8-3.7c-0.2-2.4-0.1-4.9-0.1-7.3c0-0.6,0.2-1.1,1-1.1c0.8,0,0.9,0.5,0.9,1.1c0,1.9,0,3.8,0,5.7
	c0.1,2.5,0.9,3.6,2.6,3.5c2,0,3.5-1.6,3.5-3.8c0-1.7,0-3.4,0-5.2c0-0.7,0-1.4,1-1.4c0.9,0,0.8,0.7,0.9,1.3
	C632.3,44.6,632.2,46.1,632.2,47.7L632.2,47.7L632.2,47.7z"/>
<path d="M773.1,67.8c-0.2,0-0.7,0-1.2,0.1c-0.7,0.1-1.2,0.6-1.3,1.3c-0.1,0.7,0.2,1.2,0.8,1.5c0.8,0.4,1.6,0.7,2.4,1.1
	c1.4,0.6,2.3,1.6,2.2,3.2c-0.1,1.6-1,2.7-2.5,3.2c-1.4,0.4-2.7,0.4-4.1,0.1c-0.6-0.1-1.1-0.3-1-1.1c0.2-0.9,0.8-0.7,1.4-0.6
	c0.8,0.1,1.7,0.2,2.5,0.1c0.8-0.1,1.5-0.5,1.6-1.4c0.1-0.9-0.3-1.4-1.1-1.7c-0.8-0.4-1.6-0.7-2.4-1.1c-1.3-0.6-2.1-1.7-2-3.2
	c0.1-1.6,1-2.6,2.6-3.1c1-0.3,2-0.3,3-0.1c0.6,0.1,1.3,0.2,1.1,1.1c-0.2,0.8-0.8,0.6-1.3,0.6C773.7,67.9,773.5,67.8,773.1,67.8
	L773.1,67.8z"/>
<path d="M626.8,67.8c-0.3,0-0.8,0-1.3,0.2c-0.6,0.2-1,0.7-1.1,1.3c-0.1,0.6,0.3,1.1,0.8,1.4c0.7,0.4,1.5,0.7,2.3,1
	c1.5,0.6,2.6,1.6,2.5,3.4c-0.1,1.7-1.2,2.8-3,3.3c-1.3,0.3-2.5,0.2-3.8-0.1c-0.5-0.1-0.9-0.4-0.8-1.1c0.1-0.6,0.5-0.8,1.1-0.7
	c0.9,0.2,1.8,0.3,2.7,0.2c0.8-0.1,1.5-0.4,1.7-1.3c0.2-0.9-0.2-1.5-1-1.9c-0.7-0.3-1.4-0.6-2.2-0.9c-1.6-0.6-2.3-1.8-2.2-3.5
	c0.2-1.7,1.3-2.5,2.8-2.9c0.9-0.2,1.8-0.2,2.6,0c0.5,0.1,1.3,0.2,1.2,1.1c-0.1,0.9-0.8,0.7-1.4,0.6
	C627.4,67.9,627.2,67.8,626.8,67.8L626.8,67.8z"/>
<path d="M621.2,17.3c0.3,0,0.6-0.1,0.8,0c0.7,0.2,1.8,0,1.6,1.2c-0.2,1.2-1.1,0.6-1.7,0.5c-0.6-0.1-1.2-0.1-1.8,0.2
	c-0.6,0.3-1,0.7-1.1,1.4c-0.1,0.7,0.3,1.2,0.9,1.5c0.8,0.4,1.7,0.7,2.6,1.2c1.3,0.6,2.1,1.6,2,3.2c-0.1,1.5-0.9,2.6-2.4,3.1
	c-1.5,0.5-2.9,0.4-4.4,0.1c-0.5-0.2-0.9-0.4-0.8-1.1c0.1-0.6,0.6-0.8,1.1-0.6c0.9,0.2,1.8,0.3,2.6,0.2c0.8-0.1,1.5-0.4,1.7-1.3
	c0.2-0.9-0.3-1.5-1.1-1.8c-0.5-0.2-1-0.4-1.5-0.6c-2.3-1-3.1-2.2-2.7-4.2C617.4,18.2,618.9,17.3,621.2,17.3L621.2,17.3z"/>
<path d="M716.3,67.8c-0.8,0-1.8-0.2-2.3,0.6c-0.6,0.9-0.5,1.8,0.6,2.4c0.8,0.4,1.7,0.7,2.6,1.1c1.2,0.6,2,1.6,1.9,3
	c-0.1,1.5-0.8,2.5-2.2,3.1c-1.4,0.6-2.9,0.6-4.4,0.2c-0.6-0.2-1-0.4-0.9-1.1c0.1-0.8,0.7-0.8,1.3-0.6c0.9,0.2,1.8,0.2,2.7,0.1
	c0.8-0.1,1.5-0.6,1.7-1.4c0.2-0.9-0.4-1.3-1.1-1.7c-0.8-0.4-1.6-0.7-2.4-1.1c-1.4-0.7-2.2-1.7-2-3.3c0.2-1.6,1.2-2.6,2.7-3
	c0.9-0.2,1.8-0.2,2.6-0.1c0.6,0.1,1.5,0.2,1.3,1.1c-0.1,0.9-0.9,0.6-1.5,0.6C716.6,67.9,716.5,67.8,716.3,67.8L716.3,67.8z"/>
<path d="M715.3,103.2c-0.5-0.1-1.3-0.2-2.1-0.4c-0.6-0.1-0.8-0.6-0.6-1.2c0.1-0.6,0.6-0.6,1-0.6c0.9,0.2,1.7,0.4,2.6,0.3
	c0.9-0.1,1.6-0.5,1.8-1.4c0.2-1-0.5-1.5-1.3-1.9c-0.8-0.3-1.6-0.6-2.3-1c-1.3-0.7-2.1-1.7-1.9-3.2c0.2-1.6,1.1-2.6,2.7-3
	c1-0.3,2.1-0.2,3.1,0c0.5,0.1,1,0.3,0.9,1c-0.1,0.7-0.6,0.7-1.1,0.7c-0.5-0.1-1-0.2-1.5-0.2c-0.9,0-1.6,0.4-1.9,1.3
	c-0.3,1,0.3,1.6,1.1,2c0.5,0.2,0.9,0.4,1.4,0.6c2.3,0.9,3,2,2.8,3.9c-0.2,1.6-1.6,2.7-3.7,3C716.1,103.1,715.8,103.1,715.3,103.2
	L715.3,103.2z"/>
<path d="M631.2,90.7c0.1,0,0.5,0,0.9,0.1c0.6,0.1,1.3,0.2,1.2,1.1c-0.1,1-0.8,0.7-1.4,0.6c-0.6-0.1-1.2-0.3-1.8-0.1
	c-0.7,0.3-1.3,0.7-1.4,1.5c-0.1,0.9,0.4,1.3,1.1,1.6c0.8,0.4,1.7,0.7,2.4,1.1c1.2,0.6,2,1.6,2,3c-0.1,1.4-0.8,2.5-2.2,3.1
	c-1.5,0.6-3,0.5-4.6,0.2c-0.5-0.1-0.9-0.4-0.8-1c0.1-0.7,0.7-0.8,1.2-0.7c0.9,0.2,1.8,0.4,2.6,0.2c0.8-0.1,1.5-0.5,1.6-1.4
	c0.1-0.8-0.3-1.4-1-1.7c-0.5-0.2-1-0.4-1.5-0.7c-2.4-1-3.2-2.3-2.7-4.3C627.1,91.6,628.7,90.7,631.2,90.7L631.2,90.7z"/>
<path d="M753.8,78.4c-1.9,0-2.9-0.8-3.2-2.7c-0.4-2-0.1-4.1-0.2-6.1c0-0.8,0-1.6-1.1-1.7c-0.4-0.1-0.6-0.3-0.6-0.7s0.2-0.7,0.5-0.7
	c1.4,0,1.4-1,1.4-2c0-0.6,0-1.5,0.9-1.5c1.1,0,0.9,1,0.9,1.6c-0.1,1.4,0.4,2,1.8,1.8c0.5-0.1,1.1,0,1.1,0.7c0,0.7-0.5,0.8-1,0.8
	c-1.7-0.2-1.9,0.8-1.8,2.1c0.1,1.7,0,3.3,0,5c0,1.1,0.4,1.7,1.6,1.7c0.6,0,1.4,0,1.3,0.9C755.2,78.5,754.3,78.3,753.8,78.4
	L753.8,78.4z"/>
<path d="M687,96.9c0,3.5,1.6,4.9,5.2,4.2c0.5-0.1,1.2-0.4,1.4,0.4c0.2,0.7-0.3,1-0.9,1.2c-2.3,0.8-5.4,0.1-6.7-1.6
	c-1.5-2-1.5-6,0-8.2c1.3-1.9,3.9-2.7,6.3-2c0.5,0.2,1.4,0.2,1.2,1c-0.2,1-1,0.7-1.6,0.6C688.5,92.1,687,93.4,687,96.9L687,96.9z"/>
<path d="M689.5,47.6c0-0.8,0-1.7,0-2.5c0-0.9,0.2-2-1.2-2.1c-0.4,0-0.5-0.3-0.5-0.7c0-0.3,0.2-0.6,0.4-0.6c1.6,0,1.4-1.3,1.6-2.2
	c0.1-0.6,0-1.4,0.9-1.2c0.8,0.1,0.7,0.8,0.6,1.3c-0.2,1.5,0.3,2.3,2,2.1c0.4-0.1,0.9,0.1,0.9,0.7c0,0.6-0.4,0.8-0.9,0.8
	c-2-0.3-2.1,0.9-2,2.4c0.1,1.4,0,2.9,0,4.3c0,1.3,0.4,2.1,1.9,2.2c0.5,0,1,0.1,1,0.8c0,0.7-0.6,0.7-1.1,0.8c-2.2,0.4-3.6-0.8-3.7-3
	C689.5,49.6,689.5,48.6,689.5,47.6L689.5,47.6L689.5,47.6z"/>
<path d="M645.6,73.7c0,2,0.1,4,0,6c-0.1,2.5-1.5,3.8-3.6,3.5c-0.5-0.1-1-0.2-1.1-0.8c-0.1-0.7,0.4-0.9,0.9-0.9
	c1.7-0.1,1.9-1.2,1.9-2.5c0-3.1,0-6.2,0-9.3c0-0.4,0-0.9,0-1.3c0.1-0.7-0.4-1.9,1-1.9c1.2,0,0.8,1.1,0.9,1.8
	C645.6,70,645.6,71.9,645.6,73.7C645.6,73.7,645.6,73.7,645.6,73.7L645.6,73.7z"/>
<path d="M705.3,19c1.1-1.1,2.1-2,3.6-1.7c0.5,0.1,0.9,0.2,0.9,0.7c0,0.5-0.2,0.9-0.8,1.1c-3.1,0.8-3.7,1.6-3.7,4.7
	c0,1.4,0,2.9,0,4.3c0,0.6-0.1,1.2-0.9,1.3c-1,0.1-1.1-0.6-1.1-1.3c0-2.9,0-5.9,0-8.8c0-0.6-0.2-1.4,0.7-1.6
	C705,17.4,704.9,18.4,705.3,19L705.3,19z"/>
<path d="M439.8,11.8c-1.9,0-3.2-1.2-3.1-3.1c0-1.7,1.3-3.1,3-3.1c1.7,0,3.2,1.4,3.2,3.2C442.8,10.6,441.6,11.8,439.8,11.8z"/>
<path d="M380.9,11.8c-1.8,0-3.1-1.2-3.1-3c0-1.7,1.5-3.2,3.2-3.2c1.7,0.1,3,1.5,3,3.2C384,10.5,382.7,11.8,380.9,11.8z"/>
<path d="M683,20.7c0,2.4,0,4.9,0,7.3c0,0.6,0.1,1.3-0.8,1.4c-1,0.1-1-0.7-1-1.4c0-4.9,0-9.8,0-14.7c0-0.7,0-1.4,1-1.4
	c0.9,0.1,0.8,0.8,0.8,1.4C683.1,15.8,683,18.3,683,20.7L683,20.7z"/>
<path d="M697.3,69.4c0,2.4,0,4.8,0,7.2c0,0.7,0.1,1.6-1,1.5c-1-0.1-0.8-0.9-0.8-1.5c0-4.8,0-9.5,0-14.3c0-0.6-0.2-1.5,0.8-1.5
	c1.1-0.1,1,0.8,1,1.5C697.4,64.7,697.3,67.1,697.3,69.4L697.3,69.4z"/>
<path d="M612.2,94.1c0,2.4,0,4.8,0,7.2c0,0.6,0.1,1.4-0.9,1.5c-1,0-1-0.8-1-1.4c0-4.8,0-9.6,0-14.5c0-0.6-0.1-1.5,0.9-1.5
	c1.1,0,0.9,0.9,1,1.6C612.2,89.4,612.2,91.8,612.2,94.1L612.2,94.1z"/>
<path d="M702.2,47.6c0-1.6,0-3.2,0-4.8c0-0.4,0-0.8,0.5-1c0.4-0.1,0.8-0.1,1,0.4c0.3,1.1,0.8,0.6,1.3,0.2c0.8-0.8,1.8-1.1,2.9-0.9
	c0.5,0.1,0.9,0.3,0.8,0.9c0,0.5-0.3,0.8-0.8,0.9c-3.1,0.9-3.8,1.7-3.8,4.8c0,1.3,0,2.6,0,3.8c0,0.7,0.2,1.6-0.9,1.6
	c-1.1,0-0.9-0.9-1-1.6C702.1,50.4,702.2,49,702.2,47.6C702.2,47.5,702.2,47.5,702.2,47.6L702.2,47.6z"/>
<path d="M743.3,68c1-1,1.8-2,3.3-1.9c0.6,0,1.4-0.1,1.4,0.8c0.1,0.8-0.5,1.1-1.3,1.1c-1.7,0.1-3.2,1.9-3.3,3.6s0,3.4,0,5.2
	c0,0.7,0,1.4-0.9,1.5c-1,0-0.9-0.8-0.9-1.4c0-2.9,0-5.8,0-8.7c0-0.6-0.3-1.5,0.7-1.6C743.3,66.3,743,67.4,743.3,68L743.3,68z"/>
<path d="M698.3,96.9c0,1.5,0,3,0,4.5c0,0.7-0.1,1.4-1,1.4c-1,0-1-0.7-1-1.4c0-3.1,0-6.1,0-9.2c0-0.7,0.1-1.4,1.1-1.4
	c1,0,1,0.7,1,1.4C698.3,93.8,698.3,95.4,698.3,96.9z"/>
<path d="M655.5,96.9c0-1.6,0-3.1,0-4.7c0-0.6,0.1-1.3,0.9-1.3c0.9-0.1,1.1,0.6,1.1,1.4c0,3.1,0,6.2,0,9.3c0,0.6-0.2,1.2-1,1.2
	c-0.8,0-1-0.6-1-1.3C655.5,100,655.5,98.5,655.5,96.9L655.5,96.9z"/>
<path d="M619.8,72.3c0,1.5,0,3,0,4.5c0,0.7-0.1,1.4-1,1.4c-1,0-1-0.7-1-1.4c0-3,0-6,0-9c0-0.7,0-1.4,1-1.4c1.1,0,1.1,0.8,1.1,1.5
	C619.8,69.4,619.8,70.9,619.8,72.3L619.8,72.3z"/>
<path d="M698.7,47.7c0,1.6,0,3.1,0,4.7c0,0.5-0.1,1-0.8,1.1c-0.7,0.1-1-0.4-1-1c0-3.2,0-6.4,0-9.7c0-0.6,0.2-1.1,1-1.1
	c0.8,0,0.8,0.6,0.8,1.2C698.7,44.5,698.7,46.1,698.7,47.7L698.7,47.7z"/>
</svg>
