<?xml version="1.0" encoding="utf-8"?>
<!-- Generator: Adobe Illustrator 27.7.0, SVG Export Plug-In . SVG Version: 6.00 Build 0)  -->
<svg version="1.1" id="Capa_17" xmlns="http://www.w3.org/2000/svg" xmlns:xlink="http://www.w3.org/1999/xlink" x="0px" y="0px"
	 viewBox="0 0 741 134.9" style="enable-background:new 0 0 741 134.9;" xml:space="preserve">
<path d="M52.4,40.2c12.6,0,25.1,0,37.7,0c1.8,0,1.8,0,1.8,1.8c0,21.3,0,42.5,0,63.8c0,6.9-2.1,13.2-6.8,18.3
	c-4,4.3-9.1,6.9-14.7,8.4c-7.7,2.1-15.6,2.6-23.6,2c-6.2-0.4-12.2-1.5-17.8-4c-9.7-4.4-15.2-12-15.9-22.6c-0.6-9-0.2-18-0.2-27
	c-0.1-13,0-25.9,0-38.9c0-1.7,0.1-1.8,1.8-1.8C27.2,40.2,39.8,40.2,52.4,40.2L52.4,40.2z M25.6,79.7C25.6,79.7,25.6,79.7,25.6,79.7
	c0,8,0,16,0,24c0,1.6,0.2,3.2,0.6,4.8c0.2,0.9,0.6,1.3,1.6,1.3c6,0,11.9,0,17.9,0c2.4,0,3.7-1.2,3.7-3.6c0.1-9.2,0-18.5,0.1-27.8
	c0-0.9-0.3-1.2-1.2-1.4c-1.7-0.3-3.3-0.7-4.9-1.3c-2.7-1-5.2-2.5-6.9-4.8c-2.4-3.2-2.2-7.1,0.4-10.1c1.1-1.3,2.4-2.3,3.9-3.1
	c5.2-2.8,10.7-3.4,16.4-2.3c3.6,0.7,6.8,1.9,9.6,4.4c3.8,3.4,4.2,7.8,0.9,11.8c-0.7,0.9-1.6,1.6-2.6,2.3c-2.5,1.6-5.2,2.6-8.1,3.1
	c-0.7,0.1-1.6,0-1.8,1.1c-0.6,3.4,0.8,6.4,1.9,9.5c0.1,0.2,0.2,0.3,0.3,0.4c0.2,0.3,0.5,0.6,0.9,0.5c0.4-0.1,0.3-0.5,0.3-0.9
	c0-2.1,0.2-4.2-1.2-6.1c-0.2-0.3-0.4-0.8-0.4-1.1c-0.2-0.9,0.3-1.6,1-2.1c0.4-0.4,0.9-0.4,1.4-0.1c1.9,1.2,4.1,1.7,6.1,2.5
	c1.2,0.4,1.4,1.1,0.8,2.1c-1,1.8-0.8,3.5-0.2,5.3c1.2,3.5,2.3,7,4.3,10.1c0.4,0.7,0.7,1.5,1,2.3c0.5,1.4,0.5,2.7-0.3,3.9
	c-0.3,0.5-0.5,1-0.3,1.7c0.8,2.5,2.5,3.7,5,3.8c0.5,0,0.9-0.1,1.4,0c1,0.1,1.4-0.4,1.6-1.3c0.3-1.7,0.7-3.4,0.7-5.2
	c0-16.3,0-32.7,0-49c0-1.4-0.4-1.8-1.8-1.8c-16.7,0.1-33.4,0.1-50.2,0c-1.4,0-1.8,0.4-1.8,1.8C25.6,62.8,25.6,71.3,25.6,79.7
	L25.6,79.7z M52.6,112.7L52.6,112.7c-7.4,0-14.9,0-22.3,0c-0.6,0-1.5-0.4-1.7,0.4c-0.2,0.7,0.5,1.1,0.9,1.6c2.5,2.7,5.7,4.3,9.1,5.2
	c7.6,2.1,15.4,2.2,23.2,1c5.3-0.9,10.3-2.6,14-6.9c0.3-0.3,0.9-0.6,0.7-1.1c-0.2-0.5-0.8-0.3-1.3-0.3
	C67.7,112.7,60.1,112.7,52.6,112.7L52.6,112.7z M55.4,94.1c-0.1,0.1-0.2,0.1-0.3,0.2c0,4.3,0,8.5,0,12.8c0,1,0.5,1.9,1.5,2.3
	c1.9,0.7,3.8,0.8,5.7-0.5c0.7-0.5,0.8-0.9,0.1-1.4c-1-0.9-1.6-2-1.7-3.3c0-0.4-0.2-0.7-0.4-1c-1-1.7-1.6-3.5-1.5-5.5
	c0-0.4,0.1-1.1-0.4-1.1C56.7,96.5,56,95.4,55.4,94.1L55.4,94.1z M21.6,77c0.3-1.2-0.9-0.5-1.2-0.9c-0.8-0.9-1.3-1.2-2.5-0.1
	c-0.8,0.6-1.4,0.8-0.9,1.9c0.1,0.2,0.1,0.5,0,0.7c-0.5,0.8-0.3,1.2,0.7,1.3c0.8,0,1,1.4,1.6,1.3c0.6-0.1,0.7-1.3,1.7-1.3
	c0.4,0,0.7-0.3,0.5-0.8C21.3,78.3,21.5,77.7,21.6,77z M17.4,44.7c-0.3-0.1-0.7-0.3-0.9,0c-0.3,0.4,0.1,0.7,0.3,0.9
	c0.5,0.6,0.3,1.1-0.1,1.6c-0.3,0.4-0.4,0.9,0.4,0.8c0.8-0.1,1.2,0.2,1.6,0.8c0.3,0.6,0.6,0.6,1,0.1c0.2-0.3,0.4-0.7,0.6-0.7
	c1.2-0.2,1.8-0.7,1.1-2c-0.2-0.3,0.2-0.6,0.4-0.8c0.4-0.7,0.2-1-0.5-0.9c-0.8,0.1-1.3,0.1-1.7-0.8c-0.3-0.7-0.7-0.6-0.8,0.1
	C18.6,44.7,18.1,44.8,17.4,44.7z M85.5,74.4c-0.2,1.5-0.8,1.9-1.8,1.9c-0.3,0-0.5,0.2-0.4,0.5c0.2,0.9,0.5,1.7-0.2,2.5
	c1,0.6,2,1.1,2.9,1.7c0.3-0.9,1.5-0.9,1.8-1.5c0.4-0.8,0.3-2,0.4-3c0-0.1-0.2-0.2-0.3-0.2C86.7,76.4,86.2,75.6,85.5,74.4L85.5,74.4z
	 M49.4,44.6c0.6,1.1,1.1,1.6,0.6,2.8c-0.5,1.1,1.9,0.1,1.9,1.4c0,0.1,0.1,0.2,0.1,0.2c0.2,0.5,0.7,0.5,0.8,0c0.3-1.1,1.3-0.9,2-1.3
	c0.8-0.5-0.8-1.5,0.1-2.3c0.1-0.1,0.1-0.2,0.1-0.2c0.2-0.5,0-0.8-0.5-0.7c-0.9,0.2-1.4-0.1-1.7-0.9c-0.1-0.3-0.6-0.6-0.7-0.1
	C51.8,45.1,50.7,44.8,49.4,44.6L49.4,44.6z M16.7,108.1c0.3,0.4,0.8,0.9,0.8,1c-0.9,1.8,0.5,2.1,1.6,2.9c0.6,0.4,0.7,0.8,1.1,0
	c0.4-0.8,1.4-0.5,1.9-1c0.6-0.5-0.7-1.4-0.1-2.1c0.6-0.7,0.2-0.9-0.4-1.1c-0.5-0.1-0.9-0.4-1.3-0.7c-0.3-0.2-0.7-0.5-1-0.1
	C18.6,108,17.7,107.9,16.7,108.1L16.7,108.1z M82.3,108.1c0.2,0.6,0.9,0.8,0.7,1.5c-0.1,0.2-0.3,0.5-0.3,0.8c-0.1,1.5,2.1,0.7,2.2,2
	c0,0.2,0.4,0.3,0.6,0.1c0.4-0.8,1-1.3,1.9-1.3c0.3,0,0.3-0.3,0.2-0.5c-0.2-0.8-0.4-1.5-0.1-2.4c0.1-0.2-1.4-0.5-1.9-1.2
	c-0.2-0.3-0.6-0.4-0.8-0.1C84.2,107.9,83.3,108,82.3,108.1L82.3,108.1z M85.7,49.7c0.4-1.3,1.1-1.6,2.1-1.9c1.1-0.3-0.6-1.6,0.2-2.3
	c0.1-0.1,0.1-0.2,0.1-0.2c0.2-0.6,0-0.8-0.6-0.6c-0.8,0.2-1.3,0-1.5-0.9c-0.1-0.3-0.5-0.8-0.8-0.2c-0.5,1.2-1.4,1.2-2.7,0.9
	c0.7,1.1,1.2,1.9,0.5,2.9c-0.2,0.2,0.2,0.5,0.5,0.5C84.6,47.9,85.1,48.6,85.7,49.7L85.7,49.7z"/>
<path d="M265.5,43c-1.7,2.2-3.4,4.2-5,6.3c-7.4,9.3-14.8,18.6-22.2,27.9c-1.4,1.8-3.1,1.9-4.6,0.1c-6-7.4-11.9-14.8-17.9-22.1
	c-2.9-3.6-6-7.2-8.8-10.8c-0.2-0.3-0.5-0.6-0.9-1c-0.4,0.6-0.3,1.1-0.3,1.6c0,22.6,0,45.2,0,67.8c0,1.5-0.8,2.2-2.3,2.2
	c-3.2,0-6.5-0.1-9.7,0c-1.3,0-1.8-0.4-1.8-1.7c0-30.2,0-60.4,0-90.6c0-1.1,0.4-1.6,1.5-1.5c3.4,0,6.8,0,10.2,0
	c0.7,0,1.3,0.2,1.8,0.8c6.6,8.2,13.3,16.4,19.9,24.6c3.2,4,6.5,7.9,9.7,11.9c0.6,0.7,0.9,0.8,1.5,0.1c9.3-11.6,18.7-23,27.9-34.7
	c1.7-2.1,3.3-2.9,5.9-2.7c2.4,0.2,4.9,0.1,7.3,0c1.2,0,1.7,0.3,1.7,1.6c0,28.6,0,57.2,0,85.7c0,1.7,0,3.4,0,5.1
	c0,0.9-0.4,1.3-1.3,1.3c-3.7,0-7.5,0-11.2,0c-0.9,0-1.3-0.4-1.2-1.2c0-0.5,0-0.9,0-1.4c0-22.5,0-44.9,0-67.4
	C265.8,44.3,265.9,43.7,265.5,43L265.5,43z"/>
<path d="M404.6,67.7c0-15.1,0-30.2,0-45.3c0-1.2,0.6-1.2,1.5-1.2c3.8,0,7.6,0,11.4,0c6.1,0,12.3-0.1,18.4,0
	c8.3,0.1,16.5,0.6,24.5,3.2c12.2,4,20.8,12.1,26.3,23.6c3.5,7.3,5.1,15.2,4.3,23.2c-1.8,18.9-11.6,32.3-29.2,39.8
	c-6.4,2.7-13.1,3.7-20,3.6c-11.5-0.1-23.1,0-34.6,0c-2.4,0-2.4,0-2.4-2.5C404.6,97.3,404.6,82.5,404.6,67.7
	C404.6,67.7,404.6,67.7,404.6,67.7L404.6,67.7z M418.4,67.8c0,1,0,1.9,0,2.9c0,10,0,20,0,29.9c0,0.9-0.1,1.7,1.2,1.7
	c9.2-0.3,18.4,0.6,27.5-0.6c6.8-0.9,13.1-3.2,18.3-7.9c10.3-9.4,13.2-21.3,10.5-34.5c-2.6-12.8-11.1-20.5-23.4-24.3
	c-5.2-1.7-10.7-1.4-16-1.6c-5.4-0.2-10.8,0-16.2,0c-1.9,0-1.9,0-1.9,1.9C418.4,46.2,418.4,57,418.4,67.8L418.4,67.8z"/>
<path d="M645.2,67.8c0-15.1,0-30.2,0-45.3c0-1.4,0.8-1.3,1.7-1.3c9.1,0,18.2,0,27.3,0c7.2,0,14.4,0.4,21.5,1.8
	c13.1,2.7,22.9,9.9,29.6,21.3c4.8,8.1,7,16.9,6.2,26.2c-1.7,20.2-12.3,34-31.3,41.3c-5.3,2-10.8,2.8-16.4,2.8c-12.2,0-24.3,0-36.4,0
	c-2,0-2.1,0-2.1-2.1C645.2,97.6,645.2,82.7,645.2,67.8C645.2,67.8,645.2,67.8,645.2,67.8L645.2,67.8z M659,67.9
	c0,10.2,0,20.3,0,30.5c0,0.9,0,1.8,0,2.8c0,0.9,0.3,1.2,1.2,1.2c9.2-0.2,18.4,0.6,27.5-0.6c8.2-1.1,15.4-4.3,21-10.6
	c4.9-5.6,7.6-12.1,8.3-19.5c0.7-6.5,0-12.9-2.8-18.9c-4.7-10-12.9-15.6-23.3-18.3c-4.3-1.1-8.8-0.9-13.2-1.1
	c-5.6-0.2-11.3-0.1-16.9-0.1c-1.9,0-1.9,0-1.9,1.8C659,46.1,659,57,659,67.9L659,67.9z"/>
<path d="M514.7,67.9c0-15,0-29.9,0-44.9c0-1.9,0-1.9,2-1.9c7.2,0,14.5-0.1,21.8,0.1c5.1,0.1,10.2,0.6,14.9,2.6
	c9.5,4,15.1,10.8,15.9,21.3c0.6,7.3-1.2,13.9-6.3,19.3c-2.2,2.4-4.9,4-7.8,5.4c-0.8,0.4-1.2,0.6-0.2,1.4c4.8,3.6,8.5,8.1,11.9,13
	c4.7,6.8,8.7,13.9,13.3,20.7c2,3,4.2,5.8,6.3,8.7c0.2,0.3,0.8,0.5,0.6,1c-0.2,0.5-0.8,0.3-1.3,0.3c-3.7,0-7.5-0.2-11.2,0.1
	c-2.7,0.2-4.1-0.9-5.6-3.1c-5.4-7.7-10-15.9-15.3-23.7c-2.7-3.9-6-7.2-9.5-10.4c-2.8-2.5-6.2-3.4-9.8-3.5c-1.5-0.1-3,0-4.4,0
	c-1.1-0.1-1.4,0.4-1.4,1.4c0,5.2,0,10.5,0,15.7c0,7.2,0,14.4,0,21.7c0,1.8,0,1.8-1.8,1.8c-3.4,0-6.7,0-10.1,0
	c-1.8,0-1.9-0.1-1.9-1.9C514.7,98,514.7,83,514.7,67.9L514.7,67.9z M528.4,47.4L528.4,47.4c0,4.4,0,8.7,0,13.1
	c0,1.1,0.3,1.5,1.5,1.6c4.3,0.1,8.7-0.1,13-0.6c7-0.8,11.9-6.1,12.2-13.5c0.2-6.3-3.2-12.4-10.5-14c-4.9-1.1-10-0.9-15-1.2
	c-1,0-1.2,0.6-1.2,1.4C528.4,38.7,528.4,43,528.4,47.4L528.4,47.4z"/>
<path d="M380.7,114.9c-1.9,0-3.9,0-5.8,0c-0.9,0-1.4-0.4-1.8-1.2c-3.7-8.4-7.5-16.8-11.3-25.2c-0.4-0.9-1-1.2-1.9-1.2
	c-12.3,0-24.7,0-37,0c-1,0-1.5,0.4-1.9,1.3c-3.3,7.9-6.6,15.7-9.9,23.5c-0.2,0.5-0.5,1-0.7,1.5c-0.4,0.9-1,1.3-2.1,1.3
	c-3.6,0-7.2,0-10.8,0c-1.6,0-1.7-0.3-1.1-1.7c11.6-26.9,23.1-53.9,34.7-80.8c1.5-3.5,3-6.9,4.4-10.4c0.4-1,1-1.3,2-1.3
	c2.2,0,4.4,0.1,6.6,0c1.1,0,1.8,0.4,2.2,1.4c4.5,10.2,9.1,20.4,13.7,30.6c6.5,14.4,12.9,28.8,19.4,43.2c2.6,5.9,5.3,11.9,8,17.8
	c0.4,1,0.3,1.3-0.9,1.3C384.6,114.9,382.7,115,380.7,114.9L380.7,114.9L380.7,114.9z M341.3,75L341.3,75c4.2,0,8.5,0,12.7,0
	c1.4,0,1.5-0.2,0.9-1.5c-0.5-1.2-1.1-2.4-1.6-3.6c-3.9-8.8-7.9-17.6-11.8-26.3c-0.2-0.4-0.2-0.9-0.7-1c-0.5-0.1-0.5,0.4-0.7,0.8
	c-4.2,10.1-8.4,20.2-12.6,30.3c-0.4,1.1-0.2,1.4,0.9,1.4C332.8,75,337.1,75,341.3,75L341.3,75z"/>
<path d="M618,68.2c0,14.9,0,29.8,0,44.7c0,2,0,2-2,2c-3.4,0-6.7,0-10.1,0c-1.9,0-1.9,0-1.9-1.9c0-13.1,0-26.2,0-39.3
	c0-16.8,0-33.6,0-50.4c0-1.4,0.7-2.1,2.1-2.1c3.4,0,6.7,0,10.1,0c1.8,0,1.9,0.1,1.9,1.9C617.9,38.1,617.9,53.1,618,68.2L618,68.2
	L618,68.2z"/>
<path d="M22.5,16.1c1-0.1,1.7-0.2,1.7-1.2c0-0.8,0.8-1.2,1.5-1.4c1-0.3,1.6-0.8,1.4-1.9c-0.1-0.4-0.1-0.9,0.4-1.1
	c0.4-0.1,0.6,0.3,0.9,0.5c0.4,0.4,0.8,0.7,1.5,0.6c0.1-0.7-0.6-1.1-0.9-1.6c-0.5-1-0.3-1.4,0.8-1.3c0.9,0.1,1.4-0.3,1.7-1.1
	c0,0,0-0.1,0-0.1c0.4-0.7,0.6-1.8,1.6-1.7c0.8,0,1.2,0.9,1.5,1.7c0.4,1.2,1.1,1.5,2.2,1.3c0.3,0,0.7-0.2,0.9,0.2
	c0.2,0.4-0.1,0.7-0.3,1c0,0-0.1,0.1-0.1,0.1c-0.3,0.5-1.3,0.9-0.7,1.5c0.5,0.5,1-0.4,1.4-0.8c0.3-0.2,0.5-0.6,0.9-0.4
	c0.4,0.2,0.5,0.6,0.4,1c-0.2,1.4,0.6,2,1.8,2.3c0.8,0.2,1.1,0.7,1,1.4c-0.1,0.3-0.2,0.8,0.4,0.8c0.5,0,0.8-0.2,0.8-0.7
	c0-1.1,0.7-1.5,1.6-1.7c0.9-0.2,1.3-0.7,1.2-1.7c0-0.5-0.2-1.2,0.5-1.4c0.6-0.2,0.7,0.5,1,0.7c0.1,0.1,0.2,0.2,0.3,0.3
	c0.3,0.2,0.7,0.7,1.1,0.3c0.3-0.3-0.1-0.7-0.3-0.9c-0.1-0.2-0.3-0.3-0.4-0.5C48.2,9.8,47.8,9.5,48,9c0.2-0.6,0.8-0.3,1.2-0.2
	c0.8,0.1,1.3-0.2,1.6-1c0-0.1,0.1-0.3,0.2-0.4c0.4-0.6,0.5-1.6,1.4-1.6c0.9,0,1.1,1,1.5,1.6c0.5,0.9,0.9,1.9,2.2,1.3
	c0.3-0.1,0.6-0.1,0.8,0.2c0.2,0.3,0,0.6-0.2,0.9c-0.4,0.6-1.6,1.3-1,1.9c0.7,0.7,1.3-0.5,2-1s1.1-0.4,1,0.4
	c-0.1,1.4,0.3,2.3,1.8,2.6c0.7,0.1,0.9,0.7,0.9,1.3c0,0.6-0.4,1-1,1.1c-1.3,0.2-1.8,1-1.7,2.2c0,0.3,0.2,0.8-0.3,0.9
	c-0.4,0.1-0.7-0.2-1-0.4c-0.5-0.4-1-0.8-1.6-1.1c-0.9-0.5-1.5-0.1-1.5,0.9c-0.1,1.2,1.3,2.6,2.7,2.7c1.5,0.1,2.5-0.8,2.7-2.2
	c0.2-1.5,0.7-3,2.5-3.4c0.2-0.1,0.5-0.2,0.5-0.4c-0.1-1.4,1-1.8,2-2.1c0.8-0.3,0.8-0.9,0.8-1.6c0-0.5-0.1-1.1,0.4-1.3
	c0.6-0.3,0.7,0.4,1.1,0.7c0.4,0.3,0.9,0.9,1.3,0.5c0.5-0.5-0.2-0.9-0.5-1.3c-0.3-0.4-1-0.5-0.8-1.2c0.2-0.5,0.9-0.4,1.4-0.4
	c0.9,0.1,1.5-0.2,1.8-1.1c0-0.1,0.1-0.3,0.2-0.4c0.4-0.5,0.6-1.4,1.4-1.4c0.7,0,0.9,0.8,1.2,1.4c0.5,1.1,1,2,2.4,1.5
	c0.3-0.1,0.7,0,0.8,0.4c0.2,0.3,0,0.6-0.2,0.9c-0.1,0.1-0.1,0.1-0.2,0.2c-0.2,0.4-1.1,0.8-0.6,1.3c0.6,0.6,1-0.2,1.5-0.6
	c0.2-0.2,0.4-0.6,0.8-0.5c0.4,0.1,0.5,0.6,0.4,0.9c-0.2,1.3,0.4,1.9,1.7,2.2c0.7,0.2,1.2,0.8,1.2,1.7c0,0.3-0.2,0.7,0.4,0.7
	c0.4,0,0.8-0.1,0.8-0.6c0-1,0.6-1.5,1.4-1.8c1-0.3,1.5-1,1.4-2.1c0-0.4,0-0.9,0.5-1.1c0.4-0.1,0.6,0.3,0.9,0.5
	c0.1,0.1,0.3,0.3,0.4,0.4c0.4,0.2,0.9,0.7,1.2,0.3c0.4-0.4-0.2-0.8-0.5-1.1c-0.2-0.3-0.5-0.5-0.7-0.8c-0.3-0.5-0.1-0.8,0.4-0.9
	c0.4-0.1,0.8-0.1,1.2,0c1.1,0.1,1.9-0.3,2.7-1.1c2.1-2.3,5.1-2.8,7.8-1.5c0.3,0.2,0.6,0.3,0.5,0.7c-0.1,0.3-0.4,0.3-0.6,0.4
	c-3.3,0.7-4.9,2.5-5.1,5.9c-0.1,2.1,0,4.1-0.2,6.2c-0.7,5.1-6,7.9-10.3,5.4c-1.1-0.7-2.1-0.6-3.2,0C77.3,26,75,26,72.8,24.5
	c-0.8-0.5-1.5-0.5-2.3,0c-2.4,1.4-4.8,1.5-7.2,0c-0.8-0.5-1.5-0.5-2.3,0c-2.5,1.4-5,1.5-7.5,0c-0.7-0.4-1.3-0.5-2.1,0
	c-2.3,1.5-4.7,1.6-7.1,0.2c-1-0.6-1.8-0.5-2.9,0c-2.5,1.3-5,1.3-7.3-0.3c-0.6-0.4-1-0.4-1.6,0c-2.5,1.5-5,1.8-7.6,0.2
	c-0.8-0.5-1.5-0.4-2.3,0c-5.7,2.8-10.8-0.3-10.9-6.7c0-2,0.1-3.9-0.3-5.9C11,9.4,9.5,7.8,6.9,7.2c-0.4-0.1-1,0-1-0.7
	C5.9,5.9,6.5,6,7,5.9c3.2-1,5.8-0.3,7.9,2.3c0.5,0.7,1.3,0.4,1.9,0.5c0.5,0,0.9,0,1.4,0c0.7,0.1,1.2,0.3,0.4,1
	c-0.1,0.1-0.2,0.2-0.3,0.3c-0.3,0.5-1.2,0.9-0.7,1.4c0.4,0.4,0.9-0.3,1.3-0.7c0.8-0.8,1.3-0.4,1.3,0.5c0,1.3,0.8,1.9,1.9,2.4
	C23.3,14.1,23.6,14.9,22.5,16.1L22.5,16.1z M44.5,16.4c0.8,0.9,0.7,1.8,0.6,2.7c-0.1,0.9,0.2,1.5,1,2c1.7,1,3.9,0.2,4.4-1.8
	c0.1-0.4,0.2-0.9-0.2-1.3c-0.4-0.4-0.9-0.2-1.3,0c-0.4,0.2-0.8,0.5-1.3,0.8c-0.4,0.2-0.7,0.8-1.2,0.5c-0.4-0.2-0.2-0.8-0.2-1.1
	C46.2,17.2,46.2,16.3,44.5,16.4z M25.3,16.4c0.6,0.7,1.1,1.3,0.8,2.2c-0.5,1.4,0.3,2.1,1.3,2.7c0.9,0.5,2.6,0,3.3-0.8
	c0.5-0.7,1.1-1.7,0.5-2.4c-0.7-0.8-1.5,0-2.2,0.4c-0.1,0-0.1,0.1-0.2,0.2c-0.4,0.3-0.7,0.8-1.2,0.6c-0.6-0.2-0.5-0.8-0.4-1.3
	C27.1,16.7,26.6,16.2,25.3,16.4L25.3,16.4z M63.8,16.3c0.4,1.1,0.6,2,0.4,3c-0.1,0.5,0,0.9,0.4,1.2c0.9,0.8,2,1.2,3.2,0.7
	c1.2-0.4,1.7-1.4,1.9-2.5c0.2-0.8-0.3-1.1-1-1c-0.9,0.2-1.6,0.7-2.3,1.2c-0.8,0.5-1.2,0.3-1.1-0.7C65.4,17.3,65.1,16.6,63.8,16.3
	L63.8,16.3z M41.5,16.2c-1.6,0.3-2.2,0.9-2,2.2c0.2,1-0.4,1.2-1.2,0.7c-0.5-0.3-1-0.7-1.5-1c-0.5-0.3-1-0.6-1.5-0.2
	c-0.5,0.4-0.3,1-0.1,1.5c0.1,0.2,0.1,0.3,0.2,0.5c0.6,1.1,2.1,1.8,3.3,1.4c1.3-0.4,2-1.1,1.7-2.6C40.3,17.8,40.5,16.9,41.5,16.2z
	 M79,16.4c-1.3,0.3-1.2,1.1-1.3,2c0,0.4,0.1,1-0.4,1.2c-0.5,0.2-0.7-0.3-1-0.6c-0.5-0.5-1.1-0.9-1.7-1.1c-0.9-0.3-1.3,0.2-1.2,1
	c0.2,0.9,0.6,1.7,1.3,2.2c1,0.6,2,0.6,3,0c0.9-0.5,1.3-1.2,1-2.3C78.6,18,78.8,17.2,79,16.4L79,16.4z M21.3,19.5
	c0-0.3-0.1-0.7-0.2-1c-0.2-0.4-0.5-0.5-0.7-0.1c-0.6,1.8-1.3,0.7-2,0.1c-0.3-0.3-0.8-0.5-1.2-0.6c-0.9-0.2-1.4,0.2-1.2,1.1
	c0.2,1.1,0.8,1.9,1.9,2.3c1.1,0.4,2.1,0.2,2.9-0.6C21.1,20.3,21.3,20,21.3,19.5L21.3,19.5z M84.6,19.2c-0.5-0.1-1-0.1-1.2,0.4
	c-0.2,0.5,0.3,0.8,0.6,1.1c1.2,1,2.7,1,3.8,0.1c0.8-0.7,1.4-2.4,0.9-2.8c-0.9-0.7-1.7,0.1-2.5,0.5c-0.2,0.1-0.3,0.2-0.4,0.3
	C85.5,19.2,85.2,19.4,84.6,19.2L84.6,19.2z"/>
<path d="M54.1,30.4c1.5,0.5,3.8-0.1,4,2.2c0.2,1.7-1.7,2-3.4,2.6h35.2c-1.3-0.2-2.5-0.2-3.6-1.2c-1.3-1.1-1.3-1.8,0.1-2.8
	c1.2-0.9,4.7-0.6,5.9,0.4c0.9,0.8,1,1.5,0,2.2c-1,0.7-1.4,1.3-0.1,2.2c1.1,0.8,1,1.4-0.1,2.3c-0.7,0.7-1.6,0.8-2.6,0.8
	c-4.8,0-9.5,0-14.3,0c-19.9,0-39.9,0-59.9,0c-1,0-1.9,0-2.7-0.8c-1.1-1.1-1.2-1.7,0.1-2.5c1-0.6,0.8-1.1,0.1-1.8
	c-0.5-0.5-1.5-1-1-1.7c0.6-0.9,1.3-1.8,2.7-1.7c0.9,0.1,1.8,0,2.6,0.1c1,0.1,1.8,0.6,2,1.6c0.2,1.1-0.6,1.6-1.4,2
	c-0.6,0.3-1.3,0.4-2.2,0.8h34.6c-1-0.3-1.8-0.4-2.4-0.9c-0.6-0.5-1.6-0.9-1.2-1.8c0.3-1,1.1-1.7,2.3-1.7c1.2,0,2.4,0,3.5,0
	c0-0.1,0-0.2,0-0.4c-2.2-0.1-4.4-0.3-6.6-0.3c-10.2,0-20.4,0-30.6,0c-1.1,0-2-0.2-2.8-1.1c-0.6-0.7-0.5-1.2,0.1-1.9
	c0.8-0.8,1.7-1.1,2.8-1.1c6.7,0,13.3,0,20,0c15.7,0,31.4,0,47.1,0c2.5,0,5.1-0.1,7.6,0c1.5,0.1,3.3,1.2,3.2,2.1c-0.1,1-2,2-3.4,2
	c-11.7-0.1-23.4-0.3-35,0.1C54.4,30.4,54.2,30.4,54.1,30.4L54.1,30.4z"/>
<path d="M140.5,70.1c0-20.9,0-41.9,0-62.8c0-1-0.1-2,1.4-1.9c0.8,0.1,1.2,0.4,1.2,1.2c0,0.3,0,0.6,0,1c0,41.8,0,83.6,0,125.4
	c0,0.7,0.3,1.6-0.8,1.9c-1.3,0.3-1.8-0.1-1.8-1.7c0-15.6,0-31.1,0-46.7C140.5,81,140.5,75.6,140.5,70.1L140.5,70.1z"/>
<path d="M39.3,32.5c-3.9,2.3-7.7,2.7-11.5,0.7c-0.2-0.1-0.6-0.2-0.6-0.5c0-0.3,0.3-0.4,0.6-0.5c1.6-0.5,3.2-1.1,4.9-1.6
	c0.2-0.1,0.5-0.1,0.7,0C35.2,31.2,37.2,31.9,39.3,32.5L39.3,32.5z"/>
<path d="M77.8,32.9c-1.8,0.6-3.5,1.3-5.3,1.8c-0.3,0.1-0.8,0.1-1.1,0c-1.6-0.5-3.2-1-4.8-1.5c-0.3-0.1-0.7-0.2-0.7-0.6
	c0-0.3,0.3-0.4,0.6-0.5c1.5-0.5,3.1-1,4.6-1.5c0.2-0.1,0.5-0.1,0.7-0.1c2.1,0.4,4,1.3,6,1.9C77.9,32.6,77.8,32.7,77.8,32.9z"/>
<path d="M64.1,32.7c0,0.6-1.2,2.1-1.8,2c-0.8,0-2.2-1.4-2.2-2.2c0-0.7,1.2-2,1.8-2C62.5,30.5,64.1,32.1,64.1,32.7z"/>
<path d="M25.3,32.7c0,0.6-1.3,2-1.8,2c-0.9-0.1-2.2-1.4-2.1-2.2c0-0.6,1.3-2,1.9-2C23.7,30.5,25.3,32.2,25.3,32.7L25.3,32.7z"/>
<path d="M81.6,30.6c0.6,0,1.9,1.7,1.9,2.3c-0.1,0.6-1.4,1.7-2,1.7c-0.5-0.1-2-1.5-1.9-2C79.5,32.2,81.1,30.6,81.6,30.6L81.6,30.6z"
	/>
<path d="M44.6,32.9c0,0.5-1.3,1.8-1.8,1.8c-0.6,0-2.2-1.5-2-2c0.4-0.9,1-1.7,1.9-2C43.2,30.5,44.6,32.2,44.6,32.9z"/>
</svg>
