<?xml version="1.0" encoding="UTF-8"?>
<svg id="Capa_1" data-name="Capa 1" xmlns="http://www.w3.org/2000/svg" viewBox="0 0 663.51 215.4">
  <path d="m283.31,75.6c11.59-7.46,22.74-13.42,36.25-12.73,6.81.35,12.87,2.42,16.8,8.19,1.96,2.87,3.29,2.57,5.78.98,9.24-5.87,19.2-9.42,30.38-9.2,12.77.25,20.97,7.1,22.55,19.68,2.16,17.27.84,34.64,1.18,51.96,0,.31-.02.62-.02.93-.05,8.92-.07,9.03,8.86,10.36,4.2.63,2.74,3.64,3.06,6.01.39,2.92-1.48,2.76-3.45,2.76-10.71-.01-21.41.02-32.12.06-1.97,0-3.8.07-3.53-2.82.23-2.47-.93-5.59,3.15-5.98.92-.09,1.86-.02,2.79-.05,2.87-.09,4.4-1.1,4.37-4.45-.16-16.44.07-32.88-.12-49.32-.18-14.89-12.59-22.27-26.38-16.52-7.8,3.26-12.33,6.46-11.27,16.71,1.58,15.35.43,30.98.43,46.48,0,6.72,0,6.79,6.8,7.08,2.84.12,4.45.62,4.53,4.2.09,3.96-1.08,4.84-4.9,4.73-10.23-.3-20.48-.21-30.72-.07-2.88.04-3.78-.91-3.71-3.73.07-2.69.03-5.04,3.59-5.1,1.24-.02,2.49.04,3.71-.12,2.75-.36,4.08-1.55,4.04-4.78-.21-15.51-.04-31.02-.14-46.53-.02-3.67-.17-7.5-1.76-10.85-4.5-9.53-13.75-12.48-23.62-7.67-4.83,2.36-11.2,3.35-13.86,7.84-2.54,4.29-.69,10.27-.73,15.5-.11,13.49.19,26.99-.16,40.48-.13,4.82,1.54,6.38,6.03,6.16,2.57-.12,5.21-.37,5.39,3.79.17,3.99-.8,5.29-5,5.13-9.92-.37-19.86-.3-29.79-.16-2.98.04-3.72-1-3.58-3.75.13-2.56-.25-4.84,3.52-5.1,6.68-.47,6.69-.66,6.7-7.25.01-17.84,0-35.67,0-53.51,0-8.2.04-8.52-8-9.84-3.7-.61-3.83-2.39-4.1-5.28-.31-3.26,1.07-4.4,3.91-4.7,6.88-.75,13.76-1.43,20.62-2.3,2.17-.28,2.68.44,2.6,2.44-.13,3.22-.03,6.46-.03,10.34Z"/>
  <path d="m94.47,93.08c.21,11.58-.34,23.17,1.52,34.71,3.21,19.91,15.18,24.55,32.11,21.38,9.97-1.87,18.15-6.91,23.87-15.32,1.86-2.74,4.03-2.94,6.72-2.84,2.24.08,3.07.59,1.91,3.09-2.34,5.01-5.37,9.37-9.96,12.53-9.87,6.82-20.73,9.94-32.81,10.44-16.78.7-31.03-4.75-43.9-14.97-8.87-7.05-14.77-16.21-18.61-26.66-8.66-23.53-3.62-45.06,11.87-63.79,9.79-11.84,23.54-17.63,39.02-19.59,12.08-1.53,23.63-.56,34.93,3.82,8.06,3.12,14.6,8.18,18.48,16.02,3.95,7.98,4.33,15.84-1.61,23.35-4.78,6.05-14.7,7.22-23.14,2.34-5.72-3.3-7.63-11-4.56-17.84.94-2.1,2.54-3.43,4.24-4.79,5.27-4.24,4.43-9.7-1.73-12.62-6.68-3.16-13.83-4.04-20.76-2.44-9.42,2.17-14.1,9.45-15.93,18.5-2.32,11.46-1.47,23.12-1.66,34.71Z"/>
  <path d="m.31,94.14c-1-12.73,1.02-24.95,4.89-36.61C11.57,38.34,21.52,21.07,36.24,6.86c1.21-1.17,2.61-2.16,3.99-3.13,1.8-1.27,2.66-4.03,5.44-3.7,1.19.14,7.51,9.26,7.49,10.47-.03,1.46-1.31,2.04-2.16,2.86-9.06,8.69-17.33,17.93-23.45,29.06-8.88,16.15-13.27,33.52-13.29,51.7-.02,18.64,4.46,36.45,13.96,52.78,15.27,26.23,37.42,43.26,67.18,49.77,11.81,2.59,23.87,3.25,35.85.71,2.36-.5,3.19-.18,3.03,2.2-.04.62,0,1.24,0,1.86.06,11.62.06,11.73-11.43,12.22-20.51.87-40.28-2.53-58.49-12.15-16.1-8.5-29.79-19.91-40.61-34.94-11.46-15.9-18.86-33.28-22.42-52.37-1.24-6.67-1.66-13.51-1.01-20.06Z"/>
  <path d="m237.65,114.93c0,10.46.18,18.99-.09,27.51-.11,3.56,1.01,4.56,4.45,4.38,1.76-.09,4.75-1.86,5.09,2.45.3,3.79-1.24,5.34-4.63,5.69-4.29.44-8.52,1.27-12.89,1.05-5.86-.29-6.51-.81-6.98-6.69-.11-1.44.78-3.56-.84-4.21-1.45-.59-2.68,1.16-3.85,2.11-9.65,7.88-20.43,11.27-32.7,7.76-9.9-2.83-16.82-11.69-17.39-21.65-.71-12.33,4.14-19.71,14.33-24.99,11.41-5.91,23.53-7.48,35.96-8.12,2.69-.14,3.51-.75,3.16-3.47-.44-3.37-.04-6.87-.71-10.17-1.54-7.54-7.17-11.35-16.11-11.62-9.22-.28-17.43,3.31-25.69,6.63-2.02.81-4.03,2.44-4.98-.94-.74-2.63-4.77-5.3.36-8,14.8-7.81,29.95-12.52,46.91-7.98,9.91,2.65,14.19,9.39,15.71,18.81,1.8,11.1.37,22.27.9,31.46Zm-16.43,8.01h-.03c0-3.57-.12-7.14.04-10.7.11-2.43-.76-3.5-3.2-3.19-4.43.55-8.91.38-13.33,1.33-15.16,3.26-21.5,12.46-17.44,25.6,1.69,5.46,5.86,8.41,11.51,8.9,6.16.54,11.45-1.62,16.76-4.22,4.19-2.06,6.5-4.85,5.75-9.82-.39-2.58-.07-5.26-.07-7.9Z"/>
  <path d="m654.05,116.89c0,8.53.19,17.07-.09,25.59-.12,3.62,1.08,4.52,4.47,4.34,1.79-.1,4.71-1.69,5.04,2.56.29,3.81-1.17,5.39-4.61,5.58-4,.23-7.89,1.26-11.97,1.09-6.83-.29-7.35-.62-8.01-7.25-.13-1.27.8-3.15-.78-3.74-1.38-.52-2.43,1.04-3.47,1.91-9.71,8.24-20.83,11.75-33.11,7.91-9.74-3.04-16.25-9.93-17.26-20.65-.95-10.04,1.74-18.41,11.05-24.03,9.16-5.53,19.01-8.27,29.53-9.13,3.38-.28,6.7-1.28,10.15-.95,1.44.14,2.37-.39,2.36-2.06-.05-4.92.65-10-1.33-14.64-2.75-6.44-8.8-7.89-14.92-8.38-7.55-.6-14.53,2.14-21.47,4.67-1.3.47-2.58,1.06-3.76,1.77-3.37,2.05-5.08,1.18-6.74-2.5-1.57-3.49-1.18-5.12,2.23-6.84,11.27-5.68,22.88-10.12,35.75-9.16,8.79.66,17.77,1.79,22.76,10.55,3.09,5.42,3.96,11.62,4.13,17.77.23,8.53.06,17.06.06,25.59Zm-16.66,6.25h.02c0-3.72-.04-7.43.02-11.15.03-1.79-.34-3.02-2.51-2.95-9.33.28-18.5,1.28-26.41,6.84-6.5,4.57-6.73,11.27-5.62,18.25.93,5.84,4.59,9.4,10.24,10.44,6.07,1.12,11.79-.29,17.39-3.03,5.01-2.45,7.92-5.52,6.94-11.44-.37-2.26-.06-4.63-.06-6.96Z"/>
  <path d="m474.29,144.32c-4.76,2.95-8.91,5.54-13.07,8.12-10.46,6.49-25.77,4.66-34.66-3.58-10.06-9.33-10.73-32.06,6.45-40.35,11.45-5.53,23.47-7.83,35.94-8.26,3.48-.12,4.83-.94,4.35-4.43-.44-3.22-.45-6.5-1.05-9.69-1.24-6.65-7.6-10.89-16.08-11.18-9.23-.32-17.43,3.32-25.72,6.58-1.97.77-3.96,2.64-4.94-.85-.72-2.58-4.92-5.09.17-7.92,14.01-7.79,28.77-12.41,44.72-8.72,13.85,3.21,17.89,9.72,18.56,24.85.78,17.49.31,35.04.08,52.56-.06,4.21,1.06,6.06,5.33,5.25,4.42-.84,5.36,1.34,4.85,5.18-.2,1.51-.71,1.96-2.19,2.31-5.89,1.41-11.81,2.07-17.86,1.8-3.34-.15-4.61-2.14-4.86-5.04-.17-1.99-.03-4.01-.03-6.62Zm-.96-21.35s-.02,0-.03,0c0-3.56-.11-7.13.04-10.69.1-2.51-1.04-3.3-3.32-3.17-4.76.27-9.56.33-14.22,1.47-15.05,3.68-20.99,12.7-16.92,25.58,1.57,4.98,6.12,8.26,11.35,8.72,5.94.53,11.14-1.37,16.34-3.87,4.58-2.2,7.7-4.92,6.82-10.62-.38-2.42-.06-4.95-.06-7.43Z"/>
  <path d="m537.17,79.29c6.53-7.38,13.72-12.9,22.88-15.66.73-.22,1.43-.6,2.17-.7,10.63-1.49,11.14-1.04,11.1,9.71,0,.47,0,.93,0,1.4-.06,6.26-.06,6.29-6.05,5.55-8.93-1.11-17.03,1.39-24.81,5.48-2.15,1.13-3.04,2.66-3.03,5.17.09,17.21.12,34.42-.03,51.64-.03,3.27,1.37,4,4.15,3.91,4.65-.16,9.26.3,13.9.8,4.27.46,2.03,3.34,2.46,5.17.49,2.13-.5,2.97-2.78,2.95-14.43-.1-28.86-.07-43.28-.1-1.69,0-3.75.2-3.42-2.45.28-2.18-1.29-5.26,2.51-5.99.91-.17,1.83-.32,2.75-.37q7.04-.36,7.04-7.61c0-17.68,0-35.35,0-53.03,0-8.19.07-8.67-7.7-9.92-4.54-.73-4.24-3.06-4.49-6.32-.31-4.06,2.78-3.61,4.8-3.91,6.37-.94,12.84-1.28,19.2-2.24,2.39-.36,2.66.47,2.65,2.31-.02,4.75,0,9.5,0,14.24Z"/>
  <path d="m455.74,181.36c-2.09,9.89-6.32,19.09-9.12,28.75-.36,1.23-.26,2.88-2.4,2.68-1.8-.17-2.12-1.41-2.59-2.78-3.2-9.37-6.46-18.72-9.68-28.02-.89-.19-1.33.32-1.34.93-.22,8.03-1.15,15.99-2.01,23.97-.26,2.4-.9,5.64,3.54,5.1.67-.08,1.02.56,1.06,1.24.05.98-.5,1.41-1.39,1.41-3.26.03-6.51.04-9.77.01-.79,0-1.54-.23-1.64-1.22-.12-1.28.68-1.61,1.72-1.56,1.64.08,2.61-.45,2.81-2.26.89-8.4,1.86-16.79,2.76-25.19.26-2.39.32-4.72-3.04-5.02-.95-.09-1.82-.62-1.55-1.84.22-.97,1.09-.91,1.85-.97.31-.02.62-.02.93-.01,12.28.49,9.68-2.57,13.13,9.58,1.79,6.3,3.91,12.5,6.06,19.32,1.84-9.07,5.14-17.12,7.64-25.41.86-2.85,2.15-3.71,4.87-3.54,2.63.17,5.27.04,7.91.08.86.01,1.52.44,1.54,1.35.01.36-.37,1.04-.61,1.05-8.3.61-3.99,6.6-3.87,10.1.22,6.25,1.69,12.44,2.34,18.68.25,2.37.14,4.41,3.38,4.1.97-.09,1.95.17,1.92,1.43-.03,1.25-1.03,1.38-1.99,1.38-3.41.02-6.83.03-10.24,0-1.05-.01-2.33.11-2.35-1.51-.01-1.32,1.01-1.36,1.95-1.35,1.26.02,2.1-.28,1.96-1.82-.88-9.6-1.72-19.21-2.58-28.81-.39.04-.79.08-1.18.12Z"/>
  <path d="m639.7,176.37c3.23.15,6.57-.16,9.69.53,9.11,2,13.49,6.79,13.78,16.46.28,9.23-2.65,15.28-10.76,19.84-7.4,4.16-14.86.93-22.27,1.45-.89.06-1.42-.53-1.42-1.44,0-.97.67-1.37,1.51-1.3,2.75.24,2.4-1.65,2.4-3.35,0-8.36-.06-16.71.05-25.07.03-2.11-.35-3.59-2.59-4.15-.88-.22-1.2-.92-1.03-1.78.2-1.03,1.07-.95,1.81-.95,2.94-.02,5.88-.01,8.82-.01,0-.07,0-.15,0-.22Zm-1.51,19.19c0,4.34.13,8.68-.05,13.02-.11,2.69.93,3.32,3.48,3.37,9.26.18,13.42-2.6,14.96-12.03,1.69-10.3-1.5-22.21-15.56-20.75-2.19.23-2.95.69-2.88,2.92.15,4.49.04,8.99.04,13.48Z"/>
  <path d="m528.99,176.57c4.3.03,8.57-.24,12.84.96,6.35,1.79,9.59,6.32,10.51,12.21,2.7,17.31-8.63,27.76-24.32,25.31-2.58-.4-5.25-.23-7.88-.34-.91-.04-1.94-.02-2.01-1.33-.06-1.26.79-1.56,1.8-1.5,2.62.17,2.5-1.56,2.48-3.36-.08-8.2-.19-16.41-.11-24.61.02-2.25-.21-3.99-2.74-4.53-1.08-.23-1.65-.8-1.31-1.94.29-.96,1.17-.86,1.91-.87,2.94-.03,5.88-.01,8.83-.01Zm-1.63,18.98c0,4.5-.02,9,.02,13.5,0,1.01-.3,2.11,1.07,2.75,4.9,2.26,13.07-.74,15.8-5.79,2.19-4.06,3.07-8.33,2.7-12.93-.77-9.61-8.13-15.36-17.59-13.87-2.07.33-2.01,1.41-2,2.85.02,4.5,0,9,0,13.5Z"/>
  <path d="m572.53,176.51c2.63,0,5.31-.31,7.89.07,3.83.56,7.87,1.47,9.21,5.79,1.44,4.67,1.1,9.46-3.17,12.51-2.77,1.98-2.23,3.41-.58,5.36,3.26,3.88,3.55,9.94,9.09,12.22.69.28.59,2.06-.57,2.11-3.08.13-6.55,1.36-8.43-2.74-1.79-3.91-3.93-7.67-5.85-11.53-1.77-3.55-4.95-2.34-7.75-2.33-.97,0-1.16.9-1.17,1.7-.03,3.41-.02,6.81-.02,10.22,0,2.5,1.94,1.86,3.35,2.02.96.11,1.94.18,1.94,1.44,0,1.31-1.07,1.35-1.98,1.36-3.56.04-7.13.04-10.69.02-.93,0-1.94-.07-2.02-1.35-.07-1.24.74-1.59,1.79-1.49,2.57.24,2.59-1.36,2.57-3.24-.08-8.36-.18-16.72-.03-25.08.04-2.18-.46-3.55-2.54-4.23-.93-.3-1.81-.69-1.37-1.92.33-.9,1.21-.83,1.96-.84,2.79-.02,5.58,0,8.36,0,0-.02,0-.04,0-.06Zm-1.37,10.31h.01c0,2.01-.02,4.03,0,6.04.01.92.06,1.71,1.22,2.17,6.49,2.59,11.88-1.11,11.83-8.2-.04-6.11-1.81-7.26-8.81-7.68-6.28-.38-3.8,3.93-4.26,6.75-.05.3,0,.62,0,.93Z"/>
  <path d="m492.46,204.39c-1.24,0-2.48,0-3.72,0-3.11.03-6.14,3.27-5.89,6.24.15,1.8,1.55,1.07,2.46,1.22,1.05.18,1.79.54,1.61,1.74-.15.97-.97,1.11-1.75,1.12-2.94.02-5.88.03-8.82,0-.93-.01-1.91-.11-1.9-1.44,0-.98.56-1.37,1.45-1.37,2.67,0,2.48-2.28,3.06-3.88,3.44-9.49,6.89-18.98,10.2-28.52.68-1.96,1.35-3.13,3.76-3.07,2.36.06,3.06,1.17,3.75,3.14,3.28,9.38,6.73,18.7,10.1,28.04.69,1.91.55,4.46,3.66,4.37.78-.02.95.64.98,1.29.03.98-.59,1.39-1.44,1.4-3.56.03-7.12.03-10.68,0-.8,0-1.56-.22-1.62-1.22-.05-.88.39-1.33,1.28-1.58,1.13-.31,3.88.98,2.71-1.94-.88-2.2-.18-6.04-4.56-5.59-1.53.16-3.09.03-4.64.03v.02Zm-.39-23.23c-1.49,4.52-2.64,7.94-3.74,11.38-3.13,9.75-3.13,9.66,7.18,9.16,2.43-.12,2.86-.71,2.12-2.93-1.83-5.48-3.49-11.02-5.56-17.61Z"/>
  <path d="m235,28.57c-.43,2.15-1.61,3.69-2.95,4.86-5.91,5.14-11.87,10.23-18.03,15.07-1.37,1.08-3.11,2.66-5.36,1.82-4.02-1.51-4.56-3.9-1.75-7.35,5.64-6.9,11.31-13.78,16.79-20.8,1.28-1.64,2.06-1.65,3.49-.44,2,1.69,4.16,3.19,6.18,4.85.68.56,1.14,1.38,1.63,1.99Z"/>
  <path d="m610.55,214.71c-1.86,0-3.72.03-5.58-.01-.92-.02-1.94-.09-2.02-1.36-.09-1.3.85-1.54,1.82-1.44,2.41.24,2.76-1.09,2.74-3.1-.06-8.52-.12-17.03.05-25.55.05-2.35-.92-3.34-2.94-3.83-.91-.22-1.89-.5-1.69-1.75.21-1.3,1.32-1.07,2.19-1.08,3.41-.03,6.82-.04,10.22,0,1.04,0,2.3-.17,2.46,1.4.13,1.33-1.04,1.43-1.85,1.6-2.05.44-2.57,1.57-2.53,3.63.15,8.05.05,16.1.1,24.15.01,2.17-.7,4.95,3.16,4.63.95-.08,1.28.78,1.18,1.6-.12.98-.96,1.07-1.74,1.08-1.86.02-3.72,0-5.58,0v.02Z"/>
</svg>