<?xml version="1.0" encoding="UTF-8"?>
<svg id="Capa_2" data-name="Capa 2" xmlns="http://www.w3.org/2000/svg" viewBox="0 0 554.58 235.65">
  <path d="m0,52.9c.64.06.56-.51.7-.85.66-1.54,2.14-2.43,3.79-2.16,1.8.3,3.41.96,4.64,2.44,1.14,1.37,2.27,2.76,3.74,3.82.14.1.26.21.39.31,1.07.73,2.18,1.59,3.54.92,1.33-.65,1.46-2.04,1.58-3.33.42-4.34.26-8.7.75-13.04.78-6.8,2.77-13.14,6.95-18.67,1.14-1.51,2.63-2.5,4.43-3.08,1.94-.63,3.59-.12,5.06,1.2,1.58,1.43,2.8,3.18,4.18,4.78.63.73,1.34,1.37,2.13,1.9,1.72,1.15,2.67,1.07,3.94-.59,2.27-2.97,4.51-5.97,6.07-9.4,1.22-2.68,2.46-5.36,4.06-7.85,1.36-2.11,3.02-3.96,4.99-5.53.82-.66,1.75-1.12,2.77-1.39,1.89-.5,3.29.38,3.69,2.26.06.28.12.57.19.85.8,2.95,2.07,3.47,4.87,2.23,3.5-1.55,6.4-4.02,9.67-5.91,1.16-.67,2.34-1.26,3.64-1.59,3.67-.93,6.34.91,6.86,4.65.3,2.16-.09,4.11-1.35,5.9-1.24,1.77-2.46,3.55-3.68,5.33-.23.34-.49.68-.67,1.04-1.42,2.83-.61,4.46,2.48,4.99,1.1.19,2.23.27,3.32.51,3.55.77,4.92,3.33,3.59,6.71-1.25,3.19-3.63,5.54-6.05,7.83-2.87,2.71-6.2,4.89-8.97,7.73-.58.59-1.14,1.22-1.59,1.91-2.22,3.45-.37,7.25,3.74,7.74,1.76.21,3.48-.15,5.21-.36,1.21-.15,2.41-.2,3.61-.1,3.58.31,5.77,3.64,4.96,7.48-.34,1.62-1.14,3.02-2.14,4.32-2.13,2.76-4.55,5.29-6.82,7.94-3.14,3.67-6.65,6.97-9.96,10.46-2.34,2.47-4.56,5.05-7,7.44-.95.93-1.77,1.99-2.22,3.27-.9,2.53.99,4.81,3.67,4.55,2.02-.2,3.86-.99,5.78-1.51,1-.27,2.01-.56,3.05-.62,3.36-.2,5.26,1.81,4.87,5.16-.32,2.69-1.59,5.05-2.69,7.47-2.31,5.06-4.94,9.99-6.53,15.34-2.14,7.23-3.68,14.57-3.33,22.18.36,7.6,1.92,14.88,5.66,21.6.27.48,1,1.17.41,1.57-.44.3-.98-.55-1.4-.99-3.91-4.2-7.91-8.34-10.89-13.27-3.51-5.8-6.32-11.96-8.82-18.26-4.25-10.71-7.16-21.76-8.48-33.2-.64-5.56-1.01-11.16-.79-16.77.56-13.97,3.27-27.49,8.7-40.43.22-.52.86-1.35.21-1.63-.67-.29-.62.78-.85,1.24-5.13,10.12-8.41,20.84-10.21,32.02-1.36,8.42-1.81,16.89-1.33,25.42.71,12.64,3.24,24.91,7.32,36.88,1,2.94,2.21,5.82,3.32,8.73.23.61.61,1.19.34,2-2.71-1.6-5.49-2.97-8.3-4.27-6.63-3.08-13.33-6.02-19.58-9.88-7.8-4.82-14.66-10.62-19.94-18.17-1.5-2.15-2.84-4.39-3.76-6.87-.44-1.18-.7-2.38-.64-3.65.11-2.55,2.08-4,4.54-3.34.94.25,1.7.86,2.56,1.27.64.3,1.27.64,1.94.83,1.37.38,2.43-.57,2.2-1.97-.26-1.54-.94-2.92-1.74-4.24-3.66-6.1-7.1-12.31-9.63-18.97-1.58-4.15-2.92-8.39-3.72-12.78-.25-1.38-.04-2.78-.25-4.4-.54.95-.31,1.86-.82,2.54v-15.7Z"/>
  <path d="m114.16,173.26c-6.45,0-12.89,0-19.34,0-.58,0-1.16-.04-1.74-.12-2.42-.33-3.31-1.5-2.93-3.94,1.05-6.72,2.1-13.44,3.17-20.16,1.71-10.77,3.44-21.54,5.16-32.31,1.89-11.84,3.79-23.67,5.68-35.51.95-5.94,1.83-11.89,2.83-17.82.57-3.38,1.71-4.32,5.13-4.33,10.64-.02,21.29-.08,31.93.04,6.57.07,13.13.56,19.42,2.7,4.39,1.5,8.33,3.71,11.47,7.22,2.97,3.31,4.33,7.29,4.7,11.57.53,6.21-.31,12.27-3,17.97-2.9,6.15-7.38,10.78-13.57,13.71-.32.15-.81.21-.85.63-.04.41.43.46.71.58,5.68,2.43,9.01,6.9,10.48,12.69,2.18,8.59,1.41,17.07-2.03,25.23-3.75,8.9-10.58,14.63-19.43,18.06-6.29,2.43-12.84,3.72-19.6,3.78-6.07.05-12.14.01-18.21.01Zm10.33-18.53v.02c2.66,0,5.32-.02,7.98,0,1.67.02,3.33-.14,4.94-.53,5.47-1.32,10.18-3.82,13.11-8.89,2.41-4.17,2.88-8.71,2.24-13.37-.42-3.04-2.17-5.24-4.93-6.61-2.7-1.33-5.58-1.87-8.56-1.93-6.48-.13-12.97.17-19.45-.16-.78-.04-1.12.31-1.23,1.07-.25,1.72-.54,3.44-.82,5.16-1.28,7.9-2.56,15.79-3.84,23.69-.21,1.31,0,1.54,1.32,1.54,3.08,0,6.15,0,9.23,0Zm13.03-77.17c-3.85,0-7.01,0-10.17,0-.71,0-1.36-.04-1.51,1.01-1.28,8.45-2.62,16.89-3.93,25.33-.27,1.77-.17,1.87,1.63,1.91.29,0,.58.05.87.04,5.86-.03,11.74.46,17.57-.24,4.7-.57,8.89-2.46,11.99-6.22,3.11-3.77,4.07-8.17,3.7-12.95-.27-3.55-1.94-6.1-5.29-7.48-1.36-.56-2.77-.86-4.21-1.09-3.76-.6-7.56-.15-10.64-.31Z"/>
  <path d="m314.17,135.97c-.29,1.95-.56,3.91-.87,5.86-1.31,8.23-2.64,16.46-3.94,24.7-.19,1.19-.26,2.39-.61,3.55-.6,2.02-1.54,2.86-3.65,2.98-4.44.24-8.89.39-13.33,0-2.55-.22-3.56-1.48-3.16-3.99,1.43-9.1,2.88-18.19,4.33-27.29,1.81-11.35,3.62-22.69,5.43-34.04,2.24-14.01,4.48-28.02,6.7-42.03.22-1.4.4-2.8.82-4.15.53-1.7,1.4-2.44,3.18-2.46,4.86-.06,9.73-.07,14.6-.02,1.81.02,2.69,1.22,2.4,3.16-.51,3.4-1.11,6.79-1.65,10.19-1.73,10.85-3.44,21.71-5.17,32.57-.38,2.37-.62,4.77-1.23,7.11-.07.29-.31.71.07.9.36.18.6-.2.81-.43,1.62-1.78,3.13-3.68,4.87-5.33,5.8-5.49,11.36-11.21,16.8-17.03,2.87-3.06,5.86-4.33,9.96-4.08,4.48.27,8.98.07,13.47.07.98,0,2.02.01,2.47,1.05.44,1.01.23,2.04-.41,2.95-.74,1.07-1.68,1.95-2.59,2.86-5.11,5.12-10.08,10.38-15.39,15.29-5.44,5.02-10.61,10.3-15.91,15.45-1.36,1.32-1.33,1.33-.34,2.91,1.94,3.11,3.44,6.45,5.18,9.66,4.53,8.36,9.03,16.74,13.53,25.11,1.16,2.16,2.35,4.3,3.44,6.49,1.46,2.92.14,4.93-3.14,5.09-3.78.19-7.56.14-11.35.15-1.08,0-2.16-.08-3.23-.22-1.85-.25-3.26-1.23-4.12-2.89-2.54-4.9-5.05-9.82-7.58-14.73-3.23-6.28-6.46-12.55-9.69-18.83-.11-.22-.25-.42-.38-.62-.11,0-.22,0-.34.01Z"/>
  <path d="m408.05,163.38c-1.29,1.5-2.48,2.8-3.85,3.92-5.51,4.52-11.83,6.89-18.93,6.91-4.09.01-8.1-.68-11.86-2.49-5.71-2.75-9.12-7.34-10.3-13.42-1.4-7.25-.54-14.33,2.97-20.92,3.24-6.08,8.5-9.88,14.73-12.47,6.19-2.58,12.73-3.77,19.35-4.54,4.37-.51,8.77-.77,13.17-.97.77-.04,1.1-.37,1.24-1.09.63-3.24.91-6.5.58-9.79-.24-2.37-1.64-4.02-3.69-5.16-1.82-1.01-3.82-1.42-5.86-1.56-4.75-.32-9.46.02-14.12,1.1-3.24.75-6.47,1.5-9.62,2.6-2.57.89-4-.22-4.1-2.95-.11-2.94-.25-5.89-.38-8.83-.09-1.99,1.05-3.55,3.41-4.57,2.1-.91,4.3-1.54,6.52-2.09,7.06-1.72,14.21-2.61,21.49-2.36,5.01.18,9.95.76,14.62,2.72,7.35,3.07,11.13,8.65,11.9,16.53.5,5.09-.42,10.01-1.18,14.96-1.47,9.51-3.04,19-4.57,28.5-1.16,7.21-2.31,14.41-3.5,21.61-.53,3.2-1.47,3.92-4.75,4.05-3.45.14-6.9.34-10.34-.02-2.59-.27-3.53-1.55-3.2-4.15.2-1.6.48-3.2.4-4.83,0-.15-.05-.3-.13-.71Zm-25.67-12.74c.05,3.05,1.13,5.99,4.6,7.54,1.86.83,3.86,1.09,5.85.99,4.54-.23,8.44-2.11,11.75-5.15,3.64-3.34,5.35-7.75,6.32-12.45.54-2.63.75-5.34,1.17-8,.15-.93-.29-1.13-1.04-1.03-1.65.21-3.31.17-4.97.4-4.86.67-9.71,1.35-14.29,3.27-6.05,2.53-9.39,7.47-9.38,14.43Z"/>
  <path d="m524.82,163.41c-.71.8-1.38,1.64-2.14,2.4-5.02,5.08-11.25,7.61-18.24,8.23-6.21.55-12.08-.68-17.24-4.41-4.23-3.05-6.47-7.33-7.2-12.36-1.21-8.4.1-16.31,5.27-23.28,3.19-4.31,7.58-7.05,12.43-9.08,6.81-2.86,14.01-4.1,21.32-4.79,3.8-.36,7.61-.72,11.43-.74.56,0,.95-.16,1.06-.79.55-3.23,1.23-6.44.76-9.75-.4-2.89-1.91-4.91-4.64-5.96-3.12-1.21-6.4-1.38-9.69-1.23-6.39.29-12.59,1.6-18.64,3.67-.39.13-.8.22-1.21.28-1.74.26-3.07-.59-3.2-2.3-.25-3.35-.45-6.71-.45-10.06,0-2.23,1.6-3.45,3.53-4.21,3.96-1.57,8.1-2.45,12.27-3.25,4.21-.81,8.49-1.16,12.76-1.18,4.9-.02,9.8.32,14.55,1.75,5.4,1.63,10.02,4.37,12.64,9.58,2.23,4.42,2.79,9.2,2.24,14.07-1.02,8.9-2.72,17.7-4.08,26.55-1.46,9.51-3,19-4.51,28.5-.24,1.52-.5,3.03-.81,4.53-.51,2.43-1.48,3.17-3.93,3.29-3.74.19-7.48.27-11.21.01-2.33-.16-3.33-1.53-3.07-3.86.2-1.76.52-3.52.42-5.3-.14-.1-.28-.19-.41-.29Zm-25.23-13.59c.02,5.34,2.1,8.09,6.84,8.98,7.14,1.33,14.28-2.5,18.23-8.54,3.33-5.08,3.62-11.04,4.56-16.8.14-.84-.33-1.12-1.11-1.04-1.86.18-3.73.31-5.58.55-4.24.56-8.48,1.17-12.53,2.68-6.97,2.6-10.84,7.9-10.42,14.17Z"/>
  <path d="m257.75,86.21c7.61,0,15.22,0,22.83,0,1.53,0,3.06-.26,4.6-.02,1.73.27,2.41.95,2.36,2.72-.06,2.13-.89,4.14-1.05,6.25-.28,3.59-2.01,6.42-4.14,9.25-9.22,12.29-18.73,24.36-28.08,36.55-3.31,4.32-6.56,8.68-10.06,12.85-.28.34-.8.67-.59,1.14.22.5.82.3,1.25.28,8.19-.36,16.38-.09,24.57-.16,1.37-.01,2.74.1,4.11.17,2.92.15,3.9,1.31,3.42,4.16-.46,2.7-.97,5.39-1.49,8.08q-1,5.25-6.33,5.71c-.54.05-1.08.05-1.62.05-15.43,0-30.85.02-46.28.02-4.67,0-5.69-1.25-4.86-5.81.33-1.79.6-3.6.85-5.41.25-1.86.98-3.49,2.13-4.97,8.07-10.35,16.13-20.7,24.18-31.07,5.3-6.82,10.56-13.67,15.84-20.51.21-.28.63-.55.41-.96-.24-.43-.75-.27-1.14-.27-7.48-.02-14.97-.01-22.45-.04-1.62,0-3.24-.07-4.86-.21-2.68-.23-3.63-1.41-3.24-4.05.46-3.08,1-6.14,1.51-9.21.07-.41.14-.82.23-1.22.52-2.41,1.59-3.31,4.08-3.31,7.94-.01,15.88,0,23.82,0h0Z"/>
  <path d="m464,86.19c2.91,0,5.81-.08,8.72.03,1.92.07,2.63,1.06,2.35,3-.46,3.28-.92,6.57-1.51,9.83-2.03,11.31-3.64,22.68-5.52,34.01-1.56,9.36-3.05,18.74-4.46,28.13-.41,2.71-.88,5.4-1.36,8.09-.5,2.83-1.61,3.65-4.49,3.81-3.41.18-6.81.12-10.22.16-.29,0-.58.02-.87,0-4.36-.23-5.1-1.37-4.46-5.28,2.37-14.49,4.65-28.99,6.97-43.48,1.82-11.38,3.64-22.76,5.48-34.14.1-.65.26-1.31.5-1.92.56-1.41,1.6-2.19,3.15-2.21,1.91-.01,3.82,0,5.74,0,0-.01,0-.02,0-.03Z"/>
  <path d="m191.56,173.25c-1.9-.06-3.98.13-6.05-.17-2.42-.35-3.3-1.38-2.92-3.8,1.33-8.56,2.71-17.12,4.07-25.68,1.64-10.32,3.29-20.64,4.93-30.96,1.19-7.45,2.36-14.91,3.57-22.36.51-3.14,1.59-4.05,4.73-4.06,4.2,0,8.39,0,12.59-.14,2.55-.08,3.62,1.16,3.14,3.68-1.55,8.24-2.68,16.54-4.03,24.8-1.77,10.84-3.44,21.7-5.18,32.55-1.17,7.29-2.34,14.58-3.57,21.85-.55,3.22-1.57,3.95-4.87,4.15-2.08.13-4.15.11-6.41.14Z"/>
  <path d="m109.17,212.2c-.28,7.62-2.74,14.4-8.3,19.77-3.11,3.01-6.95,4.3-11.35,3.4-1.74-.36-3.14-1.28-4.38-2.48-.7-.69-1.03-.61-1.2.4-.3,1.76-1.8,2.59-3.55,2.05-.84-.26-.59-.91-.46-1.44.99-4.16,1.7-8.37,2.45-12.58,1.8-10.08,3.55-20.17,5.32-30.26.03-.16.04-.33.06-.49.3-3.33.3-3.31,3.67-3.16.95.04,1.23.39,1.06,1.32-.75,4.08-1.51,8.15-2.18,12.25-.41,2.54-.96,5.05-1.48,7.56-.06.27-.26.63.06.79.4.2.57-.24.76-.48,1.91-2.51,4.12-4.65,7.01-6.04,1.9-.91,3.91-1.21,5.95-.92,3.19.46,5,2.58,6.01,5.48.54,1.55.6,3.17.55,4.82Zm-4.44.64c0-.71.09-1.42-.01-2.11-.59-4.08-3.35-6.38-7.52-4.33-3.04,1.5-5.2,3.9-7.08,6.65-2.63,3.85-3.71,8.18-4.24,12.73-.31,2.68.34,4.07,2.74,5.28,2.9,1.47,6.82.74,9.55-1.81,4.77-4.44,6.1-10.26,6.55-16.42Z"/>
  <path d="m162.88,227.24c-1.77,1.97-3.28,4.01-5.4,5.47-2.02,1.38-4.14,2.44-6.68,2.42-3.4-.02-6.19-2.09-7.1-5.37-1.7-6.11-.31-11.77,2.76-17.08,3.14-5.41,7.59-9.33,13.78-10.9,3.23-.82,6.5-.74,9.68.49.95.37,1.34.85,1.18,1.96-1.18,8.08-2.75,16.09-4.21,24.12-.3,1.67-.71,3.32-1.01,4.99-.15.84-.3,1.56-1.43,1.44-1.58-.16-2.36-.7-2.28-1.92.1-1.57.39-3.12.6-4.68.04-.32.07-.63.1-.95Zm-15.41-3.04c.01,1.62.13,3.19.83,4.65.93,1.92,2.56,2.7,4.62,2.19,2.7-.67,4.79-2.31,6.45-4.44,2.8-3.57,4.88-7.5,5.59-12.06.41-2.62.9-5.23,1.38-7.84.21-1.13-.28-1.62-1.35-1.73-2.39-.24-4.68.2-6.74,1.36-6.97,3.91-10.3,10.06-10.79,17.87Z"/>
  <path d="m210.36,59.31c2.28,0,4.57-.03,6.85,0,2.37.04,3.34,1.14,2.97,3.48-.62,3.84-1.29,7.68-2.05,11.5-.52,2.61-1.46,3.33-4.12,3.35-4.4.04-8.8.06-13.2-.01-2.59-.04-3.42-.89-3.19-3.45.36-4.04,1.06-8.05,1.9-12.02.4-1.86,1.7-2.78,3.74-2.83,2.37-.05,4.73-.01,7.1-.01h0Z"/>
  <path d="m467.87,77.65c-2.61,0-5.23.06-7.84-.02-2.36-.07-3.43-1.47-3.05-3.81.55-3.4,1.1-6.79,1.65-10.19.52-3.19,1.8-4.31,5-4.32,4.24-.01,8.47-.05,12.71.02,2.47.04,3.31.87,3.09,3.26-.38,4.13-1.14,8.21-2,12.26-.42,1.99-1.63,2.77-3.71,2.81-1.95.04-3.91,0-5.86,0,0,0,0-.02,0-.03Z"/>
  <path d="m113.5,223.41c.21-7.35,2.6-13.77,8.4-18.53,3.56-2.92,7.69-4.18,12.35-3.08,4.82,1.15,6.27,5.86,4.68,9.79-1.01,2.5-2.97,3.92-5.32,4.95-4.38,1.92-9.02,2.82-13.7,3.6-2.08.34-2.1.32-2.11,2.46-.01,1.82-.08,3.64.73,5.37,1.07,2.31,2.81,3.38,5.36,3.58,4.03.3,6.98-1.7,9.82-4.11,1.45-1.23,2.33-1.21,3.47-.04.52.54.6,1.03.05,1.61-3.93,4.11-8.5,6.72-14.42,6.37-5.07-.3-9.03-4.49-9.3-9.97-.03-.66,0-1.33,0-1.99Zm21.93-14.34c0-1.75-1.09-3.1-2.77-3.58-2.28-.65-4.44-.19-6.48.92-3.73,2.04-5.5,5.64-7.22,9.24-.36.76-.07,1.18.87,1,1.79-.34,3.62-.51,5.39-.95,2.89-.72,5.87-1.25,8.22-3.32,1.09-.97,1.82-2.13,1.98-3.31Z"/>
  <path d="m183.07,234.38c-3.28,0-6.57,0-9.85,0-1.5,0-1.75-.39-1.16-1.81.78-1.88,2.27-3.26,3.54-4.79,5.91-7.12,11.85-14.22,17.77-21.34.25-.3.71-.61.46-1.05-.2-.35-.69-.18-1.05-.18-4.4,0-8.81,0-13.21.24-1.73.09-1.96-.28-1.55-1.98.52-2.14.52-2.13,2.71-2.12,6.11,0,12.22,0,18.33,0,1.67,0,1.9.34,1.27,1.92-.57,1.44-1.53,2.6-2.55,3.78-2,2.32-3.91,4.73-5.87,7.09-3.18,3.83-6.3,7.71-9.6,11.43-1.18,1.34-2.32,2.71-3.47,4.07-.21.25-.54.49-.37.85.18.37.58.25.9.25,4.65,0,9.3.02,13.95-.05,1.07-.02,1.42.24,1.25,1.33-.37,2.36-.33,2.36-2.79,2.36-2.91,0-5.82,0-8.73,0Z"/>
</svg>