<?xml version="1.0" encoding="UTF-8"?>
<svg id="Capa_16" data-name="Capa 16" xmlns="http://www.w3.org/2000/svg" viewBox="0 0 776.05 261.43">
  <path d="m24.6,152.93c0,15.18,0,30.37,0,45.55,0,2.43,0,2.44-2.38,2.44-5.01,0-10.02-.03-15.03.02-1.37.02-1.83-.44-1.83-1.82.03-30.76.03-61.51,0-92.27,0-1.5.54-1.91,1.95-1.9,5.01.06,10.02.02,15.03.02,2.21,0,2.26.06,2.26,2.24,0,15.24,0,30.48,0,45.72Z"/>
  <path d="m102.72,152.96c0,15.13,0,30.25,0,45.38q0,2.52-2.48,2.52c-4.9,0-9.8-.04-14.69.02-1.41.02-1.97-.41-1.96-1.9.03-30.7.03-61.4,0-92.1,0-1.51.6-1.9,1.99-1.88,5.01.05,10.02.01,15.03.02,2.03,0,2.12.1,2.12,2.22,0,15.24,0,30.48,0,45.71Z"/>
  <path d="m122.63,152.93c0-15.18,0-30.37,0-45.55,0-2.4,0-2.4,2.4-2.41,4.9,0,9.8.04,14.69-.03,1.55-.02,2.16.42,2.16,2.07-.04,30.64-.04,61.29,0,91.93,0,1.54-.52,2.02-2.04,2-5.06-.07-10.13-.09-15.19,0-1.66.03-2.04-.59-2.04-2.14.05-15.29.03-30.59.03-45.88Z"/>
  <path d="m180.88,153.05c0,15.12,0,30.24,0,45.36,0,2.43-.01,2.45-2.39,2.45-4.9,0-9.79-.04-14.69.03-1.51.02-2.04-.47-2.04-2.01.03-30.63.03-61.26,0-91.9,0-1.59.62-1.99,2.07-1.98,4.9.06,9.79.02,14.69.02,2.31,0,2.35.04,2.35,2.32,0,15.23,0,30.47,0,45.7Z"/>
  <path d="m220.01,152.91c0,15.18,0,30.36,0,45.53,0,2.47,0,2.47-2.51,2.48-4.9,0-9.79-.04-14.69.03-1.51.02-2.03-.45-2.03-2,.04-30.69.03-61.38,0-92.07,0-1.46.49-1.95,1.93-1.93,5.01.06,10.02.02,15.02.02,2.21,0,2.26.06,2.26,2.23,0,15.23,0,30.47,0,45.7Z"/>
  <path d="m44.55,152.95c0-15.12,0-30.24,0-45.36q0-2.54,2.62-2.55c4.73,0,9.46,0,14.19,0,2.07,0,2.25.17,2.25,2.14,0,30.57,0,61.14.02,91.72,0,1.42-.46,1.97-1.92,1.95-5.01-.06-10.01-.08-15.02,0-1.72.03-2.17-.58-2.17-2.22.05-15.23.03-30.46.03-45.69Z"/>
  <path d="m253.52,200.92c-7.51,0-15.03-.03-22.54.03-1.56.01-2.16-.42-2.13-2.06.09-5.06.08-10.12,0-15.18-.03-1.58.57-1.99,2.05-1.99,15.2.04,30.39.04,45.59,0,1.48,0,2.07.42,2.05,1.99-.08,5.12-.07,10.23,0,15.35.02,1.5-.55,1.9-1.96,1.89-7.68-.05-15.36-.02-23.04-.02Z"/>
  <path d="m345,196.64c-1.4,1.08-2.52,2.24-3.91,3.09-7.34,4.48-15.64,1.32-17.87-6.85-1.14-4.17-1.05-8.36.28-12.48,1.9-5.88,6.81-9.49,13-9.68,2.18-.07,4.34.06,6.47.44,1.29.23,1.57-.23,1.56-1.36-.03-3.61-.02-7.22,0-10.83,0-.74-.28-1.72.68-2.04,1-.34,2.08-.31,3.11.03.35.12.46.47.5.81.04.39.06.78.06,1.16,0,13.28,0,26.56,0,39.84,0,2.04-.39,2.36-2.34,2.15-.74-.08-1.09-.4-1.17-1.13-.1-.99-.24-1.98-.39-3.16Zm-.47-12.71c0-2.39-.04-4.78.02-7.17.02-1.09-.44-1.59-1.46-1.86-2.34-.64-4.71-.81-7.11-.68-3.04.16-5.58,1.41-7,4.13-2.78,5.31-2.78,10.8-.27,16.2,1.13,2.42,3.28,3.54,5.98,3.51,3.37-.03,5.83-1.84,8.15-4.03,1.22-1.15,1.84-2.38,1.72-4.1-.13-1.99-.03-4-.03-6Z"/>
  <path d="m326.49,125.5c0-6.12,0-12.23,0-18.35,0-2.08.1-2.21,2.16-2.17,3.78.08,7.56-.26,11.33.25,6.45.87,10.38,4.98,10.52,11.5.14,6.39-3.12,11.24-9.47,12.78-2.69.65-5.43.32-8.15.31-1.52,0-2.05.42-2.01,1.98.09,4.11-.03,8.23.06,12.34.03,1.62-.54,2.12-2.13,2.1-1.5-.02-2.38-.19-2.36-2.05.09-6.23.03-12.45.03-18.68Zm4.42-8.2c0,2.39.03,4.78-.01,7.17-.02,1.13.39,1.63,1.55,1.59,1.83-.05,3.67.03,5.5-.03,4.16-.12,6.83-2.4,7.69-6.5,1.08-5.18-1.67-9.72-6.31-10.37-2.32-.33-4.65-.34-6.99-.35-1.1,0-1.47.44-1.45,1.49.04,2.33.01,4.67.01,7Z"/>
  <path d="m461.25,131.75c-2.84,0-5.68.08-8.51-.03-1.64-.06-2.03.62-1.86,2.08.73,6.41,3.52,9.74,11.35,9.34,2.29-.12,4.54-.42,6.74-1.02.76-.21,1.48-.32,1.6.77.1.95.95,2.12-.7,2.61-2.68.79-5.43,1.16-8.21,1.3-1.22.06-2.46.07-3.66-.09-7.4-1.02-10.99-5.06-11.6-13.09-.27-3.58-.01-7.13,1.49-10.45,2.06-4.54,5.62-7.08,10.59-7.51,4.85-.42,8.94.97,11.49,5.42,1.66,2.89,2.01,6.07,1.84,9.35-.06,1.15-.79,1.32-1.71,1.32-2.95,0-5.9,0-8.84,0h0Zm-2.19-3.7c2.28,0,4.56,0,6.84,0,.87,0,1.47-.16,1.52-1.26.13-3.08-2.14-6.38-5.1-7.28-5.17-1.57-10.39,1.75-11.33,7.15-.19,1.12.28,1.4,1.23,1.39,2.28,0,4.56,0,6.84,0Z"/>
  <path d="m427.82,143.33c-3.87,3.17-8.02,4.07-12.59,3.16-3.57-.71-6.11-3.19-6.61-6.43-.65-4.24.8-7.45,4.26-9.31,2.25-1.21,4.69-1.7,7.22-1.77,1.94-.06,3.89-.05,5.84-.02.97.02,1.47-.33,1.43-1.34-.05-1.11.04-2.24-.13-3.33-.62-3.8-3.25-5.25-7.91-5.05-2.21.1-4.43.47-6.52,1.26-.93.35-1.55.21-1.68-.84-.11-.91-1.18-2.1.49-2.63,3.91-1.25,7.93-1.87,12-1.23,5.36.84,8.03,4.23,8.1,10.11.08,6.11.03,12.22.01,18.34,0,.86.17,1.86-1.21,1.94-1.26.07-2.38.03-2.47-1.64-.02-.32-.12-.63-.23-1.21Zm-.45-6.64c0-1.09-.05-1.77.01-2.43.13-1.39-.46-1.89-1.84-1.82-1.89.09-3.78,0-5.67.06-1.63.05-3.19.43-4.59,1.33-1.93,1.24-2.47,3.08-2.11,5.22.34,2.05,1.56,3.36,3.59,3.94,2.33.65,4.54.18,6.66-.75,2.57-1.12,4.87-2.51,3.95-5.55Z"/>
  <path d="m367.91,186.54c-2.89,0-5.79.04-8.68-.02-1.26-.03-1.61.48-1.6,1.68.06,6.96,4.83,10.77,12.27,9.75,1.93-.26,3.87-.47,5.74-1.02.9-.26,1.61-.2,1.68.89.06.86.97,2.02-.67,2.46-4.78,1.26-9.63,1.94-14.51.77-4.78-1.15-7.44-4.48-8.47-9.13-.87-3.95-.91-7.95.18-11.89,2.09-7.55,9.89-11.62,17.26-8.92,4.52,1.65,6.56,5.29,7.22,9.81.2,1.36.31,2.73.13,4.14-.15,1.19-.64,1.5-1.7,1.49-2.95-.03-5.9-.01-8.85-.01h0Zm-2.16-3.52c2.33,0,4.66,0,6.99,0,.78,0,1.38-.06,1.46-1.11.22-3.18-2.1-6.65-5.15-7.59-5.15-1.59-10.49,1.76-11.34,7.1-.18,1.13.14,1.65,1.38,1.62,2.22-.06,4.44-.02,6.66-.02Z"/>
  <path d="m422.43,189.4c0,3.23,0,6.45,0,9.68,0,.92.04,1.85-1.31,1.84-1.06-.01-2.15.19-2.26-1.44-.09-1.38-.8-.92-1.55-.4-3.81,2.68-8,3.18-12.41,1.9-3.26-.94-5.17-3.2-5.6-6.56-.45-3.46.51-6.4,3.58-8.39,2.41-1.56,5.12-2.13,7.93-2.27,2-.1,4.01-.08,6.01-.04,1.09.02,1.47-.41,1.46-1.48,0-1.35-.15-2.67-.46-3.96-.58-2.38-2.46-3.85-5.11-4.07-3.14-.27-6.22.07-9.21,1.12-.8.28-1.49.37-1.59-.69-.09-.96-1.33-2.24.45-2.79,4.02-1.24,8.12-1.98,12.33-1.17,4.88.93,7.63,4.23,7.73,9.22.06,3.17.01,6.34.01,9.51Zm-8.99-2.17c-1.94-.08-4.33-.03-6.58.96-2.1.92-3.19,2.68-3.06,4.88.14,2.38,1.36,4.01,3.61,4.66,2.93.85,5.58,0,8.15-1.39,1.91-1.03,2.92-2.31,2.78-4.73-.25-4.37-.07-4.38-4.9-4.38Z"/>
  <path d="m368.69,143.31c-3.87,3.11-7.99,4.11-12.58,3.2-3.93-.78-6.17-3.14-6.78-7.19-.55-3.63,1.08-6.82,4.41-8.58,2.2-1.16,4.58-1.7,7.06-1.76,2-.05,4-.06,6.01-.02.99.02,1.44-.36,1.39-1.37-.05-1.05.07-2.13-.12-3.16-.7-3.81-2.86-5.43-8.31-5.17-1.93.09-3.86.44-5.71,1.11-.83.3-1.47.18-1.57-.81-.09-.92-1.21-2.17.46-2.66,4.37-1.28,8.82-1.96,13.3-.66,3.6,1.04,6,3.99,6.07,7.73.14,6.94.05,13.89.07,20.84,0,.86-.26,1.4-1.23,1.37-.91-.03-1.99.27-2.22-1.11-.08-.48-.14-.97-.25-1.75Zm-4.99-10.84c-1.78,0-3.55-.06-5.3.37-3.28.8-4.75,2.77-4.43,5.99.27,2.72,2.28,4.39,5.49,4.45,2.16.04,4.12-.67,6.03-1.66,1.96-1.02,2.9-2.33,2.78-4.72-.23-4.42-.07-4.43-4.56-4.43Z"/>
  <path d="m482.52,196.9c-.96.8-1.86,1.61-2.82,2.34-2.88,2.18-6.17,2.79-9.64,2.18-4.9-.87-7.78-4.44-7.96-10.24-.19-6.22-.05-12.45-.09-18.68-.01-1.85,1.3-1.38,2.34-1.47,1.16-.09,1.9.17,1.88,1.6-.05,5.39-.02,10.79-.02,16.18,0,1.06.08,2.1.26,3.15.87,4.92,4.11,7,8.96,5.63,2.73-.77,4.69-2.7,6.56-4.7.54-.58.42-1.36.42-2.07,0-5.84,0-11.67.02-17.51,0-.73-.34-1.73.56-2.09.98-.39,2.09-.31,3.11-.01.59.17.49.82.49,1.3,0,9.01,0,18.01.01,27.02,0,.98-.37,1.43-1.37,1.41-.97-.02-1.94.09-2.11-1.27-.12-.91.04-1.89-.61-2.76Z"/>
  <path d="m501.61,200.92c-2.89,0-5.78,0-8.68,0-2.37,0-2.67-.36-2.42-2.72.1-.95.65-1.63,1.17-2.35,4.66-6.44,9.33-12.87,13.98-19.31.31-.43.98-.86.73-1.4-.31-.65-1.1-.32-1.67-.32-3.78-.03-7.56-.06-11.35,0-1.42.02-1.97-.46-1.97-1.93,0-1.48.57-1.91,1.98-1.89,5.23.06,10.46.02,15.68.02,2.54,0,3.49,1.63,2.27,3.95-.38.73-.92,1.39-1.41,2.06-4.58,6.29-9.16,12.58-13.73,18.88-.27.37-.89.73-.54,1.26.25.39.83.19,1.26.19,4.73.01,9.46.05,14.18-.02,1.43-.02,1.83.54,1.82,1.87,0,1.3-.52,1.75-1.8,1.73-3.17-.06-6.34-.02-9.51-.02Z"/>
  <path d="m438.72,180.37c0-6,0-12,0-18,0-2.49.11-2.61,2.27-2.61,2.09,0,2.15.06,2.15,2.52,0,10.83,0,21.67,0,32.5,0,2.27,0,2.28,2.31,2.28,4.61,0,9.23.05,13.84-.03,1.56-.03,1.86.68,1.86,2.02,0,1.29-.36,1.91-1.81,1.9-6.28-.06-12.57-.06-18.85,0-1.45.01-1.79-.62-1.79-1.91.03-6.22.01-12.44.01-18.67Z"/>
  <path d="m398.11,115.63c1.84-.09,3.52.26,5.19.73,1.69.47.97,1.68.82,2.72-.17,1.21-.93.96-1.73.78-2.22-.49-4.44-1.07-6.74-.4-2.03.6-3.33,2.03-3.55,3.97-.23,2.04.74,3.43,2.46,4.33,1.18.61,2.44,1.07,3.66,1.6,1.27.55,2.56,1.07,3.82,1.65,6.18,2.86,5.16,11.04.57,13.81-4.67,2.82-9.6,2.35-14.52.92-1.63-.48-.42-1.91-.39-2.88.03-1.02.8-.99,1.59-.76,2.36.7,4.77,1.03,7.24.93,1.2-.05,2.31-.34,3.32-.97,2.62-1.62,2.78-5.33.32-7.17-1.31-.98-2.86-1.47-4.35-2.07-1.13-.46-2.29-.88-3.38-1.42-3.48-1.73-5.14-4.44-4.76-7.66.47-4.11,2.83-6.84,6.71-7.73,1.25-.29,2.51-.47,3.71-.37Z"/>
  <path d="m552.21,152.96c0-15.13,0-30.25,0-45.38,0-.56,0-1.11.04-1.67.04-.61.41-.87.99-.89.6-.01.95.29,1.01.87.05.5.06,1,.06,1.5,0,30.36,0,60.73,0,91.09,0,.11.01.22,0,.33-.13.8.35,2.01-1.06,2.02-1.45.01-1.03-1.21-1.03-2-.02-15.29-.02-30.59-.02-45.88Z"/>
  <path d="m391.29,178.98c0-6.67,0-13.33.01-20,0-.74-.28-1.71.67-2.04,1-.34,2.1-.34,3.11.04.63.24.56.91.56,1.45.02,1.78.01,3.55.01,5.33,0,11.61,0,23.22,0,34.83,0,2.07-2.02,3.23-3.8,2.18-.77-.46-.55-1.28-.55-1.97-.02-6.61-.01-13.22-.01-19.83Z"/>
  <path d="m441.84,133.91c0,4.83,0,9.67,0,14.5,0,2.19-.32,4.32-1.13,6.36-1.43,3.55-6.2,5.47-9.67,3.94-1.14-.5-.68-1.5-.74-2.33-.06-.81.36-1.25,1.18-1.27.61-.02,1.22-.02,1.83-.03,2.27-.05,3.43-1.01,3.99-3.24.38-1.53.37-3.08.37-4.64,0-9.5,0-19,0-28.51,0-2.24,1.47-3.21,3.52-2.35.84.35.63,1.1.63,1.72.02,5.28.01,10.56.01,15.84Z"/>
  <path d="m383.05,131.21c0,4.33-.07,8.66.03,12.98.04,1.69-.66,2.05-2.17,2.03-1.41-.02-2.11-.3-2.09-1.94.07-8.71.08-17.42,0-26.13-.02-1.82.87-1.88,2.26-1.92,1.53-.05,2.04.47,2.01,2-.08,4.33-.03,8.66-.03,12.98Z"/>
  <path d="m613.79,151.49c-3.49,0-3.38.57-3.38-3.41,0-3.72.03-7.44-.01-11.16-.02-1.35.51-1.93,1.87-1.87,1.22.05,2.44,0,3.65.23,3.02.55,4.47,3.54,2.86,6.18-.55.91-.68,1.33.23,2.11,1.49,1.27,1.79,3.01,1.13,4.86-.67,1.88-2.13,2.79-4.02,3.04-.76.1-1.55.02-2.33.02Zm-1.3-4.58q0,2.8,2.11,2.79c2.61,0,3.7-.8,3.74-2.7.04-2.01-1.1-2.89-3.72-2.89q-2.12,0-2.12,2.8Zm-.07-7.37c.44.97-.84,2.79,1.53,2.77,2.28-.01,3.38-.86,3.38-2.74,0-1.83-1.13-2.68-3.44-2.71-2.25-.02-1.05,1.72-1.47,2.67Z"/>
  <path d="m665.48,143.28c0-2.22.02-4.45-.01-6.67-.02-1.04.4-1.53,1.47-1.54,1.39-.01,2.78,0,4.15.26,1.9.37,3.21,1.52,3.52,3.12.39,2.02-.22,3.73-1.97,4.73-1.07.61-1.09,1.11-.48,2.05.97,1.49,1.85,3.04,2.72,4.59.26.47,1,1.1.25,1.54-.66.39-1.54.3-2.04-.54-.95-1.63-1.89-3.27-2.84-4.91-.22-.38-.44-.77-.68-1.15-.3-.47-.75-.64-1.3-.55-.66.12-.69.65-.7,1.16-.02,1.39.03,2.78-.03,4.17-.03.76.3,1.87-1,1.9-1.32.04-1.04-1.06-1.05-1.84-.04-2.11-.01-4.23,0-6.34Zm2.03-3.75c.31,1.13-.7,2.9,1.68,2.84,2.23-.06,3.36-.93,3.33-2.76-.03-1.79-1.25-2.73-3.61-2.73-2.2,0-1,1.74-1.41,2.65Z"/>
  <path d="m730.72,126.12c-1.41,1.16-2.86,1.84-4.56,1.6-2.72-.38-4.41-3.04-4.09-6.31.43-4.3,2.84-6.37,7.15-6,1.18.1,1.5-.27,1.45-1.33-.04-.89-.02-1.78,0-2.67.02-.67.03-1.41,1-1.41.97,0,.99.75.99,1.42.02,3.89.01,7.78.02,11.67,0,.94.02,1.89-.02,2.83-.02.58.1,1.32-.73,1.48-.87.17-.88-.64-1.22-1.29Zm-.08-5.08c0-1.03,0-1.81,0-2.59,0-.53-.17-.97-.7-1.21-2.26-1.03-4.9.21-5.57,2.61-.37,1.32-.36,2.62.03,3.93.66,2.19,2.43,2.85,4.43,1.76,2-1.09,1.98-2.89,1.82-4.5Z"/>
  <path d="m727.06,176.2c-1.24-.09-.84-.91-.62-1.56.94-2.79,1.9-5.57,2.91-8.33.67-1.82,1.44-3.61,2.15-5.42.24-.61.56-1.08,1.3-1.08.73,0,1.08.45,1.34,1.05,1.98,4.59,3.68,9.29,5.26,14.02.14.43.45,1.04-.29,1.24-.67.18-1.37.16-1.68-.64-.3-.77-.59-1.56-.78-2.37-.24-.99-.82-1.38-1.8-1.32-.5.03-1,0-1.5,0q-3.61,0-4.96,3.38c-.25.63-.56,1.09-1.33,1.02Zm5.69-13.66c-.55,1.5-.96,2.57-1.34,3.66-1.57,4.47-2.27,3.76,2.93,3.83.85.01,1.12-.3.81-1.1-.74-1.96-1.48-3.93-2.41-6.39Z"/>
  <path d="m675.62,167.5c0,2.39,0,4.78,0,7.17,0,.54.09,1.18-.57,1.43-.58.22-.9-.12-1.19-.61-.38-.65-.77-.08-1.1.1-4.27,2.19-7.6.21-7.65-4.58-.06-4.94,2.36-7.18,7.39-6.75,1,.09,1.32-.25,1.29-1.17-.03-.89-.04-1.78.01-2.67.04-.66-.28-1.63.85-1.65,1.21-.02.96,1.02.97,1.73.04,2.33.01,4.67,0,7Zm-1.85,2.47c0-1.12-.02-1.9,0-2.67.02-.72-.28-1.22-.98-1.32-2.8-.44-4.91-.33-5.63,3.15-.24,1.19-.14,2.31.17,3.44.55,2.04,2.2,2.75,4.14,1.85,2.1-.97,2.65-2.66,2.29-4.45Z"/>
  <path d="m666.64,118.73c0,2.39.01,4.77,0,7.16,0,.53.15,1.18-.51,1.46-.58.25-.9-.13-1.17-.62-.27-.49-.64-.23-.99-.03-2.06,1.22-4.23,1.74-6.15-.07-2.21-2.09-2.1-4.8-1.31-7.45.73-2.46,2.64-3.59,5.13-3.84.11-.01.23.01.33-.02.88-.25,2.07.76,2.61-.2.41-.73.07-1.85.2-2.78.11-.82-.58-2.23.85-2.26,1.63-.04.93,1.48.97,2.32.1,2.1.03,4.22.03,6.33Zm-1.89,2.47c0-1.15,0-1.93,0-2.7,0-.46-.09-.86-.53-1.14-2.03-1.3-5.38.07-5.87,2.47-.26,1.25-.26,2.55,0,3.81.43,2.17,2.34,2.96,4.34,1.95,2.05-1.03,2.38-2.74,2.07-4.39Z"/>
  <path d="m594.72,167.95c0-2.17.03-4.34-.01-6.5-.02-1.2.5-1.76,1.7-1.68,1.5.1,3.01.09,4.48.34,2.26.39,3.7,2.5,3.57,4.94-.14,2.61-1.93,4.53-4.47,4.8q-3.19.34-3.2,3.59c0,.56,0,1.11-.03,1.67-.03.63-.28,1.06-1,1.07-.73,0-1-.44-1.01-1.06-.04-1.89-.03-3.78-.04-5.67,0-.5,0-1,0-1.5h0Zm2.07-3.07c0,3.32.13,3.47,2.9,3.14,1.77-.21,2.79-1.61,2.61-3.57-.19-1.96-1.44-2.74-4-2.68-2.24.05-1.28,1.71-1.5,2.78-.02.11,0,.22,0,.33Z"/>
  <path d="m594.72,119.17c0-2.17.02-4.34,0-6.5-.01-1.1.44-1.66,1.58-1.63,1.28.04,2.55-.08,3.83.15,2.89.53,4.42,2.27,4.34,4.99-.08,2.68-1.8,4.56-4.53,4.92-3.14.43-3.09.43-3.18,3.66-.03.95.69,2.61-1.05,2.6-1.61-.01-.92-1.61-.97-2.53-.11-1.88-.03-3.78-.03-5.67h0Zm2.08-3.26c0,.66.03,1.33,0,1.99-.07,1.09.45,1.51,1.49,1.43.55-.04,1.11.02,1.65-.07,1.62-.27,2.56-1.76,2.36-3.63-.2-1.89-1.74-2.91-4.19-2.79-2.16.1-.98,1.78-1.3,2.74-.03.1,0,.22,0,.33Z"/>
  <path d="m691.82,119.21c0-2.22.03-4.44-.01-6.65-.02-1.06.4-1.54,1.45-1.52,1.38.02,2.77-.07,4.15.2,2.37.46,3.81,1.95,3.97,4.23.19,2.72-1.04,4.66-3.45,5.38-.53.16-1.09.29-1.63.28-2.87-.03-2.58-.06-2.6,2.82,0,.5.05,1-.01,1.5-.09.74.39,1.9-.9,1.95-1.36.05-.93-1.13-.95-1.86-.06-2.11-.02-4.21-.02-6.32Zm1.88-3.2c0,3.51.08,3.6,2.91,3.28,1.87-.21,2.77-1.4,2.63-3.5-.13-2.01-1.6-3.04-4.19-2.96-2.31.08-.98,1.86-1.34,2.85-.04.1,0,.22,0,.33Z"/>
  <path d="m666.16,199.49c.76-.12,1.53-.26,2.29-.37.49-.07,1.03-.23,1.2.49.15.62-.16.93-.73,1.08-2.55.69-5.97.83-7.67-1.18-1.66-1.97-1.83-6.18-.34-8.52,1.23-1.94,3.72-2.81,6.02-2.12,1.95.58,3.28,2.62,3.28,4.93,0,.97-.4,1.43-1.39,1.42-1.83-.02-3.67.03-5.5,0-1.14-.02-1.48.43-1.19,1.54.5,1.89,1.64,2.69,4.03,2.74Zm-1.3-6.03c.61,0,1.21.02,1.82,0,.48-.02,1.06.1,1.31-.47.25-.58-.09-1.08-.41-1.52-1.08-1.51-3.3-1.58-4.61-.13-.44.49-.99,1.09-.74,1.74.26.68,1.07.33,1.64.4.33.04.66,0,.99,0Z"/>
  <path d="m719.97,122.89c0,1.17.02,2.33,0,3.49-.02.7-.54,1.44-1.1.96-.98-.83-1.62-.12-2.38.11-1.09.33-2.16.42-3.28.11-1.58-.45-2.48-1.46-2.6-3.07-.12-1.62.67-2.77,2.12-3.44,1.07-.49,2.25-.57,3.41-.67.79-.07,1.8.18,1.77-1.14-.02-1.14-.5-1.94-1.69-2.11-1.05-.15-2.11-.1-3.15.12-.62.13-1.26.34-1.43-.56-.14-.75.47-.91,1-1.07,1.47-.44,2.97-.5,4.45-.19,1.76.37,2.64,1.56,2.87,3.62.02.17.03.33.03.5,0,1.11,0,2.22,0,3.33,0,0-.01,0-.02,0Zm-3.74-.77c-2.47.02-3.57.73-3.49,2.15.08,1.48,1.08,1.75,2.31,1.72,1.87-.05,2.87-.92,2.93-2.41.06-1.53-.93-1.5-1.74-1.45Z"/>
  <path d="m624.11,196.19c0,1.17.02,2.33,0,3.5-.02.67-.44,1.5-1.04,1.05-1.1-.83-1.84-.04-2.72.17-.93.22-1.85.35-2.8.12-1.72-.41-2.71-1.43-2.84-3.04-.14-1.71.69-2.88,2.2-3.57,1.02-.47,2.14-.53,3.25-.62.71-.06,1.72.31,1.84-.87.12-1.17-.37-2-1.56-2.42-1.08-.38-2.08,0-3.12.13-.62.08-1.39.56-1.61-.49-.21-.99.62-.98,1.25-1.17,1.14-.35,2.31-.31,3.47-.25,1.92.1,3.07,1.12,3.47,2.99.08.38.18.76.19,1.15.03,1.11,0,2.22,0,3.33,0,0,0,0,.01,0Zm-3.67-.64c-2.65,0-3.59.59-3.58,2.01,0,1.34.79,1.85,2.04,1.86,1.85.02,3.08-.98,3.16-2.43.08-1.6-.97-1.45-1.61-1.43Z"/>
  <path d="m710.01,196.09c0,1.22.02,2.44,0,3.67-.01.72-.53,1.43-1.1.98-.98-.78-1.63-.08-2.42.12-.75.19-1.51.36-2.3.28-2.13-.22-3.45-1.44-3.57-3.3-.11-1.72,1.05-3.19,3-3.67.86-.21,1.75-.26,2.64-.35.69-.08,1.55.13,1.65-.93.09-.94-.13-1.75-1.09-2.23-1.2-.6-2.39-.24-3.59-.02-.64.12-1.39.49-1.58-.54-.16-.88.58-.93,1.16-1.1,1.36-.4,2.76-.4,4.13-.21,1.79.25,2.91,1.61,3.06,3.64.09,1.22.02,2.44.02,3.66Zm-4.1-.54c-2.12.02-3.25.74-3.16,2.09.09,1.44,1.07,1.8,2.32,1.77,1.85-.04,2.86-.96,2.89-2.46.03-1.59-1.05-1.4-2.04-1.39Z"/>
  <path d="m720.75,145.4c-.01,3.77-2.61,6.48-6.17,6.42-3.35-.06-5.58-2.51-5.61-6.16-.03-3.71,2.46-6.34,6.02-6.34,3.57,0,5.77,2.32,5.76,6.08Zm-2.12.22c0-2.97-1.42-4.67-3.85-4.61-2.42.06-3.88,2.01-3.7,4.95.17,2.82,1.79,4.31,4.39,4.04,1.99-.2,3.16-1.83,3.16-4.39Z"/>
  <path d="m649.28,121.4c-.02,3.67-2.59,6.37-6.04,6.38-3.39,0-5.8-2.6-5.74-6.21.07-3.81,2.47-6.3,6.07-6.29,3.56,0,5.74,2.34,5.71,6.11Zm-2.13.12c0-2.35-.76-3.76-2.37-4.33-1.49-.53-2.9-.29-3.98.85-1.49,1.58-1.43,3.5-.88,5.46.4,1.44,1.39,2.23,2.84,2.45,2.73.4,4.41-1.3,4.4-4.42Z"/>
  <path d="m740.7,115.29c3.64-.01,5.79,2.22,5.79,6.01,0,3.8-2.55,6.51-6.1,6.48-3.32-.03-5.6-2.49-5.67-6.12-.07-3.71,2.41-6.36,5.98-6.37Zm-3.9,6.22c.01,2.79,1.44,4.45,3.84,4.47,2.27.02,3.85-1.71,3.89-4.28.04-2.78-1.52-4.76-3.78-4.81-2.35-.05-3.96,1.83-3.94,4.61Z"/>
  <path d="m640.53,171.57c0,1.17.03,2.33,0,3.49-.03.92-.57,1.49-1.38.91-.68-.49-1.07-.24-1.63,0-1.31.6-2.66.72-4.05.26-1.43-.47-2.21-1.47-2.35-2.92-.15-1.47.5-2.56,1.77-3.31,1.16-.69,2.43-.67,3.71-.68.78,0,1.81.29,1.83-1.05.02-1.22-.34-2.23-1.74-2.41-1.11-.14-2.21-.09-3.3.23-.5.15-1.02.23-1.23-.43-.23-.7.19-1.04.78-1.22,1.51-.45,3.05-.63,4.6-.29,1.82.41,2.75,1.57,2.95,3.74.11,1.21.02,2.44.02,3.66,0,0,.01,0,.02,0Zm-5.52,3.18c2.29,0,3.38-.91,3.47-2.35.09-1.52-.82-1.55-1.92-1.53-2.17.04-3.29.68-3.3,2-.01,1.47.94,1.87,1.76,1.88Z"/>
  <path d="m683.8,170.55c-.72,0-1.45,0-2.17,0-1.79,0-2.15.52-1.47,2.19.47,1.17,1.34,1.89,2.65,1.97,1.17.07,2.33.08,3.48-.2.52-.13,1.03-.14,1.22.5.19.63-.22.95-.75,1.08-1.96.48-3.94.73-5.91.02-.26-.09-.51-.22-.75-.36-2.14-1.28-3.02-5.04-1.91-8.18.88-2.5,3.05-3.83,5.75-3.51,2.52.29,4.41,2.85,4.06,5.43-.1.77-.49,1.06-1.2,1.06-1,0-2,0-3,0v.02Zm-.75-1.55c.55,0,1.11-.04,1.66,0,1.45.14,1.42-.63,1.03-1.62-.72-1.8-3.23-2.26-4.73-.84-.57.53-1.21,1.17-.9,2,.3.79,1.16.38,1.78.45.38.05.77,0,1.16,0Z"/>
  <path d="m682.4,145.85c-.83,0-1.67.06-2.5-.01-1.33-.13-1.49.53-1.25,1.6.35,1.53,1.27,2.44,2.86,2.56,1.16.08,2.33.09,3.47-.21.53-.14,1.02-.09,1.17.57.15.68-.35.9-.84,1.01-1.57.38-3.15.65-4.77.32-2.07-.41-3.39-1.6-3.84-3.66-.44-1.98-.46-3.97.44-5.86,1.03-2.18,3.37-3.27,5.85-2.77,2.12.43,3.58,2.36,3.68,4.75.05,1.19-.35,1.78-1.61,1.71-.89-.05-1.78,0-2.66,0Zm-.76-1.55c.55,0,1.11-.05,1.65,0,1.52.16,1.52-.65,1.08-1.7-.82-1.98-3.65-2.24-5.06-.46-.41.52-.89,1.16-.64,1.79.28.7,1.07.27,1.64.35.43.06.88.01,1.32.01Z"/>
  <path d="m640.83,150.09c.77-.11,1.53-.22,2.3-.34.55-.08,1.01-.03,1.11.65.09.57-.25.83-.71.95-2.68.7-6.08.84-7.79-1.3-1.68-2.1-1.7-6.38-.09-8.67,1.29-1.83,3.75-2.58,5.95-1.83,2.02.69,3.32,2.84,3.18,5.16-.05.88-.54,1.12-1.32,1.12-1.83,0-3.67.04-5.5,0-1.27-.03-1.56.52-1.25,1.65.5,1.86,1.61,2.56,4.11,2.6Zm-1.21-5.79c.55,0,1.11.01,1.66,0,1.46-.04,1.8-.71,1.04-1.99-1.04-1.73-3.62-1.81-4.93-.12-.39.51-.94,1.09-.6,1.77.29.59.99.29,1.52.34.44.04.88,0,1.33,0Z"/>
  <path d="m762.91,174.8c.77-.11,1.53-.22,2.3-.33.49-.07.89,0,1.04.55.15.55-.17.8-.61,1.01-2.52,1.21-6.63.47-8.02-1.46-1.7-2.38-1.36-7.21.65-9.19,1.37-1.35,4.01-1.8,5.77-.98,1.65.77,2.82,2.85,2.77,4.8-.02,1.02-.51,1.36-1.46,1.35-1.78-.02-3.56.06-5.33-.02-1.4-.06-1.6.51-1.24,1.71.58,1.88,1.59,2.54,4.13,2.56Zm-1.33-5.81c.55,0,1.11.02,1.66,0,1.46-.05,1.81-.75,1.04-2.01-1.01-1.64-3.57-1.72-4.85-.13-.42.52-.93,1.15-.67,1.78.28.68,1.08.28,1.66.35.38.05.77,0,1.16,0Z"/>
  <path d="m631.86,121.82c-.78,0-1.56-.01-2.33,0-1.64.03-1.87.36-1.38,1.89.47,1.44,1.46,2.18,2.95,2.26,1.17.06,2.33,0,3.48-.27.47-.11.89.04,1,.61.11.55-.19.78-.65.98-2.63,1.14-6.42.48-7.9-1.39-1.62-2.05-1.6-6.48.04-8.67,1.32-1.76,3.89-2.49,6.01-1.7,1.91.7,3.19,2.88,3.05,5.1-.05.84-.46,1.19-1.27,1.18-1-.01-2,0-3,0h0Zm-.84-1.55c.55,0,1.11.02,1.66,0,1.37-.05,1.67-.56,1.08-1.77-.88-1.81-3.24-2.15-4.77-.67-.56.55-1.16,1.26-.92,2.01.25.78,1.16.34,1.78.42.38.05.77,0,1.16,0Z"/>
  <path d="m675.68,125.99c.29-.04,1.06-.16,1.83-.27.49-.07.9.03,1.03.58.13.56-.23.78-.67.98-2.55,1.16-6.53.47-7.9-1.38-1.73-2.34-1.53-6.96.39-9.07,1.35-1.48,3.95-2.01,5.86-1.2,1.79.76,2.82,2.58,2.8,4.72-.01,1.08-.47,1.49-1.51,1.47-1.72-.03-3.45.04-5.17-.01-1.31-.04-1.52.63-1.28,1.69.41,1.79,1.64,2.53,4.62,2.49Zm-1.6-5.72c.55,0,1.11-.03,1.66,0,1.35.1,1.5-.52,1.06-1.61-.85-2.05-3.53-2.39-5.03-.6-.42.5-.95,1.09-.65,1.77.3.7,1.07.37,1.64.42.44.04.88,0,1.33,0Z"/>
  <path d="m614.84,122.59c0,1.28.02,2.55,0,3.83-.02.87-.54,1.32-1.3.82-.66-.45-1.12-.21-1.68.03-1.27.54-2.56.68-3.9.24-1.34-.44-2.18-1.27-2.32-2.73-.15-1.58.29-2.86,1.79-3.61,1.17-.58,2.45-.66,3.72-.79.7-.07,1.75.32,1.78-.9.03-1.13-.4-2.1-1.69-2.31-1.1-.18-2.22-.12-3.31.14-.57.13-1.13.26-1.34-.5-.25-.9.44-.99,1.02-1.17,1.35-.42,2.75-.45,4.13-.25,1.88.26,3,1.58,3.09,3.56.06,1.22.01,2.44.01,3.66,0,0,0,0,0,0Zm-3.86-.46c-2.18.02-3.49.81-3.36,2.09.14,1.34,1.01,1.84,2.32,1.78,1.9-.09,3.01-1.01,3.07-2.51.06-1.64-1.07-1.34-2.03-1.37Z"/>
  <path d="m653.93,170.55c-.72,0-1.44,0-2.17,0-1.85.02-2.06.32-1.48,2.03.44,1.3,1.35,2.01,2.7,2.11,1.16.09,2.33.09,3.48-.18.51-.12,1.01-.17,1.19.52.17.66-.25.94-.77,1.06-1.52.35-3.06.62-4.62.35-2.47-.43-3.91-2-4.19-4.5-.17-1.5-.2-2.99.32-4.44.89-2.48,3.15-3.82,5.79-3.43,2.35.34,3.95,2.34,4.05,4.99.04,1.07-.41,1.53-1.47,1.5-.94-.03-1.89,0-2.83,0h0Zm-.98-1.55c.55,0,1.11.02,1.66,0,.48-.02,1.07.16,1.35-.38.32-.61.02-1.19-.31-1.71-.93-1.43-3.2-1.6-4.53-.35-.58.55-1.15,1.27-.93,2.02.24.8,1.16.31,1.77.42.32.05.66,0,1,0Z"/>
  <path d="m648.84,200.94c-4.3,0-6.69-1.98-7.53-6.02-.44-2.09-.19-4.11.54-6.05,1.46-3.87,6.48-5.8,10.17-3.97.47.23.91.45.69,1.11-.23.67-.66.83-1.3.61-.05-.02-.11-.03-.16-.04-2.48-.64-4.97-.88-6.64,1.54-1.86,2.69-1.9,5.65-.44,8.53,1.11,2.2,3.58,2.98,6.56,2.32.32-.07.64-.18.96-.28.49-.15.88-.07,1.09.45.23.58,0,.95-.55,1.19-1.14.52-2.34.67-3.39.61Z"/>
  <path d="m614.54,171.29c0,1.28,0,2.55,0,3.83,0,.74-.48,1.42-1.08.91-.8-.68-1.28-.22-1.91.03-1.28.5-2.58.65-3.91.2-1.4-.47-2.22-1.4-2.33-2.91-.12-1.55.47-2.68,1.86-3.42,1.13-.6,2.34-.58,3.57-.62.73-.03,1.84.44,1.89-.94.04-1.2-.33-2.24-1.7-2.48-1.1-.19-2.21-.13-3.3.16-.53.14-1.11.39-1.34-.44-.24-.87.36-1.09.98-1.21.92-.17,1.86-.35,2.8-.37,3.12-.05,4.45,1.29,4.48,4.43,0,.94,0,1.89,0,2.83,0,0,0,0-.01,0Zm-3.57-.41c-2.54,0-3.53.64-3.51,2.11.02,1.39.89,1.77,2.09,1.77,1.91,0,3.04-.93,3.13-2.41.09-1.56-.87-1.53-1.72-1.47Z"/>
  <path d="m709.07,171.23c0,1.28,0,2.55,0,3.83,0,.7-.39,1.47-1.03.98-.91-.69-1.46-.2-2.2.09-3.19,1.26-6.13-.4-6-3.37.07-1.75,1.29-3,3.35-3.34.71-.12,1.44-.03,2.16-.11.69-.07,1.73.39,1.81-.85.07-1.18-.25-2.28-1.6-2.55-1.15-.24-2.32-.17-3.47.15-.56.16-1.11.3-1.28-.53-.17-.78.37-.97.92-1.12,1.24-.35,2.51-.5,3.79-.38,2.14.2,3.44,1.54,3.54,3.69.05,1.16,0,2.33.01,3.5Zm-3.47-.35c-2.61,0-3.62.6-3.62,2.04,0,1.48.92,1.86,2.19,1.83,1.91-.03,2.98-.98,3.04-2.52.05-1.5-.91-1.37-1.61-1.35Z"/>
  <path d="m647.12,145.58c0-1.55,0-3.11,0-4.66,0-.44,0-.95.49-1.15.53-.22.97-.06,1.24.49.41.84.84.17,1.18-.05.91-.62,1.88-.91,2.98-.89,2.15.05,3.55,1.2,3.94,3.32.46,2.53.23,5.09.23,7.64,0,.66-.2,1.22-1.04,1.2-.84-.02-.99-.59-1-1.24-.02-2.05,0-4.11-.03-6.16-.04-2.03-.79-2.93-2.37-2.96-1.94-.03-3.51,1.35-3.54,3.16-.03,1.89,0,3.77-.02,5.66-.01.71.03,1.55-1.05,1.53-1.08-.02-1-.85-1.01-1.56-.02-1.44,0-2.89,0-4.33,0,0,0,0,0,0Z"/>
  <path d="m598.1,198.44c1.22-2.88,1.96-5.31,2.63-7.78.13-.48.26-.98.51-1.4.25-.42.73-.48,1.19-.32.49.17.48.59.37.97-1.46,5.02-2.91,10.05-5.87,14.46-.73,1.09-1.76,1.69-3.13,1.5-.47-.07-.87-.25-.86-.83,0-.51.27-.76.78-.92,2.86-.92,3.67-2.79,2.55-5.57-.99-2.48-1.93-4.97-2.79-7.5-.22-.65-1.12-1.65.13-2.11,1.22-.44,1.39.67,1.68,1.52.86,2.51,1.76,5.01,2.8,7.97Z"/>
  <path d="m598.18,148.9c1.15-2.65,1.85-5.04,2.53-7.44.14-.48.26-.97.49-1.41.24-.46.74-.45,1.19-.35.54.11.5.56.39.93-1.46,5.01-2.91,10.03-5.88,14.43-.66.97-1.58,1.55-2.82,1.46-.5-.04-1.05-.03-1.13-.71-.07-.61.26-.97.85-1,1.23-.06,1.8-.92,2.42-1.81.78-1.12.81-2.15.24-3.41-1.24-2.73-2.34-5.52-3.17-8.41-.15-.51-.65-1.24.36-1.48.77-.18,1.25.17,1.5.94.86,2.68,1.75,5.36,3.04,8.27Z"/>
  <path d="m682.62,196.26c0,1.16.01,2.33,0,3.49-.01.63-.27,1.08-1,1.04-.66-.04-.8-.51-.8-1.05-.01-1.72-.03-3.44-.01-5.16.01-.9-.09-1.78-.37-2.62-.4-1.22-1.33-1.76-2.58-1.57-2.02.31-3.18,1.72-3.19,3.75,0,1.78,0,3.55-.01,5.33,0,.63-.03,1.29-.89,1.33-.99.04-.98-.71-.98-1.38,0-3.05-.01-6.1,0-9.15,0-.47-.12-1.06.51-1.27.5-.17.83.06,1.05.54.35.77.78.28,1.2.04,3.94-2.2,7.03-.44,7.09,4.03.01.89,0,1.78,0,2.66,0,0-.01,0-.02,0Z"/>
  <path d="m632.24,145.68c0,1.56.01,3.11,0,4.67,0,.43.02.93-.57,1.06-.43.09-.76-.05-.94-.48-.39-.94-.9-.33-1.31-.05-.96.64-1.99.98-3.14.93-2.1-.1-3.61-1.42-3.8-3.71-.2-2.43-.09-4.89-.1-7.33,0-.62.2-1.09.95-1.08.77,0,.89.52.89,1.12.01,1.89-.02,3.78.03,5.67.06,2.46.9,3.57,2.6,3.53,2.05-.04,3.51-1.6,3.52-3.78,0-1.72,0-3.45.01-5.17,0-.68,0-1.4,1-1.37.92.03.85.72.86,1.32.02,1.56,0,3.11,0,4.67h0Z"/>
  <path d="m773.11,165.8c-.24.02-.74,0-1.23.09-.72.14-1.19.59-1.3,1.33-.11.7.25,1.19.83,1.49.79.4,1.62.73,2.43,1.09,1.4.61,2.27,1.65,2.21,3.21-.06,1.61-.97,2.67-2.5,3.18-1.36.45-2.73.42-4.11.06-.57-.15-1.11-.32-.97-1.08.16-.86.76-.74,1.42-.65.82.12,1.66.19,2.48.14.84-.05,1.46-.52,1.61-1.42.14-.86-.34-1.36-1.06-1.68-.81-.37-1.64-.68-2.43-1.08-1.29-.65-2.08-1.67-1.95-3.19.14-1.63,1.05-2.64,2.61-3.08.98-.28,1.98-.27,2.97-.05.59.13,1.27.25,1.09,1.15-.17.84-.81.57-1.33.56-.17,0-.33-.03-.76-.07Z"/>
  <path d="m626.75,165.79c-.26.03-.83.02-1.35.18-.62.19-1.02.68-1.12,1.34-.09.63.27,1.09.78,1.35.74.38,1.51.7,2.27,1.03,1.49.64,2.56,1.6,2.48,3.36-.08,1.68-1.16,2.79-3.05,3.28-1.28.33-2.54.21-3.79-.12-.54-.14-.91-.42-.76-1.07.14-.62.55-.81,1.12-.66.87.23,1.76.28,2.65.21.83-.07,1.53-.37,1.7-1.3.17-.89-.23-1.51-1.03-1.87-.71-.32-1.43-.62-2.15-.92-1.59-.65-2.33-1.81-2.16-3.53.17-1.7,1.28-2.51,2.78-2.92.87-.24,1.77-.21,2.64,0,.55.13,1.31.16,1.19,1.07-.13.94-.84.67-1.42.64-.17,0-.33-.03-.79-.07Z"/>
  <path d="m621.16,115.31c.28,0,.57-.05.83,0,.69.16,1.78-.04,1.58,1.17-.19,1.17-1.13.6-1.74.5-.63-.09-1.21-.08-1.78.19-.59.28-1.03.71-1.09,1.37-.07.69.34,1.17.91,1.46.85.41,1.74.73,2.58,1.15,1.3.63,2.13,1.63,2.02,3.15-.11,1.53-.94,2.56-2.39,3.1-1.47.54-2.94.45-4.42.05-.53-.15-.91-.42-.76-1.07.14-.63.57-.79,1.13-.64.87.23,1.75.3,2.64.19.81-.1,1.51-.41,1.68-1.35.16-.92-.3-1.48-1.08-1.85-.5-.23-1.02-.43-1.53-.64-2.28-.97-3.09-2.22-2.68-4.16.36-1.7,1.82-2.64,4.1-2.62Z"/>
  <path d="m716.31,165.81c-.83,0-1.75-.16-2.29.65-.62.93-.49,1.82.57,2.37.84.43,1.74.73,2.58,1.15,1.23.62,1.97,1.57,1.9,3.04-.07,1.5-.85,2.49-2.19,3.05-1.44.6-2.91.57-4.41.18-.61-.16-1.05-.36-.93-1.1.13-.8.67-.77,1.26-.62.87.22,1.76.24,2.65.14.85-.1,1.47-.58,1.65-1.42.19-.86-.43-1.34-1.09-1.67-.79-.4-1.64-.69-2.43-1.08-1.36-.67-2.19-1.72-2-3.31.2-1.61,1.15-2.6,2.71-3.01.87-.23,1.77-.23,2.64-.06.61.12,1.46.16,1.33,1.13-.13.91-.88.62-1.46.61-.17,0-.33-.02-.5-.04Z"/>
  <path d="m715.34,201.18c-.55-.1-1.33-.2-2.08-.38-.58-.14-.77-.58-.63-1.16.14-.57.56-.65,1.03-.56.87.17,1.74.4,2.64.29.89-.11,1.62-.48,1.84-1.43.24-1.04-.46-1.52-1.26-1.88-.76-.34-1.56-.59-2.3-.97-1.28-.66-2.09-1.7-1.94-3.2.16-1.6,1.1-2.65,2.67-3.04,1.03-.26,2.1-.23,3.14,0,.5.11.98.33.87,1-.11.66-.59.73-1.13.66-.49-.06-.99-.22-1.48-.21-.9.02-1.64.39-1.91,1.32-.28.99.31,1.57,1.13,1.96.45.22.92.38,1.38.57,2.27.91,3.01,1.96,2.77,3.95-.19,1.62-1.56,2.74-3.69,3.01-.27.04-.55.04-1.05.07Z"/>
  <path d="m631.2,188.7c.14,0,.53,0,.91.07.59.13,1.28.22,1.16,1.1-.13.97-.83.71-1.41.59-.6-.12-1.19-.28-1.8-.05-.71.27-1.31.66-1.43,1.47-.14.88.44,1.33,1.13,1.65.8.38,1.65.67,2.44,1.06,1.24.62,2.04,1.6,1.96,3.03-.08,1.45-.85,2.47-2.23,3.05-1.52.64-3.05.51-4.58.16-.52-.12-.93-.39-.81-1.04.14-.74.65-.84,1.25-.68.87.24,1.75.38,2.64.22.81-.14,1.48-.53,1.61-1.45.12-.84-.32-1.37-1.04-1.71-.5-.24-1.01-.45-1.53-.66-2.36-.98-3.18-2.26-2.72-4.3.36-1.61,1.91-2.54,4.46-2.51Z"/>
  <path d="m753.79,176.41c-1.93.03-2.9-.82-3.23-2.7-.36-2.04-.12-4.1-.19-6.15-.03-.79.05-1.61-1.06-1.74-.37-.05-.57-.31-.59-.69-.02-.38.15-.71.53-.72,1.4-.02,1.37-.98,1.41-1.96.03-.65-.01-1.51.9-1.52,1.12-.02.92.97.87,1.62-.1,1.37.42,1.96,1.81,1.82.5-.05,1.07.01,1.08.72.01.69-.53.84-1.04.77-1.73-.22-1.89.78-1.84,2.13.07,1.66.03,3.33.02,5,0,1.05.42,1.69,1.56,1.73.6.02,1.4-.04,1.29.86-.1.9-.99.69-1.52.85Z"/>
  <path d="m686.99,194.93c0,3.54,1.63,4.87,5.21,4.24.54-.1,1.15-.35,1.38.43.22.74-.33.96-.88,1.16-2.35.84-5.41.11-6.71-1.61-1.53-2.01-1.5-5.98.05-8.21,1.29-1.85,3.88-2.68,6.26-1.99.55.16,1.36.17,1.24,1.04-.15,1.03-.96.66-1.58.57-3.45-.5-4.96.83-4.97,4.37Z"/>
  <path d="m689.53,145.62c0-.83,0-1.66,0-2.49,0-.94.18-1.97-1.25-2.06-.36-.02-.55-.34-.55-.72,0-.3.15-.62.44-.62,1.61,0,1.38-1.29,1.6-2.24.14-.58.02-1.35.94-1.25.79.08.7.8.64,1.31-.18,1.53.3,2.33,1.98,2.12.44-.06.92.05.94.67.02.59-.43.82-.88.76-2.01-.27-2.12.93-2.04,2.43.08,1.44.04,2.88.01,4.32-.02,1.31.43,2.15,1.89,2.16.51,0,1.05.08,1.03.79-.02.7-.58.69-1.07.77-2.18.35-3.57-.75-3.68-2.96-.05-1,0-2,0-2.99h0Z"/>
  <path d="m645.58,171.71c0,2,.08,4-.02,5.99-.13,2.54-1.51,3.81-3.63,3.52-.53-.07-1.01-.18-1.07-.82-.06-.66.39-.9.93-.92,1.71-.06,1.92-1.24,1.93-2.54.02-3.11,0-6.22.01-9.33,0-.44-.05-.9.01-1.33.1-.73-.39-1.9.96-1.87,1.21.02.85,1.1.87,1.8.05,1.83.02,3.66.02,5.5,0,0-.01,0-.02,0Z"/>
  <path d="m705.33,117.03c1.07-1.08,2.07-1.96,3.58-1.72.46.07.93.16.92.74,0,.52-.21.9-.82,1.07-3.07.82-3.65,1.59-3.65,4.7,0,1.44,0,2.88-.02,4.32,0,.63-.1,1.25-.94,1.3-.95.05-1.1-.6-1.1-1.31-.02-2.94-.03-5.87,0-8.81,0-.62-.19-1.43.72-1.64.98-.23.87.76,1.32,1.35Z"/>
  <path d="m439.78,109.82c-1.88.03-3.16-1.22-3.15-3.07,0-1.71,1.33-3.07,3.02-3.11,1.72-.04,3.17,1.41,3.17,3.16,0,1.76-1.24,3-3.04,3.02Z"/>
  <path d="m380.94,109.81c-1.78,0-3.06-1.25-3.08-3.02-.02-1.74,1.45-3.2,3.18-3.15,1.66.05,3.01,1.48,3,3.17-.01,1.74-1.32,3-3.1,3Z"/>
  <path d="m683.02,118.72c0,2.44.01,4.88,0,7.32,0,.59.1,1.32-.81,1.36-.98.05-1.01-.69-1.01-1.37-.01-4.88-.01-9.77,0-14.65,0-.68.04-1.42,1.02-1.36.91.05.8.78.81,1.37.02,2.44,0,4.88,0,7.32Z"/>
  <path d="m697.33,167.44c0,2.39.01,4.77,0,7.16,0,.7.09,1.58-1.01,1.53-1.02-.05-.81-.9-.81-1.52-.02-4.77-.02-9.54,0-14.32,0-.61-.21-1.47.8-1.53,1.1-.07,1.02.81,1.02,1.52.02,2.39,0,4.77,0,7.16Z"/>
  <path d="m612.19,192.15c0,2.39,0,4.77,0,7.16,0,.65.09,1.45-.89,1.48-.98.03-.95-.75-.95-1.42,0-4.83-.01-9.65,0-14.48,0-.64-.11-1.46.89-1.47,1.13-.01.94.9.95,1.57.03,2.39.01,4.77,0,7.16Z"/>
  <path d="m702.18,145.55c0-1.61,0-3.22,0-4.83,0-.38-.01-.82.47-.96.4-.12.84-.09.97.37.32,1.08.8.64,1.28.17.82-.79,1.77-1.12,2.9-.92.48.09.86.31.81.87-.04.48-.28.78-.8.92-3.11.85-3.77,1.71-3.77,4.81,0,1.28.02,2.56-.01,3.83-.02.68.19,1.59-.91,1.63-1.13.04-.94-.88-.95-1.56-.03-1.44,0-2.89,0-4.33,0,0,0,0,.01,0Z"/>
  <path d="m743.29,165.96c.99-.96,1.83-1.98,3.26-1.93.6.02,1.36-.05,1.43.78.08.84-.47,1.05-1.28,1.1-1.67.11-3.23,1.88-3.26,3.6-.03,1.72,0,3.45-.02,5.17,0,.66.04,1.45-.93,1.46-1.02,0-.89-.81-.89-1.45-.02-2.89-.03-5.78,0-8.67,0-.59-.32-1.48.71-1.58,1-.1.68.92.98,1.53Z"/>
  <path d="m698.33,194.95c0,1.5,0,3,0,4.5,0,.71-.1,1.38-1.04,1.37-.95,0-1.01-.72-1.01-1.4-.01-3.05,0-6.11,0-9.16,0-.71.14-1.38,1.06-1.38.96,0,.99.72.99,1.41,0,1.55,0,3.11,0,4.66Z"/>
  <path d="m655.52,194.9c0-1.55-.01-3.11,0-4.66,0-.63.08-1.29.92-1.33.94-.05,1.07.64,1.07,1.35.01,3.11.01,6.22,0,9.33,0,.65-.16,1.25-1,1.24-.84,0-.98-.62-.99-1.26-.02-1.55,0-3.11,0-4.66Z"/>
  <path d="m619.78,170.33c0,1.49.02,2.99,0,4.48-.01.69-.09,1.38-1.05,1.36-.96-.02-1-.72-1-1.4-.01-2.99-.01-5.97,0-8.96,0-.66-.02-1.4.96-1.43,1.08-.04,1.08.76,1.09,1.48.03,1.49,0,2.99,0,4.48Z"/>
  <path d="m698.71,145.7c0,1.56,0,3.11,0,4.67,0,.52-.08,1.02-.77,1.07-.73.05-1.02-.37-1.03-1.01-.02-3.22-.02-6.45,0-9.67,0-.62.22-1.09.97-1.07.8.02.83.6.83,1.17.01,1.61,0,3.23,0,4.84Z"/>
</svg>