<?xml version="1.0" encoding="UTF-8"?>
<svg id="Capa_17" data-name="Capa 17" xmlns="http://www.w3.org/2000/svg" viewBox="0 0 776.05 261.43">
  <path d="m84.39,114.2c12.56,0,25.12,0,37.68,0,1.81,0,1.82,0,1.82,1.84,0,21.26.02,42.52-.01,63.78,0,6.92-2.06,13.16-6.83,18.31-4,4.32-9.08,6.91-14.69,8.45-7.73,2.13-15.61,2.59-23.6,2.03-6.17-.43-12.21-1.46-17.85-4.03-9.7-4.42-15.15-11.97-15.89-22.61-.63-9-.21-18.03-.25-27.04-.06-12.98,0-25.95,0-38.93,0-1.7.08-1.79,1.8-1.79,12.61,0,25.21,0,37.82,0Zm-26.79,39.51s0,0-.01,0c0,8.01,0,16.01,0,24.02,0,1.62.2,3.2.56,4.78.21.91.6,1.31,1.59,1.3,5.96-.04,11.91,0,17.87-.03,2.44,0,3.7-1.19,3.71-3.65.05-9.25.02-18.5.05-27.75,0-.86-.33-1.2-1.18-1.35-1.68-.29-3.33-.73-4.94-1.33-2.73-1.02-5.16-2.47-6.93-4.84-2.4-3.21-2.23-7.14.42-10.14,1.11-1.26,2.39-2.3,3.87-3.09,5.18-2.77,10.67-3.39,16.39-2.33,3.55.66,6.82,1.94,9.55,4.41,3.78,3.43,4.15,7.83.95,11.78-.74.91-1.63,1.63-2.6,2.26-2.47,1.61-5.16,2.64-8.07,3.12-.71.12-1.61,0-1.8,1.12-.58,3.42.81,6.43,1.9,9.51.06.17.19.31.32.45.25.26.49.64.91.47.37-.14.29-.54.29-.85.04-2.11.25-4.25-1.15-6.1-.24-.32-.36-.75-.43-1.15-.16-.92.33-1.58.98-2.15.44-.38.93-.41,1.41-.11,1.89,1.2,4.08,1.69,6.13,2.5,1.15.45,1.41,1.11.82,2.12-1.01,1.75-.84,3.52-.21,5.32,1.22,3.47,2.3,7,4.29,10.15.44.69.69,1.5.99,2.27.54,1.37.51,2.69-.34,3.95-.35.51-.49,1.04-.29,1.69q1.18,3.74,5.03,3.76c.46,0,.93-.05,1.38,0,1.01.11,1.42-.42,1.59-1.31.33-1.72.65-3.43.65-5.19,0-16.33-.02-32.67.02-49,0-1.38-.39-1.8-1.81-1.79-16.72.05-33.43.05-50.15,0-1.42,0-1.8.42-1.8,1.8.06,8.47.03,16.93.03,25.4Zm27.01,33.02h0c-7.43,0-14.86,0-22.29.02-.59,0-1.46-.35-1.72.42-.23.66.51,1.12.94,1.57,2.51,2.66,5.66,4.28,9.12,5.25,7.63,2.14,15.39,2.23,23.17.99,5.35-.85,10.29-2.6,13.97-6.86.28-.33.88-.61.65-1.1-.22-.48-.83-.28-1.27-.28-7.52-.01-15.05,0-22.57,0Zm2.76-18.63c-.11.07-.23.13-.34.2,0,4.26-.02,8.52.01,12.78,0,1.04.51,1.92,1.5,2.29,1.93.71,3.85.8,5.65-.48.65-.47.75-.85.12-1.39-1.02-.88-1.6-1.98-1.7-3.34-.03-.35-.21-.71-.4-1.02-1.03-1.69-1.55-3.51-1.48-5.5.02-.4.09-1.05-.38-1.06-1.65-.04-2.38-1.15-3-2.47Zm-33.73-17.05c.26-1.2-.89-.54-1.22-.91-.81-.91-1.29-1.17-2.49-.15-.76.65-1.39.78-.93,1.85.08.19.08.49-.02.67-.45.82-.33,1.23.7,1.28.85.03.98,1.41,1.61,1.26.58-.14.72-1.3,1.68-1.33.44-.01.67-.31.54-.76-.19-.65-.06-1.27.13-1.91Zm-4.26-32.37c-.31-.05-.69-.29-.91,0-.3.39.12.66.34.93.48.58.31,1.06-.09,1.61-.32.44-.4.94.41.83.75-.09,1.25.17,1.56.84.29.64.59.62.95.05.17-.26.38-.65.62-.69,1.25-.22,1.81-.69,1.07-1.98-.15-.27.23-.56.41-.82.44-.65.2-.97-.53-.87-.75.1-1.31.07-1.65-.79-.26-.65-.71-.57-.85.13-.16.79-.64.92-1.33.76Zm68.09,29.71c-.18,1.48-.82,1.92-1.83,1.9-.33,0-.53.21-.45.54.22.85.47,1.69-.2,2.46.98.55,1.96,1.11,2.94,1.66.34-.85,1.5-.93,1.79-1.46.45-.83.31-1.98.39-3,0-.06-.21-.21-.31-.2-1.12.14-1.62-.64-2.32-1.9Zm-36.07-29.81c.63,1.05,1.08,1.63.55,2.8-.5,1.08,1.86.12,1.95,1.45,0,.09.06.17.1.25.25.48.65.49.77.01.29-1.12,1.3-.91,1.99-1.31.8-.47-.84-1.51.1-2.27.07-.05.1-.15.14-.24.19-.47.02-.78-.48-.68-.87.17-1.41-.08-1.72-.93-.11-.31-.61-.6-.68-.14-.28,1.6-1.4,1.24-2.72,1.06Zm-32.72,63.54c.32.41.84.85.77,1.01-.86,1.77.5,2.14,1.56,2.91.56.41.69.77,1.11-.02.4-.76,1.4-.54,1.87-.96.62-.54-.69-1.42-.09-2.12.62-.73.22-.92-.41-1.08-.5-.13-.93-.39-1.33-.71-.3-.25-.68-.51-.95-.08-.57.92-1.53.88-2.53,1.07Zm65.66.02c.23.56.93.82.65,1.47-.11.25-.29.5-.3.76-.08,1.49,2.06.66,2.17,2.02.02.22.41.3.55.05.44-.76,1-1.29,1.95-1.29.3,0,.32-.3.25-.53-.25-.78-.4-1.5-.09-2.37.08-.22-1.43-.5-1.93-1.23-.2-.29-.62-.39-.82-.06-.54.89-1.46,1-2.41,1.18Zm3.37-58.45c.4-1.32,1.09-1.59,2.08-1.87,1.08-.31-.64-1.57.24-2.29.06-.05.08-.16.11-.25.24-.59.04-.79-.55-.63-.81.23-1.32.03-1.53-.86-.08-.34-.5-.78-.75-.18-.48,1.15-1.39,1.17-2.71.95.66,1.06,1.19,1.89.53,2.86-.16.24.15.52.47.52,1.02-.02,1.52.69,2.12,1.75Z"/>
  <path d="m297.53,117.01c-1.73,2.15-3.4,4.2-5.05,6.27-7.41,9.3-14.81,18.6-22.21,27.9-1.44,1.81-3.14,1.86-4.6.06-5.98-7.37-11.9-14.79-17.92-22.14-2.95-3.6-5.96-7.15-8.81-10.83-.25-.32-.54-.61-.87-.98-.43.55-.27,1.12-.27,1.63,0,22.6,0,45.2.02,67.79q0,2.24-2.28,2.23c-3.23,0-6.47-.05-9.7.01-1.29.02-1.8-.36-1.8-1.72.03-30.19.03-60.38,0-90.58,0-1.14.39-1.55,1.53-1.54,3.42.04,6.84.02,10.25.01.73,0,1.29.18,1.79.8,6.62,8.22,13.26,16.41,19.9,24.61,3.22,3.97,6.47,7.93,9.67,11.92.58.72.9.84,1.54.05,9.3-11.56,18.7-23.04,27.88-34.69,1.67-2.12,3.32-2.93,5.9-2.71,2.43.2,4.89.1,7.34.04,1.23-.03,1.7.33,1.69,1.64-.04,28.58-.04,57.16-.04,85.74,0,1.7,0,3.41.04,5.11.02.94-.37,1.32-1.32,1.32-3.74-.03-7.48-.03-11.22-.02-.88,0-1.28-.36-1.23-1.24.02-.46,0-.92,0-1.38,0-22.46,0-44.92,0-67.38,0-.58.14-1.18-.22-1.93Z"/>
  <path d="m436.61,141.7c0-15.1.01-30.19-.02-45.29,0-1.18.61-1.25,1.47-1.25,3.79,0,7.57,0,11.36.01,6.14,0,12.29-.07,18.43.04,8.27.14,16.51.62,24.47,3.22,12.24,4.01,20.83,12.07,26.28,23.58,3.49,7.35,5.06,15.17,4.3,23.22-1.8,18.95-11.59,32.26-29.19,39.79-6.39,2.73-13.09,3.68-20,3.64-11.55-.08-23.09-.03-34.64-.03-2.41,0-2.42,0-2.42-2.47,0-14.82,0-29.64,0-44.46-.01,0-.02,0-.04,0Zm13.76.15c0,.97,0,1.93,0,2.9,0,9.98,0,19.97,0,29.95,0,.85-.1,1.71,1.2,1.67,9.17-.26,18.37.59,27.52-.57,6.83-.87,13.12-3.16,18.27-7.85,10.34-9.39,13.16-21.3,10.5-34.47-2.59-12.78-11.13-20.46-23.36-24.34-5.23-1.66-10.67-1.44-16.05-1.62-5.4-.18-10.8-.04-16.2-.04-1.89,0-1.89,0-1.9,1.94,0,10.81,0,21.62,0,32.43Z"/>
  <path d="m677.19,141.78c0-15.1.02-30.19-.03-45.29,0-1.39.75-1.33,1.67-1.33,9.1,0,18.2,0,27.3.03,7.21.03,14.39.37,21.48,1.84,13.07,2.71,22.87,9.91,29.6,21.31,4.78,8.08,7,16.92,6.24,26.2-1.66,20.22-12.28,33.97-31.28,41.29-5.29,2.04-10.79,2.81-16.41,2.82-12.15.02-24.3,0-36.44-.01-2.03,0-2.08-.04-2.08-2.11,0-14.91,0-29.83,0-44.74-.01,0-.02,0-.03,0Zm13.76.09c0,10.17,0,20.34,0,30.5,0,.92.03,1.84,0,2.76-.03.88.35,1.25,1.24,1.23,9.17-.25,18.38.61,27.53-.58,8.23-1.07,15.44-4.28,21.02-10.6,4.91-5.57,7.58-12.09,8.32-19.46.66-6.54.04-12.89-2.77-18.87-4.68-9.97-12.89-15.58-23.35-18.26-4.33-1.11-8.8-.89-13.21-1.06-5.62-.21-11.26-.06-16.9-.06-1.86,0-1.87,0-1.87,1.82,0,10.86,0,21.72,0,32.57Z"/>
  <path d="m546.67,141.94c0-14.96,0-29.91,0-44.87,0-1.88.02-1.92,1.95-1.91,7.25.01,14.5-.06,21.75.07,5.09.09,10.15.6,14.91,2.59,9.5,3.97,15.11,10.83,15.92,21.3.57,7.34-1.25,13.85-6.29,19.34-2.19,2.38-4.91,4.03-7.79,5.42-.8.39-1.22.63-.25,1.35,4.79,3.58,8.5,8.13,11.87,13.01,4.66,6.75,8.7,13.89,13.33,20.67,2.03,2.97,4.18,5.84,6.32,8.73.22.3.81.51.56.99-.25.49-.82.31-1.26.31-3.74,0-7.49-.19-11.22.07-2.73.19-4.12-.92-5.63-3.08-5.41-7.7-9.98-15.92-15.26-23.69-2.66-3.9-5.96-7.24-9.52-10.35-2.84-2.48-6.18-3.38-9.81-3.52-1.48-.06-2.96.04-4.43-.04-1.11-.06-1.43.37-1.43,1.44.04,5.25.01,10.49.02,15.74,0,7.22.01,14.45.02,21.67,0,1.77-.03,1.78-1.77,1.78-3.37,0-6.74,0-10.11-.01-1.79,0-1.87-.08-1.87-1.87,0-15.05,0-30.09,0-45.14Zm13.74-20.54h.01c0,4.37.03,8.73-.02,13.1-.01,1.11.33,1.53,1.49,1.55,4.34.08,8.66-.05,12.97-.56,6.95-.83,11.93-6.1,12.19-13.48.23-6.33-3.2-12.43-10.47-13.97-4.94-1.05-9.99-.95-15-1.16-1.03-.04-1.2.57-1.19,1.43.02,4.37,0,8.73,0,13.1Z"/>
  <path d="m412.74,188.95c-1.94,0-3.88-.01-5.82,0-.9,0-1.38-.37-1.76-1.22-3.73-8.41-7.53-16.8-11.28-25.21-.4-.89-.95-1.21-1.91-1.21-12.33.02-24.66.03-36.99,0-1.05,0-1.53.39-1.93,1.34-3.27,7.86-6.59,15.7-9.91,23.54-.21.51-.48,1-.69,1.51-.38.93-1.05,1.28-2.06,1.26-3.6-.04-7.2,0-10.81-.03-1.56,0-1.72-.28-1.1-1.73,11.56-26.94,23.12-53.88,34.68-80.83,1.49-3.47,2.96-6.94,4.37-10.44.39-.97.96-1.35,1.98-1.34,2.22.04,4.43.05,6.65,0,1.13-.03,1.78.43,2.23,1.45,4.55,10.22,9.12,20.43,13.69,30.64,6.45,14.41,12.91,28.82,19.36,43.23,2.65,5.92,5.29,11.85,7.96,17.77.44.98.26,1.33-.85,1.3-1.94-.05-3.88-.01-5.82-.01v-.02Zm-39.43-39.92h0c4.25,0,8.49,0,12.74-.01,1.35,0,1.47-.22.93-1.47-.53-1.22-1.08-2.44-1.63-3.65-3.92-8.77-7.85-17.55-11.78-26.32-.16-.36-.22-.9-.67-.98-.46-.08-.53.43-.66.75-4.19,10.11-8.36,20.23-12.57,30.33-.44,1.05-.25,1.38.9,1.37,4.25-.04,8.49-.01,12.74-.01Z"/>
  <path d="m649.95,142.19c0,14.91,0,29.83,0,44.74,0,2,0,2.02-1.99,2.02-3.37,0-6.74,0-10.12-.02-1.93,0-1.94-.01-1.94-1.91,0-13.12,0-26.24,0-39.35,0-16.8,0-33.6,0-50.4q0-2.08,2.06-2.09c3.37,0,6.74-.02,10.12-.02,1.8,0,1.86.07,1.86,1.87,0,15.05,0,30.1,0,45.15h.01Z"/>
  <path d="m54.45,90.1c1-.13,1.69-.16,1.73-1.24.03-.84.85-1.19,1.55-1.39,1.03-.29,1.62-.79,1.44-1.95-.06-.39-.06-.9.43-1.06.41-.13.64.27.91.52.41.39.84.72,1.54.61.06-.74-.58-1.1-.87-1.63-.53-.97-.32-1.42.77-1.3.93.1,1.39-.29,1.65-1.08.01-.04.03-.09.05-.13.36-.73.6-1.76,1.56-1.73.83.03,1.25.94,1.48,1.67.37,1.15,1.07,1.5,2.19,1.34.3-.04.69-.15.89.18.25.41-.14.67-.33.96-.03.04-.07.07-.09.1-.3.5-1.32.91-.69,1.53.48.47.96-.43,1.42-.76.29-.2.51-.61.94-.37.36.2.47.6.42.96-.18,1.39.55,2.04,1.8,2.3.78.16,1.07.65.97,1.4-.05.35-.23.79.38.81.47.02.83-.19.82-.72-.03-1.12.71-1.53,1.63-1.71.94-.19,1.29-.7,1.25-1.65-.02-.51-.16-1.19.54-1.42.62-.2.7.46,1.02.74.1.09.2.2.32.26.34.17.67.71,1.06.32.3-.3-.11-.66-.33-.94-.14-.18-.31-.34-.44-.53-.24-.38-.7-.73-.49-1.22.25-.58.82-.27,1.24-.23.8.08,1.35-.16,1.61-.96.04-.13.11-.26.18-.37.37-.61.51-1.57,1.36-1.59.94-.03,1.14.97,1.49,1.62.5.94.87,1.91,2.24,1.27.26-.12.57-.06.75.2.24.34-.01.58-.19.86-.41.62-1.57,1.31-1,1.87.69.66,1.32-.54,1.96-.97.64-.43,1.11-.45,1.02.44-.14,1.43.32,2.29,1.8,2.55.72.13.94.7.9,1.35-.03.62-.38,1.02-1.03,1.11-1.32.18-1.77.98-1.66,2.24.03.33.15.79-.32.95-.42.14-.66-.2-.96-.42-.51-.39-1.03-.79-1.58-1.1-.88-.5-1.49-.11-1.53.92-.06,1.24,1.33,2.63,2.69,2.69,1.53.07,2.51-.77,2.72-2.17.23-1.54.7-2.98,2.51-3.4.24-.06.49-.16.48-.42-.06-1.38.96-1.76,1.98-2.13.77-.28.83-.88.81-1.56-.01-.49-.13-1.1.45-1.34.6-.26.71.42,1.05.69.39.3.87.9,1.28.51.54-.52-.15-.93-.49-1.34-.3-.36-1.04-.53-.75-1.15.25-.54.9-.39,1.38-.36.91.07,1.53-.21,1.75-1.14.03-.13.1-.26.18-.37.41-.53.59-1.41,1.37-1.42.74,0,.93.84,1.18,1.39.49,1.07.97,1.98,2.42,1.51.3-.1.66.04.84.36.19.35-.03.61-.25.86-.06.07-.14.13-.18.2-.25.44-1.11.82-.63,1.31.55.55,1.03-.21,1.46-.58.24-.2.42-.57.79-.46.41.13.5.57.45.92-.17,1.3.45,1.92,1.65,2.25.74.21,1.25.79,1.19,1.66-.02.33-.16.67.38.66.4-.01.8-.1.8-.57,0-1.01.62-1.54,1.44-1.81,1.04-.35,1.49-.97,1.39-2.05-.04-.4-.02-.89.46-1.05.44-.14.62.3.89.53.14.12.26.27.41.36.39.22.87.69,1.23.3.41-.45-.21-.77-.48-1.1-.23-.28-.5-.54-.7-.85-.32-.47-.14-.8.4-.88.41-.06.83-.07,1.24-.02,1.11.13,1.9-.28,2.66-1.11,2.12-2.32,5.13-2.85,7.84-1.51.31.15.59.32.51.71-.07.34-.39.33-.65.39-3.3.71-4.87,2.54-5.09,5.89-.14,2.06.04,4.13-.22,6.2-.65,5.1-5.96,7.93-10.31,5.45-1.14-.65-2.06-.61-3.2,0-2.27,1.21-4.6,1.25-6.82-.23-.79-.53-1.49-.5-2.31-.03-2.38,1.38-4.81,1.52-7.21.04-.8-.49-1.49-.46-2.31,0-2.48,1.37-5,1.48-7.49-.03-.7-.42-1.33-.49-2.06-.03-2.3,1.46-4.66,1.62-7.05.18-.96-.58-1.85-.5-2.86,0-2.48,1.26-4.98,1.26-7.35-.32-.58-.39-1.04-.4-1.63-.03-2.47,1.54-5,1.77-7.58.24-.77-.46-1.48-.44-2.33-.01-5.66,2.83-10.76-.3-10.88-6.65-.04-1.97.07-3.95-.28-5.92-.47-2.59-1.93-4.21-4.5-4.77-.43-.09-1.05-.04-1.03-.67.02-.62.65-.49,1.07-.63,3.17-1.03,5.8-.3,7.88,2.34.51.65,1.26.44,1.93.46.46.02.93-.03,1.38.02.69.08,1.15.32.41,1-.1.09-.22.19-.28.3-.27.48-1.17.91-.67,1.43.42.43.93-.31,1.31-.68.82-.81,1.31-.38,1.34.49.05,1.32.75,1.93,1.88,2.38,1.14.45,1.44,1.24.36,2.4Zm22.01.27c.84.93.67,1.81.6,2.67-.06.86.23,1.49.98,1.96,1.68,1.04,3.89.15,4.38-1.79.11-.45.2-.94-.18-1.3-.41-.38-.88-.18-1.28.04-.44.24-.85.54-1.28.81-.37.23-.68.77-1.18.5-.41-.22-.23-.75-.24-1.14-.04-.91-.1-1.78-1.8-1.75Zm-19.18.08c.61.67,1.1,1.33.83,2.15-.45,1.36.3,2.1,1.33,2.65.91.49,2.57.04,3.26-.84.55-.7,1.08-1.66.46-2.38-.67-.78-1.5-.01-2.2.38-.08.04-.14.12-.22.17-.36.27-.67.8-1.15.63-.59-.2-.45-.84-.44-1.33,0-1.17-.52-1.67-1.87-1.44Zm38.53-.16c.45,1.11.64,2.04.44,3.01-.1.49.01.92.4,1.24.94.76,1.97,1.15,3.2.72,1.2-.42,1.68-1.37,1.92-2.49.17-.79-.28-1.12-1.04-.98-.88.16-1.6.66-2.33,1.15-.8.54-1.23.33-1.11-.65.12-1-.17-1.69-1.48-1.99Zm-22.28-.11c-1.59.32-2.18.93-1.98,2.21.15.98-.38,1.15-1.16.71-.52-.29-.98-.69-1.49-.99-.47-.27-1.03-.6-1.54-.19-.53.42-.28,1-.08,1.52.07.17.13.35.21.51.62,1.13,2.06,1.75,3.31,1.38,1.3-.39,2.04-1.11,1.72-2.64-.18-.84-.06-1.74,1.01-2.51Zm37.46.18c-1.28.27-1.22,1.14-1.26,1.96-.02.45.06,1.02-.44,1.22-.46.19-.71-.32-.98-.61-.49-.51-1.09-.87-1.74-1.09-.87-.3-1.3.18-1.16.97.15.86.56,1.68,1.35,2.17.99.62,2.02.58,3.02.01.91-.51,1.26-1.24.98-2.31-.19-.71.06-1.45.22-2.33Zm-57.72,3.1c-.05-.28-.07-.65-.2-.99-.15-.41-.54-.48-.69-.07-.64,1.78-1.33.7-2.01.06-.35-.32-.75-.54-1.2-.64-.91-.2-1.36.19-1.2,1.1.2,1.1.79,1.92,1.9,2.33,1.12.4,2.07.15,2.93-.61.33-.29.52-.64.46-1.17Zm63.38-.26c-.5-.13-1-.13-1.21.38-.22.54.27.82.62,1.1,1.18.97,2.68.99,3.79.09.8-.65,1.43-2.42.92-2.79-.95-.69-1.7.12-2.49.52-.16.08-.29.22-.42.35-.35.34-.71.59-1.2.35Z"/>
  <path d="m86.06,104.45c1.53.53,3.78-.1,4,2.18.17,1.73-1.67,2.04-3.39,2.64h35.24c-1.26-.16-2.53-.25-3.57-1.15-1.27-1.11-1.28-1.85.09-2.84,1.2-.87,4.73-.56,5.87.45.89.79,1,1.51.01,2.24-.96.71-1.41,1.28-.09,2.19,1.09.75.96,1.44-.05,2.35-.74.68-1.62.79-2.57.79-4.76-.01-9.52,0-14.27,0-19.95,0-39.91,0-59.86,0-.98,0-1.92-.02-2.7-.78-1.12-1.08-1.17-1.65.11-2.5.97-.64.84-1.09.12-1.78-.49-.48-1.49-.97-1-1.74.56-.87,1.33-1.79,2.65-1.69.87.07,1.76-.02,2.63.09.97.12,1.81.58,2,1.62.2,1.06-.63,1.58-1.4,1.99-.59.32-1.28.45-2.22.76h34.63c-1.01-.31-1.82-.38-2.4-.91-.55-.51-1.56-.88-1.25-1.79.33-.97,1.12-1.71,2.28-1.74,1.18-.03,2.36,0,3.54,0,0-.13,0-.25,0-.38-2.21-.09-4.43-.26-6.64-.26-10.21-.03-20.42-.03-30.62,0-1.14,0-2.04-.25-2.81-1.14-.63-.73-.55-1.25.08-1.89.77-.78,1.67-1.05,2.75-1.05,6.65.03,13.3.02,19.95.02,15.7,0,31.39.02,47.09-.03,2.54,0,5.07-.09,7.61.02,1.54.06,3.26,1.16,3.18,2.1-.09,1.01-1.96,2.04-3.41,2.03-11.68-.07-23.37-.28-35.05.11-.17,0-.34.06-.51.09Z"/>
  <path d="m172.49,144.14c0-20.94,0-41.87,0-62.81,0-1.01-.09-2.03,1.43-1.91.76.06,1.22.36,1.24,1.17,0,.32.01.64.01.97,0,41.78,0,83.56-.02,125.35,0,.72.32,1.65-.82,1.91-1.34.31-1.83-.13-1.83-1.72,0-15.55,0-31.11,0-46.66,0-5.43,0-10.86,0-16.29Z"/>
  <path d="m71.3,106.53c-3.92,2.32-7.65,2.69-11.49.7-.24-.13-.58-.2-.59-.5-.01-.31.29-.43.56-.52,1.62-.53,3.24-1.05,4.86-1.56.21-.07.48-.09.68-.02,1.92.6,3.83,1.22,5.98,1.91Z"/>
  <path d="m109.83,106.86c-1.77.62-3.53,1.26-5.31,1.84-.33.11-.75.1-1.08,0-1.59-.46-3.17-.96-4.75-1.46-.3-.09-.69-.17-.66-.58.02-.3.35-.4.61-.48,1.53-.5,3.06-1.01,4.59-1.5.21-.07.46-.12.68-.08,2.08.39,3.97,1.3,5.98,1.9-.02.12-.04.24-.06.36Z"/>
  <path d="m96.08,106.69c.02.6-1.25,2.05-1.78,2.04-.83-.02-2.17-1.39-2.16-2.2,0-.65,1.22-1.99,1.83-2.01.5-.02,2.09,1.62,2.11,2.17Z"/>
  <path d="m57.28,106.73c0,.6-1.31,2.03-1.82,2-.86-.05-2.15-1.41-2.12-2.23.02-.64,1.29-1.99,1.87-1.99.5,0,2.08,1.69,2.08,2.22Z"/>
  <path d="m113.56,104.64c.6.04,1.93,1.71,1.87,2.35-.05.56-1.43,1.72-1.98,1.68-.54-.05-1.96-1.5-1.94-1.98.02-.45,1.64-2.07,2.05-2.04Z"/>
  <path d="m76.63,106.86c.01.54-1.26,1.78-1.85,1.81-.57.03-2.24-1.5-2.04-1.98.37-.88,1-1.65,1.9-2.02.51-.21,1.97,1.48,1.99,2.19Z"/>
</svg>