<?xml version="1.0" encoding="utf-8"?>
<!-- Generator: Adobe Illustrator 27.7.0, SVG Export Plug-In . SVG Version: 6.00 Build 0)  -->
<svg version="1.1" id="Capa_12" xmlns="http://www.w3.org/2000/svg" xmlns:xlink="http://www.w3.org/1999/xlink" x="0px" y="0px"
	 viewBox="0 0 560 136" style="enable-background:new 0 0 560 136;" xml:space="preserve">
<path d="M42.8,43c6.9,0.3,13.7,0.6,20.5,1.9c0.4,0.1,1,0.3,1.3-0.1c0.3-0.5-0.2-0.8-0.5-1.2c-3.8-5.4-7.4-10.9-10.2-16.9
	c-1.1-2.3-1-4.8-1.6-7.2c-0.2-1,0.5-1.6,1.5-1.8c1.7-0.3,3.3-0.2,4.9,0.1c7.5,1.6,14.6,4.4,20.8,9c1.4,1,2.8,1.9,4.3,2.8
	c1.6,1,2.8,2.4,4.1,3.8c0.9,0.9,1.9,1,2.9,0.2c1.6-1.3,3.4-2.3,5.2-3.2c5-2.4,9.6-5.4,14.2-8.6c5-3.5,10.4-6.5,15.9-9.2
	c3.8-1.9,7.6-3.8,11-6.4c1.8-1.4,3.9-1.2,6-0.6c0.7,0.2,0.8,0.8,0.9,1.5c0.1,2.6-0.9,4.9-1.9,7.1c-1.9,4-4.7,7.4-7.2,11.1
	c-0.8,1.1-1.7,2.2-2.2,3.5c-1.9,4.4-5.2,7.9-8.3,11.5c-2.3,2.7-4.6,5.3-6.9,8.1c-1.2,1.4-1.1,1.7,0.3,2.8c2.9,2.1,5.1,4.7,7,7.7
	c0.5,0.8,1.1,1.5,1.9,2.1c4.7,3.3,8.1,7.6,11.1,12.4c2.7,4.4,6,8.5,8.3,13.2c1,2,2.1,4,3,6c1.7,4,4.3,7.5,6,11.5
	c1.7,3.9,3.1,7.8,5.1,11.5c0.6,1.1,0,2.1-0.1,3.2c0,0.4-0.5,0.5-0.9,0.5c-1,0.1-2,0-3-0.4c-4.8-1.5-9.1-3.9-13.3-6.6
	c-9.9-6.4-19.2-13.7-28.5-21c-8-6.3-16.3-12.2-24.7-18c-1.7-1.1-2.3-0.9-3.1,0.9c-1.2,2.8-1.9,5.7-2.8,8.5c-0.8,2.7-1.9,5.2-3.2,7.7
	c-4.6,9-9.6,17.8-15,26.3c-2.6,4.1-5.8,7.7-9.8,10.5c-0.3,0.2-0.6,0.4-0.9,0.6c-1.7,0.8-3,0.1-3.1-1.8c-0.3-3.7-0.3-7.4,0-11.1
	c0.4-5,1-10,2.3-14.9c1.1-4.1,2.3-8.1,2.8-12.2c0.2-1.4,0.6-2.8,1.6-3.9c0.3-0.3,0.5-0.7,0.5-1.1c0.5-3.8,1.9-7.4,3.2-11
	c0.6-1.8,1.2-3.6,1.7-5.5c0.4-1.5,0.1-1.9-1.5-1.9c-5,0.1-9.9-0.3-14.8-0.7c-3.8-0.3-7.6-0.9-11.4-1.6c-3.3-0.6-6.6-1.2-9.9-1.7
	c-3-0.5-6-1.4-8.9-2.3c-2.5-0.7-5-1.4-7.5-2.2c-0.9-0.3-2-0.5-2.2-1.7C7.3,53.1,7.6,52,8.7,51c3.3-2.8,7.3-4.1,11.4-5.2
	c5.3-1.4,10.7-2.2,16.2-2.6C38.5,43.1,40.7,43.1,42.8,43L42.8,43z"/>
<path d="M424.1,55.6c0,7.6-2.4,14.4-7.4,20.3c-2.9,3.4-6.8,5.7-11,7.2c-8.6,3-17.3,3.8-26.1,1.3c-7.4-2.1-13.2-6.2-15.2-13.9
	c-3-11.3-1.3-21.8,7.1-30.5c3.8-3.9,8.4-6.2,13.6-7.5c7-1.7,14-2.2,21-0.4c5.6,1.4,10.4,4.3,13.9,8.9c2.3,2.9,3.2,6.4,3.7,10
	C424,52.5,424.2,54,424.1,55.6L424.1,55.6z M391.7,72.3c4.7,0.1,8-1.9,10.2-5.5c3-4.7,3.4-9.9,2.6-15.2c-0.2-1.6-0.8-3.1-1.9-4.4
	c-3-3.6-8.7-4.1-12.9-1.1c-5.9,4.2-8,10.1-7.3,17.1C383,68.2,385.8,72.6,391.7,72.3z"/>
<path d="M473.3,84.5c-2.5,0-5,0-7.5,0c-1.5,0-1.7-0.3-1.4-1.7c1.8-9.1,3.7-18.1,5.5-27.2c0.3-1.5,0.2-3,0.1-4.5
	c-0.3-2.5-2.5-4.2-5.3-4.5c-5.1-0.4-8.6,2-11.3,6c-1.8,2.6-2.4,5.6-3,8.6c-1,5.1-2.2,10.1-3.2,15.2c-0.4,1.9-0.8,3.9-1.1,5.9
	c-0.2,1.4-1,2-2.3,2.1c-3.2,0.2-6.4,0.1-9.6,0.1c-1.7,0-3.3,0.1-5,0c-1.7-0.1-2-0.5-1.6-2.1c2.9-13.9,5.8-27.9,8.7-41.8
	c0.5-2.2,0.8-4.3,0.9-6.5c0.1-1.6,0.5-1.9,2.1-1.9c4.5,0,9,0,13.5,0c1.7,0,2.1,0.4,1.8,2.1c-0.2,1.3-0.6,2.6-0.9,3.9
	c-0.1,0.4-0.3,0.9,0.1,1.2c0.5,0.3,0.7-0.2,1-0.5c3.9-4.3,8.8-6.9,14.5-7.5c5.8-0.6,11.3-0.1,15.6,4.5c2.8,2.9,4,6.6,4.6,10.6
	c0.7,5-0.4,9.8-1.4,14.5c-1.4,6.9-2.8,13.8-4.2,20.7c-0.6,2.8-0.6,2.9-3.5,3C478,84.5,475.6,84.4,473.3,84.5L473.3,84.5L473.3,84.5z
	"/>
<path d="M531.1,64c-5.4,0-10.7,0-16.1,0c-1,0-1.4,0.2-1.2,1.4c0.5,3.6,3.4,6.4,7.3,7c4.7,0.8,9.5,0.8,14.2-0.2c2-0.4,4-1.1,5.9-1.9
	c2-0.8,2.5-0.6,2.1,1.5c-0.5,3.2-1.3,6.4-1.9,9.6c-0.2,0.8-0.8,1.2-1.5,1.5c-3.7,1.2-7.6,2-11.5,2.5c-5.6,0.7-11.1,0.3-16.4-1.4
	c-9.9-3.2-16-11.5-16-21.8c0-8.9,2.7-16.7,9.2-22.9c5.4-5.2,12-8,19.5-8.3c4.8-0.2,9.6,0.2,14.1,2c7.7,3.1,12,9.8,12.5,18.4
	c0.2,3.7-0.2,7.3-0.9,10.9c-0.2,0.8-0.5,1.2-1.3,1.3c-3.8,0.5-7.7,0.2-11.5,0.3c-2.2,0.1-4.3,0-6.5,0C531.1,63.9,531.1,64,531.1,64
	L531.1,64z M525.3,53L525.3,53c3,0,6,0,9,0c1,0,1.6-0.2,1.6-1.4c0-3.6-3-7.2-6.6-7.9c-5.5-1.1-11.8,2.4-14,7.7
	c-0.5,1.3-0.3,1.6,1.1,1.6C519.4,53,522.4,53,525.3,53z"/>
<path d="M255.8,41.1c0.6-2.6,1.2-5,1.7-7.5c1.6-7.6,3.1-15.2,4.6-22.8c0.2-1.1,0.7-1.6,1.8-1.5c1.5,0.1,3,0.1,4.5-0.1
	c1.1-0.2,1.4,0.4,1.2,1.3c-0.3,1.7-0.6,3.3-1,5c-2.6,11.6-5,23.2-7.4,34.8c-2,9.7-4,19.3-5.9,29c-0.3,1.4-0.4,2.8-0.6,4.2
	c-0.1,0.6-0.3,0.9-0.9,0.9c-1.6,0-3.2,0-4.9-0.1c-1,0-1.5-0.6-1.2-1.6c0.2-1.1,0.4-2.3,0.5-3.4c0-0.3,0.2-0.6-0.1-0.8
	c-0.4-0.2-0.6,0.2-0.8,0.4c-1.5,1.5-2.9,3.1-4.8,4.1c-6.5,3.3-13.1,3.9-19.6,0.2c-3.9-2.2-5.9-6-7.2-10.1
	c-3.7-11.8,0.4-28.8,11.8-36.9c6.5-4.7,13.7-5.2,21.1-2.3c3,1.2,5.1,3.6,6.6,6.6C255.2,40.6,255.3,40.9,255.8,41.1L255.8,41.1z
	 M240.8,38.1c-4.7-0.1-8.4,1.6-11.1,4.9c-6.7,7.9-9.1,17.1-7,27.3c1.9,9.2,12.3,11.5,18.1,7.3c5.4-3.9,9.6-8.7,11.2-15.3
	c1.2-4.8,1.8-9.6,0.5-14.5C250.9,41.4,246.5,38.1,240.8,38.1z"/>
<path d="M297,53c1.8,0.1,3.7-0.1,5.5,0.2c0.5,0.1,1,0,1-0.6c0.1-3.4,0.4-6.7-1.4-9.8c-1-1.7-2.4-2.9-4.2-3.7
	c-3.6-1.5-7.3-0.9-10.9-0.1c-2.9,0.6-5.4,1.9-8.1,3c-0.4,0.2-0.8,0.5-1.2,0.2c-0.5-0.3-0.1-0.8-0.1-1.3c0.2-1.2,0.4-2.4,0.6-3.6
	c0.2-1,0.5-1.9,1.6-2.2c6.3-2.3,12.7-3.9,19.5-2.4c7.9,1.7,11.4,7.8,11.8,14.8c0.3,4.8-1.1,9.3-2,13.9c-1,5.7-2.2,11.3-3.3,17
	c-0.3,1.6-0.2,3.2-0.5,4.8c-0.2,0.8-0.5,1.2-1.4,1.3c-1.3,0.1-2.7,0.2-4,0.1c-1.1,0-1.7-0.5-1.6-1.7c0.1-1.1,0.2-2.2,0.2-3.2
	c0-0.3,0.1-0.6-0.2-0.8c-0.3-0.1-0.4,0.2-0.6,0.4c-5.2,5.6-11.7,7.4-19.1,6.1c-6.6-1.1-11.3-6.9-11.4-13.6c-0.1-4.6,1-8.7,4.4-11.9
	c3.4-3,7.5-4.6,11.9-5.6C288.1,53.3,292.6,52.8,297,53L297,53z M295.7,59.1c-2.7-0.2-5.3,0-8,0.5c-4.1,0.8-8,2.1-10.8,5.4
	c-2.8,3.3-2.6,8.7,0.5,11.8c2.9,2.8,6.5,3,10.1,2.4c4.4-0.7,7.5-3.6,10.2-6.9c2.7-3.3,3.6-7.3,4.4-11.4c0.2-1.2-0.3-1.8-1.6-1.8
	C299,59.1,297.4,59.1,295.7,59.1z"/>
<path d="M334.6,75.6c1.4-2.6,2.7-5,4-7.5c5.4-9.8,10.7-19.5,16-29.3c0.6-1.1,1.1-2.3,1.8-3.4c0.8-1.4,1.8-2.2,3.5-2.1
	c1.3,0.1,2.7,0,4,0c0.4,0,0.8-0.3,1,0.1c0.2,0.4-0.1,0.7-0.3,1c-1.2,2.2-2.5,4.3-3.7,6.5c-10.6,18.8-21.2,37.5-31.8,56.3
	c-1.8,3.2-4,6.1-7.6,7.6c-3.5,1.4-7,1.2-10.5,0.3c-0.8-0.2-1.1-0.9-1-1.6c0.2-1.2,0.4-2.4,0.7-3.5c0.2-0.9,0.8-1.2,1.7-0.9
	c4.3,1.5,7.5-0.3,10.2-3.5c2.5-3,4-6.6,5.9-10c1.1-1.9,0.4-4.1,0.1-6.1c-1.1-9.6-2.9-19-4-28.6c-0.5-5.1-1.3-10.2-2.4-15.2
	c-0.4-1.8,0-2.3,1.8-2.4c0.9-0.1,1.7-0.2,2.6-0.2c1.7-0.1,2.8,0.6,2.9,2.4c0.3,3.8,1,7.6,1.3,11.5c0.3,3.7,0.8,7.3,1.3,11
	c0.6,5.3,1.3,10.5,1.9,15.8C334.1,74.3,334.2,74.9,334.6,75.6L334.6,75.6z"/>
<path d="M20.8,110.1c-0.4-4.7,0.9-9.1,4.2-12.9c3.4-3.9,7.7-5.6,13.1-5.3c4.8,0.3,7.1,3.2,8.3,7c1.2,3.7,2,7.6,2,11.6
	c0,7.3-5.6,12.4-10.6,14.4c-1.7,0.7-3.5,0.6-5.2,0.3c-3.4-0.7-6.5-2.2-8.9-4.7c-2-2.1-3-4.7-2.9-7.6
	C20.8,112.1,20.8,111.2,20.8,110.1L20.8,110.1z"/>
<path d="M465.5,129.6c-1.8,0.1-3.7-0.2-5.4-0.6c-1.5-0.4-1.8-0.9-1.5-2.4c0-0.2,0.1-0.4,0.1-0.6c0.6-2.1,0.9-2.3,3.1-1.7
	c2,0.6,3.9,1.1,6,0.6c1.9-0.5,2.9-2,3.7-3.6c0.1-0.2,0.2-0.5-0.1-0.7c-0.3-0.2-0.7,0-1,0.1c-1.3,0.7-2.8,0.9-4.2,0.8
	c-3-0.1-5.3-1.8-6-4.7c-1.1-4.3-0.7-8.3,2.1-11.9c3.1-4,9-4.6,12.1-1.9c0.6,0.5,1,0.4,1.4-0.3c0.7-1.2,3.8-1.7,4.9-0.9
	c0.8,0.6,0.5,1.3,0.4,2.1c-0.8,3.6-1.6,7.2-2.3,10.8c-0.6,2.9-1.4,5.6-2.3,8.4c-1.3,4.1-4.6,6.4-9.2,6.6
	C466.7,129.6,466.1,129.6,465.5,129.6L465.5,129.6z M473.8,109.9c0-0.6-0.1-1.2-0.3-1.8c-0.8-2.4-3.4-3.1-5.2-1.3
	c-2.1,2-2.9,4.5-2.3,7.4c0.5,2.9,3.1,3.6,5.3,1.7C473.1,114.3,473.5,112.1,473.8,109.9z"/>
<path d="M526,121.7c-1.8,0.2-3.3-0.1-4.6-1.5c-0.5-0.6-0.7-0.2-0.8,0.4c-0.4,2.2-0.8,4.5-1.5,6.7c-0.6,1.9-3.5,2.9-5.2,1.8
	c-0.7-0.4-0.5-1.1-0.3-1.7c0.5-2.5,1-5.1,1.5-7.6c1.1-5.4,2.2-10.7,3.3-16.1c0.3-1.6,0.8-2.1,2.4-2.1c1.1,0,2.2-0.1,3.1,0.6
	c0.5,0.3,1,0.1,1.4-0.1c1.9-1,4-0.9,6-0.5c3,0.6,4.9,2.8,5.1,6.5c0.3,4.1-0.8,7.9-3.7,11C531,121,528.7,121.9,526,121.7L526,121.7z
	 M530.5,110c0-0.2,0-0.5,0-0.8c0-1.5-0.5-2.6-1.9-3.2c-1.4-0.7-2.6,0-3.6,1c-1.8,1.8-2.4,4.1-2.4,6.6c0,2,1,3.3,2.4,3.6
	c1.7,0.4,2.8-0.6,3.8-1.9C530.1,113.8,530.6,111.9,530.5,110L530.5,110z"/>
<path d="M452.3,121.6c-0.4,0-0.5,0-0.5,0c-2.5-0.1-2.9-0.5-2.4-3c0.5-2.9,1-5.7,1.6-8.6c0.1-0.3,0.1-0.7,0.1-1
	c0.1-1.2,0.2-2.4-1.3-2.9c-1.3-0.4-3,0-3.9,1.1c-0.6,0.7-0.9,1.6-1.2,2.4c-1.2,3.3-1.7,6.8-2.4,10.3c-0.2,1-0.8,1.5-1.8,1.6
	c-1,0.1-2.1,0.1-3.1,0.1c-1,0-1.3-0.4-1.1-1.4c1-4.6,2.1-9.1,3.1-13.7c0.3-1.2,0.5-2.4,0.4-3.7c0-0.7,0.3-1.1,1-1.2
	c1.5-0.2,3.1-0.4,4.5,0.5c0.6,0.4,1.1,0.2,1.7,0c1.2-0.5,2.4-0.7,3.8-0.8c4.4-0.3,7.2,3.3,6.6,7.3c-0.6,4-1.6,7.9-2.5,11.8
	C454.3,121.8,453,121.5,452.3,121.6L452.3,121.6z"/>
<path d="M493.5,114.9c0-2.6,0.9-5.1,1.3-7.7c0.2-1.3,0.5-2.5,0.7-3.8c0.2-1.4,0.9-2,2.2-2c0.8,0,1.5-0.1,2.2,0.1
	c1.1,0.2,1.7,0.8,1.4,2c-0.4,2-0.8,4-1.2,6c-0.2,1.3-0.5,2.5-0.7,3.8c-0.4,2,0.1,3.2,1.4,3.7c1.1,0.5,3.4-0.3,4.2-1.5
	c0.7-1,1.1-2.1,1.4-3.3c0.8-2.7,1.1-5.5,1.7-8.3c0.2-0.9,0.1-2,1.2-2.3c1.5-0.4,3-0.5,4.4,0.1c0.7,0.3,0.5,1.1,0.4,1.7
	c-0.7,3.4-1.5,6.8-2.2,10.2c-0.4,1.7-0.8,3.4-1.1,5.1c-0.5,3-3.5,3.1-5.5,2.2c-0.6-0.3-1.1-0.4-1.7-0.1c-1.6,0.6-3.2,1.1-4.9,0.9
	c-3.3-0.4-5.1-2.5-5.3-5.8C493.5,115.6,493.5,115.3,493.5,114.9L493.5,114.9z"/>
<path d="M405.7,101.3c2.4-0.1,4.6,0.3,6.4,2c1.6,1.5,1.8,3.4,1.5,5.4c-0.7,3.8-1.4,7.5-2.1,11.2c-0.2,0.9-0.6,1.4-1.5,1.4
	c-1.3,0.1-2.8,0.8-3.8-0.9c-0.2-0.4-0.6-0.1-0.9,0.1c-2,1.4-4.4,1.2-6.6,1c-0.9-0.1-1.6-0.5-2.3-1.2c-3.1-3.1-1.9-8.7,2.2-10.2
	c2.5-1,5.2-1,7.8-1.3c0.6-0.1,1.5,0.1,1.7-0.7c0.2-0.9-0.5-1.4-1.2-1.9c-1.4-0.8-2.9-0.7-4.4-0.5c-0.9,0.1-1.8,0.4-2.7,0.6
	s-1.4-0.1-1.4-1.2c0-2.3,0.5-3.1,2.8-3.5C402.7,101.5,404.2,101.3,405.7,101.3L405.7,101.3z M405.5,112.6c-1.5,0.1-2.9,0.3-4.2,1.2
	c-0.9,0.6-1.3,1.5-0.9,2.5c0.5,1,1.5,1.3,2.5,1.1c1.6-0.3,2.9-1.2,3.7-2.7c0.3-0.5,0.7-1,0.4-1.6
	C406.8,112.5,406.1,112.7,405.5,112.6L405.5,112.6z"/>
<path d="M43.8,66.7c4.2,0,7.2,3.2,7.6,7.6c0.4,4.5-2.6,6.8-6.6,7.9c-2.6,0.7-5.3,0.5-7.8-0.7c-2.2-1-3.9-4.1-3.7-6.8
	c0.3-4,2.5-6.6,6.4-7.6C41.1,66.9,42.6,66.6,43.8,66.7L43.8,66.7z"/>
<path d="M188,65.8c0-18.8,0-37.5,0-56.3c0-0.8,0-1.5,0.1-2.2c0-0.6,0.2-1.2,1-1.1c0.7,0,0.8,0.6,0.8,1.2c0,1.8,0,3.7,0,5.5
	c0,35.8,0,71.6,0,107.5c0,1,0.1,2.1,0.1,3.1c0,0.5,0,1-0.2,1.5c-0.2,0.4-0.4,0.8-0.9,0.8c-0.5,0-0.8-0.4-0.9-0.9
	c-0.1-0.7-0.1-1.4-0.1-2.1C187.9,103.6,187.9,84.7,188,65.8L188,65.8L188,65.8z"/>
<path d="M366.4,121.7c-1.4,0-2.8,0.1-4.2-0.3c-1.2-0.4-1.6-1-1.4-2.2c0.1-0.4,0.2-0.8,0.4-1.2c0.5-1.4,1-1.7,2.4-1.2
	c1.5,0.5,3.1,0.7,4.7,0.4c0.7-0.2,1.3-0.4,1.6-1.1c0.2-0.6-0.4-1-0.8-1.5c-0.9-1.1-2.1-1.8-3.2-2.6c-2.2-1.6-2.3-3.8-2-6.1
	c0.3-2.1,1.7-3.3,3.6-3.9c3-1,6.1-0.8,9.2-0.2c0.8,0.2,1,0.7,0.9,1.4c-0.1,0.6-0.3,1.3-0.4,1.9c-0.1,0.8-0.7,1.1-1.5,1
	c-0.7-0.1-1.4-0.2-2.1-0.3c-0.8-0.1-1.6-0.2-2.4-0.1c-0.8,0.1-1.5,0.4-1.8,1.2c-0.2,0.8,0.5,1.1,1,1.6c1.2,1,2.3,2.1,3.5,3
	c2.6,2,1.9,7-0.8,8.8C371.1,121.6,368.8,121.7,366.4,121.7L366.4,121.7z"/>
<path d="M391,101.4c0.8,0,1.7-0.1,2.5,0c1.6,0.2,2.2,1,1.9,2.6c-0.5,2.4-0.8,2.6-3.3,2.1c-2.4-0.5-4.2,0.4-5.7,2.2
	c-1.5,1.9-2.1,4.1-1.3,6.5c0.6,1.8,2,2.6,3.9,2.4c0.8-0.1,1.6-0.2,2.4-0.5c0.9-0.2,1.2,0,1.2,0.9c0.1,3-0.7,3.9-3.7,3.9
	c-1,0-1.9,0-2.9,0c-3.5-0.1-6.2-2.2-6.8-5.6c-0.6-3.5-0.5-7.1,1.7-10.2C383.4,102.4,386.9,101.1,391,101.4L391,101.4z"/>
<path d="M417.2,121.6c-1.9,0-2-0.1-1.6-2c1.4-8.2,3.7-16.2,5.1-24.3c0.3-1.6,1.2-2.4,2.8-2.4c0.2,0,0.5,0,0.8,0
	c2.4,0,2.7,0.3,2.2,2.7c-0.7,3.5-1.5,7.1-2.2,10.6c-0.8,4-1.6,8-2.6,11.9C420.9,120.9,420.3,121.5,417.2,121.6z"/>
<path d="M428,121.6c-2.5,0-2.5,0-2-2.4c1.1-5.1,2.3-10.1,3.2-15.2c0.4-2.2,3.4-3.5,5.3-2.2c0.9,0.6,0.8,1.5,0.7,2.4
	c-0.3,1.9-0.8,3.7-1.2,5.6c-0.7,3.2-1.5,6.5-2.2,9.7c-0.4,1.9-0.7,2.1-2.7,2.2C428.8,121.6,428.4,121.6,428,121.6L428,121.6z"/>
<path d="M433,98.8c-2.2,0.1-2.3-0.1-2.1-2.3c0.2-2.4,0.9-3,3.3-3.1c0.1,0,0.2,0,0.2,0c1,0.2,2.4-0.7,2.7,1.1
	c0.3,2.2-0.6,3.8-2.4,4.2C434.2,98.7,433.6,98.7,433,98.8L433,98.8z"/>
</svg>
