<?xml version="1.0" encoding="UTF-8"?>
<svg id="Capa_1" data-name="Capa 1" xmlns="http://www.w3.org/2000/svg" viewBox="0 0 930.84 234.79">
  <path d="m480.46,234.2c-12.3,0-24.61,0-36.91,0-3.77,0-7.86-.44-10.93-2.01-6.33-3.23-11.84-7.88-14.11-15.21-.98-3.18-1.62-6.39-1.61-9.73.03-11.49.1-22.98-.01-34.47-.14-13.43,10.23-25.82,24.24-27.45,2.38-.28,4.73-.42,7.1-.43,22.83-.03,45.65-.15,68.48.06,7.55.07,14.67,2.13,20.2,7.79,4.85,4.97,7.22,11.12,7.34,17.92.23,12.65.28,25.3,0,37.94-.28,13.28-7.18,21.16-19.41,24.47-3.2.87-6.51,1.17-9.86,1.14-11.5-.09-23-.03-34.51-.03Zm.13-65.79h0c-11.68.01-23.36,0-35.04.02-3.63,0-5.05,1.27-5.07,4.82-.06,10.24-.11,20.49.02,30.73.06,5.29,1.68,6.69,6.9,6.69,22.11,0,44.23,0,66.34,0,.62,0,1.27.11,1.87-.02,2.95-.64,4.74-.86,4.69-4.99-.13-10.78-.04-21.56-.09-32.33-.02-3.84-1.11-4.91-4.84-4.91-11.59-.01-23.18,0-34.77,0Z"/>
  <path d="m190.48,21.9c9.9,0,19.8.12,29.7-.05,5.06-.08,10.05.54,14.61,2.38,2.76,1.11,5.26,3.4,7.39,5.8,3.34,3.76,4.81,8.45,6.01,13.08.59,2.27.63,4.93.63,7.43,0,11.41.18,22.82-.07,34.22-.16,7.53-1.84,14.75-7.48,20.31-4.19,4.13-9.38,6.34-15.23,6.66-22.81,1.22-45.63.26-68.45.49-3.14.03-6.33-.55-9.33-1.21-2.53-.55-4.92-2.54-6.95-4.36-2.83-2.54-5.26-5.37-7.25-8.84-2.27-3.97-2.32-7.99-2.4-12.06-.21-12.03-.05-24.06-.09-36.09-.01-3.43.82-6.67,1.51-10,1.04-5.05,4.75-8.21,7.66-11.81,1.03-1.27,3.28-2.5,5.24-3.48,4.81-2.38,9.79-2.35,14.79-2.42,9.9-.14,19.8-.04,29.7-.04Zm-.54,23.53c-10.61,0-21.22,0-31.84,0-3.55,0-4.55.98-4.55,4.48,0,10.87,0,21.74,0,32.61,0,4.27,1.41,5.68,5.66,5.69,10.52,0,21.05,0,31.57,0s20.51,0,30.77,0c2.11,0,4.13-.32,4.75-2.74.35-1.36.5-2.81.47-4.22-.21-10.5.55-21.01-.41-31.49-.31-3.39-1.26-4.32-4.58-4.32-10.61,0-21.22,0-31.84,0Z"/>
  <path d="m274.46,234.69c-3.83-.58-7.58-1.25-11.31-2.51-5.4-1.83-8.87-5.61-11.61-10.11-2.69-4.42-3.89-9.37-3.82-14.67.14-11.76.1-23.53.03-35.29-.09-13.33,10.06-25.23,23.62-26.78,2.65-.3,5.27-.42,7.9-.43,29.79-.03,59.59.02,89.38-.08,2.79,0,3.46.82,3.37,3.48-.2,5.7-.18,11.41,0,17.11.07,2.41-.71,2.98-3.02,2.97-30.15-.07-60.3-.05-90.45-.05-8.01,0-7.86.04-7.77,7.75.1,9.62.02,19.25.02,28.87,0,4.47,1.28,5.71,5.88,5.71,30.86,0,61.73.03,92.59-.05,2.2,0,2.82.47,2.75,2.72-.18,5.97-.23,11.95.02,17.91.11,2.73-.81,3.1-3.26,3.1-30.42-.09-60.84-.06-91.25-.05-.62,0-1.25.04-1.87.06-.48-.19-.92-.25-1.18.34Z"/>
  <path d="m.53,21.94c32.45,0,64.91-.03,97.36,0,5.22,0,10.42,1.54,14.24,4.64,4.87,3.94,8.7,9.22,10.36,15.6,2.07,7.99.99,15.57-2.6,22.97-2.34,4.84-6.17,7.96-10.47,10.89-3.74,2.55-7.88,3.03-12.09,3.04-24.25.09-48.5.07-72.75-.01-2.19,0-2.8.45-2.76,2.71.15,9.26,0,18.53.11,27.79.02,2.13-.6,2.79-2.73,2.73-5.26-.14-10.52-.16-15.78,0-2.35.08-3.11-.45-3.1-2.98.11-26.19.07-52.37.06-78.56,0-2.23-.04-4.45-.06-6.68.07-.71.14-1.43.21-2.14Zm60.42,21.35c-12.31,0-24.62.04-36.93-.04-1.74-.01-2.27.43-2.19,2.18.15,3.29.12,6.6,0,9.89-.05,1.52.4,1.94,1.91,1.91,4.82-.1,9.63-.04,14.45-.04,19.62,0,39.25-.03,58.87.05,2,0,2.59-.45,2.46-2.46-.19-3.02-.19-6.07,0-9.08.13-2.01-.46-2.48-2.46-2.46-12.04.11-24.08.05-36.13.05Z"/>
  <path d="m100.55,209.08c0-4.11,0-7.84,0-11.56,0-16.31.05-32.61-.06-48.92-.02-2.29.62-2.76,2.78-2.7,5.88.16,11.77.1,17.66.03,1.47-.02,2.16.12,2.16,1.94-.08,21.65.26,43.31-.18,64.95-.22,11-9.38,21.05-21.77,21.49-7.2.25-12.18-3.58-17.28-7.48-5.99-4.58-11.39-9.83-16.85-15.04-7.64-7.3-15.33-14.55-22.92-21.91-6.85-6.65-13.91-13.09-21.16-19.9v2.76c0,19.69-.03,39.38.05,59.07,0,1.98-.44,2.56-2.47,2.51-6.06-.14-12.13-.09-18.19-.02-1.58.02-2.33-.17-2.33-2.11.08-21.38.02-42.77.09-64.15,0-2.55.55-5.11.37-7.68-.11-1.67,1.52-2.25,2.27-3.37,4.88-7.25,11.87-11.06,20.58-10.95,5.95.08,11.24,2.62,15.68,6.61,7.72,6.94,15.33,14,22.88,21.14,8.9,8.4,18.2,16.38,27.19,24.69,3.71,3.43,7.24,7.06,11.49,10.59Z"/>
  <path d="m579.63,169.8v4.97c0,18.98-.04,37.97.05,56.95.01,2.39-.69,3.04-3.02,2.98-5.71-.15-11.42-.12-17.13-.01-1.77.03-2.45-.29-2.44-2.28.08-22.64-.14-45.28.17-67.91.09-6.43,3.94-11.43,9.46-14.75,9.75-5.86,19.65-4.64,28.14,2.56,6.64,5.64,12.84,11.76,19.27,17.62,5.86,5.34,11.75,10.66,17.57,16.06,6.56,6.08,13.05,12.24,19.59,18.35,1.47,1.37,3.03,2.66,4.59,4.03.67-.72.28-1.64.28-2.45.03-19.16.05-38.32-.02-57.49,0-1.89.29-2.59,2.41-2.53,6.06.17,12.13.12,18.2.02,1.87-.03,2.47.57,2.46,2.45-.05,20.68.03,41.35-.07,62.03-.04,7.89-3.41,14.59-9.23,19.66-2.72,2.37-6.46,3.76-10.34,4.16-2.6.27-5.15.4-7.77.05-.98-.13-1.37-.8-2.06-1.1-6.22-2.67-11.12-7.21-16.04-11.6-9.28-8.27-18.01-17.13-26.99-25.73-8.92-8.53-17.93-16.97-27.1-26.05Z"/>
  <path d="m485.82,112.25c-13.83,0-27.65-.07-41.48.04-4.7.04-9.08-1.48-13.62-2.23-1.15-.19-1.71-1.43-2.59-2.14-3.62-2.91-6.45-6.39-8.73-10.6-2.53-4.65-2.12-9.53-2.33-14.24-.48-10.76-.27-21.56-.12-32.34.13-9.24,3.4-17.11,10.3-23.59,2.21-2.08,4.93-3.32,7.3-4.35,2.06-.89,5.27-.91,8-.91,28.9,0,57.8.02,86.7-.03,1.67,0,2.27.31,2.23,2.14-.13,6.24-.15,12.48,0,18.71.05,2.16-.41,2.78-2.7,2.78-28.45-.09-56.91-.06-85.36-.06-4.26,0-5.13.85-5.13,5.01,0,10.52-.06,21.03.02,31.55.04,4.96,1.54,6.27,6.14,6.26,28.19-.08,56.37,0,84.56-.1,2.53,0,3.05.74,2.98,3.08-.16,6.06-.14,12.12,0,18.18.05,2.19-.55,2.91-2.84,2.9-14.45-.1-28.9-.05-43.35-.05Z"/>
  <path d="m800.53,234.74c-7.87,0-15.78-.01-23.69.02-.83,0-1.08-.29-1.46-1.05-3.28-6.69-6.72-13.31-10-20-.76-1.56-1.67-2.11-3.44-2.09-13.28.09-26.57.07-39.85.01-1.62,0-2.57.42-3.32,1.93-3.13,6.27-6.43,12.46-9.6,18.72-.88,1.74-1.96,2.57-4.07,2.52-6.59-.15-13.19-.04-19.79-.07-.75,0-1.56.26-2.28-.24,6.23-12.17,12.47-24.29,18.65-36.43,5.74-11.26,11.36-22.58,17.15-33.8,3.17-6.15,6.56-12.18,12.57-16.19,7.22-4.83,16.85-3.77,23.13,1.2,6.68,5.3,10.04,12.8,13.71,20.12,10.57,21.08,21.14,42.16,31.69,63.26.29.58.88,1.11.61,2.09Zm-48.27-46.59c-3.45-6.65-6.71-12.93-10.09-19.44-3.47,6.68-6.74,12.97-10.09,19.44h20.18Z"/>
  <path d="m243.94,234.29c-7.92,0-15.68-.06-23.43.05-1.63.02-2.16-.95-2.68-2.03-3.14-6.53-6.34-13.02-9.81-19.39-.68-1.25-1.38-1.74-2.83-1.74-13.38.06-26.76.06-40.14,0-1.47,0-2.18.52-2.81,1.77-3.43,6.72-6.95,13.4-10.46,20.08-.33.63-.53,1.33-1.64,1.31-7.74-.08-15.48-.04-23.63-.04,2.77-5.55,5.33-10.79,7.98-15.98,7.19-14.15,14.5-28.25,21.6-42.44,3.53-7.05,6.98-14.13,11.34-20.72,4.47-6.77,10.57-10.65,18.94-10.23,6.34.31,11.38,3.18,15.36,8.01,6.49,7.86,10.17,17.31,14.71,26.26,9.01,17.73,17.83,35.57,26.72,53.36.26.53.48,1.07.78,1.76Zm-58.54-65.76c-3.37,6.5-6.71,12.93-10.13,19.53h20.21c-3.43-6.65-6.74-13.07-10.07-19.53Z"/>
  <path d="m675.94,112.25c-2.85,0-5.71,0-8.56,0-2.62,0-5.2-1.95-5.75-4.46-1.06-4.81-3.52-9.02-5.91-13.22-.8-1.41-.85-2.96-1.61-4.35-.6-1.08-1.1-1.54-2.36-1.54-12.58.05-25.15.05-37.73,0-1.38,0-2.05.48-2.57,1.68-1.55,3.55-2.99,7.2-4.75,10.57-1.33,2.55-1.9,5.86-4.67,7.6-.39.24-.48.52-.42.84.61,3.22-1.54,2.9-3.58,2.89-5.71-.04-11.42.01-17.12-.05-.76,0-2.07.65-2.22-.6-.12-1.02-.32-2.06.61-3.31,1.22-1.65,3.52-2.97,2.77-6-.22-.91,1.8-2.93,2.82-4.43.14-.2.74-.24.63-.64-.8-2.98,1.68-4.41,2.96-6.41.13-.21.32-.51.26-.7-.9-2.93,1.96-4.13,2.85-6.23.09-.22.39-.44.35-.61-.71-2.94,1.65-4.42,3-6.37.1-.14.23-.33.21-.47-.45-2.9,1.4-4.71,3.08-6.62.1-.12.18-.34.14-.49-.75-2.95,1.66-4.4,3-6.37.18-.26.24-.67.22-1-.26-3.45,3.39-5.51,3.27-9.02-.01-.35,1.58-1.77,1.96-2.81,2.41-6.77,6.49-12.71,9.44-19.2,2.05-4.52,5.92-6.67,9.75-8.9,3.33-1.94,7.35-1.82,10.81-1.03,4.11.93,7.72,3.55,10.54,6.85,4.22,4.93,6.75,10.84,9.38,16.69,1.03,2.29,2.1,4.57,3.14,6.85.04.08.02.24.06.25,3.04.71,1.57,3.53,2.45,5.25,1.01,1.99,1.87,4.05,2.82,6.08,3.2,6.82,6.12,13.77,9.44,20.54,1.39,2.84,2.63,5.8,3.92,8.71,1.92,4.35,3.92,8.67,5.87,13.01.07.16.07.48.13.49,3.25.52,1.42,3.41,2.35,5,.72,1.23.1,1.53-1.07,1.52-3.3-.03-6.6,0-9.9,0Zm-42.93-67.43c-3.19,6.74-6.25,13.22-9.36,19.8h18.54c-3.04-6.56-6.02-12.99-9.18-19.8Z"/>
  <path d="m880.2,234.2c-15.87,0-31.75-.07-47.62.02-11.31.07-21.89-10.5-23.36-20.48-.39-2.64-.48-5.24-.48-7.88,0-19.51.03-39.03-.05-58.54,0-1.97.41-2.53,2.45-2.48,5.97.16,11.95.14,17.93.01,2.13-.05,2.75.6,2.74,2.73-.08,19.07-.04,38.14-.04,57.21,0,3.86.91,4.82,4.78,4.82,30.41.02,60.83.04,91.24-.03,2.37,0,3.15.49,3.07,3-.2,6.32-.17,12.65-.01,18.98.06,2.19-.46,2.81-2.73,2.8-15.96-.11-31.93-.06-47.9-.06v-.09Z"/>
  <path d="m326.67,112.25c-12.84,0-25.68-.13-38.52.06-5.4.08-10.71-.64-15.64-2.42-2.16-.78-4.77-2.25-6.36-4.83-1.47-2.4-3.8-4.33-4.97-6.98-1.16-2.63-2.36-5.19-2.34-8.32.02-2.22-.25-4.51-.25-6.78,0-19.51.04-39.02-.05-58.53,0-2.13.57-2.66,2.64-2.61,5.52.15,11.06.13,16.58,0,1.81-.04,2.16.54,2.15,2.22-.06,18.89-.04,37.77-.03,56.66,0,1.03.19,2.06.36,3.08.44,2.78,2.08,3.35,4.5,3.35,25.5-.03,51-.02,76.51-.02,2.76,0,5.53.1,8.29-.03,1.9-.09,2.46.62,2.44,2.47-.09,6.68-.12,13.36.02,20.04.05,2.21-.75,2.68-2.79,2.67-14.18-.08-28.35-.04-42.53-.04Z"/>
  <path d="m382.65,189.55c0-14.07.04-28.15-.05-42.22-.01-1.95.38-2.54,2.44-2.49,6.15.16,12.3.12,18.45.02,1.69-.03,2.22.35,2.22,2.15-.06,28.41-.06,56.83,0,85.24,0,1.6-.35,2.19-2.04,2.17-6.24-.09-12.48-.11-18.72.01-1.92.04-2.34-.56-2.33-2.39.08-14.16.04-28.33.04-42.49Z"/>
  <path d="m382.65,66.82c0-14.17.04-28.33-.05-42.5-.01-1.99.44-2.52,2.46-2.47,6.06.15,12.13.1,18.19.02,1.5-.02,1.92.39,1.92,1.9-.05,28.87-.04,57.74,0,86.61,0,1.51-.4,1.94-1.92,1.92-6.15-.08-12.31-.11-18.46,0-1.76.03-2.18-.46-2.18-2.19.07-14.43.04-28.87.04-43.3Z"/>
  <path d="m566.33,68.09c0,14.07-.06,28.15.06,42.22.02,2.19-.67,2.6-2.66,2.55-5.88-.13-11.77-.13-17.65,0-1.95.04-2.32-.59-2.31-2.4.06-28.41.06-56.83,0-85.24,0-1.97.65-2.32,2.43-2.29,5.97.1,11.95.13,17.92-.01,1.98-.05,2.28.65,2.27,2.41-.07,14.25-.04,28.5-.04,42.75Z"/>
  <path d="m705.83,103.77c-4.54-.12-5.27-.68-6.86-4.63-.57-1.41-2.45-1.44-3.28-2.7-.56-.85-1.94-1.38-.86-2.72.48-.6.11-.6-.39-.73-.57-.15-1.19-.39-1.61-.79-1.62-1.49-1.76-2.67-.12-4.67,3.98-4.86,7.5-10.11,11.19-15.2,6.98-9.63,13.94-19.27,20.92-28.9.26-.35.83-.66.82-.99,0-3.64,2.81-2.51,4.4-2.22,1.86.34,3.69,1.57,2.41,4.17-.38.77.66.62.69.62,2.67-.34,3.29,2.06,4.17,3.56.58.99,1.19,1.58,2.07,2.09.58.34,4.99.57,5.65.31,3-1.18,7.66,1.41,8.16,4.32.16.95-.17,1.48-.58,2.02-5.79,7.61-11.61,15.19-17.42,22.79-7.6,9.94-15.21,19.87-22.78,29.83-1.53,2.01-3.29,2.45-5.28,1.11-3.28-2.2-3.6-3.77-1.31-7.29Z"/>
  <path d="m744.8,103.47c-3.57,1.06-5.1-.64-6.29-3.22-.72-1.55-2.96-1.8-3.59-3.65-.31-.9-1.41-1.51-.72-2.74.44-.77-.35-.65-.8-.87-2.52-1.19-2.97-2.73-1.3-4.94,6.1-8.12,12.17-16.27,18.45-24.26,3.11-3.96,5.51-8.44,8.88-12.16,2.73-3.01,4.58-6.59,7.07-9.69.86-1.07,3.03-2.29,4.79-1.24,1.57.93,3.02,2.38,1.94,4.58-.38.76.13.53.49.7,1.88.91,4.42,1.03,4.1,4.31-.12,1.2,5.33,2.79,6.66,1.91,2.6-1.73,4.67-.65,6.61,1.02,2.8,2.4,2.69,3.7.34,6.6-6.11,7.56-12.08,15.23-18.16,22.82-5.34,6.67-10.75,13.29-16.12,19.93-2.19,2.71-4.48,5.34-6.51,8.17-1.47,2.05-3.43,1.52-4.85.75-2.86-1.56-3.18-4.29-.99-8.03Z"/>
  <path d="m784.12,104.06c-2.67-1.29-6.24-1.2-6.21-5.45,0-.44-1.44-.81-2.11-1.34-2.31-1.83-2.96-4.83-4.84-6.98-.68-.77-.02-1.42.5-2.07,4.05-5.06,8.15-10.09,12.08-15.25,4.67-6.14,9.84-11.87,14.21-18.27,3-4.4,6.84-8.22,10.16-12.42,1.51-1.91,3.1-.73,4.43-.24,1.24.46,2.48,1.7,1.46,3.39-.59.98.14.98.66,1.22,1.94.9,3.17,2.17,4.15,4.28.72,1.54,2.94,2.62,4.28,4.15,3.3-4.32,7.06-2.9,10.01.91.87,1.12.67,2.24-.24,3.33-3.21,3.86-6.37,7.75-9.57,11.62-5.89,7.12-11.77,14.25-17.69,21.34-5.26,6.3-10.59,12.53-15.83,18.85-.64.77-1.27.75-2.05.67-4.02-.42-5.79-4.31-3.39-7.73Z"/>
  <path d="m566.39,14.46c-.24.48-.69.47-1.14.47-6.75,0-13.49,0-20.24-.02-.22,0-.43-.15-.96-.35,4.09-3.36,8.4-5.95,12.6-8.66,3.14-2.03,5.9-4.7,9.56-5.9.06.36.12.73.18,1.09v12.75c0,.21,0,.41,0,.62Z"/>
</svg>