<svg id="Capa_1" data-name="Capa 1" xmlns="http://www.w3.org/2000/svg" viewBox="0 0 658.55 197.27"><path d="M331,546.11c11.63,4.72,20.22,12.87,23.69,25.14,4.75,16.84,3.49,33.23-7.08,47.85-6.83,9.44-16.8,14.45-27.92,16.78a115.19,115.19,0,0,1-22.2,2.58c-27.36.29-54.73.12-82.09.11-3.88,0-4.65-.77-4.65-4.63V471.44c0-4.4.74-5.12,5.22-5.12,27.77,0,55.53-.05,83.3,0,9.7,0,19.06,1.84,27.6,6.66,14.53,8.19,21.95,20.72,22.35,37.41.24,10-2.11,19.21-8.65,26.92C337.77,540.59,334.23,543.16,331,546.11Zm-60.25,15.54v-.45H244.15c-4.07,0-5.14,1.08-5.14,5.13v42.25c0,4.27,1,5.26,5.25,5.26,16.9,0,33.8.1,50.69-.06a81.7,81.7,0,0,0,14.13-1.38c8.72-1.62,15.71-5.7,18.41-14.88a38.4,38.4,0,0,0,.83-16c-1.11-8.46-5.64-14.51-13.8-17.24a43.64,43.64,0,0,0-12.21-2.49C291.78,561.42,281.24,561.65,270.71,561.65Zm.05-25.3h0c4.5,0,9,.08,13.51,0,5.78-.12,11.61.06,17.31-.7,8.14-1.08,14.8-4.78,17.89-13.06a26,26,0,0,0,1.21-12.36c-1-8.12-5.23-14-13.08-16.59a42.36,42.36,0,0,0-12.46-2.33c-17.21-.27-34.42-.15-51.63-.15-3.3,0-4.44,1.19-4.45,4.55v36.19c0,3.4,1.05,4.47,4.43,4.48Z" transform="translate(-210.71 -441.41)"/><path d="M505,546c9.87,4,17.83,10.29,21.83,20.11,7.76,19,6.49,37.53-6.12,54.26-6.61,8.77-16.31,13.31-26.83,15.46a120.24,120.24,0,0,1-22.68,2.58c-27.12.3-54.24.12-81.36.12-4.32,0-4.91-.58-4.91-4.89q0-81.24,0-162.49c0-4.07.83-4.86,5-4.86,27.93,0,55.86-.13,83.78.05,14.28.09,27.36,3.94,37.71,14.42,9.56,9.68,12.95,21.6,11.87,34.91-.71,8.72-3.64,16.67-9.75,23.1C511,541.44,508,543.55,505,546Zm-60,15.6v-.44H418.46c-4.13,0-5.2,1-5.2,5.07q0,21.24,0,42.48c0,4.09,1,5.1,5.17,5.1,16.89,0,33.79.09,50.69-.06A85.16,85.16,0,0,0,483,612.46c11.17-2,17.79-7.81,19.22-17.47a54.79,54.79,0,0,0,.08-14.36c-.95-7.91-5.47-13.55-13.06-16.13a46,46,0,0,0-12.88-2.73C465.92,561.38,455.46,561.64,445,561.64Zm-.37-25.3h11.58c3.86,0,7.72.08,11.58,0a65.32,65.32,0,0,0,8.15-.63c11.15-1.71,17.66-7.88,19-18.64,1.32-11-2.76-20.66-15-24.17a40.69,40.69,0,0,0-10.67-1.63c-17.12-.19-34.25-.12-51.38-.12-3.38,0-4.5,1.11-4.5,4.43q0,18.09,0,36.19c0,3.71.85,4.59,4.49,4.59Z" transform="translate(-210.71 -441.41)"/><path d="M853.09,613.68c-4,0-8.05-.09-12.07,0a5,5,0,0,1-5.11-3.11Q808.34,558,780.65,505.39c-.82-1.55-1.64-3-3.63-3.09s-3,1.53-3.83,3.15q-27.51,52.4-55,104.8c-1.28,2.45-2.81,3.53-5.63,3.48-8.13-.15-16.26,0-24.39-.06-3.48,0-4.42-1.53-2.82-4.52q44-82.29,88-164.56a6.69,6.69,0,0,1,3.28-3c1.91-.66,3,1,3.78,2.59q12.58,23.63,25.2,47.22l62.71,117.38c1.86,3.5,1,4.91-2.9,4.93C861.3,613.69,857.2,613.68,853.09,613.68Z" transform="translate(-210.71 -441.41)"/><path d="M549.66,466.32c3.94,0,7.89.09,11.83,0a4.83,4.83,0,0,1,5,3q19.83,37.92,39.77,75.76c5.19,9.89,10.42,19.76,15.6,29.65.82,1.55,1.65,3,3.66,3s2.88-1.45,3.69-3q22.74-43.32,45.51-86.63c3.32-6.33,6.69-12.64,9.94-19a4.56,4.56,0,0,1,4.58-2.77c8.21.06,16.42,0,24.62,0,4,0,4.91,1.49,3,5.06q-19.09,35.7-38.18,71.42Q653.94,589,629.24,635.28a8.46,8.46,0,0,1-2.13,2.84c-1.71,1.25-3.65.33-5-2.14L600,594.53l-65.19-122c-.38-.7-.78-1.41-1.11-2.14-1.1-2.43-.21-4,2.47-4C540.65,466.26,545.15,466.32,549.66,466.32Z" transform="translate(-210.71 -441.41)"/></svg>