<?xml version="1.0" encoding="UTF-8"?>
<svg id="Capa_19" data-name="Capa 19" xmlns="http://www.w3.org/2000/svg" viewBox="0 0 776.05 306.91">
  <path d="m335.63.03c3.09.47,6.21.81,9.28,1.42,14.35,2.83,26.98,9.17,37.97,18.8.32.28.9.54.74,1.01-.17.52-.78.24-1.2.29-.24.03-.5,0-.75,0-69.39,0-138.77,0-208.16,0q-2.86,0-2.87-2.86c0-6.22-.01-12.45-.02-18.67,55,0,110,0,165,0Z"/>
  <path d="m.85,244.69c.7-.02,1.39-.05,2.09-.05,48.06,0,96.12,0,144.17,0,.45,0,.9.02,1.34,0,.86-.03,1.29.34,1.28,1.23,0,6.37,0,12.74,0,19.11,0,.89-.43,1.26-1.28,1.24-.35-.01-.7,0-1.05,0-48.36,0-96.71,0-145.07,0-.5,0-1-.02-1.49-.03,0-7.17,0-14.34,0-21.51Z"/>
  <path d="m.85,40.66c9.16,0,18.33-.02,27.49-.02,39.64,0,79.28,0,118.92,0q2.48,0,2.48,2.44c0,5.72-.04,11.45.03,17.17.02,1.44-.35,2.01-1.91,2-48.61-.04-97.21-.03-145.82-.03-.4,0-.79-.04-1.19-.06,0-7.17,0-14.34,0-21.51Z"/>
  <path d="m149.7.03c.01,6.67.01,13.34.05,20,0,1.06-.36,1.6-1.47,1.52-.25-.02-.5,0-.75,0-48.5,0-97,0-145.5,0-.4,0-.8-.01-1.19-.02,0-6.72.03-13.43-.03-20.15C.81.31,1.01,0,2.17,0c30.26.04,60.53.03,90.79.03h56.74Z"/>
  <path d="m.85,285.62c.7-.03,1.39-.08,2.09-.08,48.07,0,96.14,0,144.21,0,.35,0,.7.03,1.05,0,1.17-.11,1.58.42,1.57,1.57-.04,3.43-.01,6.87-.01,10.3,0,2.64-.04,5.28.01,7.92.02,1.15-.4,1.68-1.57,1.57-.35-.03-.7,0-1.05,0-48.12,0-96.24,0-144.36,0-.65,0-1.29-.04-1.94-.06,0-7.07,0-14.14,0-21.21Z"/>
  <path d="m547.85.03c2.24,6.54,4.48,13.09,6.71,19.63.61,1.78.54,1.89-1.3,1.89-41.83,0-83.67,0-125.5.02-1.37,0-1.96-.35-1.94-1.84.08-6.57.05-13.14.07-19.71,40.65,0,81.3,0,121.95,0Z"/>
  <path d="m766.05.03c.02,6.72.03,13.43.07,20.15,0,.93-.34,1.41-1.3,1.37-.5-.02-1,0-1.49,0-41.27,0-82.55,0-123.82,0-.15,0-.3,0-.45,0-2.22,0-2.23,0-1.49-2.16,2-5.83,4.02-11.66,6.02-17.5.21-.61.35-1.24.52-1.86,40.65,0,81.3,0,121.95,0Z"/>
  <path d="m659.28,125.78c-1.83,5.31-3.66,10.63-5.48,15.94-.78,2.26-.77,2.27-3.13,2.27-36.46,0-72.92,0-109.38,0-2.36,0-2.35,0-3.13-2.27-1.82-5.32-3.65-10.63-5.72-15.93-.03.4-.08.81-.08,1.21,0,5.03-.04,10.06.02,15.08.02,1.42-.47,1.93-1.89,1.93-20.12-.03-40.25-.03-60.37,0-1.33,0-1.85-.45-1.83-1.83.06-6.07.06-12.15,0-18.22-.02-1.45.59-1.76,1.87-1.75,7.12.04,14.25.02,21.37.02,32.03,0,64.06,0,96.08,0q2.45,0,3.24,2.29c1.5,4.33,3,8.65,4.51,12.98.14.41.21.86.75,1.28.39-1.01.76-1.91,1.08-2.83,1.39-4,2.82-7.98,4.11-12.01.43-1.34,1.13-1.74,2.48-1.74,13.15.04,26.3.02,39.45.02,25.8,0,51.6,0,77.4,0,.5,0,1,.03,1.49,0,1.17-.08,1.56.46,1.55,1.6-.04,4.38-.01,8.76-.01,13.14,0,1.79-.05,3.59.01,5.38.05,1.25-.5,1.73-1.68,1.66-.35-.02-.7,0-1.05,0-19.53,0-39.05,0-58.58,0q-2.76,0-2.76-2.81c0-5.12,0-10.24,0-15.37-.11-.01-.22-.02-.32-.03Z"/>
  <path d="m289.54,244.64c38.6,0,77.21,0,115.81,0,.45,0,.9.04,1.34,0,1.31-.13,1.52.45,1.22,1.6-1.25,4.83-2.91,9.52-5.05,14.03-.73,1.53-1.62,2.98-2.32,4.51-.54,1.18-1.36,1.48-2.6,1.48-16.34-.03-32.68-.02-49.01-.02-58.48,0-116.96,0-175.44,0q-2.84,0-2.84-2.88c0-5.53,0-11.05,0-16.58,0-2.13.02-2.14,2.19-2.14,38.9,0,77.81,0,116.71,0Z"/>
  <path d="m289.43,62.23c-38.75,0-77.5,0-116.25,0q-2.53,0-2.54-2.53c0-5.58,0-11.15,0-16.73,0-2.29.04-2.33,2.35-2.33,50.26,0,100.51,0,150.77,0,24.6,0,49.21.02,73.81-.04,1.63,0,2.48.54,3.2,1.97,2.88,5.71,5.27,11.6,6.98,17.76.52,1.88.51,1.89-1.47,1.89-37.9,0-75.81,0-113.71,0-1.05,0-2.09,0-3.14,0Z"/>
  <path d="m383.83,285.8c-2.41,2.41-4.97,4.37-7.6,6.24-11.63,8.21-24.5,13.15-38.69,14.59-1.94.2-3.87.26-5.81.26-52.6,0-105.19-.02-157.79-.03-3.43,0-3.3.43-3.3-3.32,0-5.28,0-10.55,0-15.83,0-2.14.02-2.16,2.17-2.16,40.74,0,81.48,0,122.23,0,28.89,0,57.78,0,86.66,0,.63,0,1.29-.13,2.12.25Z"/>
  <path d="m306.48,122.22c30.24,0,60.48,0,90.71.01.72,0,1.69-.34,2.11.31.46.72-.42,1.33-.78,1.93-4.27,7.03-9.49,13.26-15.73,18.64-.69.59-1.41.89-2.3.88-.45,0-.9,0-1.34,0-54.35,0-108.7,0-163.04,0q-2.79,0-2.79-2.73c0-5.58,0-11.15,0-16.73q0-2.31,2.31-2.32c30.29,0,60.57,0,90.86,0Z"/>
  <path d="m306.51,184.68c-30.24,0-60.47,0-90.71,0q-2.49,0-2.49-2.42c0-5.63,0-11.25,0-16.88q0-2.29,2.31-2.29c46.23,0,92.45,0,138.68,0,8.67,0,17.33,0,26-.01,1.05,0,1.92.22,2.72.96,6.03,5.57,11.38,11.7,15.66,18.73.3.49.96.99.64,1.57-.36.64-1.18.33-1.79.33-30.34.01-60.67.01-91.01.01Z"/>
  <path d="m497.54,62.23c-23.11,0-46.21,0-69.32,0q-2.36,0-2.37-2.39c0-5.62,0-11.25,0-16.87q0-2.32,2.3-2.32c41.98,0,83.96,0,125.94,0,2.14,0,4.28.03,6.42,0,.93-.01,1.45.34,1.76,1.24,2.13,6.27,4.31,12.52,6.45,18.78.5,1.45.37,1.57-1.42,1.57-16.98,0-33.96,0-50.95,0-6.27,0-12.55,0-18.82,0Z"/>
  <path d="m694.47,62.23c-23.16,0-46.31,0-69.47,0-2.24,0-2.25,0-1.53-2.12,2.01-5.94,4.07-11.86,6.03-17.82.42-1.26,1.07-1.67,2.37-1.67,44.07.03,88.14.02,132.21.02,1.98,0,2.03.04,2.03,1.99,0,5.87,0,11.75,0,17.62,0,1.96-.01,1.98-2.02,1.98-23.21,0-46.41,0-69.62,0Z"/>
  <path d="m666.15,103.11c-18.18,0-36.36,0-54.55,0-.45,0-.9-.02-1.34,0-1.23.06-1.63-.39-1.19-1.61.82-2.24,1.58-4.51,2.36-6.77,1.33-3.86,2.68-7.71,3.95-11.59.38-1.17.94-1.65,2.23-1.64,34.72.03,69.44.03,104.16,0,1.41,0,1.92.41,1.91,1.86-.06,5.92-.02,11.85-.03,17.77,0,1.92-.06,1.97-2.05,1.97-18.48,0-36.96,0-55.44,0Z"/>
  <path d="m525.69,103.11c-18.33,0-36.66,0-54.99,0q-2.39,0-2.39-2.38c0-5.78.03-11.55-.02-17.32-.01-1.4.41-1.91,1.86-1.9,34.72.03,69.44.03,104.16,0,1.25,0,1.86.41,2.26,1.6,1.96,5.85,4,11.68,6,17.52.85,2.48.84,2.49-1.73,2.49-18.38,0-36.76,0-55.14,0Z"/>
  <path d="m712.89,244.64c16.94,0,33.87,0,50.81,0q2.41,0,2.42,2.34c0,5.83-.03,11.65.03,17.47.01,1.38-.47,1.8-1.82,1.8-34.32-.03-68.65-.03-102.97,0-1.41,0-1.79-.52-1.78-1.85.05-5.92.02-11.85.02-17.77,0-1.96.04-1.99,2.02-1.99,17.09,0,34.17,0,51.26,0Z"/>
  <path d="m479.04,266.23c-16.98,0-33.97,0-50.95,0-2.23,0-2.23,0-2.23-2.24,0-5.82.03-11.65-.02-17.47-.01-1.4.4-1.91,1.86-1.91,34.26.03,68.53.03,102.79,0,1.43,0,1.9.45,1.89,1.88-.06,5.92-.02,11.85-.03,17.77,0,1.92-.05,1.96-2.06,1.96-17.08,0-34.17,0-51.25,0Z"/>
  <path d="m479.09,306.89c-17.03,0-34.06,0-51.1,0-2.13,0-2.14,0-2.14-2.17,0-5.77.03-11.55-.03-17.32-.02-1.43.45-1.89,1.89-1.89,34.26.03,68.53.03,102.79,0,1.45,0,1.88.5,1.87,1.9-.06,5.82-.02,11.65-.03,17.47,0,1.97-.03,2-2.01,2-17.08,0-34.16,0-51.25,0Z"/>
  <path d="m712.7,306.89c-16.99,0-33.97,0-50.96,0-2.13,0-2.14,0-2.14-2.17,0-5.77.04-11.55-.03-17.32-.02-1.44.47-1.88,1.9-1.88,34.27.03,68.54.03,102.82,0,1.47,0,1.87.51,1.85,1.91-.06,5.82-.02,11.65-.03,17.47,0,1.98-.01,1.99-2.01,1.99-17.14,0-34.27,0-51.41,0Z"/>
  <path d="m595.87,163.09c15.98,0,31.96,0,47.95,0,2.29,0,2.32.1,1.58,2.26-2.03,5.88-4.06,11.76-6.01,17.66-.41,1.24-1.03,1.7-2.35,1.7-27.33-.03-54.67-.03-82,0-1.29,0-1.99-.39-2.41-1.64-2.09-6.23-4.22-12.44-6.39-18.64-.51-1.44.33-1.34,1.24-1.34,9.86,0,19.72,0,29.57,0,6.27,0,12.55,0,18.82,0Z"/>
  <path d="m375.67,225.55c-10.91,0-21.81,0-32.72,0-2.13,0-2.22-.09-2.22-2.16,0-5.87,0-11.75,0-17.62,0-1.84.14-1.99,1.93-1.99,21.12,0,42.23,0,63.35-.01,1.05,0,1.75.19,2.06,1.4,1.56,6,2.33,12.11,2.57,18.28.08,1.97-.09,2.09-2.11,2.09-10.96,0-21.91,0-32.87,0Z"/>
  <path d="m375.67,81.52c10.91,0,21.82,0,32.73,0,2.25,0,2.35.04,2.24,2.21-.28,5.97-1,11.89-2.49,17.7-.32,1.22-.84,1.71-2.14,1.7-21.12-.03-42.24-.03-63.36,0-1.4,0-1.96-.43-1.95-1.88.05-5.97.06-11.95,0-17.92-.02-1.48.57-1.84,1.95-1.83,11.01.04,22.02.02,33.02.02Z"/>
  <path d="m595.97,203.77c11.15,0,22.31,0,33.46,0,2.62,0,2.63,0,1.8,2.4-2.08,5.97-4.2,11.92-6.25,17.9-.36,1.06-.91,1.5-2.04,1.5-17.98-.02-35.95-.02-53.93,0-1.03,0-1.63-.33-1.99-1.36-2.17-6.3-4.41-12.59-6.61-18.88-.48-1.36-.31-1.54,1.5-1.54,10.86,0,21.71,0,32.57,0,.5,0,1,0,1.49,0Z"/>
  <path d="m75.24,144c-9.96,0-19.91,0-29.87,0-2.13,0-2.14-.01-2.14-2.18,0-5.87.04-11.74-.03-17.61-.02-1.46.38-2.01,1.92-2.01,20.06.04,40.12.03,60.18.03,1.81,0,1.96.15,1.97,1.96,0,5.87,0,11.74,0,17.61,0,2.11-.09,2.2-2.17,2.2-9.96,0-19.91,0-29.87,0Z"/>
  <path d="m75.29,81.52c9.96,0,19.92,0,29.88,0,2.08,0,2.11.02,2.11,2.06,0,5.87,0,11.74,0,17.62,0,1.83-.08,1.91-1.97,1.91-20.02,0-40.03,0-60.05,0-1.97,0-2.02-.05-2.02-2,0-5.87,0-11.74,0-17.62,0-1.96.02-1.97,2.03-1.97,10.01,0,20.02,0,30.02,0Z"/>
  <path d="m691.61,225.36c-9.96,0-19.92,0-29.87,0-2.13,0-2.13,0-2.13-2.18,0-5.87.03-11.74-.03-17.61-.01-1.38.47-1.81,1.82-1.81,20.16.03,40.33.03,60.49,0,1.38,0,1.8.5,1.79,1.84-.05,5.97-.06,11.94,0,17.91.01,1.43-.46,1.89-1.89,1.88-10.06-.05-20.11-.03-30.17-.02Z"/>
  <path d="m500.33,225.36c-10.01,0-20.02,0-30.02,0-1.96,0-2-.04-2.01-2.01,0-5.92.03-11.84-.03-17.76-.01-1.35.42-1.83,1.79-1.83,20.16.03,40.33.03,60.49,0,1.36,0,1.82.45,1.81,1.82-.06,5.92-.02,11.84-.03,17.76,0,1.98-.04,2.03-1.99,2.03-10.01,0-20.02,0-30.02,0Z"/>
  <path d="m691.55,184.68c-9.96,0-19.92,0-29.88,0-2.04,0-2.07-.03-2.07-2.1,0-5.87.03-11.75-.03-17.62-.01-1.41.43-1.9,1.87-1.9,20.12.04,40.24.04,60.35,0,1.45,0,1.88.49,1.87,1.9-.06,5.92-.07,11.85,0,17.77.02,1.49-.43,1.99-1.95,1.98-10.06-.06-20.12-.03-30.18-.03Z"/>
  <path d="m500.32,163.09c10.01,0,20.02,0,30.03,0,1.96,0,2,.04,2,2.02,0,5.92-.03,11.85.02,17.77.01,1.34-.4,1.83-1.79,1.83-20.17-.03-40.34-.03-60.5,0-1.38,0-1.81-.47-1.8-1.82.05-5.92.02-11.84.02-17.77,0-1.99.04-2.02,1.99-2.02,10.01,0,20.02,0,30.03,0Z"/>
  <path d="m75.13,163.09c10.01,0,20.02,0,30.03,0,2.09,0,2.12.03,2.12,2.05,0,5.87,0,11.74,0,17.62,0,1.84-.09,1.92-1.95,1.92-20.02,0-40.04,0-60.05,0-2,0-2.03-.03-2.03-1.98,0-5.92.04-11.84-.03-17.77-.02-1.45.48-1.87,1.89-1.87,10.01.05,20.02.03,30.03.02Z"/>
  <path d="m75.22,203.77c9.86,0,19.73,0,29.59,0q2.45,0,2.46,2.52c0,5.73-.03,11.45.02,17.18.01,1.39-.39,1.92-1.86,1.92-20.13-.04-40.25-.04-60.38,0-1.47,0-1.86-.53-1.85-1.92.06-5.92.07-11.85,0-17.77-.02-1.54.51-1.96,1.98-1.95,10.01.05,20.03.03,30.04.02Z"/>
  <path d="m245.33,81.52c10.01,0,20.02.03,30.03-.03,1.49,0,2.01.43,1.99,1.95-.07,5.92-.06,11.85,0,17.77.01,1.4-.45,1.93-1.9,1.93-20.12-.03-40.24-.03-60.36,0-1.37,0-1.81-.46-1.8-1.82.06-5.92.02-11.85.03-17.77,0-2,.01-2.02,1.98-2.02,10.01,0,20.02,0,30.03,0Z"/>
  <path d="m245.24,225.36c-9.91,0-19.82,0-29.73,0-2.2,0-2.2,0-2.2-2.25,0-5.82.04-11.65-.03-17.47-.02-1.44.46-1.89,1.89-1.89,20.07.03,40.14.02,60.2.03,1.8,0,1.94.15,1.94,1.98,0,5.92-.03,11.84.03,17.77.01,1.45-.51,1.87-1.92,1.86-10.06-.05-20.12-.03-30.18-.02Z"/>
  <path d="m596.18,244.64c6.62,0,13.24,0,19.85,0,1.68,0,1.74.08,1.18,1.69-2.17,6.14-4.37,12.27-6.52,18.42-.36,1.04-.91,1.5-2.05,1.49-8.46-.03-16.92-.03-25.38,0-1.07,0-1.62-.42-1.96-1.41-2.13-6.16-4.3-12.3-6.44-18.45-.57-1.63-.47-1.75,1.33-1.75,6.67,0,13.33,0,20,0Z"/>
  <path d="m595.97,306.38c-.79-1.07-1-2.26-1.39-3.35-1.87-5.24-3.68-10.5-5.49-15.76-.58-1.67-.53-1.73,1.29-1.73,3.88,0,7.76,0,11.64,0,.8,0,1.43.07,1.05,1.16-2.24,6.38-4.46,12.76-6.69,19.13-.06.16-.21.3-.39.55Z"/>
</svg>