<?xml version="1.0" encoding="UTF-8"?>
<svg id="Capa_12" data-name="Capa 12" xmlns="http://www.w3.org/2000/svg" viewBox="0 0 766.01 261.43">
  <path d="m150.81,88.97c6.86.26,13.71.63,20.48,1.91.44.08.98.35,1.28-.09.31-.47-.23-.82-.48-1.17-3.8-5.41-7.43-10.91-10.22-16.94-1.08-2.34-1.04-4.84-1.56-7.25-.22-1.04.53-1.56,1.51-1.77,1.66-.35,3.3-.25,4.95.11,7.53,1.65,14.58,4.36,20.84,8.96,1.37,1.01,2.82,1.93,4.27,2.83,1.62,1,2.84,2.41,4.1,3.79.86.95,1.93,1.04,2.88.23,1.56-1.35,3.36-2.3,5.19-3.2,4.98-2.44,9.62-5.4,14.18-8.56,5.01-3.48,10.37-6.46,15.87-9.17,3.81-1.88,7.58-3.81,10.97-6.43,1.79-1.38,3.89-1.25,5.97-.61.74.23.82.82.86,1.48.15,2.6-.85,4.88-1.94,7.13-1.93,3.98-4.71,7.43-7.16,11.09-.76,1.14-1.66,2.23-2.2,3.46-1.95,4.42-5.24,7.86-8.27,11.48-2.26,2.71-4.62,5.35-6.86,8.08-1.18,1.45-1.15,1.73.33,2.8,2.89,2.08,5.11,4.73,6.99,7.71.52.82,1.15,1.53,1.94,2.09,4.67,3.26,8.1,7.62,11.06,12.37,2.74,4.4,5.97,8.5,8.29,13.18.99,2.01,2.06,3.98,2.96,6.04,1.74,3.96,4.27,7.52,5.99,11.49,1.66,3.85,3.1,7.79,5.11,11.49.57,1.06.03,2.12-.09,3.17-.05.43-.52.48-.9.5-1,.05-1.98-.03-2.96-.35-4.75-1.54-9.09-3.88-13.27-6.58-9.94-6.42-19.22-13.73-28.54-20.99-8.04-6.26-16.32-12.2-24.74-17.96-1.67-1.14-2.32-.94-3.14.91-1.21,2.75-1.95,5.65-2.75,8.53-.75,2.7-1.89,5.22-3.16,7.71-4.58,9-9.61,17.75-15.01,26.29-2.61,4.14-5.82,7.67-9.79,10.52-.3.22-.61.44-.95.59-1.73.8-2.96.07-3.12-1.83-.31-3.69-.29-7.37-.03-11.06.35-5.02,1.03-9.99,2.31-14.86,1.06-4.05,2.29-8.06,2.83-12.24.18-1.39.65-2.75,1.62-3.86.27-.31.46-.69.52-1.12.49-3.83,1.95-7.37,3.21-10.97.63-1.8,1.25-3.61,1.68-5.47.36-1.54.13-1.92-1.47-1.88-4.96.12-9.9-.32-14.83-.72-3.81-.31-7.59-.95-11.37-1.57-3.32-.55-6.63-1.16-9.95-1.69-3.03-.49-5.98-1.45-8.94-2.27-2.53-.69-5.04-1.45-7.54-2.23-.94-.29-2.03-.52-2.24-1.71-.22-1.3.1-2.4,1.19-3.33,3.3-2.82,7.28-4.13,11.37-5.2,5.33-1.39,10.74-2.23,16.25-2.58,2.16-.14,4.32-.2,6.49-.26Z"/>
  <path d="m532.14,101.59c-.05,7.62-2.4,14.43-7.36,20.26-2.93,3.45-6.75,5.65-10.96,7.15-8.57,3.04-17.31,3.75-26.13,1.26-7.35-2.07-13.23-6.23-15.23-13.87-2.96-11.27-1.31-21.77,7.15-30.5,3.75-3.86,8.43-6.19,13.61-7.48,6.96-1.73,13.95-2.16,20.98-.36,5.63,1.45,10.36,4.28,13.93,8.89,2.29,2.95,3.22,6.42,3.7,10.04.2,1.52.37,3.05.31,4.6Zm-32.44,16.68c4.73.07,7.97-1.92,10.23-5.5,2.97-4.69,3.41-9.87,2.65-15.23-.23-1.63-.82-3.13-1.89-4.4-3.05-3.61-8.73-4.08-12.9-1.07-5.85,4.24-8.05,10.14-7.34,17.09.52,5.04,3.3,9.42,9.25,9.11Z"/>
  <path d="m581.28,130.49c-2.5,0-5,0-7.5,0-1.46,0-1.67-.33-1.39-1.72,1.85-9.07,3.7-18.13,5.51-27.21.29-1.47.25-2.99.07-4.47-.29-2.47-2.46-4.21-5.27-4.46-5.07-.44-8.56,1.99-11.3,5.96-1.8,2.62-2.41,5.6-3.02,8.63-1.03,5.08-2.15,10.14-3.22,15.22-.41,1.95-.82,3.9-1.14,5.86-.23,1.39-.98,1.97-2.35,2.05-3.21.2-6.41.06-9.62.1-1.67.02-3.33.05-5,0-1.69-.06-1.96-.46-1.62-2.1,2.89-13.94,5.78-27.87,8.68-41.81.45-2.16.75-4.33.9-6.53.11-1.62.45-1.95,2.08-1.95,4.5-.01,9-.01,13.5,0,1.74,0,2.09.43,1.78,2.11-.25,1.3-.57,2.59-.86,3.89-.09.41-.27.9.13,1.15.47.3.73-.23.99-.52,3.92-4.29,8.75-6.89,14.54-7.5,5.77-.61,11.27-.05,15.6,4.47,2.83,2.95,4.04,6.61,4.62,10.55.73,4.96-.43,9.75-1.37,14.54-1.36,6.92-2.85,13.82-4.23,20.73-.57,2.83-.59,2.93-3.5,2.96-2.33.03-4.67,0-7,0v.04Z"/>
  <path d="m639.13,110.02c-5.37,0-10.74.02-16.11-.02-1.04,0-1.36.25-1.19,1.36.55,3.56,3.4,6.39,7.32,7.01,4.73.76,9.45.77,14.16-.18,2.05-.41,4-1.13,5.93-1.92,2.04-.84,2.47-.58,2.11,1.54-.55,3.23-1.26,6.43-1.89,9.64-.17.85-.75,1.23-1.52,1.47-3.74,1.18-7.57,1.98-11.46,2.48-5.56.71-11.06.34-16.42-1.37-9.87-3.15-16-11.49-16.05-21.82-.04-8.87,2.72-16.68,9.22-22.91,5.43-5.21,11.96-7.96,19.55-8.26,4.84-.2,9.56.21,14.08,2.03,7.74,3.12,12,9.77,12.5,18.38.21,3.66-.22,7.29-.92,10.89-.16.83-.46,1.2-1.32,1.31-3.82.47-7.65.18-11.48.27-2.16.05-4.33,0-6.49,0,0,.03,0,.07,0,.1Zm-5.78-11.02h0c2.99-.01,5.99-.02,8.98-.01.95,0,1.64-.24,1.63-1.38-.04-3.62-3.02-7.24-6.58-7.95-5.5-1.1-11.82,2.38-13.97,7.71-.54,1.34-.35,1.63,1.08,1.63,2.95,0,5.91,0,8.86,0Z"/>
  <path d="m363.8,87.12c.57-2.55,1.16-4.99,1.67-7.46,1.56-7.6,3.12-15.2,4.62-22.81.22-1.1.69-1.6,1.81-1.53,1.5.1,3,.12,4.49-.11,1.07-.16,1.35.41,1.18,1.32-.31,1.67-.62,3.35-.99,5.01-2.56,11.58-5.04,23.19-7.4,34.81-1.96,9.67-3.98,19.34-5.94,29.02-.28,1.38-.42,2.79-.59,4.19-.07.59-.32.93-.94.92-1.62,0-3.25,0-4.87-.05-1.05-.03-1.46-.56-1.22-1.65.24-1.13.35-2.29.52-3.44.04-.28.2-.64-.08-.81-.37-.22-.6.18-.81.4-1.49,1.51-2.92,3.1-4.84,4.09-6.49,3.33-13.07,3.87-19.56.16-3.9-2.23-5.91-6.02-7.21-10.14-3.73-11.83.42-28.79,11.75-36.93,6.55-4.71,13.71-5.25,21.11-2.33,3.05,1.2,5.12,3.63,6.57,6.56.13.25.19.55.74.8Zm-14.99-3.01c-4.7-.1-8.38,1.63-11.11,4.86-6.71,7.93-9.1,17.09-7.03,27.29,1.86,9.18,12.29,11.53,18.09,7.27,5.35-3.93,9.56-8.7,11.23-15.35,1.21-4.82,1.81-9.64.52-14.5-1.65-6.24-5.98-9.61-11.7-9.57Z"/>
  <path d="m405.01,98.98c1.83.07,3.67-.14,5.49.18.53.09.96-.04.98-.64.11-3.36.42-6.73-1.37-9.84-1-1.74-2.37-2.91-4.22-3.68-3.64-1.52-7.26-.86-10.91-.14-2.85.57-5.41,1.9-8.06,3-.38.16-.79.49-1.17.22-.46-.33-.14-.83-.07-1.27.2-1.19.4-2.37.62-3.56.18-.98.55-1.88,1.56-2.25,6.32-2.33,12.74-3.9,19.54-2.45,7.91,1.68,11.36,7.75,11.81,14.81.31,4.81-1.15,9.28-1.95,13.87-.99,5.68-2.23,11.31-3.27,16.98-.29,1.58-.24,3.22-.55,4.81-.16.83-.48,1.22-1.35,1.29-1.33.11-2.66.17-3.99.14-1.11-.03-1.71-.47-1.56-1.69.14-1.07.19-2.15.25-3.23.02-.27.12-.63-.23-.77-.28-.11-.42.19-.58.37-5.21,5.59-11.7,7.38-19.08,6.12-6.56-1.13-11.3-6.95-11.41-13.56-.08-4.56.95-8.7,4.44-11.86,3.35-3.04,7.48-4.63,11.85-5.57,4.36-.94,8.79-1.43,13.27-1.29Zm-1.27,6.12c-2.67-.18-5.32,0-7.95.5-4.13.77-7.97,2.07-10.8,5.42-2.82,3.34-2.61,8.74.51,11.8,2.89,2.83,6.5,3.02,10.15,2.42,4.4-.72,7.5-3.59,10.19-6.91,2.69-3.31,3.6-7.33,4.36-11.38.22-1.19-.29-1.77-1.59-1.83-1.62-.07-3.24-.02-4.87-.02Z"/>
  <path d="m442.65,121.59c1.41-2.6,2.72-5.04,4.05-7.47,5.35-9.77,10.7-19.53,16.04-29.3.62-1.13,1.14-2.31,1.76-3.44.75-1.36,1.83-2.19,3.51-2.09,1.33.08,2.67,0,4,.02.35,0,.79-.32,1.04.07.24.37-.13.7-.31,1.01-1.24,2.16-2.49,4.32-3.72,6.49-10.62,18.77-21.24,37.53-31.84,56.31-1.83,3.25-3.98,6.12-7.59,7.62-3.48,1.44-7,1.17-10.54.34-.82-.19-1.14-.88-1.04-1.63.16-1.19.41-2.37.68-3.54.21-.88.76-1.23,1.68-.9,4.32,1.53,7.53-.27,10.22-3.47,2.51-2.99,4.01-6.6,5.88-9.96,1.07-1.92.37-4.09.13-6.13-1.14-9.55-2.93-19.02-3.97-28.59-.55-5.11-1.3-10.21-2.37-15.24-.38-1.8,0-2.27,1.81-2.36.87-.05,1.74-.17,2.61-.21,1.74-.08,2.78.64,2.89,2.37.26,3.85,1,7.64,1.3,11.49.29,3.68.84,7.33,1.28,11,.64,5.27,1.29,10.54,1.93,15.8.07.57.09,1.15.53,1.85Z"/>
  <path d="m128.77,156.09c-.38-4.67.95-9.12,4.24-12.87,3.44-3.93,7.74-5.61,13.11-5.26,4.78.31,7.05,3.17,8.3,7.04,1.21,3.73,1.98,7.61,1.97,11.6-.01,7.32-5.64,12.43-10.57,14.41-1.66.67-3.5.63-5.19.27-3.38-.74-6.47-2.2-8.93-4.71-2.04-2.08-2.98-4.66-2.92-7.58.02-.87,0-1.74,0-2.9Z"/>
  <path d="m573.54,175.61c-1.84.06-3.66-.17-5.44-.64-1.54-.41-1.82-.92-1.45-2.44.05-.2.09-.41.14-.61.56-2.13.93-2.32,3.07-1.72,1.96.55,3.94,1.15,6.01.57,1.9-.53,2.89-1.99,3.71-3.63.12-.24.15-.52-.11-.66-.32-.18-.65-.04-.95.11-1.34.66-2.76.87-4.25.82-3.04-.1-5.26-1.79-5.99-4.71-1.06-4.27-.7-8.31,2.07-11.94,3.07-4.01,9.04-4.56,12.14-1.89.58.5.95.39,1.37-.28.73-1.17,3.76-1.66,4.88-.86.78.55.53,1.32.38,2.05-.78,3.61-1.59,7.21-2.34,10.83-.59,2.85-1.4,5.64-2.29,8.4-1.31,4.06-4.64,6.39-9.2,6.6-.58.03-1.17,0-1.75,0Zm8.22-19.69c.04-.64-.07-1.24-.27-1.84-.79-2.36-3.39-3.06-5.16-1.32-2.06,2.03-2.9,4.54-2.35,7.37.55,2.85,3.14,3.62,5.35,1.71,1.81-1.57,2.21-3.71,2.43-5.92Z"/>
  <path d="m633.99,167.66c-1.77.16-3.35-.1-4.57-1.52-.53-.62-.7-.21-.8.38-.36,2.25-.81,4.49-1.48,6.67-.6,1.95-3.47,2.94-5.19,1.81-.65-.43-.45-1.11-.33-1.71.49-2.53.99-5.05,1.51-7.57,1.11-5.36,2.24-10.71,3.35-16.07.34-1.62.8-2.05,2.42-2.07,1.08-.01,2.16-.12,3.12.6.45.34.96.08,1.41-.15,1.92-.97,3.98-.91,5.99-.53,3.04.57,4.88,2.83,5.14,6.52.29,4.13-.85,7.89-3.74,10.99-1.84,1.98-4.16,2.84-6.82,2.64Zm4.54-11.68c0-.25,0-.5,0-.75.03-1.46-.53-2.6-1.88-3.22-1.44-.66-2.56.03-3.56,1.02-1.84,1.82-2.44,4.13-2.37,6.58.05,1.98,1,3.26,2.38,3.56,1.72.37,2.83-.62,3.78-1.85,1.21-1.57,1.7-3.38,1.66-5.35Z"/>
  <path d="m560.27,167.59c-.37,0-.45,0-.53,0-2.53-.06-2.9-.53-2.43-3.03.53-2.85,1.05-5.71,1.57-8.57.06-.33.1-.66.12-.99.08-1.19.15-2.37-1.32-2.87-1.3-.45-3-.01-3.86,1.06-.58.73-.9,1.58-1.21,2.44-1.2,3.34-1.7,6.84-2.44,10.28-.22,1.04-.75,1.53-1.75,1.58-1.04.06-2.08.07-3.12.09-1.02.03-1.29-.42-1.06-1.41,1.05-4.57,2.06-9.14,3.06-13.72.26-1.21.52-2.44.44-3.7-.05-.71.27-1.09.97-1.2,1.54-.23,3.07-.45,4.46.52.56.39,1.1.24,1.66.02,1.21-.47,2.44-.71,3.76-.8,4.37-.28,7.2,3.29,6.61,7.3-.58,3.97-1.64,7.87-2.54,11.79-.34,1.47-1.65,1.09-2.39,1.2Z"/>
  <path d="m601.49,160.93c.02-2.64.87-5.14,1.32-7.71.22-1.27.53-2.52.71-3.79.19-1.35.93-1.96,2.25-1.99.75-.02,1.49-.07,2.24.08,1.13.22,1.68.8,1.41,2.02-.44,1.98-.84,3.98-1.23,5.97-.25,1.26-.45,2.53-.67,3.8-.36,1.98.07,3.16,1.36,3.74,1.08.49,3.37-.32,4.21-1.52.7-1,1.08-2.15,1.4-3.31.76-2.72,1.14-5.52,1.74-8.28.19-.86.12-1.98,1.21-2.28,1.46-.4,2.97-.51,4.4.14.71.32.55,1.05.42,1.66-.74,3.41-1.49,6.81-2.24,10.21-.38,1.7-.85,3.39-1.12,5.1-.46,2.98-3.5,3.08-5.49,2.25-.64-.27-1.11-.36-1.74-.12-1.56.61-3.18,1.09-4.86.86-3.34-.44-5.14-2.47-5.3-5.84-.02-.33,0-.66,0-1Z"/>
  <path d="m513.68,147.34c2.4-.12,4.57.3,6.36,2.04,1.57,1.53,1.85,3.39,1.49,5.4-.68,3.75-1.44,7.49-2.13,11.24-.16.88-.6,1.37-1.46,1.41-1.34.06-2.84.75-3.77-.95-.2-.38-.6-.12-.87.07-2.04,1.45-4.35,1.18-6.63,1-.89-.07-1.64-.53-2.28-1.18-3.07-3.09-1.9-8.66,2.16-10.22,2.53-.97,5.21-1.02,7.85-1.34.64-.08,1.52.08,1.72-.69.23-.88-.5-1.44-1.19-1.85-1.37-.83-2.88-.71-4.37-.46-.9.15-1.78.44-2.68.61-.9.17-1.39-.13-1.41-1.17-.04-2.28.54-3.06,2.78-3.5,1.47-.29,2.96-.49,4.43-.42Zm-.13,11.3c-1.45.14-2.93.27-4.2,1.23-.86.65-1.33,1.49-.89,2.48.46,1.03,1.49,1.28,2.54,1.08,1.64-.32,2.87-1.24,3.73-2.67.3-.5.69-1.02.41-1.61-.31-.67-1.01-.41-1.61-.5Z"/>
  <path d="m151.82,112.7c4.16-.02,7.22,3.24,7.56,7.62.35,4.47-2.61,6.8-6.61,7.91-2.62.72-5.29.51-7.8-.67-2.18-1.03-3.85-4.13-3.66-6.75.29-3.96,2.54-6.62,6.42-7.57,1.42-.35,2.84-.63,4.09-.53Z"/>
  <path d="m295.96,111.77c0-18.76,0-37.52,0-56.29,0-.75,0-1.5.06-2.24.05-.6.25-1.19,1.03-1.14.73.05.8.63.81,1.19.03,1.83.04,3.65.04,5.48,0,35.82,0,71.64.01,107.46,0,1.04.08,2.07.12,3.11.02.5,0,1-.2,1.47-.17.39-.38.79-.88.76-.54-.02-.82-.44-.89-.9-.1-.69-.11-1.41-.11-2.11,0-18.93,0-37.86,0-56.78h.01Z"/>
  <path d="m474.39,167.66c-1.41-.02-2.83.09-4.21-.34-1.24-.38-1.61-.97-1.38-2.24.07-.41.21-.8.35-1.19.52-1.45.99-1.67,2.44-1.19,1.52.51,3.07.73,4.66.36.68-.16,1.34-.39,1.58-1.07.23-.65-.4-1.03-.76-1.46-.9-1.06-2.08-1.79-3.2-2.57-2.22-1.55-2.33-3.79-2.04-6.13.26-2.12,1.74-3.27,3.62-3.88,3.04-.98,6.15-.81,9.25-.2.79.16,1.01.67.91,1.37-.09.65-.26,1.3-.38,1.95-.15.82-.67,1.09-1.45.98-.7-.1-1.4-.18-2.1-.29-.79-.13-1.58-.2-2.36-.06-.75.13-1.54.38-1.79,1.17-.24.78.51,1.15,1,1.57,1.16,1.01,2.29,2.05,3.52,2.97,2.6,1.96,1.92,7.03-.82,8.79-2.13,1.36-4.43,1.54-6.83,1.45Z"/>
  <path d="m499.02,147.37c.83,0,1.67-.07,2.49.02,1.58.17,2.17,1.01,1.87,2.57-.45,2.4-.75,2.63-3.3,2.13-2.41-.47-4.22.38-5.68,2.23-1.55,1.95-2.14,4.11-1.3,6.51.62,1.75,2.03,2.6,3.89,2.44.82-.07,1.65-.24,2.44-.46.9-.25,1.18.04,1.21.94.09,3.04-.67,3.88-3.72,3.91-.96.01-1.91.02-2.87,0-3.49-.1-6.19-2.18-6.82-5.61-.65-3.53-.48-7.09,1.69-10.16,2.44-3.44,5.95-4.75,10.1-4.52Z"/>
  <path d="m525.25,167.59c-1.88.02-1.95-.14-1.63-2.01,1.41-8.17,3.66-16.17,5.12-24.33.29-1.63,1.19-2.35,2.83-2.4.25,0,.5,0,.75,0,2.41,0,2.67.26,2.19,2.68-.69,3.54-1.45,7.07-2.19,10.59-.84,3.97-1.6,7.96-2.62,11.9-.76,2.92-1.44,3.53-4.45,3.57Z"/>
  <path d="m536.04,167.56c-2.49.02-2.53.01-2.01-2.43,1.07-5.07,2.33-10.09,3.23-15.2.4-2.25,3.38-3.46,5.32-2.24.91.57.81,1.52.65,2.36-.35,1.87-.8,3.73-1.22,5.59-.73,3.23-1.48,6.46-2.21,9.7-.43,1.91-.67,2.13-2.65,2.22-.37.02-.75,0-1.12,0Z"/>
  <path d="m541.03,144.77c-2.17.12-2.33-.05-2.09-2.28.25-2.36.93-3,3.29-3.12.08,0,.17-.02.25,0,.95.22,2.43-.72,2.68,1.09.3,2.21-.64,3.81-2.4,4.16-.56.11-1.15.1-1.73.15Z"/>
</svg>