<?xml version="1.0" encoding="utf-8"?>
<!-- Generator: Adobe Illustrator 27.7.0, SVG Export Plug-In . SVG Version: 6.00 Build 0)  -->
<svg version="1.1" id="Capa_21" xmlns="http://www.w3.org/2000/svg" xmlns:xlink="http://www.w3.org/1999/xlink" x="0px" y="0px"
	 viewBox="0 0 595 178" style="enable-background:new 0 0 595 178;" xml:space="preserve">
<path d="M402,59.1c-1,1.4-1.9,3-2.2,4.8c-0.8,0.3-0.6,0.9-0.6,1.6c-2.9,6.8-5.9,13.5-8.8,20.2c-0.6,1.4-1.1,2.8-1.7,4.1
	c-0.4,0.1-0.8,0.2-0.5,0.8c-0.4,1-0.7,2.1-1,3.1c-0.4,0.1-0.8,0.3-0.6,0.8c-2.6,7-4.7,14.3-8.9,20.6c-0.5,0-1,0-1.6,0
	c-1.8,0-3.7,0-5.5,0l-3.1,0c-4.4-8.1-7.4-16.8-10.8-25.3c-3.9-9.4-7.4-19-11.1-28.5c-0.2-0.6-0.1-1.4-1-1.3
	c-0.8,0.1-1.1,0.9-1.4,1.7c-5.2,13.1-10.5,26.2-15.7,39.2c-1.3,3.3-2.5,6.7-3.8,10c-0.6,1.3-1.3,2.7-1.9,4l0,0
	c-0.8,0.1-1.6,0.1-2.3,0.2c-0.4,0-0.8-0.1-1.2-0.1c-8.5-0.2-8.3-0.2-11.4-8c-4.5-11.3-9.4-22.5-14.1-33.8c-0.8-2.2-1.5-4.5-2.4-6.7
	c-3.4-8-6.1-16.3-10.1-24c-1.5-2.8-1-3.9,2.5-3.9c10.9,0.1,10.8,0,14.9,10.2c6.1,15.2,12.3,30.3,18.6,45.9c1.9-4.5,4-8.7,5.6-13
	c4.8-12.8,9.6-25.6,14.2-38.5c1.2-3.3,2.8-4.9,6.8-4.7c7.9,0.4,7.8,0.2,10.8,7.8c6.2,15.9,12.6,31.7,19.1,47.8
	c1.9-1.2,2.5-2.6,2.5-4.3l1.5-3.1c5.5-14.3,11.2-28.5,16.6-42.9c1.4-3.8,3.1-5.9,7.5-5.2c2.7,0.4,5.5,0.1,8.2,0.1
	c0,0.8,0.1,1.4-0.2,2.2C406.5,47,404.3,53.1,402,59.1L402,59.1z"/>
<path d="M480.1,104.6c2.1,0.4,4.1,0.3,6-0.8c2.8-1.5,3.8-0.6,3.5,2.4c-0.1,0.9,0,1.8,0,2.8c0,6.4-0.9,7.1-7.2,7.7
	c-6.6,0.6-12.1-0.7-14.7-7.5c-0.7-1.8-1.2-1.1-2.1-0.4c-10.9,8.5-23.8,9.7-36.7,8.5c-10.6-1-20.9-5.3-23.5-17.8
	c-2.6-12.3-0.1-18.4,9.4-25c0.3-0.2,0.5-0.6,0.7-0.9c0.8-0.5,2,0.2,2.5-0.9c1-0.4,2.1-0.7,3.1-1c3-0.5,6-1.1,9-1.4
	c8.2-0.6,16.5-1.4,24.8-1.8c2.4-0.1,4.8-0.5,7.3-0.7c2-0.2,3.4-1.5,3.8-3.3c1.6-6.9-1.2-12-8.2-13.9c-6.9-1.9-13.9-2.3-21.2-1.9
	c-10.2,0.6-15.7,7.2-16.3,16.7c-0.1,1.2-0.6,1.6-1.6,1.7c-3.7-0.7-7.5,0.9-11.1-0.9c0-0.8,0-1.6,0-2.4c0-1.3,0.1-2.6,0.1-3.9
	c1.8-6.5,4.2-12.7,9.4-17.3c8.9-6.2,19.2-6.2,29.4-5.9c6.5,0.2,13,1,19.2,3.2c3.3,1.2,5.7,3.3,8.6,4.9c1.3,2.4,2.7,4.8,4.1,7.1
	c0,14.7,1.7,29.3,0.3,44C478.4,99.1,478.9,101.9,480.1,104.6L480.1,104.6z M418.1,89c-1.6,2.6-1.1,5.4-0.3,8.1
	c2,7.1,8.6,7.1,13.9,8.2c7.7,1.5,15.5,0.1,22.6-3.1c6.8-3,12.5-7,11.8-16.6c-0.1-1.9-0.3-3.8,1-6c-1.8,0-3.1,0-4.3,0
	c-8.3-0.3-16.5,1.7-24.8,1.5c-3-0.1-5.9,0.5-8.8,1c-3.1,0.5-6.7,0.6-8.8,3.7C418.8,86.4,418.4,87.7,418.1,89L418.1,89z"/>
<path d="M285.8,75.7c0,1.1,0,2.1,0,3.1c-0.1,1.7-1,2.4-2.8,2.4c-5.1,0.1-10.3,0.4-15.5,0.6c-3.8-0.1-7.6-0.2-11.4-0.2
	c-13-0.1-25.9-0.1-38.9-0.1c-1.5,0-3.9-0.2-3.1,2.1c1.9,6.4,4.3,12.4,10.4,16.5c7.6,5.1,16,6.2,24.6,5.2c9-1,16-5.5,20-14
	c0.4-0.1,0.8-0.3,0.6-0.8c0.1-0.3,0.1-0.5,0.2-0.8c1.7-0.8-0.1-3.9,2.2-3.8c4.3,0.1,8.6-1.1,12.8,0.7c-1.7,4.4-3.1,8.9-5.5,12.9
	c-6.2,10.1-15.5,15.5-27.2,17.1c-7.6,1-15.2,1.6-22.7-0.6c-10.6-3.1-18.6-9.6-24.2-19.2c-0.1-0.6,0.1-1.4-0.8-1.6l-2.5-8.6
	c-0.8-1.9-0.6-4-0.7-6c-0.3-5.7,0.2-11.3,1.4-16.8c2.8-5.8,5.5-11.4,10.3-16.1c6.2-6,13.6-9.6,22-10.5c9.1-1,18.2-0.7,27,2.8
	c4.7,1.9,8.7,4.8,12.5,8c4.3,5.2,7.8,10.9,9.2,17.6C284.6,69,285.2,72.3,285.8,75.7L285.8,75.7z M218.1,61.5c-1.1,2-2.5,3.8-2.6,6.3
	c-0.1,1.9,0.3,2.4,2.3,2.4c16.8-0.1,33.5-0.1,50.3,0c2.8,0,3.2-1.4,2.5-3.4c-1.6-4.8-4.2-9.2-8.3-12.3c-8-5.8-17.1-7.8-26.8-5.4
	c-7,1.7-13.2,4.8-16.8,11.6C218.3,60.7,217.9,60.9,218.1,61.5L218.1,61.5z"/>
<path d="M543.9,82c-1.6,3.4-3.2,6.7-4.8,10.1c-1.2,1.4-2.1,3-2.4,4.8c-1,0.5-1.6,1.2-1.5,2.3c-0.4,0.1-0.8,0.3-0.6,0.8
	c-4.8,11-9.6,22-14.4,33c-1.2,1-1.4,2.5-2.1,3.7l-0.2,0.2c-0.5,0.1-0.8,0.2-0.6,0.8c-4.9,6.4-11.2,9.9-19.5,9.8
	c-13.2-0.2-26.5-0.1-39.7,0c-4.4,0-8.9,0.3-13.3,0.5c-0.1-0.5-0.1-1-0.2-1.6c-0.8-3.4-1.3-6.8,0.2-10.1c1.3-0.1,2.6-0.1,3.9-0.2
	c15.5,0,30.9,0.1,46.4,0.1c6.6,0,10.7-4,13.4-9.7c2.1-4.4,4.3-8.8,6.6-13.1c0.7-1.3,0.2-2.2-0.3-3.2c-8.3-16.3-16.6-32.6-25-48.9
	c-1.9-3.7-3.3-7.6-5.8-10.9c-1.2-4.1-4.3-7.4-4.5-11.8c3.8,0,7.6,0.1,11.4-0.1c1.9-0.1,2.8,0.7,3.5,2.2
	c7.6,15.2,15.2,30.5,22.9,45.7c1.1,2.3,2.5,4.4,3.8,6.6c-0.1,1.2,0.1,2.3,1.3,2.9c1-1,1.8-2.3,2-3.8c4.9-8.2,8.4-17.1,12.6-25.7
	c4.1-8.5,7.9-17.2,11.8-25.8c0.7-1.6,1.8-2.2,3.5-2.1c3.3,0.2,6.5,0.1,9.8,0.1c1.3,1.3,0.7,2.5,0,3.8c-1.4,2.8-2.6,5.8-3.9,8.7
	c-1.1,0.4-0.6,1.6-1,2.3c-0.8,0.3-0.5,1-0.7,1.6c-2,4.1-4.3,8.1-5.5,12.6c-1.7,2.4-3.1,5-3.9,7.9c-0.4,0.8-0.9,1.5-1.3,2.3
	C545,79.2,544,80.4,543.9,82L543.9,82z"/>
<path d="M113.4,93c-4.5,9.5-11,17.3-21.1,20.9c-16.4,5.9-32.5,6-47-5.6c-8-6.4-12.1-14.9-14-24.8c-2.2-11.3,1.1-21.1,7.2-30.4
	c0.3-0.5,0.5-1.2,0.8-1.7c1.3-0.8,2.4-1.8,3.1-3.2c10-9.5,22.4-12,35.5-11.4c18.7,0.8,35.4,14.9,37.8,33.2c0.2,1.6,0.7,3.3,0.8,4.9
	C116.3,81,115.1,87.1,113.4,93L113.4,93z M72.9,48.9c-9.6-0.6-17.6,2.5-23.7,10.8c-5.4,7.3-6.9,15.6-4.9,23.7
	c3.4,13.6,12,22.5,30.2,22.3c8.1-0.1,14.5-3.5,20.5-8.2c5.1-4,7.6-9.6,8.5-15.8c1.1-8.8-0.8-16.8-6.7-23.6
	C90.6,50.8,82.4,48.5,72.9,48.9L72.9,48.9z"/>
<path d="M121.4,75.6c0.4-11.3,0.6-22.7-0.2-34c-0.2-2.5,0.4-3.3,2.8-3c1.3,0.1,2.6,0,3.9,0c3.8,0,5.8,1.8,6,5.5
	c-0.1,0.5,0.1,0.8,0.6,0.6c3.3-0.6,5.3-3.6,8.4-4.8c4.1-1.7,8.1-2.9,12.5-2.8c6.6,0.1,13.1-0.3,19.6,1.4c13.6,3.6,19.3,11.9,21,24.5
	c-0.8,3,0.7,5.8,0.6,8.8c-0.2,10.4,0,20.9,0.1,31.3c0,3.6-0.1,7.3-0.1,10.9c-0.9,0.9-2,1-3.1,1.1c-3.1-0.1-6.3-0.2-9.4-0.2
	c0-1.3-0.1-2.6-0.1-3.9c0-13.9,0.3-27.8,0-41.7c-0.1-4.2-0.4-8.7-2.6-12.6c-2.8-4.9-7.6-7.2-12.6-7.6c-6-0.6-12.2-1.1-18.3,0.6
	c-10.4,2.9-16.3,11.1-16.6,21.7c-0.4,13.5-0.2,27,0,40.5c0,2.7-0.8,3.5-3.3,3.1c-3-0.4-6.2,0.9-9.1-0.9l0.2-0.3l-0.2-0.3
	c0.1-9.5,0.1-19,0.2-28.4C121.8,82,122,78.8,121.4,75.6L121.4,75.6z"/>
</svg>
