<?xml version="1.0" encoding="utf-8"?>
<!-- Generator: Adobe Illustrator 27.7.0, SVG Export Plug-In . SVG Version: 6.00 Build 0)  -->
<svg version="1.1" id="Capa_1" xmlns="http://www.w3.org/2000/svg" xmlns:xlink="http://www.w3.org/1999/xlink" x="0px" y="0px"
	 viewBox="0 0 811.3 358.4" style="enable-background:new 0 0 811.3 358.4;" xml:space="preserve">
<style type="text/css">
	.st0{fill:#1D1D1B;}
	.st1{fill:#25292C;}
	.st2{fill:#E2221B;}
</style>
<path class="st0" d="M624.2,268c-6,5.9-12.4,11.3-19.2,16.2c-19.9,14.8-41.7,26.4-64.5,36c-26.6,11.1-54.2,19.6-82.5,25.5
	c-13.3,2.8-26.7,5.2-40.1,7c-11,1.5-22,2.7-33.1,3.6c-17.8,1.5-35.6,2.1-53.4,2c-12.9,0-25.9-0.4-38.8-1.3
	c-11.8-0.8-23.6-1.8-35.3-3.3c-41.7-5.2-82.5-14.5-121.7-30c-25-9.9-48.8-22-70.6-37.8c-15.2-11-28.9-23.5-40.2-38.5
	c-9.9-13-17.4-27.2-21.4-43.1c-6.1-24.5-3.4-48,7.4-70.7c7.5-15.6,17.9-29.1,30.3-41.1c15.8-15.4,33.8-27.8,53-38.4
	c26.1-14.4,53.7-25,82.3-33.2c18.4-5.2,37.2-9.4,56.1-12.6c14.9-2.5,29.9-4.4,44.9-5.8c15.3-1.3,30.7-2.1,46-2.4
	c11.1-0.2,22.2-0.1,33.3,0.3s22.3,1.1,33.5,2.1c10.2,0.9,20.3,2.1,30.5,3.5c11.3,1.6,22.6,3.5,33.8,5.9c0,0,0.1,0.1,0.2,0.3
	c-0.6,0-1.2,0-1.8,0c-6.4-1-12.8-1.8-19.2-2.5C428.2,9.1,423,8.5,417.7,8c-10-0.9-20-1.5-30.2-1.9c-17.5-0.7-35-0.7-52.5,0
	c-13.7,0.6-27.3,1.6-40.9,3.1c-18,1.9-35.8,4.6-53.5,8.3c-36.8,7.6-72.3,18.7-106,35.5c-17.9,8.9-35,19.3-50.5,32.1
	c-13.1,10.8-24.7,23-33.5,37.6c-6.9,11-11.4,23.3-13.4,36.2c-1.9,13.8-0.4,27.9,4.4,41c4.8,13.2,12.2,24.9,21.3,35.6
	c12.5,14.6,27.3,26.4,43.4,36.8c22.8,14.6,47.3,25.7,72.8,34.6c22.6,7.8,45.7,14,69.2,18.4c13.6,2.6,27.2,4.7,41,6.2
	c19.1,2.2,38.2,3.5,57.4,4c16.2,0.4,32.3,0.1,48.4-0.7c15.7-0.8,31.4-2.2,47-4.2c32.9-4.1,65.4-11.4,96.9-21.7
	c25.1-8.4,49.2-18.8,71.9-32.5c3.8-2.3,7.4-4.7,11.1-7.1C622.8,268.7,623.3,268,624.2,268L624.2,268z"/>
<path class="st1" d="M714.6,92.3c0.9-0.6,1.6-1.5,2.1-2.5c6-8.7,13.5-15.6,23.6-19.2c11.8-4.2,23.8-4.5,35.6,0.1
	c3.6,1.5,7,3.5,10.1,5.9c4.6,3.3,7.5,8.3,8,13.9c0.4,2.9,0.6,5.9,0.6,8.8c0,25.6,0,51.2,0,76.8c0,0.6,0,1.1,0,1.7
	c0,1.8,0,1.8,1.9,1.8c4.3,0,8.6,0,13,0c1.8,0,1.8,0,1.8,1.8s0,3.8,0,5.8c0,1-0.4,1.3-1.3,1.2c-0.6,0-1.1,0-1.7,0h-67.7
	c-0.5,0-1,0-1.4,0c-1.1,0.1-1.4-0.4-1.3-1.4c0.1-1.8,0-3.7,0-5.5s0-1.9,1.8-1.9c3.1,0,6.2,0,9.4,0h3.6c2.1,0,2.1,0,2.1-2.1
	c0-27.3,0-54.5,0-81.8c0-2.6-0.3-5.3-0.9-7.8c-1.5-5.7-6-8.7-11.9-7.8c-2.5,0.4-5,1.3-7.2,2.5c-3.7,2-7.2,4.5-10.3,7.4
	c-4.4,4.1-6.7,9.4-8.2,15.2c-1.3,5.4-1.8,10.9-1.8,16.4c-0.1,18.5,0,36.9,0,55.4v0.5c0,2.1,0,2.1,2.1,2.1c4.5,0,9,0,13.4,0
	c1.2,0,1.7,0.3,1.6,1.6c-0.1,2-0.1,4,0,6c0,1-0.3,1.3-1.3,1.2c-0.5,0-1,0-1.4,0h-68.6c-3.1,0-2.6,0.3-2.6-2.7c0-1.4,0-2.9,0-4.3
	c0-1.8,0-1.8,1.9-1.8c4.1,0,8.2,0,12.2,0c0.5,0,1,0,1.4,0c1.3,0.2,1.7-0.5,1.6-1.7c0-0.4,0-0.8,0-1.2c0-31.2,0-62.4,0-93.5
	c0-3.2,0.4-3-2.9-3c-4.1,0-8.2,0-12.2,0c-1.2,0-1.7-0.3-1.7-1.6c0.1-1.9,0-3.8,0-5.8c0-1.6,0-1.6,1.8-1.6c2.8,0,5.6,0,8.4,0
	c12.6,0,25.2-1,37.7-3c2-0.4,4-0.6,6-0.6c2.8,0.1,2.6-0.4,2.6,2.5c0,6.6,0,13.1,0,19.7C714.5,90.4,714.6,91.2,714.6,92.3z"/>
<path class="st1" d="M367,166.8c-0.5,0-0.9,0.3-1.1,0.8c-6.5,11.3-16.5,17.8-28.8,21.1c-9.9,2.7-20.5,2.5-30.2-0.8
	c-4-1.4-7.7-3.5-11.1-6.1c-5.2-3.8-7.4-9.2-8.1-15.4c-0.5-4.8-0.8-9.6-0.7-14.3c-0.1-22.9,0-45.7,0-68.6c0-0.6,0-1.1,0-1.7
	c0.2-1.3-0.5-1.6-1.7-1.6c-4.4,0-8.8,0-13.2,0c-1.7,0-1.7,0-1.7-1.7c0-1.7,0-3.7,0-5.5s0-1.7,1.9-1.8h51.8c0.6,0,1.1,0,1.7,0
	s1,0.3,1,1s0,1.3,0,1.9c0,25.1,0,50.2,0,75.3c-0.1,6.2,0.2,12.3,0.8,18.4c0.1,1.4,0.4,2.8,0.7,4.2c0.9,3.5,3.2,5.4,6.8,5.8
	c2.7,0.3,5.4-0.1,8-1c6.5-2.4,12.3-6.4,16.8-11.6c3.7-4.2,5.3-9.2,6.2-14.6c0.7-4.7,1-9.4,1-14.1c0-18,0-36,0-54c0-0.3,0-0.7,0-1
	c0.2-1.2-0.5-1.5-1.5-1.4c-4.3,0-8.6,0-13,0c-1.6,0-3.6,0.7-4.6-0.4s-0.2-2.9-0.3-4.4c0-1,0-1.9,0-2.9s0.4-1.4,1.4-1.3
	c2.1,0,4.2,0,6.2,0h48.7c0.6,0,1.1,0,1.7,0c1-0.1,1.2,0.4,1.2,1.3c0,0.6,0,1.3,0,1.9v101.3c0,0.6,0,1.1,0,1.7c0,2.6-0.4,2.5,2.4,2.5
	h11.6c0.4,0,0.8,0,1.2,0c1.1-0.1,1.6,0.2,1.6,1.5c-0.1,1.9-0.1,3.8,0,5.8c0.1,1.2-0.5,1.5-1.6,1.5c-1.3,0-2.5,0-3.8,0
	c-12.5,0-25.1-0.2-37.7,0.5c-3.4,0.2-6.6,0.8-10,1.3c-3.5,0.5-3.5,0.5-3.5-3.1L367,166.8z"/>
<path class="st1" d="M209.1,174.6c-2.7,2.4-5.5,4.6-8.4,6.7c-10.7,7.6-23.7,11.4-36.8,10.7c-8.5-0.4-16.4-2.7-22.7-8.9
	s-8.8-13.8-8.2-22.6c0.9-11.3,6.6-19.6,15.9-25.6c6.7-4.3,14.2-7,21.9-8.9c8.6-2.1,17.4-3.4,26.3-4c2.8-0.2,5.6-0.4,8.4-0.5
	c1.2,0,1.7-0.5,1.6-1.7c-0.2-10.2,0.3-20.3-0.4-30.4c-0.2-2.4-0.6-4.7-1.4-7c-0.8-2.6-2.9-4.7-5.6-5.5c-2.8-0.8-5.6-1.2-8.5-1.1
	c-3.5-0.1-7,0.3-10.4,1.2c-2.2,0.6-4.2,1.6-5.9,3c-2.6,2.1-2.8,3.7-0.8,6.3c0.4,0.6,0.9,1.1,1.4,1.6c4.7,4.5,5.1,10,3,15.7
	c-2.5,6.5-7.4,10.5-14.3,11.8c-7.2,1.4-13.7-0.1-18.9-5.5s-6-12-3.6-18.9c1.3-3.5,3.5-6.7,6.4-9.2c6.1-5.6,13.3-9,21.2-11.2
	c6.3-1.7,12.8-2.7,19.4-3c7-0.5,14.1-0.4,21.1,0.2c7.4,0.5,14.7,2,21.8,4.3c9.4,3.1,14,9.9,15,19.4c0.2,2.1,0.3,4.3,0.3,6.5
	c0,19.7,0,39.3,0,59c-0.1,2.9,0.1,5.8,0.7,8.6c0.3,1.6,0.9,3.2,1.8,4.7c1.7,3,5.3,4.3,8.5,3.1c1.4-0.5,2.7-1.1,3.9-1.8
	c0.4-0.3,0.9-0.3,1.2,0.1c0.1,0.1,0.1,0.2,0.2,0.3c1,1.7,2,3.3,3,4.9c0.3,0.5,0.3,1.1-0.2,1.5c-6.2,6.9-13.5,11.9-22.9,13.3
	c-11.9,1.8-21.5-2.4-29.2-11.3C212.1,178.7,210.7,176.7,209.1,174.6z M207,143.1c0-4.1,0-8.2,0-12.2c0-1.7,0-1.7-1.8-1.7
	c-2.5,0.1-5,0.3-7.4,0.6c-5.2,0.4-10.3,1.7-15,3.7c-4.8,2.1-8.4,6.2-9.7,11.2c-1.6,5.5-1.7,11.3-0.2,16.8
	c2.4,9.2,9.2,14.1,18.6,13.2c6.4-0.6,10.9-3.8,13.2-9.9c0.7-1.9,1.2-4,1.5-6C206.9,153.7,207.1,148.4,207,143.1z"/>
<path class="st1" d="M654.2,147.9c-5.5,24.3-20.8,39.1-42.6,43.1c-13.8,2.6-27.4,1.3-40.2-5c-9.8-4.8-17.1-12.3-22.9-21.3
	c-17.8-27.6-13.5-66.6,18-88.3c7.5-5.1,16.3-8,25.3-8.6c10.6-1.1,21.2,0.7,30.8,5.2c15.5,7.4,25.1,19.6,29.3,36.1
	c1,4,1.7,8.1,2.2,12.2c0.2,1.4,0.1,1.5-1.3,1.6c-0.6,0-1.1,0-1.7,0h-65.8c-0.6,0-1.1,0-1.7,0c-0.9,0-1.3,0.4-1.3,1.3
	c0,1.1,0,2.2,0,3.4c0,8.8-0.1,17.6,0.4,26.4c0.2,4.5,0.8,9.1,1.8,13.5c2.1,8.9,6.9,13,16.1,13.7c16.2,1.2,28.7-5.4,37.8-18.7
	c2.7-4.1,4.8-8.5,6.4-13.1c0.4-1.1,0.9-1.5,2-1.5C649.4,147.9,651.7,147.9,654.2,147.9z M598.1,113.4c4.6,0,9.3,0,13.9,0
	c1.9,0,1.9,0,1.9-2c0-3.6,0.1-7.2,0-10.8c-0.1-5-0.3-10-1.7-14.9c-1.6-5.5-5.3-8.4-10.6-9.5c-2.4-0.5-5-0.5-7.4,0
	c-5.2,1.1-8.9,3.9-10,9.3c-0.3,1.4-0.6,2.8-0.8,4.2c-1,7.3-0.7,14.7-0.7,22c0,1.6,0.1,1.6,1.8,1.6
	C589,113.4,593.6,113.4,598.1,113.4z"/>
<path class="st1" d="M480.5,101.5c0.6-1.1,0.9-2.3,1.1-3.5c1.1-4.7,2.8-9.3,4.9-13.7c2.3-4.7,5.6-8.8,9.8-12c5.4-4,11.3-5.8,18-4.5
	c7.7,1.4,12.6,6.2,15.5,13.3c2.3,5.4,2.5,11.5,0.7,17.1c-1.6,5.2-4.9,9.2-10.3,10.9c-8.4,2.6-17.8-3.4-19.4-12.1
	c-0.5-3-0.3-6.1,0.4-9c0.4-1.6,1.1-3.2,2.3-4.4c0.7-0.8,1.3-1.6,1.8-2.5c0.7-1.2,0.2-2-1.1-2.2c-1.5-0.3-3.1,0-4.4,0.7
	c-2.2,1.2-4.1,2.9-5.5,4.9c-3.6,5-6.2,10.7-7.8,16.6c-1.5,6.1-2.5,12.4-3,18.7c-0.9,10.3-0.8,20.6-0.8,30.9c0,8.8,0,17.6,0,26.4
	c0,2.8-0.2,2.5,2.6,2.5c5.8,0,11.5,0,17.3,0c1.8,0,1.9,0,1.9,1.8s0,3.8,0,5.8c0,0.9-0.3,1.3-1.3,1.3c-0.5,0-1,0-1.4,0h-71.2
	c-0.5,0-1,0-1.4,0c-1.1,0.1-1.3-0.4-1.3-1.4c0-2,0.1-4,0-6c-0.1-1.2,0.5-1.5,1.5-1.4c3.5,0,7,0,10.6,0c3.3,0,3,0.5,3-2.9
	c0-20.6,0-41.3,0-61.9V83c0-0.6,0-1.1,0-1.7c0-0.8-0.3-1.1-1.1-1.1c-1.9,0-3.8,0-5.8,0c-2.2,0-4.5,0-6.7,0c-1,0-1.5-0.2-1.5-1.3
	c0.1-2.2,0-4.5,0-6.7c0-0.7,0.3-1,1-1c0.5,0,1,0,1.4,0c8.1,0,16.2,0.1,24.2-0.1c6.6-0.1,13.3-0.2,19.8-1.7c0.2,0,0.3-0.1,0.5-0.1
	c1.8-0.1,3.9-0.7,5.1,0.2s0.3,3,0.4,4.6c0,8.2,0,16.5,0,24.7C480.1,99.7,480.2,100.7,480.5,101.5z"/>
<path class="st1" d="M596.6,228.7c0.5-4.4,0.2-3.6,3.9-3.6c5,0,10.1,0,15.2,0c0.1,1-0.1,2-0.6,2.8c-2.9,7.4-10,12.3-18,12.3
	c-6.7,0-12.1-5.5-12-12.1c0-0.6,0.1-1.2,0.2-1.9c1.3-9.7,9.8-17,19.2-16.6c4,0.2,9.2,2.8,10.7,7.6c-1.4,0-2.7,0-4,0
	c-0.7,0-1-0.4-1.4-0.8c-3.1-3.4-7-3.8-11-2.3c-5.1,1.7-8.7,6.2-9.4,11.5c-1,6.8,4.5,12,11.3,10.7c3.5-0.7,6.6-2.7,8.7-5.6
	c0.3-0.4,0.9-0.9,0.6-1.4s-1-0.4-1.5-0.4c-3.3,0-6.5,0-9.8,0C598,228.8,597.5,228.7,596.6,228.7z"/>
<path class="st1" d="M767.6,240.1c-8.8,0-14.5-7.2-12.5-15.8c2.1-8.6,9.8-14.7,18.6-14.8c8,0.1,13.5,6.3,12.5,14.3
	C785.1,232.6,776.6,240.1,767.6,240.1z M768.4,236.4c6.1,0,11.9-4.7,13.3-10.9c1.8-7.9-3.9-13.7-11.9-11.8
	c-5.7,1.5-10,6.3-10.8,12.2C758.4,231.8,762.5,236.3,768.4,236.4L768.4,236.4z"/>
<path class="st1" d="M290.3,239.7c0.8-4.5,1.6-8.7,2.3-12.9c0.9-5,1.9-10,2.8-15.1c0.2-1.3,0.6-1.7,2-1.7c3,0.1,6.1,0,9.1,0
	c7.2,0.2,11.5,4.7,11.6,11.9c0.2,8.8-6.2,16.3-14.9,17.5C299,240,294.7,239.5,290.3,239.7z M295.2,235.8c2.6,0,4.8,0.2,6.9,0
	c7.1-0.6,12.4-6.8,11.8-13.9c0-0.2,0-0.4-0.1-0.6c-0.3-3.5-2.7-6.3-6.1-7.1c-2.2-0.6-4.5-0.3-6.7-0.4c-1.3-0.1-1.8,0.5-2,1.7
	c-0.7,4-1.5,8-2.2,12C296.2,230.1,295.7,232.8,295.2,235.8L295.2,235.8z"/>
<path class="st1" d="M202.2,228.7l6.1,10.9c-1.7,0-3.1,0-4.4,0c-1,0-1.1-0.8-1.4-1.4c-1.8-3.3-3.5-6.6-5.2-9.9
	c-0.3-0.8-0.8-1.5-1.4-2.1c-0.4,0.6-0.7,1.4-0.7,2.2c-0.6,3.2-1.3,6.4-1.8,9.7c-0.2,1.3-0.8,1.8-2,1.6c-0.8,0.1-1.6,0-2.4-0.3
	c0.5-2.6,1-5.2,1.5-7.9c1.2-6.6,2.5-13.2,3.6-19.8c0.2-1.4,0.7-1.9,2.1-1.8c2.7,0.1,5.4,0,8.1,0c7.1,0.1,9.5,4.5,7.8,10.7
	c-0.9,3.8-3.9,6.7-7.7,7.5L202.2,228.7z M195.9,225.2c2.5,0.4,5,0.2,7.4-0.5c2.1-0.6,3.8-2.1,4.6-4.2c1.2-3.3-0.1-5.7-3.5-6.6
	c-0.9-0.2-1.7-0.3-2.6-0.2c-3.9-0.1-4-0.1-4.6,3.7C196.6,219.9,196.2,222.6,195.9,225.2z"/>
<path class="st1" d="M464.7,228.7l3,5.4l2.9,5.1c-0.2,0.2-0.3,0.3-0.3,0.3c-4.5,0.3-4.5,0.3-6.5-3.6c-1.4-2.6-2.7-5.2-4.1-7.8
	c-0.3-0.8-0.8-1.5-1.4-2c-0.7,2.4-1.2,4.9-1.5,7.3c-0.3,1.6-0.7,3.1-0.9,4.7c-0.1,1.1-0.5,1.6-1.7,1.5c-0.8-0.1-1.6,0-2.5,0
	c-0.1-1.2,0.1-2.4,0.5-3.6c1.4-7.9,2.9-15.8,4.4-23.8c0.1-0.5,0.2-0.9,0.3-1.4c0.1-0.7,0.5-0.9,1.1-0.9c3.5,0,7-0.2,10.5,0.2
	c5.1,0.5,7.4,3.8,6.6,8.8s-3.6,8.2-8.6,9.4C465.9,228.4,465.5,228.5,464.7,228.7z M458.3,225.2c2.7,0.4,5.4,0.2,8-0.6
	c2.4-0.8,4.2-2.9,4.5-5.4c0.4-2.6-0.7-4.3-3.3-5.1c-2-0.7-4.1-0.3-6.2-0.4c-0.7,0-1,0.5-1.1,1C459.5,218.1,458.9,221.6,458.3,225.2
	L458.3,225.2z"/>
<path class="st1" d="M662.4,228.7l5.9,10.5c-0.3,0.2-0.4,0.3-0.5,0.3c-1.4,0-3,0.4-4.2-0.2s-1.5-2.3-2.2-3.6
	c-1.4-2.6-2.7-5.2-4.1-7.8c-0.3-0.6-0.5-1.3-1.3-1.8c-0.9,2.3-1,4.7-1.5,7c-0.4,1.6-0.7,3.3-0.9,5c-0.1,1.3-0.7,1.7-1.8,1.5
	c-0.8,0.1-1.7,0-2.5-0.3c0.5-2.6,1-5.2,1.5-7.9c1.2-6.5,2.4-13,3.6-19.5c0.3-1.9,0.4-1.9,2.2-1.9c2.7,0,5.4,0,8.2,0
	c6.5,0.1,9.5,4,7.9,10.3c-0.8,3.9-3.8,6.9-7.6,7.8C664.1,228.3,663.5,228.4,662.4,228.7z M655.9,225.3c2.4,0.2,4.9,0.1,7.3-0.5
	c2.8-0.8,4.8-2.6,5.2-5.6c0.4-2.6-0.7-4.3-3.2-5.1c-2-0.7-4.1-0.3-6.2-0.4c-0.5-0.1-1,0.3-1.1,0.9c0,0,0,0.1,0,0.1
	C657.2,218.1,656.6,221.6,655.9,225.3z"/>
<path class="st1" d="M446,239.4c-4.4,0.6-4.3,0.6-5.1-3.4c-0.3-1.7,0-3.9-1.3-4.9s-3.2-0.3-4.9-0.3c-1.9,0-4.2-0.7-5.6,0.3
	s-2,3-2.9,4.6c-0.2,0.3-0.4,0.7-0.6,1c-1.7,3.1-1.7,3.1-5.6,2.6c0.1-0.6,0.3-1.1,0.7-1.5c4.9-8.7,9.8-17.4,14.8-26.1
	c0.7-1.6,2.6-2.5,4.3-1.9c0.8,0.2,0.7,0.8,0.8,1.3c0.5,2.5,1,5,1.5,7.5C443.3,225.6,444.6,232.4,446,239.4z M431.2,227h6.8
	c0.9,0,1.1-0.5,1-1.2c-0.5-3.3-1-6.5-1.5-9.8l-0.5-0.1C435.2,219.4,433.3,223,431.2,227L431.2,227z"/>
<path class="st1" d="M617.5,239.6l2-3.7c4.6-8.1,9.1-16.1,13.7-24.2c0.8-1.6,2.6-2.4,4.3-1.8c0.8,0.2,0.6,0.9,0.7,1.3
	c0.7,3.3,1.3,6.6,2,9.9c1.2,6,2.3,12.1,3.5,18.1c-0.2,0.1-0.3,0.3-0.4,0.3c-3.9,0.3-3.9,0.3-4.6-3.6c-0.2-1.3-0.5-2.5-0.7-3.8
	c-0.2-1.1-0.7-1.4-1.8-1.4c-2.7,0.1-5.4,0.1-8.2,0c-0.9-0.1-1.7,0.4-2.1,1.3c-1,1.9-2.2,3.7-3.1,5.7c-0.4,1.4-1.9,2.3-3.3,1.9
	C618.8,239.6,618.1,239.6,617.5,239.6z M629.2,226.7c1.3,0.3,2.7,0.4,4.1,0.3c3.6,0,3.6,0,3.1-3.7c0-0.4,0-0.8-0.1-1.2
	c-0.4-2-0.4-4.1-1.2-6.5L629.2,226.7z"/>
<path class="st1" d="M271.3,239.5c-4,0.3-4,0.3-4.8-3.5c-0.2-1.1-0.4-2.2-0.7-3.3c-0.4-1.9-0.4-1.9-2.2-2c-2.5,0-5.1,0-7.7,0
	c-1-0.1-1.9,0.4-2.3,1.3c-1,2-2.2,3.9-3.2,5.9c-0.6,1.2-1.3,1.9-2.8,1.7c-0.7-0.1-1.3-0.1-2,0c-0.2-0.8,0.2-1.2,0.5-1.7
	c4.9-8.7,9.9-17.5,14.8-26.2c0.7-1.5,2.5-2.3,4.1-1.7c0.9,0.2,0.8,0.9,0.9,1.5L269,226l2.2,11.5
	C271.4,238.1,271.4,238.8,271.3,239.5z M256.8,227c2.4,0,4.3,0,6.2,0c1.6,0,1.6-0.1,1.4-1.6c-0.4-2.8-0.8-5.7-1.2-8.5
	c0-0.3-0.1-0.6-0.7-0.8L256.8,227z"/>
<path class="st1" d="M501.7,239.4c-0.1,0.1-0.2,0.1-0.2,0.1c-3.8,0.4-3.8,0.4-4.5-3.3c-0.3-1.3-0.6-2.6-0.8-4
	c-0.1-1.2-0.7-1.4-1.8-1.4c-2.7,0-5.4,0.1-8.1,0c-1-0.1-1.9,0.5-2.2,1.4c-1,1.9-2.2,3.7-3.1,5.7c-0.4,1.3-1.8,2.1-3.2,1.8
	c-0.5,0-1.1,0-1.6,0c-0.5-0.7,0.1-1.1,0.3-1.6c5-8.8,10-17.6,15-26.4c0.8-1.5,2.6-2.2,4.2-1.7c0.8,0.2,0.7,0.9,0.8,1.5
	c1.1,5.7,2.2,11.4,3.4,17.1c0.6,2.9,1.1,5.8,1.7,8.7C501.8,238,501.8,238.7,501.7,239.4z M487.2,226.8h7.8
	c-0.6-3.7-0.8-7.2-2.2-10.7L487.2,226.8z"/>
<path class="st1" d="M164.1,217.4c-0.8,0-1.7,0-2.5,0c-1.5,0.2-3-0.4-3.9-1.6c-2.3-2.5-5.3-3-8.6-2.4c-6.1,1.3-10.8,6.4-11.4,12.6
	c-0.6,5.1,3,9.7,8.1,10.4c1.1,0.1,2.3,0.1,3.4-0.2c1.7-0.3,3.4-1,4.8-2.1c1.4-1.2,3.2-1.8,5-1.5c0.5,0,0.9,0,1.4,0
	c0.1,1-0.6,1.3-1.1,1.8c-3.5,3.8-8.5,5.9-13.7,5.8c-7.8-0.2-12.8-6.7-12.1-14.2c1-9,10-17,19.3-16.4
	C158,209.8,161.8,212.1,164.1,217.4z"/>
<path class="st1" d="M246.9,217.4c-1.1,0-2-0.1-2.8,0c-1.2,0.1-2.4-0.4-3.1-1.3c-2.4-2.7-5.5-3.4-8.9-2.7
	c-6.1,1.3-10.7,6.4-11.4,12.6c-0.5,5.1,3.2,9.7,8.3,10.3c1,0.1,2.1,0,3.1-0.2c1.8-0.3,3.4-1,4.8-2.1c2-1.9,4.2-1.7,7-1.5
	c-1.8,2.3-4,4.2-6.7,5.5c-3.4,1.8-7.4,2.4-11.1,1.6c-5.4-1.2-9.8-5.9-9.5-13c0.5-9.7,9.7-17.8,19.4-17.3
	C241,209.5,245.3,212.7,246.9,217.4z"/>
<path class="st1" d="M797.7,240.1c-5.6,0-8.7-3-8.7-7.3c0-1.6,0.2-1.7,1.8-1.8c0.6,0,1.1,0,1.7,0s0.9,0.3,0.8,0.9c0,0.2,0,0.3,0,0.5
	c0.5,3.3,2.8,4.7,6,3.6c1.7-0.6,3-1.9,3.7-3.5c1-2.5,0.4-4.4-2-5.6c-1.4-0.7-2.8-1.2-4.2-1.8c-3.5-1.6-4.8-3.9-4.1-7.7
	c1-5.7,7.5-9.5,12.8-7.5c2.7,0.9,4.4,3.5,4.1,6.3c-0.1,0.9-0.4,1.3-1.3,1.2c-0.5,0-1,0-1.4,0c-0.9,0.1-1.4-0.2-1.5-1.3
	c-0.1-1.8-1.7-3.2-3.5-3.1c-0.3,0-0.5,0.1-0.8,0.1c-1.9,0.3-3.4,1.6-4,3.4c-0.7,1.5-0.1,3.4,1.5,4.1c1.2,0.6,2.4,1.2,3.7,1.6
	c5,1.8,6.9,5.2,4.5,11.1C805.3,237.4,801.7,240,797.7,240.1z"/>
<path class="st1" d="M401.5,239.6c0.6-3.3,1.1-6.4,1.7-9.4c1.1-6,2.2-12.1,3.4-18.1c0.4-2.1,0.4-2.1,2.5-2.1c2.4,0,4.8,0,7.2,0
	c7.1,0.2,10.1,4.8,7.3,11.4c-1.5,3.6-4.5,5.5-8.2,6.2c-2,0.4-4,0.5-6,0.3c-1.3-0.1-1.8,0.5-2,1.7c-0.5,2.8-1,5.5-1.5,8.2
	c-0.3,1.8-0.3,1.8-2.1,1.8L401.5,239.6z M412.2,224.1c0.5,0,1.5,0,2.5-0.2c2.6-0.2,4.8-2.2,5.3-4.7c0.6-2.6-0.4-4.3-3-5.1
	c-1.7-0.5-3.5-0.2-5.2-0.3c-1.1-0.1-1.6,0.3-1.7,1.5c-0.3,1.9-0.6,3.8-1,5.6C408.3,224.5,408.1,224,412.2,224.1L412.2,224.1z"/>
<path class="st1" d="M187.2,210c-0.6,4.5,0,3.6-3.7,3.7c-2.5,0-4.9,0-7.4,0c-0.7-0.1-1.3,0.3-1.5,1c0,0.1,0,0.1,0,0.2
	c-0.4,2.2-0.8,4.4-1.2,6.6c-0.2,1.1,0.4,1.4,1.3,1.4c2.5,0,5.1,0,7.7,0c0.8-0.1,1.6-0.1,2.3,0.2c-0.3,3.5-0.3,3.5-3.6,3.5
	c-2.5,0-5,0-7.4,0c-0.9,0-1.4,0.2-1.5,1.1c-0.4,2.7-1.2,5.3-1.4,8.3h11.5c-0.6,4.6-0.1,3.7-3.7,3.7c-4.1,0.1-8.3,0-12.7,0
	c0.5-2.9,1-5.6,1.5-8.3c1.2-6.7,2.5-13.3,3.7-20c0.1-0.7,0.2-1.4,1.2-1.4C177.3,210,182.3,210,187.2,210z"/>
<path class="st1" d="M340.7,223c-0.5,4.2,0,3.4-3.6,3.5c-2.5,0-5,0-7.4,0c-0.9,0-1.3,0.3-1.5,1.2c-0.5,2.7-1,5.3-1.5,8.3h11.6
	c-0.6,4.5-0.1,3.6-3.7,3.7c-4.2,0.1-8.3,0-12.5,0c-0.1-0.9,0-1.8,0.3-2.6c1.6-8.6,3.2-17.1,4.7-25.7c0.2-0.9,0.4-1.4,1.5-1.4
	c4.7,0.1,9.4,0,14.1,0.1c0.2,0,0.3,0.1,0.4,0.2c-0.4,3.5-0.4,3.5-3.6,3.5c-2.5,0-5,0-7.4,0c-0.7-0.1-1.3,0.3-1.5,1c0,0,0,0.1,0,0.1
	c-0.4,2.1-0.8,4.2-1.2,6.3c-0.2,1.1,0.1,1.6,1.3,1.6c2.9,0,5.8,0,8.6,0C339.8,222.8,340.3,222.6,340.7,223z"/>
<path class="st1" d="M713.5,235.9h11.2c0.1,0.3,0.2,0.5,0.2,0.6c-0.3,3.1-0.3,3.1-3.3,3.1c-3.7,0-7.4,0-11,0c-0.7,0.1-1.4,0-2-0.3
	c0.6-3.2,1.2-6.5,1.8-9.8c1.1-5.8,2.1-11.6,3.2-17.4c0.4-2.1,0.4-2.2,2.5-2.2c4.5,0,8.9,0,13.3,0c0.6,0.4,0.4,0.8,0.4,1.2
	c-0.3,2.5-0.3,2.5-2.9,2.5s-5.3,0-7.9,0c-1.1,0-1.5,0.4-1.7,1.5c-0.3,2-0.8,4.1-1.2,6.1c-0.2,1.3-0.1,1.5,1.3,1.5c2.4,0,4.8,0,7.2,0
	h2.5c0.3,0.3,0.4,0.8,0.3,1.2c-0.3,2.5-0.3,2.5-3,2.5h-6.7c-2.6,0-2.6,0-3.1,2.6C714,231.4,713.6,233.6,713.5,235.9z"/>
<path class="st1" d="M579.5,222.9c-0.1,0.7-0.1,1-0.1,1.4c-0.4,2.2-0.4,2.2-2.5,2.2c-2.7,0-5.4,0-8.2,0c-1.1,0-1.7,0.2-1.9,1.5
	c-0.2,2.1-0.8,4.1-1.1,6.1c-0.3,1.7-0.3,1.8,1.4,1.8c2.6,0,5.3,0,7.9,0c0.6-0.1,1.3,0,1.9,0.2c0.1,0.2,0.1,0.5,0.1,0.7
	c-0.3,2.8-0.3,2.8-3.1,2.8h-13.1c0.2-2.5,0.6-5.1,1.2-7.5c1.2-6.7,2.5-13.3,3.7-20c0.4-2.1,0.4-2.1,2.6-2.1h13.3
	c0.3,0.5,0.4,1.1,0.2,1.7c-0.3,2-0.3,2-2.4,2c-2.6,0-5.3,0-7.9,0c-1.8,0-1.8,0-2.2,1.7c-0.4,1.9-0.8,3.8-1.1,5.7
	c-0.3,1.5-0.2,1.7,1.3,1.7c2.8,0,5.6,0,8.4,0C578.4,222.8,578.8,222.8,579.5,222.9z"/>
<path class="st1" d="M750.6,210c-1.2,6.4-2.3,12.5-3.5,18.6c-0.2,1.3-0.5,2.7-0.8,4c-1.4,5-5.5,7.9-10.3,7.5c-3.5-0.3-5.6-2.3-6.1-6
	c1-0.2,2-0.3,3-0.2c0.6-0.1,1.2,0.3,1.5,0.8c1.7,2.4,5,2.2,6.8-0.2c0.7-1.1,1.2-2.3,1.3-3.5c1.2-6.2,2.3-12.4,3.4-18.6
	c0.4-2.4,0.4-2.4,2.8-2.4L750.6,210z"/>
<path class="st1" d="M375.9,210c-0.6,3.7-0.6,3.7-3.9,3.7c-0.3,0-0.7,0-1,0c-1.2-0.1-1.6,0.4-1.8,1.6c-1,6-2.2,11.9-3.3,17.9
	c-0.3,1.7-0.7,3.4-0.9,5.2c-0.1,1-0.5,1.4-1.5,1.3c-0.8-0.1-1.8,0.2-2.8-0.3c0.6-3.2,1.2-6.5,1.8-9.8c0.8-4.5,1.7-9.1,2.6-13.6
	c0.1-0.4,0.1-0.8,0.2-1.2c0.1-0.7-0.2-1-0.9-1c-1.1,0-2.2,0-3.3,0c-1.1,0-1.3-0.4-1.1-1.3c0.1-0.4,0.2-0.8,0.2-1.2
	c0.1-1,0.6-1.3,1.6-1.3c3.2,0,6.4,0,9.6,0L375.9,210z"/>
<path class="st1" d="M556.3,235.9c0,0.2,0.1,0.4,0.1,0.5c-0.3,3.2-0.3,3.2-3.4,3.2s-6.2,0-9.3,0c-0.8,0.1-1.5,0-2.2-0.3
	c1-5.3,1.9-10.6,2.9-15.9c0.7-3.9,1.5-7.8,2.2-11.8c0.3-1.7,0.3-1.7,2.2-1.7c0.6,0,1.2,0,2.3,0c-1.6,8.7-3.2,17.2-4.8,25.9
	L556.3,235.9z"/>
<path class="st1" d="M704.1,236.1c0,0.2,0.1,0.3,0.1,0.5c-0.4,3-0.4,3-3.4,3h-11.7c0.8-4.6,1.6-9,2.4-13.3c0.9-4.9,1.8-9.7,2.7-14.6
	c0.3-1.7,0.3-1.7,2.1-1.8c0.6,0,1.3,0,1.9,0c0.3,0.7,0.3,1.5,0.1,2.2c-1.3,7.1-2.7,14.3-4,21.4c-0.1,0.4-0.1,0.8-0.2,1.2
	c-0.2,1,0.2,1.3,1.2,1.2c2.5,0,5,0,7.4,0C703.2,235.9,703.7,235.9,704.1,236.1z"/>
<path class="st1" d="M530.5,210.2c-0.2,2.4-0.6,4.7-1.1,7c-1,5.5-2.1,11-3.1,16.5c0,0.2-0.1,0.5-0.1,0.7c-0.2,1.1,0,1.6,1.3,1.6
	c2.1-0.1,4.2,0,6.2,0h2.3c0.1,0.3,0.2,0.5,0.2,0.6c-0.4,3.1-0.4,3.1-3.6,3.1h-11.5c0.5-2.8,1-5.5,1.4-8.1c1.2-6.6,2.5-13.2,3.7-19.7
	c0.3-1.8,0.3-1.8,2.3-1.8C529.2,209.9,529.9,210,530.5,210.2z"/>
<path class="st1" d="M376.1,239.3c0.5-2.7,1-5.5,1.5-8.3c1.1-6.3,2.3-12.5,3.5-18.8c0.4-2.3,0.4-2.2,2.7-2.2c0.4,0,0.8,0,1.2,0
	c0.2,0.1,0.4,0.1,0.6,0.2c-0.5,2.5-0.9,5.1-1.4,7.6c-1.2,6.6-2.4,13.2-3.7,19.7c-0.4,2-0.4,2-2.4,2
	C377.5,239.7,376.8,239.6,376.1,239.3z"/>
<path class="st2" d="M624.2,268c0-0.2,0.1-0.4,0.2-0.5C624.7,267.9,624.2,267.8,624.2,268L624.2,268z"/>
</svg>
