<svg id="Capa_2" data-name="Capa 2" xmlns="http://www.w3.org/2000/svg" viewBox="0 0 494.79 524.69"><path d="M338.32,32.88a17.16,17.16,0,0,0-1.75-.8,104.74,104.74,0,0,0-23-5.21c-9.71-1-19.35-.62-28.75,2.27-18.79,5.79-30.65,18.32-35.69,37.27a70.63,70.63,0,0,0-1.74,24.67,101.61,101.61,0,0,0,1.72,11.67,17,17,0,0,0,1.06,3.52c1,2.35,2.77,3,5.22,2.28.7-.22,1.39-.48,2.07-.76a161.35,161.35,0,0,1,31.35-9.07,42,42,0,0,1,11-.7,24.37,24.37,0,0,1,14.34,5.8,34.4,34.4,0,0,1,7.3,8.9A98.41,98.41,0,0,0,332.64,128a96.32,96.32,0,0,0,35,25.35,60.1,60.1,0,0,0,14.62,4.14,38.91,38.91,0,0,0,14.19-.34,26.92,26.92,0,0,0,12.21-6.06,10.33,10.33,0,0,1,5.22-2.56,11.2,11.2,0,0,1,5.33.53,14.4,14.4,0,0,1,9.73,17.52,18.46,18.46,0,0,1-2.46,5.6,37.36,37.36,0,0,1-19.56,15,55.4,55.4,0,0,1-22.79,2.74c-15.64-1.22-29.82-6.71-43.07-14.83a145.13,145.13,0,0,1-41.57-39c-.53-.73-1-1.47-1.55-2.22a8,8,0,0,0-8.78-3.49,104.29,104.29,0,0,0-19.49,5.9c-3,1.23-6,2.6-9,3.89A54.05,54.05,0,0,1,248,144.16a26.38,26.38,0,0,1-8.82.06A18.49,18.49,0,0,1,228.26,138a32,32,0,0,1-4.88-7.65,68.31,68.31,0,0,1-4.7-14.73,109,109,0,0,1-2.61-25.4,77.78,77.78,0,0,1,5.66-28.56c7.72-18.55,21.32-30.75,40.39-36.89a83.17,83.17,0,0,1,27.42-3.67c14.85.3,29.06,3.7,42.92,8.8,1.76.65,3.5,1.39,5.24,2.09.42.17.69.43.61.92Z" transform="translate(-36.39 -21.05)"/><path d="M338.38,239.68a6.08,6.08,0,0,0-1-.18c-.57,0-1.15,0-1.72,0q-49.11,0-98.22,0a15.39,15.39,0,0,0-3.65.37,8.44,8.44,0,0,0-6.33,7.61c-.06.74,0,1.48,0,2.22,0,2.21,0,4.42,0,6.74a10.42,10.42,0,0,0,1.46.29c.73.05,1.47,0,2.21,0h53.42a8.82,8.82,0,0,1,2.86.17c.39,1.89.45,13.76.09,16.3a5,5,0,0,1-2.61.25H229.47c-.57,0-1.13.06-1.83.1a10.47,10.47,0,0,0-.21,1.46c0,5.33-.06,10.67,0,16a8.56,8.56,0,0,0,8.45,8.77c.82,0,1.64,0,2.46,0h62.77c1,0,1.94.05,3,.07a16.35,16.35,0,0,1,.23,4.26c0,1.31,0,2.63,0,3.94v4.18c0,1.31,0,2.61,0,4a16.33,16.33,0,0,1-1.8.25c-1.48,0-2.95,0-4.43,0H237.3a29.06,29.06,0,0,1-9-1.21,25.23,25.23,0,0,1-17.61-23.9q-.08-21.8,0-43.58a25.21,25.21,0,0,1,19.75-24.47,45.74,45.74,0,0,1,5.37-.63,14.4,14.4,0,0,1,1.47,0H393.45a5.08,5.08,0,0,1,.33,1.2q0,7.26,0,14.53a4.11,4.11,0,0,1-.18.8,6.86,6.86,0,0,1-2.63.2h-35.3a11.36,11.36,0,0,0-.31,1.46c-.05.74,0,1.48,0,2.22v69.91c0,1,0,1.95-.06,3a3.64,3.64,0,0,1-1,.32q-7.38,0-14.77,0a4.28,4.28,0,0,1-.77-.22,5.94,5.94,0,0,1-.17-.92c0-.82,0-1.64,0-2.46V242.64A9.32,9.32,0,0,0,338.38,239.68Z" transform="translate(-36.39 -21.05)"/><path d="M150.91,371.39a5.68,5.68,0,0,0,2.6.25h21.41q16.37,0,32.73,0a6.93,6.93,0,0,1,2.9.23,109.13,109.13,0,0,1,0,16.27,9.93,9.93,0,0,1-2.84.17H156.48c-1.4,0-2.79,0-4.19,0a13.92,13.92,0,0,0-1.51.21c-.06.64-.15,1.19-.15,1.75,0,5.08.1,10.17,0,15.26a8.86,8.86,0,0,0,9.17,9.13c7.38,0,14.77,0,22.15,0h42.58c.89,0,1.78,0,2.53.06a3.07,3.07,0,0,1,.31.3.43.43,0,0,1,.09.21q0,7,.08,14c0,.57-.06,1.14-.1,1.83-.48.1-.93.23-1.39.28a10.1,10.1,0,0,1-1.23,0h-65A25,25,0,0,1,146,427.62c-7.77-5-11.94-12.11-12.05-21.31-.17-14.52-.1-29.05,0-43.57a25.25,25.25,0,0,1,20.71-24.68,27.6,27.6,0,0,1,4.9-.37q32.73,0,65.46,0c.73,0,1.46.06,2.25.09.53,1.85.2,3.66.25,5.44s0,3.6,0,5.41,0,3.58,0,5.5c-.62.09-1.08.2-1.54.22-.82,0-1.64,0-2.46,0H161.2a22.65,22.65,0,0,0-3.19.15,8.52,8.52,0,0,0-7.27,7A61.86,61.86,0,0,0,150.91,371.39Z" transform="translate(-36.39 -21.05)"/><path d="M427.06,363.36a11.63,11.63,0,0,1-1.3.13h-15c-.18-.86-.31-1.58-.48-2.28a8.43,8.43,0,0,0-8-6.73c-.66,0-1.32,0-2,0H365.53c-.74,0-1.48,0-2.21,0a8.79,8.79,0,0,0-2,17.08,11.92,11.92,0,0,0,3.15.38c3.86,0,7.72,0,11.57,0h20.68a29.49,29.49,0,0,1,12.23,2.35c10.39,4.68,16.52,12.64,18,24a29.48,29.48,0,0,1-24.27,32.54,31.37,31.37,0,0,1-5.39.45c-9.6,0-19.2.18-28.8,0-12.86-.27-22.11-6.35-27.52-18.07a25.82,25.82,0,0,1-2.28-9.76,8,8,0,0,1,0-1,2.91,2.91,0,0,1,.22-.61,60.19,60.19,0,0,1,8-.17c2.7,0,5.4,0,8.22,0,.13.6.27,1,.32,1.51A12.91,12.91,0,0,0,368,414.61c.49,0,1,0,1.47,0,8.95,0,17.89,0,26.83,0a28.13,28.13,0,0,0,3.43-.26,12.82,12.82,0,0,0-.25-25.35,23.78,23.78,0,0,0-3.68-.24c-10.58,0-21.16,0-31.75,0a23.18,23.18,0,0,1-10.27-2.09C344.26,382.1,339,374.55,338.69,364c-.32-10.35,4.28-18.15,13.24-23.31a23.27,23.27,0,0,1,11.8-3c12.79,0,25.59-.05,38.39,0a25.16,25.16,0,0,1,24.44,19.78c.32,1.51.44,3.08.62,4.62A6.83,6.83,0,0,1,427.06,363.36Z" transform="translate(-36.39 -21.05)"/><path d="M258,388.44a5.59,5.59,0,0,0-.3,2.72q0,15,0,30,0,3.69,0,7.38c0,.81,0,1.62-.05,2.48a4.48,4.48,0,0,1-1,.31q-7.4,0-14.77,0a3.21,3.21,0,0,1-.6-.15,10.4,10.4,0,0,1-.28-1.33c0-.66,0-1.32,0-2V338c.63-.13,1.08-.25,1.55-.3a10.07,10.07,0,0,1,1.23,0q27.81,0,55.63,0a26.33,26.33,0,0,1,12.12,2.7,25.33,25.33,0,0,1-6,47.35c-.63.13-1.25.34-2.05.56.45.91.83,1.7,1.23,2.49q9.64,19,19.29,37.94a5.27,5.27,0,0,1,.95,2.45c-2,.31-15.85.34-18.41,0-.37-.69-.8-1.47-1.2-2.26q-8-15.56-15.87-31.12a16.82,16.82,0,0,0-9.2-8.45,15.65,15.65,0,0,0-5.52-1.07c-5.26-.06-10.51,0-15.76,0A5.06,5.06,0,0,0,258,388.44Zm-.05-16.95c1,0,1.87.06,2.76.06h17.48c7,0,13.95,0,20.92,0a12.91,12.91,0,0,0,3.41-.33,8.58,8.58,0,0,0-1.35-16.73,24.39,24.39,0,0,0-2.7-.12H276.51c-5.5,0-11,0-16.5,0-.71,0-1.48-.21-2.1.34A132.17,132.17,0,0,0,257.9,371.49Z" transform="translate(-36.39 -21.05)"/><path d="M273.25,503.06v21.28c0,3.53,0,7.06,0,10.58s.08,7-.06,10.31a4.44,4.44,0,0,1-.35.38.48.48,0,0,1-.23.07l-15,0a5.41,5.41,0,0,1-.84-.16c-.07-.44-.18-.9-.21-1.37s0-1.15,0-1.72V455.33c0-1,0-1.93.07-3.06.85-.06,1.56-.16,2.27-.16h16.74q20.06,0,40.11,0a23.93,23.93,0,0,1,15.3,5.22,24.77,24.77,0,0,1,9.8,21.74,25.15,25.15,0,0,1-19.63,23l-2,.47a4.7,4.7,0,0,0,.93,2.41q7.33,14.49,14.73,28.94c1.56,3.07,3.13,6.14,4.68,9.21.37.72.7,1.46,1,2.08-.13.61-.52.53-.81.53q-8.49,0-17,0a4.16,4.16,0,0,1-.67-.12c-.36-.68-.79-1.46-1.2-2.25q-7.95-15.55-15.88-31.11a17.08,17.08,0,0,0-5.49-6.51,14.5,14.5,0,0,0-8-2.87c-5.75-.1-11.49-.05-17.23-.05A5.84,5.84,0,0,0,273.25,503.06Zm.25-17h41c.58,0,1.15,0,1.72,0a8.6,8.6,0,0,0,6.42-13.54,7.75,7.75,0,0,0-6.63-3.61q-20.76,0-41.53,0a5,5,0,0,0-.92.18,2.72,2.72,0,0,0-.22.76q0,7.49,0,15A9.63,9.63,0,0,0,273.5,486Z" transform="translate(-36.39 -21.05)"/><path d="M397.92,452.13A46.81,46.81,0,1,1,351,498.82,46.8,46.8,0,0,1,397.92,452.13Zm-.05,16.72a30.09,30.09,0,1,0,30.06,30C427.92,482.38,414.22,468.68,397.87,468.85Z" transform="translate(-36.39 -21.05)"/><path d="M484.24,431.05c-25.75.11-46.75-21.19-46.7-46.91a46.82,46.82,0,1,1,46.7,46.91Zm.11-16.73a30.08,30.08,0,1,0-30.08-30C454.3,400.94,468.09,414.52,484.35,414.32Z" transform="translate(-36.39 -21.05)"/><path d="M175.74,502.91a38.19,38.19,0,0,0-.11,4.65c0,1.56,0,3.12,0,4.68v23.88c0,1.55,0,3.11,0,4.67a40.22,40.22,0,0,1-.08,4.44c-.22.24-.26.31-.33.35a.67.67,0,0,1-.24.07l-14.76.06a9.18,9.18,0,0,1-1.09-.12c-.07-.49-.17-1-.2-1.41s0-1.15,0-1.72V455.32c0-1,0-1.94.05-3a12.06,12.06,0,0,1,1.51-.21c1.23,0,2.46,0,3.69,0h52.67a28.49,28.49,0,0,1,8.26,1,25.33,25.33,0,0,1-2,49.09,27.71,27.71,0,0,1-5.37.54c-13,0-25.92,0-38.88,0A10.19,10.19,0,0,0,175.74,502.91Zm.22-17.05c.68,0,1.4.13,2.12.13q19.32,0,38.64,0a15.41,15.41,0,0,0,3.17-.3,8.45,8.45,0,0,0,6.6-8.14,8.53,8.53,0,0,0-6.2-8.48,13.92,13.92,0,0,0-3.42-.29c-5,0-10,0-15,0H178.48a6.54,6.54,0,0,0-2.58.2C175.53,471.49,175.57,483.89,176,485.86Z" transform="translate(-36.39 -21.05)"/><path d="M197.27,223.11v93.12a5.55,5.55,0,0,1-1.21.29q-7,0-14,0a8.66,8.66,0,0,1-1.32-.21c-.22-2.5-.08-4.95-.1-7.39s0-4.93,0-7.39v-44c-.93-.23-1.35.39-1.83.76q-10.72,8.24-21.45,16.51L150.59,280c-.64-.43-1.26-.79-1.82-1.23L123,258.93c-.7-.54-1.43-1-2.28-1.66a3.9,3.9,0,0,0-.34,2.24c0,7.38,0,14.77,0,22.15,0,.89,0,1.78-.07,2.82a60.58,60.58,0,0,1-8.38.2c-2.69.05-5.38,0-8.11,0a12.65,12.65,0,0,1-.2-1.44q0-29.9,0-59.8c1-.18,1.49.5,2,.92Q114.37,231,123,237.72l25.53,19.68c.58.45,1.19.87,1.76,1.29a7.39,7.39,0,0,0,2.51-1.64q20.78-16,41.52-32A11.93,11.93,0,0,1,197.27,223.11Z" transform="translate(-36.39 -21.05)"/><path d="M83.82,431.09,36.39,338a7,7,0,0,1,1.29-.33q8.24,0,16.48,0a6.62,6.62,0,0,1,.91.17c3.25,6.13,6.39,12.43,9.6,18.69S71,369,74.16,375.18s6.34,12.58,9.6,18.8c.22-.09.29-.11.36-.15a.94.94,0,0,0,.19-.14,1,1,0,0,0,.16-.19,4.5,4.5,0,0,0,.23-.43l.24-.43,27.59-54.12a2.39,2.39,0,0,1,.13-.21.92.92,0,0,1,.13-.21c0-.06.12-.1.33-.28a22.62,22.62,0,0,1,4.47-.14c1.56,0,3.12,0,4.68,0h4.43a35.81,35.81,0,0,1,4.79.14c-.27.68-.41,1.13-.62,1.55C122.72,356.14,85.53,428.73,83.82,431.09Z" transform="translate(-36.39 -21.05)"/><path d="M322.24,36.2a87.89,87.89,0,0,1,30.43,6A119.57,119.57,0,0,1,384.45,60.7a144.74,144.74,0,0,1,33.74,37.83A103.71,103.71,0,0,1,431,129c.54,2.31.94,4.66,1.32,7a8.05,8.05,0,0,1,0,2.45,2.36,2.36,0,0,1-3,2.16,10.14,10.14,0,0,1-2.74-1,13.18,13.18,0,0,1-3.94-3.3,19.2,19.2,0,0,1-4.76-11.6A53.37,53.37,0,0,0,414.26,109a88.06,88.06,0,0,0-15.65-26.29,95.26,95.26,0,0,0-32.44-25.11A67.33,67.33,0,0,0,348.66,52a38.8,38.8,0,0,0-17.54.74c-8.44,2.49-14.19,7.93-17.46,16-.28.68-.49,1.39-.72,2.09a14.62,14.62,0,0,1-5.24,7.28,21.1,21.1,0,0,1-18.18,3.64,13.33,13.33,0,0,1-3.38-1.42,10.39,10.39,0,0,1-5.45-8.55,14.4,14.4,0,0,1,.24-4.4c2-9,6.37-16.65,13.66-22.46A40,40,0,0,1,312.9,37,68.21,68.21,0,0,1,322.24,36.2Z" transform="translate(-36.39 -21.05)"/><path d="M223.55,200.11l-10.82,4.22c-.25-.16-.74-.43-1.19-.75-6.9-4.92-14.38-6-22.41-3.37-.54.17-1.08.3-1.68.46-.36-.55-.69-1-1-1.49a188.87,188.87,0,0,1-19.83-48.8c-.82-3.34-1.55-6.71-2.14-10.1a16.88,16.88,0,0,1,8.33-18,13.22,13.22,0,0,1,8.75-1.73,10.43,10.43,0,0,1,7.47,5.06,15.16,15.16,0,0,1,1.89,4.78c5.47,24.63,16.39,46.75,30.9,67.22C222.41,198.44,223,199.25,223.55,200.11Z" transform="translate(-36.39 -21.05)"/><path d="M425.58,223.15a10.69,10.69,0,0,1,.7,1.07q15.3,30,30.56,59.94c-.22.25-.32.45-.42.45-6,0-12,0-18.13,0-4.24-8.07-8.27-16.3-12.55-24.49-.95.44-1.09,1.31-1.44,2q-8.55,16.75-17.09,33.53-4.74,9.31-9.51,18.62c-.36.72-.78,1.42-1.12,2a168,168,0,0,1-18.39-.05c-.13-.78.4-1.36.72-2q6-11.85,12-23.69,16.53-32.43,33.06-64.86A8.6,8.6,0,0,1,425.58,223.15Z" transform="translate(-36.39 -21.05)"/><path d="M317.17,198.43c-.38.2-.58.38-.78.39-.65,0-1.31,0-2,0h-46c-.49,0-1,0-1.48,0a2.42,2.42,0,0,1-2-.8,70.48,70.48,0,0,1-10-12.08,20,20,0,0,1-3-8.5,16.4,16.4,0,0,1,28.81-12.13,24.76,24.76,0,0,1,1.66,2.13,99.48,99.48,0,0,0,18.15,19A160,160,0,0,0,315,197C315.71,197.43,316.37,197.89,317.17,198.43Z" transform="translate(-36.39 -21.05)"/><path d="M380.41,121.45a22.77,22.77,0,0,1-9.5-2.28,41.59,41.59,0,0,1-20.7-20.81,21.45,21.45,0,0,1-2.15-10,16.41,16.41,0,0,1,.54-3.63,10.45,10.45,0,0,1,7-7.37,16.79,16.79,0,0,1,9.45-.21,27.25,27.25,0,0,1,6.45,2.36,41.94,41.94,0,0,1,18.79,19.13,22.43,22.43,0,0,1,2.58,11.13,14.71,14.71,0,0,1-.64,3.86,10.7,10.7,0,0,1-9.09,7.61C382.22,121.38,381.31,121.38,380.41,121.45Z" transform="translate(-36.39 -21.05)"/><path d="M168.83,59.7c-.43.46-.85.93-1.29,1.38-11.87,12.18-19.42,26.7-23.32,43.17a119,119,0,0,0-2.61,37.39c.27,3.27.67,6.52,1,9.78a12.78,12.78,0,0,1-7.17,13.36,9.26,9.26,0,0,1-3.78,1,6,6,0,0,1-5.87-3.29,10.19,10.19,0,0,1-1.27-4.46c-1-17.55.92-34.71,7.06-51.29a91.38,91.38,0,0,1,15.17-26.3A123.71,123.71,0,0,1,168.83,59.7Z" transform="translate(-36.39 -21.05)"/><path d="M242.77,24c-.09.22-.12.57-.27.63-.68.27-1.4.45-2.1.67a72.71,72.71,0,0,0-27.72,15.42,72.14,72.14,0,0,0-20.25,31.78,81.46,81.46,0,0,0-2.93,11.68,12.5,12.5,0,0,1-6.89,9.33A14.82,14.82,0,0,1,174,95.13a8.61,8.61,0,0,1-4.93-2,6.53,6.53,0,0,1-2.3-4.48,12.61,12.61,0,0,1,.54-5.1c5.94-18.88,17-33.87,33.9-44.34a107.47,107.47,0,0,1,26.53-11.52q7.08-2.09,14.32-3.46a4.73,4.73,0,0,0,.68-.26Z" transform="translate(-36.39 -21.05)"/><path d="M153,192.44c0,6.63-4.23,11.41-10.16,11.88a9.39,9.39,0,0,1-7.65-2.71c-3.6-3.62-5.08-8-3.79-13A11.48,11.48,0,0,1,142,180a9,9,0,0,1,8.62,4.67A17.82,17.82,0,0,1,153,192.44Z" transform="translate(-36.39 -21.05)"/><path d="M436.52,130.46c.84.25,1,1,1.2,1.71,1.63,4.46,3.36,8.89,4.82,13.4a125,125,0,0,1,5.28,24.48,91.36,91.36,0,0,1-2.29,34.88c-.24.86-.54,1.71-.84,2.56,0,.12-.23.18-.35.27-5.58-5.17-4-4.1-10.94-7.81a3.73,3.73,0,0,1,.87-1.67,58.28,58.28,0,0,0,8.37-24.7c1.42-12.35-.29-24.37-3.78-36.19a38.42,38.42,0,0,0-2.38-6.94Z" transform="translate(-36.39 -21.05)"/><path d="M118.87,127.45a11.8,11.8,0,0,0-.72,1.53,123.85,123.85,0,0,0-5.08,27.74,147.66,147.66,0,0,0,3.87,43.19c.22,1,.38,1.91.57,2.87,0,.06-.08.14-.15.28-1.52-.78-3-1.66-4.56-2.32s-3.23-1.13-4.89-1.69c-.18-1.34-.4-2.63-.51-3.93a133.86,133.86,0,0,1,.21-27,150.24,150.24,0,0,1,9.51-37.79,23.45,23.45,0,0,1,1-2.24c.13-.25.46-.41.69-.61Z" transform="translate(-36.39 -21.05)"/><path d="M135.34,529a8.39,8.39,0,1,1-8.34,8.5A8.32,8.32,0,0,1,135.34,529Z" transform="translate(-36.39 -21.05)"/><path d="M103.61,308.15a8.4,8.4,0,1,1,8.48,8.37A8.39,8.39,0,0,1,103.61,308.15Z" transform="translate(-36.39 -21.05)"/><path d="M451.29,308.24a8.35,8.35,0,0,1,8.31-8.52,8.4,8.4,0,0,1,.23,16.79A8.28,8.28,0,0,1,451.29,308.24Z" transform="translate(-36.39 -21.05)"/><path d="M242.78,24h1.5l0,.18L242.77,24Z" transform="translate(-36.39 -21.05)"/><path d="M340,33.18l-1.68-.3h0c.59-.1,1.22-.47,1.63.32Z" transform="translate(-36.39 -21.05)"/><path d="M436.48,130.45l0-.42c0,.14,0,.28,0,.43Z" transform="translate(-36.39 -21.05)"/><path d="M118.8,127.48l0-.35,0,.32Z" transform="translate(-36.39 -21.05)"/><path d="M339.94,33.2l.48,0a1.08,1.08,0,0,1-.18,0l-.22-.06Z" transform="translate(-36.39 -21.05)"/></svg>