<?xml version="1.0" encoding="UTF-8"?>
<svg id="Capa_1" data-name="Capa 1" xmlns="http://www.w3.org/2000/svg" viewBox="0 0 378.76 287.67">
  <path d="m0,221.47v-61.78c0-2-.21-1.91,1.83-1.91h85.89c1.54,0,1.55,0,1.55,1.57v18.75c0,1.62,0,1.63-1.64,1.63H26.49c-2.63,0-2.3-.33-2.3,2.38v27.74c0,.59.23.87.84.85s.94,0,1.42,0h59.56c1.55,0,1.56,0,1.56,1.55v18q0,1.6-1.65,1.6H26.32c-2.41,0-2.15-.29-2.15,2.21v28.37c0,.64.2,1,.9,1h62.25c2.13,0,2-.2,2,1.94v19.34c.02.31-.22.57-.53.59-.02,0-.04,0-.06,0H1.21c-1.17,0-1.2,0-1.2-1.27v-62.56Z"/>
  <path d="m178.77,199.51v-6.24c0-2.36-.27-2.1,2.1-2.11h20.96c.51,0,.79.2.77.74v91.73c0,1.48,0,1.5-1.45,1.5h-20.32c-2.35,0-2,.24-2.06-2.14v-5c0-.29.11-.62-.27-1-12,9.6-25.73,12.54-40.67,9.57-11.7-2.23-22.13-8.76-29.26-18.3-14.46-18.89-13.45-45.38,2.4-63.12,16.06-18.17,46.71-22.95,67.8-5.63Zm.35,38.95c.14-15.86-12.6-28.82-28.45-28.96s-28.82,12.6-28.96,28.45c-.14,15.76,12.45,28.69,28.21,28.96,17.04.24,29.41-13.51,29.21-28.45h0Z"/>
  <path d="m135.84,46.16c10.65-10.2,23.11-14.57,37.41-13.45,12.64.8,24.42,6.69,32.66,16.31,16.7,18.99,15.95,47.64-1.72,65.73-17.87,18.3-48.87,20-68.35.92-.47.22-.23.64-.24,1v9.14c0,1.32.09,1.33-1.25,1.33h-15.45q-1.28,0-1.29-1.28v-.63c0-41.08,0-82.16,0-123.23,0-2.19-.35-1.93,1.89-1.94h14.82c1.76,0,1.53-.05,1.53,1.52v44.64-.06Zm-.81,34.8c0,17.71,14.36,32.06,32.07,32.05,17.71,0,32.06-14.36,32.05-32.07,0-17.71-14.36-32.06-32.07-32.05-.02,0-.03,0-.05,0-17.62-.06-31.94,14.18-32,31.8,0,.09,0,.18,0,.27Z"/>
  <path d="m81.99,115.16c-1.33,1.21-2.35,2.19-3.43,3.09-7.87,6.68-17.78,10.51-28.1,10.85-9.07.51-18.1-1.54-26.06-5.91-12-6.72-19.23-17.06-22.47-30.31-1.06-4.45-1.57-9.01-1.54-13.58V.66C.39.18.6,0,1.05,0h17.17c1.56,0,1.38-.13,1.38,1.48v76.59c-.13,5.74,1.02,11.44,3.38,16.68,4.62,9.76,12.28,15.52,23,17,9.55,1.3,18.15-1,25.38-7.56,5.28-4.79,8.27-10.88,9.67-17.81.55-3,.8-6.04.74-9.09V1.96c0-2.17-.31-1.92,1.92-1.93h15.75c1.28,0,1.19,0,1.18,1.21v123.84c0,2.38.28,2-2,2h-15.44c-1.18,0-1.2,0-1.2-1.22v-10.7Z"/>
  <path d="m376.47,221.18c-.44.21-.95.28-1.43.19h-20.65c-1.47,0-1.5,0-1.89-1.41-1.57-5.76-5.4-9.25-11-10.82-4.52-1.21-9.23-1.59-13.89-1.1-2.25.15-4.47.61-6.6,1.37-1.54.54-2.94,1.42-4.09,2.58-1.19,1.22-1.9,2.83-2,4.53-.22,2.33,1.03,4.54,3.13,5.56,2.07,1.15,4.31,1.97,6.63,2.44,6.1,1.32,12.22,2.53,18.32,3.81,5.24,1.1,10.52,2,15.58,3.8,4.85,1.6,9.32,4.2,13.12,7.62,3.84,3.45,6.28,8.18,6.86,13.3,1.31,12.25-3.68,21.41-14,27.8-5.08,2.99-10.7,4.95-16.54,5.78-5.18.86-10.44,1.15-15.69.89-7.43-.35-14.73-1.42-21.65-4.33-12.18-5.12-19.43-14.25-22-27.16-.23-1.14-.21-1.17.88-1.18h21.59c1.13,0,1.28.62,1.54,1.37,1.46,4.76,5.08,8.54,9.77,10.21,1.72.64,3.51,1.09,5.33,1.35,4.73.75,9.54.85,14.29.28,3.35-.44,6.61-1.23,9.34-3.4,2-1.45,3.11-3.83,2.95-6.3-.05-1.6-.83-3.09-2.11-4.05-1.23-.9-2.61-1.58-4.07-2-3.8-1.2-7.74-1.86-11.61-2.81-7.54-1.85-15.18-3.28-22.65-5.39-5.56-1.42-10.77-3.97-15.31-7.49-5.23-4.1-8.29-10.36-8.31-17-.19-4.27.62-8.52,2.35-12.42,2.57-5.47,6.91-9.92,12.31-12.63,4.79-2.52,9.99-4.2,15.35-4.96,4.63-.75,9.31-1.06,14-.92,6.89.04,13.72,1.19,20.24,3.4,6.07,2.03,11.42,5.75,15.43,10.74,3.16,4.16,5.26,9.03,6.1,14.18.23,1.38.36,2.77.38,4.17Z"/>
  <path d="m319.69,86.75h-74.83c.02,1.28.25,2.55.67,3.76,3.34,12.15,13.74,21.04,26.26,22.44,11.93,1.24,21.72-2.88,29.34-12.14.83-1,.68-1.18,1.93-.25,3.58,2.66,7.19,5.29,10.79,7.92,1.53,1.1,1.4.88.35,2.19-6.65,8.67-16.12,14.75-26.78,17.18-13,3-25.51,1.54-37.16-5.08-13.13-7.47-20.9-18.88-23.32-33.76-2.21-13.52.43-26.06,8.66-37.13,7.39-10.23,18.63-17,31.13-18.74,22.45-3.47,44.94,9.34,51.32,34.19,1.14,4.43,1.69,8.99,1.64,13.57-.01,1.85,0,3.77,0,5.85Zm-18.48-14.5c-3.07-14.85-16.17-25.5-31.84-23.32-6.84.91-13.09,4.37-17.5,9.68-3.34,3.92-5.64,8.61-6.71,13.64h56.05Z"/>
  <path d="m230.83,238.31v-24.58c0-1.18,0-1.2-1.27-1.21h-15.91c-.6,0-.86-.26-.83-.85v-19.54c-.07-.75.25-1.07,1-1h15.75c1.43,0,1.45,0,1.45-1.48v-24.1c0-1.15,0-1.18,1.11-1.18h21.43c1.18,0,1.2,0,1.2,1.42v23.64c0,1.84-.15,1.72,1.68,1.72h24.27c.62,0,.84.28.81.86v19.07c0,1.44,0,1.46-1.48,1.46h-24.43c-.6,0-.89.23-.86.84v42.23c0,.62.06,1.25.12,1.88.31,3.5,2.74,5.57,6.16,6.14,1.19.2,2.4.3,3.61.29h16.1c.5,0,.8.19.78.74v19.69c0,.62-.28.85-.86.82h-26.15c-3.69.01-7.34-.76-10.7-2.27-7.76-3.52-12-9.6-12.78-18.06-.36-3.83-.14-7.66-.17-11.5-.06-5.05-.03-10.04-.03-15.03Z"/>
  <path d="m350.32,45.37c.67-.31.8-.8,1.07-1.16,4.58-6.54,12.08-10.41,20.06-10.36h6.15c.73,0,1,.19,1,1v15.13c0,.69-.22.92-.9.91h-6c-10.24-.29-17.67,6-20.19,15.79-.68,2.7-1.02,5.48-1,8.26,0,16.76,0,33.52,0,50.28,0,2.22.28,1.91-1.91,1.92h-15c-1.46,0-1.36,0-1.35-1.4V36.64c.02-.37.02-.73,0-1.1-.11-.86.29-1.06,1.08-1h15.92c.92,0,1,.38,1,1.12.01,3.14.07,6.34.07,9.71Z"/>
</svg>