<svg width="811.29" height="358.36" xmlns="http://www.w3.org/2000/svg" data-name="Capa 1">
 <g>
  <title>Layer 1</title>
  <path class="cls-1" d="m625.18,268.01001a171.88,171.88 0 0 1 -19.24,16.19c-19.93,14.82 -41.68,26.4 -64.5,36a455.73,455.73 0 0 1 -82.48,25.47q-19.93,4.24 -40.1,7c-11,1.51 -22,2.67 -33.11,3.58c-17.78,1.46 -35.59,2.08 -53.43,2q-19.42,0 -38.82,-1.29c-11.81,-0.77 -23.59,-1.84 -35.32,-3.34c-41.73,-5.2 -82.51,-14.48 -121.73,-29.97c-25,-9.87 -48.78,-22 -70.61,-37.78c-15.17,-11 -28.9,-23.5 -40.25,-38.47c-9.86,-13 -17.38,-27.19 -21.37,-43.08c-6.14,-24.45 -3.38,-48 7.44,-70.71c7.45,-15.63 17.92,-29.07 30.26,-41.12c15.78,-15.41 33.78,-27.81 53,-38.42c26.09,-14.37 53.69,-25 82.28,-33.18a511.93,511.93 0 0 1 56.07,-12.59q22.35,-3.74 44.91,-5.78q23,-2 46,-2.43c11.11,-0.2 22.22,-0.06 33.33,0.29s22.35,1.09 33.49,2.11c10.19,0.94 20.35,2.08 30.48,3.51c11.31,1.59 22.56,3.52 33.75,5.87c0.05,0 0.08,0.12 0.24,0.33a13.09,13.09 0 0 1 -1.78,0c-6.4,-1 -12.81,-1.83 -19.24,-2.51c-5.24,-0.55 -10.48,-1.17 -15.73,-1.64q-15,-1.33 -30.15,-1.93q-26.25,-1.07 -52.52,0q-20.48,0.89 -40.86,3.08c-18,1.94 -35.79,4.65 -53.47,8.3c-36.75,7.59 -72.33,18.7 -106,35.46c-17.95,8.92 -35,19.3 -50.47,32.09c-13.09,10.82 -24.66,23 -33.54,37.58a94.4,94.4 0 0 0 -13.35,36.16a84.55,84.55 0 0 0 4.39,41c4.79,13.25 12.2,24.93 21.33,35.58c12.5,14.57 27.31,26.43 43.41,36.75c22.79,14.62 47.26,25.71 72.77,34.62a482.7,482.7 0 0 0 69.19,18.4q20.37,3.87 41,6.24c19.07,2.23 38.2,3.46 57.38,4c16.16,0.44 32.3,0.12 48.43,-0.7q23.6,-1.18 47,-4.24a512.34,512.34 0 0 0 96.86,-21.74c25.08,-8.36 49.22,-18.85 71.89,-32.55c3.76,-2.28 7.42,-4.72 11.13,-7.07c0.66,-0.41 1.19,-1.11 2.1,-1l-0.06,-0.07z" fill="#000000" id="svg_1"/>
  <path class="cls-2" d="m714.64,92.34001a6.92,6.92 0 0 0 2.11,-2.48c6,-8.71 13.49,-15.62 23.58,-19.22c11.84,-4.23 23.76,-4.47 35.61,0.09a44.35,44.35 0 0 1 10.14,5.85a19.3,19.3 0 0 1 8,13.93a72.61,72.61 0 0 1 0.56,8.84q0,38.38 0,76.76c0,0.56 0,1.12 0,1.68c0,1.79 0,1.82 1.87,1.82c4.32,0 8.64,0 13,0c1.82,0 1.83,0 1.85,1.82s0,3.84 0,5.76c0,1 -0.38,1.29 -1.28,1.23c-0.56,0 -1.12,0 -1.68,0l-67.73,0a13.83,13.83 0 0 0 -1.44,0c-1.09,0.11 -1.36,-0.42 -1.33,-1.42c0.06,-1.84 0,-3.68 0,-5.52s0,-1.86 1.8,-1.87c3.12,0 6.24,0 9.36,0l3.6,0c2.06,0 2.08,0 2.08,-2.08q0,-40.9 0,-81.79a30.88,30.88 0 0 0 -0.89,-7.84c-1.48,-5.71 -6,-8.71 -11.9,-7.81a22.13,22.13 0 0 0 -7.2,2.51a50.59,50.59 0 0 0 -10.27,7.44c-4.42,4.13 -6.72,9.44 -8.19,15.18a67.62,67.62 0 0 0 -1.76,16.4c-0.07,18.47 0,36.94 0,55.41l0,0.48c0,2.07 0,2.09 2.11,2.09c4.47,0 9,0 13.43,0c1.23,0 1.7,0.31 1.63,1.6c-0.1,2 -0.06,4 0,6c0,1 -0.35,1.3 -1.26,1.23c-0.48,0 -1,0 -1.44,0l-68.64,0c-3.07,0 -2.59,0.3 -2.63,-2.71q0,-2.16 0,-4.32c0,-1.76 0,-1.78 1.88,-1.78c4.08,0 8.16,0 12.24,0a11.36,11.36 0 0 1 1.43,0c1.33,0.17 1.7,-0.51 1.59,-1.68c0,-0.4 0,-0.8 0,-1.2q0,-46.77 0,-93.55c0,-3.25 0.43,-3 -2.91,-3c-4.08,0 -8.16,0 -12.24,0c-1.24,0 -1.72,-0.34 -1.66,-1.63c0.09,-1.91 0,-3.83 0,-5.75c0,-1.61 0,-1.63 1.77,-1.64c2.8,0 5.6,0 8.4,0a244.14,244.14 0 0 0 37.72,-3.03a32.94,32.94 0 0 1 6,-0.65c2.79,0.07 2.62,-0.41 2.62,2.52c0,6.56 0,13.11 0,19.67c-0.04,0.74 0.02,1.52 0.07,2.66z" fill="#25292c" id="svg_2"/>
  <path class="cls-2" d="m367.03,166.84001a1.19,1.19 0 0 0 -1.09,0.81c-6.49,11.28 -16.49,17.84 -28.78,21.09a51.57,51.57 0 0 1 -30.22,-0.84a40.79,40.79 0 0 1 -11.08,-6.1c-5.18,-3.85 -7.39,-9.19 -8.12,-15.41a125.38,125.38 0 0 1 -0.72,-14.35c-0.06,-22.87 0,-45.73 0,-68.6a13.45,13.45 0 0 1 0,-1.68c0.17,-1.32 -0.49,-1.59 -1.67,-1.58c-4.39,0 -8.79,0 -13.19,0c-1.68,0 -1.7,0 -1.72,-1.73s0,-3.68 0,-5.52s0,-1.74 1.88,-1.75l51.82,0c0.56,0 1.12,0 1.68,0s1,0.29 1,1s0,1.28 0,1.92c0,25.11 0,50.21 0,75.31a166.76,166.76 0 0 0 0.77,18.43a33.58,33.58 0 0 0 0.68,4.25c0.86,3.52 3.15,5.41 6.78,5.75a17.75,17.75 0 0 0 8,-1a40.72,40.72 0 0 0 16.77,-11.6c3.65,-4.19 5.3,-9.22 6.17,-14.58a87.38,87.38 0 0 0 1,-14.08q0,-27 0,-54a6.15,6.15 0 0 1 0,-1c0.18,-1.24 -0.47,-1.45 -1.54,-1.43c-4.32,0 -8.64,0.05 -13,0c-1.57,0 -3.58,0.73 -4.6,-0.38s-0.21,-2.91 -0.26,-4.42c0,-1 0,-1.93 0,-2.88s0.41,-1.35 1.4,-1.32c2.08,0 4.16,0 6.24,0l48.7,0c0.56,0 1.12,0 1.67,0c1,-0.09 1.24,0.41 1.18,1.29c0,0.63 0,1.27 0,1.91l0,101.26c0,0.56 0,1.12 0,1.68c0,2.59 -0.39,2.49 2.39,2.49l11.58,0c0.4,0 0.81,0 1.2,0c1.09,-0.12 1.62,0.23 1.57,1.45c-0.09,1.91 -0.1,3.84 0,5.75c0.06,1.24 -0.48,1.5 -1.56,1.45c-1.27,0 -2.55,0 -3.83,0c-12.55,0.05 -25.11,-0.21 -37.65,0.45c-3.36,0.17 -6.65,0.82 -10,1.29c-3.48,0.5 -3.48,0.46 -3.48,-3.06l0.03,-20.27z" fill="#25292c" id="svg_3"/>
  <path class="cls-2" d="m209.08,174.64001a104.88,104.88 0 0 1 -8.41,6.67a58.27,58.27 0 0 1 -36.8,10.74c-8.51,-0.4 -16.38,-2.73 -22.68,-8.89s-8.83,-13.83 -8.16,-22.63c0.86,-11.34 6.55,-19.61 15.91,-25.64c6.73,-4.34 14.17,-7 21.87,-8.87a153.23,153.23 0 0 1 26.26,-4c2.79,-0.19 5.58,-0.39 8.37,-0.47c1.23,0 1.66,-0.47 1.63,-1.71c-0.18,-10.15 0.33,-20.3 -0.35,-30.44a29.15,29.15 0 0 0 -1.36,-7a8.16,8.16 0 0 0 -5.58,-5.46a26.86,26.86 0 0 0 -8.52,-1.13a34.74,34.74 0 0 0 -10.43,1.23a17.4,17.4 0 0 0 -5.94,3c-2.6,2.08 -2.8,3.68 -0.83,6.32a13.68,13.68 0 0 0 1.39,1.64c4.69,4.54 5.08,10 2.95,15.69c-2.45,6.55 -7.39,10.53 -14.26,11.85c-7.2,1.38 -13.69,-0.13 -18.94,-5.51s-6,-11.95 -3.56,-18.89a22.47,22.47 0 0 1 6.38,-9.16c6.09,-5.58 13.33,-9 21.21,-11.16a96.73,96.73 0 0 1 19.37,-3a142.61,142.61 0 0 1 21.08,0.17a92.07,92.07 0 0 1 21.79,4.3c9.36,3.13 14,9.87 15,19.39a58,58 0 0 1 0.29,6.46q0,29.49 0,59a38,38 0 0 0 0.69,8.58a14.47,14.47 0 0 0 1.8,4.66a7.06,7.06 0 0 0 8.5,3.14a18,18 0 0 0 3.89,-1.85a0.86,0.86 0 0 1 1.37,0.35q1.46,2.48 3,4.92a1.12,1.12 0 0 1 -0.18,1.5c-6.2,6.92 -13.52,11.92 -22.93,13.31c-11.87,1.76 -21.48,-2.39 -29.23,-11.27c-1.57,-1.83 -2.97,-3.77 -4.59,-5.84zm-2.08,-31.5c0,-4.08 0,-8.15 0,-12.23c0,-1.68 0,-1.74 -1.75,-1.65c-2.47,0.13 -5,0.27 -7.41,0.56a49.6,49.6 0 0 0 -15.05,3.72a17,17 0 0 0 -9.7,11.22a31.5,31.5 0 0 0 -0.25,16.82c2.36,9.25 9.2,14.11 18.6,13.25c6.36,-0.58 10.91,-3.81 13.23,-9.88a28.29,28.29 0 0 0 1.53,-6a105.49,105.49 0 0 0 0.8,-15.81z" fill="#25292c" id="svg_4"/>
  <path class="cls-2" d="m654.22,147.88001c-5.54,24.31 -20.79,39.06 -42.59,43.1c-13.84,2.57 -27.39,1.29 -40.2,-5c-9.75,-4.8 -17.06,-12.29 -22.88,-21.3c-17.82,-27.6 -13.55,-66.59 18,-88.29a51.46,51.46 0 0 1 25.35,-8.62a59.24,59.24 0 0 1 30.81,5.21c15.54,7.35 25.09,19.58 29.29,36.14a103.93,103.93 0 0 1 2.25,12.23c0.19,1.43 0.13,1.5 -1.3,1.57c-0.56,0 -1.12,0 -1.68,0l-65.77,0c-0.56,0 -1.12,0 -1.68,0c-0.92,0 -1.3,0.36 -1.27,1.28c0,1.12 0,2.24 0,3.36c0,8.79 -0.1,17.58 0.41,26.37a77.16,77.16 0 0 0 1.85,13.51c2.14,8.87 6.93,13 16.07,13.7c16.25,1.22 28.67,-5.41 37.76,-18.67a55.92,55.92 0 0 0 6.39,-13.09c0.38,-1.09 0.86,-1.54 2,-1.5c2.33,0.05 4.64,0 7.19,0zm-56.08,-34.47c4.64,0 9.28,0 13.91,0c1.92,0 1.93,0 1.94,-2c0,-3.6 0.08,-7.2 0,-10.79c-0.14,-5 -0.34,-10.05 -1.74,-14.94c-1.56,-5.45 -5.3,-8.39 -10.64,-9.49a18,18 0 0 0 -7.39,0c-5.18,1.09 -8.89,3.86 -10,9.33c-0.3,1.4 -0.63,2.8 -0.83,4.22c-1,7.32 -0.66,14.68 -0.7,22c0,1.6 0.06,1.63 1.83,1.63c4.51,0.05 9.07,0.04 13.62,0.04z" fill="#25292c" id="svg_5"/>
  <path class="cls-2" d="m480.5,101.54001a9.81,9.81 0 0 0 1.08,-3.49a64.3,64.3 0 0 1 4.9,-13.72a33.49,33.49 0 0 1 9.78,-12c5.37,-4 11.35,-5.75 18,-4.49c7.69,1.44 12.62,6.24 15.47,13.26a25,25 0 0 1 0.74,17.14c-1.61,5.25 -4.89,9.19 -10.28,10.86c-8.36,2.59 -17.83,-3.37 -19.44,-12.06a22.84,22.84 0 0 1 0.41,-9a9.81,9.81 0 0 1 2.26,-4.43a14.33,14.33 0 0 0 1.82,-2.51c0.66,-1.2 0.24,-2 -1.1,-2.25a6.93,6.93 0 0 0 -4.42,0.72a15.52,15.52 0 0 0 -5.47,4.93a49.1,49.1 0 0 0 -7.75,16.64a109,109 0 0 0 -3,18.66c-0.9,10.28 -0.82,20.59 -0.81,30.9q0,13.19 0,26.38c0,2.78 -0.2,2.53 2.64,2.53c5.75,0 11.51,0 17.27,0c1.85,0 1.87,0 1.88,1.81s0,3.84 0,5.75c0,0.94 -0.35,1.32 -1.27,1.26c-0.48,0 -1,0 -1.44,0l-71.24,0a13.83,13.83 0 0 0 -1.44,0c-1.1,0.12 -1.34,-0.43 -1.31,-1.4c0,-2 0.09,-4 0,-6c-0.06,-1.23 0.46,-1.45 1.54,-1.43c3.52,0 7,0 10.56,0c3.33,0 3,0.52 3,-2.86q0,-30.95 0,-61.88l0,-31.9c0,-0.56 0,-1.12 0,-1.67c0.05,-0.84 -0.34,-1.11 -1.14,-1.1c-1.92,0 -3.84,0 -5.76,0c-2.23,0 -4.47,0 -6.71,0c-1,0 -1.49,-0.2 -1.46,-1.31c0.06,-2.24 0,-4.48 0,-6.72c0,-0.7 0.28,-1 1,-1c0.48,0 1,0 1.44,0c8.07,0 16.15,0.06 24.22,-0.11c6.63,-0.14 13.27,-0.2 19.79,-1.68a1.89,1.89 0 0 1 0.47,-0.06c1.75,-0.06 3.86,-0.72 5.13,0.24s0.35,3 0.36,4.56c0,8.23 0,16.47 0,24.7a6.22,6.22 0 0 0 0.28,2.73z" fill="#25292c" id="svg_6"/>
  <path class="cls-2" d="m596.64,228.66001c0.55,-4.42 0.25,-3.6 3.88,-3.63c5,0 10.06,0 15.15,0a4.78,4.78 0 0 1 -0.58,2.82a19.21,19.21 0 0 1 -18,12.26a12.08,12.08 0 0 1 -11.87,-14c1.32,-9.68 9.76,-17 19.15,-16.6c4,0.16 9.15,2.76 10.74,7.6c-1.39,0 -2.69,0 -4,0c-0.66,0 -1,-0.42 -1.36,-0.84c-3.1,-3.41 -6.95,-3.81 -11,-2.27a13.94,13.94 0 0 0 -9.37,11.47c-1,6.81 4.52,12 11.3,10.74a14.11,14.11 0 0 0 8.67,-5.56c0.33,-0.42 0.87,-0.86 0.62,-1.44s-0.95,-0.44 -1.47,-0.44c-3.28,0 -6.55,0 -9.83,0c-0.63,-0.02 -1.22,-0.07 -2.03,-0.11z" fill="#25292c" id="svg_7"/>
  <path class="cls-2" d="m767.64,240.14001c-8.8,0 -14.55,-7.24 -12.55,-15.81a19.38,19.38 0 0 1 18.62,-14.81c8,0.11 13.45,6.35 12.47,14.26c-1.09,8.81 -9.59,16.36 -18.54,16.36zm0.73,-3.78c6.09,0 11.86,-4.72 13.28,-10.87c1.83,-7.94 -3.92,-13.66 -11.87,-11.83a14.68,14.68 0 0 0 -10.77,12.17c-0.65,5.93 3.44,10.5 9.36,10.49l0,0.04z" fill="#25292c" id="svg_8"/>
  <path class="cls-2" d="m290.33,239.65001c0.82,-4.5 1.57,-8.72 2.35,-12.94c0.93,-5 1.92,-10 2.77,-15.08c0.22,-1.27 0.65,-1.74 2,-1.7c3,0.09 6.08,0 9.11,0.05c7.23,0.2 11.53,4.65 11.58,11.89a17.28,17.28 0 0 1 -14.94,17.51c-4.22,0.65 -8.46,0.12 -12.87,0.27zm4.86,-3.85c2.58,0 4.75,0.18 6.87,0a12.9,12.9 0 0 0 11.7,-14.52a8,8 0 0 0 -6.12,-7.14c-2.2,-0.6 -4.45,-0.27 -6.67,-0.43c-1.32,-0.09 -1.79,0.46 -2,1.69c-0.69,4 -1.47,8 -2.21,12c-0.51,2.74 -1.02,5.43 -1.57,8.4z" fill="#25292c" id="svg_9"/>
  <path class="cls-2" d="m202.18,228.73001l6.13,10.89c-1.69,0 -3.07,0 -4.44,0c-1,0 -1.11,-0.78 -1.43,-1.38c-1.76,-3.3 -3.5,-6.63 -5.25,-9.94a6.5,6.5 0 0 0 -1.37,-2.11a4.21,4.21 0 0 0 -0.73,2.18c-0.6,3.22 -1.3,6.42 -1.79,9.65c-0.2,1.35 -0.76,1.77 -2,1.61a6.81,6.81 0 0 1 -2.35,-0.26c0.48,-2.61 1,-5.24 1.45,-7.87c1.22,-6.59 2.49,-13.17 3.64,-19.77c0.23,-1.36 0.67,-1.88 2.11,-1.81c2.71,0.13 5.43,0 8.15,0.05c7.13,0.08 9.54,4.51 7.84,10.66a10.1,10.1 0 0 1 -7.69,7.51l-2.27,0.59zm-6.28,-3.53a17.33,17.33 0 0 0 7.44,-0.47a6.71,6.71 0 0 0 4.58,-4.21c1.18,-3.26 -0.11,-5.69 -3.46,-6.57a10.94,10.94 0 0 0 -2.61,-0.24c-3.92,-0.06 -4,-0.06 -4.65,3.66a58.4,58.4 0 0 0 -1.3,7.83z" fill="#25292c" id="svg_10"/>
  <path class="cls-2" d="m464.69,228.74001l3,5.43l2.89,5.1c-0.25,0.2 -0.3,0.28 -0.35,0.28c-4.45,0.35 -4.45,0.35 -6.53,-3.57c-1.38,-2.61 -2.74,-5.23 -4.13,-7.83a4.87,4.87 0 0 0 -1.41,-2a63.9,63.9 0 0 0 -1.55,7.35c-0.34,1.56 -0.7,3.13 -0.89,4.71c-0.13,1.09 -0.53,1.56 -1.66,1.46c-0.78,-0.08 -1.57,0 -2.52,0a9.87,9.87 0 0 1 0.46,-3.58c1.42,-7.93 2.91,-15.85 4.38,-23.77a11.61,11.61 0 0 0 0.29,-1.4c0.06,-0.74 0.5,-0.91 1.13,-0.91c3.52,0 7,-0.16 10.54,0.15c5.09,0.45 7.39,3.75 6.6,8.81s-3.62,8.19 -8.62,9.36c-0.43,0.05 -0.87,0.2 -1.63,0.41zm-6.43,-3.53a17.66,17.66 0 0 0 8,-0.63a6.45,6.45 0 0 0 4.5,-5.4c0.36,-2.61 -0.74,-4.27 -3.27,-5.08c-2,-0.65 -4.12,-0.31 -6.18,-0.39c-0.73,0 -1,0.46 -1.1,1c-0.68,3.43 -1.3,6.91 -1.95,10.5z" fill="#25292c" id="svg_11"/>
  <path class="cls-2" d="m662.37,228.70001l5.92,10.55c-0.26,0.18 -0.37,0.33 -0.48,0.33c-1.44,0 -3.05,0.36 -4.25,-0.18s-1.51,-2.33 -2.19,-3.57c-1.42,-2.59 -2.74,-5.23 -4.13,-7.83c-0.33,-0.61 -0.51,-1.35 -1.33,-1.79c-0.88,2.28 -1,4.67 -1.52,6.95a42,42 0 0 0 -0.94,4.98c-0.13,1.26 -0.68,1.67 -1.84,1.52a5.47,5.47 0 0 1 -2.5,-0.31c0.48,-2.61 1,-5.25 1.46,-7.9q1.8,-9.76 3.63,-19.53c0.35,-1.9 0.39,-1.91 2.2,-1.92c2.71,0 5.43,0 8.15,0c6.53,0.13 9.47,4 7.87,10.29a10.27,10.27 0 0 1 -7.62,7.83c-0.66,0.16 -1.35,0.31 -2.43,0.58zm-6.43,-3.39a22.85,22.85 0 0 0 7.28,-0.48c2.83,-0.85 4.75,-2.58 5.21,-5.62c0.39,-2.6 -0.72,-4.29 -3.23,-5.1c-2,-0.65 -4.11,-0.31 -6.18,-0.4a1,1 0 0 0 -1.12,1c-0.65,3.43 -1.27,6.87 -1.96,10.6z" fill="#25292c" id="svg_12"/>
  <path class="cls-2" d="m445.98,239.39001c-4.36,0.57 -4.31,0.56 -5.07,-3.37c-0.34,-1.7 0,-3.91 -1.34,-4.93s-3.25,-0.28 -4.91,-0.26c-1.91,0 -4.15,-0.73 -5.63,0.31s-2,3 -2.89,4.61c-0.2,0.34 -0.39,0.69 -0.59,1c-1.73,3.12 -1.73,3.13 -5.56,2.63a2.89,2.89 0 0 1 0.65,-1.51q7.37,-13 14.76,-26.06a3.48,3.48 0 0 1 4.29,-1.88c0.79,0.19 0.68,0.81 0.78,1.29c0.53,2.5 1,5 1.51,7.52c1.32,6.85 2.65,13.67 4,20.65zm-14.74,-12.44l6.77,0c0.88,0 1.08,-0.47 1,-1.21c-0.49,-3.26 -1,-6.51 -1.49,-9.77l-0.46,-0.09c-1.88,3.53 -3.72,7.07 -5.82,11.07z" fill="#25292c" id="svg_13"/>
  <path class="cls-2" d="m617.45,239.62001l2,-3.65q6.85,-12.09 13.7,-24.18a3.57,3.57 0 0 1 4.33,-1.81c0.76,0.23 0.62,0.87 0.72,1.35c0.69,3.29 1.32,6.58 2,9.87c1.18,6 2.35,12.07 3.52,18.07c-0.19,0.13 -0.31,0.28 -0.44,0.29c-3.92,0.27 -3.91,0.26 -4.61,-3.62c-0.22,-1.26 -0.53,-2.5 -0.71,-3.76c-0.16,-1.1 -0.71,-1.42 -1.78,-1.4c-2.72,0.07 -5.44,0.06 -8.16,0a2,2 0 0 0 -2.06,1.26c-1,1.91 -2.21,3.72 -3.11,5.67a2.82,2.82 0 0 1 -3.34,1.92a16.89,16.89 0 0 0 -2.06,-0.01zm11.7,-12.94a14.26,14.26 0 0 0 4.11,0.27c3.61,0 3.61,0 3.08,-3.67c-0.05,-0.4 -0.05,-0.8 -0.13,-1.19c-0.43,-2 -0.41,-4.14 -1.25,-6.55l-5.81,11.14z" fill="#25292c" id="svg_14"/>
  <path class="cls-2" d="m271.32,239.49001c-4,0.29 -4,0.29 -4.8,-3.45c-0.22,-1.1 -0.44,-2.19 -0.67,-3.28c-0.39,-1.92 -0.39,-1.94 -2.22,-2c-2.55,0 -5.11,0 -7.66,0a2.18,2.18 0 0 0 -2.26,1.34c-1,2 -2.21,3.88 -3.22,5.87c-0.6,1.2 -1.34,1.87 -2.76,1.65a12.42,12.42 0 0 0 -2,0c-0.23,-0.82 0.23,-1.25 0.49,-1.71q7.41,-13.12 14.85,-26.23a3.39,3.39 0 0 1 4.14,-1.72c0.87,0.2 0.79,0.88 0.91,1.48l2.85,14.54l2.25,11.5a4.58,4.58 0 0 1 0.1,2.01zm-14.51,-12.53c2.43,0 4.32,0 6.21,0c1.58,0 1.62,-0.08 1.42,-1.61c-0.37,-2.83 -0.79,-5.65 -1.19,-8.47c-0.05,-0.33 -0.13,-0.62 -0.74,-0.81l-5.7,10.89z" fill="#25292c" id="svg_15"/>
  <path class="cls-2" d="m501.65,239.39001c-0.09,0.06 -0.15,0.14 -0.22,0.14c-3.78,0.37 -3.78,0.37 -4.53,-3.33c-0.26,-1.32 -0.62,-2.64 -0.77,-4c-0.13,-1.16 -0.71,-1.44 -1.75,-1.43c-2.71,0 -5.43,0.07 -8.14,0a2.19,2.19 0 0 0 -2.22,1.4c-1,1.91 -2.17,3.73 -3.09,5.67a2.66,2.66 0 0 1 -3.16,1.79a9.78,9.78 0 0 0 -1.62,0c-0.48,-0.71 0.06,-1.13 0.31,-1.56q7.46,-13.23 15,-26.44a3.45,3.45 0 0 1 4.17,-1.65c0.85,0.24 0.74,0.94 0.85,1.53q1.69,8.57 3.36,17.13c0.56,2.9 1.13,5.79 1.69,8.69a3.86,3.86 0 0 1 0.12,2.06zm-14.41,-12.6l7.77,0c-0.59,-3.69 -0.85,-7.24 -2.18,-10.72l-5.59,10.72z" fill="#25292c" id="svg_16"/>
  <path class="cls-2" d="m164.09,217.43001a22.1,22.1 0 0 0 -2.48,0a4.16,4.16 0 0 1 -3.93,-1.61c-2.28,-2.53 -5.34,-3 -8.58,-2.42a14.41,14.41 0 0 0 -11.41,12.6a9.31,9.31 0 0 0 11.5,10.14a10.58,10.58 0 0 0 4.76,-2.13a6.29,6.29 0 0 1 5.05,-1.52c0.46,0 0.93,0 1.42,0c0.11,1 -0.62,1.35 -1.09,1.82a18.16,18.16 0 0 1 -13.7,5.79c-7.75,-0.19 -12.84,-6.66 -12.05,-14.18c1,-9 10,-17 19.32,-16.41c5.09,0.33 8.9,2.63 11.19,7.92z" fill="#25292c" id="svg_17"/>
  <path class="cls-2" d="m246.91,217.43001c-1.07,0 -1.95,-0.06 -2.81,0a3.37,3.37 0 0 1 -3.1,-1.31c-2.36,-2.73 -5.5,-3.37 -8.93,-2.7a14.41,14.41 0 0 0 -11.37,12.64a9.32,9.32 0 0 0 11.33,10.08a9.78,9.78 0 0 0 4.78,-2.09c2,-1.88 4.25,-1.72 7,-1.48a18.65,18.65 0 0 1 -6.66,5.55a16.26,16.26 0 0 1 -11.14,1.6c-5.41,-1.21 -9.82,-5.93 -9.46,-13c0.5,-9.71 9.71,-17.8 19.44,-17.31a11.83,11.83 0 0 1 10.92,8.02z" fill="#25292c" id="svg_18"/>
  <path class="cls-2" d="m797.65,240.14001c-5.61,0 -8.73,-3 -8.67,-7.3c0,-1.58 0.15,-1.72 1.77,-1.76c0.56,0 1.12,0 1.68,0s0.87,0.28 0.82,0.88a2.57,2.57 0 0 0 0,0.48c0.49,3.35 2.8,4.74 6,3.62a5.91,5.91 0 0 0 3.67,-3.54c1,-2.53 0.37,-4.36 -2,-5.57c-1.36,-0.68 -2.81,-1.15 -4.19,-1.77c-3.55,-1.58 -4.75,-3.88 -4.08,-7.69c1,-5.65 7.49,-9.45 12.82,-7.48a5.93,5.93 0 0 1 4.06,6.34c-0.08,0.89 -0.41,1.3 -1.33,1.19a7.7,7.7 0 0 0 -1.44,0c-0.94,0.08 -1.36,-0.18 -1.52,-1.26a3.33,3.33 0 0 0 -4.28,-3a5.18,5.18 0 0 0 -4,3.42a3.09,3.09 0 0 0 1.47,4.11a23.56,23.56 0 0 0 3.72,1.6c5.05,1.8 6.89,5.22 4.54,11.11a10.05,10.05 0 0 1 -9.04,6.62z" fill="#25292c" id="svg_19"/>
  <path class="cls-2" d="m401.45,239.62001c0.59,-3.33 1.13,-6.38 1.69,-9.42q1.67,-9.06 3.36,-18.12c0.39,-2.11 0.39,-2.11 2.53,-2.12c2.4,0 4.8,-0.05 7.19,0c7.06,0.17 10.08,4.85 7.34,11.38c-1.53,3.64 -4.46,5.49 -8.21,6.25a23.82,23.82 0 0 1 -6,0.3c-1.33,-0.08 -1.83,0.49 -2,1.7c-0.46,2.76 -1,5.5 -1.52,8.24c-0.33,1.76 -0.34,1.76 -2.08,1.78l-2.3,0.01zm10.8,-15.54c0.55,0 1.52,0 2.46,-0.18a6.05,6.05 0 0 0 5.35,-4.74c0.61,-2.58 -0.43,-4.34 -3,-5.11c-1.72,-0.53 -3.48,-0.24 -5.22,-0.35c-1.09,-0.07 -1.58,0.35 -1.73,1.45c-0.27,1.89 -0.63,3.76 -1,5.63c-0.8,3.7 -1.01,3.26 3.09,3.3l0.05,0z" fill="#25292c" id="svg_20"/>
  <path class="cls-2" d="m187.23,209.97001c-0.59,4.47 0,3.62 -3.66,3.69q-3.71,0.06 -7.43,0a1.25,1.25 0 0 0 -1.48,1.16c-0.41,2.19 -0.81,4.39 -1.24,6.58c-0.22,1.14 0.36,1.38 1.34,1.37q3.82,0 7.67,0a5,5 0 0 1 2.33,0.19c-0.26,3.53 -0.26,3.53 -3.57,3.53c-2.47,0 -4.95,0 -7.43,0c-0.85,0 -1.37,0.25 -1.5,1.14c-0.4,2.67 -1.17,5.28 -1.36,8.28l11.55,0c-0.58,4.57 -0.09,3.66 -3.7,3.72c-4.15,0.06 -8.3,0 -12.73,0c0.51,-2.88 1,-5.58 1.48,-8.27c1.24,-6.67 2.5,-13.33 3.73,-20c0.14,-0.74 0.17,-1.4 1.2,-1.4c4.89,0.02 9.83,0.01 14.8,0.01z" fill="#25292c" id="svg_21"/>
  <path class="cls-2" d="m340.72,222.99001c-0.47,4.25 0,3.42 -3.59,3.49q-3.71,0.06 -7.43,0c-0.88,0 -1.34,0.3 -1.49,1.15c-0.47,2.66 -0.95,5.32 -1.49,8.29l11.65,0c-0.6,4.55 -0.08,3.64 -3.73,3.7c-4.15,0.06 -8.3,0 -12.55,0a5.63,5.63 0 0 1 0.3,-2.63c1.56,-8.56 3.18,-17.1 4.73,-25.66c0.17,-0.93 0.42,-1.4 1.47,-1.39c4.72,0.06 9.43,0 14.15,0.06a1.32,1.32 0 0 1 0.43,0.18c-0.36,3.48 -0.36,3.48 -3.65,3.48c-2.48,0 -5,0 -7.43,0a1.27,1.27 0 0 0 -1.48,1.18c-0.39,2.12 -0.77,4.24 -1.2,6.35c-0.23,1.13 0.1,1.62 1.32,1.59c2.87,0 5.75,0 8.63,0c0.46,-0.02 0.96,-0.16 1.36,0.21z" fill="#25292c" id="svg_22"/>
  <path class="cls-2" d="m713.45,235.90001l11.22,0c0.14,0.34 0.25,0.49 0.24,0.62c-0.3,3.1 -0.31,3.1 -3.31,3.1c-3.68,0 -7.36,0 -11,0a3.1,3.1 0 0 1 -2,-0.28c0.58,-3.23 1.15,-6.52 1.76,-9.8q1.6,-8.71 3.24,-17.42c0.39,-2.13 0.38,-2.15 2.52,-2.15c4.47,0 8.94,0 13.26,0c0.57,0.41 0.4,0.84 0.36,1.2c-0.31,2.5 -0.32,2.5 -2.93,2.5s-5.28,0 -7.92,0c-1.09,0 -1.55,0.36 -1.71,1.45c-0.31,2 -0.79,4.08 -1.16,6.12c-0.24,1.33 -0.11,1.49 1.32,1.52c2.4,0 4.8,0 7.2,0l2.49,0a1.22,1.22 0 0 1 0.31,1.24c-0.35,2.49 -0.35,2.49 -3,2.49l-6.72,0c-2.59,0 -2.64,0 -3.09,2.63a47.81,47.81 0 0 0 -1.08,6.78z" fill="#25292c" id="svg_23"/>
  <path class="cls-2" d="m579.54,222.85001c-0.06,0.65 -0.07,1 -0.13,1.43c-0.36,2.19 -0.36,2.2 -2.5,2.2c-2.72,0 -5.44,0 -8.15,0c-1.13,0 -1.73,0.23 -1.89,1.52c-0.25,2.06 -0.76,4.08 -1.13,6.12c-0.32,1.74 -0.3,1.78 1.42,1.8c2.64,0 5.27,0 7.91,0a4.45,4.45 0 0 1 1.91,0.18a3,3 0 0 1 0.07,0.71c-0.29,2.81 -0.29,2.81 -3.11,2.81l-13.14,0a52.39,52.39 0 0 1 1.22,-7.55c1.17,-6.68 2.46,-13.34 3.7,-20c0.38,-2.09 0.37,-2.1 2.56,-2.1l13.32,0a2,2 0 0 1 0.18,1.72c-0.33,2 -0.34,2 -2.44,2c-2.63,0 -5.27,0 -7.91,0c-1.8,0 -1.81,0 -2.16,1.72c-0.39,1.88 -0.75,3.76 -1.1,5.65c-0.28,1.55 -0.21,1.68 1.33,1.7c2.8,0 5.6,0 8.4,0c0.47,0 0.94,0.05 1.64,0.09z" fill="#25292c" id="svg_24"/>
  <path class="cls-2" d="m750.62,209.96001c-1.18,6.41 -2.31,12.51 -3.45,18.61c-0.24,1.33 -0.45,2.68 -0.81,4c-1.39,5 -5.48,7.92 -10.28,7.53c-3.45,-0.28 -5.58,-2.33 -6.12,-6a9.74,9.74 0 0 1 3,-0.21a1.56,1.56 0 0 1 1.53,0.82c1.71,2.39 5,2.23 6.83,-0.24a8.48,8.48 0 0 0 1.33,-3.55c1.16,-6.19 2.29,-12.38 3.43,-18.57c0.43,-2.37 0.42,-2.37 2.79,-2.36l1.75,-0.03z" fill="#25292c" id="svg_25"/>
  <path class="cls-2" d="m375.9,209.96001c-0.59,3.7 -0.59,3.7 -3.92,3.7a7.69,7.69 0 0 1 -1,0c-1.22,-0.14 -1.61,0.44 -1.81,1.61c-1.05,6 -2.2,11.91 -3.31,17.87c-0.32,1.72 -0.69,3.44 -0.94,5.17c-0.14,1 -0.55,1.44 -1.55,1.31c-0.85,-0.1 -1.75,0.2 -2.76,-0.31c0.59,-3.24 1.19,-6.51 1.8,-9.79c0.84,-4.54 1.71,-9.08 2.56,-13.63c0.07,-0.39 0.1,-0.79 0.16,-1.18c0.11,-0.71 -0.18,-1.05 -0.9,-1c-1.12,0 -2.24,0 -3.35,0s-1.27,-0.41 -1.07,-1.3a7.93,7.93 0 0 0 0.23,-1.18c0.08,-1 0.59,-1.28 1.57,-1.26c3.19,0.05 6.38,0 9.58,0l4.71,-0.01z" fill="#25292c" id="svg_26"/>
  <path class="cls-2" d="m556.26,235.86001a3,3 0 0 1 0.09,0.54c-0.34,3.22 -0.34,3.22 -3.44,3.22s-6.23,0 -9.34,0a4,4 0 0 1 -2.23,-0.27c1,-5.28 1.94,-10.6 2.92,-15.92q1.1,-5.87 2.2,-11.75c0.32,-1.69 0.32,-1.69 2.15,-1.71c0.62,0 1.25,0 2.26,0c-1.6,8.7 -3.16,17.18 -4.76,25.9l10.15,-0.01z" fill="#25292c" id="svg_27"/>
  <path class="cls-2" d="m704.09,236.14001a1.6,1.6 0 0 1 0.08,0.47c-0.37,3 -0.37,3 -3.41,3l-11.66,0c0.84,-4.6 1.62,-9 2.42,-13.33c0.9,-4.86 1.83,-9.71 2.74,-14.57c0.33,-1.74 0.32,-1.74 2.1,-1.76c0.63,0 1.26,0 1.88,0a2.74,2.74 0 0 1 0.08,2.15q-2,10.69 -4,21.39c-0.07,0.39 -0.1,0.79 -0.18,1.18c-0.19,1 0.25,1.26 1.17,1.25c2.47,0 4.95,0 7.42,0a2.31,2.31 0 0 1 1.36,0.22z" fill="#25292c" id="svg_28"/>
  <path class="cls-2" d="m530.54,210.24001a45.08,45.08 0 0 1 -1.14,7c-1,5.5 -2.06,11 -3.09,16.45c-0.05,0.24 -0.06,0.48 -0.12,0.71c-0.25,1.09 0,1.63 1.29,1.58c2.07,-0.08 4.15,0 6.23,0l2.29,0c0.12,0.32 0.23,0.46 0.21,0.59c-0.41,3.11 -0.42,3.11 -3.57,3.11l-11.48,0c0.5,-2.82 1,-5.45 1.44,-8.08q1.85,-9.87 3.7,-19.74c0.34,-1.83 0.34,-1.85 2.27,-1.83a3.1,3.1 0 0 1 1.97,0.21z" fill="#25292c" id="svg_29"/>
  <path class="cls-2" d="m376.12,239.32001c0.49,-2.73 1,-5.53 1.5,-8.32q1.72,-9.4 3.49,-18.8c0.42,-2.26 0.44,-2.25 2.67,-2.24a11.83,11.83 0 0 1 1.19,0a2.64,2.64 0 0 1 0.62,0.25c-0.46,2.51 -0.93,5.06 -1.41,7.62q-1.83,9.87 -3.66,19.74c-0.38,2 -0.42,2 -2.35,2a3.34,3.34 0 0 1 -2.05,-0.25z" fill="#25292c" id="svg_30"/>
  <path class="cls-1" d="m624.22,268.05001a0.71,0.71 0 0 1 0.23,-0.5c0.24,0.32 -0.23,0.26 -0.27,0.45l0.04,0.05z" fill="#e2221b" id="svg_31"/>
 </g>

</svg>