<?xml version="1.0" encoding="utf-8"?>
<!-- Generator: Adobe Illustrator 27.7.0, SVG Export Plug-In . SVG Version: 6.00 Build 0)  -->
<svg version="1.1" id="Capa_22" xmlns="http://www.w3.org/2000/svg" xmlns:xlink="http://www.w3.org/1999/xlink" x="0px" y="0px"
	 viewBox="0 0 784 187" style="enable-background:new 0 0 784 187;" xml:space="preserve">
<path d="M712.1,94.3c1.8,0.5,3.3,0.9,4.8,1.5c5.8,2.1,9.4,6.2,10.7,12.2c1.5,7.5,1.4,14.9-0.5,22.3c-2.4,9.2-8.5,14.4-17.9,15.8
	c-3.7,0.6-7.5,0.9-11.3,0.9c-30.1,0-60.2,0-90.3,0c-1.5,0-1.5,0-1.5-1.5c0-33.4,0-66.8,0-100.1c0-1.5,0-1.5,1.5-1.5
	c28.9,0,57.8,0,86.7,0c4.5,0,9,0.3,13.4,1.4c9.6,2.4,15.1,8.4,16.5,18.2c0.8,6.1,1,12.2-0.4,18.2c-0.9,3.8-2.5,7.3-5.8,9.8
	C716.2,92.8,714.3,93.6,712.1,94.3L712.1,94.3z M663.5,123.9c4.4,0,8.8,0,13.2,0c4.8,0,9.7,0,14.5-0.1c4.4-0.1,6.8-2.1,7.6-6.4
	c0.3-1.7,0.3-3.4,0-5.1c-0.8-4.2-2.8-6.1-7-6.7c-0.8-0.1-1.5-0.1-2.3-0.1c-18,0-36,0-54,0c-1,0-1.3,0.4-1.3,1.4c0,5.1,0,10.3,0,15.4
	c0,1.1,0.5,1.7,1.6,1.7C645.1,123.9,654.3,123.9,663.5,123.9L663.5,123.9z M661.3,67.1L661.3,67.1c-8.5,0-17,0-25.5,0
	c-1.1,0-1.4,0.3-1.4,1.4c0,5,0,10,0,15c0,1,0.5,1.6,1.6,1.6c15.5,0,31,0,46.5,0c2,0,3.9-0.1,5.9-0.2c4.2-0.3,6.5-2.4,7.2-6.5
	c0.2-1,0.2-2,0.2-3c-0.2-4.2-2.6-7.1-6.4-7.8c-1.3-0.2-2.6-0.3-3.9-0.3C677.4,67.1,669.3,67,661.3,67.1L661.3,67.1z"/>
<path d="M436.1,95.5c0,16.7,0,33.5,0,50.2c0,1.1-0.3,1.4-1.4,1.4c-8.8,0-17.6,0-26.5,0c-1,0-1.3-0.3-1.3-1.3c0-12.1,0-24.3,0-36.4
	c0-1.1-0.5-1.6-1.6-1.6c-20.7,0-41.5,0-62.2,0c-1.1,0-1.7,0.5-1.7,1.6c0,11.9,0,23.8,0,35.8c0,1.3-0.6,1.9-1.9,1.9
	c-8.5,0-17,0-25.6,0c-1.2,0-1.7-0.6-1.7-1.7c0-33.3,0-66.5,0-99.8c0-1.6,0-1.6,1.6-1.6c8.7,0,17.3,0,26,0c1.5,0,1.6,0.1,1.6,1.6
	c0,11.6,0,23.2,0,34.9c0,1.1,0.6,1.7,1.7,1.7c20.7,0,41.4,0,62.1,0c1.1,0,1.7-0.5,1.7-1.6c0-11.7,0-23.4,0-35.1
	c0-1.1,0.2-1.5,1.4-1.5c8.8,0,17.6,0,26.3,0c1,0,1.4,0.3,1.4,1.4C436.1,62,436.1,78.8,436.1,95.5L436.1,95.5z"/>
<path d="M582.3,77.9c0,10.6,0.1,21.2,0,31.9c-0.1,5.6-0.5,11.2-2.1,16.6c-2.7,9.3-8.9,15.2-17.8,18.5c-4.6,1.7-9.4,2.5-14.2,2.6
	c-13.5,0.4-27.1,0.6-40.7,0.4c-6.5-0.1-13-0.1-19.4-1c-6.6-1-12.7-3.2-17.9-7.5c-4.1-3.4-6.3-8-7.6-13c-1.1-4.2-1.7-8.5-1.9-12.8
	c-0.6-13.9-0.1-27.8-0.2-41.7c-0.1-8.7,0-17.5,0-26.2c0-1.6,0-1.6,1.6-1.6c8.7,0,17.3,0,26,0c1.5,0,1.6,0,1.6,1.6
	c0,18.7,0,37.4,0,56.1c0,3.2,0.1,6.3,0.7,9.5c1.3,6.8,4.2,9.7,11,10.9c3.4,0.6,6.8,0.8,10.3,0.9c6.2,0.1,12.3,0.1,18.4,0
	c4.3-0.1,8.6-0.2,12.8-1c6-1.2,8.6-4,9.6-10c0.5-3.1,0.7-6.2,0.7-9.4c0-18.6,0-37.3,0-56c0-0.4,0-0.7,0-1.1c0-1.4,0.1-1.5,1.5-1.5
	c6.3,0,12.6,0,18.9,0c2.4,0,4.7,0,7.1,0c1.2,0,1.7,0.6,1.7,1.7C582.3,56.4,582.3,67.2,582.3,77.9C582.3,77.9,582.3,77.9,582.3,77.9
	L582.3,77.9z"/>
<path d="M70,76c0,9.5,0,19,0,28.5c0,3,0.4,6,1.1,8.9c1,4.2,3.7,6.8,7.9,8c2.7,0.8,5.4,1.1,8.2,1.3c7.8,0.5,15.7,0.3,23.5,0.2
	c4.2-0.1,8.4-0.2,12.6-1c5.4-1,8-3.6,9.2-8.9c0.8-3.7,0.9-7.5,0.9-11.3c0-18.6,0-37.2,0-55.8c0-0.5-0.3-1.3,0.2-1.5
	c0.5-0.2,0.9,0.5,1.4,0.8c8.9,7,17.7,14.1,26.6,21.2c0.7,0.5,1,1.1,1,2c0,13.7,0.1,27.5,0,41.2c0,5.1-0.4,10.3-1.6,15.3
	c-2.4,10-8.7,16.6-18.3,20.1c-4.6,1.7-9.4,2.5-14.4,2.6c-13.6,0.4-27.1,0.6-40.6,0.4c-6.4-0.1-12.9-0.1-19.3-1
	c-6.7-1-12.9-3.2-18.2-7.7c-3.9-3.3-6-7.7-7.3-12.5c-1.2-4.5-1.9-9.2-2-13.9c-0.5-22.5-0.1-45.1-0.2-67.6c0-0.9,0.4-1.2,1.2-1.2
	c8.9,0,17.8,0,26.7,0c1.2,0,1.3,0.6,1.3,1.5C70,55.6,70,65.8,70,76L70,76L70,76z"/>
<path d="M225.5,43.9c22.3,0,44.5,0,66.8,0c0.3,0,0.7,0,1,0c0.8,0,1.1,0.3,1,1.1c0,0.3,0,0.6,0,0.9c0,7.4,0,14.9,0,22.3
	c0,1.5,0,1.5-1.5,1.5c-13,0-26,0-39,0c-1.2,0-1.8,0.6-1.8,1.8c0,24.4,0,48.8,0,73.3c0,0.4,0,0.7,0,1.1c0.1,0.9-0.3,1.2-1.2,1.2
	c-2.3,0-4.6,0-6.9,0c-6.5,0-13,0-19.4,0c-1.1,0-1.7-0.6-1.7-1.7c0-24.6,0-49.2,0-73.8c0-1.2-0.6-1.8-1.8-1.8
	c-10.7-0.1-21.3-0.1-32-0.2c-0.8,0-1.3-0.2-1.9-0.7c-9.7-7.9-19.4-15.8-29.1-23.7c-0.4-0.3-1.1-0.6-0.9-1c0.2-0.6,0.9-0.3,1.4-0.3
	C180.8,43.9,203.1,43.9,225.5,43.9L225.5,43.9L225.5,43.9z"/>
<path d="M755,53.1c0,5-4.2,9.1-9.3,9.1c-5,0-9.2-4.2-9.2-9.2c0-5.1,4.2-9.2,9.4-9.2C751,43.9,755,48,755,53.1L755,53.1z M738.7,53
	c0,4,3,7,7,7.1c4.1,0,7.2-3,7.2-7c0-4-3-7.1-7.1-7.1C741.8,46,738.7,49,738.7,53L738.7,53z"/>
<path d="M747.8,53.1c1.2,1.1,1.7,2.5,2.4,3.8c0.3,0.6,0,0.8-0.5,0.8c-1.8,0.1-1.9,0.1-2.7-1.5c-0.3-0.6-0.6-1.1-0.9-1.6
	c-0.3-0.4-0.8-0.5-1.3-0.3c-0.5,0.1-0.3,0.6-0.3,1c0,0.4,0,0.7,0,1.1c0,1.4-0.1,1.4-1.4,1.4c-1,0-1.3-0.3-1.3-1.3c0-2.4,0-4.9,0-7.3
	c0-0.9,0.3-1.3,1.2-1.2c1.2,0.1,2.5-0.1,3.8,0.1c1.2,0.2,2.3,0.6,2.6,1.9C749.6,51.2,749.1,52.3,747.8,53.1L747.8,53.1z M745.3,52.1
	c0.8,0.1,1.3-0.2,1.3-1c0-0.8-0.5-1-1.3-1.1c-0.8,0-1,0.3-1,1C744.4,51.6,744.4,52.2,745.3,52.1z"/>
</svg>
