<?xml version="1.0" encoding="utf-8"?>
<!-- Generator: Adobe Illustrator 27.7.0, SVG Export Plug-In . SVG Version: 6.00 Build 0)  -->
<svg version="1.1" id="Capa_15" xmlns="http://www.w3.org/2000/svg" xmlns:xlink="http://www.w3.org/1999/xlink" x="0px" y="0px"
	 viewBox="0 0 594 153" style="enable-background:new 0 0 594 153;" xml:space="preserve">
<path d="M117.3,89.8c0,6.9,0,13.9,0,20.8c0,2.8-0.2,5.7-1.5,8.3c-3,6.4-8.4,9-15.2,9.1c-6.7,0.1-13.2-5.4-14.4-11.9
	c-0.2-1.3-0.3-2.6-0.4-4c-0.4-11.4-0.3-22.8-0.2-34.1c0-4.1,0.2-8.1-0.6-12.2c-1.1-5.7-5.9-9.6-11.7-9.9c-6.3-0.3-11.8,4.4-13,9.8
	c-0.2,0.9-0.2,1.9-0.2,2.8c0,11.8,0.1,23.5,0,35.3c0,3.6-0.2,7.1-0.6,10.7c-0.9,9.4-10.6,15.6-19.7,12.9
	c-6.1-1.9-10.2-5.6-11.4-12.1c-0.1-0.4-0.1-0.9-0.1-1.4c-0.2-13-0.5-26.1-0.2-39.1c0.1-4.6-0.2-9.1,0.6-13.7
	c1.2-7.7,4.4-14.6,9.4-20.6c6.4-7.8,14.4-13.3,24.4-15.5c13.1-3,25.2-0.5,36.2,7.3c2.9,2.1,2.9,2.1,5.7,0c8.4-6.4,18-9.3,28.6-8.5
	c11.6,0.9,21.6,5.2,29.6,13.8c7.2,7.6,11.2,16.7,12.2,27.1c0.6,6,0.4,11.9,0.4,17.9c0,3.4,1,6.4,3.2,9.1c3.5,4.1,9.6,5.6,14.5,3.3
	c5-2.3,7.5-6.3,7.7-11.7c0.2-4.6,0.1-9.2,0.2-13.8c0.1-12.6,4.3-23.6,13.3-32.6c6.7-6.7,14.7-10.8,24.2-12.4
	c8.2-1.3,16.1-0.5,23.8,2.5c4.5,1.8,8.5,4.3,12.3,7.4c7.3,6.1,12.1,13.7,14.3,22.8c0.8,3.2,1.1,6.5,1.2,9.9c0,5.4,0,10.7,0,16.1
	c0,1.2-0.1,2.5-0.2,3.7c-0.2,1.9,0.5,3.7,0.6,5.7c0.1,6.3,0.1,12.5,0,18.8c-0.1,2.4-0.3,4.8-1.1,7.1c-2.3,6.2-8.9,9.3-14,9.7
	c-8.2,0.7-15.9-6.1-16.4-14.4c-0.2-3-0.3-6.1-0.3-9.1c-0.1-11.9,0-23.8-0.1-35.6c0-4.2-1.6-7.8-5-10.4c-7.1-5.5-17.6-1.9-19.9,6.8
	c-0.8,2.9-0.5,5.9-0.7,8.8c-0.2,4.5,0.2,9-0.3,13.4c-1.2,11.4-5.5,21.4-14.4,29.1c-7.4,6.4-15.9,10.4-25.6,11.4
	c-12.9,1.3-24.2-2.6-33.9-11.1c-8.1-7.1-12.8-16-14.4-26.6c-0.4-2.5-0.6-5.1-0.6-7.7c-0.1-4.4-0.1-8.8-0.2-13.2
	c-0.1-3.4-1.1-6.4-3.3-9c-5.9-6.8-16.3-5.6-20.6,2.4c-1.3,2.4-1.8,4.8-1.8,7.5C117.3,76.6,117.3,83.2,117.3,89.8L117.3,89.8
	L117.3,89.8z"/>
<path d="M319.3,62c0.4-1.3,0.8-2.6,1.1-3.9c1.5-5.4,2.9-10.9,4.4-16.4c0.5-2,1-2.4,3.1-2.4c1.8,0,3.6,0,5.4-0.1
	c0.9,0,1.2,0.3,1.2,1.2c-0.1,9.8-0.1,19.5-0.1,29.2c0,1.1-0.4,1.5-1.5,1.4c-0.9-0.1-1.8-0.1-2.8,0c-1.1,0.1-1.4-0.4-1.4-1.5
	c0.1-6.1,0.1-12.2,0.2-18.3c0-0.8,0.2-2-0.6-2.1c-0.7-0.1-0.6,1.2-0.8,1.9c-1.7,6-3.4,12.1-5.1,18.1c-0.6,2.1-0.9,2.2-3.8,2.2
	c-2,0.1-2.6-0.6-3.1-2.6c-1.5-6.3-3.4-12.4-5.5-18.5c-0.1-0.3-0.1-0.7-0.5-0.9c-0.4,1.3-0.3,2.6-0.2,3.8c0.2,5.5-0.1,11,0,16.5
	c0,0.8-0.3,1.2-1.2,1.2c-1,0-2-0.1-3,0c-1.2,0.1-1.7-0.3-1.7-1.6c0.1-2.3,0-4.6,0-6.8c0-7.2,0-14.4,0-21.5c0-1.9,0.2-2,2.1-1.9
	c1.3,0.1,2.6,0.1,3.9,0c2.2-0.1,3.5,0.6,4,2.8c1.2,5.1,3,10.1,4.1,15.2C318,58.9,318.3,60.5,319.3,62L319.3,62z"/>
<path d="M377.8,49.9c-0.3,0.5-0.2,1-0.2,1.4c0,6.1,0,12.1,0,18.2c0,1.3-0.4,1.7-1.6,1.6c-0.9-0.1-1.8-0.1-2.8,0
	c-0.9,0.1-1.3-0.4-1.2-1.3c0-0.2,0-0.3,0-0.5c0-9.4,0-18.8,0-28.1c0-2.1,0-2.1,2.1-2.1c0.7,0,1.3,0.1,2,0c2.1-0.2,3.3,0.9,4,2.7
	c2.4,5.5,4.8,11,7.2,16.5c0.4,0.8,0.7,1.7,1.4,2.5c0.3-0.7,0.2-1.3,0.1-1.8c-0.4-6.1,0-12.2-0.2-18.3c0-1.5,0.1-1.6,1.6-1.6
	c1,0,2,0.1,3,0.1c1,0,1.1,0.6,1.1,1.4c0,5.1-0.2,10.1-0.1,15.2c0.1,4.9-0.2,9.7,0,14.6c0,0.9-0.4,1.2-1.2,1.2c-1,0-2.1,0-3.1,0
	c-1.3,0-2-0.9-2.8-1.7c-0.8-0.9-1.2-2-1.7-3c-1.3-2.9-2.7-5.8-4.1-8.7c-1-2.3-1.7-4.8-2.9-7C378.5,50.6,378.4,50.1,377.8,49.9
	L377.8,49.9z"/>
<path d="M560.2,60.9c0.4-0.6,0.3-1.1,0.3-1.6c0-6.1,0-12.1,0-18.2c0-1.6,0.1-1.7,1.7-1.7c4.6,0.1,3.9-0.6,3.9,3.9
	c0,8.9,0,17.8,0,26.7c0,1.5-0.2,1.7-1.7,1.6c-1,0-2.1-0.1-3.1-0.2c-1.9-0.2-2.8-1.5-3.5-3c-1.5-3.3-3-6.7-4.5-10c-1-2.3-2-4.6-3-6.8
	c-0.3-0.6-0.4-1.6-1.1-1.5c-0.6,0.1-0.3,1.1-0.3,1.7c0,5.8,0.1,11.7,0.2,17.6c0,1.9,0,1.9-1.9,1.9c-2.5,0-3.7-1.2-3.7-3.7
	c0-8.8,0-17.7,0-26.5c0-1.6,0.1-1.7,1.7-1.7c1,0,2.1,0,3.1,0c0.7,0,1.2,0.2,1.7,0.7c1,0.9,1.7,2.1,2.2,3.3c2,5.2,4.6,10.1,6.6,15.3
	C559,59.3,559.4,60.2,560.2,60.9L560.2,60.9z"/>
<path d="M402,55.2c0-4.9,0-9.7,0-14.6c0-1.5,0.1-1.7,1.6-1.5c3.9,0.4,7.9,0.1,11.8,0.9c5.3,1.2,8.9,5,9.6,10.4
	c0.5,3.6,0.5,7.3-0.4,10.9c-1.3,5.5-4.7,8.7-10.3,9.4c-3.6,0.5-7.2,0.9-10.8,0.8c-1.2,0-1.6-0.3-1.6-1.6
	C402.1,65.1,402,60.1,402,55.2L402,55.2L402,55.2z M408,55.2L408,55.2c0,2.9,0.1,5.9,0,8.8c0,1.2,0.5,1.7,1.6,1.7
	c3.2,0.1,5.9-1,7.7-3.7c1.6-2.4,2.2-5.1,1.9-8c-0.5-5.1-3.7-9.6-9.7-9.2c-1.1,0.1-1.5,0.4-1.5,1.5C408.1,49.3,408,52.2,408,55.2z"/>
<path d="M353.3,71.8c-5.9,0-10.3-3.2-12.2-8.7c-1.7-5-1.8-10-0.2-15c2.2-7.1,8.3-10.6,15.6-8.9c5.8,1.3,8.6,5.4,9.9,11
	c1,4.7,0.5,9.1-1.1,13.6C363.4,68.8,359,71.9,353.3,71.8L353.3,71.8z M346.1,55.1c-0.2,3.1,0.6,5.9,2.1,8.4c1.3,2.1,3.3,3,5.7,2.8
	c2.3-0.2,4.2-1.2,5.1-3.4c1-2.4,1.4-4.9,2-7.4c0-0.2,0-0.4,0-0.6c-0.5-2.4-1.1-4.8-2.2-7c-1.1-2.3-3-3.7-5.5-3.6
	c-2.5,0.1-4.2,1.5-5.4,3.7C346.6,50.2,345.8,52.5,346.1,55.1z"/>
<path d="M526.5,71.8c-7.8,0-12.1-3.3-13.8-9.3c-0.6-2-1.3-4.1-1.3-6.2c0.1-5,0.7-9.9,4.3-13.9c5.1-5.5,17.3-5.3,21,4
	c2.4,6,2.5,12.1-0.2,18C534.3,69.4,530.4,71.8,526.5,71.8L526.5,71.8z M532.3,55.3c0-3.1-0.9-6.3-2.3-8.4c-2-2.9-6.6-3.6-8.9-1
	c-2.5,2.7-3.5,6.3-3.5,9.8c0,2.6,1,5.1,2.2,7.5c1,2.1,2.9,3,5.2,3.1c2.3,0.1,4.2-0.8,5.4-2.9C531.7,60.9,532.3,58.1,532.3,55.3
	L532.3,55.3z"/>
<path d="M500.9,53c1.5,0,3,0,4.5,0c0.9,0,1.3,0.3,1.3,1.2c-0.1,2.9,0.1,5.8-0.2,8.7c-0.2,1.5,0.1,2.9,0.2,4.3
	c0.1,2.5-0.5,3.1-2.8,3.7c-3.2,0.8-6.4,1.2-9.6,0.6c-5.8-1.1-9.6-4.4-11-10.2c-1.2-4.8-1.2-9.6,0.9-14.2c2.5-5.5,6.9-8.4,13-8.7
	c2.1-0.1,4.1,0.1,6,0.8c2.5,0.8,2.9,3.1,2.3,5.2c-0.2,0.8-0.9,0.8-1.5,0.7c-1.4-0.2-2.7-0.4-4.1-0.6c-1.8-0.3-3.6-0.2-5.3,0.4
	c-3.3,1.2-4.8,3.8-5.3,7.1c-0.4,2.8-0.5,5.7,0.4,8.5c1.4,4.5,5.1,5.8,8.7,5.8c1,0,2.3-1.5,2.4-2.7c0.1-1.4,0.1-2.9,0.2-4.3
	c0-0.7-0.5-0.8-1-0.8c-1.2,0-2.3,0-3.5,0c-1,0-1.4-0.4-1.4-1.3c0-1,0-2.1,0-3.1c0-0.9,0.4-1.2,1.2-1.1c0,0,0.1,0,0.1,0
	C497.9,53,499.4,53,500.9,53L500.9,53z"/>
<path d="M431.5,55c0-4.9,0-9.7,0-14.6c0-0.7,0-1.5,1-1.4c3.9,0.4,7.8,0.3,11.7,0.9c3.7,0.6,5.4,2.2,6,5.9c0.6,3.6-0.1,6.7-3.4,8.8
	c-0.7,0.5-0.6,0.9-0.3,1.6c1.7,4.4,3.4,8.9,5.1,13.4c0.5,1.4,0.4,1.6-1.2,1.7c-0.2,0-0.5,0-0.8,0.1c-3.5,0.4-4,0-5.2-3.3
	c-0.9-2.6-1.5-5.4-2.8-7.8c-0.8-1.5-2-2-3.6-1.7c-0.8,0.2-0.7,0.8-0.7,1.4c0,3.2,0,6.3,0,9.5c0,1.6,0,1.7-1.7,1.7
	c-0.9,0-1.8-0.1-2.8,0c-1.1,0.1-1.5-0.3-1.5-1.4C431.5,64.8,431.5,59.9,431.5,55L431.5,55z M439.6,44.9c-1.5,0-2.3,0.7-2.3,2.2
	c0,1.2,0,2.4,0,3.6c0,1.3,0.7,1.9,2,1.9c0.2,0,0.3,0,0.5,0c2.9-0.1,4.2-1.5,4-4.3C443.6,46,442.3,44.9,439.6,44.9L439.6,44.9z"/>
<path d="M468,39.3c3.2,0,3.4,0.2,4.4,3.2c2.8,8.8,5.6,17.6,8.7,26.2c1,2.7,0.9,2.6-2,2.8c-2.5,0.2-3.9-1-4.6-3.1
	c-1.1-3.4-3.3-4.6-6.7-4.4c-0.8,0.1-1.7,0-2.5,0c-1.8,0.1-3,0.8-3.6,2.6c-0.4,1.1-0.9,2.2-1.3,3.4c-0.3,0.8-0.8,1.2-1.7,1.4
	c-1.2,0.2-2.3-0.1-3.5-0.2c-1-0.1-0.9-0.9-0.7-1.6c1.1-3.4,2.2-6.8,3.4-10.2c1.9-5.6,3.8-11.2,5.6-16.9
	C464.2,40.4,465.7,39.3,468,39.3L468,39.3z M467.8,46.9c-0.2,0.4-0.3,0.5-0.4,0.7c-1,3.3-1.9,6.7-2.9,10c-0.2,0.7,0.1,0.9,0.7,0.9
	c1.7,0.1,3.5,0.1,5.2,0.1c0.6,0,0.7-0.3,0.5-0.8C470.1,54.3,469,50.7,467.8,46.9L467.8,46.9z"/>
<path d="M331.1,96.1c-0.3,2.4-0.3,4.6-0.2,6.8c0.2,5,0,10.1,0.1,15.1c0,1.1-0.2,1.6-1.5,1.5c-2.5-0.1-2.5,0-2.5-2.5
	c0-8.9,0-17.9,0-26.8c0-0.9-0.4-2.1,1.1-2.5c2.4-0.5,3.5-0.3,4.2,1.4c2.3,5.3,4.5,10.7,6.7,16.1c0.7,1.7,1.4,3.5,2.1,5.2
	c0.1,0.3,0.1,0.7,0.6,0.8c0.4-0.9,0.2-1.9,0.2-2.8c-0.3-3.9-0.1-7.7-0.1-11.6c0-2.6,0-5.1-0.1-7.7c0-1.1,0.3-1.5,1.4-1.5
	c2.6,0.1,2.2-0.1,2.2,2.1c0,9.1,0,18.3,0,27.4c0,0.7,0.3,1.8-0.8,2c-1.8,0.4-3.2,0.5-3.9-0.6c-0.5-0.9-0.9-1.8-1.2-2.7
	c-2.4-6.1-4.9-12.2-7.3-18.3C331.9,97.2,331.7,96.6,331.1,96.1L331.1,96.1z"/>
<path d="M363.5,109.7c0.2-6.9,0.1-13.6,0-20.4c0-1.6,0.1-1.7,1.7-1.7c2.7,0,5.3,0.2,7.9,0.7c2.7,0.5,4.3,2.2,4.9,4.7
	c1,3.8,0.5,7.2-2.9,9.7c-0.6,0.4-0.6,0.8,0.1,1.1c4.5,1.6,5.1,9.9,2,13.2c-1.4,1.5-3.2,2.1-5.1,2.4c-2.4,0.3-4.9,0.3-7.4,0.2
	c-1,0-1.3-0.4-1.3-1.4C363.5,115.4,363.9,112.5,363.5,109.7L363.5,109.7z M367.4,110.3C367.4,110.3,367.4,110.3,367.4,110.3
	c0,1.2,0,2.3,0,3.5c0,0.5,0.1,1,0.6,1.2c1.4,0.6,4.5,0.2,5.5-0.8c1.4-1.3,1.9-3.9,1.2-5.7c-1-2.5-3-3.4-5.6-3.2
	c-1.5,0.1-1.7,0.2-1.8,1.7C367.4,108.2,367.4,109.3,367.4,110.3L367.4,110.3z M367.4,96.4L367.4,96.4c0,1.1,0,2.1,0,3.2
	c0,1,0.4,1.6,1.5,1.4c0.6-0.1,1.3-0.1,2-0.1c1.5,0,2.3-0.8,2.9-2c0.5-1.2,0.6-2.5,0.4-3.8c-0.5-2.4-1.5-3.2-3.9-3.2
	c-0.6,0-1.2,0-1.7,0c-0.7,0-1,0.4-1,1.1C367.4,94.2,367.4,95.3,367.4,96.4L367.4,96.4z"/>
<path d="M402,103.7c0-4.4,0-8.7,0-13.1c0-0.3,0-0.7,0-1c0.1-2,0.1-2,2.1-2c2.8,0.1,5.5,0.4,8.2,0.7c2.1,0.3,3.5,1.4,4.2,3.3
	c1,2.4,1.1,4.8,0.5,7.3c-0.4,1.6-1.2,2.8-2.5,3.7c-0.8,0.6-0.9,1.1-0.6,2c1.7,4.3,3.4,8.6,4.8,13.1c0.4,1.2,0.2,1.5-1.1,1.6
	c-2.3,0.1-2.9-0.3-3.5-2.5c-0.8-2.9-1.7-5.8-2.8-8.6c-0.8-2.1-2-2.8-4.1-2.5c-0.9,0.1-1.2,0.6-1.2,1.5c0,3.4,0,6.9,0,10.3
	c0,1.6-0.1,1.7-1.7,1.7c-2.2,0-2.3-0.1-2.3-1.7C402.1,113,402.1,108.3,402,103.7L402,103.7L402,103.7z M406.3,96.4L406.3,96.4
	c0,1,0,2,0,3c0,1.5,0.2,1.7,1.7,1.7c0.3,0,0.7,0,1-0.1c3.4-0.4,5.3-4,3.6-6.9c-1-1.6-3.7-2.6-5.6-2.2c-0.6,0.1-0.7,0.5-0.7,1
	C406.3,94.2,406.3,95.3,406.3,96.4L406.3,96.4z"/>
<path d="M555.2,111.6c-1.5,0-2.7,0.1-4,0.3c-1.3,0.2-2.1,0.8-2.5,2c-0.4,1.2-0.8,2.5-1.3,3.8c-0.5,1.4-1.3,1.9-2.8,1.8
	c-1.3-0.1-1.6-0.4-1.2-1.6c0.8-2.4,1.6-4.8,2.3-7.2c2.1-6.9,4.2-13.8,6.5-20.7c0.6-1.8,1.6-2.5,3.3-2.2c0.8,0.1,1.3,0.5,1.6,1.2
	c0.2,0.6,0.5,1.2,0.7,1.9c2.3,8.3,5.3,16.3,7.7,24.6c0.2,0.9,0.5,1.8,0.7,2.6c0.2,0.9-0.2,1.3-1.1,1.4c-1.6,0.1-2.4-0.3-3-1.8
	c-0.5-1.3-0.9-2.6-1.4-3.9c-0.4-1.1-1.1-1.8-2.4-1.9C557.3,111.8,556.1,111.7,555.2,111.6L555.2,111.6z M554.9,93.2
	c-0.3,0.5-0.4,0.6-0.4,0.8c-1.3,4.1-2.2,8.4-3.6,12.4c-0.3,0.7,0.1,1,0.8,1c2.1,0,4.2,0,6.2,0c0.8,0,1.1-0.2,0.9-1.1
	c-0.7-2.2-1.3-4.5-2-6.8C556.1,97.4,555.5,95.5,554.9,93.2L554.9,93.2z"/>
<path d="M484.8,119.4c-1.8,0-2-0.4-1.5-1.8c2.8-7.8,4.9-15.8,7.5-23.6c0.4-1.2,0.9-2.4,1.3-3.6c0.4-1.3,1.2-2.2,2.6-2.4
	c1.1-0.1,2.4,1,2.9,2.4c2,6.2,4,12.5,6,18.7c0.9,2.9,1.7,5.9,2.6,8.8c0.3,1,0,1.3-0.9,1.4c-1.8,0.2-2.6-0.3-3.3-1.9
	c-0.5-1.3-0.7-2.6-1.3-3.9c-0.5-1-1.2-1.5-2.3-1.7c-2.6-0.4-5.2-0.3-7.8,0.1c-1,0.1-1.6,0.9-1.9,1.8c-0.4,1.2-0.8,2.5-1.2,3.8
	C486.8,118.8,486,119.6,484.8,119.4L484.8,119.4z M494.5,93.4c-0.1,0.2-0.2,0.4-0.3,0.5c-1.1,4.1-2.2,8.1-3.5,12.2
	c-0.3,0.8,0,1.3,0.9,1.3c2,0,3.9,0,5.9,0c1,0,1.3-0.3,1-1.4c-1.1-3.5-2.1-7.1-3.2-10.6C495.1,94.7,495.1,94,494.5,93.4z"/>
<path d="M307.1,98.9c0,3.1-0.1,6.1,0,9.2c0,1.9,0.4,3.7,1.4,5.4c1,1.5,2.4,2.3,4.2,2.1c1.9-0.2,3.1-1.2,3.7-3c0.6-1.8,1-3.7,1-5.6
	c0-5.2,0-10.4,0-15.7c0-0.6,0-1.2,0-1.9c0-1,0.3-1.5,1.4-1.5c2.4,0,2.4,0,2.4,2.4c0.1,5.4-0.1,10.9,0.1,16.3
	c0.1,3.5-0.7,6.8-2.4,9.8c-1.5,2.7-3.9,3.8-7,3.8c-3-0.1-5.5-1.1-6.9-4c-1.4-2.7-2.2-5.5-2.1-8.6c0-1.7-0.1-3.5-0.2-5.2
	c-0.3-4.4,0.3-8.7,0.1-13.1c0-1.1,0.4-1.4,1.5-1.4c2.6,0,2.6,0,2.6,2.6C307,93.3,307,96.1,307.1,98.9L307.1,98.9L307.1,98.9z"/>
<path d="M526.8,103.6c0-4.7,0-9.5,0-14.2c0-1.1,0.4-1.5,1.5-1.5c3.5,0.1,6.9,0.1,10.4,0c1.1,0,1.5,0.4,1.5,1.4c0,2.7,0,2.7-2.7,2.7
	c-1.9,0-3.8,0-5.6,0c-0.8,0-1.2,0.3-1.2,1.2c0,2.2,0,4.4,0,6.6c0,0.9,0.4,1.1,1.2,1.1c2.1,0,4.2,0,6.2,0c0.9,0,1.3,0.3,1.3,1.2
	c0,3.7,0.4,3.3-3.2,3.3c-1.4,0-2.8,0-4.2,0c-0.9,0-1.3,0.3-1.3,1.2c0,2.4,0,4.7,0,7.1c0,1.1,0.4,1.4,1.4,1.4c2.2-0.1,4.5,0,6.7-0.1
	c0.9,0,1.2,0.3,1.2,1.1c0.3,3.1,0.1,3.2-2.9,3.3c-2.9,0-5.7,0-8.6,0c-1.5,0-1.7-0.2-1.7-1.7C526.8,112.9,526.8,108.2,526.8,103.6
	L526.8,103.6L526.8,103.6z"/>
<path d="M384.5,103.7c0-4.8,0-9.5,0-14.3c0-1.1,0.3-1.5,1.5-1.5c3.3,0.1,6.7,0.1,10,0c1.1,0,1.4,0.3,1.5,1.4
	c0.3,3.1,0.2,2.7-2.6,2.7c-1.8,0-3.6,0-5.4,0c-0.9,0-1.3,0.4-1.2,1.3c0.1,2,0.1,4,0.1,6c0,1.2,0.3,1.6,1.6,1.6c1.9-0.1,3.8,0,5.6,0
	c0.9,0,1.2,0.3,1.2,1.2c-0.1,4,0.5,3.4-3.3,3.4c-1.2,0-2.5,0-3.8,0c-1,0-1.3,0.4-1.3,1.3c0,2.3,0,4.6,0,7c0,0.9,0.4,1.4,1.3,1.3
	c2.2,0,4.5,0,6.7,0c0.9,0,1.2,0.2,1.1,1.1c-0.1,0.8-0.1,1.6,0,2.4c0,0.8-0.3,1.1-1,1.1c-3.5-0.3-6.9,0.2-10.4,0.1
	c-1.5,0-1.6-0.1-1.6-1.6C384.5,113.3,384.5,108.5,384.5,103.7L384.5,103.7z"/>
<path d="M447.8,87.1c0.9,0,1.7,0.1,2.5,0.3c1.3,0.3,2,1.2,2.1,2.5c0.1,0.6,0.1,1.2,0.2,1.7c0.1,1.2-0.1,1.4-1.2,1
	c-1.2-0.4-2.4-0.8-3.6-0.9c-1.6-0.1-2.8,0.4-3.4,1.9c-0.7,1.5-0.7,3,0.5,4.3c1.2,1.4,2.7,2.5,4.2,3.5c4.6,3,5.5,8.5,4.1,13.1
	c-1.4,4.5-6.9,6.8-11.1,4.9c-1.2-0.6-2.3-3-1.9-4.2c0.2-0.7,0.8-0.6,1.3-0.5c1.1,0.3,2.1,0.7,3.3,0.7c1.8,0.1,3.3-0.5,4.2-2.2
	c1-1.8,0.9-3.5-0.2-5.2c-1-1.5-2.4-2.6-3.9-3.6c-2.6-1.7-4.2-3.9-4.8-7c-1-5,1.5-9.2,6-10.2C446.6,87.2,447.2,87.1,447.8,87.1
	L447.8,87.1z"/>
<path d="M512,105.5c0-4,0-8,0-11.9c0-1.2-0.4-1.6-1.6-1.6c-1.5,0.1-3,0-4.5,0c-0.8,0-1.2-0.3-1.2-1.2c0.1-3.5-0.4-3,2.8-3
	c4.6,0,9.2,0,13.7,0c1.7,0,1.7,0,1.7,1.7c0,2.7,0.2,2.5-2.5,2.5c-1,0-2,0-3,0c-1.6,0-1.8,0.1-1.7,1.7c0.3,7.9,0.1,15.8,0.1,23.6
	c0,0.6,0.3,1.5-0.4,1.8c-1,0.4-2.1,0.4-3,0c-0.6-0.2-0.5-1-0.5-1.6C512.1,113.6,512.1,109.6,512,105.5L512,105.5L512,105.5z"/>
<path d="M430.4,105.7c0,4,0,8.1,0,12.1c0,0.6,0.2,1.3-0.5,1.5c-1,0.3-2,0.4-2.9,0c-0.4-0.1-0.3-0.6-0.3-1c0.2-6.6-0.2-13.3,0.1-19.9
	c0.1-1.8-0.2-3.6,0-5.3c0.1-0.8-0.4-1-1.1-1c-1.7,0-3.3,0-5,0c-0.9,0-1.2-0.3-1.2-1.2c0-3.5-0.4-2.9,2.9-3c4.5,0,9.1,0,13.6,0
	c1,0,1.4,0.2,1.5,1.3c0.3,3.4,0,2.8-2.7,2.8c-0.9,0-1.8,0-2.6,0c-1.2,0-1.8,0.6-1.8,1.8C430.4,97.8,430.4,101.7,430.4,105.7
	L430.4,105.7z"/>
<path d="M474.7,87.9c2.6,0,5.2,0,7.7,0c0.9,0,1.3,0.3,1.2,1.2c-0.1,3.5,0.4,2.9-2.9,2.9c-1,0-1.9,0.1-2.9,0
	c-1.1-0.1-1.5,0.3-1.5,1.5c0,8.1,0,16.2,0.1,24.3c0,1.3-0.5,1.5-1.6,1.5c-1.8,0-2-0.2-2-1.6c0-8,0-16,0-24c0-1.6,0-1.7-1.7-1.7
	c-1.5,0-2.9,0-4.4,0c-0.9,0-1.2-0.4-1.2-1.2c0-3.6-0.2-2.9,2.8-3C470.4,87.9,472.5,87.9,474.7,87.9L474.7,87.9z"/>
<path d="M356.3,103.6c0,4.7,0,9.4,0,14.1c0,0.6,0.2,1.4-0.5,1.5c-1,0.2-2,0.3-2.9-0.1c-0.3-0.1-0.2-0.5-0.2-0.8c0-9.5,0-19-0.1-28.5
	c0-0.2,0-0.3,0-0.5c-0.1-0.9,0.3-1.3,1.3-1.3c2.5,0,2.5-0.1,2.5,2.4C356.3,94.7,356.3,99.2,356.3,103.6L356.3,103.6L356.3,103.6z"/>
<path d="M462,103.7c0,4.7,0,9.4,0,14.2c0,1.1-0.3,1.6-1.4,1.4c-0.2,0-0.5,0-0.8,0c-1.1,0.1-1.4-0.4-1.4-1.4c0-9.5,0-19,0-28.5
	c0-1.1,0.4-1.4,1.5-1.4c2.1,0,2.2,0,2.2,2.1L462,103.7L462,103.7L462,103.7z"/>
</svg>
