<?xml version="1.0" encoding="utf-8"?>
<!-- Generator: Adobe Illustrator 27.7.0, SVG Export Plug-In . SVG Version: 6.00 Build 0)  -->
<svg version="1.1" id="Capa_25" xmlns="http://www.w3.org/2000/svg" xmlns:xlink="http://www.w3.org/1999/xlink" x="0px" y="0px"
	 viewBox="0 0 1000 239" style="enable-background:new 0 0 1000 239;" xml:space="preserve">
<path d="M352,57.7c11.8-0.2,22.1,2.8,31.8,8c2.1,1.1,2.2,1.4,0.6,3.3c-5.7,7-11.4,14.1-17.1,21.1c-1.3,1.6-1.4,1.6-3.3,0.5
	c-3-1.8-6.1-3-9.6-3c-9.2,0.1-15.2,7.9-12.9,16.8c1.6,6.5,8.1,10,14.1,9.4c3.2-0.3,6.3-1.1,8.9-3.1c1.1-0.8,1.9-0.8,2.8,0.2
	c1.4,1.6,2.8,3.3,4.2,4.9c4.3,5.1,8.6,10.2,12.9,15.2c0.4,0.4,0.8,0.9,1.1,1.4c0.4,0.6,0.3,1.3-0.3,1.8c-0.4,0.3-0.8,0.6-1.2,0.9
	c-8,5.9-16.9,9-26.8,9.8c-8.1,0.7-15.9-0.4-23.5-3.1c-9.6-3.4-16.8-9.7-21.7-18.5c-4.6-8.3-6-17.3-5.1-26.7
	c0.6-6.5,2.2-12.8,5.7-18.4c6.7-10.8,16.5-17.1,28.8-19.7C345.1,57.9,348.9,57.5,352,57.7L352,57.7z"/>
<path d="M208.2,103.2c0-4.2,0-8.5,0-12.7c0-2.6-0.3-2.8-2.9-2.8c-1.2,0-2.5,0-3.7,0c-2-0.1-2.3-0.4-1.9-2.5c0.9-4.5,1.8-9,2.7-13.4
	c0.5-2.6,1-5.2,1.5-7.8c0.3-1.5,0.9-2.7,2.7-2.6c1.3,0,1.7-0.8,1.7-1.9c0-1.9,0.1-3.8,0-5.7s0.7-3,2.5-3.8c9.3-4,18.6-8.1,27.9-12.1
	c2-0.9,2.5-0.6,2.5,1.7c0.1,5.9,0,11.8,0,17.7c0,2.9,1.4,4.3,4.2,4.3c1,0,2,0,3,0c1.8,0.1,2.2,0.5,2.3,2.3c0.1,1.6,0,3.1,0,4.7
	c0,5.5,0,11,0,16.4c0,2.6-0.3,2.9-2.9,2.9c-1.4,0-2.8,0-4.2,0c-2,0.1-2.5,0.6-2.5,2.5c0,1.5,0.2,3,0.2,4.5c0,4,0,8,0,12
	c0,0.7,0,1.3,0.1,2c0.3,4.5,2.3,6.4,6.8,6.5c0.9,0,1.8,0,2.7-0.1c1.9,0,2.1,0.2,1.8,2.2c-0.3,1.8-0.7,3.6-1,5.4
	c-1.1,6.3-2.2,12.6-3.4,18.9c-0.4,2.3-0.4,2.3-2.8,2.7c-1.9,0.4-3.8,0.3-5.7,0.2c-5.2-0.2-10.3-0.6-15.2-2.4
	c-7.8-2.7-12.7-8-14.8-15.9c-1-3.9-1.3-7.9-1.4-11.8C208.1,110.7,208.2,106.9,208.2,103.2L208.2,103.2z"/>
<path d="M41,77c1.1-0.1,1.3-0.8,1.7-1.3c6.6-7.7,14.8-12.9,25-14.3c13.8-1.9,26.2,1.6,36.3,11.4c7.1,6.9,11.2,15.3,12.1,25.3
	c0.7,8.2-0.2,16.1-4,23.5c-6.9,13.3-18,21.2-33,22.8c-10.7,1.1-21-0.5-30-6.9c-10.4-7.4-16-17.5-17.3-30.1
	c-0.4-3.6-0.4-7.1-0.4-10.7c0-20.7,0-41.4,0-62c0-4.9,0.6-4.3,4-4.6c1.4-0.1,2.8-0.3,4.2-0.4c0.9-0.1,1.4,0.4,1.4,1.3
	c0,0.8,0,1.5,0,2.2c0,13.7,0,27.4,0,41.1C40.9,75.2,40.9,76,41,77L41,77z M73.6,135c16.3,0.8,32.8-13.5,32.8-32.4
	c0-17.2-14.9-32.5-32.9-32.5c-16.3,0.1-32.6,13.6-32.4,33C41.2,123,57.7,135.8,73.6,135z"/>
<path d="M262.5,102.3c0-12.3,0-24.6,0-36.9c0-0.7,0-1.3,0-2c0.1-2,0.5-2.5,2.5-2.6c5-0.2,10-0.7,14.9-1.1c3.8-0.4,7.6-0.6,11.4-0.9
	c0.3,0,0.7,0,1-0.1c2.8-0.1,3.1,0.1,3.1,3.1c0,13,0,26.1,0,39.1c0,12,0,23.9,0,35.9c0,0.3,0,0.7,0,1c0,3.5-0.1,3.5-3.6,3.8
	c-5.5,0.5-11,0.7-16.4,1.3c-3.4,0.4-6.8,0.2-10.2,0.6c-2.4,0.3-2.8-0.2-2.8-2.6c0-8.9,0-17.8,0-26.6
	C262.6,110.3,262.6,106.3,262.5,102.3L262.5,102.3z"/>
<path d="M180.8,132c-1,1.1-1.9,2-2.7,2.9c-5.8,6.4-13,9.7-21.6,10c-6.1,0.2-11.9-1-17.2-4.3c-5.7-3.5-8.9-8.8-10.7-15.1
	c-1.1-3.7-1.5-7.5-1.5-11.3c0-16.2,0-32.4,0-48.6c0-2.8,0.2-3.1,3-3.4c1.5-0.2,3-0.4,4.5-0.5c1.8-0.1,2.1,0.2,2.2,1.9
	c0.1,0.7,0,1.5,0,2.2c0,14.5,0,29.1,0,43.6c0,4.8,0.5,9.6,2,14.2c2.8,8.2,8.7,12.4,17.4,12.9c9.6,0.5,19.6-5.7,23.2-14.6
	c1.2-3,1.7-6,1.7-9.2c0-15,0-30.1,0-45.1c0-0.7,0-1.3,0-2c0-2.7,0.3-3,2.9-3.3c1.6-0.2,3.1-0.4,4.7-0.5c1.9-0.1,2.2,0.2,2.4,2
	c0,0.5,0,1,0,1.5c0,24.8,0,49.5,0,74.2c0,0.6,0,1.2-0.1,1.7c-0.1,1.1-0.7,1.7-1.7,1.8c-2.1,0.2-4.1,0.5-6.2,0.6
	c-1.7,0.1-1.9-0.1-2-1.8c-0.1-2.2,0-4.5,0-6.7C181.2,134.2,181.3,133.3,180.8,132L180.8,132z"/>
<path d="M639.5,118.1c0.8-0.3,0.9-0.8,1.1-1.3c2-4.9,4-9.8,6.1-14.7c0.7-1.5,0.6-2.8-0.1-4.3c-2.6-6.1-5.1-12.3-7.6-18.4
	c-1-2.6-0.6-3.1,2.1-3.5c1.3-0.2,1.8,0.5,2.2,1.5c1.8,4.4,3.6,8.8,5.4,13.1c0.3,0.8,0.6,1.7,1.2,2.4c0.9-0.2,0.9-1,1.2-1.5
	c1.9-4.6,3.8-9.2,5.7-13.8c0.8-1.8,1-1.9,2.5-1.7c2.6,0.4,2.9,1,1.9,3.4c-2.6,6.2-5.2,12.4-7.8,18.6c-0.6,1.4-0.7,2.6,0,4
	c2.2,5,4.2,9.9,6.3,14.9c0.2,0.4,0.4,0.7,0.6,1.1c1-0.3,1.1-1.3,1.4-2C667,104,672,91.8,677.1,79.6c0.2-0.5,0.4-0.9,0.6-1.4
	c1-2.4,2.7-3,5.1-1.7c1.1,0.6,0.7,1.4,0.4,2.1c-1,2.4-2,4.8-3,7.1c-6,14.3-11.9,28.5-17.8,42.8c-0.3,0.7-0.5,1.6-1.6,2.2
	c-3.5-7.9-6.7-15.9-10.3-23.9c-1.2,1.1-1.5,2.2-1.9,3.2c-2.7,6.3-5.3,12.5-8,18.8c-0.2,0.4-0.3,0.8-0.5,1.1c-0.3,0.5-0.8,0.6-1.2,0
	c-0.4-0.7-0.7-1.5-1.1-2.2c-5.6-13.3-11.1-26.7-16.7-40c-1.2-3-2.5-6-3.8-9c-0.8-2-0.6-2.4,1.6-2.8c2.7-0.5,2.8-0.5,3.8,2.2
	c5.3,12.7,10.6,25.5,15.9,38.2C638.9,117,639.2,117.5,639.5,118.1L639.5,118.1z"/>
<path d="M891.1,103.3c0,15.6-12.3,27.8-27.9,27.8c-15.6,0-28-11.8-28.1-28c0-14.5,10.8-27.6,28-27.8
	C880.3,75.2,891.8,89.7,891.1,103.3L891.1,103.3z M885.5,103.4c1-13.1-11.4-22.8-22-22.8c-12.2,0-23,9.9-22.9,22.6
	c0.1,13,9.8,22.7,22.7,22.8C876,126,886.4,114.9,885.5,103.4L885.5,103.4z"/>
<path d="M894.8,103c-0.3-12.4,9.8-27.7,28.1-27.7c16.4,0,28,13,27.9,27.8c-0.1,15.5-12.1,28.1-28.3,27.9
	C907,131,894.8,118.7,894.8,103L894.8,103z M922.7,80.7c-10.2-0.8-22.5,7.9-22.5,22.4c0,13.6,10.1,22.9,22.9,22.9
	c12.5,0,22.2-10,22.3-22.7C945.4,90.4,934.6,79.9,922.7,80.7z"/>
<path d="M542.7,89.8c-0.3,1-0.2,2-0.2,2.9c0,11.4,0,22.8,0,34.1c0,2.9-1,3.9-3.8,3.9c-0.8,0-1.3-0.3-1.3-1.1c0-0.7-0.1-1.3-0.1-2
	c0-16.2,0-32.4,0-48.6c0-0.9-0.2-1.8,0.5-3c4.2,4.4,7.8,9,11.5,13.5c3.9,4.5,7.7,9.2,11.5,13.7c3.8,4.5,7.6,8.9,11.5,13.6
	c0.7-1.2,0.5-2.1,0.5-3c0-10.8,0-21.6,0-32.4c0-0.6,0-1.2,0-1.7c0-2.9,1.2-4,4.2-3.7c0.7,0,1.1,0.4,1.2,1c0.1,0.7,0.1,1.5,0.1,2.2
	c0,16.1,0,32.2,0,48.3c0,1,0.4,2.4-0.7,2.7c-1,0.3-1.5-1.1-2.1-1.8c-10.4-12.4-20.8-24.9-31.2-37.3C543.9,90.6,543.6,90,542.7,89.8
	L542.7,89.8z"/>
<path d="M472.9,102.9c0,7.6,0,15.3,0,22.9c0,0.4,0,0.8,0,1.2c-0.1,2.7-1.5,3.8-4.2,3.4c-0.8-0.1-1.2-0.5-1.3-1.2
	c-0.1-0.7-0.1-1.5-0.1-2.2c0-6.1,0-12.3,0-18.4c0-0.7,0-1.3,0-2c0-0.8-0.5-1.2-1.2-1.3c-0.5,0-1,0-1.5,0c-7.9,0-15.8,0-23.7,0
	c-2.7,0-2.8,0.1-2.8,2.8c0,5.8,0,11.6,0,17.4c0,0.6,0,1.2,0,1.7c-0.1,2.4-1.8,3.7-4.1,3.2c-0.6-0.1-1.1-0.5-1.1-1.1
	c-0.1-0.8-0.1-1.6-0.1-2.5c0-15.5,0-31.1,0-46.6c0-0.2,0-0.5,0-0.8c0.1-2.8,1.7-4,4.4-3.4c0.6,0.1,0.9,0.5,0.9,1
	c0.1,0.7,0.1,1.5,0.1,2.2c0,5.7,0,11.5,0,17.2c0,0.6,0,1.2,0,1.7c0,1.1,0.5,1.7,1.6,1.7c8.7,0,17.5,0,26.2,0c1.2,0,1.5-0.8,1.5-1.8
	c0-2.3,0-4.6,0-7c0-3.9,0-7.8,0-11.7c0-2.6,2.2-4.1,4.7-3.4c0.6,0.2,0.8,0.6,0.8,1.1c0.1,0.7,0.1,1.5,0.1,2.2
	C472.8,87.3,472.8,95.1,472.9,102.9L472.9,102.9z"/>
<path d="M829.5,102.9c0,7.7,0,15.5,0,23.2c0,0.3,0,0.7,0,1c-0.1,2.6-1.8,4-4.4,3.4c-0.7-0.1-1-0.5-1.1-1.2c0-0.7-0.1-1.5-0.1-2.2
	c0-6.1,0-12.3,0-18.4c0-0.7,0-1.3,0-2c0-0.8-0.5-1.2-1.2-1.3c-0.5,0-1,0-1.5,0c-7.9,0-15.8,0-23.7,0c-2.7,0-2.8,0.1-2.8,2.8
	c0,5.9,0,11.8,0,17.7c0,0.8,0,1.5,0,2.2c0,1.3-0.6,2-1.9,2.1c-0.5,0-1,0.2-1.5,0.2c-1.6,0.2-2-0.1-2.1-1.7c-0.1-0.7,0-1.3,0-2
	c0-15.4,0-30.7,0-46.1c0-0.3,0-0.7,0-1c0-2.9,1.6-4.1,4.5-3.6c0.6,0.1,0.9,0.4,1,1c0.1,0.7,0.1,1.5,0.1,2.2c0,6,0,12,0,17.9
	c0,2.7,0.2,2.8,2.9,2.8c7.9,0,15.8,0,23.7,0c2.7,0,2.8-0.1,2.8-2.8c0-5.9,0-11.8,0-17.7c0-2.7,2.1-4.1,4.6-3.4
	c0.6,0.2,0.8,0.6,0.8,1.1c0.1,0.7,0.1,1.5,0.1,2.2C829.5,87.2,829.5,95,829.5,102.9L829.5,102.9z"/>
<path d="M278.6,20.6c1,0.1,1.6,0.7,2.2,1.2c3.5,3.3,7.1,6.5,10.7,9.7c1.9,1.7,3.9,3.4,5.9,5c1.6,1.3,1.7,1.7,0,3.1
	c-4,3.4-7.4,7.4-11.6,10.5c-1.8,1.4-3.3,3-4.9,4.6c-1.4,1.3-1.7,1.3-3.1,0c-5-4.5-10-9-15-13.4c-0.8-0.7-1.6-1.4-2.5-2.1
	c-0.8-0.7-0.9-1.5-0.1-2.4c0.5-0.5,1-0.9,1.4-1.4c5-4.6,10.1-9.1,15.1-13.7C277.4,21.2,277.9,20.7,278.6,20.6L278.6,20.6z"/>
<path d="M586.3,103.2c0-7.6,0-15.3,0-22.9c0-0.5,0-1,0-1.5c0.1-1.9,0.4-2.2,2.2-2.2c8.3,0,16.7,0,25,0c1.8,0,3.4,2.7,2.7,4.4
	c-0.2,0.4-0.5,0.6-1,0.7c-0.7,0.1-1.5,0.1-2.2,0.1c-5.7,0-11.5,0-17.2,0c-0.4,0-0.8,0-1.2,0c-2.4,0.1-2.6,0.1-2.6,2.5
	c0,3.7,0,7.5,0,11.2c0,0.8,0,1.5,0,2.2c0.1,2.1,0.2,2.3,2.3,2.3c4.8,0,9.7,0,14.5,0c0.8,0,1.5,0,2.2,0c1.5,0.1,1.8,0.4,1.9,2
	c0,0.1,0,0.2,0,0.2c0.1,2.4-0.3,2.8-2.7,2.8c-4.7,0-9.5,0-14.2,0c-0.7,0-1.3,0-2,0c-1.8,0.1-2,0.2-2.1,2c0,1.9,0,3.8,0,5.7
	c0,2.9,0,5.8,0,8.7c0,2.6,0.1,2.8,2.9,2.8c5.4,0,10.8,0,16.2,0c1.2,0,2.3,0,3.5,0c2.5,0,2.8,0.2,2.9,1.4c0.1,2.5-0.9,4-3,4
	c-4.2,0.1-8.3,0-12.5,0c-4.2,0-8.3,0-12.5,0c-2.9,0-3.2-0.3-3.2-3.1C586.3,119,586.3,111.1,586.3,103.2L586.3,103.2L586.3,103.2z"/>
<path d="M480.9,103.2c0-7.5,0-15,0-22.4c0-0.7,0-1.3,0-2c0.1-1.8,0.4-2.2,2.3-2.2c3.7,0,7.5,0,11.2,0c4.3,0,8.6,0,13,0
	c2.3,0,3.8,1.9,3.4,4.1c-0.1,0.6-0.5,0.9-1,1c-0.7,0.1-1.3,0.1-2,0.1c-6.2,0-12.5,0-18.7,0.1c-2.5,0-2.7,0.2-2.7,2.7
	c0,4.2,0,8.5,0,12.7c0,2.7,0.2,2.9,2.8,2.9c4.7,0,9.5,0,14.2,0c0.4,0,0.8,0,1.2,0c2.4,0.1,3.6,2.2,2.4,4.3c-0.5,0.8-1.2,0.8-2,0.8
	c-2.2,0-4.3,0-6.5,0c-3.2,0-6.5,0-9.7,0c-2.3,0-2.5,0.2-2.5,2.4c0,4.8,0,9.6,0,14.5c0,2.1,0.3,2.4,2.5,2.5c6.3,0,12.6,0,19,0
	c0.4,0,0.8,0,1.2,0c2.5,0,2.8,0.2,2.9,1.4c0.1,2.4-0.9,3.8-2.8,4c-0.5,0.1-1,0.1-1.5,0.1c-7.9,0-15.8,0-23.7,0
	c-2.8,0-3.1-0.3-3.1-3.2C480.8,119,480.9,111.1,480.9,103.2z"/>
<path d="M722.8,75.6c4.7-0.3,8.9,1.6,12.6,4.8c1.7,1.5,1.8,1.8,0.2,3.6c-0.1,0.1-0.2,0.2-0.3,0.4c-1.6,1.7-1.9,1.8-3.6,0.2
	c-3.1-2.9-6.7-4.1-11-3.7c-5.9,0.6-9.8,6-8.4,11.7c0.4,1.8,1.5,3.1,3,4.2c1.9,1.3,4,2,6.1,2.7c2.1,0.7,4.3,1.3,6.4,2
	c1.8,0.6,3.5,1.5,5.1,2.5c8.7,5.8,7.4,17.6,0.9,23c-6.6,5.4-16.3,5.6-23.2,0.4c-1.8-1.4-3.4-2.9-4.7-4.8c-0.6-0.9-0.6-1.7,0.3-2.3
	c0.3-0.2,0.7-0.5,1-0.7c2-1.3,2-1.3,3.4,0.5c3.7,4.8,8.7,6.5,14.6,5.4c4.2-0.8,7-3.3,8-7.6c0.6-2.6,0-5-1.7-7
	c-1.1-1.3-2.4-2.3-3.8-3.1c-2.3-1.3-4.8-2.3-7.4-3c-2-0.5-4-1.2-5.8-2.1c-5.3-2.5-8.3-6.7-8.2-12.6c0.1-6,3.3-10.3,8.7-12.9
	C717.3,75.9,719.2,75.6,722.8,75.6L722.8,75.6z"/>
<path d="M748.6,103.2c0,6.3,2.1,11.6,6.4,16.2c6.1,6.4,16.9,8.1,24.2,4.8c0.3-0.1,0.6-0.3,0.9-0.4c2.2-0.9,2.5-0.6,2.2,1.6
	c-0.5,3.5-0.7,3.8-4.4,4.7c-16.2,4.2-32-6.3-34.7-22.8c-2.4-14.6,8.6-30.7,25.3-31.9c3.5-0.2,6.8,0.1,10.1,0.9
	c2,0.5,3.3,1.5,3.3,3.7c0,1,1,2.3,0,3c-0.8,0.6-1.8-0.5-2.7-0.9c-13.7-5.4-28.3,2.9-30.5,17C748.7,100.5,748.7,101.9,748.6,103.2
	L748.6,103.2z"/>
<path d="M408.9,105.9c0-6.7,0-13.5,0-20.2c0-0.7,0-1.3,0-2c-0.1-1.6-0.3-1.9-2-1.9c-2.4-0.1-4.8,0-7.2-0.1c-1.1,0-2.2,0-3.2,0
	c-1.7-0.1-1.9-0.4-1.7-1.9c0.4-2.8,0.9-3.2,3.7-3.2c8.8,0,17.6,0,26.5,0c0.5,0,1,0,1.5,0c1,0,1.5,0.6,1.6,1.6c0,0.5,0.1,1,0,1.5
	c-0.1,1.7-0.4,2.1-2.1,2.1c-2.6,0.1-5.2,0-7.7,0c-2.4,0-3.7,1.2-3.7,3.7c0,13.3,0,26.6,0,39.9c0,0.5,0,1,0,1.5
	c0,2.9-1.5,4.1-4.4,3.6c-0.7-0.1-1-0.5-1.1-1.1c-0.1-0.7-0.1-1.5-0.1-2.2C409,120,409,113,408.9,105.9L408.9,105.9z"/>
<path d="M956.9,103.1c0-7.5,0-14.9,0-22.4c0-0.5,0-1,0-1.5c0.1-2.5,2.1-3.8,4.4-3c0.7,0.2,0.9,0.7,1,1.3c0.1,0.8,0.1,1.7,0.1,2.5
	c0,13.6,0,27.2,0,40.8c0,3.7,0,3.7,3.8,3.7c3.9,0,7.8,0,11.7,0c0.7,0,1.3,0,2,0.1c0.4,0.1,0.8,0.3,0.9,0.7c0.4,1.3-1.3,4.3-2.7,4.5
	c-0.7,0.1-1.3,0.1-2,0.1c-5.2,0-10.5,0-15.7,0c-0.6,0-1.2,0-1.7-0.1c-1.1-0.1-1.7-0.7-1.7-1.8c0-0.8,0-1.5,0-2.2
	C956.9,118.4,956.9,110.7,956.9,103.1L956.9,103.1L956.9,103.1z"/>
<path d="M250,194c0-3.3,0-6.7,0-10c0-2.2,0-2.2-2.1-2.6c-0.8-0.2-1.6-0.2-1.6-1.2c0-1,0.2-2.2,1.5-2.3c2-0.1,2.3-1.1,2.3-2.7
	c0-1.2,0.3-2.3,0.7-3.4c1.2-3.4,4.6-5.6,8.1-5.4c1.2,0.1,1.9,0.6,2.2,1.7c0.3,1,0,1.7-1.1,1.8c-0.9,0.1-1.8,0.2-2.7,0.4
	c-2.8,0.7-4.4,3.7-3.6,6.5c0.2,0.6,0.6,1,1.2,1c2.4,0,4.8,0.1,7.2,0c0.9,0,1.3-0.6,1.4-1.4c0.2-1.4,0.4-2.8,0.8-4.2
	c1.1-3.7,4-5.8,7.8-5.8c0.9,0,1.7,0,2.2,0.8c1.1,1.4,0.6,2.5-1.1,2.8c-0.5,0.1-1,0.1-1.5,0.1c-3.3,0.5-5.2,3.2-4.6,6.5
	c0.2,0.9,0.7,1.2,1.6,1.2c1.2,0,2.3,0,3.5,0c1.4,0.1,1.9,0.5,1.9,1.8c0,1.2-0.4,1.7-1.9,1.8c-1.2,0.1-2.3,0-3.5,0.1
	c-1,0-1.5,0.6-1.5,1.6c0,1.3,0,2.7,0,4c0,5.3,0,10.6,0,16c0,1.2,0,2.4-1.5,2.8c-1.2,0.4-1.9,0-2.1-1.3c-0.1-0.7,0-1.3,0-2
	c0-5.7,0-11.5,0-17.2c0-0.8,0-1.5,0-2.2c0-1-0.6-1.5-1.6-1.5c-2.2,0-4.5,0-6.7,0c-1,0-1.5,0.6-1.6,1.6c0,0.8,0,1.5,0,2.2
	c0,5.9,0,11.8,0,17.7c0,2-0.5,2.6-2,2.9c-1,0.2-1.6-0.1-1.6-1.2c0-1.9,0-3.8,0-5.7C250,197.3,250,195.6,250,194L250,194z"/>
<path d="M229.8,181.7c0.6-1,0.3-1.8,0.4-2.6c0-3.4,0-6.8,0-10.2c0-1.2,0.3-2.1,1.7-2.4c1.2-0.2,1.7,0.1,1.9,1.3
	c0.1,0.6,0.1,1.2,0.1,1.7c0,10.9,0,21.8,0,32.6c0,0.7,0,1.5-0.1,2.2c-0.2,0.9-1.4,1.6-2.3,1.4c-1-0.1-1-0.9-1.1-1.7
	c-0.1-0.8,0.1-1.7-0.3-2.7c-1.9,1.2-3.3,3-5.4,3.7c-2.2,0.8-4.4,1.3-6.8,0.9c-2.2-0.4-4.4-1-6.3-2.2c-1.9-1.2-3.5-2.8-4.6-4.8
	c-3.3-5.5-2.8-13.7,3.2-18.7C215.7,175.4,222.9,175.8,229.8,181.7L229.8,181.7z M230.1,191.8c0.5-6.8-5.5-11.2-10.8-11.2
	c-6.2,0-11.3,4.8-11.4,10.9c-0.1,6.3,4.8,11.3,11.1,11.3C226.1,202.8,230.6,196.9,230.1,191.8L230.1,191.8z"/>
<path d="M133.9,181.8c1.1-0.3,1.5-0.9,2-1.3c9.4-7.8,21.4-1.5,23.4,7.8c2,9.1-4.4,17.7-13.8,17.9c-6.6,0.2-12.2-3.3-14.3-10.2
	c-0.5-1.7-0.8-3.4-0.9-5.1c0-7.2,0-14.4,0-21.7c0-1.2,0.1-2.4,1.6-2.7c1.3-0.3,1.9,0,2,1.4c0.1,0.9,0,1.8,0.1,2.7
	C133.9,174.3,133.9,177.9,133.9,181.8L133.9,181.8z M145.1,202.7c6.2,0,11-4.9,11-11.2c0-6.2-4.9-11-11.1-11
	c-6.4,0-11.2,5-11.1,11.6C134,198.1,138.9,202.7,145.1,202.7L145.1,202.7z"/>
<path d="M176.8,202.7c2.7,0,5.5-1.2,8.1-3c0.7-0.5,1.3-1.5,2.4-1c0.6,0.3,0.6,2.7,0,3.5c-0.2,0.3-0.4,0.5-0.7,0.7
	c-6.7,4.5-15.3,4.8-20.9-1.5c-4.2-4.6-5.1-10-2.6-15.8c2.5-5.8,7.3-8.6,13.4-8.7c4-0.1,7.7,1.4,10.2,4.8c1.3,1.7,1.2,2.2-0.6,3.3
	c-4.6,2.8-9.1,5.5-13.7,8.2c-1.4,0.8-2.7,1.6-4,2.5c-1.6,1-1.6,1.4-0.5,2.9C169.9,201.3,172.9,202.7,176.8,202.7z M165.6,193.1
	c0.5,0.2,0.8-0.1,1.1-0.3c2.1-1.2,4.1-2.4,6.2-3.7c2.8-1.7,5.6-3.3,8.3-5c1.5-0.9,1.4-1.6-0.1-2.5c-0.9-0.5-2-0.8-3.1-1
	C170.2,179.2,163.9,186.8,165.6,193.1L165.6,193.1z"/>
<path d="M274.5,191.5c0-9.6,9.1-16.5,18.4-13.9c2.6,0.7,4.7,2.1,6.4,4.2c1.5,1.8,1.4,2.2-0.6,3.4c-5.6,3.4-11.3,6.8-16.9,10.1
	c-0.4,0.2-0.7,0.4-1.1,0.6c-1.3,0.9-1.4,1.2-0.4,2.6c2.8,3.6,6.5,4.7,10.9,4c2.2-0.3,4.1-1.3,5.9-2.5c0.6-0.4,1.2-0.8,1.9-1.2
	c0.5-0.3,0.9-0.2,1.1,0.5c0.5,1.5,0,3.2-1.3,3.9c-3.7,2.2-7.7,3.6-12.1,2.8C279.4,204.7,274.5,198.8,274.5,191.5L274.5,191.5z
	 M278.1,190.9c0,2.1,0.4,2.5,1.7,1.7c4.9-2.8,9.7-5.8,14.5-8.7c1-0.6,1-1.1,0-1.9c-0.4-0.3-0.8-0.6-1.3-0.8
	C285.7,178.5,278.1,183.7,278.1,190.9z"/>
<path d="M317.4,191.4c0-9.6,9.2-16.5,18.4-13.9c2.6,0.7,4.7,2.1,6.4,4.2c1.4,1.8,1.4,2.2-0.6,3.4c-5.6,3.4-11.3,6.8-16.9,10.1
	c-0.3,0.2-0.6,0.3-0.9,0.5c-1.6,1-1.7,1.4-0.4,2.9c2.8,3.4,6.5,4.5,10.7,3.8c2.2-0.3,4.1-1.3,5.9-2.5c0.6-0.4,1.2-0.8,1.9-1.2
	c0.5-0.3,0.9-0.1,1.1,0.5c0.4,1.4,0,3.1-1.1,3.8c-3.7,2.3-7.6,3.7-12.1,2.9C322.4,204.8,317.4,198.9,317.4,191.4L317.4,191.4z
	 M321,190.9c0.1,0.6-0.3,1.5,0.5,1.9c0.7,0.3,1.2-0.3,1.8-0.6c4.6-2.7,9.1-5.4,13.6-8.2c1.3-0.8,1.3-1.3,0.1-2.2
	c-0.3-0.2-0.7-0.5-1.1-0.6C328.8,178.5,321.1,183.6,321,190.9z"/>
<path d="M350.6,181.2c1.1-1.3,2.4-2.3,3.9-3.1c5-2.7,12.5-0.4,13.7,6.5c0.2,1,0.4,2,0.4,3c0,5.2,0,10.3,0,15.5
	c0,1.2-0.1,2.3-1.6,2.7c-1.2,0.3-1.8,0-1.9-1.2c-0.1-0.7-0.1-1.3-0.1-2c0-4.5,0-9,0-13.5c0-1.4-0.1-2.8-0.5-4.2
	c-0.9-2.7-2.7-4.1-5.5-4.3c-4.9-0.4-8.7,3-8.8,8c-0.1,4.4,0,8.8,0,13.2c0,0.7,0,1.3,0,2c-0.1,1.4-1,2.2-2.3,2
	c-1.3-0.1-1.3-1.1-1.3-2c0-7.9,0-15.8,0-23.7c0-0.6,0.1-1.2,0.3-1.7c0.5-0.9,1.4-1.2,2.3-1c0.8,0.2,0.9,0.9,0.9,1.6c0,0.7,0,1.3,0,2
	C350.3,181.1,350.4,181.1,350.6,181.2L350.6,181.2z"/>
<path d="M383.7,202.6c0.6,0,1.6-0.5,1.9,0.9c0.2,1.2-0.3,2-1.6,2.4c-2.9,1-6.7-0.6-7.9-3.5c-0.9-2-1.1-4.2-1.1-6.3
	c0-4.1,0-8.1,0-12.2c0-2,0-2-1.9-2.5c-0.8-0.2-1.5-0.3-1.5-1.3c0.1-0.9,0.3-1.8,1.3-2.2c2-0.8,2-0.8,2-2.9c0-0.7,0-1.3,0-2
	c0-1.1,0.6-1.8,1.6-2.3c1.4-0.7,1.9-0.4,2,1c0.1,1.2,0,2.5,0.1,3.7c0.1,2.1,0.2,2.2,2.3,2.3c1,0,2,0,3,0.1c1.2,0,1.5,0.8,1.6,1.8
	c0,1-0.5,1.6-1.5,1.7c-1.1,0.1-2.2,0-3.2,0.1c-1.8,0.1-2.1,0.3-2.1,2c0,5-0.1,10,0.1,14.9C378.7,201.7,380.1,202.8,383.7,202.6
	L383.7,202.6z"/>
<path d="M307.9,181.8c1.5-1.5,2.7-3.1,4.6-3.8c0.9-0.3,1.9-0.6,2.9-0.8c0.6-0.1,1.2-0.3,1.6,0.2c0.5,0.6,0.1,1.3-0.2,1.8
	c-0.4,0.7-0.9,1.2-1.7,1.4c-5.5,1.3-7,5.5-7.4,10.3c-0.3,3.6-0.1,7.3-0.1,11c0,0.8,0,1.5-0.1,2.2c-0.2,1.2-1.4,2-2.6,1.8
	c-0.5,0-0.8-0.3-0.9-0.7c-0.1-0.4-0.1-0.8-0.1-1.2c0-8,0-16,0-23.9c0-1.1,0-2.2,1.4-2.6c1.2-0.3,1.9,0,2.1,1.3
	C307.7,179.7,307.4,180.6,307.9,181.8L307.9,181.8z"/>
<path d="M242.8,191.6c0,3.6,0,7.1,0,10.7c0,0.7,0,1.3-0.1,2c-0.2,1.2-1.2,1.5-2.2,1.5c-1.2,0-1.2-0.9-1.3-1.8c-0.1-1.7,0-3.5,0-5.2
	c0-6.1,0-12.2,0-18.4c0-2.1,0.3-2.6,1.6-2.9s1.9,0,2,1.4c0.1,1.4,0.1,2.8,0.1,4.2C242.8,186,242.8,188.8,242.8,191.6z"/>
<path d="M240.8,171.5c-0.8-0.1-2.2-1.8-2-2.5c0.1-0.8,1.6-2.1,2.3-2c0.8,0,2.1,1.5,2,2.2C243,170,241.5,171.6,240.8,171.5
	L240.8,171.5z"/>
</svg>
