<?xml version="1.0" encoding="UTF-8"?>
<svg id="Capa_22" data-name="Capa 22" xmlns="http://www.w3.org/2000/svg" viewBox="0 0 1000 1000">
  <path d="m818.12,500.31c1.75.53,3.28.91,4.75,1.45,5.79,2.13,9.41,6.17,10.65,12.21,1.54,7.46,1.43,14.94-.49,22.32-2.41,9.24-8.55,14.4-17.94,15.84-3.74.57-7.5.86-11.28.86-30.11.02-60.23.01-90.34.01-1.49,0-1.51-.01-1.51-1.47,0-33.38,0-66.76,0-100.13,0-1.45.03-1.48,1.51-1.48,28.89,0,57.78-.02,86.67.04,4.51,0,9.02.32,13.44,1.42,9.57,2.38,15.12,8.44,16.47,18.22.84,6.08.97,12.17-.42,18.19-.88,3.83-2.54,7.26-5.75,9.75-1.65,1.28-3.56,2.06-5.77,2.77Zm-48.59,29.55c4.41,0,8.81,0,13.22,0,4.85-.01,9.7.02,14.55-.07,4.4-.08,6.76-2.11,7.64-6.42.34-1.68.33-3.39.01-5.08-.78-4.16-2.82-6.11-6.99-6.72-.76-.11-1.55-.1-2.33-.11-18-.01-36-.02-54-.05-1.04,0-1.32.35-1.31,1.35.04,5.14.02,10.29.02,15.43q0,1.66,1.63,1.67c9.18,0,18.37,0,27.55,0Zm-2.27-56.79h0c-8.51-.01-17.03,0-25.54-.03-1.06,0-1.4.3-1.39,1.37.05,4.99.02,9.99.02,14.98q0,1.56,1.6,1.56c15.51,0,31.02,0,46.54,0,1.96,0,3.92-.07,5.88-.23,4.16-.33,6.45-2.41,7.22-6.53.19-.99.22-1.99.16-2.98-.24-4.22-2.59-7.1-6.41-7.84-1.27-.24-2.57-.32-3.87-.32-8.07.01-16.14,0-24.21,0Z"/>
  <path d="m542.09,501.45c0,16.73,0,33.45.02,50.18,0,1.06-.28,1.39-1.36,1.39-8.82-.04-17.63-.04-26.45,0-1.01,0-1.32-.29-1.31-1.32.04-12.14.02-24.28.02-36.41q0-1.58-1.58-1.58c-20.74,0-41.49,0-62.23,0q-1.67,0-1.67,1.64c0,11.92,0,23.83,0,35.75q0,1.91-1.88,1.91c-8.52,0-17.04,0-25.56,0q-1.74,0-1.74-1.68c0-33.27,0-66.54,0-99.8,0-1.59,0-1.59,1.61-1.59,8.67,0,17.34,0,26,0,1.49,0,1.57.07,1.57,1.57,0,11.62,0,23.24,0,34.86q0,1.71,1.7,1.71c20.71,0,41.41,0,62.12,0q1.66,0,1.66-1.6c0-11.69.01-23.39-.02-35.08,0-1.09.24-1.48,1.4-1.47,8.78.04,17.56.04,26.34,0,1.05,0,1.39.28,1.38,1.37-.03,16.73-.02,33.45-.02,50.18Z"/>
  <path d="m688.26,483.92c0,10.62.09,21.24-.04,31.86-.07,5.58-.49,11.16-2.08,16.57-2.73,9.26-8.89,15.24-17.85,18.5-4.6,1.67-9.38,2.45-14.25,2.61-13.55.44-27.1.58-40.65.36-6.47-.1-12.96-.06-19.39-1.03-6.59-.99-12.71-3.17-17.9-7.49-4.09-3.41-6.28-7.97-7.62-13-1.11-4.2-1.68-8.49-1.86-12.82-.6-13.9-.12-27.81-.23-41.72-.07-8.73-.01-17.47-.01-26.2,0-1.62,0-1.63,1.58-1.63,8.67,0,17.33,0,26,0,1.55,0,1.6.05,1.6,1.65,0,18.69,0,37.37,0,56.06,0,3.18.07,6.35.66,9.5,1.27,6.78,4.2,9.7,11.05,10.88,3.4.59,6.83.85,10.27.89,6.15.06,12.3.11,18.44-.02,4.28-.09,8.59-.16,12.82-1,6.01-1.2,8.61-3.95,9.61-10.04.51-3.11.67-6.25.67-9.4.03-18.65.02-37.3.03-55.95,0-.37,0-.74,0-1.11.02-1.36.1-1.46,1.45-1.46,6.3,0,12.59,0,18.89,0,2.37,0,4.74,0,7.11,0q1.74,0,1.74,1.69c0,10.77,0,21.54,0,32.3-.01,0-.03,0-.04,0Z"/>
  <path d="m175.99,481.95c0,9.51,0,19.02,0,28.53,0,3.01.44,5.97,1.15,8.89,1.03,4.25,3.74,6.84,7.92,8.02,2.69.76,5.44,1.12,8.21,1.3,7.84.5,15.7.31,23.54.19,4.21-.06,8.43-.22,12.6-1.01,5.36-1.02,8.03-3.57,9.18-8.9.81-3.71.91-7.48.91-11.26.02-18.61.01-37.22.03-55.84,0-.53-.27-1.29.25-1.54.53-.25.93.45,1.35.78,8.86,7.05,17.72,14.12,26.59,21.16.68.54.96,1.11.96,1.97-.01,13.73.06,27.46-.03,41.18-.03,5.14-.43,10.27-1.64,15.3-2.42,10.03-8.66,16.61-18.26,20.12-4.63,1.69-9.45,2.46-14.36,2.62-13.55.44-27.1.58-40.65.36-6.43-.1-12.89-.06-19.28-1.03-6.7-1.01-12.93-3.22-18.16-7.7-3.85-3.3-5.98-7.65-7.29-12.45-1.25-4.55-1.88-9.21-1.99-13.91-.54-22.53-.09-45.06-.25-67.59,0-.94.35-1.22,1.24-1.22,8.89.02,17.78.03,26.67,0,1.17,0,1.31.57,1.31,1.52-.02,10.18-.01,20.35-.01,30.53h.02Z"/>
  <path d="m331.46,449.92c22.26,0,44.52,0,66.77,0,.33,0,.67.02,1,0,.77-.04,1.07.34,1.02,1.08-.02.29,0,.59,0,.89,0,7.44,0,14.87,0,22.31,0,1.45-.04,1.49-1.5,1.49-13,0-26,0-39,0q-1.75,0-1.76,1.78c0,24.42,0,48.84,0,73.26,0,.37-.02.74,0,1.11.06.86-.31,1.18-1.17,1.17-2.3-.04-4.59-.01-6.89-.01-6.48,0-12.96,0-19.44,0q-1.69,0-1.69-1.74c0-24.61,0-49.21,0-73.82q0-1.75-1.76-1.76c-10.66-.06-21.33-.12-31.99-.16-.75,0-1.33-.21-1.91-.69-9.7-7.9-19.42-15.78-29.13-23.66-.36-.3-1.06-.58-.93-.99.18-.58.91-.27,1.39-.27,22.33-.02,44.66-.01,67-.01v.02Z"/>
  <path d="m861,459.14c-.02,5.04-4.16,9.1-9.26,9.08-5.04-.02-9.23-4.19-9.22-9.19,0-5.11,4.21-9.19,9.44-9.16,5.06.02,9.07,4.14,9.04,9.27Zm-16.28-.1c0,3.99,3.04,7.05,7,7.06,4.06.01,7.15-3.02,7.17-7.03.01-4.03-3.05-7.11-7.07-7.12-4.05,0-7.1,3.03-7.09,7.08Z"/>
  <path d="m853.84,459.11c1.23,1.07,1.7,2.5,2.38,3.81.31.59.04.77-.55.82-1.78.15-1.91.08-2.73-1.54-.28-.56-.57-1.12-.93-1.63-.31-.44-.83-.48-1.31-.33-.46.15-.34.6-.35.96-.02.37,0,.74,0,1.11,0,1.37-.09,1.4-1.43,1.44-.97.03-1.32-.34-1.31-1.29.03-2.44.03-4.88,0-7.32,0-.88.3-1.3,1.23-1.25,1.25.07,2.52-.09,3.77.11,1.18.19,2.26.56,2.6,1.89.35,1.34-.09,2.4-1.36,3.23Zm-2.58-1.02c.76.06,1.34-.2,1.34-1.05,0-.79-.54-1.02-1.26-1.07-.78-.05-1.05.26-1.02,1.02.03.65.04,1.22.94,1.1Z"/>
</svg>