<?xml version="1.0" encoding="UTF-8"?>
<svg id="Capa_24" data-name="Capa 24" xmlns="http://www.w3.org/2000/svg" viewBox="0 0 1000 1000">
  <defs>
    <style>
      .cls-1 {
        fill: #fff;
      }

      .cls-2 {
        fill: #1e1e1c;
      }
    </style>
  </defs>
  <path class="cls-1" d="m516,657.66c-129.91,0-259.82,0-389.73.04-1.53,0-1.87-.34-1.87-1.87.04-123.17.04-246.34,0-369.51,0-1.53.34-1.87,1.87-1.87,259.82.04,519.64.04,779.46,0,1.53,0,1.87.34,1.87,1.87-.04,123.17-.04,246.34,0,369.51,0,1.53-.34,1.87-1.87,1.87-129.91-.04-259.82-.04-389.73-.04Zm226.3-111.76c0-19.76,0-39.52,0-59.27,0-4.66-1.55-6.23-6.14-6.23-12.64,0-25.27,0-37.91,0-4.49,0-6.53,1.76-7.13,6.22-.73,5.48-2.57,10.69-3.72,16.07-1.36,6.36-3.39,12.58-4.81,18.93-1.38,6.19-3.01,12.31-4.53,18.46-.12.5-.28,1.03-.71,1.09-.63.1-.89-.46-1.01-1.04-.09-.45-.25-.89-.36-1.35-1.62-6.5-3.27-13-4.86-19.5-1.39-5.66-2.73-11.34-4.1-17.01-1.34-5.56-2.72-11.11-4-16.69-.73-3.19-2.55-5.16-5.32-5.17-13.59-.04-27.18-.02-40.77,0-1.6,0-2.78.77-3.77,2.05-1.24,1.61-.74,3.39-.74,5.12-.01,38.7,0,77.4-.01,116.1,0,.61.13,1.26-.04,1.83-.88,3.02,1.57,6.33,4.91,6.24,7.54-.2,15.08-.03,22.62-.05,2.46,0,4.17-1.47,4.64-3.88.19-.99.26-2.01.26-3.02.01-23.15.01-46.31.01-69.46,0-.54-.05-1.09.02-1.63.09-.69,0-1.72.85-1.78.59-.05.83.84,1.02,1.53,2.31,7.98,4.01,16.1,6.04,24.14,1.95,7.74,3.89,15.48,5.77,23.23,1.67,6.87,3.23,13.76,4.87,20.64.5,2.11,1,4.22,1.62,6.29.72,2.4,2.67,4.28,4.54,4.13,4.67-.38,9.35-.03,14.02-.18,3.17-.1,5.77-2.14,6.3-4.8.66-3.25,1.31-6.51,2.1-9.73,1.61-6.58,3.35-13.13,4.97-19.71,1.04-4.24,1.89-8.52,2.93-12.75,1.37-5.58,2.95-11.12,4.22-16.72,1.14-5.02,2.38-10.01,3.68-14.99.18-.68.12-1.69,1.1-1.57.91.11,1.03,1.05,1.01,1.87,0,.34,0,.68,0,1.02,0,23.9.06,47.8-.06,71.7-.02,3.72,2.17,5.71,5.58,5.7,7.34-.03,14.68,0,22.01-.03,2.1,0,3.44-1.06,4.31-2.98.53-1.17.59-2.32.59-3.53,0-19.76,0-39.52,0-59.27Zm-416.78-150.61c0-19.76.03-39.51-.02-59.27-.01-4.81-1.39-6.4-6.36-6.43-12.57-.06-25.14-.02-37.7-.02-.68,0-1.36.04-2.02.14-2.06.32-4.04,2.21-4.52,4.24-.75,3.19-1.53,6.38-2.28,9.57-1.48,6.31-3.35,12.52-4.74,18.86-.41,1.88-.51,3.82-1.17,5.64-1.13,3.08-1.66,6.32-2.42,9.49-.87,3.6-1.69,7.22-2.65,10.8-.2.75-.38,2.01-1.32,2.02-1.01,0-.99-1.29-1.18-2.02-.73-2.83-1.12-5.76-1.97-8.56-.96-3.14-1.14-6.49-2.4-9.48-1.22-2.91-.19-6.33-2.3-8.96-.07-.08.02-.28-.03-.4-1.32-3.09-1.08-6.5-2.26-9.73-1.83-4.99-2.72-10.34-3.8-15.58-.76-3.68-2.6-6-5.71-6.01-13.31-.07-26.63-.05-39.95,0-2.27,0-3.96,1.02-4.99,3.19-.52,1.11-.1,2.1-.1,3.12-.04,39.24-.04,78.48-.03,117.72,0,.81.13,1.63.07,2.43-.19,2.56,1.63,4.79,4.18,4.81,7.68.06,15.35.07,23.03.02,2.29-.01,4.35-1.29,4.59-2.92.21-1.44.61-2.86.61-4.36-.04-23.35-.03-46.71-.03-70.06,0-.48,0-.95,0-1.43,0-.55-.06-1.17.75-1.15.59.02.84.36,1,1,.67,2.67,1.72,5.27,2.16,7.97.88,5.4,2.43,10.62,3.67,15.93,1.47,6.29,3.13,12.54,4.62,18.83,1.12,4.75,2.41,9.46,3.41,14.25,1.16,5.57,2.83,11.03,4,16.61.8,3.84,2.94,5.34,6.9,5.35,4.21,0,8.42.03,12.64,0,2.61-.02,4.59-1.23,5.47-3.7.77-2.18,1.29-4.46,1.76-6.73,1.03-5.06,2.4-10.03,3.64-15.04,1.74-7.05,3.37-14.14,4.98-21.22.49-2.16,1.52-4.22,1.86-6.29.34-2.09.67-4.25,1.2-6.25,1.65-6.32,3.2-12.66,4.67-19.02.18-.79.51-1.55,1.25-1.49.67.05,1.28.69,1.21,1.61-.04.47,0,.95,0,1.43,0,23.83.04,47.66-.04,71.49-.01,3.34,1.85,5.17,4.68,5.2,7.54.09,15.08.06,22.62.02,2.89-.01,4.64-1.66,4.96-4.51.09-.81.12-1.62.12-2.43,0-19.55,0-39.1,0-58.66Zm-79.22,150.62c0,19.83.07,39.65-.05,59.48-.03,4.33,2.12,6.42,6.3,6.34,6.59-.12,13.19.14,19.77-.09,5.24-.18,5.45-1,6.53-5.29.13-.51.05-1.08.05-1.62,0-9.1,0-18.2,0-27.29,0-10.52,0-21.05,0-31.57,0-.74-.13-1.67.81-1.84.84-.16,1,.72,1.25,1.33,2.46,6.01,4.9,12.02,7.38,18.01,2.83,6.83,5.58,13.68,8.38,20.52,3.16,7.73,6.1,15.55,9.5,23.2,1.47,3.3,3.69,4.71,7.3,4.66,8.9-.13,17.8-.04,26.7-.04.54,0,1.19-.17,1.6.07.71.4,1,0,1.55-.3,2.31-1.27,2.9-3.38,2.9-5.72.02-39.92.02-79.85,0-119.77,0-4.28-2.46-5.65-5.54-5.61-7.06.1-14.13.03-21.2.03-3.93,0-5.59,1.66-5.59,5.58,0,19.55,0,39.11,0,58.66,0,.54.04,1.09-.02,1.63-.07.72-.39,1.31-1.19,1.42-.77.1-1.04-.42-1.24-1.05-.26-.82-.53-1.63-.86-2.43-1.81-4.42-3.73-8.79-5.41-13.25-1.33-3.53-2.8-7.02-4.22-10.5-1.32-3.23-2.64-6.51-4.09-9.72-2.04-4.51-3.92-9.11-5.6-13.76-1.09-3.01-2.54-5.86-3.64-8.87-2.09-5.72-2.95-7.92-10.4-7.76-8.35.18-16.71.04-25.07.04-4.17,0-5.9,1.71-5.9,5.83,0,19.89,0,39.79,0,59.68Zm217.25-155.34c-.17.03-.34.06-.5.08-1.22-3.4-2.56-6.84-3.39-10.28-1.05-4.38-2.65-8.56-3.94-12.83-2.33-7.74-4.55-15.54-7.56-23.09-2.65-6.64-6.93-11.83-13.01-15.46-6.53-3.89-13.57-4.87-21.16-3.89-5.23.68-9.69,2.66-13.74,5.66-4.17,3.1-7.84,6.79-10.99,10.96-.45.6-1.13.96-1.87,1.11-5.29,1.09-10.68,1.6-15.97,2.81-5.26,1.2-10.73,1.29-16.02,2.51-9.44,2.18-16.9,7.2-21.25,15.89-3.4,6.79-5.53,14.06-3.22,21.86.14-.12.29-.18.34-.28.17-.37.32-.74.45-1.12,1.69-4.84,4.35-9.07,7.98-12.7,3.26-3.26,7.31-5.31,11.22-7.56,8.61-4.94,17.22-9.88,25.85-14.78,2.89-1.64,5.85-3.16,8.99-4.85-.14.42-.15.55-.22.63-8.78,9.59-17.56,19.19-26.36,28.77-5.91,6.44-12.03,12.71-17.72,19.34-6.36,7.4-8.3,16.17-6.68,25.72.82,4.83,3.07,9.06,5.71,13.16,3.58,5.54,8.86,8.91,14.77,10.96,5.61,1.95,11.63,2.7,17.4,4.24,2.14.57,4.6.25,6.29,2.52,2.93,3.94,6.14,7.68,9.3,11.45,5.8,6.91,13.02,11.12,22.19,11.77,7.4.52,14.18-1.11,20.54-5.25-5.15-.25-10.38-1.54-15.16-4.24-5.6-3.17-11.13-6.47-16.69-9.72.64-.22,1.17-.18,1.68-.07,10.89,2.41,21.81,4.75,32.67,7.28,6.99,1.63,13.68,1.49,20.41-1.38,7.73-3.3,13.37-8.6,16.87-16.12,3.57-7.67,3.61-15.61,1.09-23.59-1.91-6.06-3.86-12.12-5.95-18.12-1.21-3.48-1.25-6.66.08-10.24,2.55-6.81,5.86-13.36,6.94-20.7.89-6.12.3-12.03-2.25-17.58-2.95-6.42-4.56-8.07-10.43-12.46,1.96,2.29,2.56,5.03,2.74,7.88.15,2.34,1.35,4.49,1.37,6.8.09,11.2.06,22.4.04,33.6,0,.49.28,1.1-.46,1.68v-28.63c-.14,0-.28,0-.41,0v28.25Zm131.23,169.16c-.54-12.76.75-28.54-.64-44.3-.49-5.61-1.35-11.02-3.29-16.32-3-8.18-8.51-13.86-16.35-17.46-7.39-3.39-15.3-4.25-23.25-4.64-5.31-.26-10.6.06-15.89.92-4.4.72-8.69,1.73-12.68,3.64-9.3,4.44-15.13,11.82-17.87,21.7-1.69,6.09-2.15,12.34-2.16,18.61-.05,26.95-.02,53.89-.02,80.84,0,.75.1,1.5.03,2.24-.44,4.83,1.82,6.71,6.12,6.73,6.86.03,13.72.02,20.58,0,3.55,0,5.58-1.44,5.61-5.71.04-5.5,0-11,.01-16.49,0-3.09,2.08-5.2,5.14-5.22,5.16-.02,10.32-.05,15.49,0,5.87.06,6.73,2.14,6.73,6.71,0,5.16.06,10.32-.02,15.47-.06,3.51,2.01,5.19,5.17,5.22,7.13.05,14.26.05,21.39,0,3.21-.02,5.4-1.7,5.58-4.21.17-2.35.3-4.71.31-7.07.03-12.56.01-25.11.01-40.67Zm-16.32-164.65c0-7.94.08-15.88-.03-23.82-.08-6.09-.86-12.13-2.74-17.94-2.84-8.8-8.1-15.57-16.96-19.1-3.16-1.26-6.33-2.38-9.72-2.97-4.8-.84-9.62-1.6-14.48-1.63-14.81-.1-29.61-.04-44.42-.03-4.25,0-6.11,1.86-6.11,6.06,0,38.76,0,77.52-.01,116.27,0,.93-.05,1.83-.28,2.78-.68,2.82,2.12,6.25,5.04,6.19,18.61-.36,37.25.9,55.84-.82,5.59-.51,10.93-1.86,15.92-4.5,7.07-3.72,11.91-9.41,14.67-16.82,2.36-6.31,3.01-12.98,3.21-19.64.24-8,.06-16.02.06-24.03Zm178.67.02c0,14.39,0,28.78,0,43.17,0,5.77.03,11.54-.01,17.31-.03,4.03,2.56,5.38,5.45,5.36,11.34-.08,22.68,0,34.03-.04,7.43-.03,14.88.45,22.25-.82,4.97-.85,9.89-1.99,14.41-4.32,8.67-4.45,13.77-11.58,16.13-21.01,1.31-5.23,2.06-10.47,2.08-15.82.06-15.47,0-30.95.03-46.42,0-6.39-.74-12.65-2.59-18.81-3.38-11.21-10.02-17.14-19.44-20.5-7.05-2.52-14.49-3.5-21.96-3.57-14.74-.15-29.48-.05-44.21-.04-4.32,0-6.15,1.81-6.15,6.07,0,19.82,0,39.64,0,59.46Zm-161.87.23c0,19.96,0,39.92,0,59.88,0,3.3,2.4,5.68,5.71,5.68,6.86,0,13.72,0,20.59,0,4.35,0,6.4-2.05,6.4-6.39,0-9.37-.01-18.74,0-28.11,0-4.42,2.19-6.64,6.59-6.75,1.83-.05,3.67.06,5.5-.03,1.59-.08,2.5.66,3.18,2.01,2.17,4.31,4.4,8.6,6.62,12.89,2.42,4.69,5.06,9.27,7.19,14.09,1.48,3.35,3.67,6.29,4.98,9.73.58,1.53,2.08,2.56,3.96,2.56,7.41,0,14.81.09,22.22-.03,5.54-.09,8.4-4.71,6.14-9.61-2.52-5.47-5.72-10.61-8.46-15.96-3.43-6.68-7.15-13.2-10.62-19.85-1.53-2.95-1.63-3.14,1.03-5.13,3.94-2.95,6.65-6.86,8.61-11.29,2.29-5.17,3.18-10.67,3.83-16.28.73-6.36.55-12.67-.23-18.94-.55-4.42-1.68-8.78-3.41-13.01-1.94-4.73-4.71-8.85-8.51-11.95-4.16-3.38-9.03-5.68-14.5-6.87-6.69-1.46-13.37-2.41-20.19-2.42-13.18-.02-26.36,0-39.54,0-5.46,0-7.08,1.62-7.08,7.1,0,19.55,0,39.11,0,58.66Zm-169.97,150.11c.31-7.66-.48-15.87.43-24.03.63-5.67,3.46-10.4,9.21-11.5,3.31-.63,6.69-.65,10.12.1,3.67.8,6.29,2.62,7.8,5.96.91,2.01,1.15,4.21,1.41,6.41.65,5.53,1.61,6.8,7.28,5.93,3.12-.48,6.26-1.02,9.34-1.87,3.94-1.09,7.96-1.88,11.93-2.83,2.59-.61,4.02-2.39,4.03-5.01,0-1.67-.2-3.33-.34-5-.35-4.31-1.43-8.42-3.01-12.38-2.57-6.45-6.47-11.95-12.33-15.9-.78-.52-1.36-1.75-2.11-1.82-1.66-.16-2.81-1.17-4.18-1.81-6.74-3.16-13.99-4.27-21.28-4.65-6.37-.34-12.81-.41-19.08,1.38-3.2.92-6.42,1.63-9.46,3.17-4.66,2.36-9.01,5.1-12.31,9.15-2.02,2.47-3.76,5.2-5.15,8.14-2.77,5.87-4.55,11.95-4.56,18.48-.01,18.81-.03,37.61-.06,56.42,0,.85-.28,1.73-.15,2.55.56,3.55,1.16,7.09,2.26,10.55.98,3.08,2.17,6.05,3.72,8.88,3.7,6.77,9.54,11.23,16.25,14.64,6.21,3.15,12.99,4.36,19.83,4.82,8.31.55,16.56-.21,24.55-2.79,6.95-2.25,13.12-5.75,17.89-11.4,7.12-8.43,9.4-18.59,9.83-29.19.37-9.22.17-18.47.03-27.7-.05-3.39-1.02-5.7-5.82-5.72-12.43-.05-24.87-.02-37.3,0-.94,0-1.91.07-2.8.33-1.47.44-2.79,1.42-2.86,2.98-.29,6.23-.39,12.48,0,18.71.17,2.59,2.16,4.26,4.75,4.34,3.12.1,6.26.22,9.37.04,1.91-.11,2.2.57,2.18,2.26-.02,1.49-.4,2.91-.49,4.38-.3,5.11-3.73,9.48-8.43,10.47-3.16.67-6.41,1.1-9.57.64-1.43-.21-3.05-.53-4.43-1.47-5.16-3.48-6.26-8.79-6.43-14.37-.21-6.92-.05-13.85-.05-21.29Zm335.59.64h-.05c0,20.37,0,40.73-.02,61.1,0,.57.19,1.02.39,1.51,1.06,2.63,3.23,3.02,5.73,3.02,25.75-.03,51.49-.02,77.24-.02.61,0,1.23-.04,1.83.02,1.69.17,3.91-1.08,4.45-2.71.47-1.44.84-2.92.84-4.46-.02-4.21,0-8.42,0-12.63-.01-2.89.1-5.78-.36-8.67-.32-2-1.39-3.23-3.26-3.69-1.23-.3-2.53-.38-3.8-.38-14.67-.02-29.35-.01-44.02-.02-3.41,0-5.23-1.78-5.3-5.18-.04-1.97-.01-3.94,0-5.91.01-4.07,1.75-5.81,5.82-5.81,9.31,0,18.61,0,27.92-.01.94,0,1.92-.03,2.82-.29,1.29-.37,2.64-.87,3.04-2.36.37-1.4.69-2.79.67-4.3-.09-6.38-.04-12.76-.04-19.14,0-4.76-1.5-6.29-6.27-6.43-.48-.01-.95,0-1.43,0-9.1,0-18.21-.06-27.31.04-2.25.03-4.06-.78-4.65-2.72-1.14-3.76-.69-7.69-.22-11.55.01-.11.18-.2.25-.31,1.29-1.99,3.22-2.49,5.45-2.49,14.61.02,29.21.01,43.82.01,5.03,0,6.74-1.5,6.85-6.51.13-6.45.26-12.91-.05-19.34-.2-4.15-.47-6.52-6.77-6.5-25.75.1-51.49.04-77.24.04-.61,0-1.23-.04-1.83.02-2.64.24-4.54,2.33-4.55,4.99,0,1.36.07,2.71.07,4.07,0,18.87,0,37.75,0,56.62Zm-533.22-.39s-.06,0-.08,0c0-20.15-.06-40.31.07-60.46.02-2.71-2.41-4.92-4.98-4.88-7.4.11-14.8.03-22.2.05-2.3,0-3.91,1.66-4.74,3.84-.66,1.75.03,3.29.03,4.92-.05,38.54-.04,77.09-.04,115.63,0,5.68,1.25,6.91,7.02,6.91,6.25,0,12.49,0,18.74,0,4.62,0,6.18-1.55,6.18-6.15,0-19.95,0-39.9,0-59.85Zm510.86-150.41c0-19.68,0-39.37,0-59.05,0-.88,0-1.77-.18-2.63-.51-2.49-2.09-3.97-4.62-3.99-7.47-.07-14.94-.08-22.41.01-2.6.03-4.55,1.82-4.95,4.33-.17,1.09.17,2.24.17,3.36.01,39.23,0,78.46,0,117.69,0,4.27,1.65,5.9,5.97,5.9,6.38,0,12.77-.08,19.15.03,5.08.09,6.89-1.62,6.88-6.8-.03-19.61-.01-39.23-.01-58.85Z"/>
  <path class="cls-2" d="m742.3,545.9c0,19.76,0,39.52,0,59.27,0,1.2-.06,2.36-.59,3.53-.87,1.92-2.21,2.98-4.31,2.98-7.34.02-14.68,0-22.01.03-3.41.02-5.6-1.98-5.58-5.7.12-23.9.06-47.8.06-71.7,0-.34,0-.68,0-1.02.02-.83-.09-1.76-1.01-1.87-.98-.12-.92.89-1.1,1.57-1.3,4.98-2.54,9.97-3.68,14.99-1.27,5.6-2.85,11.14-4.22,16.72-1.04,4.24-1.89,8.52-2.93,12.75-1.61,6.58-3.35,13.13-4.97,19.71-.79,3.22-1.45,6.48-2.1,9.73-.54,2.66-3.14,4.69-6.3,4.8-4.67.15-9.34-.2-14.02.18-1.86.15-3.82-1.73-4.54-4.13-.62-2.07-1.12-4.18-1.62-6.29-1.63-6.88-3.2-13.77-4.87-20.64-1.88-7.75-3.82-15.5-5.77-23.23-2.03-8.04-3.73-16.17-6.04-24.14-.2-.69-.43-1.57-1.02-1.53-.85.07-.76,1.09-.85,1.78-.07.53-.02,1.08-.02,1.63,0,23.15,0,46.31-.01,69.46,0,1.01-.08,2.03-.26,3.02-.46,2.41-2.18,3.87-4.64,3.88-7.54.02-15.09-.15-22.62.05-3.34.09-5.8-3.22-4.91-6.24.17-.56.04-1.21.04-1.83,0-38.7,0-77.4.01-116.1,0-1.73-.51-3.51.74-5.12.98-1.28,2.17-2.05,3.77-2.05,13.59-.01,27.18-.03,40.77,0,2.77,0,4.59,1.98,5.32,5.17,1.28,5.58,2.66,11.13,4,16.69,1.36,5.67,2.71,11.34,4.1,17.01,1.6,6.51,3.24,13,4.86,19.5.11.45.27.89.36,1.35.12.58.37,1.13,1.01,1.04.43-.06.59-.59.71-1.09,1.52-6.15,3.15-12.27,4.53-18.46,1.42-6.35,3.44-12.57,4.81-18.93,1.15-5.38,2.99-10.6,3.72-16.07.59-4.47,2.64-6.22,7.13-6.22,12.64,0,25.27,0,37.91,0,4.59,0,6.14,1.57,6.14,6.23,0,19.76,0,39.52,0,59.27Z"/>
  <path class="cls-2" d="m325.52,395.29c0,19.55,0,39.1,0,58.66,0,.81-.02,1.63-.12,2.43-.33,2.85-2.08,4.5-4.96,4.51-7.54.04-15.08.07-22.62-.02-2.83-.03-4.69-1.86-4.68-5.2.08-23.83.04-47.66.04-71.49,0-.48-.03-.95,0-1.43.08-.92-.53-1.55-1.21-1.61-.74-.06-1.06.7-1.25,1.49-1.48,6.36-3.02,12.7-4.67,19.02-.52,2-.86,4.16-1.2,6.25-.34,2.07-1.37,4.14-1.86,6.29-1.61,7.09-3.24,14.17-4.98,21.22-1.24,5.01-2.61,9.98-3.64,15.04-.46,2.27-.99,4.55-1.76,6.73-.87,2.47-2.86,3.67-5.47,3.7-4.21.04-8.42.01-12.64,0-3.96,0-6.1-1.51-6.9-5.35-1.17-5.58-2.84-11.04-4-16.61-1-4.79-2.29-9.5-3.41-14.25-1.49-6.29-3.15-12.54-4.62-18.83-1.24-5.3-2.79-10.53-3.67-15.93-.44-2.7-1.49-5.3-2.16-7.97-.16-.64-.41-.98-1-1-.81-.02-.75.6-.75,1.15,0,.48,0,.95,0,1.43,0,23.35-.01,46.71.03,70.06,0,1.51-.39,2.92-.61,4.36-.24,1.63-2.3,2.91-4.59,2.92-7.68.05-15.35.04-23.03-.02-2.55-.02-4.37-2.25-4.18-4.81.06-.8-.07-1.62-.07-2.43,0-39.24-.01-78.48.03-117.72,0-1.02-.42-2.01.1-3.12,1.03-2.18,2.72-3.19,4.99-3.19,13.31-.04,26.63-.06,39.95,0,3.11.02,4.95,2.33,5.71,6.01,1.08,5.24,1.97,10.59,3.8,15.58,1.19,3.23.94,6.63,2.26,9.73.05.12-.04.31.03.4,2.12,2.63,1.08,6.05,2.3,8.96,1.26,2.99,1.44,6.35,2.4,9.48.85,2.79,1.24,5.72,1.97,8.56.19.73.17,2.03,1.18,2.02.94,0,1.12-1.26,1.32-2.02.96-3.58,1.79-7.19,2.65-10.8.76-3.17,1.29-6.41,2.42-9.49.66-1.82.76-3.76,1.17-5.64,1.39-6.34,3.26-12.55,4.74-18.86.75-3.19,1.53-6.38,2.28-9.57.48-2.04,2.46-3.93,4.52-4.24.67-.1,1.35-.14,2.02-.14,12.57,0,25.14-.05,37.7.02,4.97.02,6.35,1.62,6.36,6.43.05,19.76.02,39.51.02,59.27Z"/>
  <path class="cls-2" d="m246.31,545.91c0-19.89,0-39.79,0-59.68,0-4.12,1.73-5.83,5.9-5.83,8.36,0,16.72.13,25.07-.04,7.45-.16,8.31,2.05,10.4,7.76,1.1,3.01,2.56,5.85,3.64,8.87,1.68,4.66,3.55,9.25,5.6,13.76,1.45,3.2,2.77,6.49,4.09,9.72,1.42,3.47,2.88,6.97,4.22,10.5,1.68,4.46,3.61,8.83,5.41,13.25.32.79.6,1.61.86,2.43.2.63.47,1.15,1.24,1.05.8-.11,1.12-.7,1.19-1.42.05-.54.02-1.09.02-1.63,0-19.55,0-39.11,0-58.66,0-3.92,1.66-5.58,5.59-5.58,7.07,0,14.13.07,21.2-.03,3.08-.04,5.54,1.33,5.54,5.61.02,39.92.02,79.85,0,119.77,0,2.34-.59,4.46-2.9,5.72-.54.3-.83.7-1.55.3-.42-.23-1.06-.07-1.6-.07-8.9,0-17.8-.09-26.7.04-3.61.05-5.83-1.36-7.3-4.66-3.4-7.64-6.33-15.46-9.5-23.2-2.8-6.84-5.56-13.69-8.38-20.52-2.48-6-4.92-12.01-7.38-18.01-.25-.62-.41-1.49-1.25-1.33-.94.18-.81,1.1-.81,1.84,0,10.52,0,21.05,0,31.57,0,9.1,0,18.2,0,27.29,0,.54.08,1.11-.05,1.62-1.08,4.28-1.29,5.1-6.53,5.29-6.58.23-13.18-.03-19.77.09-4.17.08-6.32-2.01-6.3-6.34.12-19.82.05-39.65.05-59.48Z"/>
  <path class="cls-2" d="m463.56,390.57v-28.25c.14,0,.28,0,.41,0v28.63c.74-.59.46-1.19.46-1.68.01-11.2.05-22.4-.04-33.6-.02-2.31-1.22-4.46-1.37-6.8-.18-2.85-.78-5.6-2.74-7.88,5.87,4.4,7.48,6.04,10.43,12.46,2.55,5.55,3.14,11.46,2.25,17.58-1.07,7.34-4.39,13.89-6.94,20.7-1.34,3.58-1.3,6.76-.08,10.24,2.09,6,4.03,12.06,5.95,18.12,2.52,7.98,2.48,15.92-1.09,23.59-3.5,7.52-9.14,12.83-16.87,16.12-6.73,2.87-13.42,3.01-20.41,1.38-10.87-2.53-21.78-4.87-32.67-7.28-.51-.11-1.04-.15-1.68.07,5.56,3.24,11.09,6.55,16.69,9.72,4.78,2.71,10.01,3.99,15.16,4.24-6.36,4.14-13.15,5.77-20.54,5.25-9.16-.65-16.39-4.87-22.19-11.77-3.16-3.77-6.38-7.5-9.3-11.45-1.68-2.27-4.15-1.95-6.29-2.52-5.77-1.54-11.79-2.29-17.4-4.24-5.91-2.05-11.19-5.42-14.77-10.96-2.65-4.1-4.89-8.32-5.71-13.16-1.62-9.55.32-18.33,6.68-25.72,5.7-6.63,11.81-12.9,17.72-19.34,8.8-9.58,17.58-19.18,26.36-28.77.07-.08.08-.21.22-.63-3.14,1.69-6.1,3.21-8.99,4.85-8.63,4.9-17.25,9.83-25.85,14.78-3.92,2.25-7.97,4.3-11.22,7.56-3.63,3.63-6.29,7.86-7.98,12.7-.13.38-.28.76-.45,1.12-.05.11-.19.17-.34.28-2.31-7.8-.18-15.07,3.22-21.86,4.34-8.68,11.81-13.71,21.25-15.89,5.29-1.22,10.76-1.31,16.02-2.51,5.29-1.2,10.67-1.72,15.97-2.81.74-.15,1.41-.51,1.87-1.11,3.16-4.17,6.83-7.86,10.99-10.96,4.05-3.01,8.52-4.98,13.74-5.66,7.59-.98,14.63,0,21.16,3.89,6.07,3.62,10.36,8.82,13.01,15.46,3.01,7.54,5.23,15.34,7.56,23.09,1.29,4.27,2.89,8.45,3.94,12.83.82,3.44,2.17,6.88,3.39,10.28.17-.03.34-.06.5-.08Zm-83.19,22.66c-.11.12-.21.24-.32.35-2.05-1.21-4.11-2.4-6.13-3.65-2.12-1.31-4.58-1.94-6.61-3.44-2.37-1.75-2.42-1.71-4.47.36-.76.77-1.46,1.59-2.22,2.36-3.24,3.29-1.01,10.29,3.73,11.07,2.89.48,5.8,1.08,8.67,1.75,6.72,1.56,13.47,3,20.17,4.61,5.43,1.3,10.94,2.26,16.28,4,3.71,1.21,7.68,1.58,11.5,2.46,2.97.69,3.04.81,4.04-2.11,3.77-11.01,8.29-21.73,12.27-32.66.49-1.36,1.44-2.72.9-4.13-.71-1.87-1.22-3.8-1.83-5.69-2.66-8.33-5.45-16.61-7.89-25-.66-2.26-1.53-2.39-3.48-2.04-6.97,1.27-13.97,2.33-20.95,3.56-1.74.31-3.54.49-4.91,1.99-9.32,10.21-18.66,20.4-28.08,30.51-1.4,1.5-1.53,2.4-.14,4.01,3.28,3.79,6.32,7.78,9.46,11.69Zm58.4-15.89c0,12.21,0,24.23,0,36.24,0,.74.11,1.58-.19,2.2-.59,1.22.4,1.39.97,1.49,6.6,1.1,10.65-3.41,8.88-9.2-3.13-10.21-6.39-20.37-9.65-30.73Zm-35.57-34.21c.53-.1.97-.07,1.29-.26,6.14-3.49,12.27-7.01,18.41-10.49,1.14-.64.79-1.11-.01-1.71-2.6-1.97-6.75-1.63-9.07.87-3.53,3.79-7,7.63-10.62,11.59Z"/>
  <path class="cls-2" d="m594.78,559.74c0,15.55.02,28.11-.01,40.67,0,2.36-.14,4.72-.31,7.07-.18,2.51-2.36,4.19-5.58,4.21-7.13.04-14.26.05-21.39,0-3.16-.02-5.23-1.71-5.17-5.22.09-5.16.02-10.32.02-15.47,0-4.57-.86-6.65-6.73-6.71-5.16-.05-10.32-.03-15.49,0-3.06.01-5.14,2.13-5.14,5.22-.01,5.5.03,11-.01,16.49-.03,4.27-2.06,5.7-5.61,5.71-6.86.02-13.72.03-20.58,0-4.3-.02-6.55-1.9-6.12-6.73.07-.74-.03-1.49-.03-2.24,0-26.95-.03-53.89.02-80.84.01-6.27.47-12.52,2.16-18.61,2.74-9.88,8.58-17.26,17.87-21.7,4-1.91,8.28-2.92,12.68-3.64,5.29-.86,10.59-1.18,15.89-.92,7.96.39,15.87,1.25,23.25,4.64,7.84,3.6,13.35,9.28,16.35,17.46,1.95,5.3,2.8,10.71,3.29,16.32,1.39,15.76.1,31.54.64,44.3Zm-45.53-13.74c4.48,0,8.97.03,13.45-.01,2.95-.03,5.51-1.01,6.86-3.81,1.25-2.59.81-5.03-.76-7.52-1.32-2.08-2.74-4.13-3.89-6.31-3.06-5.8-6.27-11.52-9.8-17.03-3.14-4.9-9.61-3.76-11.68.26-1.59,3.1-3.47,6.06-5.2,9.09-3.14,5.49-6.45,10.88-9.38,16.5-.3.57-.42,1.09-.43,1.7-.07,3.2,3,7.18,7.57,7.14,4.42-.04,8.83,0,13.25,0Z"/>
  <path class="cls-2" d="m578.47,395.08c0,8.01.18,16.02-.06,24.03-.2,6.66-.85,13.33-3.21,19.64-2.77,7.41-7.6,13.1-14.67,16.82-5,2.63-10.34,3.98-15.92,4.5-18.59,1.71-37.23.46-55.84.82-2.92.06-5.73-3.37-5.04-6.19.23-.95.28-1.86.28-2.78.01-38.76,0-77.52.01-116.27,0-4.2,1.86-6.05,6.11-6.06,14.81,0,29.62-.07,44.42.03,4.86.03,9.67.8,14.48,1.63,3.39.59,6.56,1.71,9.72,2.97,8.87,3.54,14.12,10.3,16.96,19.1,1.88,5.81,2.66,11.85,2.74,17.94.1,7.94.03,15.88.03,23.82Zm-62.08-.24c0,8.83,0,17.65,0,26.48,0,.74.04,1.49.13,2.23.36,3.01,1.76,4.79,4.7,4.9,5.88.22,11.81.6,17.64-.56,2.5-.49,4.58-1.89,5.37-4.41.92-2.92,1.34-5.95,1.32-9.06-.05-11.95-.01-23.9-.03-35.85,0-2.42-.01-4.82-.34-7.25-.77-5.73-3.45-8.64-8.41-9.06-4.59-.38-9.18-.37-13.78-.36-5.52.01-6.66,2.37-6.63,6.66.05,8.76.02,17.52.02,26.27Z"/>
  <path class="cls-2" d="m757.14,395.11c0-19.82,0-39.64,0-59.46,0-4.27,1.82-6.07,6.15-6.07,14.74,0,29.48-.11,44.21.04,7.47.07,14.91,1.05,21.96,3.57,9.42,3.37,16.06,9.29,19.44,20.5,1.85,6.16,2.6,12.42,2.59,18.81-.02,15.47.03,30.95-.03,46.42-.02,5.35-.77,10.59-2.08,15.82-2.36,9.43-7.46,16.56-16.13,21.01-4.52,2.32-9.44,3.46-14.41,4.32-7.37,1.27-14.83.79-22.25.82-11.34.04-22.68-.04-34.03.04-2.89.02-5.48-1.32-5.45-5.36.04-5.77.01-11.54.01-17.31,0-14.39,0-28.78,0-43.17Zm32.37-.16c0,8.75,0,17.51.01,26.26,0,1.08,0,2.18.25,3.22.41,1.72,1.11,3.62,3.07,3.79,6.42.57,12.86.8,19.25-.38,3.25-.6,5.1-2.86,5.8-5.99.58-2.6.84-5.26.8-7.94-.26-14.22.58-28.46-.43-42.67-.42-5.95-2.8-8.13-8.22-8.88-4.47-.62-9.02-.48-13.55-.49-5.84-.01-7.04,2.61-7,7.02.08,8.69.02,17.37.02,26.06Z"/>
  <path class="cls-2" d="m595.27,395.34c0-19.55,0-39.11,0-58.66,0-5.48,1.61-7.1,7.08-7.1,13.18,0,26.36-.01,39.54,0,6.82,0,13.51.96,20.19,2.42,5.46,1.19,10.33,3.49,14.5,6.87,3.81,3.09,6.57,7.22,8.51,11.95,1.74,4.23,2.86,8.59,3.41,13.01.78,6.26.96,12.58.23,18.94-.64,5.61-1.53,11.11-3.83,16.28-1.96,4.42-4.68,8.34-8.61,11.29-2.66,1.99-2.56,2.18-1.03,5.13,3.47,6.66,7.19,13.17,10.62,19.85,2.75,5.35,5.94,10.49,8.46,15.96,2.26,4.89-.61,9.52-6.14,9.61-7.4.12-14.81.03-22.22.03-1.87,0-3.38-1.03-3.96-2.56-1.3-3.44-3.49-6.38-4.98-9.73-2.13-4.81-4.78-9.4-7.19-14.09-2.21-4.29-4.44-8.58-6.62-12.89-.68-1.35-1.59-2.09-3.18-2.01-1.83.09-3.67-.02-5.5.03-4.4.11-6.58,2.34-6.59,6.75-.02,9.37,0,18.74,0,28.11,0,4.34-2.06,6.39-6.4,6.39-6.86,0-13.72,0-20.59,0-3.31,0-5.71-2.38-5.71-5.68,0-19.96,0-39.92,0-59.88Zm30.98-19.56c0,4.48,0,8.95,0,13.43,0,5.75,5.4,9,10.44,6.15,8.01-4.52,15.89-9.25,23.91-13.74,4.31-2.42,5.23-9.29-.25-12.15-3.5-1.83-6.98-3.76-10.31-5.83-4.39-2.73-8.88-5.29-13.4-7.75-5.21-2.83-10.49.42-10.4,6.05.07,4.61.01,9.22.01,13.83Z"/>
  <path class="cls-2" d="m425.29,545.45c0,7.44-.16,14.37.05,21.29.17,5.58,1.27,10.89,6.43,14.37,1.38.93,3,1.26,4.43,1.47,3.17.46,6.41.03,9.57-.64,4.7-.99,8.14-5.36,8.43-10.47.09-1.47.47-2.89.49-4.38.03-1.69-.26-2.37-2.18-2.26-3.11.18-6.25.06-9.37-.04-2.59-.08-4.58-1.75-4.75-4.34-.4-6.23-.3-12.48,0-18.71.07-1.56,1.39-2.54,2.86-2.98.89-.27,1.87-.33,2.8-.33,12.43-.02,24.87-.05,37.3,0,4.8.02,5.77,2.33,5.82,5.72.14,9.23.35,18.48-.03,27.7-.43,10.6-2.71,20.76-9.83,29.19-4.77,5.65-10.94,9.15-17.89,11.4-7.99,2.58-16.24,3.34-24.55,2.79-6.84-.46-13.62-1.67-19.83-4.82-6.71-3.4-12.55-7.86-16.25-14.64-1.55-2.83-2.74-5.8-3.72-8.88-1.1-3.46-1.69-7-2.26-10.55-.13-.82.15-1.7.15-2.55.03-18.81.05-37.61.06-56.42,0-6.54,1.79-12.62,4.56-18.48,1.39-2.94,3.13-5.67,5.15-8.14,3.3-4.05,7.65-6.79,12.31-9.15,3.04-1.54,6.26-2.25,9.46-3.17,6.27-1.79,12.71-1.71,19.08-1.38,7.3.38,14.54,1.49,21.28,4.65,1.37.64,2.52,1.65,4.18,1.81.75.07,1.33,1.3,2.11,1.82,5.86,3.95,9.76,9.45,12.33,15.9,1.57,3.96,2.65,8.07,3.01,12.38.14,1.66.34,3.33.34,5-.01,2.62-1.44,4.39-4.03,5.01-3.98.94-8,1.74-11.93,2.83-3.08.85-6.21,1.39-9.34,1.87-5.67.88-6.64-.4-7.28-5.93-.26-2.2-.5-4.4-1.41-6.41-1.51-3.33-4.13-5.15-7.8-5.96-3.43-.75-6.81-.73-10.12-.1-5.76,1.1-8.58,5.82-9.21,11.5-.91,8.16-.12,16.36-.43,24.03Z"/>
  <path class="cls-2" d="m760.88,546.09c0-18.87,0-37.75,0-56.62,0-1.36-.07-2.71-.07-4.07,0-2.65,1.91-4.75,4.55-4.99.61-.06,1.22-.02,1.83-.02,25.75,0,51.49.06,77.24-.04,6.3-.02,6.57,2.35,6.77,6.5.31,6.43.18,12.9.05,19.34-.1,5.01-1.82,6.51-6.85,6.51-14.61,0-29.21.01-43.82-.01-2.23,0-4.16.5-5.45,2.49-.07.11-.24.2-.25.31-.47,3.87-.92,7.79.22,11.55.59,1.94,2.4,2.74,4.65,2.72,9.1-.11,18.21-.04,27.31-.04.48,0,.95-.01,1.43,0,4.78.14,6.27,1.68,6.27,6.43,0,6.38-.05,12.76.04,19.14.02,1.51-.3,2.9-.67,4.3-.39,1.49-1.75,1.99-3.04,2.36-.89.26-1.88.28-2.82.29-9.31.02-18.61,0-27.92.01-4.07,0-5.81,1.74-5.82,5.81,0,1.97-.03,3.94,0,5.91.07,3.4,1.89,5.18,5.3,5.18,14.67,0,29.35,0,44.02.02,1.27,0,2.58.08,3.8.38,1.86.46,2.94,1.69,3.26,3.69.46,2.89.35,5.78.36,8.67.01,4.21,0,8.42,0,12.63,0,1.55-.36,3.03-.84,4.46-.54,1.63-2.76,2.88-4.45,2.71-.61-.06-1.22-.02-1.83-.02-25.75,0-51.49-.01-77.24.02-2.5,0-4.66-.39-5.73-3.02-.2-.49-.39-.94-.39-1.51.02-20.37.02-40.73.02-61.1h.05Z"/>
  <path class="cls-2" d="m227.66,545.69c0,19.95,0,39.9,0,59.85,0,4.6-1.55,6.15-6.18,6.15-6.25,0-12.49,0-18.74,0-5.77,0-7.02-1.23-7.02-6.91,0-38.54-.01-77.09.04-115.63,0-1.63-.69-3.17-.03-4.92.83-2.18,2.44-3.84,4.74-3.84,7.4-.02,14.8.06,22.2-.05,2.57-.04,5,2.18,4.98,4.88-.13,20.15-.07,40.3-.07,60.46.03,0,.06,0,.08,0Z"/>
  <path class="cls-2" d="m738.52,395.28c0,19.62-.02,39.23.01,58.85,0,5.18-1.8,6.89-6.88,6.8-6.38-.11-12.77-.03-19.15-.03-4.32,0-5.97-1.63-5.97-5.9,0-39.23,0-78.46,0-117.69,0-1.12-.34-2.28-.17-3.36.4-2.51,2.35-4.29,4.95-4.33,7.47-.09,14.94-.09,22.41-.01,2.52.02,4.1,1.51,4.62,3.99.18.85.18,1.75.18,2.63,0,19.68,0,39.37,0,59.05Z"/>
  <path class="cls-1" d="m380.37,413.24c-3.14-3.91-6.18-7.9-9.46-11.69-1.39-1.6-1.26-2.51.14-4.01,9.42-10.11,18.76-20.3,28.08-30.51,1.37-1.5,3.17-1.68,4.91-1.99,6.97-1.23,13.98-2.3,20.95-3.56,1.95-.35,2.82-.22,3.48,2.04,2.44,8.39,5.23,16.68,7.89,25,.61,1.9,1.11,3.82,1.83,5.69.54,1.41-.4,2.78-.9,4.13-3.98,10.93-8.5,21.65-12.27,32.66-1,2.92-1.06,2.8-4.04,2.11-3.82-.88-7.8-1.25-11.5-2.46-5.35-1.75-10.85-2.7-16.28-4-6.71-1.61-13.46-3.04-20.17-4.61-2.87-.67-5.78-1.27-8.67-1.75-4.74-.79-6.97-7.78-3.73-11.07.76-.77,1.46-1.6,2.22-2.36,2.06-2.06,2.1-2.1,4.47-.36,2.03,1.5,4.49,2.13,6.61,3.44,2.02,1.25,4.09,2.44,6.13,3.65.11-.12.21-.24.32-.35Z"/>
  <path class="cls-1" d="m438.77,397.34c3.26,10.36,6.52,20.52,9.65,30.73,1.78,5.79-2.28,10.3-8.88,9.2-.57-.1-1.56-.27-.97-1.49.3-.62.19-1.46.19-2.2,0-12.02,0-24.03,0-36.24Z"/>
  <path class="cls-1" d="m403.2,363.13c3.62-3.96,7.09-7.8,10.62-11.59,2.33-2.49,6.47-2.83,9.07-.87.8.6,1.15,1.07.01,1.71-6.15,3.48-12.27,7-18.41,10.49-.32.18-.76.16-1.29.26Z"/>
  <path class="cls-1" d="m549.25,546c-4.42,0-8.83-.03-13.25,0-4.57.04-7.64-3.94-7.57-7.14.01-.6.13-1.12.43-1.7,2.92-5.62,6.24-11.01,9.38-16.5,1.73-3.03,3.61-5.98,5.2-9.09,2.06-4.02,8.54-5.16,11.68-.26,3.53,5.52,6.74,11.23,9.8,17.03,1.15,2.17,2.57,4.22,3.89,6.31,1.57,2.49,2.01,4.93.76,7.52-1.35,2.8-3.91,3.78-6.86,3.81-4.48.04-8.97.01-13.45.01Z"/>
  <path class="cls-1" d="m516.38,394.84c0-8.76.04-17.52-.02-26.27-.03-4.29,1.12-6.64,6.63-6.66,4.59-.01,9.18-.02,13.78.36,4.97.41,7.65,3.32,8.41,9.06.32,2.43.33,4.83.34,7.25.01,11.95-.03,23.9.03,35.85.01,3.1-.4,6.14-1.32,9.06-.8,2.51-2.88,3.91-5.37,4.41-5.84,1.15-11.76.77-17.64.56-2.94-.11-4.33-1.89-4.7-4.9-.09-.74-.13-1.48-.13-2.23,0-8.83,0-17.65,0-26.48Z"/>
  <path class="cls-1" d="m789.51,394.95c0-8.69.05-17.37-.02-26.06-.04-4.41,1.16-7.03,7-7.02,4.53,0,9.09-.14,13.55.49,5.42.76,7.8,2.94,8.22,8.88,1.01,14.21.17,28.45.43,42.67.05,2.68-.21,5.34-.8,7.94-.7,3.13-2.55,5.39-5.8,5.99-6.38,1.18-12.83.95-19.25.38-1.96-.18-2.67-2.07-3.07-3.79-.24-1.04-.25-2.14-.25-3.22-.02-8.75-.01-17.51-.01-26.26Z"/>
  <path class="cls-1" d="m626.25,375.78c0-4.61.06-9.22-.01-13.83-.09-5.62,5.2-8.88,10.4-6.05,4.52,2.46,9.01,5.02,13.4,7.75,3.33,2.07,6.81,4,10.31,5.83,5.48,2.86,4.56,9.73.25,12.15-8.02,4.5-15.91,9.22-23.91,13.74-5.04,2.84-10.43-.4-10.44-6.15,0-4.48,0-8.95,0-13.43Z"/>
</svg>