<?xml version="1.0" encoding="utf-8"?>
<!-- Generator: Adobe Illustrator 27.7.0, SVG Export Plug-In . SVG Version: 6.00 Build 0)  -->
<svg version="1.1" id="Capa_24" xmlns="http://www.w3.org/2000/svg" xmlns:xlink="http://www.w3.org/1999/xlink" x="0px" y="0px"
	 viewBox="0 0 719 361.5" style="enable-background:new 0 0 719 361.5;" xml:space="preserve">
<style type="text/css">
	.st0{fill:#1E1E1C;}
</style>
<path class="st0" d="M584.3,255.4c0,19.8,0,39.5,0,59.3c0,1.2-0.1,2.4-0.6,3.5c-0.9,1.9-2.2,3-4.3,3c-7.3,0-14.7,0-22,0
	c-3.4,0-5.6-2-5.6-5.7c0.1-23.9,0.1-47.8,0.1-71.7c0-0.3,0-0.7,0-1c0-0.8-0.1-1.8-1-1.9c-1-0.1-0.9,0.9-1.1,1.6
	c-1.3,5-2.5,10-3.7,15c-1.3,5.6-2.8,11.1-4.2,16.7c-1,4.2-1.9,8.5-2.9,12.8c-1.6,6.6-3.3,13.1-5,19.7c-0.8,3.2-1.5,6.5-2.1,9.7
	c-0.5,2.7-3.1,4.7-6.3,4.8c-4.7,0.2-9.3-0.2-14,0.2c-1.9,0.2-3.8-1.7-4.5-4.1c-0.6-2.1-1.1-4.2-1.6-6.3c-1.6-6.9-3.2-13.8-4.9-20.6
	c-1.9-7.8-3.8-15.5-5.8-23.2c-2-8-3.7-16.2-6-24.1c-0.2-0.7-0.4-1.6-1-1.5c-0.8,0.1-0.8,1.1-0.8,1.8c-0.1,0.5,0,1.1,0,1.6
	c0,23.2,0,46.3,0,69.5c0,1-0.1,2-0.3,3c-0.5,2.4-2.2,3.9-4.6,3.9c-7.5,0-15.1-0.2-22.6,0c-3.3,0.1-5.8-3.2-4.9-6.2
	c0.2-0.6,0-1.2,0-1.8c0-38.7,0-77.4,0-116.1c0-1.7-0.5-3.5,0.7-5.1c1-1.3,2.2-2,3.8-2c13.6,0,27.2,0,40.8,0c2.8,0,4.6,2,5.3,5.2
	c1.3,5.6,2.7,11.1,4,16.7c1.4,5.7,2.7,11.3,4.1,17c1.6,6.5,3.2,13,4.9,19.5c0.1,0.5,0.3,0.9,0.4,1.3c0.1,0.6,0.4,1.1,1,1
	c0.4-0.1,0.6-0.6,0.7-1.1c1.5-6.2,3.2-12.3,4.5-18.5c1.4-6.3,3.4-12.6,4.8-18.9c1.2-5.4,3-10.6,3.7-16.1c0.6-4.5,2.6-6.2,7.1-6.2
	c12.6,0,25.3,0,37.9,0c4.6,0,6.1,1.6,6.1,6.2C584.3,215.9,584.3,235.6,584.3,255.4L584.3,255.4z"/>
<path class="st0" d="M167.5,104.8c0,19.5,0,39.1,0,58.7c0,0.8,0,1.6-0.1,2.4c-0.3,2.9-2.1,4.5-5,4.5c-7.5,0-15.1,0.1-22.6,0
	c-2.8,0-4.7-1.9-4.7-5.2c0.1-23.8,0-47.7,0-71.5c0-0.5,0-1,0-1.4c0.1-0.9-0.5-1.5-1.2-1.6s-1.1,0.7-1.2,1.5c-1.5,6.4-3,12.7-4.7,19
	c-0.5,2-0.9,4.2-1.2,6.2c-0.3,2.1-1.4,4.1-1.9,6.3c-1.6,7.1-3.2,14.2-5,21.2c-1.2,5-2.6,10-3.6,15c-0.5,2.3-1,4.5-1.8,6.7
	c-0.9,2.5-2.9,3.7-5.5,3.7c-4.2,0-8.4,0-12.6,0c-4,0-6.1-1.5-6.9-5.4c-1.2-5.6-2.8-11-4-16.6c-1-4.8-2.3-9.5-3.4-14.2
	c-1.5-6.3-3.1-12.5-4.6-18.8c-1.2-5.3-2.8-10.5-3.7-15.9c-0.4-2.7-1.5-5.3-2.2-8c-0.2-0.6-0.4-1-1-1c-0.8,0-0.8,0.6-0.8,1.1
	s0,1,0,1.4c0,23.4,0,46.7,0,70.1c0,1.5-0.4,2.9-0.6,4.4c-0.2,1.6-2.3,2.9-4.6,2.9c-7.7,0-15.4,0-23,0c-2.6,0-4.4-2.2-4.2-4.8
	c0.1-0.8-0.1-1.6-0.1-2.4c0-39.2,0-78.5,0-117.7c0-1-0.4-2,0.1-3.1c1-2.2,2.7-3.2,5-3.2c13.3,0,26.6-0.1,39.9,0c3.1,0,4.9,2.3,5.7,6
	c1.1,5.2,2,10.6,3.8,15.6c1.2,3.2,0.9,6.6,2.3,9.7c0.1,0.1,0,0.3,0,0.4c2.1,2.6,1.1,6,2.3,9c1.3,3,1.4,6.4,2.4,9.5
	c0.9,2.8,1.2,5.7,2,8.6c0.2,0.7,0.2,2,1.2,2c0.9,0,1.1-1.3,1.3-2c1-3.6,1.8-7.2,2.6-10.8c0.8-3.2,1.3-6.4,2.4-9.5
	c0.7-1.8,0.8-3.8,1.2-5.6c1.4-6.3,3.3-12.5,4.7-18.9c0.8-3.2,1.5-6.4,2.3-9.6c0.5-2,2.5-3.9,4.5-4.2c0.7-0.1,1.4-0.1,2-0.1
	c12.6,0,25.1,0,37.7,0c5,0,6.4,1.6,6.4,6.4C167.5,65.3,167.5,85,167.5,104.8L167.5,104.8z"/>
<path class="st0" d="M88.3,255.4c0-19.9,0-39.8,0-59.7c0-4.1,1.7-5.8,5.9-5.8c8.4,0,16.7,0.1,25.1,0c7.5-0.2,8.3,2,10.4,7.8
	c1.1,3,2.6,5.9,3.6,8.9c1.7,4.7,3.5,9.2,5.6,13.8c1.5,3.2,2.8,6.5,4.1,9.7c1.4,3.5,2.9,7,4.2,10.5c1.7,4.5,3.6,8.8,5.4,13.2
	c0.3,0.8,0.6,1.6,0.9,2.4c0.2,0.6,0.5,1.2,1.2,1c0.8-0.1,1.1-0.7,1.2-1.4c0-0.5,0-1.1,0-1.6c0-19.5,0-39.1,0-58.7
	c0-3.9,1.7-5.6,5.6-5.6c7.1,0,14.1,0.1,21.2,0c3.1,0,5.5,1.3,5.5,5.6c0,39.9,0,79.9,0,119.8c0,2.3-0.6,4.5-2.9,5.7
	c-0.5,0.3-0.8,0.7-1.5,0.3c-0.4-0.2-1.1-0.1-1.6-0.1c-8.9,0-17.8-0.1-26.7,0c-3.6,0-5.8-1.4-7.3-4.7c-3.4-7.6-6.3-15.5-9.5-23.2
	c-2.8-6.8-5.6-13.7-8.4-20.5c-2.5-6-4.9-12-7.4-18c-0.2-0.6-0.4-1.5-1.2-1.3c-0.9,0.2-0.8,1.1-0.8,1.8c0,10.5,0,21,0,31.6
	c0,9.1,0,18.2,0,27.3c0,0.5,0.1,1.1,0,1.6c-1.1,4.3-1.3,5.1-6.5,5.3c-6.6,0.2-13.2,0-19.8,0.1c-4.2,0.1-6.3-2-6.3-6.3
	C88.4,295.1,88.3,275.2,88.3,255.4L88.3,255.4z"/>
<path class="st0" d="M305.6,100.1V71.9c0.1,0,0.3,0,0.4,0v28.6c0.7-0.6,0.5-1.2,0.5-1.7c0-11.2,0-22.4,0-33.6c0-2.3-1.2-4.5-1.4-6.8
	c-0.2-2.9-0.8-5.6-2.7-7.9c5.9,4.4,7.5,6,10.4,12.5c2.5,5.5,3.1,11.5,2.2,17.6c-1.1,7.3-4.4,13.9-6.9,20.7
	c-1.3,3.6-1.3,6.8-0.1,10.2c2.1,6,4,12.1,6,18.1c2.5,8,2.5,15.9-1.1,23.6c-3.5,7.5-9.1,12.8-16.9,16.1c-6.7,2.9-13.4,3-20.4,1.4
	c-10.9-2.5-21.8-4.9-32.7-7.3c-0.5-0.1-1-0.1-1.7,0.1c5.6,3.2,11.1,6.5,16.7,9.7c4.8,2.7,10,4,15.2,4.2c-6.4,4.1-13.1,5.8-20.5,5.2
	c-9.2-0.6-16.4-4.9-22.2-11.8c-3.2-3.8-6.4-7.5-9.3-11.5c-1.7-2.3-4.1-2-6.3-2.5c-5.8-1.5-11.8-2.3-17.4-4.2
	c-5.9-2-11.2-5.4-14.8-11c-2.6-4.1-4.9-8.3-5.7-13.2c-1.6-9.5,0.3-18.3,6.7-25.7c5.7-6.6,11.8-12.9,17.7-19.3
	c8.8-9.6,17.6-19.2,26.4-28.8c0.1-0.1,0.1-0.2,0.2-0.6c-3.1,1.7-6.1,3.2-9,4.9c-8.6,4.9-17.2,9.8-25.9,14.8c-3.9,2.2-8,4.3-11.2,7.6
	c-3.6,3.6-6.3,7.9-8,12.7c-0.1,0.4-0.3,0.8-0.5,1.1c0,0.1-0.2,0.2-0.3,0.3c-2.3-7.8-0.2-15.1,3.2-21.9c4.3-8.7,11.8-13.7,21.2-15.9
	c5.3-1.2,10.8-1.3,16-2.5c5.3-1.2,10.7-1.7,16-2.8c0.7-0.1,1.4-0.5,1.9-1.1c3.2-4.2,6.8-7.9,11-11c4-3,8.5-5,13.7-5.7
	c7.6-1,14.6,0,21.2,3.9c6.1,3.6,10.4,8.8,13,15.5c3,7.5,5.2,15.3,7.6,23.1c1.3,4.3,2.9,8.5,3.9,12.8c0.8,3.4,2.2,6.9,3.4,10.3
	C305.3,100.1,305.4,100.1,305.6,100.1L305.6,100.1z M222.4,122.7c-0.1,0.1-0.2,0.2-0.3,0.4c-2-1.2-4.1-2.4-6.1-3.6
	c-2.1-1.3-4.6-1.9-6.6-3.4c-2.4-1.8-2.4-1.7-4.5,0.4c-0.8,0.8-1.5,1.6-2.2,2.4c-3.2,3.3-1,10.3,3.7,11.1c2.9,0.5,5.8,1.1,8.7,1.8
	c6.7,1.6,13.5,3,20.2,4.6c5.4,1.3,10.9,2.3,16.3,4c3.7,1.2,7.7,1.6,11.5,2.5c3,0.7,3,0.8,4-2.1c3.8-11,8.3-21.7,12.3-32.7
	c0.5-1.4,1.4-2.7,0.9-4.1c-0.7-1.9-1.2-3.8-1.8-5.7c-2.7-8.3-5.5-16.6-7.9-25c-0.7-2.3-1.5-2.4-3.5-2c-7,1.3-14,2.3-21,3.6
	c-1.7,0.3-3.5,0.5-4.9,2c-9.3,10.2-18.7,20.4-28.1,30.5c-1.4,1.5-1.5,2.4-0.1,4C216.2,114.8,219.2,118.8,222.4,122.7L222.4,122.7z
	 M280.8,106.8c0,12.2,0,24.2,0,36.2c0,0.7,0.1,1.6-0.2,2.2c-0.6,1.2,0.4,1.4,1,1.5c6.6,1.1,10.6-3.4,8.9-9.2
	C287.3,127.4,284,117.2,280.8,106.8L280.8,106.8z M245.2,72.6c0.5-0.1,1-0.1,1.3-0.3c6.1-3.5,12.3-7,18.4-10.5
	c1.1-0.6,0.8-1.1,0-1.7c-2.6-2-6.8-1.6-9.1,0.9C252.3,64.8,248.8,68.7,245.2,72.6z"/>
<path class="st0" d="M436.8,269.2c0,15.5,0,28.1,0,40.7c0,2.4-0.1,4.7-0.3,7.1c-0.2,2.5-2.4,4.2-5.6,4.2c-7.1,0-14.3,0-21.4,0
	c-3.2,0-5.2-1.7-5.2-5.2c0.1-5.2,0-10.3,0-15.5c0-4.6-0.9-6.7-6.7-6.7c-5.2,0-10.3,0-15.5,0c-3.1,0-5.1,2.1-5.1,5.2
	c0,5.5,0,11,0,16.5c0,4.3-2.1,5.7-5.6,5.7c-6.9,0-13.7,0-20.6,0c-4.3,0-6.5-1.9-6.1-6.7c0.1-0.7,0-1.5,0-2.2c0-27,0-53.9,0-80.8
	c0-6.3,0.5-12.5,2.2-18.6c2.7-9.9,8.6-17.3,17.9-21.7c4-1.9,8.3-2.9,12.7-3.6c5.3-0.9,10.6-1.2,15.9-0.9c8,0.4,15.9,1.2,23.2,4.6
	c7.8,3.6,13.3,9.3,16.3,17.5c2,5.3,2.8,10.7,3.3,16.3C437.5,240.7,436.2,256.5,436.8,269.2L436.8,269.2z M391.2,255.5
	c4.5,0,9,0,13.5,0c3,0,5.5-1,6.9-3.8c1.2-2.6,0.8-5-0.8-7.5c-1.3-2.1-2.7-4.1-3.9-6.3c-3.1-5.8-6.3-11.5-9.8-17
	c-3.1-4.9-9.6-3.8-11.7,0.3c-1.6,3.1-3.5,6.1-5.2,9.1c-3.1,5.5-6.5,10.9-9.4,16.5c-0.3,0.6-0.4,1.1-0.4,1.7c-0.1,3.2,3,7.2,7.6,7.1
	C382.4,255.5,386.8,255.5,391.2,255.5L391.2,255.5z"/>
<path class="st0" d="M420.5,104.6c0,8,0.2,16-0.1,24c-0.2,6.7-0.8,13.3-3.2,19.6c-2.8,7.4-7.6,13.1-14.7,16.8
	c-5,2.6-10.3,4-15.9,4.5c-18.6,1.7-37.2,0.5-55.8,0.8c-2.9,0.1-5.7-3.4-5-6.2c0.2-1,0.3-1.9,0.3-2.8c0-38.8,0-77.5,0-116.3
	c0-4.2,1.9-6,6.1-6.1c14.8,0,29.6-0.1,44.4,0c4.9,0,9.7,0.8,14.5,1.6c3.4,0.6,6.6,1.7,9.7,3c8.9,3.5,14.1,10.3,17,19.1
	c1.9,5.8,2.7,11.9,2.7,17.9C420.5,88.7,420.5,96.6,420.5,104.6L420.5,104.6z M358.4,104.3c0,8.8,0,17.6,0,26.5c0,0.7,0,1.5,0.1,2.2
	c0.4,3,1.8,4.8,4.7,4.9c5.9,0.2,11.8,0.6,17.6-0.6c2.5-0.5,4.6-1.9,5.4-4.4c0.9-2.9,1.3-6,1.3-9.1c0-12,0-23.9,0-35.9
	c0-2.4,0-4.8-0.3-7.2c-0.8-5.7-3.5-8.6-8.4-9.1c-4.6-0.4-9.2-0.4-13.8-0.4c-5.5,0-6.7,2.4-6.6,6.7
	C358.4,86.8,358.4,95.6,358.4,104.3L358.4,104.3z"/>
<path class="st0" d="M599.1,104.6c0-19.8,0-39.6,0-59.5c0-4.3,1.8-6.1,6.2-6.1c14.7,0,29.5-0.1,44.2,0c7.5,0.1,14.9,1,22,3.6
	c9.4,3.4,16.1,9.3,19.4,20.5c1.8,6.2,2.6,12.4,2.6,18.8c0,15.5,0,31,0,46.4c0,5.4-0.8,10.6-2.1,15.8c-2.4,9.4-7.5,16.6-16.1,21
	c-4.5,2.3-9.4,3.5-14.4,4.3c-7.4,1.3-14.8,0.8-22.2,0.8c-11.3,0-22.7,0-34,0c-2.9,0-5.5-1.3-5.5-5.4c0-5.8,0-11.5,0-17.3
	C599.1,133.4,599.1,119,599.1,104.6L599.1,104.6z M631.5,104.4c0,8.8,0,17.5,0,26.3c0,1.1,0,2.2,0.2,3.2c0.4,1.7,1.1,3.6,3.1,3.8
	c6.4,0.6,12.9,0.8,19.2-0.4c3.2-0.6,5.1-2.9,5.8-6c0.6-2.6,0.8-5.3,0.8-7.9c-0.3-14.2,0.6-28.5-0.4-42.7c-0.4-6-2.8-8.1-8.2-8.9
	c-4.5-0.6-9-0.5-13.5-0.5c-5.8,0-7,2.6-7,7C631.6,87.1,631.5,95.8,631.5,104.4L631.5,104.4z"/>
<path class="st0" d="M437.3,104.8c0-19.5,0-39.1,0-58.7c0-5.5,1.6-7.1,7.1-7.1c13.2,0,26.4,0,39.5,0c6.8,0,13.5,1,20.2,2.4
	c5.5,1.2,10.3,3.5,14.5,6.9c3.8,3.1,6.6,7.2,8.5,12c1.7,4.2,2.9,8.6,3.4,13c0.8,6.3,1,12.6,0.2,18.9c-0.6,5.6-1.5,11.1-3.8,16.3
	c-2,4.4-4.7,8.3-8.6,11.3c-2.7,2-2.6,2.2-1,5.1c3.5,6.7,7.2,13.2,10.6,19.9c2.8,5.4,5.9,10.5,8.5,16c2.3,4.9-0.6,9.5-6.1,9.6
	c-7.4,0.1-14.8,0-22.2,0c-1.9,0-3.4-1-4-2.6c-1.3-3.4-3.5-6.4-5-9.7c-2.1-4.8-4.8-9.4-7.2-14.1c-2.2-4.3-4.4-8.6-6.6-12.9
	c-0.7-1.4-1.6-2.1-3.2-2c-1.8,0.1-3.7,0-5.5,0c-4.4,0.1-6.6,2.3-6.6,6.8c0,9.4,0,18.7,0,28.1c0,4.3-2.1,6.4-6.4,6.4
	c-6.9,0-13.7,0-20.6,0c-3.3,0-5.7-2.4-5.7-5.7C437.3,144.8,437.3,124.8,437.3,104.8L437.3,104.8z M468.2,85.3c0,4.5,0,9,0,13.4
	c0,5.8,5.4,9,10.4,6.1c8-4.5,15.9-9.2,23.9-13.7c4.3-2.4,5.2-9.3-0.2-12.1c-3.5-1.8-7-3.8-10.3-5.8c-4.4-2.7-8.9-5.3-13.4-7.8
	c-5.2-2.8-10.5,0.4-10.4,6C468.3,76,468.2,80.7,468.2,85.3L468.2,85.3z"/>
<path class="st0" d="M267.3,255c0,7.4-0.2,14.4,0,21.3c0.2,5.6,1.3,10.9,6.4,14.4c1.4,0.9,3,1.3,4.4,1.5c3.2,0.5,6.4,0,9.6-0.6
	c4.7-1,8.1-5.4,8.4-10.5c0.1-1.5,0.5-2.9,0.5-4.4c0-1.7-0.3-2.4-2.2-2.3c-3.1,0.2-6.2,0.1-9.4,0c-2.6-0.1-4.6-1.8-4.8-4.3
	c-0.4-6.2-0.3-12.5,0-18.7c0.1-1.6,1.4-2.5,2.9-3c0.9-0.3,1.9-0.3,2.8-0.3c12.4,0,24.9,0,37.3,0c4.8,0,5.8,2.3,5.8,5.7
	c0.1,9.2,0.4,18.5,0,27.7c-0.4,10.6-2.7,20.8-9.8,29.2c-4.8,5.7-10.9,9.2-17.9,11.4c-8,2.6-16.2,3.3-24.5,2.8
	c-6.8-0.5-13.6-1.7-19.8-4.8c-6.7-3.4-12.5-7.9-16.2-14.6c-1.5-2.8-2.7-5.8-3.7-8.9c-1.1-3.5-1.7-7-2.3-10.5
	c-0.1-0.8,0.1-1.7,0.1-2.5c0-18.8,0-37.6,0.1-56.4c0-6.5,1.8-12.6,4.6-18.5c1.4-2.9,3.1-5.7,5.1-8.1c3.3-4,7.6-6.8,12.3-9.1
	c3-1.5,6.3-2.2,9.5-3.2c6.3-1.8,12.7-1.7,19.1-1.4c7.3,0.4,14.5,1.5,21.3,4.6c1.4,0.6,2.5,1.6,4.2,1.8c0.8,0.1,1.3,1.3,2.1,1.8
	c5.9,4,9.8,9.5,12.3,15.9c1.6,4,2.6,8.1,3,12.4c0.1,1.7,0.3,3.3,0.3,5c0,2.6-1.4,4.4-4,5c-4,0.9-8,1.7-11.9,2.8
	c-3.1,0.8-6.2,1.4-9.3,1.9c-5.7,0.9-6.6-0.4-7.3-5.9c-0.3-2.2-0.5-4.4-1.4-6.4c-1.5-3.3-4.1-5.1-7.8-6c-3.4-0.8-6.8-0.7-10.1-0.1
	c-5.8,1.1-8.6,5.8-9.2,11.5C266.8,239.1,267.6,247.3,267.3,255L267.3,255z"/>
<path class="st0" d="M602.9,255.6c0-18.9,0-37.8,0-56.6c0-1.4-0.1-2.7-0.1-4.1c0-2.6,1.9-4.8,4.5-5c0.6-0.1,1.2,0,1.8,0
	c25.8,0,51.5,0.1,77.2,0c6.3,0,6.6,2.4,6.8,6.5c0.3,6.4,0.2,12.9,0,19.3c-0.1,5-1.8,6.5-6.8,6.5c-14.6,0-29.2,0-43.8,0
	c-2.2,0-4.2,0.5-5.5,2.5c-0.1,0.1-0.2,0.2-0.2,0.3c-0.5,3.9-0.9,7.8,0.2,11.5c0.6,1.9,2.4,2.7,4.7,2.7c9.1-0.1,18.2,0,27.3,0
	c0.5,0,1,0,1.4,0c4.8,0.1,6.3,1.7,6.3,6.4c0,6.4,0,12.8,0,19.1c0,1.5-0.3,2.9-0.7,4.3c-0.4,1.5-1.8,2-3,2.4
	c-0.9,0.3-1.9,0.3-2.8,0.3c-9.3,0-18.6,0-27.9,0c-4.1,0-5.8,1.7-5.8,5.8c0,2,0,3.9,0,5.9c0.1,3.4,1.9,5.2,5.3,5.2
	c14.7,0,29.3,0,44,0c1.3,0,2.6,0.1,3.8,0.4c1.9,0.5,2.9,1.7,3.3,3.7c0.5,2.9,0.3,5.8,0.4,8.7c0,4.2,0,8.4,0,12.6
	c0,1.5-0.4,3-0.8,4.5c-0.5,1.6-2.8,2.9-4.5,2.7c-0.6-0.1-1.2,0-1.8,0c-25.8,0-51.5,0-77.2,0c-2.5,0-4.7-0.4-5.7-3
	c-0.2-0.5-0.4-0.9-0.4-1.5C602.8,296.3,602.8,275.9,602.9,255.6L602.9,255.6L602.9,255.6z"/>
<path class="st0" d="M69.7,255.2c0,20,0,39.9,0,59.8c0,4.6-1.6,6.2-6.2,6.2c-6.2,0-12.5,0-18.7,0c-5.8,0-7-1.2-7-6.9
	c0-38.5,0-77.1,0-115.6c0-1.6-0.7-3.2,0-4.9c0.8-2.2,2.4-3.8,4.7-3.8c7.4,0,14.8,0.1,22.2,0c2.6,0,5,2.2,5,4.9
	C69.5,214.9,69.6,235,69.7,255.2C69.6,255.2,69.6,255.2,69.7,255.2L69.7,255.2z"/>
<path class="st0" d="M580.5,104.8c0,19.6,0,39.2,0,58.9c0,5.2-1.8,6.9-6.9,6.8c-6.4-0.1-12.8,0-19.2,0c-4.3,0-6-1.6-6-5.9
	c0-39.2,0-78.5,0-117.7c0-1.1-0.3-2.3-0.2-3.4c0.4-2.5,2.3-4.3,5-4.3c7.5-0.1,14.9-0.1,22.4,0c2.5,0,4.1,1.5,4.6,4
	c0.2,0.9,0.2,1.8,0.2,2.6C580.5,65.4,580.5,85.1,580.5,104.8z"/>
</svg>
