<?xml version="1.0" encoding="UTF-8"?>
<svg id="Capa_15" data-name="Capa 15" xmlns="http://www.w3.org/2000/svg" viewBox="0 0 766.01 261.43">
  <path d="m194.31,126.75c0,6.94.03,13.87-.01,20.81-.02,2.83-.24,5.67-1.47,8.28-3.02,6.44-8.43,9.01-15.25,9.07-6.73.06-13.22-5.36-14.43-11.95-.24-1.3-.3-2.64-.35-3.96-.4-11.37-.3-22.75-.18-34.13.04-4.08.17-8.13-.6-12.15-1.08-5.66-5.93-9.59-11.73-9.91-6.34-.35-11.83,4.37-13.02,9.85-.21.94-.21,1.9-.21,2.85,0,11.75.05,23.5-.02,35.26-.02,3.56-.22,7.12-.59,10.68-.95,9.36-10.63,15.64-19.7,12.85-6.09-1.87-10.22-5.6-11.36-12.1-.08-.45-.11-.91-.12-1.36-.21-13.03-.5-26.07-.19-39.1.11-4.55-.15-9.14.55-13.67,1.2-7.74,4.44-14.59,9.4-20.62,6.43-7.8,14.45-13.26,24.4-15.54,13.12-3,25.2-.54,36.16,7.29,2.88,2.06,2.92,2.07,5.7-.04,8.45-6.4,18-9.26,28.56-8.47,11.58.87,21.62,5.25,29.64,13.75,7.19,7.62,11.19,16.69,12.17,27.1.56,5.96.37,11.94.41,17.92.02,3.39,1,6.45,3.21,9.08,3.47,4.13,9.62,5.56,14.53,3.28,4.97-2.31,7.51-6.28,7.72-11.7.18-4.6.12-9.21.17-13.82.12-12.64,4.32-23.64,13.27-32.59,6.66-6.66,14.74-10.85,24.16-12.38,8.18-1.33,16.1-.48,23.78,2.51,4.5,1.75,8.55,4.27,12.26,7.36,7.27,6.06,12.06,13.67,14.28,22.85.78,3.23,1.15,6.54,1.18,9.87.05,5.36.01,10.71.01,16.07,0,1.25-.08,2.48-.22,3.73-.22,1.91.53,3.74.56,5.66.11,6.27.14,12.53-.02,18.8-.06,2.41-.27,4.79-1.12,7.09-2.31,6.25-8.92,9.28-14.02,9.68-8.2.66-15.87-6.09-16.38-14.43-.19-3.03-.31-6.05-.33-9.08-.09-11.88-.02-23.75-.09-35.63-.02-4.21-1.61-7.79-5.01-10.4-7.12-5.48-17.59-1.92-19.92,6.75-.78,2.88-.53,5.86-.66,8.79-.2,4.48.18,8.97-.3,13.44-1.24,11.44-5.49,21.41-14.39,29.08-7.38,6.36-15.89,10.4-25.62,11.35-12.86,1.26-24.18-2.63-33.87-11.11-8.08-7.08-12.78-16.04-14.39-26.61-.39-2.54-.57-5.11-.61-7.69-.07-4.4-.15-8.8-.22-13.2-.05-3.4-1.06-6.45-3.33-9.04-5.93-6.77-16.34-5.56-20.6,2.37-1.27,2.36-1.84,4.85-1.82,7.54.05,6.56.02,13.12.02,19.68h0Z"/>
  <path d="m396.3,99.01c.38-1.3.8-2.59,1.15-3.9,1.46-5.45,2.9-10.91,4.35-16.36.54-2.03,1.03-2.42,3.14-2.43,1.79-.01,3.58.03,5.37-.05.93-.04,1.25.26,1.24,1.19-.07,9.75-.13,19.49-.15,29.24,0,1.1-.38,1.5-1.46,1.42-.91-.06-1.84-.07-2.75,0-1.12.09-1.44-.4-1.42-1.46.09-6.1.14-12.2.19-18.3,0-.76.25-1.96-.57-2.06-.68-.09-.62,1.18-.81,1.86-1.72,6.02-3.38,12.06-5.12,18.08-.59,2.05-.86,2.15-3.82,2.24-1.96.06-2.59-.56-3.07-2.57-1.51-6.26-3.35-12.42-5.49-18.49-.11-.3-.1-.67-.46-.89-.37,1.28-.26,2.57-.21,3.84.24,5.52-.12,11.03-.02,16.54.02.85-.32,1.21-1.18,1.18-1-.03-2-.07-3,.01-1.24.11-1.72-.32-1.68-1.6.07-2.28,0-4.56,0-6.85,0-7.18.01-14.36.02-21.54,0-1.87.2-2.02,2.11-1.9,1.29.08,2.58.09,3.87.04,2.24-.09,3.49.62,4.01,2.81,1.22,5.13,2.98,10.11,4.13,15.25.35,1.56.61,3.16,1.62,4.67Z"/>
  <path d="m454.82,86.9c-.33.46-.18.97-.18,1.44-.01,6.06-.04,12.12.02,18.18.01,1.27-.39,1.72-1.64,1.6-.91-.09-1.83-.05-2.75,0-.94.05-1.29-.39-1.24-1.27,0-.17,0-.33,0-.5,0-9.38,0-18.76,0-28.14,0-2.07.03-2.09,2.08-2.08.67,0,1.34.06,2,0,2.07-.17,3.28.95,4.04,2.68,2.43,5.51,4.83,11.03,7.24,16.54.36.82.68,1.68,1.4,2.48.26-.68.18-1.26.15-1.81-.37-6.1-.03-12.2-.16-18.3-.03-1.51.11-1.61,1.65-1.6,1,0,2,.08,3,.06,1.01-.02,1.11.56,1.1,1.37-.05,5.06-.19,10.12-.08,15.18.11,4.86-.25,9.71-.04,14.56.04.89-.37,1.21-1.17,1.22-1.04,0-2.08,0-3.12-.02-1.28-.01-2.01-.9-2.75-1.74-.78-.88-1.21-1.97-1.7-3.03-1.33-2.91-2.73-5.78-4.06-8.69-1.05-2.3-1.68-4.78-2.9-7.01-.23-.42-.33-.95-.91-1.13Z"/>
  <path d="m637.2,97.89c.42-.56.26-1.12.26-1.63.01-6.06,0-12.12.01-18.18,0-1.62.07-1.72,1.68-1.7,4.61.07,3.87-.61,3.89,3.87.03,8.88.01,17.76.02,26.65,0,1.48-.18,1.67-1.65,1.61-1.04-.04-2.08-.07-3.12-.18-1.86-.19-2.8-1.51-3.49-3.02-1.53-3.32-3.02-6.65-4.51-9.99-1.01-2.27-1.98-4.57-3-6.84-.26-.57-.38-1.58-1.08-1.46-.61.11-.34,1.09-.34,1.68.04,5.85.11,11.7.17,17.55.02,1.86,0,1.86-1.87,1.86q-3.7,0-3.7-3.74c0-8.84,0-17.68,0-26.52,0-1.62.09-1.7,1.67-1.71,1.04,0,2.08.02,3.12.02.65,0,1.21.22,1.69.67.99.93,1.68,2.05,2.17,3.3,2.04,5.17,4.61,10.12,6.58,15.33.33.87.74,1.73,1.49,2.43Z"/>
  <path d="m479.03,92.21c0-4.86,0-9.71,0-14.57,0-1.53.12-1.7,1.63-1.54,3.92.43,7.9.06,11.8.93,5.33,1.19,8.9,4.97,9.61,10.45.47,3.64.47,7.28-.38,10.88-1.29,5.52-4.66,8.67-10.27,9.41-3.58.47-7.18.88-10.82.8-1.18-.03-1.6-.33-1.59-1.55.06-4.94.02-9.88.02-14.81h-.02Zm6.02-.01h.02c0,2.95.05,5.89-.02,8.84-.03,1.2.5,1.66,1.59,1.71,3.23.14,5.87-.99,7.71-3.71,1.63-2.41,2.17-5.11,1.87-7.96-.54-5.08-3.74-9.6-9.72-9.22-1.07.07-1.47.45-1.46,1.5.03,2.95.01,5.89.01,8.84Z"/>
  <path d="m430.27,108.84c-5.88-.01-10.27-3.15-12.19-8.7-1.72-4.99-1.75-10.02-.2-15.03,2.2-7.08,8.33-10.62,15.57-8.94,5.81,1.34,8.65,5.43,9.9,10.96,1.05,4.65.55,9.12-1.06,13.55-1.88,5.17-6.25,8.18-12.03,8.17Zm-7.21-16.78c-.17,3.09.56,5.88,2.11,8.41,1.29,2.09,3.28,3,5.73,2.79,2.31-.2,4.16-1.2,5.1-3.42,1-2.38,1.42-4.93,1.96-7.44.04-.2.02-.42-.02-.62-.52-2.39-1.1-4.77-2.21-6.97-1.14-2.26-2.96-3.66-5.54-3.58-2.48.08-4.24,1.47-5.4,3.66-1.21,2.28-1.99,4.65-1.73,7.17Z"/>
  <path d="m603.51,108.84c-7.75-.02-12.08-3.27-13.81-9.29-.58-2.04-1.32-4.13-1.27-6.2.12-4.99.66-9.92,4.35-13.9,5.12-5.51,17.32-5.35,21.05,3.99,2.4,6,2.5,12.07-.23,18.02-2.25,4.91-6.18,7.32-10.09,7.37Zm5.8-16.57c-.02-3.12-.93-6.35-2.35-8.39-2.03-2.92-6.59-3.58-8.94-1.03-2.51,2.72-3.54,6.27-3.51,9.84.02,2.55,1.03,5.11,2.16,7.49,1.02,2.13,2.86,3.04,5.16,3.09,2.35.06,4.25-.81,5.42-2.9,1.41-2.51,2.1-5.22,2.06-8.11Z"/>
  <path d="m577.88,90.01c1.5,0,3,.03,4.5-.01.89-.03,1.29.26,1.27,1.2-.08,2.9.11,5.81-.23,8.71-.17,1.46.14,2.9.18,4.35.07,2.47-.45,3.09-2.85,3.72-3.18.84-6.37,1.21-9.63.62-5.85-1.06-9.6-4.45-10.98-10.19-1.15-4.77-1.19-9.59.92-14.15,2.54-5.49,6.91-8.45,13.04-8.69,2.06-.08,4.06.12,6.04.75,2.49.79,2.89,3.11,2.3,5.16-.23.8-.92.77-1.54.69-1.36-.18-2.71-.42-4.07-.64-1.8-.28-3.57-.21-5.29.42-3.32,1.22-4.85,3.84-5.28,7.11-.38,2.84-.47,5.73.38,8.52,1.37,4.54,5.08,5.83,8.71,5.85.98,0,2.32-1.53,2.41-2.71.11-1.45.12-2.9.17-4.35.02-.71-.49-.79-1.02-.8-1.17-.01-2.33-.03-3.5.01-.96.03-1.38-.38-1.36-1.32.02-1.04.03-2.08,0-3.11-.02-.87.39-1.21,1.22-1.14.04,0,.08,0,.12,0,1.5,0,3,0,4.5,0Z"/>
  <path d="m508.47,92.02c0-4.86,0-9.71,0-14.57,0-.74-.04-1.49,1.05-1.38,3.89.38,7.82.28,11.69.86,3.74.56,5.37,2.21,5.98,5.94.58,3.56-.07,6.72-3.38,8.81-.73.46-.57.92-.32,1.57,1.72,4.45,3.41,8.91,5.1,13.38.53,1.4.36,1.61-1.18,1.73-.25.02-.5.03-.75.05-3.53.36-4.04.04-5.22-3.29-.92-2.62-1.48-5.36-2.8-7.84-.8-1.51-1.95-2.04-3.61-1.68-.83.18-.73.79-.73,1.36,0,3.15.01,6.31.01,9.46,0,1.64-.05,1.69-1.67,1.69-.92,0-1.84-.06-2.75.01-1.08.08-1.46-.31-1.45-1.41.05-4.9.02-9.79.02-14.69Zm8.1-10.14q-2.29-.03-2.28,2.21c0,1.2.02,2.41.03,3.61q0,1.9,1.97,1.89c.17,0,.33,0,.5,0,2.9-.09,4.18-1.48,3.98-4.34-.16-2.29-1.44-3.32-4.19-3.36Z"/>
  <path d="m545,76.31c3.21-.02,3.41.16,4.37,3.19,2.79,8.78,5.57,17.56,8.66,26.24.97,2.72.88,2.63-2.02,2.85-2.52.19-3.93-.98-4.59-3.1-1.06-3.39-3.35-4.62-6.72-4.36-.83.06-1.67,0-2.5.03-1.75.07-2.99.84-3.56,2.58-.37,1.14-.88,2.24-1.28,3.38-.3.85-.85,1.25-1.73,1.36-1.18.15-2.33-.06-3.48-.19-1.05-.12-.91-.89-.67-1.61,1.12-3.39,2.23-6.78,3.36-10.16,1.88-5.63,3.77-11.25,5.64-16.88q1.1-3.29,4.52-3.31Zm-.22,7.62c-.23.38-.35.51-.39.66-.96,3.34-1.9,6.68-2.87,10.02-.2.68.07.93.7.95,1.74.05,3.48.08,5.22.14.64.02.67-.35.55-.81-.9-3.6-1.94-7.16-3.23-10.95Z"/>
  <path d="m408.07,133.13c-.3,2.37-.26,4.61-.16,6.83.24,5.02.04,10.05.14,15.07.02,1.09-.25,1.55-1.46,1.51-2.52-.07-2.53,0-2.53-2.46,0-8.93-.01-17.86.02-26.78,0-.93-.41-2.14,1.15-2.48,2.43-.53,3.49-.3,4.22,1.41,2.27,5.35,4.46,10.74,6.67,16.11.71,1.73,1.36,3.48,2.06,5.21.12.29.15.66.61.84.39-.91.24-1.86.17-2.75-.32-3.86-.08-7.72-.13-11.58-.04-2.57,0-5.15-.06-7.72-.03-1.07.31-1.49,1.42-1.47,2.64.05,2.19-.07,2.2,2.09.02,9.14.01,18.27,0,27.41,0,.74.3,1.76-.79,1.98-1.82.36-3.17.54-3.93-.63-.54-.85-.86-1.79-1.23-2.71-2.41-6.1-4.85-12.19-7.29-18.28-.21-.53-.43-1.08-1.07-1.6Z"/>
  <path d="m440.52,146.74c.16-6.86.08-13.62.03-20.38-.01-1.58.13-1.71,1.71-1.71,2.66,0,5.31.17,7.94.67,2.71.51,4.26,2.21,4.92,4.71,1.01,3.77.48,7.17-2.9,9.67-.6.44-.59.82.08,1.05,4.55,1.59,5.09,9.91,1.99,13.23-1.37,1.46-3.16,2.13-5.1,2.39-2.44.33-4.9.27-7.35.24-.95-.01-1.29-.45-1.3-1.39-.03-2.86.39-5.72-.02-8.47Zm3.87.6s0,0,.01,0c0,1.16-.01,2.32,0,3.49,0,.5.06.99.62,1.25,1.36.63,4.45.19,5.47-.8,1.39-1.33,1.94-3.91,1.24-5.66-1.02-2.54-2.98-3.37-5.58-3.24-1.52.08-1.72.18-1.77,1.72-.03,1.08,0,2.16,0,3.24Zm.02-13.9h0c0,1.08,0,2.15,0,3.23.01.99.37,1.58,1.52,1.38.65-.11,1.32-.14,1.98-.13,1.45.02,2.31-.75,2.86-1.99.54-1.21.64-2.48.38-3.77-.5-2.44-1.45-3.19-3.94-3.19-.58,0-1.16.04-1.74.04-.73,0-1.05.38-1.05,1.08,0,1.12,0,2.23,0,3.35Z"/>
  <path d="m479.05,140.68c0-4.36,0-8.72,0-13.07,0-.33,0-.66.01-1,.09-2.04.09-2.01,2.08-1.96,2.75.08,5.47.36,8.2.74,2.06.28,3.45,1.41,4.2,3.28.96,2.37,1.11,4.83.52,7.33-.37,1.57-1.22,2.84-2.52,3.74-.81.56-.92,1.14-.59,2,1.67,4.34,3.41,8.65,4.84,13.07.4,1.23.22,1.54-1.11,1.62-2.27.13-2.9-.29-3.49-2.46-.8-2.92-1.73-5.81-2.79-8.65-.8-2.15-2.05-2.83-4.12-2.52-.93.14-1.25.57-1.24,1.48.03,3.44,0,6.89,0,10.33,0,1.62-.1,1.72-1.66,1.74-2.2.03-2.32-.05-2.32-1.74-.01-4.65,0-9.3,0-13.94h0Zm4.26-7.23h0c0,1,0,1.99,0,2.99.01,1.52.21,1.71,1.74,1.7.33,0,.67,0,1-.05,3.43-.44,5.29-4.04,3.57-6.87-.97-1.59-3.74-2.64-5.63-2.16-.58.15-.68.54-.69,1.03,0,1.12,0,2.24,0,3.36Z"/>
  <path d="m632.2,148.65c-1.5,0-2.74.1-3.98.26-1.27.16-2.07.8-2.48,1.96-.44,1.25-.82,2.53-1.29,3.77-.55,1.43-1.27,1.86-2.78,1.79-1.29-.06-1.58-.42-1.2-1.64.75-2.42,1.57-4.82,2.3-7.24,2.09-6.91,4.17-13.82,6.51-20.65.62-1.82,1.61-2.5,3.34-2.19.75.14,1.32.49,1.59,1.23.23.62.51,1.23.69,1.87,2.33,8.27,5.31,16.34,7.66,24.6.25.88.46,1.77.68,2.65.23.92-.19,1.3-1.08,1.37-1.63.13-2.41-.3-2.99-1.82-.49-1.28-.91-2.58-1.36-3.88-.39-1.12-1.07-1.76-2.36-1.86-1.16-.09-2.32-.19-3.24-.21Zm-.33-18.49c-.26.47-.36.61-.41.76-1.28,4.12-2.16,8.35-3.61,12.42-.26.72.09,1,.79,1,2.08,0,4.16-.02,6.24,0,.83,0,1.13-.24.86-1.12-.71-2.25-1.35-4.53-2.02-6.79-.58-1.98-1.17-3.95-1.85-6.25Z"/>
  <path d="m561.76,156.44c-1.75,0-2.05-.35-1.53-1.8,2.77-7.78,4.9-15.77,7.48-23.61.4-1.22.86-2.42,1.27-3.64.43-1.28,1.21-2.22,2.61-2.36,1.11-.11,2.42,1.02,2.86,2.4,2.01,6.24,4.01,12.48,5.97,18.73.92,2.93,1.71,5.89,2.63,8.82.3.97-.05,1.29-.93,1.41-1.75.24-2.64-.26-3.28-1.94-.49-1.28-.69-2.65-1.34-3.88-.51-.96-1.18-1.5-2.29-1.67-2.62-.41-5.23-.28-7.83.1-1,.15-1.58.89-1.9,1.79-.44,1.25-.81,2.53-1.25,3.78-.43,1.21-1.21,1.98-2.47,1.87Zm9.79-26.06c-.13.25-.22.38-.26.53-1.08,4.08-2.24,8.14-3.55,12.16-.28.84-.02,1.27.91,1.26,1.95-.01,3.91-.03,5.86,0,1.04.02,1.31-.33.99-1.35-1.09-3.52-2.1-7.06-3.16-10.59-.19-.65-.27-1.36-.79-2.01Z"/>
  <path d="m384.08,135.92c0,3.07-.06,6.15.02,9.22.05,1.88.4,3.73,1.44,5.35.98,1.52,2.4,2.29,4.24,2.07,1.87-.22,3.15-1.22,3.72-3.04.56-1.83,1.03-3.69,1.04-5.61.03-5.22.02-10.45.03-15.67,0-.62.01-1.25-.02-1.87-.05-1.03.33-1.5,1.44-1.49,2.39,0,2.37-.04,2.4,2.38.07,5.44-.09,10.87.09,16.31.12,3.46-.71,6.76-2.37,9.81-1.5,2.74-3.94,3.84-6.95,3.79-2.99-.05-5.45-1.15-6.85-3.96-1.35-2.71-2.18-5.54-2.11-8.62.04-1.74-.11-3.48-.25-5.22-.34-4.36.26-8.71.07-13.06-.05-1.09.4-1.44,1.47-1.43,2.56.02,2.56-.02,2.56,2.57,0,2.82,0,5.65,0,8.47h.02Z"/>
  <path d="m603.77,140.57c0-4.73.03-9.46-.02-14.19-.01-1.14.36-1.52,1.5-1.5,3.45.06,6.91.05,10.36,0,1.09-.02,1.45.38,1.46,1.45.01,2.69.05,2.68-2.67,2.66-1.87-.01-3.75.01-5.62-.02-.85-.02-1.18.32-1.17,1.18.04,2.2.04,4.4,0,6.6-.02.9.37,1.14,1.2,1.12,2.08-.04,4.16.01,6.24-.02.9-.02,1.27.32,1.26,1.24-.04,3.7.41,3.33-3.19,3.33-1.42,0-2.83.02-4.25-.02-.89-.03-1.28.28-1.26,1.22.04,2.36.05,4.73,0,7.09-.02,1.06.44,1.37,1.42,1.35,2.25-.05,4.5,0,6.74-.08.89-.03,1.18.31,1.25,1.11.28,3.05.14,3.24-2.9,3.26-2.87.02-5.74.03-8.62.02-1.54,0-1.72-.21-1.72-1.74,0-4.69,0-9.38,0-14.07,0,0-.02,0-.02,0Z"/>
  <path d="m461.47,140.69c0-4.77.03-9.54-.02-14.31-.01-1.13.33-1.52,1.49-1.5,3.33.06,6.66.05,9.99,0,1.07-.02,1.4.35,1.49,1.42.26,3.12.23,2.72-2.6,2.74-1.79.01-3.58.02-5.37,0-.9-.01-1.28.35-1.24,1.27.07,1.99.13,3.98.09,5.97-.03,1.16.32,1.65,1.56,1.6,1.87-.08,3.75,0,5.62-.03.86-.02,1.18.31,1.17,1.17-.07,4.04.5,3.37-3.3,3.4-1.25.01-2.5.04-3.75,0-.99-.04-1.32.39-1.3,1.34.04,2.32.03,4.65,0,6.97-.01.95.38,1.35,1.34,1.34,2.25-.03,4.5.02,6.74-.04.9-.03,1.2.22,1.09,1.13-.1.78-.1,1.58-.05,2.36.05.76-.26,1.12-1,1.05-3.46-.29-6.9.17-10.36.09-1.54-.04-1.58-.05-1.58-1.64,0-4.77,0-9.54,0-14.32Z"/>
  <path d="m524.76,124.09c.93.04,1.71.09,2.49.3,1.3.35,1.95,1.2,2.09,2.48.06.58.12,1.15.18,1.73.13,1.16-.13,1.38-1.22.98-1.18-.43-2.37-.78-3.63-.86-1.56-.09-2.77.39-3.43,1.92-.66,1.54-.66,2.98.51,4.29,1.23,1.37,2.66,2.51,4.19,3.52,4.59,3.03,5.55,8.48,4.1,13.05-1.42,4.5-6.89,6.83-11.07,4.92-1.22-.55-2.34-3-1.93-4.25.23-.72.8-.64,1.33-.48,1.08.32,2.13.66,3.28.71,1.84.08,3.27-.54,4.17-2.16.98-1.75.9-3.52-.21-5.18-1.01-1.51-2.41-2.63-3.92-3.61-2.57-1.66-4.24-3.94-4.83-6.96-.96-4.99,1.53-9.2,6.04-10.18.65-.14,1.32-.17,1.84-.23Z"/>
  <path d="m589.05,142.54c0-3.98-.03-7.97.02-11.95.02-1.2-.4-1.63-1.6-1.57-1.5.08-3,0-4.5.03-.83.02-1.22-.27-1.21-1.15.06-3.48-.38-2.98,2.84-3,4.58-.02,9.16,0,13.74,0,1.65,0,1.69.04,1.71,1.66.03,2.74.18,2.48-2.48,2.48-1,0-2,0-3,0-1.63,0-1.75.08-1.68,1.68.31,7.88.07,15.77.13,23.65,0,.63.31,1.51-.43,1.8-.96.38-2.07.37-3.05,0-.63-.24-.48-1-.48-1.56-.01-4.03,0-8.05,0-12.08h0Z"/>
  <path d="m507.38,142.69c0,4.03,0,8.05,0,12.08,0,.56.16,1.31-.54,1.51-.95.27-1.97.38-2.93.01-.37-.14-.34-.63-.33-1.01.18-6.63-.21-13.27.12-19.91.09-1.78-.21-3.56,0-5.34.09-.77-.36-1.01-1.07-1-1.67.02-3.33-.03-5,.01-.87.02-1.18-.32-1.17-1.17.05-3.54-.36-2.94,2.85-2.97,4.54-.04,9.08.01,13.62-.03,1.01,0,1.41.2,1.51,1.34.32,3.43-.04,2.76-2.67,2.82-.87.02-1.75,0-2.62,0q-1.76,0-1.77,1.82c0,3.94,0,7.89,0,11.83Z"/>
  <path d="m551.65,124.9c2.58,0,5.16.02,7.74-.01.9-.01,1.27.29,1.25,1.22-.06,3.49.36,2.87-2.88,2.93-.96.02-1.92.06-2.87-.01-1.14-.09-1.53.32-1.52,1.48.04,8.09,0,16.18.07,24.27.01,1.32-.52,1.54-1.6,1.52-1.77-.02-2.01-.16-2.01-1.57-.02-8-.03-16-.04-24.01,0-1.62-.05-1.67-1.68-1.68-1.46,0-2.91-.03-4.37,0-.86.02-1.19-.35-1.2-1.18-.04-3.58-.15-2.92,2.75-2.97,2.12-.03,4.25,0,6.37,0Z"/>
  <path d="m433.32,140.61c0,4.69,0,9.38,0,14.07,0,.55.2,1.35-.53,1.5-.95.19-1.98.29-2.92-.15-.28-.13-.25-.49-.25-.79-.02-9.5-.05-19-.07-28.5,0-.17.01-.33,0-.5-.06-.93.31-1.34,1.3-1.35,2.48-.04,2.48-.08,2.48,2.4,0,4.44,0,8.88,0,13.32h0Z"/>
  <path d="m539.05,140.67c0,4.73-.03,9.45.02,14.18.01,1.1-.33,1.55-1.44,1.36-.24-.04-.5-.04-.75,0-1.1.13-1.43-.37-1.43-1.44.03-9.49.03-18.99,0-28.48,0-1.12.4-1.42,1.46-1.4,2.14.04,2.15-.01,2.15,2.11v13.68h0Z"/>
</svg>