<?xml version="1.0" encoding="UTF-8"?>
<svg id="Capa_25" data-name="Capa 25" xmlns="http://www.w3.org/2000/svg" viewBox="0 0 1000 1000">
  <path d="m352.05,409.71c11.84-.22,22.12,2.76,31.82,7.95,2.14,1.15,2.19,1.39.65,3.31-5.69,7.05-11.38,14.09-17.08,21.13-1.3,1.61-1.4,1.63-3.29.52-2.98-1.75-6.08-3.02-9.64-2.96-9.25.13-15.18,7.88-12.93,16.81,1.64,6.53,8.1,9.98,14.09,9.44,3.16-.29,6.26-1.08,8.85-3.08,1.08-.84,1.94-.75,2.8.24,1.41,1.64,2.83,3.27,4.22,4.91,4.29,5.08,8.58,10.16,12.86,15.24.37.44.76.89,1.07,1.37.42.65.33,1.27-.27,1.77-.38.32-.78.63-1.18.92-7.98,5.88-16.92,8.97-26.8,9.84-8.13.72-15.91-.39-23.54-3.09-9.62-3.41-16.78-9.71-21.67-18.55-4.6-8.32-6.02-17.3-5.14-26.73.61-6.55,2.2-12.77,5.7-18.38,6.71-10.75,16.45-17.15,28.81-19.67,3.76-.77,7.56-1.23,10.67-1Z"/>
  <path d="m208.19,455.18c0-4.23.02-8.47,0-12.7-.02-2.57-.28-2.79-2.91-2.84-1.25-.02-2.5.03-3.74-.03-2.03-.1-2.31-.41-1.92-2.48.85-4.49,1.78-8.96,2.66-13.44.51-2.61,1.01-5.22,1.47-7.83.27-1.55.86-2.67,2.69-2.63,1.27.02,1.74-.78,1.74-1.94,0-1.91.08-3.82,0-5.73-.08-1.91.68-3.05,2.48-3.83,9.32-4,18.6-8.1,27.9-12.15,1.99-.87,2.48-.58,2.5,1.71.05,5.89.03,11.79.03,17.69q0,4.28,4.2,4.27c1,0,2-.03,2.99.04,1.81.13,2.18.48,2.26,2.26.08,1.57.03,3.15.03,4.73,0,5.48.01,10.96-.03,16.44-.02,2.57-.34,2.85-2.89,2.91-1.41.03-2.83-.02-4.24.03-1.96.07-2.51.59-2.54,2.55-.02,1.49.18,2.98.19,4.47.03,3.99,0,7.97.01,11.96,0,.66,0,1.33.05,1.99.28,4.49,2.3,6.42,6.81,6.46.91,0,1.83-.05,2.74-.06,1.91-.02,2.15.24,1.84,2.19-.29,1.8-.66,3.59-.98,5.39-1.12,6.29-2.24,12.59-3.36,18.88-.41,2.3-.45,2.3-2.81,2.73-1.9.35-3.82.3-5.72.23-5.16-.18-10.27-.65-15.22-2.36-7.77-2.69-12.67-7.95-14.78-15.86-1.03-3.88-1.34-7.85-1.45-11.83-.11-3.73-.02-7.47-.03-11.21Z"/>
  <path d="m40.96,428.96c1.1-.1,1.3-.83,1.7-1.3,6.62-7.73,14.76-12.94,24.97-14.31,13.83-1.87,26.15,1.62,36.26,11.43,7.1,6.88,11.2,15.33,12.06,25.31.71,8.21-.15,16.15-3.98,23.5-6.95,13.34-17.97,21.23-32.99,22.82-10.67,1.13-20.96-.48-30-6.87-10.42-7.36-15.96-17.54-17.3-30.13-.38-3.57-.36-7.13-.36-10.7,0-20.68.02-41.37-.02-62.05,0-4.89.64-4.3,3.95-4.61,1.41-.13,2.81-.28,4.22-.41.92-.08,1.42.35,1.44,1.28.02.75.03,1.49.03,2.24,0,13.71,0,27.41,0,41.12,0,.88,0,1.76,0,2.67Zm32.62,58.08c16.33.83,32.76-13.55,32.77-32.44.01-17.17-14.93-32.54-32.95-32.48-16.3.06-32.6,13.56-32.4,32.97.2,19.93,16.7,32.74,32.58,31.95Z"/>
  <path d="m262.54,454.29c0-12.29,0-24.58,0-36.86,0-.66-.02-1.33.02-1.99.1-2.04.46-2.54,2.51-2.61,4.99-.18,9.95-.66,14.92-1.11,3.81-.35,7.62-.63,11.42-.94.33-.03.66-.05,1-.06,2.83-.09,3.12.15,3.12,3.07.02,13.03.02,26.07.02,39.1,0,11.96,0,23.91,0,35.87,0,.33,0,.66,0,1-.03,3.54-.13,3.53-3.59,3.83-5.46.48-10.95.68-16.4,1.28-3.38.38-6.8.23-10.2.63-2.37.28-2.77-.19-2.78-2.6-.03-8.88-.01-17.77-.02-26.65,0-3.99,0-7.97,0-11.96Z"/>
  <path d="m180.84,483.99c-1.01,1.11-1.85,2-2.66,2.91-5.75,6.42-13.01,9.7-21.55,10.03-6.1.23-11.94-1.01-17.18-4.28-5.66-3.53-8.93-8.83-10.73-15.09-1.06-3.68-1.53-7.48-1.53-11.32-.01-16.19-.03-32.39-.04-48.58,0-2.84.22-3.08,3.04-3.42,1.49-.18,2.97-.4,4.46-.51,1.75-.12,2.07.18,2.19,1.88.05.74.02,1.49.02,2.24,0,14.53-.04,29.07.02,43.6.02,4.82.48,9.62,2.03,14.24,2.76,8.21,8.66,12.36,17.36,12.85,9.63.55,19.56-5.69,23.21-14.62,1.22-2.98,1.7-6.05,1.69-9.24-.02-15.03,0-30.06,0-45.1,0-.66,0-1.33,0-1.99.04-2.71.3-3.01,2.89-3.34,1.57-.2,3.13-.43,4.71-.54,1.88-.13,2.22.2,2.35,2,.04.5.02,1,.02,1.49,0,24.75,0,49.5,0,74.25,0,.58-.01,1.16-.05,1.74-.06,1.08-.67,1.66-1.72,1.78-2.07.23-4.13.49-6.2.64-1.66.12-1.9-.1-1.96-1.77-.08-2.24-.01-4.48-.04-6.73-.01-.9.15-1.83-.33-3.13Z"/>
  <path d="m639.52,470.12c.83-.32.94-.83,1.13-1.28,2.04-4.91,4.03-9.84,6.14-14.72.65-1.5.57-2.79-.06-4.27-2.59-6.12-5.1-12.27-7.61-18.43-1.05-2.58-.64-3.14,2.12-3.49,1.3-.17,1.76.48,2.17,1.51,1.78,4.39,3.61,8.76,5.42,13.13.35.84.61,1.72,1.24,2.43.88-.18.91-.96,1.15-1.52,1.93-4.6,3.81-9.21,5.74-13.81.76-1.81.97-1.92,2.52-1.69,2.63.39,2.94.96,1.91,3.43-2.6,6.21-5.17,12.43-7.81,18.61-.6,1.4-.65,2.64-.04,4.05,2.15,4.95,4.22,9.94,6.32,14.91.16.37.39.71.63,1.14,1.05-.33,1.12-1.27,1.41-1.97,5.08-12.19,10.13-24.4,15.19-36.6.19-.46.37-.92.56-1.38,1.01-2.44,2.69-2.98,5.07-1.68,1.06.58.72,1.38.41,2.14-.96,2.39-1.97,4.76-2.96,7.13-5.95,14.26-11.89,28.52-17.84,42.78-.31.74-.46,1.6-1.59,2.22-3.53-7.9-6.72-15.85-10.26-23.86-1.19,1.06-1.49,2.21-1.93,3.25-2.68,6.26-5.32,12.54-7.98,18.81-.16.38-.28.79-.5,1.14-.35.54-.84.6-1.17.03-.42-.71-.74-1.49-1.06-2.25-5.57-13.34-11.13-26.68-16.69-40.02-1.25-2.99-2.53-5.97-3.75-8.97-.82-2.03-.58-2.41,1.6-2.79,2.74-.48,2.75-.46,3.84,2.16,5.29,12.73,10.59,25.47,15.88,38.2.22.53.5,1.03.8,1.64Z"/>
  <path d="m891.08,455.32c0,15.58-12.26,27.84-27.86,27.82-15.59-.01-28.02-11.79-28.06-27.95-.04-14.48,10.81-27.64,27.97-27.83,17.13-.19,28.62,14.36,27.96,27.95Zm-5.63.03c1-13.15-11.44-22.8-21.96-22.84-12.18-.05-22.97,9.91-22.9,22.64.07,12.96,9.77,22.71,22.68,22.79,12.72.08,23.14-11.08,22.18-22.59Z"/>
  <path d="m894.83,455.05c-.3-12.44,9.75-27.71,28.06-27.67,16.37.03,28.04,13.03,27.91,27.84-.14,15.5-12.13,28.12-28.35,27.94-15.47-.16-27.66-12.49-27.62-28.12Zm27.88-22.35c-10.17-.82-22.48,7.94-22.49,22.37-.02,13.64,10.11,22.9,22.86,22.85,12.5-.04,22.16-9.99,22.26-22.73.1-12.74-10.78-23.27-22.63-22.49Z"/>
  <path d="m542.65,441.82c-.34,1.05-.2,1.97-.2,2.88-.01,11.37,0,22.75-.01,34.12,0,2.93-.98,3.89-3.82,3.85-.8-.01-1.27-.32-1.34-1.13-.05-.66-.07-1.33-.07-1.99,0-16.19-.01-32.38,0-48.57,0-.88-.16-1.8.46-3.01,4.2,4.39,7.75,9.03,11.54,13.46,3.89,4.55,7.7,9.16,11.55,13.73,3.77,4.48,7.56,8.94,11.5,13.6.71-1.19.5-2.12.5-2.99.02-10.79.01-21.59.01-32.38,0-.58,0-1.16,0-1.74.03-2.9,1.24-3.97,4.17-3.74.71.05,1.09.41,1.18,1.05.1.74.13,1.49.13,2.23,0,16.11.02,32.21,0,48.32,0,.95.41,2.35-.65,2.69-1.03.33-1.53-1.07-2.13-1.79-10.4-12.42-20.77-24.86-31.16-37.29-.41-.49-.74-1.12-1.65-1.31Z"/>
  <path d="m472.86,454.88c0,7.64,0,15.28,0,22.92,0,.42,0,.83,0,1.25-.06,2.68-1.45,3.82-4.18,3.44-.75-.1-1.24-.47-1.31-1.25-.06-.74-.08-1.49-.08-2.24-.01-6.15-.02-12.29-.03-18.44,0-.66,0-1.33-.05-1.99-.04-.77-.46-1.23-1.25-1.28-.5-.04-1-.05-1.5-.05-7.9,0-15.81-.02-23.71,0-2.68,0-2.83.15-2.84,2.82-.03,5.81-.02,11.63-.02,17.44,0,.58.02,1.16,0,1.74-.07,2.4-1.76,3.69-4.15,3.21-.65-.13-1.07-.51-1.15-1.14-.1-.82-.15-1.65-.15-2.48,0-15.53,0-31.06,0-46.59,0-.25,0-.5,0-.75.08-2.75,1.74-4.04,4.4-3.43.57.13.88.47.94,1,.08.74.11,1.49.11,2.24,0,5.73,0,11.46,0,17.19,0,.58,0,1.16.02,1.74.02,1.08.48,1.74,1.64,1.74,8.74,0,17.47,0,26.21,0,1.24,0,1.5-.81,1.49-1.84,0-2.33,0-4.65.01-6.98,0-3.9-.02-7.81,0-11.71.02-2.61,2.2-4.15,4.68-3.35.56.18.78.61.82,1.13.06.74.08,1.49.08,2.24,0,7.81,0,15.61,0,23.42Z"/>
  <path d="m829.49,454.85c0,7.72,0,15.45,0,23.17,0,.33,0,.66,0,1-.06,2.64-1.82,3.98-4.43,3.41-.66-.15-1.02-.54-1.07-1.19-.05-.74-.08-1.49-.08-2.24-.01-6.15-.01-12.29-.02-18.44,0-.66,0-1.33-.05-1.99-.04-.77-.47-1.22-1.25-1.27-.5-.03-1-.05-1.5-.05-7.91,0-15.81-.02-23.72,0-2.66,0-2.81.15-2.82,2.84-.03,5.9-.02,11.79-.03,17.69,0,.75-.01,1.49-.03,2.24-.03,1.27-.64,2.01-1.94,2.15-.5.05-.98.2-1.48.25-1.59.16-1.95-.12-2.1-1.67-.06-.66-.04-1.33-.04-1.99,0-15.37,0-30.73,0-46.1,0-.33,0-.66,0-1,.03-2.88,1.61-4.14,4.47-3.6.57.11.92.42.99.95.09.74.12,1.49.12,2.23.01,5.98,0,11.96.02,17.94,0,2.66.15,2.8,2.86,2.8,7.91.01,15.81.01,23.72,0,2.71,0,2.78-.08,2.79-2.82.02-5.9,0-11.79.02-17.69,0-2.66,2.08-4.15,4.64-3.39.57.17.8.58.85,1.1.06.74.08,1.49.08,2.24,0,7.81,0,15.61,0,23.42Z"/>
  <path d="m278.59,372.59c1.01.09,1.63.67,2.22,1.24,3.48,3.33,7.11,6.5,10.71,9.69,1.93,1.71,3.91,3.35,5.92,4.96,1.62,1.3,1.67,1.72.05,3.08-3.99,3.38-7.44,7.35-11.62,10.53-1.79,1.36-3.29,3.04-4.91,4.59-1.38,1.32-1.7,1.32-3.12.05-5.02-4.47-10.02-8.96-15.04-13.44-.8-.72-1.65-1.39-2.45-2.11-.82-.74-.9-1.55-.08-2.36.47-.47.95-.93,1.44-1.38,5.04-4.57,10.08-9.14,15.13-13.71.55-.5,1.06-1.07,1.76-1.14Z"/>
  <path d="m586.26,455.25c0-7.64,0-15.28,0-22.93,0-.5-.02-1,0-1.49.11-1.89.37-2.23,2.21-2.23,8.32-.03,16.65-.03,24.97.02,1.78,0,3.39,2.73,2.71,4.38-.18.43-.53.65-.95.69-.74.06-1.49.09-2.24.09-5.74.01-11.49.02-17.23.03-.42,0-.83,0-1.25.01-2.44.06-2.57.15-2.58,2.53-.03,3.74,0,7.48,0,11.21,0,.75-.02,1.5,0,2.24.07,2.06.25,2.3,2.32,2.32,4.83.04,9.65.01,14.48.01.75,0,1.5-.03,2.25.04,1.55.14,1.8.44,1.91,2.03,0,.08,0,.17,0,.25.07,2.38-.26,2.77-2.66,2.78-4.74.03-9.49.01-14.23.01-.67,0-1.33-.02-2,.01-1.82.09-2.01.24-2.07,2.03-.05,1.91-.02,3.82-.02,5.73,0,2.91-.02,5.82.01,8.72.02,2.64.14,2.78,2.87,2.79,5.41.03,10.82.02,16.23.03,1.17,0,2.33,0,3.5,0,2.5.03,2.85.2,2.89,1.41.08,2.5-.94,4-2.97,4.03-4.16.08-8.32.04-12.48.05-4.16,0-8.32.02-12.48,0-2.9-.02-3.17-.28-3.17-3.12-.02-7.89,0-15.78,0-23.67h-.01Z"/>
  <path d="m480.86,455.21c0-7.47,0-14.95,0-22.42,0-.66-.02-1.33.02-1.99.13-1.84.4-2.16,2.27-2.18,3.74-.05,7.49-.03,11.23-.03,4.33,0,8.65-.02,12.98.02,2.29.02,3.78,1.88,3.39,4.11-.1.57-.45.9-.98.97-.66.08-1.33.09-1.99.09-6.24.02-12.48.02-18.72.06-2.53.02-2.68.17-2.7,2.71-.03,4.23-.03,8.47,0,12.71.02,2.66.23,2.87,2.83,2.88,4.74.02,9.49,0,14.23,0,.42,0,.83,0,1.25,0,2.37.09,3.56,2.23,2.41,4.32-.45.82-1.21.77-1.95.78-2.16.02-4.33,0-6.49.01-3.25,0-6.49-.02-9.73.01-2.27.02-2.51.21-2.53,2.37-.04,4.82-.04,9.63,0,14.45.02,2.15.31,2.43,2.49,2.45,6.32.04,12.65.03,18.97.03.42,0,.83,0,1.25,0,2.49.04,2.83.21,2.87,1.44.07,2.4-.86,3.75-2.78,3.98-.49.06-1,.06-1.5.06-7.9.01-15.81.03-23.71.02-2.84,0-3.1-.27-3.11-3.18-.02-7.89,0-15.78,0-23.67Z"/>
  <path d="m722.82,427.59c4.67-.27,8.89,1.62,12.64,4.8,1.74,1.48,1.75,1.8.18,3.59-.11.12-.22.25-.33.37-1.62,1.73-1.89,1.82-3.63.2-3.12-2.9-6.73-4.15-10.96-3.74-5.91.58-9.82,6-8.42,11.74.43,1.76,1.5,3.11,2.98,4.16,1.86,1.33,4,2.01,6.14,2.68,2.14.67,4.29,1.31,6.43,2.01,1.83.6,3.52,1.48,5.12,2.55,8.67,5.77,7.43,17.63.88,22.99-6.57,5.38-16.35,5.56-23.17.44-1.81-1.36-3.42-2.89-4.72-4.75-.64-.92-.63-1.67.33-2.33.34-.24.68-.48,1.02-.72,1.95-1.32,2.01-1.34,3.4.45,3.74,4.83,8.67,6.55,14.56,5.36,4.17-.84,7-3.33,8-7.59.61-2.6-.01-4.95-1.72-6.98-1.08-1.28-2.36-2.33-3.85-3.13-2.35-1.27-4.8-2.28-7.39-2.97-2.01-.54-3.97-1.25-5.84-2.15-5.29-2.53-8.32-6.7-8.19-12.59.13-6.01,3.28-10.31,8.68-12.93,2.35-1.14,4.28-1.45,7.87-1.45Z"/>
  <path d="m748.63,455.19c-.04,6.28,2.08,11.61,6.44,16.23,6.1,6.44,16.9,8.13,24.22,4.8.3-.14.61-.26.92-.38,2.19-.86,2.55-.6,2.24,1.63-.48,3.54-.71,3.79-4.36,4.74-16.24,4.2-32.02-6.31-34.71-22.83-2.39-14.65,8.58-30.69,25.3-31.85,3.45-.24,6.78.11,10.12.92,2.04.5,3.29,1.52,3.34,3.68.02,1.03,1.01,2.29-.01,3.02-.85.61-1.8-.53-2.7-.88-13.74-5.39-28.34,2.93-30.54,16.95-.21,1.31-.18,2.65-.26,3.97Z"/>
  <path d="m408.94,457.92c0-6.72,0-13.45,0-20.17,0-.66.03-1.33-.02-1.99-.12-1.6-.34-1.87-1.95-1.92-2.41-.08-4.82-.05-7.24-.07-1.08,0-2.16.04-3.24-.02-1.69-.08-1.91-.37-1.68-1.94.41-2.79.87-3.22,3.67-3.22,8.82-.01,17.63,0,26.45,0,.5,0,1,.02,1.5.04.99.05,1.53.57,1.58,1.56.03.5.06,1,.03,1.49-.09,1.72-.36,2.06-2.07,2.1-2.58.06-5.16-.01-7.73,0q-3.65,0-3.66,3.71c0,13.28,0,26.56,0,39.85,0,.5,0,1,0,1.49-.02,2.87-1.53,4.1-4.42,3.65-.69-.11-1.04-.52-1.11-1.15-.08-.74-.1-1.49-.1-2.23,0-7.06,0-14.11,0-21.17Z"/>
  <path d="m956.89,455.1c0-7.47,0-14.94,0-22.4,0-.5-.01-1,0-1.49.1-2.5,2.06-3.81,4.43-3,.65.22.9.72.95,1.32.06.83.07,1.66.07,2.49,0,13.61,0,27.22.02,40.82,0,3.69.03,3.7,3.76,3.71,3.91.02,7.81,0,11.72.02.66,0,1.33.05,1.98.14.42.06.78.29.92.73.42,1.31-1.31,4.27-2.68,4.5-.65.11-1.32.11-1.99.11-5.24.01-10.48.01-15.71.01-.58,0-1.16-.03-1.74-.06-1.09-.07-1.66-.67-1.7-1.75-.03-.75-.04-1.49-.04-2.24,0-7.63,0-15.27,0-22.9h0Z"/>
  <path d="m249.98,545.95c0-3.32.02-6.65,0-9.97-.02-2.17-.04-2.19-2.05-2.6-.76-.16-1.58-.25-1.58-1.23,0-1.02.21-2.22,1.46-2.26,1.96-.06,2.32-1.1,2.28-2.73-.03-1.16.3-2.3.69-3.41,1.18-3.39,4.57-5.61,8.13-5.42,1.17.06,1.87.6,2.16,1.69.26.96,0,1.65-1.08,1.82-.9.14-1.84.15-2.72.38-2.8.72-4.42,3.71-3.58,6.46.19.64.59,1.02,1.23,1.03,2.41.04,4.82.06,7.23.05.89,0,1.3-.57,1.44-1.42.23-1.39.4-2.81.8-4.15,1.09-3.66,4.03-5.8,7.8-5.84.85,0,1.66.04,2.25.8,1.07,1.39.63,2.51-1.1,2.75-.49.07-1,.06-1.49.13-3.3.47-5.23,3.22-4.62,6.48.18.93.74,1.22,1.58,1.23,1.17.01,2.33-.02,3.49.05,1.43.09,1.85.55,1.86,1.79,0,1.21-.42,1.66-1.89,1.77-1.16.09-2.33.05-3.49.08-1,.03-1.53.56-1.53,1.57,0,1.33-.02,2.66-.02,3.99,0,5.32,0,10.63,0,15.95,0,1.2-.03,2.37-1.49,2.8-1.23.36-1.92-.04-2.09-1.33-.08-.66-.05-1.33-.05-1.99,0-5.73,0-11.46,0-17.2,0-.75-.01-1.5-.05-2.24-.05-1-.61-1.53-1.59-1.54-2.25-.02-4.49-.02-6.74,0-1,.01-1.52.59-1.56,1.57-.03.75-.04,1.49-.04,2.24,0,5.9.02,11.8,0,17.69,0,2.04-.48,2.64-1.98,2.94-1.03.21-1.63-.12-1.64-1.24-.01-1.91-.02-3.82-.02-5.73,0-1.66,0-3.32,0-4.98Z"/>
  <path d="m229.76,533.72c.55-.95.34-1.8.35-2.6.03-3.4.02-6.81.02-10.21,0-1.19.32-2.12,1.67-2.39,1.2-.24,1.73.07,1.9,1.26.08.57.05,1.16.05,1.74,0,10.87,0,21.75,0,32.62,0,.74.01,1.51-.14,2.23-.19.9-1.37,1.56-2.34,1.43-1.01-.13-1.03-.93-1.13-1.67-.11-.81.12-1.66-.33-2.68-1.9,1.17-3.34,2.95-5.45,3.68-2.21.76-4.43,1.33-6.83.94-2.25-.36-4.39-.95-6.3-2.2-1.9-1.25-3.48-2.85-4.65-4.8-3.34-5.54-2.81-13.7,3.2-18.71,5.93-4.95,13.16-4.57,19.97,1.35Zm.37,10.03c.46-6.76-5.46-11.23-10.79-11.25-6.17-.03-11.31,4.83-11.39,10.86-.08,6.28,4.84,11.26,11.13,11.34,7.03.08,11.48-5.8,11.05-10.94Z"/>
  <path d="m133.87,533.81c1.11-.31,1.47-.92,1.97-1.33,9.43-7.82,21.41-1.46,23.4,7.82,1.96,9.13-4.43,17.66-13.83,17.91-6.65.18-12.23-3.31-14.3-10.16-.5-1.67-.84-3.4-.85-5.14-.04-7.22-.02-14.43-.02-21.65,0-1.2.06-2.36,1.57-2.71,1.29-.31,1.88.04,2.01,1.38.09.9.04,1.82.05,2.73,0,3.64,0,7.27,0,11.15Zm11.25,20.88c6.25-.05,11.02-4.9,10.99-11.15-.04-6.24-4.88-11.04-11.12-11.04-6.39,0-11.21,5.02-11.11,11.58.1,6.02,5.01,10.66,11.24,10.62Z"/>
  <path d="m176.83,554.68c2.71,0,5.47-1.22,8.06-3.03.69-.48,1.28-1.51,2.35-.95.64.33.61,2.65.03,3.53-.18.27-.42.53-.69.71-6.73,4.45-15.3,4.76-20.92-1.48-4.16-4.62-5.05-10.05-2.6-15.76,2.49-5.79,7.26-8.6,13.41-8.7,4.04-.07,7.68,1.42,10.23,4.81,1.3,1.73,1.23,2.19-.63,3.32-4.55,2.76-9.14,5.45-13.7,8.18-1.36.81-2.71,1.62-4.04,2.47-1.61,1.02-1.65,1.38-.47,2.89,2.06,2.64,5.02,4.04,8.97,4.01Zm-11.19-9.59c.46.18.8-.11,1.14-.31,2.07-1.21,4.14-2.42,6.21-3.65,2.78-1.65,5.57-3.28,8.31-4.98,1.48-.92,1.41-1.59-.11-2.48-.94-.55-1.99-.83-3.05-1.02-7.94-1.42-14.26,6.16-12.5,12.43Z"/>
  <path d="m274.49,543.46c.03-9.56,9.14-16.46,18.37-13.92,2.57.71,4.7,2.07,6.36,4.15,1.45,1.81,1.4,2.25-.57,3.44-5.62,3.39-11.26,6.75-16.9,10.13-.36.21-.73.4-1.07.63-1.34.9-1.43,1.24-.41,2.56,2.77,3.58,6.5,4.7,10.86,4.04,2.18-.33,4.12-1.27,5.92-2.51.61-.42,1.23-.85,1.89-1.21.52-.28.94-.15,1.14.48.47,1.46-.03,3.18-1.3,3.94-3.73,2.22-7.66,3.56-12.11,2.77-7.28-1.29-12.21-7.13-12.18-14.52Zm3.6-.59c-.04,2.06.37,2.51,1.71,1.73,4.86-2.85,9.69-5.75,14.5-8.68,1.04-.64,1.01-1.11.04-1.87-.39-.3-.82-.57-1.28-.75-7.33-2.84-14.96,2.39-14.97,9.57Z"/>
  <path d="m317.44,543.44c.04-9.56,9.17-16.45,18.39-13.89,2.57.71,4.69,2.08,6.36,4.16,1.44,1.8,1.39,2.24-.6,3.44-5.62,3.39-11.26,6.75-16.9,10.13-.29.17-.58.32-.86.5-1.59,1.02-1.68,1.38-.44,2.9,2.79,3.42,6.46,4.48,10.71,3.82,2.17-.34,4.12-1.27,5.92-2.52.61-.42,1.23-.85,1.89-1.21.52-.28.94-.12,1.13.5.42,1.37,0,3.1-1.11,3.8-3.69,2.28-7.62,3.67-12.07,2.93-7.46-1.24-12.44-7.08-12.41-14.56Zm3.6-.52c.08.61-.3,1.51.54,1.92.68.34,1.24-.27,1.79-.6,4.56-2.71,9.11-5.42,13.65-8.17,1.33-.81,1.32-1.28.11-2.15-.33-.24-.7-.46-1.08-.61-7.3-2.86-14.97,2.33-15.01,9.61Z"/>
  <path d="m350.59,533.2c1.09-1.29,2.4-2.27,3.87-3.07,5.03-2.72,12.5-.39,13.74,6.48.18.98.36,1.97.37,2.96.05,5.15.03,10.3.05,15.45,0,1.24-.13,2.34-1.61,2.7-1.18.29-1.75,0-1.94-1.2-.11-.65-.08-1.32-.09-1.99,0-4.48,0-8.97,0-13.45,0-1.42-.09-2.81-.54-4.18-.87-2.68-2.74-4.09-5.5-4.33-4.88-.44-8.69,2.98-8.8,8.04-.1,4.4,0,8.8,0,13.2,0,.66.03,1.33-.04,1.99-.15,1.4-1.02,2.15-2.29,2.05-1.32-.1-1.28-1.12-1.28-2.03,0-7.89,0-15.78.03-23.67,0-.57.1-1.19.34-1.68.46-.94,1.39-1.19,2.33-1.02.81.15.86.92.88,1.6.02.66,0,1.31,0,1.97.16.06.32.13.48.19Z"/>
  <path d="m383.66,554.64c.56-.01,1.62-.5,1.87.91.2,1.16-.34,1.95-1.64,2.4-2.93,1.02-6.67-.62-7.9-3.54-.85-2.01-1.09-4.16-1.1-6.33-.02-4.06,0-8.13-.04-12.19-.02-2.02-.04-2.04-1.88-2.52-.76-.2-1.54-.33-1.46-1.34.08-.92.29-1.77,1.33-2.18,2.02-.8,2.01-.83,2.03-2.87,0-.66.01-1.33.01-1.99,0-1.13.59-1.84,1.58-2.31,1.36-.65,1.86-.44,1.97,1.03.1,1.24.02,2.49.07,3.73.07,2.07.25,2.25,2.32,2.32,1,.03,1.99.02,2.99.06,1.17.05,1.55.81,1.56,1.84,0,.98-.49,1.58-1.48,1.66-1.08.08-2.16.04-3.24.1-1.76.1-2.11.35-2.12,2.04-.04,4.97-.1,9.95.07,14.92.11,3.34,1.49,4.4,5.06,4.26Z"/>
  <path d="m307.89,533.76c1.54-1.52,2.7-3.11,4.57-3.79.93-.34,1.91-.56,2.88-.79.56-.13,1.21-.31,1.64.22.51.63.1,1.26-.19,1.85-.35.72-.93,1.19-1.69,1.37-5.45,1.31-6.99,5.53-7.39,10.32-.31,3.63-.1,7.3-.13,10.96,0,.75.03,1.51-.09,2.24-.19,1.17-1.4,1.96-2.57,1.82-.46-.05-.79-.27-.88-.73-.07-.41-.1-.82-.1-1.24,0-7.98,0-15.95,0-23.93,0-1.12.05-2.18,1.42-2.57,1.25-.35,1.9.02,2.14,1.29.17.89-.12,1.82.4,2.98Z"/>
  <path d="m242.75,543.58c0,3.56,0,7.12,0,10.68,0,.66.02,1.33-.09,1.98-.21,1.23-1.2,1.53-2.23,1.55-1.17.03-1.24-.92-1.27-1.75-.05-1.74-.04-3.48-.04-5.22,0-6.13-.01-12.25.01-18.38,0-2.13.31-2.6,1.59-2.93,1.28-.33,1.89.04,1.98,1.4.1,1.4.05,2.81.05,4.22,0,2.82,0,5.63,0,8.45Z"/>
  <path d="m240.77,523.53c-.81-.08-2.18-1.76-2.03-2.52.14-.75,1.61-2.07,2.29-2.05.77.02,2.08,1.46,2.03,2.22-.06.82-1.6,2.4-2.28,2.34Z"/>
</svg>