<?xml version="1.0" encoding="utf-8"?>
<!-- Generator: Adobe Illustrator 27.7.0, SVG Export Plug-In . SVG Version: 6.00 Build 0)  -->
<svg version="1.1" id="Capa_40" xmlns="http://www.w3.org/2000/svg" xmlns:xlink="http://www.w3.org/1999/xlink" x="0px" y="0px"
	 viewBox="0 0 823 286" style="enable-background:new 0 0 823 286;" xml:space="preserve">
<path d="M265.5,200.3c-3.8-0.9-7.6-1.7-11.4-2.6c-19.3-4.5-38.6-8.9-57.9-13.4c-1.6-0.4-3.2-0.1-4.7,0.3
	c-22.1,5.1-44.2,10.2-66.3,15.3c-1.4,0.3-2.6,0.1-3.8-0.6c-21.1-11.9-42.2-23.8-63.2-35.7c-2.7-1.5-3-2.1-2.5-5.2
	c3.9-24.6,7.9-49.1,11.8-73.7c1.3-8.1,2.6-16.3,3.9-24.5c0.2-1.6,1.2-1.9,2.5-2.1c6-0.8,12.1-1.6,18.1-2.4
	c16.6-2.1,33.3-4.3,49.9-6.4c16.5-2.1,33-4.1,49.5-6.4c5.2-0.7,10.2,0.5,15.2,1.1c13.5,1.6,27.1,3.4,40.6,5.2
	c12.3,1.6,24.6,3.2,37,4.8c10.5,1.3,21,2.7,31.4,4c1.5,0.2,2.1,0.8,2.4,2.3c4.8,28.5,9.1,57,13.7,85.5c0.7,4.2,1.4,8.5,2,12.7
	c0.5,3.2,0.4,3.6-2.5,5.2c-10.8,6.1-21.5,12.2-32.3,18.3c-10.4,5.9-20.7,11.7-31.1,17.6C267.1,199.9,266.4,200.3,265.5,200.3
	L265.5,200.3z"/>
<path d="M514.6,101c3.7,3.3,7.3,6.5,10.9,9.7c7.3,6.5,14.7,13,22,19.5c5.4,4.8,10.7,9.5,16.1,14.3c0.3,0.2,0.6,0.5,0.8,0.8
	c0.4,0.5,1.3,0.8,1.1,1.5c-0.3,0.9-1.2,0.5-1.9,0.5c-3.9,0-7.8,0-11.7,0c-1.6,0-2.8-0.5-4-1.6c-12.7-11.3-25.4-22.6-38.1-34
	c-3-2.6-5.9-5.3-8.9-7.9c-0.7,0.8-0.4,1.6-0.4,2.3c0,12.6,0,25.2,0,37.8c0,3.2-0.2,3.4-3.4,3.3c-2,0-4.1,0-6.2,0c-1.3,0-2-0.6-2-1.9
	c0-0.5,0-1,0-1.5c0-32.6,0-65.3,0-98c0-2.1,1-3.2,3.1-3.2c13.3,0,26.5,0,39.8,0c6.3,0,11.9,2.2,16.6,6.1c13.7,11.1,15,29.8,3.2,42.8
	c-5,5.5-11.3,8.5-18.8,8.9c-5.3,0.3-10.6,0.1-15.9,0.3C516.3,100.6,515.6,100.5,514.6,101L514.6,101z M500.5,71.5c0,5,0,10,0,15
	c0,2.5,0.2,2.6,2.6,2.6c9.2,0,18.4,0,27.7,0c11.3,0,19.6-10.6,17-21.6c-2-8.4-8.3-13.4-17.8-13.6c-9-0.2-18,0-27.1-0.1
	c-1.8,0-2.5,0.8-2.4,2.5C500.5,61.4,500.5,66.5,500.5,71.5L500.5,71.5z"/>
<path d="M725.4,103.7c-0.5,1-0.3,1.8-0.3,2.5c0,12.5,0,25.1,0,37.7c0,3.2-0.2,3.4-3.4,3.3c-1.9,0-3.8,0-5.8,0
	c-1.8,0.1-2.5-0.7-2.4-2.4c0-0.6,0-1.2,0-1.7c0-32.3,0-64.7,0-97c0-0.4,0-0.8,0-1.1c-0.2-1.7,0.4-2.6,2.3-2.4c0.5,0.1,1,0,1.5,0
	c12.8,0,25.5,0,38.3,0c10.4,0,18.5,4.5,24,13.2c10.8,16.9,2.2,37.2-14.8,43.2c-3.8,1.4-7.8,1.6-11.9,1.4c-4.5-0.2-8.9-0.4-13.3,0.2
	c-0.2,0.7,0.2,0.9,0.4,1.1c14.5,12.9,29,25.7,43.6,38.6c2.1,1.8,4.1,3.6,6.2,5.5c0.3,0.3,0.8,0.5,0.6,1.1c-0.2,0.4-0.7,0.3-1,0.3
	c-4.5,0-9.1,0-13.7,0c-1,0-1.8-0.5-2.6-1.1c-10-8.9-19.9-17.9-29.9-26.8C737.3,114.1,731.4,109,725.4,103.7L725.4,103.7z
	 M725.1,71.5c0,5.1,0,10.2,0,15.4c0,1.5,0.5,2.2,2.1,2.2c9.8,0,19.6,0.1,29.4-0.1c9-0.2,17.2-9.2,16.4-18
	c-0.7-8.3-6.1-17.1-17.9-17.2c-9.2,0-18.4,0-27.7-0.1c-1.9,0-2.4,0.8-2.4,2.6C725.1,61.4,725.1,66.5,725.1,71.5L725.1,71.5z"/>
<path d="M696,147.2c-4.8,1.4-6.7-1.3-8.3-5.3c-3-7.5-6.4-14.9-9.7-22.4c-0.3-0.7-0.7-1.4-0.9-2.1c-0.7-1.9-2-2.6-4-2.6
	c-8.3,0.1-16.5,0-24.8,0c-5.6,0-11.3,0-16.9,0c-2.2,0-3.5,0.8-4.4,2.9c-3.9,9.1-7.9,18.1-11.8,27.1c-0.7,1.6-1.7,2.4-3.5,2.3
	c-2.4-0.1-4.7,0-7.1,0c-2.3,0-2.7-0.5-1.7-2.6c4.7-10.8,9.5-21.6,14.2-32.3c9.6-21.9,19.3-43.8,28.8-65.8c1.3-2.9,2.7-4.2,6.1-4
	c5.4,0.4,4.1-0.9,6.4,4.5c9.5,21.5,18.9,43,28.3,64.5c4.8,11,9.7,22,14.5,33.1c1.1,2.4,0.9,2.7-1.8,2.7
	C698.3,147.2,697.2,147.2,696,147.2L696,147.2z M651.9,103.7c5.4,0,10.9,0,16.3,0c2.7,0,2.8-0.2,1.8-2.5
	c-5.5-12.5-11-25.1-16.5-37.6c-0.3-0.7-0.3-1.9-1.2-1.9c-0.7,0-0.8,1.2-1.2,1.9c-0.1,0.1-0.1,0.2-0.2,0.4
	c-5.6,12.7-11.2,25.4-16.8,38.1c-0.6,1.4-0.4,1.8,1.1,1.8C640.7,103.7,646.3,103.7,651.9,103.7L651.9,103.7z"/>
<path d="M431.4,127.6c0.8-1.9,1.4-3.2,2-4.6c10.4-25.8,20.8-51.5,31.2-77.3c0.8-2,2.4-3.1,4.6-3.1c2,0,4.1,0,6.2,0
	c2.4,0,2.4,0.1,1.5,2.2c-3.3,8.2-6.5,16.4-9.8,24.6c-9.6,23.8-19.2,47.6-28.8,71.5c-0.6,1.4-1.2,2.8-1.7,4.3c-0.5,1.5-1.5,2-3,2.1
	c-5,0.6-6.6,0.9-9.2-6.4c-4.3-12.2-9.6-24-14.5-36c-6.2-15.2-12.4-30.3-18.6-45.5c-2-5-4.1-10-6.1-14.9c-0.6-1.4-0.5-2,1.2-1.9
	c2.8,0.1,5.5,0.1,8.3,0c1.5,0,2.1,0.6,2.6,1.9c11,27,22.1,54,33.2,81.1C430.7,126,430.9,126.5,431.4,127.6L431.4,127.6z"/>
<path d="M619.9,42.6c1.4,0,2.8,0,4.2,0c1.4,0,1.6,0.5,1.2,1.8c-2.5,7.2-5,14.4-7.5,21.6c-4.8,13.7-9.6,27.4-14.4,41.1
	c-4.3,12.5-8.7,25-13,37.6c-0.6,1.9-1.7,2.7-3.7,2.6c-2.1-0.1-4.2,0-6.3,0c-2.3,0-2.7-0.5-1.9-2.7c2-5.9,4.1-11.8,6.2-17.8
	c9.6-27.5,19.1-55,28.7-82.5c0.4-1.3,1.1-1.7,2.4-1.6C617.1,42.7,618.5,42.6,619.9,42.6L619.9,42.6z"/>
<path d="M352.5,105.1c0,8.5,0,17,0,25.5c0,2.7-0.4,3.1-3,3.9c-2.5,0.8-5,1.5-7.5,2.3c-1.5,0.5-2.1,0-2.3-1.5
	c-0.9-9.4-1.8-18.8-2.7-28.2c-1-10.6-1.9-21.1-3-31.7c-0.4-3.7-0.2-3.9,3.2-2.9c4.2,1.2,8.5,2.5,12.7,3.6c1.8,0.5,2.5,1.3,2.5,3.2
	C352.4,88,352.4,96.5,352.5,105.1L352.5,105.1L352.5,105.1z"/>
<path d="M37.1,105.2c0-8.7,0-17.4,0-26.1c0-1.7,0.4-2.5,2.2-2.9c4.7-1.2,9.2-2.6,13.9-4c2.1-0.6,2.6-0.2,2.4,2
	c-0.8,8.9-1.7,17.7-2.5,26.5s-1.6,17.7-2.4,26.5c-0.2,2.7-0.5,5.5-0.8,8.2c-0.1,1.3-0.7,1.9-2,1.5c-3.2-1-6.4-1.9-9.6-2.9
	c-1.4-0.4-1.1-1.6-1.1-2.5C37.1,122.8,37.1,114,37.1,105.2L37.1,105.2z"/>
<path d="M525.8,200.9c-11.8,0.5-17.4-9.3-17.2-17.5c0.3-11.7,7-17.5,17.4-17.8c9.9-0.2,17.2,7.5,17.2,17.5
	C543.2,191.5,537.6,201.6,525.8,200.9L525.8,200.9z M525.8,169c-7.8-0.6-14,5.4-14,14.3c0,8.4,5.9,14.6,14,14.7
	c8,0.1,14.2-6.2,14.2-14.5C540,174.7,534.5,169.1,525.8,169L525.8,169z"/>
<path d="M732.7,200.9c-10.9,0.5-17.1-8.8-16.9-17.4c0.2-10.6,6-17.7,17.6-17.8c9.3-0.1,16.9,6.1,17,17.7
	C750.4,193,744,201.5,732.7,200.9L732.7,200.9z M733,169c-8.5-0.5-13.9,6.1-14,14.1c0,8.6,5.8,14.8,14,14.9
	c8,0.1,14.2-6.2,14.3-14.5C747.3,174.8,741.7,169.1,733,169L733,169z"/>
<path d="M768.6,174.3c0,3.4,0,6.7,0,10.1c0,4.5,0,9.1,0,13.6c0,1.2,0,2.5-1.6,2.5c-1.6,0-1.7-1.2-1.7-2.4c0-9.8,0-19.7,0-29.6
	c0-0.7-0.2-1.7,0.7-2c1-0.4,1.5,0.5,2,1.2c6.5,7.9,12.9,15.9,19.4,23.8c0.3,0.4,0.7,0.8,1.1,1.3c0.5-0.7,0.3-1.4,0.3-2
	c0-7.1,0-14.2,0-21.3c0-1.3,0-2.7,1.7-3.1c0.9-0.2,1.5,0,1.6,1c0,0.5,0,0.9,0,1.3c0,9.7,0,19.5,0,29.2c0,0.8,0.5,2-0.6,2.4
	c-1.1,0.3-1.6-0.8-2.2-1.5c-6.5-8-13-16-19.5-23.9c-0.2-0.2-0.3-0.5-0.5-0.8C769,174.1,768.8,174.2,768.6,174.3L768.6,174.3z"/>
<path d="M586.2,227.3c-1.9,3.5-3.8,7-5.6,10.6c-1.6,3-3.2,6.1-4.8,9.2c-0.4,0.8-0.8,1.6-1.9,1.6c-1.1,0-1.5-0.8-2-1.6
	c-3.2-6.2-6.5-12.3-9.8-18.5c-0.2-0.4-0.3-1-0.9-1.2c-0.3,0.6-0.2,1.2-0.2,1.9c0,5.9,0,11.8,0,17.7c0,1-0.2,1.8-1.5,1.7
	c-1.2,0-1.3-0.8-1.3-1.7c0-8.4,0-16.8,0-25.2c0-0.7,0-1.6,1-1.7c1.1-0.2,1.6,0.4,2.1,1.3c3.6,6.8,7.2,13.7,10.9,20.5
	c0.5,0.8,0.6,2.3,1.6,2.3c0.8,0,1-1.5,1.5-2.3c3.3-6.2,6.5-12.3,9.8-18.5c0.4-0.7,0.8-1.5,1.2-2.2c0.5-0.9,1.2-1.3,2.2-1.1
	c1.1,0.2,0.8,1.2,0.9,1.9c0,0.1,0,0.1,0,0.2c0,8.1,0,16.2,0,24.4c0,1,0.1,2-1.3,2.1c-1.6,0.1-1.5-1-1.5-2.1c0-5.8,0-11.5,0-17.3
	c0-0.6,0-1.2,0-1.8C586.4,227.3,586.3,227.3,586.2,227.3L586.2,227.3z"/>
<path d="M496,227.4c0,5.8,0,11.6,0,17.4c0,0.8,0,1.7,0,2.5c0,0.8-0.4,1.3-1.3,1.3c-1,0-1.4-0.4-1.5-1.3c0-0.4,0-0.8,0-1.2
	c0-7.9,0-15.7,0-23.6c0-0.9-0.4-2.1,0.9-2.4c1.4-0.4,1.9,0.6,2.5,1.6c3.7,7.1,7.5,14.1,11.2,21.2c0.3,0.5,0.3,1.3,1,1.3
	c0.8,0.1,0.8-0.8,1.1-1.4c3.5-6.6,7-13.2,10.5-19.8c0.4-0.7,0.8-1.3,1.1-2c0.5-0.9,1.2-1.1,2.1-0.9c1,0.2,0.8,1,0.8,1.7
	c0,2.8,0,5.5,0,8.3c0,5.5,0,11,0,16.5c0,1,0.1,2-1.3,2.1c-1.6,0-1.5-1.1-1.5-2.1c0-5.8,0-11.5,0-17.3c0-0.6,0.2-1.2-0.3-2
	c-1.8,3.4-3.5,6.6-5.3,9.9c-1.8,3.3-3.5,6.7-5.3,10c-0.4,0.8-0.8,1.6-2,1.5c-1.1,0-1.5-0.8-1.9-1.6c-3-5.8-6.1-11.5-9.1-17.3
	c-0.4-0.8-0.8-1.6-1.3-2.3C496.3,227.4,496.1,227.4,496,227.4L496,227.4z"/>
<path d="M482.8,200.9c-5.7,0.3-10.1-1.5-13.5-5.6c-0.6-0.7-1.7-1.6-0.3-2.6c1.2-0.8,2-0.6,2.9,0.5c4,4.9,11.9,6.2,17.5,3
	c1.9-1.1,3.2-2.7,3.2-4.9c0-2.2-1.3-3.8-3.2-4.9c-2.8-1.5-5.8-1.8-8.8-2.5c-2.3-0.5-4.6-1-6.8-2c-6.3-2.6-5.2-10.5-1.8-13.2
	c4.6-3.6,13.8-4.2,18.8-1.2c1.2,0.7,2.2,1.7,3.2,2.8c0.6,0.7,1,1.4,0,2.1c-0.8,0.6-1.5,0.8-2.4,0c-4.3-4-10.3-4.9-15.6-2.4
	c-2.1,1-3.5,2.6-3.5,5c0,2.5,1.7,3.7,3.8,4.5c3.5,1.4,7.3,1.5,10.8,2.5c1.2,0.4,2.5,0.7,3.6,1.2c3.2,1.4,5.1,3.9,5.1,7.4
	c0,3.4-1.2,6.1-4.3,7.8C488.7,200.5,485.6,201.3,482.8,200.9L482.8,200.9z"/>
<path d="M443,200.9c-5.8,0.3-10.2-1.5-13.6-5.7c-0.6-0.7-1.4-1.5-0.2-2.4c1-0.8,2-0.7,2.9,0.4c2.4,3.1,5.7,4.4,9.5,4.8
	c2.9,0.3,5.7-0.3,8.3-1.7c2-1.1,2.9-2.8,2.9-5c0-2.3-1.2-3.7-3.1-4.7c-2.8-1.4-6-1.8-9-2.4c-2.5-0.5-4.9-1-7.1-2.2
	c-4.9-2.6-5.7-9-1.6-12.8c4.7-4.3,17.3-5,22,1c0.6,0.7,1.3,1.4,0.3,2.3c-0.9,0.8-1.7,0.9-2.7-0.1c-4-4.1-11.7-4.8-16.5-1.6
	c-0.2,0.1-0.4,0.3-0.6,0.5c-2.9,2.5-2.5,6.3,0.9,8.1c2.7,1.4,5.6,1.7,8.5,2.3c2.1,0.4,4.3,0.9,6.3,1.7c3.8,1.5,5.8,4.3,5.8,8.2
	c0,3.8-2,6.6-5.8,8.2C447.8,200.7,445.3,201.2,443,200.9L443,200.9z"/>
<path d="M634.1,166.3c1.4,0,2,0.9,2.5,2c3.1,7,6.2,13.9,9.3,20.8c1.3,3,2.7,6,4,8.9c0.3,0.7,1.2,1.5,0.1,2.2
	c-1.1,0.7-2.2,0.2-2.9-0.8c-0.6-0.9-0.9-2-1.4-2.9c-2.5-5.1-1-4.3-6.7-4.4c-4.3,0-8.6,0-12.9,0c-1.4,0-2.3,0.4-2.8,1.8
	c-0.5,1.4-1.2,2.8-1.8,4.2c-0.3,0.8-0.8,1.6-1.7,2c-0.7,0.3-1.5,0.5-2.2,0c-0.7-0.6-0.1-1.2,0.1-1.7c4.5-10.1,9-20.2,13.6-30.3
	C632,167,632.7,166.2,634.1,166.3L634.1,166.3z M633.9,170c-2.8,6.3-5.3,12-7.8,17.7c-0.4,1,0,1.3,0.9,1.3c4.6,0,9.2,0,13.8,0
	c0.9,0,1.3-0.3,0.9-1.3C639.2,182,636.7,176.3,633.9,170L633.9,170z"/>
<path d="M416.4,200.6c-1.6-0.2-2.4-1.1-2.8-2.2c-0.5-1.3-0.9-2.7-1.5-4c-0.7-1.7-2-2.5-3.8-2.4c-4.9,0.4-9.9,0.1-14.8,0.2
	c-1.6,0-2.5,0.6-3.1,2c-0.6,1.5-1.4,3-2,4.5c-0.3,0.7-0.8,1.3-1.6,1.6c-0.7,0.2-1.5,0.3-2-0.2c-0.5-0.5,0-1.1,0.2-1.6
	c4.5-10.2,9.1-20.3,13.6-30.5c0.5-1.1,1.2-1.8,2.5-1.8c1.3,0,2,0.7,2.5,1.8c4.5,10.2,9.1,20.3,13.6,30.5
	C417.9,200.1,417.5,200.7,416.4,200.6L416.4,200.6z M401.1,170c-2.7,6.1-5.2,11.8-7.8,17.6c-0.4,0.8-0.3,1.4,0.8,1.4
	c4.6,0,9.2,0,13.8,0c1.1,0,1.3-0.5,0.9-1.5C406.3,181.8,403.8,176.2,401.1,170L401.1,170z"/>
<path d="M616,233.8c0.6,0.3,1.2,0.6,1.7,0.8c2.5,1.2,3.7,3.3,3.9,6c0.1,2.7-1.1,4.7-3.3,6.1c-2.2,1.4-4.6,1.9-7.1,1.9
	c-4,0.1-8.1,0-12.1,0.1c-1.5,0-2-0.6-2-2c0-8.2,0-16.4,0-24.6c0-1.6,0.6-2.2,2.2-2.1c4.7,0.2,9.3-0.4,14,0.5
	c4.4,0.8,6.5,2.8,6.9,6.5C620.3,229.5,619.4,231.1,616,233.8L616,233.8z M606.3,246.1c1.5,0,2.9,0,4.4,0c1.7,0,3.3-0.3,4.8-1
	c1.8-0.8,3.1-2.1,3.2-4.2c0.1-2.1-1.1-3.5-2.9-4.4c-1-0.5-2-0.8-3.1-1c-3.9-0.7-7.8-0.2-11.7-0.4c-1,0-1.3,0.5-1.3,1.4
	c0,2.6,0,5.2,0,7.9c0,1.3,0.5,1.7,1.7,1.6C603.1,246.1,604.7,246.2,606.3,246.1L606.3,246.1z M605.8,222.5c-1.5,0-3.1,0-4.6,0
	c-1,0-1.4,0.4-1.4,1.4c0,2.5,0,5,0,7.5c0,0.7,0.2,1.3,1,1.3c4.1-0.1,8.3,0.6,12.4-0.7c2.6-0.8,4-2.5,4-4.6c-0.1-2.3-1.5-3.7-4.3-4.4
	C610.5,222.5,608.2,222.5,605.8,222.5L605.8,222.5z"/>
<path d="M573.5,200.9c-8.6,0.1-14.8-5.4-16.7-12.4c-2.1-8.1,0.9-16.3,7.6-20.2c6.2-3.7,15.1-3,20.6,1.6c0.6,0.5,1.6,0.9,0.8,2
	c-0.6,0.8-1.5,0.9-2.4,0.5c-0.5-0.2-0.9-0.5-1.3-0.8c-6.5-4.3-14.6-3.4-19.4,2c-4.6,5.3-4.5,14.3,0.3,19.8
	c4.2,4.8,12.8,5.8,18.5,2.1c0.7-0.4,1.3-0.9,1.9-1.2c1-0.5,1.8-0.2,2.3,0.6c0.6,0.9-0.1,1.4-0.7,1.9
	C582.3,199.3,577.8,200.9,573.5,200.9L573.5,200.9z"/>
<path d="M653.5,234.2c0-4,0-7.9,0-11.9c0-1.6,0.4-2.4,2.2-2.3c4.4,0.2,8.8-0.4,13.2,0.4c1.5,0.3,3,0.8,4.3,1.7
	c4.4,2.9,4.4,8.7-0.1,11.4c-0.9,0.6-2,1-3,1.3c-2.2,0.7-2.3,0.6-0.8,2.6c2.2,3.1,4.4,6.1,6.6,9.2c0.4,0.5,1.3,1.2,0.7,1.8
	c-0.7,0.7-1.8,0.5-2.7-0.1c-0.5-0.3-0.8-0.8-1.1-1.3c-2.4-3.3-4.8-6.6-7.1-10c-0.7-1-1.5-1.5-2.7-1.4c-1.4,0.1-2.8,0.1-4.2,0
	c-1.7-0.1-2.4,0.4-2.3,2.3c0.1,3,0,6,0,9c0,1-0.1,1.8-1.4,1.8c-1.3,0-1.4-0.8-1.4-1.8C653.5,242.6,653.5,238.4,653.5,234.2
	L653.5,234.2z M662.5,222.5c-0.3,0-0.4,0-0.4,0c-3.8,0-5.7,1.9-5.7,5.7c0,4.9,0,4.9,5,4.8c3.1,0,6.3,0,9.2-1.2
	c1.7-0.7,2.9-1.9,3-3.9c0.1-2.1-0.9-3.4-2.7-4.3c-0.7-0.4-1.5-0.6-2.3-0.8C666.4,222.3,664.3,222.6,662.5,222.5L662.5,222.5z"/>
<path d="M532,234.2c0-4,0-8.1,0-12.1c0-1.6,0.6-2.1,2.2-2.1c5.5,0.1,11,0,16.5,0c0.9,0,2.1-0.2,2,1.3c0,1.5-1.2,1.2-2.2,1.2
	c-4.5,0-9.1,0.1-13.6,0c-1.5,0-2.2,0.4-2.1,2.1c0.1,1.9,0.1,3.8,0,5.8c-0.1,1.5,0.4,2.1,2,2c3.2-0.1,6.4,0,9.6,0
	c0.8,0,1.9-0.2,1.9,1.2c0,1.4-1.1,1.2-2,1.2c-3.2,0-6.4,0.1-9.6,0c-1.4,0-1.9,0.5-1.9,1.9c0.1,2.6,0.1,5.1,0,7.7
	c0,1.5,0.6,1.9,1.9,1.8c4.7-0.1,9.5,0,14.2,0c0.7,0,1.7-0.2,1.9,0.8c0.2,1-0.2,1.6-1.3,1.6c-6,0-12,0-18.1,0c-1.4,0-1.5-1-1.5-2
	C532,242.5,532,238.3,532,234.2L532,234.2z"/>
<path d="M627,234.3c0-4,0-8.1,0-12.1c0-1.7,0.6-2.2,2.2-2.2c5.4,0.1,10.9,0,16.3,0c0.9,0,2.1-0.3,2.1,1.2c0,1.6-1.3,1.3-2.2,1.3
	c-4.5,0-9.1,0-13.6,0c-1.5,0-2.1,0.4-2,2c0.1,1.9,0.1,3.8,0,5.8c-0.1,1.5,0.4,2.2,2,2.1c3.2-0.1,6.4,0,9.6,0c0.8,0,1.8-0.2,1.8,1.1
	c0,1.4-1,1.3-1.9,1.3c-3.2,0-6.4,0.1-9.6,0c-1.5,0-2,0.5-2,2c0.1,2.5,0.1,5,0,7.5c-0.1,1.6,0.6,2,2,1.9c4.7-0.1,9.3,0,14,0
	c0.8,0,1.9-0.3,2,1.1c0.1,1.5-1.1,1.3-2,1.3c-5.6,0-11.2,0-16.7,0c-1.6,0-2.2-0.5-2.2-2.1C627,242.5,627,238.4,627,234.3L627,234.3z
	"/>
<path d="M671,184.9c0,4.3,0,8.6,0,12.9c0,1.2,0.3,2.7-1.5,2.7c-1.9,0-1.7-1.5-1.7-2.8c0-8.4,0-16.8,0-25.2c0-2.1-1.1-3.1-3.2-3.1
	c-2.2,0-4.5,0-6.7,0c-1,0-2-0.1-2-1.5c0-1.3,1-1.5,2-1.5c7.8,0,15.6,0,23.4,0c1,0,2,0.2,2,1.5c0,1.4-1,1.5-2,1.5c-2.5,0-5,0-7.5,0
	c-2.7,0-2.8,0-2.8,2.8C671,176.5,671,180.7,671,184.9L671,184.9L671,184.9z"/>
<path d="M700.2,183.4c0,4.9,0,9.8,0,14.8c0,1.1,0,2.2-1.5,2.3c-1.5,0.1-1.8-0.9-1.8-2.1c0-4.3,0-8.7,0-13c0-5.5,0-11,0-16.5
	c0-1.2-0.1-2.5,1.6-2.5c1.6,0,1.6,1.3,1.6,2.5C700.2,173.7,700.2,178.6,700.2,183.4L700.2,183.4z"/>
<path d="M604.4,183.5c0,4.8,0,9.6,0,14.4c0,1.2,0.1,2.5-1.5,2.5c-1.6,0-1.7-1.2-1.7-2.5c0-9.7,0-19.5,0-29.2c0-0.3,0-0.5,0-0.8
	c0.1-1.1,0.6-1.8,1.8-1.8c1.2,0.1,1.4,0.9,1.4,1.9C604.4,173.3,604.4,178.4,604.4,183.5L604.4,183.5L604.4,183.5z"/>
</svg>
