<?xml version="1.0" encoding="utf-8"?>
<!-- Generator: Adobe Illustrator 27.7.0, SVG Export Plug-In . SVG Version: 6.00 Build 0)  -->
<svg version="1.1" id="Capa_28" xmlns="http://www.w3.org/2000/svg" xmlns:xlink="http://www.w3.org/1999/xlink" x="0px" y="0px"
	 viewBox="0 0 546 166.5" style="enable-background:new 0 0 546 166.5;" xml:space="preserve">
<path d="M93.6,27.9c8-0.2,15.2,1.4,21.8,5.4c3.2,2,6,4.4,8.2,7.4c6,8.2,11.5,16.7,15.6,26.1c2.8,6.2,4.9,12.7,5.5,19.5
	c1,12.1-3,22.1-12.1,30.1c-6.3,5.5-13.7,9.2-21.5,12.1c-7.3,2.7-14.7,5-22.4,6.1c-11.3,1.6-21.5-1.3-30.2-8.8
	c-6.4-5.5-11.1-12.5-15.7-19.5c-4-6.1-7.4-12.5-9.7-19.5c-1.5-4.5-2.5-9.2-2.5-14c0-8.4,2.9-15.9,8.5-22.2
	c5.7-6.4,12.9-10.7,20.6-14.2c7.6-3.4,15.4-6.2,23.7-7.6C86.9,28.2,90.4,27.8,93.6,27.9L93.6,27.9z M132.7,78.3
	c0.1-3.2-0.7-6.9-1.9-10.4c-2.5-7.8-6.8-14.6-11.5-21.2c-1.8-2.4-3.5-4.9-5.8-6.9c-4.5-3.9-9.9-5.2-15.7-5.2c-5.9,0-11.5,1.3-17,3
	c-7.3,2.3-14.3,5.2-20.3,10c-7.7,6.2-11.1,14.1-9.4,24c0.9,5.1,2.8,9.8,5.4,14.3c3.6,6.3,7.5,12.4,12.7,17.5
	c5.2,5.2,11.7,7.7,19.1,7.7c3.2,0,6.4-0.6,9.6-1.4c8.1-2,16-4.7,22.9-9.5C128.2,95,132.8,88.2,132.7,78.3L132.7,78.3z"/>
<path d="M393.7,66.3c0-1.9,0-3.8,0-5.6c0-1,0.3-1.4,1.3-1.3c3.1,0,6.2,0,9.3,0c1,0,1.5,0.4,1.4,1.4c0,0.3,0,0.6,0,0.8
	c0,15.9,0,31.7,0,47.6c0,4.7-0.2,9.5-1,14.2c-2.1,11.2-8.6,18.5-19.3,21.8c-9.7,3-19.3,2.6-28.8-1.1c-6.7-2.6-11.6-7.2-14.9-13.6
	c-1-1.8-1.8-3.8-2.7-5.6c-0.4-0.9-0.2-1.1,0.8-1.1c3.5,0,7,0,10.5,0c0.9,0,1.3,0.5,1.8,1.2c1.9,3.4,4.5,6.1,7.9,8
	c2.7,1.5,5.6,2.2,8.6,2.5c5.2,0.4,10.3,0.3,15.2-2c5.6-2.6,9.1-6.8,9.6-13.1c0.1-1.2,0.2-2.3,0.3-3.5c0-0.3,0.1-0.7-0.2-0.9
	c-0.4-0.2-0.6,0.2-0.8,0.4c-4.8,3.8-10.3,6.2-16.5,7c-16.2,2.1-34.1-8.2-36.8-27.2c-2.7-18.8,10-35.6,28.8-38
	c9.2-1.2,17.4,1.3,24.5,7.4C392.8,65.9,393.1,66.3,393.7,66.3L393.7,66.3z M373.1,112.2c0.8,0,2.3,0,3.8-0.3
	c7.2-1.1,12.4-4.9,15.4-11.5c1.6-3.6,1.9-7.4,1.6-11.3c-0.4-6.1-2.9-11.2-7.9-15c-9.4-7.1-23-5.4-30.4,3.7
	c-5.8,7.2-6.5,18.1-1.4,25.4C358.7,109.6,364.9,112.2,373.1,112.2L373.1,112.2z"/>
<path d="M308.7,94.2c-8.4,0-16.9,0-25.3,0c-1.6,0-1.6,0-1.4,1.6c1.4,9.9,9.8,18.1,20.1,17.8c5.8-0.1,11-1.7,15.4-5.6
	c2.4-2.2,4.2-4.9,5.8-7.7c0.9-1.5,0.9-1.5,2.4-0.7c2.6,1.3,5.2,2.7,7.8,4.1c0.7,0.4,0.8,0.7,0.4,1.4c-3.4,6.8-7.9,12.5-14.8,16.2
	c-4,2.1-8.3,3.3-12.8,3.7c-5.3,0.4-10.5,0-15.5-1.7c-7.7-2.6-13.1-7.8-17-14.7c-7.8-14.1-5.1-31.4,6.8-42.4c5.3-4.9,11.6-7.5,18.8-8
	c6.4-0.5,12.6,0.3,18.3,3.3c10.1,5.3,15.9,13.7,17.5,25c0.3,2,0.4,4.1,0.4,6.2c0,1.5-0.1,1.6-1.6,1.6
	C325.7,94.2,317.2,94.2,308.7,94.2L308.7,94.2z M302.7,83.1c1.2,0,2.4,0,3.6,0c4.9,0,9.8,0,14.6,0c0.9,0,1.3-0.1,0.9-1.1
	c-0.9-2.2-2-4.3-3.7-6.1c-4.4-4.5-9.8-6.6-16.1-6.4c-8.5,0.2-14.5,4.3-18,12c-0.7,1.5-0.6,1.6,1,1.6
	C290.9,83.1,296.8,83.1,302.7,83.1L302.7,83.1z"/>
<path d="M496.6,116.6c-0.8,0.6-1.3,1.1-1.9,1.5c-5.1,4.1-10.9,6.2-17.3,6.8c-18.5,1.7-32.4-12.3-35.1-26.8c-2.8-15,4.1-30,17.8-36.6
	c11.3-5.5,22.5-4.9,33.1,2.3c1.2,0.8,2.2,1.8,3.5,2.9c0-2,0-3.8,0-5.6c0-1.6,0-1.7,1.7-1.7c2.9,0,5.8,0,8.6,0c1.1,0,1.5,0.3,1.5,1.5
	c0,20.4,0,40.8,0,61.3c0,1.1-0.3,1.6-1.5,1.6c-3,0-6,0-9,0c-1,0-1.4-0.3-1.4-1.4C496.7,120.5,496.6,118.7,496.6,116.6L496.6,116.6z
	 M475.5,69.7c-13-0.2-21.5,10.8-21.8,21.3c-0.3,11.2,8.8,22.3,21,22.6c10.9,0.2,22.3-7.6,22.3-21.6C497.2,79.2,488,69.8,475.5,69.7
	L475.5,69.7z"/>
<path d="M190.4,66.6c3-2.9,5.9-5,9.4-6.4c9.4-3.6,18.4-3.2,26.4,3.4c4.6,3.7,6.9,8.8,7.9,14.5c0.7,4.1,0.9,8.2,0.9,12.4
	c0,10.4,0,20.9,0,31.3c0,1.8,0,1.9-1.9,1.9c-2.8,0-5.7,0-8.5,0c-1.5,0-1.6-0.1-1.6-1.7c0-9.4,0-18.9,0-28.3c0-4.3,0.1-8.6-0.5-12.8
	c-0.7-4-2.1-7.7-6-9.8c-4.6-2.5-9.6-2.4-14.2-0.2c-6.8,3.2-10.6,8.7-11.4,16.3c-0.7,7.1-0.4,14.1-0.5,21.2c0,4.6,0,9.1,0,13.7
	c0,1.5-0.1,1.6-1.5,1.6c-3,0-6,0-9,0c-1.2,0-1.5-0.4-1.5-1.5c0-20.4,0-40.9,0-61.3c0-1,0.3-1.5,1.4-1.5c3.1,0.1,6.2,0.1,9.2,0
	c1.1,0,1.5,0.4,1.4,1.5C190.3,62.6,190.4,64.4,190.4,66.6L190.4,66.6z"/>
<path d="M259.5,97c0,8.3,0,16.6,0,24.9c0,1.7,0,1.7-1.7,1.7c-2.9,0-5.8,0-8.6,0c-1.7,0-1.8-0.1-1.8-1.8c0-16.4,0-32.8,0-49.2
	c0-2.5,0.2-2.3-2.3-2.3c-2.2,0-4.5,0-6.7,0c-1.1,0-1.5-0.4-1.5-1.5c0.1-2.7,0.1-5.4,0-8c0-1.2,0.4-1.5,1.5-1.5c2.6,0.1,5.1,0,7.7,0
	c1.1,0,1.4-0.4,1.4-1.4c0-6.4,0-12.9,0-19.3c0-1.6,0-1.6,1.6-1.6c2.9,0,5.8,0,8.8,0c1.7,0,1.7,0,1.7,1.6c0,6.4,0,12.7,0,19.1
	c0,1.6,0,1.6,1.6,1.6c3.1,0,6.2,0,9.2,0c1,0,1.4,0.3,1.4,1.4c0,2.8-0.1,5.5,0,8.3c0,1.2-0.5,1.4-1.5,1.4c-3.1,0-6.2,0-9.4,0
	c-1.1,0-1.4,0.4-1.4,1.5C259.5,80.2,259.5,88.6,259.5,97L259.5,97z"/>
<path d="M425.7,64.2c1.7-1.5,3.2-2.8,4.9-3.8c6-3.5,11.9-3.1,17.7,0.6c0.5,0.3,0.6,0.6,0.3,1.2c-1.8,2.8-3.5,5.6-5.3,8.4
	c-0.4,0.6-0.8,0.5-1.3,0.3c-1.2-0.5-2.4-1.1-3.8-1.1c-3.2-0.1-5.6,1.5-7.5,3.9c-2.7,3.3-3.9,7.3-4.3,11.5c-1,9.8-0.6,19.7-0.7,29.6
	c0,2.6,0,5.2,0,7.8c0,0.9-0.3,1.2-1.2,1.2c-3.3,0-6.6,0-9.8,0c-0.8,0-1.2-0.4-1.1-1.2c0-0.2,0-0.5,0-0.7c0-20.2,0-40.4,0-60.5
	c0-1.2,0.6-1.9,1.8-1.9c3,0,5.9,0,8.9,0c1,0,1.5,0.3,1.4,1.4C425.7,61.8,425.7,62.9,425.7,64.2L425.7,64.2z"/>
<path d="M169,91.5c0,10.2,0,20.3,0,30.4c0,1.6,0,1.7-1.7,1.7c-2.7,0-5.4,0-8.1,0c-1.5,0-2.2-0.7-2.2-2.2c0-16.4,0-32.8,0-49.3
	c0-3.7,0-7.4,0-11.1c0-1.7,0.1-1.7,1.8-1.7c2.9,0,5.8,0,8.6,0c1.6,0,1.6,0,1.6,1.6C169,71.2,169,81.3,169,91.5L169,91.5z"/>
<path d="M154.5,43.3c0-4.7,3.8-8.6,8.5-8.6c4.6,0,8.5,3.9,8.5,8.5c0,4.6-3.9,8.5-8.5,8.5C158.4,51.7,154.6,47.9,154.5,43.3
	L154.5,43.3z"/>
<path d="M90.7,64.9c5.8,0,9.9,1.9,12.8,6c2.7,3.8,5.2,7.8,6.6,12.3c2.4,7.9,0.1,13.9-7,18.1c-4.4,2.6-9.2,4.2-14.3,4.9
	c-4.5,0.6-8.6-0.8-11.8-4c-4.2-4.2-7.4-9-9.3-14.6C65.3,80.7,67.2,75,73.2,71C78.7,67.3,84.9,65.3,90.7,64.9L90.7,64.9z"/>
</svg>
