<?xml version="1.0" encoding="UTF-8"?>
<svg id="Capa_3" data-name="Capa 3" xmlns="http://www.w3.org/2000/svg" viewBox="0 0 554.58 235.65">
  <path d="m180.47,141.64c-53.29,0-106.58,0-159.87.02-1.32,0-2.04-.42-2.68-1.66-1.68-3.24-3.61-6.35-5.44-9.52-.2-.35-.62-.68-.37-1.11.24-.43.75-.25,1.15-.26,3.92-.01,7.83,0,11.75,0,97.87,0,195.74,0,293.61-.01.6,0,1.42.32,1.75-.24.34-.58-.38-1.1-.68-1.62-5.26-9.1-10.56-18.18-15.77-27.31-.79-1.39-1.67-1.86-3.26-1.83-5.66.12-11.32.08-16.98.08-16.11,0-32.23-.02-48.34.01-2.41,0-4.82.1-7.24-.05-1.13-.07-1.24-.22-.65-1.24,2.35-4.02,4.72-8.02,7.05-12.05,9-15.53,17.99-31.07,26.96-46.61,3.18-5.5,6.55-10.9,9.46-16.56.88-1.72,1.26-1.69,2.25.02,4.41,7.67,8.79,15.36,13.22,23.02,4.89,8.45,9.82,16.87,14.73,25.31.54.93,1.1,1.86,1.62,2.8.37.68.1,1.02-.65,1.02-3.5,0-7.01.16-10.49-.24-2.24-.26-3.91-1.49-5.05-3.47-4.55-7.88-9.12-15.75-13.68-23.62-.84-1.44-.93-1.46-1.78,0-7.33,12.66-14.65,25.32-21.97,37.98-.59,1.01-.44,1.25.82,1.25,6.08,0,12.17,0,18.25,0,13.37,0,26.75,0,40.12-.04,1.38,0,2.14.41,2.84,1.64,7.24,12.61,14.56,25.17,21.85,37.75,2.83,4.89,5.65,9.79,8.46,14.68.99,1.72.92,1.84-1.15,1.84-31.54,0-63.08,0-94.62,0-21.75,0-43.5,0-65.25,0h0Z"/>
  <path d="m445.07,141.64c-31.74,0-63.48,0-95.23.02-1.47,0-2.27-.43-2.98-1.8-1.66-3.21-3.59-6.27-5.41-9.39-.7-1.2-.61-1.36.82-1.36,1.79,0,3.58,0,5.37,0,66.94,0,133.88,0,200.83.01.67,0,1.59-.37,1.96.31.32.59-.43,1.18-.75,1.74-1.78,3.1-3.6,6.17-5.36,9.28-.42.75-.94,1-1.78,1.06-2.25.15-4.5.13-6.74.13-30.24,0-60.49,0-90.73,0h0Z"/>
  <path d="m531.98,121.96c-5.5,0-11,0-16.5,0-.12,0-.25,0-.37,0-2.24-.03-2.28-.12-1.15-2.07.52-.9,1.02-1.82,1.42-2.77,1.15-2.75,3.28-3.75,6.15-3.73,5.87.05,11.75.02,17.62.02,3.12,0,3.11-.01,2.99-3.07-.05-1.16-.07-2.33.12-3.48.18-1.11-.23-1.55-1.42-1.54-7.96.04-15.92.02-23.87.02-1.86,0-1.87,0-1.86-1.88,0-7.47.01-14.95.02-22.42,0-2,.15-2.17,2.09-2.17,9.37,0,18.75-.01,28.12,0,1.46,0,2.91.11,4.37.16.83.03.95.4.52,1.02-1.27,1.8-2.51,3.62-3.86,5.36-1.22,1.57-3.02,1.98-4.92,1.99-5.37.01-10.75,0-16.12,0q-1.62,0-1.63,1.67c0,1.7.04,3.41-.01,5.11-.03.98.35,1.31,1.32,1.3,8.25-.08,16.5.15,24.74-.12.64-.02.95.17.94.82,0,.25,0,.5,0,.75,0,7.77,0,15.53,0,23.3,0,1.74-.03,1.76-1.72,1.76-5.67,0-11.33,0-17,0h0Z"/>
  <path d="m358.19,78.85c4.54,0,9.08-.02,13.62,0,1.83.01,3.66.14,5.49.17.95.02,1.12.4.85,1.26-1.53,4.72-4.78,7.1-9.81,7.1-5.71,0-11.42,0-17.12,0-2.04,0-1.99,0-1.9,1.99.08,1.66.06,3.32.07,4.98,0,1.84,0,1.84,1.9,1.84,8.54,0,17.08,0,25.62,0,1.73,0,1.81.13,1.22,1.76-1.56,4.33-5.02,6.74-9.89,6.77-5.71.04-11.42.01-17.12.02-1.71,0-1.74.02-1.74,1.75,0,1.87.03,3.74.01,5.61,0,.88.32,1.25,1.26,1.24,8.96-.02,17.91.01,26.87-.02,1.04,0,.97.46.78,1.16-1.23,4.69-4.37,7.28-9.67,7.37-8.87.16-17.75.05-26.62.07-.99,0-1.39-.4-1.39-1.43.02-13.2,0-26.4,0-39.6,0-1.86.15-2.05,2.07-2.05,5.17-.02,10.33,0,15.5,0Z"/>
  <path d="m94.13,100.37c0-6.48,0-12.95,0-19.43,0-1.89.16-2.08,2.06-2.08,10.41,0,20.83,0,31.24,0,1.08,0,2.16.15,3.24.14.97-.01,1.16.41.93,1.23-.9,3.35-2.97,5.6-6.31,6.64-1.24.38-2.51.53-3.82.53-5.79-.02-11.58.02-17.37-.03-1.09,0-1.47.31-1.43,1.41.08,2.03.07,4.07,0,6.1-.03,1.05.35,1.34,1.37,1.34,8.5-.03,17-.02,25.49-.02.37,0,.75.02,1.12,0,.84-.03,1.11.33.93,1.15-.82,3.9-4.24,6.99-8.24,7.21-6.49.36-12.99.23-19.48.06-.89-.02-1.2.24-1.19,1.11.03,2.03.06,4.07-.01,6.1-.05,1.19.34,1.58,1.56,1.58,8.75-.04,17.5-.01,26.24,0,1.54,0,1.57.03,1.07,1.53-1.02,3.03-2.84,5.32-5.93,6.48-1.44.54-2.97.46-4.45.47-8.46.06-16.91.04-25.37.04-1.51,0-1.68-.18-1.68-1.77,0-6.6,0-13.2,0-19.8h0Z"/>
  <path d="m456.23,106.17c.15-2.72-.05-5.16-.07-7.6-.07-5.9-.03-11.79-.03-17.69,0-1.81.18-2.01,2-2,1.83.01,3.66.13,5.49.15,1.04.01,1.08.65,1.08,1.42,0,5.11,0,10.22,0,15.32,0,8.18,0,16.36,0,24.54,0,1.61-.05,1.66-1.7,1.65-1.87,0-3.75-.01-5.62,0-.82,0-1.39-.3-1.89-.97-4.76-6.36-9.54-12.69-14.32-19.03-1.55-2.06-3.1-4.12-4.66-6.17-.22-.29-.4-.81-.78-.71-.51.14-.27.71-.27,1.09,0,8.22.02,16.44.06,24.67,0,.7-.22,1.01-.9,1.02-1.96.03-3.91.08-5.87.08-1.69,0-1.92-.2-1.86-1.86.26-7.51.15-15.03.15-22.54,0-5.6.1-11.21-.15-16.81-.07-1.7.14-1.85,1.83-1.86,1.62-.01,3.25.05,4.87-.03,1.29-.06,2.14.4,2.93,1.45,6.31,8.41,12.67,16.78,19.02,25.16.14.19.33.35.68.73Z"/>
  <path d="m21.2,121.94c-2.71,0-5.42-.01-8.12,0-1.04,0-1.46-.39-1.46-1.49.02-13.2,0-26.4,0-39.6,0-1.76.15-1.98,1.88-1.99,5.66-.04,11.35-.33,16.98.26,6.86.73,12.25,4.23,15.84,10.11,5.69,9.32,3.58,21.17-4.97,27.91-3.91,3.08-8.43,4.82-13.52,4.8-2.21-.01-4.42,0-6.62,0h0Zm-1.15-21.55s.05,0,.07,0c0,4.23,0,8.47,0,12.7,0,.69,0,1.33.98,1.39,2.62.16,5.23.34,7.85-.05,6.39-.95,11.94-6.69,12.15-12.58.27-7.84-4.07-13.79-11.28-15.25-2.78-.56-5.63-.36-8.46-.33-1.01,0-1.36.36-1.34,1.41.06,4.23.03,8.47.03,12.7Z"/>
  <path d="m176.55,97.02c0-5.48.03-10.96-.02-16.44-.01-1.2.39-1.61,1.58-1.58,1.54.04,3.08-.12,4.62-.13,2.34-.02,2.4.05,2.41,2.34,0,6.72.02,13.45-.01,20.17-.02,3.65.15,7.3-.1,10.95-.05.73.26,1.08,1.01,1.08,6.16-.01,12.33-.01,18.49-.02,1.16,0,1.32-.71,1.29-1.67-.33-10.21-.08-20.41-.18-30.62-.02-2.11.11-2.24,2.25-2.25,1.71-.01,3.41.01,5.12.02.96,0,1.41.42,1.4,1.45-.03,10.58,0,21.17-.05,31.75,0,1.56-.09,3.15-.71,4.65-1.22,2.96-4.06,4.93-7.23,5.07-6.95.31-13.91.1-20.86.14-5.46.04-8.98-3.54-9-8.99-.02-5.31,0-10.63,0-15.94Z"/>
  <path d="m425.3,157.46c0,3.94,0,7.62,0,11.3,0,.79.06,1.58.07,2.36.01.74-.39,1.01-1.11,1-.75-.01-1.08-.37-1.04-1.08.32-6.02-.26-12.03,0-18.05.01-.25-.05-.54.22-.66.38-.18.65.11.85.35.87,1,1.71,2.03,2.57,3.05,2.88,3.39,5.75,6.78,8.64,10.17.27.32.51.91,1.05.67.43-.2.25-.75.25-1.14,0-3.65,0-7.31,0-10.96,0-.33,0-.67.04-.99.06-.47.38-.75.84-.77.52-.02.88.25.96.78.05.28.05.58.05.87,0,5.61,0,11.21,0,16.82,0,.42.23,1.05-.34,1.19-.49.12-.72-.45-1.01-.8-3.72-4.53-7.44-9.05-11.33-13.44-.16-.18-.36-.33-.72-.66Z"/>
  <path d="m19.64,162.43c0-3.1-.02-5.67.01-8.25,0-.7.02-1.46,1.09-1.45.8.01,1.24.28,1.23,1.16-.03,1.58,0,3.15,0,4.73,0,1.1.2,1.87,1.66,1.8,2.12-.1,4.24,0,6.36.05,1.18.02,1.75-.42,1.67-1.7-.09-1.45-.06-2.9-.01-4.35.02-.74-.15-1.66,1.09-1.7,1.27-.04,1.23.79,1.23,1.66,0,4.15-.02,8.3,0,12.44,0,1.33.1,2.65.16,3.98.03.75-.12,1.29-1.06,1.31-.88.02-1.23-.26-1.31-1.19-.18-2.28-.12-4.56-.11-6.84,0-1.1-.3-1.59-1.48-1.55-2.33.07-4.66.04-6.99.01-.91-.01-1.24.34-1.23,1.26.02,2.28,0,4.56.17,6.84.05.72.07,1.42-1.01,1.48-1.09.07-1.29-.45-1.36-1.4-.23-2.94-.04-5.89-.12-8.3Z"/>
  <path d="m155.04,162.15c-.05-2.63.13-5.49-.1-8.35-.05-.63.12-1,.86-1.08,1.84-.19,3.67-.19,5.46.23,2.28.54,3.62,2.13,3.69,4.27.11,3.39-.7,4.81-3.33,5.61-.94.29-.89.6-.38,1.27,1.6,2.07,3.17,4.16,4.72,6.27.33.45,1.19,1.03.57,1.53-.6.48-1.59.41-2.31-.19-.22-.18-.39-.43-.56-.67-1.58-2.14-3.15-4.28-4.72-6.42-.17-.23-.34-.47-.53-.7-.21-.26-.45-.56-.82-.44-.42.14-.28.53-.27.85.03,2.16.04,4.31.08,6.47.02.84-.21,1.32-1.19,1.32-.95,0-1.22-.39-1.19-1.29.06-1.41.02-2.82.02-4.23,0-1.41,0-2.82,0-4.46Zm2.3-3.01q0,2.15,1.93,1.94c.45-.05.91-.07,1.36-.16,1.2-.23,1.92-.99,2.08-2.17.17-1.2-.05-2.33-1.07-3.14-1.14-.91-2.47-.87-3.8-.66-.46.07-.42.55-.48.91-.18,1.15-.18,2.31-.03,3.28Z"/>
  <path d="m326.55,162.42c0-2.74.05-5.48-.02-8.21-.03-1.08.38-1.52,1.41-1.55,1.7-.06,3.41-.22,5.08.28,2.23.67,3.63,2.48,3.69,4.77.06,2.71-.99,4.38-3.44,5.1-1.1.32-.99.69-.43,1.42,1.73,2.23,3.42,4.49,5.13,6.74.22.29.61.58.36.97-.19.29-.62.15-.94.18-.88.09-1.47-.29-1.99-1-1.82-2.47-3.7-4.9-5.55-7.35-.2-.26-.38-.61-.78-.48-.4.13-.33.53-.33.85,0,2.24-.02,4.48,0,6.72,0,.76-.12,1.26-1.07,1.26-.94,0-1.1-.47-1.09-1.25.02-2.82,0-5.64,0-8.46Zm2.15-4.47h0c0,.74,0,1.49,0,2.23,0,.43.07.8.56.99,2.19.83,4.85-.91,4.84-3.18,0-2.39-.97-3.16-3.96-3.15q-1.45,0-1.45,2.74v.37Z"/>
  <path d="m271.52,77.18c-3.36,0-5.96-2.63-5.97-6.02,0-3.2,2.85-6.06,6.06-6.06,3.25,0,6.09,2.85,6.06,6.06-.03,3.43-2.67,6.02-6.14,6.02Zm.02-7.93c-.94.02-1.87.99-1.86,1.95.01,1.1.88,1.9,2.02,1.88,1.03-.03,1.86-.91,1.82-1.95-.03-.92-1.06-1.89-1.98-1.88Z"/>
  <path d="m463.06,162.27c-.06-3.77,1.48-6.72,4.77-8.55,3.55-1.98,7.21-2.07,10.82-.02.14.08.28.17.42.27.84.6.86,1.55.46,2.23-.51.87-1.2.09-1.66-.27-3.78-2.94-8.39-1.54-10.73,1.28-3.11,3.74-2.25,11.16,3.69,12.98,2.05.63,4.12.35,6.09-.52.3-.13.57-.37.88-.47.52-.16,1.16-1.04,1.56-.22.33.67.32,1.73-.61,2.19-3.57,1.75-7.19,2.04-10.77.07-3.28-1.8-4.86-4.65-4.92-8.36,0-.21,0-.41,0-.62Z"/>
  <path d="m189.61,162.42c0-2.7.03-5.4-.02-8.1-.02-1.09.38-1.65,1.49-1.64,2.58.02,5.16.03,7.74.05.71,0,.89.47.87,1.09-.02.64-.35.87-.95.87-1.83,0-3.66-.03-5.49.1-.91.07-1.22.48-1.28,1.31-.33,3.99-.24,4.1,3.69,4.14,1,0,2,.03,3,.01.75-.01,1.03.36,1.04,1.07,0,.73-.31,1.05-1.04,1.07-1.83.03-3.66.12-5.49.14-.8.01-1.19.2-1.14,1.15.08,1.7-.01,3.4-.07,5.1-.03.86.33,1.19,1.19,1.17,1.79-.03,3.58,0,5.37-.01.71,0,1.2.11,1.21,1,0,.88-.35,1.17-1.19,1.16-2.54-.03-5.08-.05-7.62,0-1.05.02-1.26-.47-1.25-1.37.03-2.78,0-5.56,0-8.34-.01,0-.03,0-.04,0Z"/>
  <path d="m388.61,162.4c0-2.7.04-5.4-.02-8.1-.02-1.11.42-1.63,1.51-1.63,2.58.01,5.16.03,7.74.06.63,0,.85.39.85.99,0,.68-.28.98-.97.97-1.83,0-3.66-.04-5.49.11-.83.07-1.17.4-1.26,1.2-.44,3.97-.24,4.21,3.71,4.24.96,0,1.92.03,2.87,0,.78-.02,1.14.29,1.15,1.1,0,.85-.46,1.04-1.19,1.05-1.79.03-3.58.12-5.37.14-.82.01-1.17.24-1.12,1.17.08,1.57.02,3.16-.09,4.73-.09,1.24.41,1.6,1.59,1.54,1.66-.08,3.33,0,5-.02.73,0,1.18.14,1.19,1.02,0,.9-.39,1.15-1.21,1.14-2.5-.02-5-.05-7.5.01-1.05.02-1.38-.39-1.37-1.39.04-2.78.01-5.56.01-8.34-.01,0-.03,0-.04,0Z"/>
  <path d="m292.05,162.44c-.05-2.9.13-5.81-.11-8.71-.06-.68.25-.94.93-1.01,2.75-.27,5.49.03,8.24.07.72.01.9.53.92,1.1.02.75-.49.82-1.1.82-1.79,0-3.57.07-5.36.09-.82,0-1.22.36-1.2,1.2.02.62-.07,1.24-.05,1.86.05,2.2.06,2.22,2.21,2.32,1.5.07,3,.08,4.5.05.78-.01,1.04.33,1,1.05-.04.68-.13,1.17-1.05,1.15-1.87-.03-3.74.08-5.62.11-.76.01-1.12.21-1.04,1.1.14,1.57.06,3.15-.07,4.72-.12,1.45.03,1.58,1.46,1.59,1.62,0,3.25,0,4.87.01.71,0,1.43.11,1.45.99.03.91-.61,1.16-1.43,1.15-2.5-.01-5-.03-7.5,0-.81.01-1.08-.28-1.07-1.09.04-2.86.02-5.73.02-8.59Z"/>
  <path d="m536.6,165.65q-3.59,0-4.87,3.32c-.33.85-.61,1.72-.99,2.55-.39.84-1.22.74-1.84.46-.61-.27-.24-.87-.04-1.31,2.46-5.63,4.86-11.27,7.12-16.98.22-.56.22-1.51,1.08-1.46.76.04.72.92.94,1.46,2.23,5.54,4.46,11.08,6.65,16.63.21.52.96,1.2.03,1.71-.87.47-1.94,0-2.31-.96-.52-1.35-1.04-2.71-1.49-4.09-.31-.97-.85-1.45-1.91-1.35-.78.07-1.58.01-2.37.01Zm.45-8.78c-.13,0-.25,0-.38,0-.82,2.02-1.64,4.03-2.45,6.06-.2.49-.08.82.52.83,1.33,0,2.65,0,3.98-.02.57,0,.88-.26.65-.87-.77-2-1.54-3.99-2.32-5.99Z"/>
  <path d="m234.38,172.1c-.94.17-1.42-.41-1.82-1.15-1.01-1.86-2.03-3.71-3.06-5.56-.68-1.22-1.02-1.23-1.74,0-1.07,1.82-2.11,3.67-3.18,5.49-.21.35-.43.74-.75.98-.53.4-1.25.46-1.75.07-.52-.4-.02-.9.21-1.31,1.52-2.62,3.04-5.24,4.61-7.83.4-.67.36-1.17-.04-1.82-1.34-2.2-2.63-4.42-3.91-6.66-.24-.42-.85-.97-.22-1.39.55-.37,1.31-.3,1.84.24.31.32.58.71.81,1.1.9,1.54,1.78,3.09,2.64,4.65.5.91.91.78,1.36-.05.83-1.53,1.67-3.06,2.53-4.57.24-.43.51-.87.85-1.22.49-.49,1.18-.57,1.73-.2.63.43.15,1-.1,1.42-1.23,2.12-2.47,4.23-3.78,6.29-.56.88-.58,1.59-.03,2.51,1.56,2.59,3.03,5.24,4.54,7.87.48.84.29,1.25-.74,1.13Z"/>
  <path d="m120.55,162.37c0-2.74.04-5.48-.02-8.21-.03-1.1.43-1.54,1.44-1.52,2.54.04,5.07.1,7.61.15.67.01.97.42.99,1.04.01.66-.46.83-1.01.84-1.91.05-3.83.12-5.74.1-.92-.01-1.15.39-1.12,1.2.04.95.07,1.91,0,2.86-.1,1.2.44,1.5,1.54,1.45,1.66-.07,3.33-.02,4.99-.02.64,0,1.31-.02,1.29.92-.01.88-.43,1.24-1.33,1.24-1.75,0-3.49.13-5.24.13-.89,0-1.29.28-1.26,1.22.05,1.66.05,3.32,0,4.98-.03.91.27,1.27,1.21,1.24,1.7-.05,3.41-.02,5.12,0,.74.01,1.51.11,1.47,1.1-.04.96-.79,1.03-1.54,1.03-2.41,0-4.83-.02-7.24,0-.86.01-1.18-.31-1.17-1.17.03-2.86.01-5.72,0-8.59Z"/>
  <path d="m257.95,162.3c0-2.82,0-5.64,0-8.46,0-.53-.02-1.04.69-1.09,2.11-.13,4.23-.42,6.32.19,2.4.71,3.58,2.66,3.49,5.77-.06,2.33-1.5,4.12-3.81,4.61-.93.2-1.89.26-2.84.33-.92.06-1.38.4-1.48,1.42-.18,1.88.13,3.73.09,5.59-.02.92-.15,1.5-1.29,1.47-1.16-.02-1.09-.7-1.08-1.5.02-2.78,0-5.56,0-8.34-.03,0-.06,0-.09,0Zm4.28-7.46c-1.76-.02-1.81.03-1.87,1.76-.02.62-.1,1.24-.11,1.86-.11,4.02-.12,3.31,3.42,2.94,1.29-.14,2.12-.82,2.49-2.08.68-2.35-1.14-4.43-3.92-4.47Z"/>
  <path d="m86.29,162.45c0-2.78.04-5.55-.02-8.33-.02-1.09.44-1.52,1.46-1.49,1.66.06,3.35-.05,4.98.22,2.93.5,4.37,2.97,4.08,6.05-.29,3.04-2.02,4.41-5.41,4.72q-2.92.26-2.92,3.27c0,1.37-.04,2.74,0,4.1.02.89-.4,1.15-1.22,1.13-.84-.03-1.03-.48-1.03-1.21.02-2.82,0-5.64,0-8.45.02,0,.05,0,.07,0Zm2.17-4c0,.37,0,.74,0,1.12,0,2.2.02,2.22,2.23,1.97.62-.07,1.23-.17,1.84-.26.98-.15,1.51-.74,1.75-1.68.79-3.06-1.29-5.19-4.83-4.88-.54.05-.76.4-.86.9-.19.94-.12,1.89-.14,2.84Z"/>
  <path d="m58.95,162.4c0-2.86.03-5.72-.02-8.57-.01-.86.42-1.05,1.13-1.12.69-.08,1.15.11,1.26.84.04.29.04.58.05.87.01,5.43.02,10.85.03,16.28,0,.74.01,1.42-1.06,1.43-.93.01-1.35-.24-1.32-1.27.06-2.82.02-5.64.02-8.45-.03,0-.06,0-.09,0Z"/>
  <path d="m503.63,162.41c0-3.05-.02-5.62.01-8.19,0-.69-.02-1.47,1.05-1.49.88-.01,1.28.32,1.27,1.25-.03,3.07-.01,6.13,0,9.2,0,2.53-.05,5.05.16,7.58.07.8-.11,1.36-1.12,1.37-.94.01-1.17-.39-1.24-1.26-.25-2.98-.03-5.97-.13-8.46Z"/>
  <path d="m361.55,162.5c0-2.77.01-5.55,0-8.32,0-.79.11-1.46,1.07-1.48.98-.02,1.09.7,1.09,1.46,0,5.59,0,11.18.01,16.77,0,.82-.24,1.21-1.14,1.2-.87-.01-1.03-.45-1.03-1.18.02-2.82,0-5.63,0-8.45Z"/>
</svg>