<?xml version="1.0" encoding="utf-8"?>
<!-- Generator: Adobe Illustrator 27.7.0, SVG Export Plug-In . SVG Version: 6.00 Build 0)  -->
<svg version="1.1" id="Capa_26" xmlns="http://www.w3.org/2000/svg" xmlns:xlink="http://www.w3.org/1999/xlink" x="0px" y="0px"
	 viewBox="0 0 819 802.5" style="enable-background:new 0 0 819 802.5;" xml:space="preserve">
<path d="M575.2,418.1c2.9,7.1,4.6,14,9.2,19.7c0.3,0.3,0.7,0.7,0.4,1.2c-0.3,0.7-1,0.8-1.7,0.9c-2.1,0.2-3.8-1.1-5.9-2
	c1.8,9.3,3.1,18.4,7.6,27c-5.7-1.1-11.2-0.8-16.6,0.2c-1.8,0.3-3.6,0.8-5.2,1.7c-1.2,0.7-1.5,1.5-0.2,2.6c1.6,1.3,3,2.8,4.5,4.3
	c0.3,0.3,0.9,0.7,0.5,1.3c-0.3,0.4-0.8,0.3-1.2,0.3c-4.3,0.2-4.2,0.2-2.3,3.9c1,1.8,1.8,3.7,2.8,5.6c0.9,1.7,0.4,2.2-1.4,2.1
	c-9.8-0.5-19.3,0.7-28.7,3.2c-10.2,2.7-19.9,6.7-29.1,11.9c-1.3,0.8-1.4,1.2-0.2,2.1c2.7,2,5,4.4,6.7,7.3c0.8,1.3,0.8,2.3-1.2,2.2
	c-10.1-0.9-18.2,3.8-25.8,9.6c-12,9.1-21.8,20.4-31.3,31.9c-4.9,5.9-11.2,10-17.6,14c-5.5,3.4-11.5,5.8-17.8,7.3
	c-2.1,0.5-4.3,0.4-6.4-0.1c-1-0.2-2-0.5-3-0.2c-9.2,2.5-17.7,0.2-26-3.6c-9.9-4.5-18.1-11.4-26.2-18.4c-5-4.4-9.9-8.8-14.1-14
	c-6-7.2-13.7-12.5-21.6-17.6c-4.7-3-9.8-5.5-13.8-9.5c-1-1-2.5-1.5-4-1.6c-2.6-0.2-5.2-0.1-7.8,0.2c-0.7,0.1-1.5,0.2-2.2,0.2
	c-2.4-0.2-3-1.5-1.7-3.4c1.3-2,3.2-3.3,5-4.7c1.6-1.2,3.2-2.3,5-3.7c-4.6-1.9-9.2-3.1-13.7-4.6c-13.2-4.4-26.9-5.9-40.7-7.5
	c-2.2-0.2-4.4-0.6-6.5-1.3c-2.8-0.9-3.3-2-2-4.6c1.7-3.5,4.3-6.4,6.9-9.2c0.6-0.7,1.4-1.3,2-2.1c0.5-0.6,1.6-1,1.4-1.8
	c-0.3-1-1.5-1-2.5-1.2c-3.7-0.6-7.2,0.3-10.8,1c-4,0.8-7.9,1.8-12.4,2.9c1.9-3,3-5.7,3.9-8.6c2.4-7.5,4.2-15.1,6-22.7
	c0.5-2,0.2-2.2-1.9-1.6c-2.2,0.6-4.4,1.2-6.6,1.7c-0.5,0.1-1.1,0.2-1.4-0.3c-0.3-0.6,0.2-1,0.6-1.3c3.1-2.4,4.9-5.7,6.8-9
	c3-5.3,5.6-10.9,8-16.6c0.9-2.1,1.1-4.1-0.5-6.3c-0.9,1.9-1.7,3.7-2.6,5.4c-1.6,2.9-3.4,5.6-6.5,7c-2.2,1-2.9,0.6-3-1.8
	c-0.3-5.4-0.6-10.9-1-16.5c-1.7,2.5-3.3,4.9-4.9,7.1c-0.6,0.8-1.2,1.5-1.8-0.1c-5-13.6-12.6-25.8-20.8-37.8c-5-7.4-9.9-14.9-15.3-22
	c-16.3-21.1-33.3-41.7-50.8-61.9c-8.1-9.3-13.8-20.1-18.9-31.2c-12-26.1-21-53.2-28.2-80.9c-2.7-10.3-4.6-20.8-6.9-31.1
	c-3.5-15.2-8.3-30-14.2-44.5c-2.2-5.4-4.2-10.9-6-16.4c-3-8.9-8.3-16.4-13.8-23.9c-2.3-3.1-4.6-6.2-5.6-10
	c-1.6-5.9,0.6-11.6,5.8-14.8c5.9-3.6,12.5-4.6,19.1-6.1c10.2-2.3,19.1,1.3,27.9,5.5c10,4.7,19.1,10.9,28.6,16.5
	c31.8,18.9,62.6,39.4,91.3,62.7c21.3,17.2,44.2,32.3,65.4,49.5c7.4,6,14.9,11.9,22.3,18c5.9,4.9,12.3,9,18.1,14
	c4.9,4.2,9.6,8.6,13.1,14.1c0.9,1.5,1.6,3,1.8,4.7c0.1,1.1-0.4,1.8-1.6,1c-2-1.3-4.2-2.2-6.3-3.2c-0.6-0.3-1.2-0.6-1.5-1.2
	c-3.4-6-8.5-10.2-14.1-13.9c-18.7-12.2-35.1-27.3-52.8-40.8c-7.1-5.4-14.6-10.1-21.9-15.1c-7.3-5.1-14.2-10.6-20.6-16.8
	c-11.9-11.7-25.1-21.9-39.3-30.6c-14-8.7-26.9-19.1-40.8-27.9c-14.4-9.2-29.1-17.8-44.1-26.1c-11.9-6.5-23.7-5.5-35.8-1.2
	c-0.2,0.1-0.3,0.2-0.6,0.5c14.2,8.7,28.9,16.8,39.4,30.6c-1.4,0.3-1.7-0.4-2.1-0.8c-11.5-9-23.4-17.4-36.7-23.6
	c-2.7-1.2-5.4-2.3-8.4-2.7c-2-0.3-2.2,0.6-1.9,2.1c0.4,1.5,0.9,3,2,4.1c6.3,6.5,10.4,14.3,14,22.5c2.8,6.5,6.6,12.4,9.7,18.7
	c7.7,15.9,12.9,32.7,16.7,49.9c5.5,24.7,12,49.1,19.8,73.1c6.5,19.9,13.9,39.4,23.6,58c3.6,7,8.9,12.9,13.9,18.9
	c14.4,17.3,29.3,34.3,44.3,51.1c14.6,16.4,26.4,34.7,35.5,54.7c0.4,0.9,0.7,2.7,1.6,2.3c1.3-0.5-0.1-1.7-0.2-2.6c0-0.5,0-1,0.1-1.5
	c1.7-5.9,2.3-11.9,1.7-18c-0.3-2.6-0.4-5.3,0.7-7.9c0.4-1,0.8-2,2.2-2.9c-0.8,15.6,1.7,30.5,3.8,46.1c2.2-3.2,4.1-5.9,6-8.6
	c1.4-2,1.9-2,3.5-0.2c3.3,3.8,3.7,8.4,3.3,13.2c-0.3,3-1.1,5.8-2.7,8.4c-1,1.6-1.2,3.2-1.2,5c0.1,9.8-0.7,19.5-2.4,29.1
	c-0.2,1.3,0,1.9,1.4,2c6.4,0.5,12.4,2.7,18.2,5.3c3.1,1.4,3.6,3,2.5,6.2c-1.3,3.5-3.2,6.7-5.1,9.8c-0.3,0.4-0.8,0.9-0.4,1.4
	c0.2,0.2,0.8,0.3,1.2,0.2c13.8-1.7,26.7,2,39.3,6.9c8.1,3.2,15.8,7.1,23.2,11.6c0.5,0.3,1.5,0.4,1.4,1.2c-0.1,0.7-1,0.7-1.6,1
	c-2.1,1.2-4.1,2.7-6,4.6c2.5,1.1,4.9,2.1,7,3.5c7.2,4.6,13.6,10.2,19.9,16c11.5,10.5,22.3,21.6,33.4,32.5c3.7,3.7,8.4,5.8,13.2,7.8
	c-1.8-1.8-4.1-3-5.3-5.5c1-0.3,1.4,0.4,1.9,0.7c6.8,4.3,14.2,6.9,22.2,7.6c9.6,0.9,18-2.7,26-7.4c0.5-0.3,0.8-0.6,1.3-0.8
	c1-0.5,1.8-2,2.8-1.4c1.1,0.7-0.4,2-0.2,3.4c3-1.7,5.9-3.1,8.3-5.4c8-7.5,15.2-15.8,22.7-23.8c6-6.4,12.1-12.7,19.2-18
	c4.3-3.2,9-5.9,14.6-7.3c-1.7-1.4-3.6-1.8-5.2-2.8c-0.5-0.3-1-0.6-1.5-0.9c-2.4-1.6-2.4-2.8,0.3-4c15.2-7.3,30.7-13.9,47.3-17.3
	c4.6-1,9.3-1.6,14.1-1.5c0.5,0,1.2,0,1.5-0.3c0.5-0.6-0.3-1-0.5-1.5c-0.6-1.4-2.4-2.1-2.2-3.9c0.1-1.2,0.5-2.3,1.5-3.1
	c1.5-1.3,1.5-2.3-0.3-2.9c-2.4-0.7-1.4-1.6-0.5-2.6c4.9-5.4,11.2-7.6,18.3-7.3c2,0.1,2.5-0.5,2.5-2.4c-0.1-7.1-1.6-13.9-3-20.8
	c-0.5-2.4-1-4.8-1.5-7.2c-0.1-0.5-0.7-1.2,0-1.6c0.5-0.3,0.9,0.3,1.4,0.5c0.5,0.2,0.9,0.5,1.8,1c-0.6-2.1-1.1-3.7-1.6-5.4
	c-1.5-4.8-3-9.6-4.4-14.4c-0.2-0.5-0.6-1.2-0.1-1.7c0.5-0.6,1.3-0.1,1.9,0.1c1.8,0.7,3.2,2,5,3.7c-1.4-6-2.7-11.6-4.1-17.1
	c-0.5-1.9-0.5-3.2,1.1-4.9c3.2-3.2,4-7.6,4.8-12c1.3-7,0.9-14,1-21c0-3.7-1.6-7.2-2-10.9c-0.2-2.1-0.5-4.3,0.3-6.4
	c0.2-0.4,0.4-0.9,0.8-0.9c0.6,0,0.6,0.6,0.6,1c0.6,4.8,2.3,9.1,4.1,13.5c1.6,4.1,1,8.5,0.7,12.7c-0.3,4.6-0.9,9.3-1.8,13.8
	c-0.1,0.7,0,1.3,0.3,1.9c3,5.2,6.1,10.3,9.8,15.1c0.3,0.3,0.6,0.6,1.2,1.2c0.4-2.4,0.7-4.6,1.1-6.7c1.3-7,4.6-12.8,10.1-17.2
	c2-1.6,2.1-1.5,3,0.7c1.3,3.2,2.5,6.5,4.4,9.4c0.4,0.7,0.7,1.5,1.7,1.9c0.5-1.8,0.2-3.5,0.2-5.2c0-6.1,0.1-12.2,1.8-18.2
	c1.3-4.7,3.9-8.8,6.6-12.7c8.8-12.4,19-23.5,30.2-33.9c17.3-16,31.3-34.3,40.8-56.1c4.6-10.5,10.7-20.3,16.2-30.3
	c5.3-9.6,10.8-19.2,14.9-29.5c4.8-11.8,7.7-24.2,9.4-36.8c1.1-7.8,1.8-15.7,2.8-23.5c1.2-9.7,4.3-18.9,7.9-27.9
	c6-14.9,13.6-28.9,21.6-42.7c4.1-7.2,7.7-14.7,11-22.2c0.8-1.7,1-3.5,1.3-5.4c0.2-1.4-0.4-1.9-1.7-2c-1.8-0.1-3.5,0.4-5.1,1.2
	c-6.7,3.2-12.6,7.8-18.7,11.8c-8.2,5.4-16.3,11-23.5,17.8c-3.7,3.5-7.4,7-10.4,11.2c-0.3,0.4-0.5,1.3-1.2,0.9
	c-0.6-0.3-0.4-1.1-0.2-1.6c0.8-2.4,2.3-4.3,3.9-6.1c6.3-7.3,13.8-13.4,21.1-19.6c7.4-6.3,14.9-12.3,23.1-18.4
	c-1.7-0.2-3-0.5-4.2-0.6c-14.5-1-27.9,2.2-40.3,10c-23.2,14.4-46,29.3-68.9,44.1c-17,11-33.8,22.5-49,35.9
	c-19.5,17.1-40.7,31.9-61.7,47c-4.2,3-8.1,6.4-11.7,10.2c-3.3,3.5-7,6.5-11,9.2c-4,2.8-7,6.5-10.3,10c-2.6,2.7-5.1,5.3-6.8,8.7
	c-0.3,0.6-0.9,1.2-1.5,1.5c-1,0.5-2.1,1.1-3.1,0.3c-1-0.8-0.1-1.8,0.1-2.6c1.5-4.8,3.5-9.3,5.8-13.6c4-7.6,10.1-13,17.8-16.8
	c1.4-0.7,2.7-1.5,4.2-2.1c6.1-2.4,11.4-6.1,16.3-10.4c29.5-26,60.8-49.6,92.6-72.6c18.4-13.3,37.4-25.8,56.8-37.6
	c11.7-7.1,23-14.9,34.9-21.5c9-5,18.6-7.9,29-7.5c3.6,0.1,7.1,0.7,10.5,1.8c5.2,1.8,10.3,3.6,15.4,5.6c4,1.6,4.2,2.5,3.3,6.6
	c-2.2,9.6-7.8,17.5-12.4,25.9c-4.8,8.8-10.3,17.1-13.5,26.7c-4,12.1-8.8,24-11.7,36.5c-2.1,9.2-3.4,18.6-4.1,28
	c-0.9,11.7-3.9,22.9-7.4,34.1c-4.5,14.2-10.5,27.6-18.5,40.1c-7.7,12-14.3,24.5-20,37.5c-2.6,5.9-5.8,11.5-8.9,17.1
	c-2.8,5.2-7.1,9.2-11,13.6c-6.6,7.4-12.7,15.3-20.2,21.7c-11.6,10-20.7,22-29.3,34.5c-3.9,5.6-5.8,11.6-5.3,18.4
	c0.5,6.9,0.2,13.8,0.3,20.6c0,1.5,0.1,3,0.5,4.4c0.1,0.5,0.6,1,0,1.4c-0.5,0.3-1-0.1-1.4-0.4c-4.5-2.8-7.8-6.7-10.3-11.4
	c-1.4-2.6-2.6-5.3-4.2-8.5c-5.2,8.4-10.6,16.2-11,26.8c-6.3-7.1-10.3-15.1-14.5-22.9c-4,5.1-2.9,10.8-2,16.4
	c0.8,5.2,1.3,10.6,3.8,15.4c0.7,1.3-0.4,1.3-1.2,1.4C579.1,419.8,577.5,418.8,575.2,418.1L575.2,418.1z"/>
<path d="M305.8,648.1c-4.2,9.8-8.6,19.8-12.8,29.8c-0.6,1.4-1.2,2.4-3,2.3c-1.9-0.1-3.8,0.4-4.9-2.2c-3.9-8.8-8-17.5-12-26.2
	c-0.4-0.8-0.8-1.7-1.2-2.6c-0.6,0.7-0.4,1.3-0.4,1.8c0.2,6.7-0.1,13.3,0.4,20c0.1,1.3,0.4,2.4,1.5,3.2c1.5,1.1,2.8,2.4,4.2,3.7
	c0.6,0.5,1.7,0.9,1.4,1.8c-0.3,0.9-1.4,0.5-2.2,0.5c-7,0-14,0-21.1,0c-2.7,0-5.3,0-8,0c-0.6,0-1.5,0.3-1.8-0.5
	c-0.2-0.6,0.4-1.1,0.8-1.4c4.3-3.4,5.3-7.8,5.3-13.2c0-10.6,0.2-21.3,0.4-31.9c0-1.5-0.4-2.2-1.9-2.7c-7.2-2.6-14.4-5.3-21.6-8
	c-0.8-0.3-1.7-0.4-2.3-1.3c0.9-0.9,2.1-1,3.2-1.4c12.6-4.5,25.2-8.9,37.8-13.5c2-0.7,2.7-0.2,3.5,1.5c5.5,11.7,11.1,23.4,16.7,35
	c0.3,0.6,0.6,1.2,0.9,1.8c0.4,0.8,0.9,0.7,1.3,0c0.3-0.5,0.5-1,0.8-1.6c5.4-10.7,10.8-21.4,16.2-32.1c0.6-1.3,1.4-2.2,3-2.2
	c10.2,0,20.4,0,30.6,0c0.4,0,0.7,0.1,1.2,0.2c-0.4,1.2-1.4,1.8-2.2,2.5c-3.7,3.2-7.5,6.5-11.3,9.7c-1.2,1-1.6,2.1-1.6,3.6
	c0.1,15.3,0.1,30.6,0,45.9c0,1.5,0.4,2.5,1.5,3.5c1.3,1.1,2.5,2.3,3.7,3.5c0.6,0.6,1.8,1,1.4,2c-0.4,0.9-1.6,0.4-2.5,0.4
	c-6.4,0-12.9,0-19.3,0c-3.5,0-7,0-10.4,0c-0.6,0-1.3,0.2-1.5-0.5c-0.2-0.6,0.5-0.9,0.9-1.2c5.4-2.7,5.7-7.6,5.6-12.8
	C305.7,659.8,305.8,654,305.8,648.1L305.8,648.1z"/>
<path d="M408.9,324.7c-0.7-0.3-0.9-1-1.2-1.5c-5.7-9.5-11.4-19-17.2-28.5c-9.3-15.4-18.6-30.9-27.9-46.3c-0.4-0.7-0.8-1.4-1.2-2.1
	c-0.7-1-0.5-1.7,0.3-2.5c7.1-6.9,14.2-13.8,21.3-20.8c7.9-7.7,15.8-15.3,23.6-23.1c1.3-1.2,2-1.2,3.1,0c14.4,15,28.9,29.9,43.3,44.8
	c1.1,1.1,1.2,2,0.4,3.5c-14.4,25-28.8,49.9-43.2,74.9C409.9,323.7,409.8,324.5,408.9,324.7L408.9,324.7z M408.4,315.9
	c0-10.6,0-20.5,0-30.5c0-0.9-0.4-1.6-0.8-2.3c-0.9-1.4-1.3-2.6,0.2-3.9c0.8-0.7,0.6-1.8,0.6-2.7c0-6.5-0.1-13,0-19.5
	c0-2-0.3-3.8-2-5.1c-1.5-1.2-1.3-2.3,0.1-3.4c1.8-1.4,2.3-3.1,2.3-5.4c-0.3-8.4-0.4-16.9-0.6-25.3c-0.1-3.7-0.3-7.3-0.5-11.3
	c-0.5,0.5-0.8,0.7-1,0.9c-10.2,11.8-20.4,23.6-30.6,35.4c-1.1,1.2-1.2,2.2-0.5,3.7c8.1,17,16.1,34.1,24.1,51.1
	C402.5,303.6,405.3,309.4,408.4,315.9L408.4,315.9z"/>
<path d="M477.8,735.7c0,10.5,0,21,0,31.5c0,2.3-1.2,3.5-3.6,3.5c-4.1,0-8.1-0.1-12.2,0c-1.7,0-2.8-0.5-3.9-1.9
	c-8-10.6-16.1-21.2-24.1-31.8c-0.5-0.7-1-1.4-1.6-2.1c-0.3-0.4-0.6-1.3-1.3-0.9c-0.6,0.3-0.4,1-0.4,1.6c0,2.8-0.1,5.6,0.1,8.4
	c0.3,4.5,0.4,9,0.4,13.5c0,1.5,0.6,2.5,1.7,3.4c3.4,2.7,6.8,5.5,10.1,8.3c0.4,0.3,1,0.6,0.9,1.2c-0.2,0.7-0.9,0.4-1.3,0.4
	c-10,0-20,0-29.9,0c-2.4,0-2.1-1.5-2-3c0.8-6.4,0.7-12.8,0.9-19.2c0.4-12.6,0.5-25.3-0.1-37.9c-0.1-2.3-0.2-4.6-0.4-6.8
	c-0.1-1.3,0.3-2.1,1.7-2.3c5-0.5,10-1,15-1.5c1.1-0.1,1.5,0.6,2.1,1.3c8.6,11.4,17.1,22.8,25.8,34.2c0.7,1,1.3,2.9,2.8,2.3
	c1.6-0.6,0.8-2.5,0.7-3.8c-0.4-6.1,0-12.3-0.5-18.4c-0.1-1.6-0.7-2.8-1.9-3.8c-3.9-3.1-7.8-6.3-11.7-9.5c-0.5-0.4-1.4-0.7-1.1-1.5
	c0.2-0.6,1-0.4,1.6-0.4c9.9,0,19.8,0,29.7,0c1.9,0,2.5,0.7,2.5,2.6C477.8,714,477.8,724.8,477.8,735.7L477.8,735.7L477.8,735.7z"/>
<path d="M369,770.7h-2.4c-9.2,0-18.5,0-27.7,0c-3.3,0-3.4,0-3.2-3.3c1.2-17.3,0.9-34.6,0.9-51.9c0-4-0.4-8-0.6-12
	c-0.1-1.5,0.4-2,1.7-2.2c4.9-0.5,9.9-0.6,14.8-1.4c1.4-0.2,1.9,1,2.5,1.8c8.5,11.3,17.1,22.7,25.6,34c0.7,0.9,1.2,2.5,2.5,2.1
	c1.4-0.5,0.8-2.1,0.8-3.2c-0.1-6.5-0.3-13-0.4-19.5c0-1.2-0.5-2-1.5-2.8c-3.9-3.1-7.8-6.3-11.7-9.5c-0.7-0.5-1.5-0.9-1.8-1.9
	c0.7-0.7,1.5-0.5,2.3-0.5c9.5,0,18.9,0,28.4,0c3.1,0,3.1,0.1,3.1,3.1c0,21.4,0,42.7,0,64.1c0,3,0,3-2.9,3c-4.2,0-8.4-0.1-12.6,0
	c-1.8,0-3-0.7-4-2.1c-8.4-11.1-16.8-22.2-25.2-33.2c-0.3-0.3-0.5-0.7-0.8-1c-0.2-0.2-0.6-0.5-0.9-0.5c-0.6,0.1-0.5,0.6-0.5,1.1
	c0.1,2.1,0.2,4.3,0.3,6.4c0.2,5.1,0.4,10.2,0.4,15.3c0,2.2,0.8,3.6,2.4,4.9c3,2.3,5.9,4.7,8.8,7.2
	C367.8,769.1,368.6,769.4,369,770.7L369,770.7z"/>
<path d="M484.3,610.4c-3.7,3-6.9,6-10.4,8.5c-3.8,2.6-6.2,6.2-8.3,10.2c-0.7,1.3-1.5,2.5-2.2,3.8c-0.7,1.2-1.2,1.3-2.3,0.4
	c-3.3-2.9-7-5.1-11.3-6.4c-6.6-2.1-14.3,0.8-17.5,6.9c-3.7,6.9-3.7,14-0.2,21.1c2.1,4.2,5.7,6.4,10.2,7c4.6,0.6,9.1,0,13.5-1.5
	c1.2-0.4,1.5-0.9,1.6-2.4c0.1-5.5-3.1-8.9-6.8-12.3c-1.1-1-3.2-2-2.7-3.4c0.4-1,2.7-0.4,4.1-0.4c7.5,0,15.1,0,22.6-0.1
	c1.9,0,2.7,0.6,2.7,2.5c0,11,0.1,22,0.2,33c0,1.7-0.5,2.1-2.1,1.5c-3.1-1.1-6.3-1.5-9.5-2c-1.8-0.3-3.3,0.7-4.9,1.1
	c-5.5,1.3-11,3-16.8,2.7c-17.1-0.9-31-11.3-33.6-29.2c-1.1-7.5-1.3-14.9,1.9-22c5.2-11.7,14.3-18.4,26.6-21.4
	c6.3-1.5,12.2-0.3,18.1,1.5c1.4,0.4,2.7,0.7,4.1,0.7c7.4,0,14.8-0.1,22.2-0.1C483.4,610.1,483.6,610.2,484.3,610.4L484.3,610.4z"/>
<path d="M404.7,680.1c-4.7,0-9.3,0-14,0c-1.5,0-2.3-0.5-2.7-2c-0.7-2.5-1.7-4.9-2.4-7.4c-0.4-1.3-1.1-1.7-2.4-1.7
	c-6.2,0-12.4,0-18.6,0c-1.3,0-2,0.5-2.4,1.8c-0.8,2.4-1.9,4.7-2.6,7.1c-0.5,1.8-1.5,2.3-3.2,2.2c-5.2-0.1-10.5,0-15.8,0
	c-2.5,0-2.6-0.2-1.8-2.5c5.6-15.5,11.3-31,16.9-46.4c0.6-1.7,1.2-3.5,1.9-5.2c0.6-1.5,0.3-2.1-1.5-2.2c-3.4-0.1-6.8-0.3-10.2-0.4
	c-0.5,0-1.3,0.3-1.5-0.5c-0.2-0.7,0.6-1,1-1.3c5-4,10.1-7.9,15.1-12c1-0.8,2.1-1.2,3.4-1.2c5.4,0,10.8,0.1,16.2,0
	c1.7,0,2.5,0.6,3.1,2.1c7.3,18.5,14.6,37,22,55.4c0.6,1.5,1.4,2.7,2.7,3.7c3.6,2.8,7.2,5.7,10.8,8.5c0.5,0.4,1.6,0.7,1.4,1.5
	c-0.3,0.8-1.3,0.4-2,0.4C413.8,680.2,409.3,680.2,404.7,680.1L404.7,680.1L404.7,680.1z M374,634.2c-0.1,0-0.3,0-0.5,0
	c-1.7,5.3-3.5,10.7-5.2,16c-0.3,0.9-0.6,1.8,0.9,1.8c2.8,0,5.6,0,8.4,0c1.1,0,1.4-0.5,1-1.6C377.1,645,375.6,639.6,374,634.2
	L374,634.2z"/>
<path d="M512.2,700.8c11.1,0.2,22.2-0.2,33.2-0.4c0.8,0,1.9-0.4,2.2,0.4c0.4,0.9-0.8,1.3-1.3,1.8c-5.4,4.7-10.8,9.4-16.2,14.2
	c-1,0.9-2.1,1.3-3.4,1.2c-5.4-0.3-10.8-0.6-16.2-0.9c-2.6-0.1-3.4,0.7-3.6,3.3c-0.4,6.5-0.2,6.7,6.2,6.6c6.3-0.1,12.7-0.3,19.1-0.5
	c1.5-0.1,2.1,0.4,2.3,1.9c0.5,4.5,0,8.8-0.9,13.2c-0.3,1.5-1,2-2.6,1.8c-7.2-0.6-14.3-0.3-21.5-0.2c-1.9,0-2.6,1.1-2.5,2.9
	c0.1,0.7,0.2,1.3,0.2,2c0,4.7-0.1,4.8,5.5,5.5c7.5,0.9,15,0.8,22.5,0c2.5-0.3,3,0.2,2.6,2.6c-0.7,4-1.4,8-1.9,12
	c-0.3,2-1.4,2.8-3.2,3c-1.2,0.1-2.5,0.1-3.8,0.1c-13.5,0-27.1,0-40.6,0c-1.9,0-2.6-0.1-2.2-2.5c0.7-4.2,0.8-8.5,1-12.8
	c0.7-13.8,0.7-27.6,0.4-41.5c-0.1-3.4-0.6-6.8-0.9-10.1c-0.3-2.8,0.1-3.4,3.1-3.4C497.3,700.8,504.7,700.8,512.2,700.8z"/>
<path d="M301.4,771.1c-7.3,0-14.6,0-22,0c-1.5,0-2-0.1-1.7-2.1c0.7-4.4,0.8-8.8,1-13.2c0.7-13.8,0.7-27.6,0.4-41.5
	c-0.1-3.5-0.6-6.9-1-10.4c-0.3-2.4,0.3-3.1,2.7-3.1c14.4,0,28.7,0,43-0.1c1.8,0,2.8,0.7,3,2.5c0.3,4.3,0.6,8.7,1,13
	c0.2,1.7-0.4,2.1-2,2c-6.9-0.4-13.9-0.6-20.8-1.2c-5.9-0.5-6.6-0.1-6.7,5.8c0,3.6,0.5,4.2,4.1,4.1c7-0.1,14-0.3,21.1-0.6
	c1.4,0,2.3,0.1,2.4,1.8c0.3,4.4,0.2,8.8-0.8,13.2c-0.4,1.6-1,2.2-2.7,2c-7.2-0.6-14.3-0.3-21.5-0.2c-1.8,0-2.5,1-2.4,2.7
	c0.1,1.7,0.3,3.4,0.4,5.1c0.1,1.4,1.1,1.8,2.3,2c3,0.5,6,1,9,1.1c5.7,0,11.4,0.3,17-0.7c1.8-0.3,2.5,0.6,2.2,2.3c-0.7,4-1.3,8-2,12
	c-0.5,2.8-1.3,3.5-4.2,3.5C316,771.1,308.7,771.1,301.4,771.1L301.4,771.1z"/>
<path d="M580.4,644.2c-0.8,4.3-1.5,8.7-2.3,13c-1.1,6.2-2.1,12.4-3.2,18.6c-0.1,0.4,0,1-0.4,1.2c-0.7,0.3-0.9-0.4-1.2-0.8
	c-2.4-2.7-2.5-2.8-5.5-0.8c-18,11.6-47,3.1-51.8-23.6c-1.5-8.3-0.4-16.3,2.6-23.9c4.8-12.4,14.8-18.4,27.5-20.7
	c5.3-1,10.4,0.2,15.5,1.7c1.3,0.4,2.6,0.6,3.9,0.6c7,0,14,0,21.1,0c0.8,0,1.6-0.2,2.7,0.5c-2.3,1.9-4.4,3.8-6.6,5.4
	c-6,4.1-10.5,9.3-13.6,16c-1.2,2.7-1.5,2.6-3.7,0.7c-3.1-2.5-6.4-4.5-10.2-5.7c-6.1-1.8-11.7-0.1-15.7,4.8
	c-5.3,6.5-5.8,16.9-1.1,23.9c3.9,5.8,10.4,8,17.3,6c5.3-1.5,9.5-4.6,13.6-8.1c3.5-3,7-6,10.6-9C580,644,580.2,644.1,580.4,644.2
	L580.4,644.2z"/>
<path d="M618.6,700.8c-2.9,2.4-5.4,4.7-8.2,6.6c-4.9,3.4-8.5,7.8-11.2,13.2c-2,4-2.2,4-5.8,1.2c-3.3-2.5-7-4.6-11.1-5.2
	c-6.5-0.9-11.5,1.7-14.9,7.3c-3.4,5.6-3.7,11.7-1.7,17.7c3.2,9.5,12.6,13.2,22.2,9.2c5.6-2.3,9.8-6.5,14.3-10.3
	c2.3-1.9,4.6-3.9,7.2-6c0.4,2.9-0.5,5.3-0.9,7.7c-1.2,7.5-2.5,15-3.8,22.5c-0.1,0.7-0.3,1.5-0.5,2.2c-0.2,1-0.7,1-1.3,0.3
	c-1-0.9-1.3-2.8-2.9-2.7c-1.2,0.2-2.3,1.3-3.4,2c-17.4,11-46.9,2.8-51.1-24.5c-1.6-10.2-0.2-20.1,5.3-29
	c6.4-10.3,22.8-19.6,40.3-13.4c1.3,0.5,2.7,0.7,4.1,0.7c6.9,0,13.8,0,20.6,0C616.6,700.3,617.5,700.2,618.6,700.8z"/>
<path d="M235.6,771.6c-4.4,0-8.7,0-13.1,0c-1.3,0-2.2-0.2-1.5-1.9c0.4-1,0.1-2,0.1-3.1c0-16.7,0-33.4,0-50.1c0-1.6-0.5-2.6-1.7-3.5
	c-4.6-3.8-9.2-7.7-13.8-11.5c-0.5-0.4-1.4-0.7-1-1.5c0.3-0.7,1.2-0.4,1.8-0.3c12.7,1,25.4,1.9,38.1,1.6c7.5-0.2,15.1-0.4,22.6-1.2
	c3.1-0.3,3.9,0.3,4.2,3.3c0.4,4,0.8,7.9,1.3,11.9c0.2,2.2-0.1,2.7-2.3,2.6c-7.4-0.4-14.8-0.8-22.1-1.2c-1,0-1.9,0-2.9,0
	c-0.9,0-1.6,0.3-2.2,0.8c-2.3,2.2-1.2,4.8-0.7,7.3c0.4,1.8,2.1,2.3,3.9,2.3c6.4-0.2,12.9-0.2,19.3-0.5c2.1-0.1,2.9,0.7,3.3,2.6
	c0.9,4.4,0.8,8.8,0,13.2c-0.3,1.7-1.1,2.3-2.8,2.2c-6.8-0.4-13.6-0.5-20.4-0.5c-3.4,0-4,0.7-3.9,4.1c0.1,4.6,0,9.2,0.4,13.7
	c0.1,1.5,0.6,2.5,1.7,3.4c1.9,1.5,3.8,3,5.7,4.6c0.4,0.3,1.2,0.6,0.9,1.3c-0.2,0.5-0.9,0.3-1.4,0.4
	C244.5,771.6,240.1,771.6,235.6,771.6L235.6,771.6z"/>
<path d="M497.9,680.2c-2.5,0-5,0-7.5,0c-2.4,0-3.8-1.4-3.4-3.8c1.2-7.8,1.1-15.7,1.2-23.6c0.2-12.9,0.5-25.8,0.5-38.8
	c0-4,1-4.9,5-4.9c9,0,18,0,27,0c0.8,0,1.9-0.5,2.2,0.5c0.2,0.9-1,1.1-1.6,1.6c-3.4,2.7-6.8,5.4-10.4,8c-2.1,1.5-2.9,3.5-2.9,5.9
	c-0.3,12.8-0.2,25.7,0.2,38.5c0.2,4.7,0.1,9.5,0.2,14.2c0,1.8-0.8,2.5-2.6,2.5C503.2,680.1,500.6,680.1,497.9,680.2L497.9,680.2z"/>
<path d="M453.9,284.9c-0.2-1.8,0.8-2.1,1.8-2.6c9.1-4.4,18.2-8.9,27.3-13.3c2-1,4-1.9,6-3c1.4-0.8,2-0.5,2.6,0.9
	c4.1,9.6,8.3,19.1,12.4,28.7c0.7,1.6,1.2,3.4,2.2,4.9c0.9,1.4,0.5,2.1-0.8,3c-11.2,8.3-22.3,16.6-33.5,24.9
	c-2.9,2.2-5.8,4.3-8.7,6.5c-1.9,1.4-2.1,1.3-2.5-1.1c-1.2-8.2-2.4-16.4-3.5-24.6c-1.1-7.8-2.2-15.5-3.2-23.3
	C454,285.5,453.9,285,453.9,284.9L453.9,284.9z M488.7,270.6c-7.8,4.5-15,8.9-22.5,12.7c-3.8,2-5.1,4-4.7,8.5
	c1,10.9,1.1,21.8,1.6,32.8c0.1,1.5,0.3,3,0.5,4.9c4.5-8.1,8.8-15.7,13-23.3c0.2-0.3,0.4-0.7,0.3-1c-0.5-2,0.6-3.4,1.7-4.8
	c1.2-1.5,1.8-3.1,1.2-5.1c-0.5-1.5,0.1-2.5,1.6-3.2c1-0.5,2-1,2.3-2.2C485.3,283.7,487,277.5,488.7,270.6L488.7,270.6z"/>
<path d="M409.3,550.6c-1.5,0-3.1,0-4.6,0c-1,0-1.4-0.2-0.8-1.3c2.1-3.9,0.2-8.7-4.1-10.1c-3.5-1.2-6.7-2.7-9.5-5
	c-8.8-7.2-6.7-17.7,0.1-23.8c4-3.5,8.9-4.9,14-5.4c6.8-0.7,13.5-0.1,19.7,2.8c8.5,4,11.8,14,7.5,22.3c-2.1,4.1-5.6,6.6-9.9,7.6
	c-4.5,1.1-6,4.6-7.8,8.1c-0.4,0.8,0.1,1.7,0.5,2.5c0.7,1.5,0.2,2.3-1.6,2.3C411.7,550.6,410.5,550.6,409.3,550.6L409.3,550.6
	L409.3,550.6z M417.1,509.8c-0.4,0.2-0.7,0.4-1,0.6c-3.7,3-3.7,5.1,0.1,7.7c0.5,0.3,1,0.7,1.5,1c2.6,1.7,2.8,1.7,4.5-0.9
	c1.5-2.2,1.1-4.1-1-5.6C419.9,511.6,418.5,510.7,417.1,509.8L417.1,509.8z"/>
<path d="M360.9,277.6c-0.7,5.8-1.4,11.6-2.1,17.4c-1.1,9.1-2.3,18.3-3.4,27.5c-0.5,4.3-0.5,4.3-4.1,2c-12.4-7.7-24.8-15.5-37.2-23.2
	c-1.8-1.1-2.4-2-1.7-4.2c3.3-11.2,6.3-22.5,9.4-33.7c1-3.5,1-3.4,4.4-2c10.9,4.7,21.7,9.3,32.6,14
	C359.6,275.8,361.1,275.9,360.9,277.6L360.9,277.6z M326.9,266.4c-0.1,0.1-0.3,0.2-0.4,0.3c0.2,0.5,0.4,1.1,0.6,1.6
	c2.5,5.5,5.1,11,7.5,16.5c0.8,1.9,1.7,3.6,3.7,4.4c0.9,0.4,1.3,1.1,0.9,2c-0.6,1.3,0,2.3,0.5,3.3c4,8,8,16,12,24
	c0.2,0.5,0.3,1.1,0.9,1.3c0.4-12.5,0.7-24.9,1.1-37.2c0-1.4-0.5-2.1-1.7-2.8c-3.4-1.8-6.8-3.6-10.1-5.5
	C336.9,271.7,331.9,269.1,326.9,266.4L326.9,266.4z"/>
<path d="M350.2,440.7c4.7-4.6,8.5-9.3,12.1-14.3c3.7-5.1,6.8-10.6,9.3-16.3c1.9-4.3,1.5-8.1-1.4-11.9c-3-3.9-5.8-7.8-8.3-12
	c-0.4-0.6-1-1.1-0.8-2c0.8-0.3,1,0.4,1.4,0.8c3.8,4.1,7.1,8.5,10.5,12.9c4.8,6.5,4.9,10.4,0.6,17.2c-5.1,8-9.9,16.2-13.1,25.1
	c-2.8,7.7-4.8,15.7-5,24c0,0.2-0.1,0.4-0.4,1.1c-1.1-3.7-2-6.9-3-10.1c-2.3-7.8-4.9-15.5-8.5-22.8c-1.8-3.7-4.2-6.7-7.9-8.9
	c-8.9-5.5-18.7-8.1-28.8-10.5c-14-3.5-26.2-10.3-35.7-21.5c-5.5-6.5-8.6-14.1-9.1-22.6c-0.1-1.7-0.8-2.5-2.3-3
	c-5.5-2.1-10.6-4.9-15.3-8.4c-1.7-1.3-3.4-2.7-4.5-4.5c0.1-0.1,0.2-0.3,0.4-0.4c0.9,0.6,1.8,1.2,2.7,1.7c8.8,5.4,18.6,8.4,28.4,11.1
	c5.1,1.4,10.3,2.5,15.5,3.9c4.3,1.1,8.1,3.5,12,5.6c16.7,9,28.9,22.4,38.4,38.6C342.5,421.9,347.2,430.6,350.2,440.7L350.2,440.7z
	 M336.5,419.9c-0.2-0.4-0.5-0.7-0.7-1.1c-8.3-11.7-18-22.1-29.2-31c-11.5-9.1-24-16.1-38.2-20c-1.4-0.4-1.8-0.4-1.9,1.4
	c-0.1,8.3,3.3,15.1,8.8,21.1c7.9,8.6,17.4,14.5,28.7,18C314.9,411.6,326.3,414,336.5,419.9L336.5,419.9z"/>
<path d="M449.5,384.2c0.2,0.9-0.5,1.5-0.8,2.1c-2.5,4.1-5.3,8-8.2,11.8c-3.1,3.9-3.2,8-1.2,12.5c4.7,10.7,11.6,19.8,19.5,28.4
	c0.5,0.5,0.8,1,1.3,1.7c0.9-1,1-2,1.3-2.8c4.2-13.2,11.7-24.6,19.5-35.9c10.2-14.8,24.2-25,40.6-32c5.2-2.2,11.1-3,16.7-4.5
	c11.1-3,22.2-6.4,31.9-12.9c0.1-0.1,0.4,0,0.8,0c-1.1,2.1-2.9,3.5-4.6,4.8c-4.4,3.3-9.2,6-14.3,8c-2.2,0.9-3.1,1.9-3.3,4.4
	c-1,11.4-6.6,20.5-15.1,27.9c-10.4,9-22.7,14.3-36.1,16.8c-6.5,1.2-12.4,4-18.4,6.8c-7.2,3.4-11.2,9-14,16
	c-3.2,8.1-5.9,16.4-8.2,24.8c-0.2,0.7,0,1.7-1.2,2.2c-0.1-1.4-0.2-2.7-0.4-3.9c-1.9-16.5-8.9-31-17.6-44.8c-0.7-1.1-1.3-2.1-1.9-3.2
	c-2.3-4.6-2-8.9,1.2-13.1c3.7-4.9,7.4-9.8,11.5-14.3C448.6,384.6,448.9,384,449.5,384.2L449.5,384.2z M474.3,420
	c3.9-1.9,7.6-4,11.7-5.4c7-2.3,14.1-4.3,21.1-6.7c5.5-1.9,11.2-3.3,16-6.9c4.6-3.4,8.9-7.1,12.8-11.3c5.3-5.9,8.4-12.6,8.3-20.7
	c0-1.6-0.4-1.7-1.8-1.3c-5.9,1.6-11.5,3.8-17,6.5c-15.8,7.8-29.1,18.9-40.7,32C481,410.6,477.4,415.1,474.3,420L474.3,420z"/>
<path d="M144.3,176.5c0.2-2.3-0.5-4.4-0.1-6.6c0.1-0.8,0.1-1.8,1-2c0.9-0.2,1.1,0.9,1.4,1.5c11.3,17.6,22.6,35.2,34.8,52.2
	c5.5,7.7,11.1,15.3,17.4,22.4c2.3,2.6,5,4.8,7.8,6.9c2.5,1.9,4.8,4,6.5,6.6c0.5,0.8,0.9,1.5,1,2.5c0.1,0.5-0.1,1-0.6,1.4
	c-0.5,0.4-1,0.2-1.4-0.2c-3.3-3.3-8-4.1-11.9-6.2c-2.2-1.1-4.5-2.2-6-4.5c2.5,0.5,4.8,1.7,7.9,2.2c-17.8-21.7-36-42.3-51.2-65.6
	c0.6,2.8,1.1,5.3,1.5,7.8c-0.6,0.2-0.8,0-1-0.4c-5.5-8.4-11-16.8-15.5-25.8c-1.8-3.5-2.8-7.2-2.9-11.1c-0.3-15.3-5-29.3-12.6-42.4
	c-0.2-0.4-0.6-0.7-0.2-1.5c4.4,4.8,9.1,9.3,11.1,15.7c2.6,8.3,4.1,16.8,6.2,25.2c1.6,6.2,3,12.5,5.3,18.5
	C143.2,174.3,143.7,175.4,144.3,176.5L144.3,176.5z"/>
<path d="M678.6,173.9c2-6.2,3.8-12.1,5.7-18c4.2-12.9,8.1-25.9,13.3-38.5c1.2-2.9,2.4-5.7,4.4-8.2c0.8-1,1.6-2.1,3.1-2.3
	c0.3,1.1-0.3,1.9-0.8,2.5c-3.4,4.6-5,10.1-6.3,15.5c-4.4,17.5-9.8,34.7-15.6,51.7c-1.1,3.2-2,6.5-2.3,10.1c-2.1-1.2-2.7-3.3-4.1-5.1
	c-2.8,6.3-6.3,12.1-11.2,16.6c-8.4,7.9-13.6,18.1-21.1,26.7c-8,9.2-15.9,18.5-25.7,26c-2.4,1.9-5,3.6-8.1,4.6c0.1-1.3,1-1.7,1.6-2.2
	c8-7.6,16-15.4,23.2-23.8c2.2-2.5,4.3-5.2,5.8-8.1c4.4-8.6,10.7-15.7,17-22.8c5.9-6.5,11.2-13.6,15.7-21.2c0.6-1,1.2-2.1,1.7-3.1
	C675.8,172.1,677.1,172,678.6,173.9L678.6,173.9z"/>
<path d="M288.7,596c4.5,0,9,0,13.5,0c2.6,0,2.7,0.1,1.6,2.4c-4.6,9.4-9.2,18.9-13.8,28.3c-0.2,0.4-0.3,1.1-1,1
	c-0.7-0.1-0.8-0.8-1-1.3c-4.5-8.8-8.9-17.5-13.3-26.3c-1.3-2.7-0.5-4,2.4-4C281,596.1,284.8,596.1,288.7,596L288.7,596L288.7,596z"
	/>
<path d="M518.4,229.4c-1.8,0.7-2.7,0.1-3.4-0.9c-0.7-1-1.2-2.2-1.4-3.5c-0.4-2.5-1.4-3.3-3.9-3.1c-1.2,0.1-2.2,0.9-3.6,0.2
	c-0.8-0.4-0.6,0.7-0.4,1.2c0.8,1.8,1.7,3.6,2.6,5.5c-1.6,0.4-2.7-0.6-3.8-1.3c-4-2.7-7.4-6.1-10.7-9.6c-2-2.1-4.3-4-6.4-6
	c0.3,2.8,1.2,5.8,3,8.8c-2.3-0.3-3.8-1.4-5.3-2.5c-2.5-1.8-4.5-4.3-7.2-5.8c-0.1-0.1-0.3-0.2-0.3-0.3c-1-3.4-3-2.1-4.9-1.2
	c-7,3.3-13,1.9-18.2-3.8c-1.8-2-3.9-3.6-5.8-5.4c-1.6-1.6-3.2-1.9-5.4-0.9c-4,1.8-8.2,3.4-12.4,4.7c-1.3,0.4-2.5,0.5-3.6-0.2
	c-0.4-0.2-1.1-0.5-0.9-1.1c0.1-0.3,0.6-0.6,1-0.7c3.6-1.2,7.2-2.4,10.7-3.6c3.2-1,6.3-2,9.5-3.1c1.4-0.5,2.3-0.3,3.2,0.9
	c2.9,3.7,6,7.2,9.7,10.3c3,2.5,6,2.5,9.2,0.6c0.9-0.5,1.8-1.1,2.7-1.6c3.2-1.8,5.3-1.4,7.4,1.7c1.3,2,2.8,3.7,4.9,5.2
	c0.4-1.4,0-2.7-0.1-4c-0.1-0.8-0.2-1.7,0.6-2.2c0.8-0.5,1.6,0.1,2.2,0.5c1.8,1,3.1,2.7,4.5,4.3c1.8,2.1,3.7,4,5.9,5.7
	c2.3,1.8,4.8,2.1,7.5,1.1c1.8-0.6,3.6-1.4,5.4-1.9c3.8-0.9,6.6,1.9,5.6,5.7C515.6,225.6,515.8,227.7,518.4,229.4L518.4,229.4z"/>
<path d="M584.3,288.5c6.2-13.4,15.5-23.8,28.9-30.9c0,1.5-0.8,2.3-1.4,3c-0.7,0.9-1.4,1.8-2.2,2.5c-12.1,9.4-18.5,22.5-24.4,36.1
	c-0.3,0.6-0.3,1.7-1,1.8c-0.9,0.1-0.8-1.1-1.1-1.7c-2.7-6.1-7-11.1-10.7-16.5c-0.6-0.9-1.2-1.8-1.8-2.8c-0.3-0.4-0.6-1-0.2-1.4
	c0.5-0.5,1-0.1,1.4,0.2C576.2,281.6,581.1,283.9,584.3,288.5L584.3,288.5z"/>
<path d="M337.3,214.5c-6.7,10.5-16.6,17.1-25.6,24.6c0.3-2.3,0.5-4.6,0.4-6.8c0-0.6,0.1-1.3-0.5-1.6c-0.6-0.2-0.9,0.5-1.1,0.9
	c-2.7,3.8-6.2,6.9-8,11.3c-0.7,1.8-2.4,3-4,4c-3.1,1.9-6.5,3-10.2,3.8c9-8.3,16.2-18,25-26.3c0.8-0.8,1.6-2.2,2.9-1.6
	c1.2,0.6,0.6,2.1,0.7,3.3c0.1,1-1,2.3,0,2.8c0.9,0.4,1.7-0.9,2.5-1.5c5.4-4.1,10.6-8.2,16-12.3C335.6,214.9,335.9,214.4,337.3,214.5
	L337.3,214.5z"/>
<path d="M340.1,220.5c-0.4-0.8,0-1.1,0.2-1.4c4.3-6.4,8.6-12.7,13-19c1.8-2.5,3.5-3,6.4-1.9c1.4,0.5,2.7,1.2,4,2
	c2.1,1.2,4.2,2.5,6.5,3.4c2.3,0.9,4.6,1.4,7.7,1.8c-1.7,1.6-3.3,2-5,1.7c-2.9-0.5-5.8-1.5-8.4-2.9c-3.5-1.9-6.4-1.2-9.2,1.5
	c-3.9,3.7-7.5,7.6-10.9,11.7C343.1,218.7,341.9,220,340.1,220.5L340.1,220.5z"/>
<path d="M262.1,301.6c0.3,1.5-0.4,2.6-1.1,3.6c-2.4,3.5-5.3,6.5-8.3,9.5c-0.9,0.9-1.6,1.8-1.9,3.1c-0.5,2.2-1.6,4-4.1,4.5
	c-1.5,0.3-1,1.4-0.8,2.3c0.8,3.4,2.5,6.5,3.8,9.7c0.6,1.4,1.2,2.8,1.8,4.3c0.2,0.4,0.5,0.9,0,1.2c-0.5,0.3-0.8-0.1-1.1-0.4
	c-1.3-1.3-2.4-2.8-3.2-4.5c-2-4-4-8.1-5.9-12.1c-0.8-1.7-0.2-2.9,1.4-3.6c1-0.4,2-0.7,3.2-1.1c-0.3-0.3-0.5-0.5-0.7-0.7
	c-0.5-0.5-1.5-0.7-1.3-1.6c0.2-0.7,1.1-0.6,1.7-0.7c2-0.4,3.5-1.6,5-2.8c3.5-2.7,6.7-5.8,9.8-8.9
	C261.1,302.5,261.6,302.1,262.1,301.6L262.1,301.6z"/>
<path d="M88.4,69.2c2.1,1.9,4.3,3.7,6.4,5.6c6.3,5.8,12.4,11.8,16.9,19.2c1.4,2.2,2.5,4.5,3.2,7c0.1,0.5,0.4,1.1-0.1,1.4
	c-0.3,0.2-0.9,0-1.2-0.1c-2.6-1-4.7-2.4-6.2-5c-5.7-9.7-11.7-19.3-19.4-27.7C88.2,69.5,88.3,69.3,88.4,69.2L88.4,69.2z"/>
<path d="M576.7,331.3c0.3-4.9,1.6-9.2,3.1-13.3c0.9-2.5,0.6-4.7-0.3-7c-0.9-2.1-1.8-4.2-3.2-6c-0.4-0.5-1.1-1-0.3-1.7
	c0.7-0.6,1.2,0.1,1.7,0.4c3,2.2,5.9,4.4,9.6,5.4c0.8,0.2,0.8,0.7,0.4,1.3c-4.5,6.8-7.1,14.4-9.1,22.2c-0.1,0.4-0.1,1-0.7,1
	c-0.7,0.1-0.8-0.5-0.9-1C576.8,332,576.7,331.4,576.7,331.3L576.7,331.3z"/>
<path d="M379,208.3c0.3-1.4,1.1-2.3,1.8-3.1c3.9-4.5,7.8-9.1,11.7-13.6c0.5-0.5,1.1-1,1.7-1.4c0.5-0.3,1-1,1.5-0.7
	c0.8,0.4,0,1,0,1.5c-0.1,2.2,0.9,4.2,1.5,6.2c0.5,1.8,1.2,3.5,1.8,5.2c0.3,0.9,1.1,2-0.4,2.6c-1.5,0.6-1.7-0.8-2.2-1.5
	c-0.8-1.3-1.5-2.7-2.4-4c-1.5-2.3-3-2.4-4.7-0.1c-1.4,1.8-2.5,3.9-4.1,5.5C383.6,206.5,381.8,208,379,208.3L379,208.3z"/>
<path d="M238.2,326.1c-0.3,8.7-1.8,17.1-4.2,25.5c-0.6,2.2-2.5,2.8-4.3,3.5c-1,0.4-1.5-0.5-1.3-1.5c0.2-1.1,0.6-2.2,1.2-3.1
	c3.4-5.4,4.4-11.5,5.3-17.7c0.6-4.1,0.9-8.2,1.4-12.3c0-0.5-0.1-1.2,0.6-1.2c0.6,0,0.7,0.7,0.9,1.1
	C238.1,322.3,238.2,324.2,238.2,326.1L238.2,326.1z"/>
<path d="M299.5,251c-0.3,0.3-0.4,0.6-0.6,0.6c-6.1,2-12,4.5-18.2,6.1c-1.2,0.3-2.1,1-2.9,1.9c-2.3,2.4-4,5.1-6,7.6
	c-0.6,0.8-1.1,1.7-2.3,2.3c-0.3-2,0.5-3.5,1.2-5c0.9-2.2,2.1-4.2,3-6.4c1.1-2.8,3-4.1,5.9-4.5c6.3-0.9,12.5-1.8,18.8-2.8
	C298.6,250.8,298.9,251,299.5,251L299.5,251z"/>
<path d="M555.9,264.7c-2.9-2.1-5.4-4.6-7-7.8c-0.9-1.8-2.2-2.9-4.1-3.8c-5-2.4-9.9-4.9-14.9-7.4c-0.4-0.2-1-0.4-1.2-1
	c0.4-0.7,0.9-0.2,1.3-0.1c6.5,1.8,12.9,3.8,19.4,5.6c1.7,0.5,2.6,1.3,3,3C553.4,257.1,554.5,260.9,555.9,264.7L555.9,264.7z"/>
<path d="M245.3,298.1c0.8-4,1-7.5,1.1-11.2c0-1.3,0-2.7,0.4-3.9c0.2-0.5,0.3-1.3,1-1.2c0.8,0,0.7,0.8,0.8,1.3c0,0.1,0,0.1,0,0.2
	c0,6.3,0.5,12.5-0.3,18.8c-0.2,1.5-0.1,3.7-2.2,3.9c-2.2,0.2-2.4-2-2.8-3.6c-0.3-1.4-1-2.4-1.8-3.5c-1.2-1.8-2.5-3.7-3.2-5.8
	c-0.2-0.6-0.7-1.5,0-1.8c0.8-0.5,1,0.6,1.4,1C241.4,294.2,243,296.3,245.3,298.1L245.3,298.1z"/>
<path d="M209.6,262.5c11.3,5.2,19.3,14,25.9,24.2C227.7,277.9,216.5,272.5,209.6,262.5z"/>
<path d="M540.7,246.9c-1.5,0-2.7-0.6-3.9-1.3c-4.2-2.4-7.2-6-9.7-10.1c-0.6-1,1.2-4.1,2.3-4c0.5,0,0.5,0.4,0.7,0.7
	c2.1,5.2,5.6,9.3,9.5,13.1c0.4,0.4,0.7,0.7,1,1.1C540.8,246.4,540.7,246.6,540.7,246.9L540.7,246.9z"/>
</svg>
