<?xml version="1.0" encoding="UTF-8"?>
<svg id="Capa_26" data-name="Capa 26" xmlns="http://www.w3.org/2000/svg" viewBox="0 0 1000 1000">
  <path d="m661.17,515.57c2.86,7.08,4.61,14.02,9.22,19.65.28.34.67.66.43,1.16-.34.68-1,.82-1.68.89-2.13.22-3.76-1.09-5.91-2.04,1.85,9.29,3.1,18.4,7.58,27.04-5.74-1.09-11.16-.75-16.57.17-1.83.31-3.62.77-5.23,1.73-1.22.72-1.46,1.5-.2,2.56,1.58,1.33,3.03,2.82,4.5,4.27.34.34.87.73.53,1.32-.26.44-.79.28-1.22.29-4.26.19-4.24.18-2.28,3.87.97,1.83,1.79,3.73,2.76,5.56.89,1.67.44,2.21-1.41,2.12-9.75-.48-19.32.7-28.74,3.18-10.21,2.69-19.89,6.65-29.06,11.89-1.31.75-1.37,1.2-.15,2.11,2.7,1.99,5,4.39,6.67,7.33.76,1.33.78,2.32-1.17,2.15-10.1-.88-18.17,3.79-25.75,9.58-11.95,9.13-21.77,20.39-31.35,31.88-4.9,5.88-11.2,10.04-17.62,14.02-5.5,3.42-11.45,5.85-17.78,7.26-2.11.47-4.26.43-6.37-.08-1.01-.24-1.98-.48-3.05-.19-9.17,2.5-17.73.21-26.01-3.56-9.87-4.49-18.13-11.36-26.23-18.41-5.02-4.36-9.88-8.81-14.15-13.99-5.98-7.25-13.72-12.53-21.59-17.58-4.71-3.02-9.81-5.48-13.83-9.54-1.04-1.05-2.52-1.51-4.05-1.6-2.59-.16-5.17-.1-7.75.2-.73.08-1.48.21-2.2.15-2.35-.19-2.96-1.45-1.68-3.41,1.28-1.96,3.19-3.27,5-4.67,1.56-1.21,3.18-2.34,5.01-3.68-4.65-1.89-9.21-3.11-13.68-4.59-13.22-4.39-26.94-5.93-40.67-7.5-2.2-.25-4.4-.57-6.52-1.26-2.75-.89-3.28-1.98-2.02-4.64,1.67-3.52,4.27-6.37,6.87-9.21.65-.71,1.37-1.35,2-2.08.51-.6,1.61-1.03,1.38-1.85-.29-1.03-1.55-1.05-2.45-1.2-3.66-.61-7.21.3-10.75,1-3.97.78-7.88,1.8-12.43,2.86,1.93-2.99,3.02-5.73,3.94-8.56,2.44-7.46,4.21-15.08,5.97-22.72.46-1.99.21-2.16-1.87-1.6-2.21.6-4.42,1.18-6.65,1.72-.47.11-1.12.21-1.41-.32-.34-.6.23-.96.61-1.26,3.06-2.39,4.9-5.71,6.75-8.99,3.01-5.35,5.64-10.89,7.96-16.58.86-2.1,1.07-4.11-.53-6.28-.92,1.91-1.69,3.69-2.61,5.39-1.57,2.88-3.36,5.6-6.49,7.05-2.24,1.03-2.9.6-3.04-1.83-.31-5.43-.63-10.85-.96-16.51-1.72,2.54-3.26,4.86-4.86,7.14-.58.83-1.16,1.45-1.75-.14-5.03-13.63-12.63-25.82-20.78-37.76-5.04-7.38-9.86-14.9-15.33-21.98-16.33-21.12-33.3-41.71-50.83-61.85-8.09-9.29-13.83-20.08-18.92-31.19-11.96-26.07-20.97-53.19-28.16-80.91-2.67-10.29-4.58-20.76-6.95-31.13-3.47-15.23-8.32-30.03-14.17-44.51-2.19-5.41-4.17-10.91-6.03-16.44-3-8.91-8.31-16.45-13.81-23.9-2.28-3.09-4.57-6.16-5.6-9.99-1.58-5.9.56-11.65,5.83-14.83,5.87-3.55,12.52-4.63,19.09-6.12,10.21-2.31,19.12,1.31,27.91,5.46,9.97,4.71,19.15,10.88,28.62,16.5,31.84,18.88,62.59,39.45,91.34,62.73,21.28,17.24,44.18,32.26,65.4,49.53,7.39,6.02,14.91,11.89,22.26,17.97,5.86,4.85,12.31,8.97,18.06,13.98,4.86,4.23,9.61,8.56,13.07,14.09.91,1.46,1.65,3,1.76,4.73.07,1.11-.36,1.78-1.6.95-1.97-1.33-4.16-2.25-6.32-3.22-.62-.28-1.22-.59-1.55-1.19-3.35-6-8.54-10.22-14.11-13.87-18.66-12.25-35.1-27.34-52.78-40.84-7.06-5.39-14.59-10.09-21.89-15.14-7.31-5.06-14.25-10.62-20.58-16.84-11.93-11.72-25.1-21.85-39.26-30.65-14.02-8.71-26.89-19.07-40.79-27.94-14.4-9.19-29.11-17.84-44.1-26.05-11.88-6.51-23.67-5.52-35.75-1.25-.18.06-.32.25-.58.47,14.2,8.74,28.85,16.78,39.37,30.59-1.35.34-1.67-.4-2.15-.78-11.5-8.98-23.36-17.41-36.68-23.57-2.69-1.24-5.44-2.26-8.4-2.74-1.96-.32-2.25.57-1.89,2.08.37,1.52.92,3.02,2.01,4.15,6.28,6.49,10.45,14.28,13.99,22.47,2.79,6.46,6.62,12.38,9.67,18.7,7.69,15.94,12.87,32.69,16.74,49.92,5.53,24.66,11.99,49.06,19.83,73.12,6.5,19.94,13.93,39.42,23.61,58.03,3.65,7.01,8.91,12.88,13.92,18.89,14.44,17.32,29.3,34.27,44.26,51.14,14.56,16.42,26.35,34.71,35.45,54.71.4.88.66,2.66,1.59,2.32,1.34-.49-.14-1.7-.18-2.63-.02-.51-.04-1.05.1-1.53,1.73-5.88,2.3-11.85,1.67-17.97-.27-2.63-.4-5.33.73-7.87.43-.97.75-2.04,2.16-2.88-.81,15.56,1.67,30.46,3.83,46.09,2.25-3.21,4.14-5.9,6.03-8.58,1.37-1.95,1.94-2.05,3.51-.24,3.31,3.82,3.67,8.44,3.26,13.18-.26,2.97-1.11,5.84-2.7,8.38-1.01,1.61-1.21,3.23-1.19,5.05.11,9.78-.69,19.49-2.41,29.11-.24,1.35.01,1.86,1.44,1.98,6.43.53,12.39,2.74,18.21,5.33,3.15,1.4,3.65,3.01,2.49,6.25-1.26,3.5-3.17,6.67-5.12,9.81-.26.42-.79.89-.37,1.37.22.25.83.26,1.24.21,13.8-1.66,26.68,1.95,39.3,6.91,8.07,3.17,15.78,7.08,23.16,11.62.53.32,1.48.44,1.4,1.22-.07.74-1.02.7-1.57,1.01-2.13,1.21-4.07,2.66-6.03,4.57,2.51,1.1,4.86,2.09,7.02,3.47,7.2,4.6,13.57,10.22,19.85,15.97,11.45,10.49,22.31,21.6,33.36,32.52,3.73,3.69,8.43,5.8,13.2,7.79-1.81-1.76-4.07-3.05-5.27-5.47,1-.35,1.37.37,1.88.7,6.82,4.28,14.21,6.86,22.23,7.59,9.62.87,17.96-2.71,25.97-7.44.45-.26.85-.61,1.31-.83.97-.46,1.84-2,2.77-1.41,1.08.68-.37,1.96-.25,3.43,3.01-1.67,5.93-3.11,8.35-5.4,7.97-7.52,15.19-15.75,22.66-23.75,6.01-6.44,12.14-12.74,19.22-18.04,4.34-3.25,9.01-5.89,14.62-7.28-1.69-1.41-3.59-1.83-5.15-2.85-.49-.32-1.04-.58-1.52-.91-2.4-1.62-2.36-2.79.28-4.05,15.23-7.28,30.71-13.9,47.35-17.31,4.64-.95,9.32-1.64,14.08-1.53.5.01,1.22.03,1.45-.26.46-.57-.29-1.02-.5-1.54-.58-1.38-2.37-2.08-2.16-3.93.14-1.23.52-2.27,1.5-3.09,1.53-1.28,1.51-2.35-.31-2.88-2.39-.69-1.43-1.59-.47-2.64,4.92-5.38,11.18-7.59,18.31-7.32,2.04.08,2.55-.5,2.52-2.4-.1-7.07-1.64-13.92-2.97-20.81-.46-2.39-1.05-4.76-1.52-7.16-.1-.51-.65-1.18.05-1.6.52-.31.93.29,1.37.52.45.23.88.5,1.75,1-.61-2.08-1.08-3.74-1.59-5.39-1.47-4.81-2.96-9.61-4.44-14.41-.17-.55-.57-1.19-.1-1.67.55-.57,1.26-.15,1.86.07,1.84.67,3.24,2,4.99,3.66-1.43-6.01-2.71-11.57-4.1-17.1-.47-1.88-.52-3.24,1.09-4.9,3.15-3.23,4.05-7.64,4.83-11.95,1.26-6.96.94-14,.96-21.01,0-3.74-1.64-7.19-2.05-10.86-.24-2.14-.49-4.27.26-6.36.15-.42.36-.91.85-.9.56.02.59.58.64,1.01.57,4.75,2.33,9.13,4.06,13.55,1.61,4.12.95,8.48.68,12.74-.29,4.64-.88,9.26-1.8,13.83-.14.71,0,1.34.32,1.92,2.97,5.2,6.08,10.32,9.75,15.06.26.34.62.61,1.24,1.2.39-2.44.68-4.58,1.08-6.7,1.3-6.95,4.57-12.75,10.14-17.18,1.97-1.56,2.09-1.51,3.04.73,1.35,3.2,2.52,6.48,4.4,9.43.43.67.74,1.46,1.73,1.9.45-1.77.16-3.51.15-5.22-.01-6.14.07-12.25,1.78-18.24,1.34-4.72,3.86-8.79,6.63-12.72,8.79-12.42,19.02-23.54,30.21-33.85,17.32-15.95,31.3-34.34,40.78-56.1,4.57-10.5,10.65-20.28,16.19-30.31,5.33-9.64,10.78-19.23,14.92-29.46,4.79-11.84,7.66-24.21,9.36-36.84,1.06-7.83,1.85-15.69,2.84-23.53,1.23-9.68,4.3-18.85,7.91-27.86,5.96-14.86,13.62-28.86,21.58-42.72,4.13-7.18,7.69-14.66,11.03-22.24.76-1.71,1.04-3.52,1.27-5.36.17-1.38-.41-1.93-1.69-1.98-1.82-.08-3.51.38-5.13,1.17-6.68,3.25-12.57,7.75-18.74,11.81-8.22,5.41-16.28,11.03-23.49,17.78-3.73,3.49-7.4,7.03-10.38,11.21-.31.43-.5,1.32-1.24.94-.6-.3-.38-1.07-.2-1.62.79-2.36,2.29-4.29,3.89-6.14,6.31-7.31,13.8-13.35,21.11-19.59,7.36-6.29,14.92-12.32,23.14-18.42-1.72-.24-2.97-.49-4.24-.57-14.52-.96-27.86,2.24-40.35,10.02-23.16,14.42-46.03,29.28-68.92,44.12-17.01,11.03-33.76,22.47-48.98,35.88-19.47,17.15-40.67,31.94-61.73,46.96-4.23,3.02-8.11,6.43-11.66,10.21-3.31,3.52-7.05,6.48-11.02,9.25-3.96,2.76-7.02,6.54-10.35,10-2.56,2.66-5.11,5.34-6.85,8.68-.32.62-.94,1.18-1.55,1.53-.95.54-2.12,1.11-3.12.34-.99-.77-.14-1.78.13-2.64,1.46-4.75,3.45-9.27,5.79-13.65,4.05-7.59,10.09-13.03,17.76-16.76,1.4-.68,2.74-1.49,4.17-2.06,6.13-2.44,11.41-6.1,16.35-10.44,29.5-25.96,60.83-49.59,92.64-72.63,18.4-13.33,37.36-25.75,56.75-37.58,11.67-7.12,22.95-14.9,34.93-21.52,9.02-4.98,18.62-7.86,29.05-7.53,3.57.11,7.08.65,10.45,1.79,5.17,1.76,10.32,3.61,15.42,5.59,4,1.55,4.25,2.49,3.3,6.59-2.21,9.56-7.83,17.48-12.39,25.89-4.75,8.77-10.31,17.15-13.45,26.69-3.98,12.14-8.76,24.01-11.65,36.51-2.14,9.25-3.42,18.59-4.12,28.02-.87,11.73-3.89,22.92-7.39,34.1-4.45,14.22-10.5,27.59-18.52,40.13-7.67,11.97-14.29,24.5-19.96,37.55-2.56,5.9-5.82,11.47-8.91,17.11-2.85,5.2-7.09,9.25-10.98,13.59-6.61,7.37-12.71,15.27-20.24,21.73-11.63,9.99-20.7,22.05-29.35,34.54-3.87,5.59-5.76,11.65-5.29,18.36.48,6.87.15,13.75.33,20.62.04,1.48.06,2.95.49,4.39.13.45.57,1.04,0,1.42-.5.34-.98-.14-1.4-.41-4.51-2.81-7.84-6.7-10.28-11.38-1.36-2.62-2.61-5.29-4.17-8.48-5.21,8.38-10.59,16.17-10.97,26.75-6.31-7.13-10.32-15.15-14.48-22.85-3.99,5.06-2.94,10.77-2.04,16.44.83,5.24,1.27,10.58,3.78,15.42.67,1.3-.41,1.33-1.19,1.41-1.83.19-3.41-.73-5.65-1.54Z"/>
  <path d="m391.8,745.63c-4.25,9.83-8.58,19.78-12.83,29.77-.61,1.43-1.23,2.42-3.01,2.3-1.94-.14-3.81.36-4.94-2.19-3.88-8.79-8-17.47-12.03-26.19-.39-.84-.79-1.68-1.23-2.62-.65.69-.42,1.3-.4,1.84.17,6.65-.09,13.31.38,19.96.1,1.35.42,2.38,1.52,3.24,1.45,1.14,2.82,2.39,4.16,3.66.56.53,1.7.91,1.42,1.77-.3.93-1.42.48-2.18.49-7.02.03-14.05.02-21.07.02-2.66,0-5.32.02-7.99-.02-.62,0-1.47.26-1.77-.51-.25-.64.39-1.1.82-1.44,4.31-3.41,5.26-7.84,5.27-13.22.02-10.64.17-21.29.39-31.93.03-1.54-.43-2.19-1.86-2.7-7.23-2.6-14.43-5.3-21.62-8-.79-.3-1.72-.4-2.34-1.3.9-.9,2.12-1.03,3.18-1.41,12.59-4.51,25.21-8.93,37.77-13.53,2-.73,2.7-.15,3.49,1.52,5.52,11.7,11.1,23.36,16.67,35.04.29.6.56,1.21.87,1.79.42.78.87.68,1.26-.03.29-.52.54-1.05.8-1.58,5.4-10.68,10.82-21.36,16.19-32.06.65-1.3,1.4-2.16,2.99-2.15,10.2.03,20.41.01,30.61.02.35,0,.7.12,1.25.22-.42,1.25-1.44,1.78-2.22,2.46-3.74,3.25-7.49,6.49-11.28,9.67-1.18.99-1.65,2.09-1.64,3.64.06,15.31.06,30.61.03,45.92,0,1.45.38,2.53,1.5,3.48,1.29,1.1,2.5,2.3,3.67,3.54.56.6,1.82,1.05,1.35,2.02-.42.87-1.61.44-2.46.44-6.43.03-12.87.02-19.3.02-3.48,0-6.95,0-10.43-.01-.56,0-1.32.2-1.53-.53-.17-.58.46-.93.88-1.15,5.44-2.69,5.7-7.63,5.65-12.76-.06-5.83-.01-11.67-.01-17.46Z"/>
  <path d="m494.92,422.22c-.72-.27-.88-.98-1.21-1.53-5.73-9.49-11.44-18.99-17.16-28.49-9.31-15.44-18.62-30.88-27.94-46.32-.42-.7-.77-1.44-1.24-2.1-.7-.97-.5-1.69.33-2.49,7.11-6.9,14.18-13.83,21.27-20.75,7.89-7.69,15.82-15.33,23.64-23.08,1.26-1.25,1.95-1.25,3.15,0,14.41,14.96,28.86,29.88,43.33,44.78,1.11,1.14,1.23,2.04.4,3.46-14.43,24.95-28.81,49.93-43.22,74.89-.34.6-.49,1.43-1.36,1.62Zm-.56-8.87c0-10.58,0-20.53,0-30.48,0-.85-.36-1.59-.79-2.28-.85-1.36-1.31-2.61.21-3.88.82-.69.6-1.78.6-2.72.01-6.51-.06-13.01.04-19.52.03-2.05-.29-3.78-1.96-5.12-1.45-1.16-1.32-2.32.14-3.39,1.84-1.35,2.33-3.14,2.26-5.4-.29-8.42-.37-16.85-.59-25.27-.09-3.66-.33-7.31-.51-11.27-.51.47-.79.68-1.01.94-10.19,11.8-20.37,23.62-30.6,35.39-1.08,1.24-1.17,2.24-.46,3.74,8.07,17.03,16.07,34.09,24.09,51.14,2.76,5.86,5.54,11.71,8.58,18.12Z"/>
  <path d="m563.76,833.23c0,10.5,0,20.99,0,31.49q0,3.48-3.58,3.48c-4.07,0-8.13-.09-12.2-.01-1.72.03-2.85-.54-3.9-1.94-7.99-10.64-16.06-21.22-24.1-31.81-.54-.71-1.05-1.44-1.62-2.11-.35-.41-.56-1.26-1.29-.94-.64.28-.37,1.05-.37,1.61.01,2.81-.08,5.63.13,8.42.34,4.5.38,9.01.4,13.51,0,1.48.61,2.47,1.73,3.37,3.41,2.72,6.76,5.51,10.12,8.29.38.31,1.01.56.86,1.17-.17.67-.86.44-1.33.44-9.98.01-19.96-.03-29.94.04-2.44.02-2.15-1.55-1.97-3,.79-6.4.7-12.83.92-19.25.44-12.64.46-25.27-.09-37.9-.1-2.29-.24-4.57-.44-6.85-.12-1.33.27-2.14,1.7-2.28,5-.48,9.99-.97,14.99-1.48,1.08-.11,1.55.62,2.1,1.34,8.57,11.4,17.14,22.8,25.77,34.16.74.98,1.3,2.9,2.81,2.33,1.6-.61.79-2.45.71-3.78-.38-6.12-.02-12.27-.52-18.39-.13-1.63-.67-2.75-1.91-3.75-3.93-3.13-7.81-6.33-11.68-9.53-.46-.38-1.38-.65-1.07-1.45.24-.62,1.05-.4,1.61-.4,9.91-.01,19.81.02,29.72-.03,1.91,0,2.55.74,2.54,2.64-.07,10.87-.03,21.73-.03,32.6h-.02Z"/>
  <path d="m454.96,868.22h-2.4c-9.24,0-18.48,0-27.72,0-3.33,0-3.42-.01-3.19-3.32,1.17-17.27.91-34.57.85-51.86-.01-4-.36-7.97-.59-11.95-.09-1.46.39-2.04,1.74-2.17,4.92-.5,9.88-.62,14.77-1.42,1.39-.23,1.89.95,2.54,1.8,8.55,11.32,17.08,22.66,25.65,33.98.67.89,1.16,2.5,2.54,2.06,1.43-.46.78-2.06.77-3.15-.1-6.5-.32-13-.43-19.5-.02-1.24-.53-2.03-1.47-2.78-3.92-3.14-7.8-6.34-11.67-9.54-.66-.54-1.52-.93-1.8-1.88.67-.72,1.53-.48,2.31-.48,9.46-.02,18.92-.02,28.39,0,3.07,0,3.14.08,3.14,3.08,0,21.36,0,42.73-.02,64.09,0,2.99-.02,3.01-2.92,3.01-4.21,0-8.43-.1-12.64,0-1.84.04-2.97-.67-4.05-2.1-8.35-11.11-16.77-22.16-25.17-33.22-.27-.35-.51-.74-.82-1.04-.25-.24-.62-.55-.9-.52-.57.06-.51.64-.5,1.06.09,2.14.23,4.28.3,6.42.17,5.1.43,10.19.41,15.29,0,2.17.76,3.59,2.41,4.86,2.98,2.31,5.86,4.74,8.75,7.16.6.5,1.4.83,1.75,2.13Z"/>
  <path d="m570.3,707.91c-3.66,3-6.88,5.97-10.43,8.45-3.79,2.64-6.23,6.21-8.31,10.16-.69,1.31-1.51,2.54-2.2,3.85-.65,1.23-1.25,1.32-2.35.37-3.32-2.88-7.01-5.11-11.27-6.44-6.64-2.07-14.29.76-17.53,6.89-3.66,6.93-3.69,14.04-.18,21.07,2.08,4.16,5.66,6.38,10.18,6.96,4.61.6,9.13-.02,13.54-1.54,1.2-.41,1.54-.94,1.56-2.37.1-5.5-3.13-8.94-6.82-12.26-1.09-.98-3.17-2.01-2.67-3.37.38-1.04,2.69-.36,4.13-.37,7.54-.05,15.08.03,22.62-.06,1.92-.02,2.65.63,2.65,2.53.01,11.01.07,22.03.16,33.04.01,1.66-.51,2.08-2.1,1.51-3.07-1.11-6.32-1.5-9.52-2.02-1.75-.28-3.29.69-4.93,1.07-5.53,1.3-11.01,3.02-16.77,2.71-17.12-.92-30.95-11.31-33.61-29.16-1.12-7.53-1.26-14.9,1.87-21.97,5.16-11.67,14.31-18.4,26.57-21.39,6.26-1.53,12.16-.35,18.06,1.5,1.36.43,2.7.67,4.12.66,7.39-.05,14.78-.07,22.17-.09.2,0,.4.1,1.06.28Z"/>
  <path d="m490.74,777.61c-4.66,0-9.32-.05-13.97.03-1.51.02-2.26-.5-2.67-1.98-.69-2.49-1.66-4.9-2.39-7.38-.38-1.29-1.1-1.72-2.41-1.72-6.21.04-12.42.04-18.63-.01-1.33-.01-2,.52-2.41,1.76-.8,2.38-1.85,4.68-2.56,7.08-.52,1.75-1.5,2.27-3.23,2.24-5.25-.08-10.5-.01-15.75-.04-2.51-.01-2.65-.19-1.81-2.5,5.63-15.48,11.29-30.96,16.94-46.43.63-1.73,1.2-3.5,1.9-5.2.63-1.54.26-2.13-1.45-2.16-3.4-.06-6.79-.26-10.19-.43-.54-.03-1.33.27-1.54-.47-.2-.69.58-.95,1.02-1.29,5.04-3.99,10.11-7.94,15.14-11.96,1.04-.83,2.09-1.24,3.43-1.22,5.4.05,10.79.08,16.19-.01,1.68-.03,2.48.59,3.09,2.14,7.28,18.49,14.65,36.96,21.95,55.44.59,1.5,1.43,2.67,2.72,3.65,3.64,2.79,7.22,5.65,10.79,8.52.53.43,1.61.73,1.36,1.53-.26.83-1.29.42-1.97.43-4.51.03-9.02.02-13.53.02v-.05Zm-30.74-45.86c-.15,0-.3-.01-.45-.02-1.73,5.32-3.45,10.65-5.18,15.97-.29.9-.62,1.78.92,1.75,2.8-.04,5.6-.03,8.41-.05,1.13,0,1.36-.53,1.05-1.58-1.61-5.35-3.17-10.72-4.75-16.08Z"/>
  <path d="m598.22,798.35c11.09.25,22.17-.23,33.25-.44.77-.02,1.87-.44,2.24.37.42.91-.75,1.3-1.3,1.79-5.38,4.73-10.82,9.4-16.2,14.15-1.03.91-2.08,1.28-3.41,1.2-5.38-.32-10.76-.64-16.15-.87-2.64-.11-3.41.71-3.57,3.34-.4,6.46-.25,6.67,6.17,6.58,6.35-.09,12.71-.27,19.06-.52,1.51-.06,2.12.4,2.28,1.91.48,4.46,0,8.84-.86,13.2-.3,1.51-1.02,1.98-2.63,1.85-7.16-.58-14.33-.35-21.5-.24-1.91.03-2.64,1.06-2.49,2.86.06.66.22,1.32.22,1.98.03,4.73-.12,4.77,5.45,5.47,7.5.94,15.04.84,22.55-.04,2.48-.29,2.97.18,2.58,2.58-.66,4.01-1.41,8-1.94,12.02-.27,2.02-1.38,2.85-3.18,3.02-1.25.11-2.51.06-3.77.06-13.53,0-27.06-.03-40.59.01-1.89,0-2.58-.11-2.16-2.51.72-4.2.77-8.52.99-12.8.72-13.81.69-27.63.43-41.46-.06-3.39-.58-6.77-.93-10.14-.3-2.84.13-3.37,3.06-3.37,7.47-.01,14.93,0,22.4,0Z"/>
  <path d="m387.35,868.61c-7.32,0-14.64-.01-21.96.01-1.54,0-2.05-.11-1.73-2.11.7-4.36.82-8.82,1.05-13.24.73-13.81.69-27.64.42-41.46-.07-3.46-.61-6.91-.98-10.37-.26-2.41.26-3.09,2.73-3.09,14.35-.04,28.69-.04,43.04-.07,1.75,0,2.83.66,2.96,2.53.32,4.34.59,8.69,1.02,13.03.17,1.66-.43,2.09-1.95,2-6.93-.42-13.88-.63-20.8-1.22-5.93-.5-6.63-.06-6.69,5.79-.04,3.6.45,4.16,4.08,4.09,7.02-.13,14.04-.33,21.06-.57,1.39-.05,2.3.1,2.4,1.75.27,4.44.24,8.85-.79,13.22-.37,1.58-1.02,2.15-2.74,2.01-7.16-.57-14.33-.32-21.5-.23-1.83.02-2.52,1.01-2.41,2.69.11,1.69.29,3.38.42,5.08.11,1.42,1.13,1.82,2.27,2.01,2.98.52,5.98,1.03,9.01,1.06,5.69.05,11.38.26,17.03-.72,1.77-.31,2.48.61,2.2,2.33-.66,4.01-1.31,8.02-2.01,12.02-.49,2.79-1.26,3.45-4.16,3.46-7.32.03-14.64.01-21.96,0Z"/>
  <path d="m666.4,741.69c-.76,4.34-1.53,8.69-2.28,13.04-1.06,6.18-2.1,12.37-3.15,18.56-.07.42.03.97-.44,1.17-.67.29-.87-.39-1.18-.75-2.44-2.74-2.45-2.77-5.48-.81-17.96,11.58-47.02,3.08-51.76-23.6-1.48-8.32-.39-16.27,2.57-23.91,4.82-12.44,14.85-18.41,27.48-20.72,5.33-.97,10.44.15,15.48,1.67,1.29.39,2.57.6,3.91.59,7.02-.02,14.05-.01,21.07,0,.77,0,1.59-.18,2.68.47-2.32,1.91-4.36,3.81-6.62,5.38-5.95,4.14-10.55,9.35-13.64,15.95-1.24,2.65-1.45,2.56-3.69.73-3.06-2.5-6.38-4.51-10.21-5.65-6.09-1.81-11.68-.14-15.71,4.77-5.34,6.5-5.81,16.9-1.09,23.86,3.92,5.77,10.43,8,17.35,6.03,5.26-1.5,9.54-4.58,13.58-8.11,3.48-3.04,7.04-6.01,10.56-9,.18.11.37.22.55.33Z"/>
  <path d="m704.64,798.27c-2.91,2.38-5.42,4.69-8.18,6.62-4.9,3.43-8.52,7.82-11.2,13.15-2.04,4.05-2.2,3.96-5.77,1.24-3.33-2.54-6.96-4.6-11.14-5.17-6.54-.89-11.54,1.71-14.92,7.35-3.37,5.63-3.74,11.66-1.7,17.73,3.18,9.46,12.59,13.19,22.2,9.16,5.59-2.34,9.83-6.48,14.35-10.27,2.3-1.93,4.58-3.87,7.16-6.05.38,2.94-.54,5.33-.91,7.73-1.15,7.51-2.53,14.99-3.83,22.49-.13.73-.29,1.45-.46,2.17-.23.98-.66,1-1.35.33-.96-.92-1.33-2.85-2.86-2.66-1.19.15-2.26,1.3-3.39,2.01-17.38,11-46.92,2.76-51.12-24.47-1.57-10.21-.21-20.14,5.33-29.04,6.39-10.26,22.82-19.61,40.27-13.41,1.35.48,2.7.67,4.12.66,6.87-.02,13.75-.02,20.62,0,.78,0,1.6-.16,2.78.43Z"/>
  <path d="m321.65,869.07c-4.36,0-8.72,0-13.08,0-1.34,0-2.24-.24-1.5-1.9.44-.98.14-2.05.14-3.07.01-16.71-.02-33.41.05-50.12,0-1.59-.49-2.59-1.67-3.55-4.63-3.8-9.2-7.67-13.76-11.54-.46-.39-1.4-.7-1.04-1.48.32-.72,1.19-.37,1.81-.32,12.67,1.02,25.35,1.89,38.06,1.58,7.52-.18,15.06-.39,22.56-1.17,3.1-.32,3.85.29,4.17,3.34.41,3.96.84,7.93,1.27,11.89.24,2.25-.12,2.67-2.34,2.56-7.37-.38-14.75-.79-22.12-1.17-.96-.05-1.92-.04-2.88-.04-.85,0-1.63.28-2.23.84-2.33,2.2-1.24,4.85-.7,7.29.41,1.84,2.08,2.35,3.85,2.3,6.43-.16,12.86-.25,19.28-.52,2.06-.09,2.92.71,3.32,2.62.92,4.41.79,8.79,0,13.2-.3,1.7-1.07,2.35-2.84,2.24-6.79-.4-13.59-.55-20.39-.46-3.37.05-3.96.65-3.9,4.08.08,4.58.02,9.16.35,13.74.11,1.45.57,2.52,1.71,3.4,1.93,1.49,3.82,3.04,5.7,4.58.42.34,1.21.57.88,1.32-.25.55-.91.35-1.41.36-4.44.01-8.87,0-13.31,0Z"/>
  <path d="m583.91,777.65c-2.51,0-5.02.02-7.54,0-2.42-.02-3.75-1.4-3.37-3.79,1.25-7.84,1.1-15.74,1.23-23.64.21-12.92.54-25.85.46-38.77-.02-3.97,1.01-4.94,4.98-4.94,9.01,0,18.03-.01,27.04.02.75,0,1.9-.46,2.17.47.25.89-.97,1.14-1.57,1.61-3.42,2.69-6.82,5.43-10.36,7.97-2.09,1.5-2.88,3.47-2.93,5.86-.29,12.85-.23,25.7.22,38.55.16,4.72.13,9.45.22,14.18.03,1.78-.79,2.53-2.57,2.49-2.66-.06-5.32-.02-7.98-.01Z"/>
  <path d="m539.92,382.37c-.24-1.82.84-2.14,1.76-2.59,9.1-4.43,18.21-8.86,27.31-13.28,1.99-.97,4.03-1.86,5.96-2.95,1.38-.78,1.99-.53,2.61.93,4.09,9.58,8.27,19.13,12.42,28.68.71,1.63,1.25,3.35,2.17,4.85.88,1.44.46,2.12-.75,3.02-11.18,8.26-22.31,16.58-33.45,24.88-2.9,2.16-5.8,4.34-8.71,6.5-1.89,1.4-2.11,1.31-2.46-1.09-1.19-8.19-2.36-16.37-3.51-24.57-1.09-7.75-2.15-15.51-3.22-23.26-.07-.51-.11-1.03-.12-1.11Zm34.82-14.22c-7.83,4.47-15.03,8.86-22.49,12.73-3.77,1.95-5.1,4-4.68,8.5,1,10.88,1.12,21.84,1.62,32.76.07,1.48.27,2.95.46,4.91,4.52-8.08,8.78-15.69,13.02-23.3.18-.32.42-.74.34-1.03-.55-2.02.63-3.39,1.72-4.78,1.22-1.54,1.82-3.14,1.15-5.13-.5-1.48.13-2.53,1.56-3.21.98-.47,1.97-.95,2.3-2.22,1.58-6.21,3.22-12.41,5-19.23Z"/>
  <path d="m495.34,648.09c-1.55,0-3.1.01-4.65,0-.96,0-1.36-.23-.77-1.32,2.1-3.9.18-8.66-4.1-10.1-3.46-1.17-6.69-2.71-9.54-5.03-8.79-7.17-6.74-17.65.15-23.84,3.95-3.55,8.9-4.93,14.03-5.44,6.77-.67,13.46-.14,19.72,2.83,8.51,4.04,11.8,13.99,7.49,22.33-2.1,4.07-5.57,6.57-9.88,7.61-4.47,1.08-6.04,4.63-7.8,8.11-.43.84.1,1.72.47,2.54q1.07,2.32-1.56,2.34c-1.18,0-2.36,0-3.55,0h0Zm7.79-40.8c-.39.23-.73.37-1,.58-3.71,2.95-3.67,5.11.13,7.66.49.33.98.66,1.48.99,2.6,1.71,2.78,1.68,4.51-.9q2.23-3.34-1.03-5.6c-1.33-.92-2.7-1.8-4.09-2.73Z"/>
  <path d="m446.9,375.08c-.71,5.79-1.41,11.57-2.13,17.35-1.14,9.15-2.33,18.3-3.43,27.45-.52,4.31-.45,4.31-4.11,2.03-12.41-7.74-24.8-15.5-37.25-23.17-1.76-1.08-2.35-2.01-1.71-4.2,3.27-11.19,6.3-22.46,9.42-33.69.96-3.47.95-3.42,4.36-1.95,10.85,4.67,21.72,9.28,32.57,13.96,1.01.43,2.43.57,2.27,2.22Zm-33.97-11.16c-.13.11-.26.23-.4.34.2.53.38,1.07.61,1.59,2.51,5.5,5.09,10.98,7.53,16.52.83,1.88,1.71,3.58,3.73,4.4.89.36,1.27,1.08.86,1.96-.59,1.26-.03,2.28.51,3.34,4,7.99,7.98,15.98,11.98,23.96.23.46.28,1.11.92,1.33.37-12.48.74-24.87,1.13-37.25.04-1.38-.52-2.14-1.72-2.75-3.41-1.75-6.76-3.64-10.14-5.45-5-2.67-10.01-5.32-15.01-7.98Z"/>
  <path d="m436.22,538.2c4.66-4.59,8.5-9.34,12.13-14.27,3.73-5.08,6.77-10.56,9.32-16.34,1.88-4.26,1.51-8.14-1.37-11.85-3-3.85-5.8-7.84-8.34-12.02-.37-.6-.98-1.13-.83-1.99.8-.27,1,.44,1.35.83,3.76,4.09,7.14,8.48,10.46,12.92,4.84,6.47,4.9,10.36.57,17.17-5.08,7.99-9.89,16.19-13.09,25.12-2.76,7.7-4.8,15.67-5.04,23.95,0,.18-.14.36-.42,1.06-1.07-3.67-1.98-6.9-2.95-10.11-2.34-7.79-4.91-15.5-8.53-22.81-1.81-3.67-4.19-6.65-7.89-8.94-8.92-5.53-18.73-8.07-28.75-10.55-14-3.47-26.22-10.33-35.67-21.52-5.51-6.53-8.59-14.1-9.15-22.62-.11-1.73-.82-2.45-2.28-3.01-5.47-2.13-10.59-4.91-15.3-8.41-1.73-1.28-3.37-2.68-4.48-4.53.12-.14.25-.28.37-.42.9.57,1.78,1.17,2.69,1.72,8.81,5.37,18.57,8.35,28.4,11.09,5.12,1.43,10.32,2.55,15.47,3.9,4.33,1.14,8.15,3.46,12.05,5.56,16.73,8.97,28.88,22.41,38.43,38.62,5.09,8.63,9.88,17.31,12.84,27.44Zm-13.75-20.78c-.25-.36-.49-.72-.74-1.08-8.26-11.74-18.01-22.09-29.25-31-11.46-9.09-24.04-16.07-38.2-20.03-1.43-.4-1.84-.36-1.86,1.36-.07,8.33,3.29,15.13,8.8,21.13,7.93,8.64,17.4,14.48,28.7,17.95,10.96,3.37,22.37,5.71,32.56,11.67Z"/>
  <path d="m535.55,481.7c.25.92-.45,1.49-.85,2.14-2.54,4.08-5.28,8.03-8.23,11.82-3.07,3.93-3.21,7.95-1.24,12.45,4.7,10.71,11.62,19.85,19.5,28.36.45.49.82,1.04,1.33,1.69.93-.99,1.01-1.97,1.28-2.83,4.15-13.24,11.74-24.64,19.48-35.91,10.18-14.81,24.21-25.01,40.56-31.95,5.24-2.23,11.11-2.96,16.67-4.47,11.14-3.04,22.18-6.35,31.93-12.86.14-.09.39-.01.8-.01-1.12,2.13-2.86,3.46-4.6,4.76-4.4,3.3-9.2,5.96-14.29,7.96-2.23.87-3.08,1.94-3.3,4.39-1.01,11.43-6.61,20.53-15.14,27.91-10.44,9.01-22.66,14.28-36.13,16.85-6.5,1.24-12.43,3.97-18.42,6.78-7.25,3.39-11.19,8.99-13.97,16.03-3.21,8.12-5.88,16.4-8.22,24.8-.2.73-.05,1.66-1.16,2.22-.14-1.39-.24-2.66-.39-3.94-1.89-16.48-8.86-30.96-17.61-44.75-.67-1.06-1.35-2.12-1.91-3.24-2.28-4.59-1.98-8.93,1.17-13.1,3.7-4.89,7.4-9.78,11.51-14.34.32-.36.54-.92,1.24-.75Zm24.79,35.82c3.9-1.88,7.62-4.05,11.72-5.37,7.03-2.27,14.13-4.33,21.12-6.74,5.49-1.89,11.22-3.3,16.02-6.88,4.58-3.41,8.92-7.07,12.78-11.29,5.35-5.85,8.43-12.58,8.29-20.66-.03-1.56-.39-1.68-1.75-1.3-5.86,1.64-11.51,3.8-16.95,6.49-15.82,7.8-29.07,18.89-40.7,32.03-3.82,4.31-7.42,8.81-10.51,13.72Z"/>
  <path d="m230.29,274.04c.23-2.27-.47-4.43-.14-6.65.12-.77.06-1.83,1.03-2,.91-.17,1.07.88,1.44,1.46,11.26,17.63,22.65,35.18,34.79,52.23,5.49,7.71,11.13,15.3,17.37,22.44,2.3,2.64,5.03,4.77,7.78,6.9,2.45,1.91,4.76,3.99,6.48,6.63.49.75.87,1.55.99,2.45.07.55-.11,1.03-.57,1.36-.51.37-1.04.22-1.42-.16-3.33-3.31-7.95-4.13-11.94-6.18-2.23-1.14-4.48-2.23-5.96-4.53,2.48.51,4.78,1.72,7.86,2.22-17.76-21.72-35.97-42.3-51.25-65.58.56,2.8,1.05,5.3,1.54,7.76-.58.25-.81-.05-1.01-.36-5.46-8.44-11.01-16.82-15.54-25.83-1.77-3.52-2.82-7.18-2.89-11.05-.29-15.33-4.98-29.32-12.6-42.45-.21-.36-.56-.71-.2-1.48,4.44,4.84,9.1,9.31,11.13,15.73,2.61,8.26,4.08,16.79,6.22,25.16,1.59,6.22,3.03,12.49,5.34,18.51.45,1.16,1.01,2.28,1.53,3.41Z"/>
  <path d="m764.61,271.41c1.96-6.22,3.81-12.13,5.69-18.02,4.15-12.94,8.14-25.93,13.35-38.5,1.19-2.87,2.41-5.73,4.37-8.18.8-1,1.61-2.06,3.06-2.33.35,1.13-.3,1.88-.77,2.53-3.41,4.65-4.96,10.05-6.32,15.5-4.36,17.51-9.77,34.69-15.59,51.75-1.09,3.21-2.03,6.47-2.34,10.11-2.08-1.18-2.67-3.34-4.08-5.14-2.8,6.33-6.34,12.06-11.17,16.58-8.4,7.88-13.63,18.15-21.13,26.69-8.05,9.16-15.89,18.52-25.67,25.95-2.44,1.85-4.95,3.62-8.14,4.6.1-1.28.98-1.67,1.58-2.23,8.05-7.63,15.96-15.39,23.23-23.78,2.19-2.52,4.26-5.17,5.77-8.12,4.4-8.59,10.66-15.72,17.05-22.81,5.89-6.54,11.16-13.59,15.65-21.19.6-1.02,1.16-2.06,1.68-3.12q1.51-3.09,3.78-.29Z"/>
  <path d="m374.7,693.54c4.51,0,9.02,0,13.53,0,2.62,0,2.71.12,1.6,2.38-4.6,9.43-9.22,18.86-13.84,28.28-.21.43-.28,1.14-.95,1.05-.68-.09-.76-.85-1.02-1.34-4.45-8.77-8.87-17.54-13.3-26.32q-2.01-3.98,2.43-4c3.84,0,7.69,0,11.53,0v-.05Z"/>
  <path d="m604.39,326.9c-1.75.73-2.68.09-3.4-.91-.74-1.03-1.2-2.2-1.41-3.46-.41-2.51-1.37-3.28-3.92-3.11-1.19.08-2.24.85-3.62.17-.81-.4-.63.68-.4,1.19.81,1.8,1.67,3.58,2.57,5.49-1.64.36-2.71-.57-3.76-1.26-4.03-2.67-7.39-6.1-10.73-9.57-2.04-2.12-4.29-4.03-6.36-5.95.34,2.84,1.23,5.78,2.97,8.81-2.28-.29-3.79-1.41-5.31-2.5-2.51-1.81-4.46-4.33-7.24-5.82-.13-.07-.29-.17-.33-.29-.95-3.36-3.03-2.07-4.94-1.16-7.03,3.33-12.98,1.87-18.16-3.8-1.79-1.96-3.94-3.58-5.85-5.42-1.62-1.57-3.24-1.88-5.4-.93-4.05,1.78-8.17,3.43-12.44,4.66-1.26.36-2.47.45-3.64-.22-.44-.25-1.07-.49-.91-1.08.08-.31.64-.57,1.04-.7,3.57-1.21,7.15-2.39,10.72-3.57,3.16-1.04,6.34-2.01,9.47-3.13,1.4-.5,2.28-.26,3.21.94,2.91,3.73,6.04,7.25,9.7,10.31,3,2.51,6,2.46,9.21.65.9-.51,1.77-1.07,2.67-1.59,3.17-1.83,5.3-1.39,7.37,1.68,1.33,1.98,2.83,3.74,4.94,5.17.42-1.44.04-2.71-.08-4-.08-.8-.24-1.7.59-2.22.84-.53,1.57.07,2.25.46,1.84,1.04,3.13,2.69,4.47,4.26,1.78,2.08,3.71,3.99,5.89,5.68,2.33,1.79,4.79,2.12,7.51,1.14,1.8-.65,3.59-1.42,5.44-1.87,3.85-.94,6.59,1.85,5.64,5.7-.6,2.44-.34,4.54,2.22,6.28Z"/>
  <path d="m670.29,385.98c6.23-13.44,15.52-23.81,28.94-30.86.02,1.55-.79,2.26-1.37,3.02-.67.88-1.37,1.78-2.24,2.45-12.09,9.37-18.53,22.53-24.37,36.11-.28.65-.27,1.73-1.05,1.78-.91.06-.79-1.08-1.07-1.7-2.7-6.07-6.95-11.14-10.66-16.55-.63-.91-1.25-1.83-1.84-2.76-.27-.43-.63-.95-.23-1.42.45-.52.96-.09,1.38.18,4.45,2.87,9.34,5.15,12.5,9.76Z"/>
  <path d="m423.29,312.01c-6.74,10.47-16.57,17.06-25.63,24.61.34-2.34.49-4.58.37-6.82-.03-.57.15-1.33-.52-1.56-.6-.2-.85.49-1.13.89-2.66,3.78-6.2,6.93-8.03,11.34-.74,1.79-2.39,2.98-4.05,4.01-3.09,1.93-6.51,2.95-10.16,3.82,9.03-8.32,16.23-18.02,24.95-26.27.81-.77,1.6-2.22,2.85-1.62,1.2.57.64,2.11.74,3.26.09.99-.98,2.32.02,2.83.85.44,1.7-.91,2.49-1.51,5.35-4.08,10.65-8.21,15.98-12.32.39-.3.7-.79,2.13-.65Z"/>
  <path d="m426.09,318.05c-.39-.76-.02-1.09.21-1.44,4.32-6.36,8.6-12.74,12.99-19.05,1.75-2.52,3.48-2.98,6.35-1.88,1.37.52,2.68,1.24,3.96,1.98,2.11,1.23,4.19,2.48,6.47,3.39,2.28.9,4.65,1.4,7.7,1.76-1.73,1.59-3.29,1.96-5.05,1.68-2.94-.48-5.75-1.49-8.36-2.86-3.54-1.86-6.4-1.18-9.2,1.49-3.87,3.67-7.48,7.57-10.89,11.66-1.16,1.39-2.37,2.72-4.17,3.29Z"/>
  <path d="m348.15,399.09c.26,1.55-.43,2.58-1.11,3.6-2.35,3.52-5.28,6.54-8.31,9.47-.92.89-1.63,1.81-1.92,3.12-.5,2.2-1.63,3.95-4.07,4.45-1.5.31-.99,1.42-.77,2.29.84,3.39,2.45,6.48,3.83,9.66.62,1.42,1.23,2.84,1.83,4.27.17.4.45.89-.02,1.2-.46.31-.81-.14-1.12-.44-1.34-1.3-2.38-2.84-3.21-4.48-2.03-4.01-3.95-8.09-5.9-12.14-.8-1.67-.24-2.89,1.36-3.61.99-.44,2.05-.71,3.25-1.11-.3-.33-.48-.53-.67-.72-.5-.49-1.52-.72-1.26-1.61.2-.7,1.1-.61,1.73-.73,1.97-.38,3.46-1.64,4.95-2.82,3.49-2.74,6.72-5.76,9.82-8.94.5-.51,1.05-.98,1.57-1.46Z"/>
  <path d="m174.42,166.7c2.14,1.87,4.32,3.7,6.43,5.62,6.34,5.78,12.39,11.82,16.95,19.18,1.37,2.21,2.49,4.52,3.18,7.03.13.49.4,1.1-.14,1.4-.3.17-.86,0-1.25-.15-2.55-1.03-4.66-2.38-6.19-4.96-5.74-9.71-11.74-19.26-19.36-27.68.13-.15.25-.3.38-.44Z"/>
  <path d="m662.68,428.77c.31-4.92,1.61-9.17,3.07-13.34.89-2.53.64-4.73-.31-7.05-.87-2.12-1.8-4.2-3.22-6.03-.37-.47-1.11-1-.32-1.68.71-.61,1.22.06,1.73.43,2.97,2.18,5.91,4.43,9.57,5.4.83.22.83.67.41,1.31-4.46,6.82-7.06,14.41-9.1,22.22-.11.42-.14.97-.67,1.03-.68.08-.82-.5-.93-1-.13-.57-.21-1.15-.23-1.28Z"/>
  <path d="m465.02,305.8c.28-1.41,1.1-2.28,1.84-3.13,3.88-4.55,7.8-9.06,11.73-13.57.48-.55,1.08-1,1.67-1.44.46-.34.95-.97,1.54-.67.78.39.03,1.01,0,1.54-.11,2.2.9,4.16,1.49,6.19.51,1.77,1.23,3.48,1.84,5.22.33.93,1.09,2-.36,2.64-1.47.65-1.69-.75-2.2-1.54-.83-1.31-1.51-2.71-2.36-4-1.52-2.33-2.95-2.37-4.67-.14-1.39,1.81-2.46,3.87-4.14,5.46-1.76,1.66-3.61,3.18-6.38,3.46Z"/>
  <path d="m324.17,423.63c-.28,8.68-1.84,17.15-4.22,25.49-.63,2.2-2.55,2.77-4.28,3.45-.97.38-1.52-.53-1.31-1.47.25-1.07.59-2.17,1.16-3.09,3.38-5.43,4.4-11.55,5.27-17.7.58-4.09.92-8.21,1.38-12.32.05-.47-.15-1.19.59-1.22.62-.02.74.66.87,1.13.51,1.87.6,3.79.53,5.72Z"/>
  <path d="m385.47,348.51c-.3.33-.41.56-.57.62-6.09,2.02-12.02,4.51-18.25,6.11-1.23.32-2.12,1-2.94,1.85-2.26,2.35-4.04,5.09-6.05,7.64-.61.78-1.08,1.74-2.26,2.29-.28-1.96.55-3.47,1.16-4.97.89-2.18,2.13-4.23,2.96-6.43,1.06-2.83,3.05-4.09,5.94-4.48,6.29-.85,12.55-1.84,18.83-2.76.32-.05.66.07,1.17.13Z"/>
  <path d="m641.91,362.23c-2.91-2.1-5.37-4.63-6.99-7.81-.93-1.83-2.24-2.94-4.07-3.81-5-2.37-9.92-4.92-14.87-7.42-.44-.22-.97-.38-1.19-.96.37-.71.92-.21,1.31-.1,6.46,1.84,12.91,3.76,19.38,5.56,1.68.47,2.62,1.27,3.03,3.02.9,3.87,2.01,7.69,3.4,11.52Z"/>
  <path d="m331.28,395.63c.82-3.95,1.04-7.55,1.08-11.16.02-1.33-.02-2.66.42-3.94.19-.55.33-1.26,1.04-1.25.79.01.7.8.84,1.34.02.07.02.15.02.22.04,6.27.53,12.55-.32,18.79-.21,1.53-.11,3.71-2.19,3.86-2.23.16-2.43-2.05-2.78-3.64-.3-1.37-1.03-2.42-1.78-3.51-1.25-1.83-2.52-3.66-3.19-5.79-.19-.59-.66-1.47,0-1.84.79-.46,1.03.57,1.41,1.03,1.61,1.99,3.14,4.05,5.45,5.9Z"/>
  <path d="m295.61,360.03c11.26,5.23,19.32,13.95,25.92,24.23-7.87-8.9-19-14.26-25.92-24.23Z"/>
  <path d="m626.72,344.37c-1.48.01-2.7-.65-3.89-1.33-4.2-2.42-7.18-6.04-9.66-10.11-.6-.98,1.18-4.06,2.29-4.05.46,0,.54.37.68.72,2.06,5.17,5.62,9.27,9.52,13.11.36.36.71.73,1.04,1.12.07.08,0,.27,0,.54Z"/>
</svg>