<?xml version="1.0" encoding="UTF-8"?>
<svg id="Capa_40" data-name="Capa 40" xmlns="http://www.w3.org/2000/svg" viewBox="0 0 1000 1000">
  <path d="m362.48,581.29c-3.81-.87-7.62-1.73-11.42-2.61-19.29-4.45-38.58-8.88-57.86-13.37-1.65-.38-3.16-.1-4.73.27-22.09,5.12-44.19,10.21-66.28,15.35-1.41.33-2.57.14-3.83-.58-21.07-11.93-42.16-23.83-63.25-35.72-2.74-1.55-3-2.09-2.49-5.25,3.95-24.58,7.88-49.15,11.81-73.73,1.3-8.15,2.62-16.3,3.86-24.46.24-1.59,1.23-1.94,2.51-2.11,6.03-.8,12.06-1.62,18.09-2.4,16.63-2.15,33.27-4.3,49.91-6.43,16.51-2.11,33.04-4.07,49.53-6.35,5.24-.73,10.2.51,15.25,1.11,13.54,1.59,27.06,3.42,40.58,5.16,12.32,1.58,24.64,3.18,36.96,4.76,10.48,1.34,20.95,2.7,31.44,3.99,1.52.19,2.15.78,2.42,2.34,4.83,28.45,9.1,56.99,13.72,85.48.69,4.23,1.35,8.47,2.04,12.7.53,3.23.38,3.59-2.49,5.22-10.76,6.09-21.52,12.17-32.28,18.26-10.37,5.86-20.74,11.72-31.11,17.6-.74.42-1.48.75-2.38.78Z"/>
  <path d="m611.64,482.03c3.71,3.31,7.27,6.51,10.86,9.68,7.33,6.49,14.68,12.96,22.02,19.45,5.37,4.75,10.74,9.5,16.11,14.25.29.25.59.5.85.78.42.46,1.26.83,1.06,1.48-.27.87-1.21.49-1.86.5-3.91.04-7.82,0-11.73.05-1.57.02-2.8-.52-3.97-1.57-12.69-11.35-25.42-22.65-38.14-33.98-2.96-2.63-5.9-5.28-8.88-7.94-.72.76-.43,1.56-.43,2.28-.02,12.61-.01,25.22-.02,37.84,0,3.2-.2,3.37-3.38,3.34-2.05-.02-4.1-.02-6.15,0-1.35.02-2.04-.56-2.01-1.94.01-.51,0-1.02,0-1.54,0-32.65,0-65.3,0-97.96q0-3.19,3.14-3.19c13.27,0,26.53.01,39.8,0,6.3-.01,11.88,2.2,16.64,6.07,13.68,11.1,15.04,29.78,3.16,42.82-4.98,5.47-11.26,8.45-18.77,8.91-5.32.33-10.63.14-15.94.26-.68.02-1.4-.17-2.34.38Zm-14.14-29.52c0,4.99,0,9.98,0,14.97,0,2.45.17,2.62,2.62,2.62,9.22,0,18.44.03,27.65,0,11.32-.04,19.63-10.59,17.05-21.62-1.97-8.44-8.31-13.4-17.85-13.58-9.02-.17-18.05-.03-27.08-.08-1.85-.01-2.45.76-2.43,2.55.08,5.05.03,10.1.03,15.16Z"/>
  <path d="m822.43,484.67c-.51,1-.33,1.78-.33,2.53-.01,12.55,0,25.1-.01,37.65,0,3.24-.16,3.38-3.36,3.35-1.92-.02-3.85-.05-5.77.03-1.76.08-2.47-.74-2.42-2.4.02-.58,0-1.15,0-1.73,0-32.34,0-64.67,0-97.01,0-.38.03-.77,0-1.15-.17-1.68.44-2.58,2.27-2.35.5.06,1.02,0,1.54,0,12.75,0,25.51-.03,38.26,0,10.37.03,18.47,4.51,23.98,13.17,10.75,16.92,2.22,37.2-14.8,43.24-3.84,1.36-7.84,1.59-11.92,1.43-4.45-.17-8.93-.38-13.3.19-.22.69.16.91.43,1.15,14.52,12.86,29.04,25.72,43.56,38.58,2.06,1.82,4.14,3.63,6.18,5.47.3.27.85.54.57,1.08-.2.37-.68.27-1.05.27-4.55,0-9.1,0-13.65,0-1.04,0-1.83-.46-2.57-1.12-9.97-8.92-19.94-17.85-29.93-26.75-5.82-5.19-11.68-10.34-17.67-15.64Zm-.34-32.13c0,5.12.03,10.24-.02,15.36-.01,1.51.51,2.22,2.11,2.22,9.8-.04,19.6.13,29.4-.08,9.04-.19,17.16-9.2,16.42-17.99-.7-8.31-6.06-17.13-17.86-17.18-9.22-.04-18.44,0-27.67-.06-1.86-.01-2.44.8-2.41,2.57.07,5.05.03,10.11.03,15.16Z"/>
  <path d="m793.02,528.22c-4.81,1.44-6.67-1.27-8.26-5.28-2.99-7.55-6.43-14.93-9.68-22.38-.31-.7-.67-1.39-.94-2.1-.71-1.87-2.03-2.58-4.02-2.57-8.26.07-16.53.05-24.8.05-5.64,0-11.28.03-16.91-.05-2.22-.03-3.54.82-4.42,2.88-3.87,9.07-7.86,18.08-11.75,27.13-.69,1.62-1.66,2.42-3.49,2.33-2.37-.11-4.74-.02-7.11-.03-2.31,0-2.65-.52-1.72-2.62,4.74-10.78,9.49-21.56,14.23-32.34,9.64-21.91,19.33-43.8,28.85-65.76,1.27-2.93,2.73-4.24,6.08-3.98,5.44.43,4.06-.88,6.42,4.45,9.49,21.48,18.9,43.01,28.34,64.52,4.84,11.02,9.68,22.03,14.5,33.06,1.07,2.44.87,2.68-1.85,2.68-1.15,0-2.31,0-3.46,0Zm-44.16-43.54c5.44,0,10.89,0,16.33,0,2.68,0,2.8-.17,1.77-2.52-5.5-12.54-11-25.07-16.53-37.59-.31-.71-.3-1.94-1.24-1.91-.71.02-.77,1.21-1.17,1.85-.07.11-.11.23-.16.35-5.6,12.7-11.19,25.41-16.83,38.09-.61,1.38-.41,1.77,1.12,1.76,5.57-.05,11.14-.02,16.71-.02Z"/>
  <path d="m528.44,508.6c.81-1.85,1.44-3.22,2.01-4.63,10.4-25.77,20.79-51.54,31.19-77.31q1.23-3.06,4.6-3.07c2.05,0,4.1,0,6.15,0,2.36,0,2.41.07,1.55,2.21-3.28,8.21-6.55,16.41-9.85,24.61-9.59,23.82-19.19,47.63-28.78,71.45-.57,1.43-1.24,2.82-1.74,4.27-.51,1.48-1.45,1.96-3,2.14-4.98.56-6.58.9-9.16-6.38-4.33-12.17-9.64-24-14.53-35.97-6.21-15.17-12.41-30.34-18.62-45.51-2.04-4.98-4.06-9.96-6.14-14.92-.57-1.37-.45-1.98,1.23-1.92,2.75.09,5.51.09,8.27,0,1.47-.05,2.11.57,2.65,1.89,11.03,27.03,22.11,54.04,33.18,81.06.21.52.48,1.03.98,2.09Z"/>
  <path d="m716.89,423.6c1.41,0,2.82.04,4.23-.01,1.4-.05,1.62.48,1.16,1.75-2.54,7.18-5.02,14.38-7.53,21.57-4.78,13.72-9.58,27.43-14.36,41.15-4.35,12.51-8.71,25.03-13,37.56-.64,1.86-1.68,2.7-3.67,2.59-2.11-.12-4.23-.01-6.34-.03-2.27-.02-2.66-.49-1.92-2.66,2.02-5.94,4.11-11.85,6.17-17.77,9.56-27.51,19.14-55.01,28.66-82.53.44-1.29,1.1-1.7,2.36-1.64,1.41.07,2.82.02,4.23.02Z"/>
  <path d="m449.46,486.14c0,8.51,0,17.02,0,25.52,0,2.7-.35,3.1-2.98,3.88-2.52.75-5.03,1.51-7.52,2.33-1.48.49-2.13.05-2.27-1.51-.87-9.41-1.79-18.82-2.68-28.24-.99-10.56-1.93-21.12-2.97-31.68-.36-3.66-.2-3.89,3.23-2.91,4.25,1.21,8.47,2.51,12.74,3.65,1.77.47,2.48,1.34,2.46,3.23-.09,8.57-.04,17.14-.04,25.71h.03Z"/>
  <path d="m134.08,486.21c0-8.71.03-17.41-.03-26.12-.01-1.67.45-2.46,2.21-2.9,4.66-1.17,9.23-2.64,13.86-3.95,2.1-.59,2.61-.2,2.41,1.96-.81,8.85-1.67,17.69-2.5,26.54-.83,8.85-1.63,17.7-2.45,26.55-.25,2.74-.53,5.47-.77,8.21-.11,1.32-.73,1.86-2.04,1.46-3.19-.96-6.37-1.93-9.56-2.89-1.37-.41-1.1-1.57-1.11-2.55-.02-8.77-.01-17.54-.01-26.31Z"/>
  <path d="m622.78,581.94c-11.78.51-17.43-9.27-17.23-17.45.3-11.74,6.97-17.55,17.43-17.81,9.87-.25,17.25,7.53,17.25,17.53,0,8.31-5.65,18.35-17.45,17.74Zm-.02-31.89c-7.79-.59-13.97,5.39-14,14.33-.04,8.39,5.9,14.61,14,14.71,8.04.1,14.2-6.17,14.23-14.48.03-8.88-5.49-14.53-14.22-14.56Z"/>
  <path d="m829.73,581.94c-10.87.51-17.1-8.85-16.91-17.38.24-10.61,6-17.65,17.56-17.75,9.28-.08,16.93,6.06,17,17.72.06,9.52-6.43,17.97-17.65,17.41Zm.28-31.89c-8.49-.53-13.94,6.07-13.99,14.12-.05,8.6,5.78,14.81,13.97,14.92,8.04.11,14.23-6.16,14.26-14.45.03-8.83-5.56-14.57-14.24-14.59Z"/>
  <path d="m865.63,555.27c0,3.37,0,6.74,0,10.12,0,4.54,0,9.08,0,13.63,0,1.2.02,2.47-1.62,2.5-1.64.02-1.68-1.22-1.68-2.44,0-9.85,0-19.7,0-29.56,0-.74-.24-1.67.7-2,1.02-.36,1.47.54,1.98,1.17,6.47,7.93,12.93,15.87,19.4,23.81.32.39.65.78,1.07,1.29.53-.7.32-1.41.33-2.04.02-7.1,0-14.2.02-21.3,0-1.3-.01-2.65,1.65-3.06.88-.22,1.54-.05,1.58,1.04.02.45.03.9.03,1.34,0,9.72.01,19.45-.02,29.17,0,.81.51,2.01-.62,2.36-1.11.34-1.63-.8-2.21-1.52-6.52-7.97-13.03-15.96-19.54-23.94-.2-.25-.35-.53-.52-.8-.18.08-.36.16-.53.24Z"/>
  <path d="m683.16,608.3c-1.88,3.53-3.77,7.05-5.64,10.58-1.62,3.05-3.22,6.11-4.83,9.17-.42.8-.79,1.61-1.93,1.58-1.1-.03-1.52-.78-1.95-1.59-3.25-6.17-6.5-12.34-9.76-18.51-.23-.43-.33-.97-.91-1.18-.34.61-.16,1.25-.16,1.86-.02,5.89-.02,11.77,0,17.66,0,1.03-.23,1.76-1.47,1.73-1.17-.03-1.33-.8-1.33-1.7,0-8.38,0-16.77,0-25.15,0-.74-.05-1.59,1.05-1.74,1.08-.15,1.64.41,2.1,1.28,3.61,6.85,7.22,13.7,10.88,20.52.46.85.6,2.34,1.64,2.32.83-.02,1.05-1.46,1.49-2.29,3.29-6.15,6.54-12.32,9.81-18.48.39-.73.82-1.45,1.19-2.19.46-.93,1.15-1.35,2.17-1.11,1.07.25.78,1.16.88,1.88,0,.06,0,.13,0,.19,0,8.13,0,16.25,0,24.38,0,.95.14,2.03-1.32,2.08-1.57.06-1.51-1.04-1.51-2.09,0-5.76,0-11.52,0-17.28,0-.61,0-1.23,0-1.84-.13-.03-.26-.07-.38-.1Z"/>
  <path d="m592.98,608.39c0,5.8,0,11.6,0,17.4,0,.83-.01,1.66-.02,2.5,0,.85-.42,1.28-1.29,1.32-.96.04-1.44-.39-1.48-1.34-.02-.38-.03-.77-.03-1.15,0-7.87-.02-15.74.02-23.61,0-.87-.42-2.06.89-2.43,1.37-.39,1.91.58,2.45,1.6,3.73,7.08,7.47,14.14,11.23,21.21.26.49.35,1.3.95,1.34.78.06.84-.85,1.11-1.37,3.52-6.61,7.02-13.23,10.53-19.84.36-.68.77-1.33,1.11-2.02.45-.9,1.18-1.12,2.09-.92.96.21.83,1.03.84,1.7.03,2.75.02,5.5.02,8.26,0,5.5,0,11.01,0,16.51,0,.96.11,2.02-1.35,2.06-1.58.04-1.48-1.08-1.48-2.12,0-5.76,0-11.52-.02-17.28,0-.61.19-1.25-.3-2.04-1.81,3.38-3.55,6.63-5.27,9.88-1.77,3.34-3.52,6.68-5.28,10.02-.42.8-.81,1.59-1.95,1.55-1.11-.04-1.51-.8-1.94-1.61-3.04-5.78-6.08-11.55-9.13-17.32-.41-.79-.85-1.56-1.27-2.35-.14.02-.29.03-.43.05Z"/>
  <path d="m579.8,581.92c-5.74.29-10.14-1.5-13.52-5.57-.58-.7-1.66-1.57-.28-2.56,1.15-.83,2.01-.56,2.93.55,4.04,4.9,11.93,6.24,17.5,3.05,1.91-1.1,3.18-2.7,3.15-4.93-.03-2.22-1.29-3.84-3.24-4.88-2.76-1.47-5.85-1.81-8.85-2.45-2.32-.49-4.62-1.04-6.82-1.96-6.28-2.62-5.2-10.53-1.76-13.24,4.57-3.6,13.84-4.25,18.81-1.24,1.22.74,2.21,1.72,3.15,2.79.64.73.98,1.36.04,2.08-.78.61-1.49.85-2.37.04-4.32-4.01-10.29-4.92-15.59-2.39-2.11,1.01-3.54,2.56-3.5,5.05.05,2.49,1.7,3.72,3.78,4.55,3.48,1.39,7.26,1.52,10.82,2.55,1.23.36,2.46.73,3.63,1.24,3.25,1.4,5.08,3.87,5.12,7.44.04,3.36-1.25,6.13-4.29,7.84-2.85,1.6-5.89,2.47-8.73,2.05Z"/>
  <path d="m540,581.93c-5.75.29-10.17-1.53-13.58-5.68-.61-.74-1.42-1.53-.22-2.41,1.04-.77,2.05-.66,2.86.39,2.39,3.13,5.74,4.4,9.48,4.79,2.93.31,5.74-.3,8.33-1.72,1.97-1.08,2.88-2.77,2.87-5.05-.02-2.27-1.17-3.74-3.08-4.68-2.85-1.41-5.98-1.83-9.05-2.44-2.45-.48-4.89-1-7.13-2.19-4.92-2.62-5.67-8.96-1.57-12.75,4.68-4.33,17.32-5.05,22,.99.57.74,1.3,1.38.34,2.27-.88.82-1.72.88-2.66-.06-4.02-4.06-11.67-4.78-16.47-1.6-.21.14-.42.29-.61.46-2.92,2.52-2.52,6.27.88,8.07,2.65,1.4,5.62,1.69,8.49,2.28,2.13.43,4.26.89,6.3,1.67,3.83,1.47,5.83,4.29,5.84,8.15.01,3.82-2.05,6.56-5.78,8.21-2.48,1.1-4.98,1.57-7.23,1.3Z"/>
  <path d="m731.06,547.27c1.37.02,1.99.94,2.49,2.05,3.11,6.95,6.23,13.89,9.34,20.84,1.33,2.98,2.68,5.95,3.97,8.94.29.68,1.16,1.53.07,2.17-1.1.66-2.2.23-2.86-.75-.6-.88-.89-1.97-1.37-2.94-2.54-5.09-1.02-4.33-6.68-4.38-4.29-.04-8.58.03-12.87-.03-1.41-.02-2.29.44-2.78,1.8-.52,1.44-1.18,2.83-1.77,4.25-.35.84-.77,1.62-1.65,2.03-.74.34-1.51.51-2.18-.05-.66-.56-.13-1.21.11-1.74,4.51-10.11,9.04-20.2,13.57-30.3.51-1.13,1.25-1.94,2.61-1.89Zm-.13,3.75c-2.77,6.28-5.29,11.99-7.82,17.71-.42.95-.05,1.27.9,1.27,4.6-.01,9.21-.01,13.81,0,.92,0,1.35-.28.92-1.26-2.53-5.72-5.05-11.44-7.82-17.72Z"/>
  <path d="m513.38,581.57c-1.63-.25-2.37-1.08-2.8-2.23-.5-1.32-.94-2.66-1.48-3.96-.69-1.67-2.02-2.51-3.79-2.37-4.93.39-9.86.14-14.8.17-1.58,0-2.5.58-3.06,2.04-.6,1.55-1.35,3.04-2.05,4.55-.33.71-.77,1.32-1.58,1.57-.71.21-1.47.3-2.01-.22-.52-.5.02-1.09.24-1.58,4.54-10.17,9.1-20.33,13.64-30.5.49-1.09,1.18-1.77,2.47-1.76,1.28,0,1.98.69,2.47,1.78,4.54,10.17,9.1,20.33,13.63,30.51.67,1.51.24,2.15-.88,2.01Zm-15.26-30.53c-2.7,6.12-5.23,11.85-7.76,17.57-.37.83-.3,1.38.77,1.38,4.61,0,9.23,0,13.84,0,1.1,0,1.33-.51.9-1.48-2.52-5.67-5.03-11.34-7.74-17.47Z"/>
  <path d="m713,614.79c.6.3,1.15.59,1.71.85,2.5,1.2,3.73,3.27,3.87,5.95.14,2.67-1.11,4.66-3.33,6.08-2.18,1.38-4.64,1.86-7.14,1.93-4.03.11-8.06,0-12.1.06-1.51.02-2.03-.58-2.03-2.04.03-8.18.04-16.37,0-24.56,0-1.58.58-2.15,2.15-2.08,4.66.21,9.35-.38,13.98.47,4.39.8,6.48,2.8,6.89,6.54.28,2.54-.63,4.11-3.99,6.79Zm-9.66,12.36c1.47,0,2.94.03,4.41,0,1.67-.04,3.31-.34,4.85-.99,1.84-.78,3.1-2.08,3.17-4.17.07-2.09-1.1-3.45-2.87-4.39-.97-.52-2.02-.78-3.09-.98-3.87-.73-7.78-.23-11.67-.37-1.01-.04-1.33.51-1.32,1.44.02,2.62.05,5.24-.01,7.86-.03,1.29.54,1.68,1.73,1.63,1.6-.06,3.2-.01,4.79-.02Zm-.52-23.62c-1.54,0-3.07.01-4.61,0-.96-.01-1.39.41-1.38,1.39.02,2.49.01,4.98,0,7.48,0,.73.22,1.31,1.05,1.29,4.14-.13,8.33.59,12.39-.7,2.64-.84,4-2.47,3.95-4.58-.06-2.26-1.53-3.73-4.34-4.4-2.33-.55-4.7-.49-7.06-.47Z"/>
  <path d="m670.49,581.94c-8.57.09-14.81-5.38-16.66-12.42-2.12-8.07.86-16.29,7.56-20.24,6.18-3.65,15.13-2.96,20.6,1.6.58.49,1.6.93.83,1.98-.62.85-1.5.93-2.41.52-.46-.21-.88-.52-1.31-.8-6.47-4.29-14.61-3.44-19.36,2.02-4.61,5.31-4.48,14.35.28,19.84,4.19,4.83,12.78,5.81,18.53,2.1.65-.42,1.27-.87,1.93-1.25.95-.54,1.76-.24,2.34.6.62.89-.12,1.4-.68,1.91-2.81,2.53-7.35,4.14-11.66,4.14Z"/>
  <path d="m750.52,615.15c0-3.97.04-7.94-.02-11.9-.03-1.58.41-2.36,2.17-2.26,4.4.24,8.84-.36,13.23.39,1.53.26,2.96.81,4.27,1.65,4.42,2.86,4.37,8.7-.13,11.41-.92.56-1.96.96-2.99,1.28-2.25.69-2.26.64-.83,2.62,2.21,3.06,4.42,6.12,6.6,9.21.38.53,1.28,1.22.68,1.78-.7.65-1.84.49-2.68-.08-.46-.31-.77-.85-1.11-1.31-2.39-3.32-4.81-6.64-7.14-10-.69-1-1.48-1.49-2.7-1.43-1.41.07-2.82.1-4.23,0-1.71-.13-2.42.43-2.34,2.26.14,3,.03,6.01.04,9.02,0,.97-.08,1.82-1.38,1.83-1.29.01-1.43-.83-1.43-1.8,0-4.22,0-8.45,0-12.67Zm8.95-11.63c-.3,0-.36,0-.43,0q-5.71,0-5.71,5.69c0,4.86,0,4.89,4.98,4.85,3.12-.02,6.28.04,9.23-1.19,1.67-.7,2.86-1.86,2.96-3.86.11-2.07-.92-3.39-2.65-4.26-.73-.37-1.54-.59-2.34-.82-2.06-.59-4.18-.36-6.05-.41Z"/>
  <path d="m629,615.17c0-4.03.04-8.06-.02-12.1-.03-1.58.58-2.11,2.15-2.09,5.51.07,11.02.02,16.53.03.93,0,2.1-.23,2.05,1.28-.05,1.49-1.24,1.2-2.15,1.21-4.55.02-9.1.06-13.64-.01-1.55-.02-2.22.43-2.12,2.06.11,1.91.1,3.84,0,5.76-.07,1.47.39,2.07,1.95,2.02,3.2-.1,6.41-.04,9.61-.02.85,0,1.93-.23,1.9,1.21-.03,1.38-1.1,1.21-1.96,1.22-3.2.03-6.41.06-9.61,0-1.42-.03-1.93.51-1.89,1.92.08,2.56.09,5.12,0,7.68-.05,1.48.57,1.86,1.94,1.84,4.74-.06,9.48-.03,14.22,0,.71,0,1.65-.25,1.88.84.22,1.02-.22,1.61-1.3,1.61-6.02,0-12.04,0-18.06.01-1.39,0-1.46-.97-1.46-1.98,0-4.16,0-8.32,0-12.48Z"/>
  <path d="m723.99,615.27c0-4.03.05-8.07-.02-12.1-.03-1.66.57-2.22,2.25-2.2,5.44.09,10.89.02,16.34.04.89,0,2.12-.34,2.14,1.18.03,1.64-1.28,1.3-2.24,1.31-4.55.03-9.1.05-13.64,0-1.46-.02-2.11.4-2.03,1.96.1,1.91.1,3.84,0,5.76-.08,1.55.4,2.17,2.05,2.12,3.2-.11,6.41-.04,9.61-.02.79,0,1.78-.2,1.81,1.11.04,1.37-.97,1.31-1.86,1.32-3.2.03-6.41.07-9.61,0-1.5-.03-2.05.51-2,2.02.09,2.49.1,4.99,0,7.49-.06,1.56.58,1.96,2.03,1.94,4.68-.07,9.35-.04,14.03,0,.83,0,1.94-.3,2.01,1.12.07,1.52-1.07,1.34-2.01,1.35-5.57.02-11.15-.03-16.72.03-1.57.02-2.18-.53-2.16-2.11.06-4.1.02-8.19.02-12.29Z"/>
  <path d="m767.97,565.94c0,4.29.01,8.57,0,12.86,0,1.18.3,2.71-1.55,2.7-1.87,0-1.72-1.54-1.73-2.82,0-8.38,0-16.77,0-25.15q0-3.1-3.19-3.1c-2.24,0-4.48,0-6.73-.01-1.01-.01-2-.14-1.99-1.5,0-1.33.99-1.55,1.99-1.55,7.81-.02,15.63-.02,23.44,0,1,0,1.99.21,1.99,1.54,0,1.36-1.03,1.48-2.01,1.5-2.5.04-5,.02-7.49.03-2.72.01-2.75.04-2.75,2.83,0,4.22,0,8.45,0,12.67,0,0,.02,0,.02,0Z"/>
  <path d="m797.17,564.41c0,4.93,0,9.85,0,14.78,0,1.07-.04,2.16-1.45,2.27-1.5.11-1.8-.9-1.8-2.12,0-4.35,0-8.7,0-13.05,0-5.5,0-11,0-16.5,0-1.17-.08-2.5,1.63-2.46,1.64.03,1.63,1.32,1.63,2.51,0,4.86,0,9.72,0,14.58Z"/>
  <path d="m701.42,564.54c0,4.8,0,9.6,0,14.4,0,1.17.1,2.51-1.55,2.55-1.62.04-1.7-1.23-1.7-2.45,0-9.73,0-19.46,0-29.19,0-.26,0-.51.03-.77.08-1.11.57-1.85,1.79-1.79,1.17.06,1.44.88,1.44,1.88,0,5.12,0,10.24,0,15.36h0Z"/>
</svg>