<?xml version="1.0" encoding="UTF-8"?>
<svg id="Capa_28" data-name="Capa 28" xmlns="http://www.w3.org/2000/svg" viewBox="0 0 1000 1000">
  <path d="m318.65,449.43c7.98-.19,15.19,1.38,21.77,5.39,3.2,1.95,6,4.36,8.22,7.42,5.98,8.23,11.49,16.73,15.61,26.07,2.76,6.25,4.87,12.7,5.46,19.53,1.05,12.06-2.97,22.13-12.13,30.11-6.33,5.52-13.71,9.19-21.52,12.08-7.28,2.69-14.7,4.99-22.4,6.07-11.34,1.6-21.48-1.26-30.21-8.77-6.44-5.54-11.12-12.53-15.73-19.54-4.01-6.09-7.36-12.54-9.66-19.49-1.5-4.54-2.48-9.21-2.47-13.98.02-8.44,2.9-15.86,8.55-22.18,5.71-6.39,12.86-10.72,20.56-14.2,7.59-3.43,15.43-6.19,23.67-7.64,3.51-.62,7.04-1,10.27-.87Zm39.09,50.37c.08-3.23-.7-6.85-1.87-10.4-2.54-7.76-6.75-14.63-11.49-21.21-1.75-2.43-3.45-4.9-5.75-6.88-4.52-3.89-9.93-5.2-15.7-5.24-5.85-.04-11.49,1.27-17.04,3.05-7.26,2.34-14.28,5.2-20.31,10.03-7.72,6.19-11.12,14.09-9.38,24,.9,5.1,2.84,9.81,5.36,14.29,3.56,6.32,7.55,12.36,12.72,17.49,5.25,5.2,11.69,7.7,19.06,7.66,3.24-.02,6.43-.61,9.58-1.4,8.1-2.05,15.96-4.68,22.89-9.53,7.41-5.18,12.01-11.95,11.91-21.87Z"/>
  <path d="m618.71,487.79c0-1.92.04-3.75-.02-5.59-.03-.98.33-1.35,1.32-1.34,3.12.04,6.24.04,9.35,0,1.05-.01,1.47.4,1.39,1.41-.02.28,0,.56,0,.84,0,15.86.05,31.73-.03,47.59-.03,4.74-.18,9.49-1.04,14.19-2.06,11.17-8.61,18.47-19.32,21.85-9.65,3.05-19.31,2.56-28.78-1.07-6.73-2.58-11.61-7.22-14.9-13.56-.96-1.84-1.8-3.75-2.72-5.6-.43-.87-.15-1.14.75-1.13,3.52.02,7.04.03,10.55,0,.92-.01,1.35.48,1.75,1.18,1.92,3.37,4.48,6.12,7.91,7.99,2.67,1.46,5.58,2.2,8.59,2.45,5.18.42,10.31.28,15.16-1.95,5.64-2.6,9.07-6.79,9.57-13.13.09-1.15.19-2.31.27-3.46.02-.31.13-.7-.18-.89-.36-.21-.57.18-.8.36-4.84,3.85-10.34,6.15-16.46,6.96-16.23,2.14-34.07-8.23-36.81-27.15-2.73-18.79,9.96-35.57,28.82-37.98,9.18-1.17,17.42,1.26,24.47,7.4.29.25.54.6,1.17.64Zm-20.57,45.86c.84.03,2.31-.05,3.78-.28,7.17-1.14,12.4-4.88,15.39-11.54,1.61-3.58,1.91-7.42,1.63-11.28-.44-6.12-2.94-11.25-7.89-15-9.36-7.1-22.97-5.4-30.39,3.74-5.81,7.16-6.46,18.14-1.41,25.44,4.4,6.34,10.67,9,18.88,8.93Z"/>
  <path d="m533.72,515.67c-8.43,0-16.87,0-25.3,0-1.58,0-1.6,0-1.38,1.61,1.36,9.92,9.81,18.09,20.08,17.83,5.82-.14,11.03-1.74,15.41-5.62,2.44-2.16,4.16-4.94,5.85-7.71.89-1.46.89-1.47,2.36-.7,2.58,1.35,5.15,2.73,7.75,4.07.7.36.78.74.44,1.42-3.36,6.83-7.92,12.55-14.77,16.19-4.01,2.13-8.29,3.3-12.81,3.67-5.28.44-10.46-.02-15.49-1.72-7.67-2.59-13.12-7.79-16.97-14.74-7.82-14.11-5.06-31.39,6.77-42.35,5.29-4.9,11.61-7.46,18.82-8,6.4-.48,12.57.34,18.27,3.32,10.1,5.28,15.86,13.71,17.53,24.96.3,2.05.44,4.13.44,6.21,0,1.45-.09,1.56-1.57,1.56-8.47,0-16.95,0-25.42,0Zm-6.01-11.05c1.2,0,2.4,0,3.6,0,4.87,0,9.75-.01,14.62,0,.87,0,1.3-.1.87-1.13-.93-2.23-2.03-4.34-3.74-6.08-4.42-4.5-9.82-6.59-16.09-6.42-8.51.23-14.51,4.27-18.02,12.02-.7,1.54-.63,1.6,1.02,1.6,5.91,0,11.83,0,17.74,0Z"/>
  <path d="m721.63,538.1c-.77.62-1.32,1.07-1.88,1.51-5.08,4.06-10.87,6.25-17.35,6.84-18.47,1.71-32.43-12.3-35.14-26.81-2.8-14.99,4.09-29.95,17.76-36.65,11.3-5.54,22.5-4.9,33.07,2.3,1.18.8,2.22,1.8,3.53,2.88,0-2,0-3.82,0-5.63,0-1.65.02-1.67,1.67-1.67,2.88,0,5.76.04,8.64-.02,1.11-.02,1.55.3,1.55,1.49-.03,20.42-.03,40.84,0,61.26,0,1.11-.32,1.59-1.5,1.57-3-.05-6-.05-8.99,0-1.04.01-1.42-.35-1.38-1.4.07-1.79.02-3.59.02-5.68Zm-21.11-46.87c-13.05-.23-21.5,10.79-21.79,21.26-.32,11.24,8.82,22.35,21.04,22.64,10.9.25,22.29-7.64,22.34-21.58.05-12.82-9.11-22.28-21.59-22.31Z"/>
  <path d="m415.35,488.07c2.96-2.85,5.92-5.04,9.39-6.37,9.39-3.61,18.35-3.21,26.42,3.36,4.58,3.73,6.91,8.78,7.87,14.54.68,4.11.93,8.25.94,12.41.02,10.43,0,20.86,0,31.29,0,1.84-.03,1.87-1.88,1.87-2.84,0-5.68,0-8.52,0-1.51,0-1.61-.1-1.61-1.66,0-9.43,0-18.86,0-28.3,0-4.27.15-8.56-.54-12.8-.66-4.04-2.11-7.74-5.95-9.77-4.64-2.45-9.57-2.41-14.23-.21-6.79,3.21-10.64,8.68-11.42,16.26-.73,7.06-.38,14.13-.45,21.2-.05,4.56,0,9.11-.01,13.67,0,1.48-.11,1.59-1.55,1.6-3,.01-6-.03-9,.02-1.16.02-1.51-.43-1.51-1.55.02-20.42.02-40.85,0-61.27,0-1.05.27-1.52,1.42-1.5,3.08.06,6.16.06,9.24,0,1.14-.02,1.45.44,1.42,1.5-.06,1.78-.02,3.57-.02,5.71Z"/>
  <path d="m484.47,518.55c0,8.31,0,16.62,0,24.94,0,1.65-.03,1.67-1.67,1.68-2.88,0-5.76,0-8.64,0-1.69,0-1.75-.07-1.75-1.76,0-16.39,0-32.77,0-49.16,0-2.49.22-2.32-2.34-2.32-2.24,0-4.48-.04-6.72.01-1.15.03-1.54-.42-1.52-1.55.06-2.68.06-5.36,0-8.03-.03-1.18.42-1.52,1.54-1.5,2.56.06,5.12-.02,7.68.04,1.06.02,1.38-.35,1.38-1.39-.04-6.43-.02-12.87-.02-19.3,0-1.58.05-1.62,1.61-1.63,2.92,0,5.84,0,8.76,0,1.67,0,1.69.02,1.7,1.65,0,6.35,0,12.71,0,19.06,0,1.58,0,1.58,1.62,1.58,3.08,0,6.16.03,9.24-.01,1.03-.01,1.42.33,1.4,1.38-.05,2.76-.07,5.52,0,8.27.03,1.16-.46,1.43-1.49,1.42-3.12-.04-6.24.02-9.35-.03-1.11-.02-1.43.38-1.43,1.46.04,8.39.02,16.78.02,25.18Z"/>
  <path d="m650.74,485.75c1.71-1.49,3.19-2.83,4.93-3.84,6.01-3.47,11.88-3.09,17.66.56.52.33.62.64.29,1.16-1.77,2.81-3.52,5.62-5.26,8.44-.36.58-.78.55-1.33.32-1.21-.51-2.4-1.1-3.76-1.15-3.22-.12-5.61,1.52-7.5,3.85-2.7,3.32-3.91,7.29-4.33,11.5-.99,9.84-.64,19.71-.7,29.57-.02,2.6-.03,5.19,0,7.79.01.86-.29,1.24-1.17,1.23-3.28-.02-6.56-.02-9.83,0-.82,0-1.17-.36-1.11-1.17.02-.24,0-.48,0-.72,0-20.18,0-40.35,0-60.53q0-1.86,1.85-1.86c2.96,0,5.92.03,8.87-.02,1.02-.02,1.47.31,1.4,1.38-.07,1.07-.02,2.15-.02,3.51Z"/>
  <path d="m394.02,513.05c0,10.15,0,20.29,0,30.44,0,1.64-.03,1.67-1.68,1.67-2.72,0-5.44,0-8.15,0q-2.2,0-2.2-2.15c0-16.42,0-32.84,0-49.26,0-3.72,0-7.43,0-11.15,0-1.67.07-1.73,1.78-1.73,2.88,0,5.75,0,8.63,0,1.58,0,1.62.04,1.62,1.61,0,10.19,0,20.37,0,30.56Z"/>
  <path d="m379.54,464.79c-.02-4.69,3.84-8.59,8.52-8.6,4.58,0,8.48,3.89,8.52,8.51.04,4.57-3.9,8.52-8.49,8.52-4.66,0-8.52-3.81-8.54-8.43Z"/>
  <path d="m315.71,486.36c5.84.04,9.86,1.85,12.78,6,2.7,3.84,5.19,7.79,6.58,12.32,2.41,7.89.11,13.86-6.98,18.07-4.42,2.63-9.25,4.22-14.33,4.86-4.52.58-8.59-.76-11.84-4.03-4.16-4.19-7.4-9.03-9.31-14.64-2.3-6.75-.37-12.44,5.55-16.4,5.56-3.72,11.75-5.7,17.55-6.18Z"/>
</svg>