<svg id="Capa_1" data-name="Capa 1" xmlns="http://www.w3.org/2000/svg" viewBox="0 0 433.71 126.04"><path d="M441.54,348.47c-14.55-.54-28-4-39.78-12.84-12.15-9.13-19.39-21.38-22.27-36.17-3.05-15.63-1.65-30.83,6-45,9.31-17.25,24.08-27.22,43.23-30.72,14.81-2.71,29.27-1.26,42.84,5.47,18.67,9.26,29.5,24.53,32.78,45,2.36,14.63.62,28.84-6.36,42.06-8.85,16.77-23,26.6-41.49,30.34C451.57,347.58,446.52,347.86,441.54,348.47Zm34.25-63.37c-.68-3.92-1-8-2.11-11.75-3.86-12.73-12.24-21.1-25.48-23.5s-24.76,1.32-33,12.34c-7.87,10.51-9.15,22.52-5.58,34.85,7.65,26.34,37,30.37,53,17.15C471.68,306.7,475.23,296.66,475.79,285.1Z" transform="translate(-71.61 -222.44)"/><path d="M137.23,348.17c-16.9-.25-30.65-3.86-42.56-13.09C83,326,76,314,73.12,299.51c-3-15.21-1.73-30.05,5.43-44,9.15-17.79,24-28.1,43.54-31.76,14.44-2.71,28.61-1.41,42,4.94,19.34,9.17,30.52,24.63,33.89,45.62,2.28,14.15.68,28-5.83,40.85-9.15,18.1-24.26,28.29-44,31.8C143.85,347.73,139.5,347.93,137.23,348.17Zm32.18-63c-.67-3.93-1-8-2.1-11.76-3.77-12.58-12-20.91-25.05-23.47-12.58-2.47-23.81.67-32.22,10.7-9,10.7-10.55,23.27-6.81,36.32,7.56,26.42,37,30.42,52.94,17.27C165.27,306.75,168.83,296.73,169.41,285.18Z" transform="translate(-71.61 -222.44)"/><path d="M350.39,344.74h-8c-6.12,0-12.23,0-18.35,0a14.71,14.71,0,0,1-14.35-10q-20.19-53.25-40.37-106.5c-.29-.75-.54-1.52-.86-2.45.78,0,1.34-.08,1.89-.08q10.42,0,20.85,0c7.09,0,12.57,4.16,15.15,10.72,5,12.7,10.24,25.3,15.4,37.94q14,34.38,28.06,68.78C350,343.58,350.17,344.07,350.39,344.74Z" transform="translate(-71.61 -222.44)"/><path d="M206.35,226c8.71,0,17.2-.38,25.63.14,5.59.34,9.59,4,11.72,9.18,7.57,18.44,15,36.92,22.54,55.38Q277,317,287.75,343.39c.14.35.28.69.49,1.24-.66,0-1.19.1-1.72.1q-12.15,0-24.28,0c-7.31,0-12.26-3.52-14.85-10.36L207,227.9C206.77,227.26,206.57,226.61,206.35,226Z" transform="translate(-71.61 -222.44)"/><path d="M350.75,278l-19.84-52.31c4,0,7.67,0,11.34,0,4.14.05,8.33-.24,12.4.33a13.34,13.34,0,0,1,10.76,17.85C361,255.34,356,266.61,351.23,278Z" transform="translate(-71.61 -222.44)"/></svg>