<?xml version="1.0" encoding="utf-8"?>
<!-- Generator: Adobe Illustrator 27.7.0, SVG Export Plug-In . SVG Version: 6.00 Build 0)  -->
<svg version="1.1" id="Capa_29" xmlns="http://www.w3.org/2000/svg" xmlns:xlink="http://www.w3.org/1999/xlink" x="0px" y="0px"
	 viewBox="0 0 307 322.5" style="enable-background:new 0 0 307 322.5;" xml:space="preserve">
<path d="M158.8,36.2c3,11.3-2.6,17.4-11.7,23.4c-25.3,16.7-49.9,34.3-74.7,51.7c-1.4,1-5.2,1.4-3.2,4.3c1.7,2.4,4.4,4.1,8,1.5
	c21.1-14.9,42.3-29.5,63.5-44.2c4.6-3.2,9.3-6.4,14-9.6c2.4-1.7,3.7-1.5,4.1,1.9c1,8,0.5,15.9,0.4,23.9c0,3.4-2.9,4.7-5.1,6.3
	c-17.5,12.2-35,24.3-52.5,36.4c-4.6,3.2-4.6,3.2-0.1,6.3c18.1,12.4,36.2,24.8,54.3,37.3c2.4,1.6,4.2,1.8,6.7,0.1
	c28.5-20,57-39.9,85.5-59.7c3.1-2.2,2.2-3.2-0.3-4.9c-6.5-4.3-12.9-8.9-19.4-13.2c-2.9-1.9-3.2-3.4-0.2-5.5c4.8-3.4,9.4-6.9,14-10.5
	c2.5-2,4.5-1.9,7.1,0c10.3,7.4,20.8,14.4,31.1,21.7c6.3,4.5,6.5,16.4,0.2,20.8c-24.2,16.8-48.4,33.5-72.6,50.3
	c-14.9,10.3-29.9,20.6-44.6,31.1c-3.5,2.5-5.9,2.2-9.2-0.1c-24.7-17.4-49.6-34.7-74.5-52c-1.8-1.2-3.5-3.5-6.2-1.8
	c-2.1,1.3-5.2,2.1-5.7,4.5c-0.5,2.6,2.9,3.3,4.7,4.5c26.7,18.4,53.5,36.6,80.2,55.2c3.9,2.7,6.7,2.8,10.5,0.1
	c33.7-23.8,67.5-47.4,101.4-70.9c2.6-1.8,5.2-6,9-3.4c4.9,3.3,11.8,5,11.4,13.5c-0.2,5-1.5,8.1-5.7,11
	c-38.2,26.3-76.3,52.8-114.5,79.3c-7.2,5-7.2,5.1-14.2,0.2c-37.9-26.4-75.9-52.9-113.8-79.4c-6.4-4.5-6.2-16.7,0.2-21.2
	c4.2-3,8.4-5.9,12.7-8.8c2-1.3,2-2.3,0-3.6c-4.3-2.9-8.5-5.9-12.7-8.8c-6.6-4.6-6.8-14.9-0.1-19.6c25-17.4,50-34.7,75.1-52
	c13.8-9.6,27.6-19.1,41.5-28.7c1.3-0.9,2.6-2.6,4.4-1.7c1.7,0.9,0.9,3,1,4.6C158.8,29.5,158.8,32.9,158.8,36.2L158.8,36.2z
	 M100.6,127.4c0.2,0,0.5-0.1,0.7-0.2c3.1-0.3,5.7-1.8,8.2-3.5c14.9-10.3,29.8-20.6,44.7-31c1.5-1.1,3-2.2,3-4.3c0-6.4,0-12.8,0-19
	c-1.5-0.6-2.1,0.1-2.7,0.6c-8.6,6-17.2,11.9-25.8,17.9c-15.5,10.7-30.9,21.4-46.4,32c-3.2,2.2-2.6,3.2,0.1,5.2
	c2.5,1.9,5.3,0.1,7.6,1.4l0.3,0c0.8,0.3,1.5,0.6,2.3,1c0.6,0.4,1.2,0.7,1.9,1.1c0.3,0.2,0.7,0.5,1,0.7c1.2,0,2.3-0.3,3.2-1.1
	l1.6-0.7L100.6,127.4z"/>
<path d="M148.4,282.9c0,5.5,0,10.9,0,16.4c0,2.4-0.2,4.8-3.6,4.8c-3.5-0.1-2.8-2.8-2.8-4.7c-0.1-9.6-0.1-19.3-0.1-28.9
	c0-1.4,0.2-2.7,1.9-3.1c1.8-0.5,3.3,0.2,4.3,1.7c2.5,3.7,5.2,7.3,7.5,11.2c2.2,3.8,3.6,3.3,5.6-0.2c2-3.5,4.4-6.7,6.6-10
	c1.2-1.7,2.4-3.4,4.8-2.7c2.4,0.7,2,2.8,2,4.6c0,9.1,0,18.3,0,27.4c0,2.2,0.1,4.6-3.1,4.7s-3.2-2.2-3.2-4.5c0-5.8,0-11.6-0.9-17.8
	c-1.9,2.8-3.8,5.6-5.7,8.4c-2.2,3.1-4.5,3.2-6.7,0.1c-1.8-2.5-3.5-5.1-5.3-7.7C149.2,282.6,148.8,282.8,148.4,282.9L148.4,282.9z"/>
<path d="M208.8,292.2c-3.8,0-6.6,0.1-9.4,0c-1.9,0-3.1-1-3.1-3.1c0-2.1,1.1-3,3.1-3c4.3,0,8.6,0,13-0.1c3.7-0.1,4.1,1.8,3.4,4.8
	c-1.5,7.1-8.3,12.9-16.1,13.5c-7.7,0.7-15-4.2-17.8-11.8c-2.8-7.5-0.6-16.7,5.2-21.4c5.8-4.8,14.2-5.4,21-1.7
	c2.9,1.6,5.1,3.8,6.3,6.8c0.7,1.5,2.5,3.5,0.1,4.7c-2,1-4.2,0.6-5.5-1.8c-2.3-4.3-6.1-5.8-10.8-5.8c-5.7,0.1-10.1,4-11.2,10.1
	c-1,5.3,2.1,11.5,6.9,13.7C199,299.4,204.2,298,208.8,292.2L208.8,292.2z"/>
<path d="M116.9,304.4c-10.2-0.1-18.6-8.8-18.5-19c0.2-10.4,8.6-18.6,18.9-18.6c10.2,0,18.4,8.6,18.4,19.1
	C135.7,296.3,127.4,304.5,116.9,304.4L116.9,304.4z M129.3,285.5c-0.1-7.3-5-12.2-12.2-12.2c-6.9,0-12.4,5.4-12.4,12.2
	c0,7.2,5.5,12.6,12.6,12.5C124.4,297.9,129.4,292.6,129.3,285.5z"/>
<path d="M239.9,304.4c-10.4,0.1-18.6-8-18.8-18.6c-0.1-10.4,8.2-19.1,18.3-19.1c10.4,0,18.7,8.2,18.9,18.7
	C258.6,295.6,250.1,304.3,239.9,304.4L239.9,304.4z M227.5,285.4c-0.1,7.1,5,12.4,11.9,12.6c6.8,0.2,12.5-5.3,12.6-12
	c0.2-7.2-5.1-12.7-12.3-12.7C232.5,273.3,227.6,278.2,227.5,285.4z"/>
<path d="M59.2,285.5c0-8.6,5.2-15.6,13.2-17.8c7.5-2.1,15.5,1,19.3,7.8c0.9,1.6,2.9,3.7,0.8,5.2c-2.2,1.6-4.4,0.4-5.8-2
	c-2.9-4.8-7.4-6.1-12.5-5c-4.9,1-7.6,4.5-8.8,9.2c-1.5,5.6,1.4,11.5,6.8,14c5,2.3,10.7,0.8,14.2-3.8c0.6-0.8,1-1.7,1.7-2.4
	c1.3-1.3,3-1.7,4.6-0.7c1.8,1.1,0.6,2.7,0.1,4c-3.1,7.3-11.5,11.7-19.2,10C64.9,302.1,59.2,294.7,59.2,285.5L59.2,285.5z"/>
<path d="M95.5,128.7c-0.3,0-0.7-0.1-1-0.1c-0.1-0.7-0.1-1.4-0.2-2c0.7,0.4,1.5,0.8,2.2,1.2c-0.3,0.3-0.6,0.6-0.9,0.8L95.5,128.7
	L95.5,128.7z"/>
</svg>
