<?xml version="1.0" encoding="utf-8"?>
<!-- Generator: Adobe Illustrator 27.7.0, SVG Export Plug-In . SVG Version: 6.00 Build 0)  -->
<svg version="1.1" id="Capa_39" xmlns="http://www.w3.org/2000/svg" xmlns:xlink="http://www.w3.org/1999/xlink" x="0px" y="0px"
	 viewBox="0 0 897 127.9" style="enable-background:new 0 0 897 127.9;" xml:space="preserve">
<path d="M520,24.1c0.1,0.2,0.3,0.2,0.5,0.2c0.3,0,0.6,0,0.9,0c2.2,0.1,4.5,0.1,6.7,0.2c0.9,0,1.8,0.1,2.7,0.3
	c1.8,0.3,3.1,1.8,3.2,3.7c0.1,1.9,0.2,3.8,0.1,5.8c0,1.2-0.1,2.4-0.5,3.6c-0.6,1.9-1.8,2.7-3.8,2.7c-6.7,0-13.4,0-20,0
	c-1.2,0-1.2-0.1-1.2,1.2c0,19.5,0,39.1,0,58.6c0,0.5,0,1-0.1,1.5c-0.2,1.3-1,2.2-2.2,2.7c-0.8,0.3-1.6,0.4-2.4,0.5
	c-1.5,0-3,0-4.5,0.1c-1.3,0.1-2.6-0.1-3.9-0.3c-1.9-0.4-3-1.8-3.1-4c0-0.5,0-1,0-1.5c0-15.3,0-30.5,0-45.8c0-7.5,0-15.1-0.1-22.6
	c0-0.8,0-1.7,0.1-2.5c0.2-1.9,1.4-3.2,3.3-3.5c0.8-0.1,1.7-0.2,2.5-0.2c2.3,0,4.7-0.2,7-0.2c0.3,0,0.6,0.1,0.8-0.2L520,24.1
	L520,24.1z"/>
<path d="M621.9,24.1c0.1,0.4,0.4,0.2,0.6,0.2c1.5,0,3,0,4.5,0.1c2.2,0.1,4.3,0.1,6.5,0.4c1.6,0.2,2.5,1.1,3.1,2.5
	c0.3,0.7,0.4,1.5,0.4,2.3c0,1.8,0,3.5,0,5.3c0,1.1-0.2,2.2-0.6,3.2c-0.6,1.7-1.8,2.5-3.6,2.5c-6.6,0-13.2,0-19.8,0
	c-0.2,0-0.3,0-0.5,0c-0.7,0-1.1,0.4-1.1,1.1c0,19.7,0,39.3,0,59c0,0.5,0,1-0.1,1.5c-0.2,1-0.8,1.7-1.7,2.2c-0.8,0.4-1.6,0.6-2.4,0.6
	c-1.5,0-3,0-4.5,0.1c-1.3,0.1-2.7-0.1-4-0.3c-1.4-0.2-2.6-0.9-3.2-2.3c-0.2-0.6-0.3-1.2-0.3-1.9c0-2,0-3.9,0-5.8
	c0-21.6,0-43.3,0-64.9c0-0.8,0-1.6,0.3-2.3c0.5-1.5,1.5-2.4,3.1-2.7c0.9-0.1,1.8-0.2,2.7-0.3c2.6-0.1,5.2-0.2,7.9-0.2
	c0.3,0,0.7,0.1,0.9-0.2L621.9,24.1L621.9,24.1z"/>
<path d="M301.2,24.1c0.2,0.3,0.6,0.2,0.9,0.2c3.2,0,6.5,0,9.7,0c1.4,0,2.9,0,4.3,0c0.8,0,1.6,0.1,2.4,0.3c2.3,0.5,3.5,1.9,3.5,4.3
	c0,2.2,0,4.4,0,6.7c0,1.8-0.6,3.3-1.8,4.7c-4.2,4.7-8.2,9.7-12.2,14.5c-0.5,0.6-1,1.1-1.5,1.8c-1.2,1.6-2.9,2.3-4.8,2.4
	c-1.1,0.1-2.3,0-3.4-0.1c-1-0.1-2.1-0.1-3.1,0c-1.2,0.1-2.5,0-3.7-0.2c-1-0.2-1.8-0.8-2.4-1.6c-0.6-0.7-0.7-1.5-0.5-2.4
	c0.3-1.3,1-2.4,1.7-3.5c1-1.4,2.1-2.6,3.2-3.8c1.6-1.8,3.3-3.5,4.7-5.5c0.2-0.2,0.3-0.5,0.5-0.7c0.2-0.4,0.2-0.5-0.2-0.5
	c-0.4,0-0.9,0-1.3,0c-2.8-0.1-5.6-0.2-8.4-0.3c-3.9-0.1-7.8,0-11.7,0c-2,0-4.1,0-6.1,0.1c-2.2,0.1-4.4,0.1-6.6,0.1
	c-1.1,0-2.2-0.1-3.3-0.3c-0.2,0-0.4-0.1-0.6-0.1c-1.7-0.5-2.8-1.6-3-3.3c-0.1-0.5-0.2-0.9-0.2-1.4c0-2.2-0.1-4.4,0-6.7
	c0.1-2,1.2-3.7,3.6-4c0.8-0.1,1.6-0.2,2.4-0.2c3.4-0.1,6.9-0.2,10.3-0.2c0.3,0,0.7,0.1,0.9-0.2L301.2,24.1L301.2,24.1z"/>
<path d="M412.4,24.1c0.2,0.3,0.6,0.2,0.9,0.2c2.7,0,5.4,0,8.1,0c1,0,2.1,0.1,3.1,0.3c0.2,0,0.4,0.1,0.6,0.1c1.8,0.5,3,1.9,3,3.7
	c0.1,2,0.2,4,0.2,6.1c0,1-0.2,2-0.5,3c-0.6,2-1.9,3-4,3c-17.4,0-34.9,0-52.3,0c-1.8,0-3-0.9-3.8-2.5c-0.5-1.1-0.6-2.3-0.7-3.5
	c-0.1-1.1,0-2.2,0.1-3.2c0.1-0.7,0-1.5,0.1-2.2c0-0.5,0-0.9,0.1-1.4c0.3-1.6,1.4-2.7,3-2.9c1.1-0.1,2.2-0.3,3.2-0.3
	c2.5-0.1,4.9-0.2,7.4-0.2c0.3,0,0.6,0.1,0.8-0.2L412.4,24.1L412.4,24.1z"/>
<path d="M871.2,101.4c-0.4,1.5-1.4,2.3-2.8,2.7c-0.9,0.3-1.7,0.4-2.6,0.4c-1.6,0.1-3.1,0-4.7,0c-1,0-1.9-0.2-2.8-0.5
	c-1.8-0.5-2.8-1.8-2.8-3.6c0-0.2,0-0.3,0-0.4c0-13.2,0-26.4,0-39.5c0-1.2,0.4-2.3,1.3-3.1c0.7-0.6,1.4-1,2.3-1
	c2.2,0,4.5-0.2,6.8-0.1c1,0,2,0.1,2.9,0.4c1.3,0.4,2.1,1.2,2.4,2.6c0,0.1,0.1,0.2,0.1,0.3L871.2,101.4L871.2,101.4z"/>
<path d="M871.2,49.7c-0.3,1.3-1.2,2-2.4,2.4c-0.7,0.2-1.5,0.3-2.3,0.3c-1.2,0-2.4,0-3.6,0.1c-1.4,0.1-2.7,0-4.1-0.2
	c-0.2,0-0.3-0.1-0.5-0.1c-2.2-0.6-2.9-1.8-2.9-3.6c0-4.1,0-8.1,0-12.2c0-2.6,0-5.2,0-7.8c0-1.8,0.9-3,2.6-3.5
	c1.2-0.4,2.4-0.5,3.6-0.5c1.8-0.1,3.5-0.1,5.3,0.1c0.6,0.1,1.2,0.2,1.8,0.4c1.2,0.4,2.2,1.1,2.5,2.5V49.7L871.2,49.7z"/>
<path d="M773.2,47.8c-0.1,0.1-0.1,0.1-0.2,0.2c-1.2,3.2-2.6,6.2-3.9,9.3c-1,2.4-2,4.7-3,7c-1.7,3.9-3.3,7.8-5,11.7
	c-0.6,1.5-1.2,3-1.9,4.5c-0.8,1.9-2.2,2.9-4.2,3.1c-0.3,0-0.6,0.1-0.9,0.1c-2.2,0-4.5,0-6.8,0c-0.8,0-1.5-0.1-2.2-0.4
	c-2.1-0.7-3.2-2.9-2.4-5c0.8-2.2,1.7-4.3,2.5-6.5c1.7-4.3,3.5-8.5,5.3-12.7c2-4.6,4-9.3,6-13.9c2.1-4.9,4-9.9,6.2-14.7
	c0.5-1,0.9-2,1.5-3c1.5-2.6,2.7-3.2,5.9-3c2,0.2,4.1,0.1,6.1,0c1,0,1.9,0,2.8,0.2c1.1,0.3,1.8,1.1,2.4,2c0.6,0.9,1.1,1.9,1.5,2.9
	c2.3,5.3,4.5,10.7,6.8,16c1.7,4,3.3,8,5,12c2.9,7,5.9,13.9,8.9,20.9c1.8,4.2,3.7,8.5,5.5,12.7c0.8,1.8,1.7,3.5,2.4,5.3
	c0.5,1.2,0.9,2.5,1,3.8c0.2,1.7-0.6,3.2-2,3.8c-0.4,0.2-0.8,0.2-1.2,0.3c-0.8,0.1-1.7,0.2-2.5,0.2c-6.4,0.4-12.9,0.3-19.3,0.3
	c-4.5,0-9,0-13.4,0c-8.6,0-17.3,0-25.9,0c-1.5,0-3.1-0.2-4.6-0.3c-1-0.1-2.1-0.1-3.1,0c-1.2,0.1-2.4,0.1-3.6-0.1
	c-0.8-0.1-1.5-0.4-2.1-0.9c-0.8-0.5-1.6-2.3-1.2-3.4c1-3,2.1-5.9,3.7-8.6c0.4-0.7,0.8-1.3,1.4-1.9c0.3-0.3,0.7-0.6,1.2-0.6
	c0.7-0.1,1.4-0.2,2.1-0.2c4.3-0.2,8.6-0.2,12.8-0.2c11.3,0,22.7,0,34,0c0.3,0,0.5,0,0.8,0c0.3,0,0.5-0.2,0.3-0.5
	c-0.1-0.3-0.2-0.6-0.3-0.9c-1.7-4.3-3.5-8.5-5.3-12.8c-2.6-6.3-5.4-12.5-7.9-18.8c-0.9-2.2-1.8-4.5-2.9-6.6
	C773.7,48.4,773.5,48.1,773.2,47.8L773.2,47.8z"/>
<path d="M49.2,24.7c5.9,0,11.8,0,17.7,0c3.6,0,7.1,0.8,10.4,2.2c2,0.9,3.8,1.9,5.6,3.1c3.8,2.7,6.4,6.3,8.1,10.5
	c1,2.6,1.6,5.4,1.8,8.2c0.3,3.6-0.1,7.1-1.2,10.6c-1.2,3.8-3.3,7.1-6.3,9.8c-1.1,1-2.2,1.7-3.5,2.4c-1.1,0.6-2.2,1.1-3.3,1.7
	c-0.6,0.3-0.6,0.4-0.3,1c0.6,1.3,1.4,2.4,2.2,3.6c2.7,4.1,5.4,8.1,8,12.2c1.5,2.3,3,4.5,4.4,6.8c0.6,1,1.1,2,1.3,3.1
	c0.4,2.2-0.8,3.4-2.5,4c-0.5,0.2-1,0.3-1.5,0.2c-2.3,0-4.6,0.2-7,0.2c-0.8,0-1.6-0.1-2.4-0.2c-1.6-0.2-2.8-1.1-3.7-2.4
	c-1.1-1.7-2.1-3.4-3.2-5.1c-2.1-3.3-4.1-6.5-6.2-9.8c-1.6-2.5-3.2-5.1-4.8-7.7c-0.4-0.6-0.8-1.2-1.2-1.8c-0.3-0.4-0.8-0.6-1.4-0.6
	c-5.6,0-11.2,0-16.9,0c-0.8,0-0.9,0.1-0.9,0.9c0,6.9,0,13.8,0,20.7c0,0.6,0,1.2-0.1,1.8c-0.4,2.4-1.9,3.8-4.3,3.9
	c-1.7,0-3.4,0.2-5.1,0.2c-1.2,0-2.5-0.1-3.7-0.4c-0.7-0.2-1.4-0.6-1.9-1.1c-0.6-0.6-0.9-1.2-0.9-2c0-0.3,0-0.6,0-1
	c0-11.6,0-23.2,0-34.8c0-1.9,0.7-2.9,2.5-3.6c0.8-0.3,1.6-0.5,2.5-0.5c6.4-0.2,12.7-0.1,19.1-0.1c3.2,0,6.4,0,9.6,0.1
	c2.9,0.1,5.8,0,8.7-0.6c1.7-0.4,3.3-1,4.8-2c1.8-1.3,2.7-3,3-5.2c0.3-2,0.1-4-0.5-6c-0.8-2.6-2.5-4.4-5-5.5c-1.6-0.7-3.3-1-5-1.2
	c-2.4-0.2-4.7-0.4-7.1-0.3c-5.2,0.2-10.4,0-15.6,0.2c-3.1,0.1-6.2,0.1-9.4,0.1c-1.2,0-2.4-0.1-3.6-0.3c-0.6-0.1-1.3-0.3-1.9-0.5
	c-1-0.4-1.7-1.1-1.9-2.2c-0.3-1.1-0.4-2.3-0.3-3.5c0.1-1.8,0.1-3.6,0.1-5.4c0-1.2,0.4-2.1,1.3-2.9c0.8-0.7,1.7-1,2.7-1
	c1.8,0,3.7,0,5.5,0C40.3,24.6,44.7,24.6,49.2,24.7L49.2,24.7z"/>
<path d="M172.6,32.1c0,1.3,0,2.6,0,3.9c0,0.7-0.1,1.4-0.3,2.1c-0.2,0.9-0.7,1.5-1.5,1.8c-0.5,0.3-1.1,0.4-1.7,0.6
	c-1.1,0.4-2.2,0.7-3.2,1.1c-4.9,1.8-8.5,5-11,9.5c-1.9,3.4-2.9,7-3.3,10.8c-0.4,4.3,0.1,8.5,1.6,12.6c1.1,2.9,2.6,5.6,4.7,7.9
	c2.6,2.8,5.8,4.7,9.5,5.8c1,0.3,1.9,0.6,2.9,1c1.3,0.5,2.1,1.4,2.1,2.8c0,0.5,0.1,1,0.1,1.5c-0.1,2.3,0.2,4.5,0,6.8
	c-0.1,0.6-0.1,1.3-0.3,1.9c-0.4,1.4-1.4,2.1-2.8,2.4c-1.1,0.2-2.3,0.1-3.4-0.1c-2.2-0.4-4.3-1.2-6.4-2.1c-3.7-1.7-7.1-3.8-10.3-6.3
	c-2.3-1.9-4.3-4-6-6.5c-1.5-2.2-2.9-4.3-4.1-6.6c-1.8-3.5-2.9-7.3-3.5-11.2c-0.3-2-0.4-4.1-0.5-6.1c-0.1-4.6,0.4-9.2,1.7-13.6
	c1.5-5.1,4-9.8,7.5-13.8c4.9-5.8,11.1-9.7,18.2-12.3c1.7-0.6,3.4-1,5.2-1.1c0.8,0,1.5,0,2.2,0.2c1.2,0.3,2.5,1.8,2.4,3.3
	C172.5,29.4,172.6,30.8,172.6,32.1L172.6,32.1L172.6,32.1z"/>
<path d="M179,96.4c0.1-1.2-0.1-2.7,0.1-4.2c0.2-1.4,0.8-2.4,2.1-3c0.9-0.4,1.9-0.7,2.9-1c4.1-1.1,7.4-3.3,10.1-6.5
	c1.4-1.7,2.7-3.5,3.7-5.5c0.9-1.9,1.4-3.9,1.7-6c0.4-3.2,0.5-6.4,0.3-9.5c-0.3-4-1.6-7.7-3.9-11c-2.1-3-4.7-5.5-8-7.2
	c-1.7-0.9-3.6-1.5-5.5-2.1c-0.5-0.2-1.1-0.3-1.6-0.5c-1-0.4-1.6-1.2-1.8-2.3c-0.1-0.6-0.2-1.3-0.2-1.9c0-2.4,0-4.9,0-7.3
	c0-0.2,0-0.4,0-0.7c0.2-1.8,1.2-2.8,3-3c1.6-0.2,3.1,0,4.6,0.4c5.7,1.5,10.8,4.1,15.3,7.9c6.6,5.6,11,12.5,13,21
	c0.7,3.1,1.1,6.2,1.2,9.4c0.1,4.7-0.5,9.4-1.8,13.9c-1.4,4.8-3.7,9.2-6.8,13.1c-2.4,3-5.3,5.5-8.5,7.8c-2.7,1.9-5.6,3.6-8.7,4.8
	c-1.7,0.7-3.5,1.2-5.4,1.4c-0.9,0.1-1.9,0.2-2.8,0c-1.3-0.2-2.3-0.8-2.8-2.1c-0.3-0.7-0.4-1.4-0.4-2.2C179,99.1,179,97.9,179,96.4
	L179,96.4z"/>
<path d="M289.3,104.9c-9.4,0-18.7,0-28.1,0c-0.5,0-1,0-1.5-0.1c-1-0.2-1.8-0.8-2.3-1.7c-0.6-1.1-0.8-2.2-0.9-3.4c0-1.9,0-3.8,0-5.6
	c0-1.3,0.5-2.5,1.3-3.6c1.6-2.1,3.2-4.1,4.9-6.1c2.6-3.1,5.3-6.1,7.7-9.4c0.8-1.1,1.7-2.2,2.8-3c1.1-0.8,2.3-1.2,3.7-1.3
	c2.2-0.1,4.4-0.1,6.5-0.1c1.4,0,2.9,0.2,4.2,0.8c1.3,0.5,2.2,1.4,2.4,2.8c0.1,0.6,0,1.2-0.3,1.7c-0.6,1.1-1.3,2.2-2.1,3.2
	c-1.7,2.3-3.7,4.4-5.5,6.6c-0.8,0.9-1.5,1.8-2.3,2.8c-0.1,0.1-0.1,0.2-0.2,0.2c-0.1,0.2-0.3,0.4-0.2,0.6c0.1,0.3,0.4,0.2,0.7,0.2
	c1.9,0,3.9,0,5.8,0c9.1,0,18.1,0,27.2,0c0.6,0,1.2,0,1.8-0.1c1.6-0.1,3.2,0,4.8,0.5c1.2,0.4,2,1.2,2.1,2.5c0,0.3,0.1,0.6,0.1,0.9
	c0,2.1,0,4.2,0,6.4c0,0.8-0.1,1.5-0.3,2.3c-0.5,1.9-1.6,2.8-3.6,3c-0.3,0-0.6,0-1,0C307.9,104.9,298.6,104.9,289.3,104.9
	L289.3,104.9z"/>
<path d="M397.8,104.6c-7.6,0-15.2,0-22.9,0c-1.3,0-2.6,0-3.8-0.2c-2.2-0.4-3.4-1.6-3.7-3.8c-0.1-0.6-0.1-1.2-0.1-1.8
	c0-1.8,0-3.5,0-5.2c0-1,0.1-1.9,0.6-2.8c0.6-1.1,1.5-1.8,2.7-1.9c1.2-0.2,2.5-0.2,3.8-0.2c16-0.4,31.9-0.1,47.9-0.1
	c1.1,0,2.2,0.1,3.2,0.4c1.3,0.4,2.1,1.3,2.4,2.6c0.2,0.6,0.3,1.2,0.3,1.9c0,2.1,0,4.1,0,6.2c0,0.7-0.1,1.3-0.3,1.9
	c-0.4,1.6-1.5,2.5-3,2.9c-0.5,0.1-0.9,0.2-1.4,0.2c-1.2,0-2.3,0.2-3.5,0.2C412.6,104.6,405.2,104.6,397.8,104.6L397.8,104.6z"/>
<path d="M409.5,72.2c-0.5,0-1.1,0-1.6,0c-9.6-0.1-19.2-0.1-28.8-0.1c-2.1,0-4.2,0-6.4,0.2c-0.5,0.1-1,0-1.6,0
	c-1.9-0.1-3.2-1.2-3.7-3c-0.3-1-0.3-2-0.4-3c-0.1-1.4,0.2-2.9,0.1-4.3c0-0.5,0-1.1,0-1.6c0.1-2.1,1.3-3.5,3.3-3.9
	c0.6-0.1,1.3-0.1,1.9-0.1c11.8,0,23.6,0,35.3,0c3.5,0,7,0,10.5,0c0.5,0,1.1,0,1.6,0.1c2,0.3,3.2,1.5,3.3,3.5
	c0.1,2.1,0.3,4.1,0.3,6.2c0,0.7,0,1.4-0.1,2.1c-0.3,2.5-1.9,4-4.5,4c-1.8,0-3.6,0-5.4,0C412.2,72.2,410.9,72.2,409.5,72.2
	L409.5,72.2L409.5,72.2z"/>
<path d="M677,94.1c0-1.7,0.1-3.3,0-5c-0.1-2.6,1.7-4,3.9-4.2c0,0,0.1,0,0.2,0c2.5,0,5-0.2,7.6-0.1c1,0,2,0.1,2.9,0.4
	c1.7,0.4,2.6,1.5,2.9,3.2c0.2,1.1,0.2,2.2,0.2,3.3c0.1,2.1,0,4.2,0,6.4c0,1.1-0.2,2.2-0.5,3.3c-0.4,1.4-1.4,2.1-2.8,2.4
	c-0.5,0.1-1.1,0.2-1.6,0.2c-1.7,0-3.3,0-5,0.1c-1.4,0.1-2.8,0-4.1-0.2c-2.5-0.4-3.6-1.8-3.7-4.3c0-0.9,0-1.8,0-2.7
	C677,95.9,677,95,677,94.1L677,94.1L677,94.1z"/>
<path d="M476.7,40.5c-1.7,0-3.3,0-5,0c-0.9,0-1.8-0.1-2.6-0.5c-0.8-0.4-1.4-1-1.7-1.9c-0.3-1-0.4-2-0.4-3.1c0-2.1,0-4.3,0-6.4
	c0-2,1.2-3.5,3.2-3.8c2.3-0.4,4.7-0.5,7-0.4c1.4,0,2.7,0,4.1,0.2c1,0.1,1.9,0.3,2.8,0.8c1.2,0.7,1.8,1.8,1.9,3.2
	c0.1,2,0.2,3.9,0.1,5.9c0,1-0.1,2.1-0.4,3.1c-0.6,2-1.9,3-4,3C480.2,40.5,478.4,40.5,476.7,40.5L476.7,40.5L476.7,40.5z"/>
<path d="M579.7,40.5c-1.6,0-3.2,0-4.8,0c-0.7,0-1.4-0.1-2.1-0.2c-1.5-0.3-2.3-1.2-2.6-2.7c-0.2-1-0.2-1.9-0.2-2.9
	c-0.1-2.2,0.1-4.4,0.1-6.7c0-1.1,0.5-2,1.5-2.6c1-0.7,2.2-0.9,3.5-1c2.6-0.2,5.2-0.2,7.8-0.1c0.9,0,1.9,0.1,2.8,0.4
	c2.2,0.5,3.5,2,3.5,4.3c0,2,0,4,0,6c0,0.8-0.1,1.6-0.4,2.4c-0.6,2-2,3-4,3.1c-0.9,0-1.7,0-2.6,0C581.4,40.5,580.5,40.5,579.7,40.5
	L579.7,40.5L579.7,40.5z"/>
</svg>
