<?xml version="1.0" encoding="UTF-8"?>
<svg id="Capa_29" data-name="Capa 29" xmlns="http://www.w3.org/2000/svg" viewBox="0 0 1000 1000">
  <path d="m509.76,362.66c3.04,11.27-2.6,17.4-11.66,23.38-25.26,16.67-49.87,34.32-74.66,51.71-1.41.99-5.22,1.43-3.2,4.27,1.74,2.44,4.35,4.11,8.04,1.5,21.06-14.87,42.3-29.49,63.48-44.19,4.65-3.22,9.31-6.42,13.96-9.65,2.44-1.69,3.73-1.5,4.14,1.86.96,7.97.45,15.94.44,23.91,0,3.39-2.89,4.68-5.15,6.26-17.47,12.17-34.98,24.28-52.49,36.39-4.58,3.17-4.65,3.21-.13,6.32,18.09,12.44,36.24,24.8,54.3,37.29,2.39,1.65,4.24,1.82,6.7.1,28.46-19.97,56.96-39.88,85.52-59.7,3.14-2.18,2.17-3.23-.32-4.88-6.52-4.31-12.88-8.87-19.4-13.18-2.86-1.9-3.18-3.4-.21-5.5,4.75-3.37,9.42-6.85,13.98-10.47,2.49-1.98,4.47-1.9,7.08-.04,10.29,7.35,20.75,14.44,31.09,21.71,6.34,4.46,6.53,16.39.19,20.81-24.15,16.84-48.39,33.55-72.59,50.32-14.9,10.33-29.87,20.57-44.63,31.09-3.47,2.47-5.87,2.24-9.24-.13-24.74-17.44-49.61-34.71-74.48-51.97-1.8-1.25-3.54-3.52-6.18-1.84-2.08,1.32-5.24,2.14-5.66,4.51-.45,2.56,2.86,3.27,4.67,4.52,26.71,18.4,53.54,36.63,80.17,55.16,3.92,2.73,6.67,2.8,10.53.08,33.72-23.76,67.54-47.38,101.41-70.93,2.64-1.83,5.23-6,9-3.43,4.89,3.33,11.75,5.02,11.37,13.5-.22,4.99-1.5,8.11-5.71,11.01-38.24,26.29-76.33,52.81-114.45,79.27-7.17,4.98-7.2,5.07-14.19.2-37.94-26.43-75.87-52.88-113.78-79.36-6.43-4.49-6.25-16.68.24-21.2,4.23-2.95,8.43-5.94,12.73-8.78,2.03-1.34,1.98-2.27.02-3.59-4.28-2.88-8.48-5.86-12.71-8.81-6.65-4.65-6.75-14.94-.08-19.58,24.99-17.38,50.03-34.7,75.05-52.04,13.81-9.57,27.61-19.14,41.45-28.67,1.3-.89,2.63-2.65,4.36-1.74,1.73.91.93,2.99.98,4.57.1,3.32.03,6.65.03,9.97Zm-58.2,91.28c.25-.03.5-.09.74-.17,3.07-.34,5.7-1.78,8.17-3.48,14.91-10.29,29.78-20.63,44.66-30.95,1.53-1.06,3.04-2.18,3.05-4.27.03-6.42.01-12.83.01-19.04-1.47-.6-2.07.14-2.71.58-8.62,5.95-17.21,11.92-25.83,17.88-15.45,10.68-30.86,21.41-46.39,31.97-3.19,2.17-2.59,3.16.14,5.19,2.5,1.86,5.27.09,7.61,1.44l.33-.03c.78.32,1.55.64,2.33.95.62.37,1.24.74,1.86,1.1.34.24.67.48,1.01.72,1.19,0,2.27-.33,3.19-1.11l1.64-.66.19-.12Z"/>
  <path d="m499.38,609.42c0,5.46.03,10.92-.01,16.37-.02,2.42-.19,4.84-3.59,4.78-3.46-.06-2.81-2.77-2.83-4.74-.1-9.63-.06-19.26-.06-28.88,0-1.4.21-2.7,1.85-3.12,1.83-.47,3.27.16,4.31,1.7,2.52,3.71,5.22,7.32,7.49,11.18,2.23,3.8,3.65,3.26,5.62-.19,1.97-3.46,4.39-6.65,6.61-9.97,1.15-1.72,2.4-3.37,4.8-2.68,2.39.68,1.99,2.81,2,4.56.05,9.14.03,18.28.01,27.41,0,2.19.1,4.58-3.07,4.65-3.17.07-3.22-2.25-3.22-4.49-.02-5.79,0-11.59-.93-17.82-1.89,2.79-3.76,5.59-5.68,8.37-2.16,3.14-4.49,3.2-6.73.13-1.84-2.51-3.52-5.12-5.28-7.69-.43.14-.87.28-1.3.42Z"/>
  <path d="m559.79,618.66c-3.82,0-6.59.06-9.37-.02-1.92-.05-3.11-.99-3.09-3.09.01-2.07,1.11-3.03,3.09-3.05,4.32-.04,8.64.03,12.96-.07,3.65-.09,4.07,1.79,3.42,4.81-1.54,7.09-8.29,12.86-16.06,13.53-7.67.66-14.99-4.18-17.78-11.76-2.77-7.51-.56-16.67,5.16-21.43,5.76-4.79,14.22-5.44,21.04-1.69,2.87,1.58,5.07,3.79,6.35,6.78.65,1.51,2.51,3.49.09,4.72-1.98,1.01-4.25.63-5.55-1.75-2.33-4.27-6.12-5.85-10.8-5.75-5.7.13-10.07,4.05-11.24,10.08-1.04,5.35,2.06,11.48,6.91,13.69,5.04,2.28,10.31.82,14.87-4.99Z"/>
  <path d="m467.93,630.89c-10.19-.07-18.65-8.79-18.47-19.03.19-10.39,8.56-18.63,18.92-18.61,10.18.02,18.42,8.58,18.35,19.06-.07,10.45-8.37,18.65-18.79,18.58Zm12.4-18.92c-.07-7.28-4.97-12.2-12.18-12.22-6.86-.02-12.37,5.43-12.35,12.23.03,7.15,5.53,12.62,12.63,12.54,6.92-.08,11.97-5.4,11.9-12.55Z"/>
  <path d="m590.88,630.89c-10.44.07-18.62-8.03-18.76-18.6-.14-10.4,8.19-19.06,18.35-19.06,10.37,0,18.69,8.21,18.92,18.66.22,10.17-8.32,18.93-18.51,19Zm-12.4-18.98c-.09,7.09,4.95,12.41,11.91,12.59,6.76.17,12.47-5.26,12.64-12.02.18-7.25-5.11-12.73-12.3-12.73-7.18,0-12.16,4.95-12.25,12.16Z"/>
  <path d="m410.22,611.95c.04-8.61,5.22-15.59,13.21-17.82,7.54-2.11,15.48,1.05,19.27,7.82.88,1.58,2.94,3.66.75,5.23-2.22,1.59-4.35.36-5.76-2.01-2.87-4.8-7.41-6.06-12.51-5.03-4.88.99-7.56,4.53-8.8,9.21-1.47,5.57,1.44,11.51,6.83,14.05,5,2.35,10.7.85,14.19-3.76.6-.79,1.02-1.74,1.7-2.44,1.29-1.32,3.02-1.67,4.56-.74,1.8,1.09.63,2.66.08,3.97-3.07,7.33-11.49,11.7-19.23,10.04-8.61-1.85-14.34-9.26-14.29-18.51Z"/>
  <path d="m446.55,455.21c-.33-.05-.67-.09-1-.14-.07-.68-.15-1.35-.22-2.03.72.4,1.45.79,2.17,1.19-.29.28-.58.56-.87.83l-.07.14Z"/>
</svg>