<?xml version="1.0" encoding="UTF-8"?>
<svg id="Capa_39" data-name="Capa 39" xmlns="http://www.w3.org/2000/svg" viewBox="0 0 1000 1000">
  <path d="m581.96,462.19c.11.2.3.24.51.25.3,0,.59,0,.89,0,2.23.06,4.45.1,6.68.19.91.04,1.83.15,2.73.29,1.76.26,3.06,1.78,3.18,3.68.12,1.92.2,3.84.14,5.77-.04,1.21-.12,2.41-.52,3.58-.64,1.9-1.76,2.71-3.76,2.71-6.68,0-13.37,0-20.05,0-1.24,0-1.23-.12-1.23,1.19,0,19.54-.01,39.09-.02,58.63,0,.49,0,.98-.09,1.47-.22,1.32-.98,2.18-2.21,2.65-.77.3-1.56.44-2.39.45-1.48,0-2.97.01-4.45.09-1.3.07-2.62-.06-3.91-.3-1.9-.36-3.04-1.82-3.14-3.96-.02-.49-.01-.99-.01-1.48,0-15.27.04-30.55-.05-45.82-.04-7.55-.03-15.1-.06-22.65,0-.84.04-1.68.11-2.51.17-1.89,1.43-3.25,3.32-3.55.83-.13,1.67-.23,2.51-.25,2.35-.05,4.7-.23,7.05-.19.29,0,.61.07.8-.25h13.97Z"/>
  <path d="m683.88,462.19c.06.4.38.24.59.24,1.51.03,3.02,0,4.53.07,2.17.11,4.35.07,6.52.37,1.58.22,2.55,1.09,3.09,2.52.28.74.41,1.53.42,2.32.03,1.75.04,3.5.02,5.26-.02,1.09-.2,2.16-.58,3.19-.64,1.72-1.76,2.5-3.61,2.5-6.61,0-13.22,0-19.83,0-.15,0-.3,0-.45,0q-1.06,0-1.06,1.06c0,19.67-.01,39.33-.02,59,0,.49.02.98-.1,1.47-.24,1-.82,1.73-1.72,2.21-.75.4-1.57.62-2.42.64-1.51.05-3.02.04-4.53.12-1.33.06-2.67-.06-3.99-.3-1.4-.25-2.57-.91-3.15-2.31-.25-.6-.31-1.24-.31-1.89,0-1.95,0-3.9,0-5.85,0-21.64,0-43.28-.02-64.92,0-.79,0-1.58.26-2.34.5-1.49,1.5-2.42,3.08-2.66.88-.13,1.77-.24,2.66-.27,2.62-.08,5.24-.23,7.87-.19.31,0,.66.1.88-.24h11.89Z"/>
  <path d="m363.25,462.19c.22.34.57.24.88.24,3.24.01,6.49,0,9.73.02,1.44,0,2.87,0,4.31.02.79,0,1.58.1,2.36.27,2.32.5,3.49,1.91,3.53,4.28.03,2.22,0,4.44.05,6.66.04,1.8-.57,3.33-1.75,4.66-4.21,4.72-8.16,9.66-12.21,14.51-.49.59-1.01,1.15-1.47,1.77-1.2,1.62-2.88,2.28-4.81,2.38-1.14.06-2.27.03-3.41-.08-1.03-.1-2.07-.09-3.11.02-1.24.13-2.47.01-3.69-.22-1.02-.2-1.8-.8-2.43-1.6-.56-.7-.71-1.5-.53-2.37.27-1.31.95-2.43,1.71-3.5.96-1.35,2.1-2.56,3.19-3.8,1.6-1.82,3.29-3.55,4.68-5.55.17-.24.34-.49.49-.74.22-.39.18-.47-.25-.49-.44-.02-.89,0-1.34-.02-2.79-.1-5.59-.22-8.38-.28-3.89-.08-7.77-.05-11.66.04-2.03.05-4.06.02-6.08.14-2.2.12-4.4.08-6.61.09-1.12,0-2.22-.09-3.33-.26-.22-.03-.44-.08-.65-.14-1.74-.46-2.76-1.56-3.03-3.34-.07-.46-.16-.93-.16-1.4-.02-2.22-.07-4.44,0-6.66.06-2.01,1.24-3.73,3.61-4.01.81-.09,1.63-.18,2.44-.2,3.44-.09,6.88-.22,10.32-.19.31,0,.66.1.88-.24h26.74Z"/>
  <path d="m474.39,462.19c.22.34.57.24.88.24,2.7.01,5.4.02,8.09.02,1.04,0,2.07.12,3.1.29.22.04.44.09.65.15,1.78.49,2.95,1.85,3.03,3.68.09,2.02.25,4.04.17,6.06-.04,1.01-.16,2.02-.45,2.99-.6,2.02-1.93,3.03-4.04,3.03-17.43,0-34.85,0-52.28,0-1.82,0-3.02-.88-3.76-2.5-.5-1.1-.64-2.28-.7-3.46-.06-1.08-.04-2.17.06-3.25.07-.73.05-1.48.06-2.22,0-.47.05-.94.14-1.4.32-1.62,1.41-2.69,3.04-2.92,1.08-.15,2.16-.26,3.25-.29,2.45-.07,4.89-.23,7.35-.19.29,0,.61.07.8-.25h30.61Z"/>
  <path d="m933.2,539.49c-.37,1.47-1.39,2.27-2.79,2.69-.86.26-1.73.39-2.63.44-1.56.09-3.11.03-4.67-.01-.97-.03-1.92-.17-2.85-.45-1.81-.54-2.75-1.75-2.81-3.63,0-.15,0-.3,0-.44,0-13.17,0-26.35-.03-39.52,0-1.24.38-2.26,1.28-3.11.66-.62,1.44-.99,2.34-.98,2.25.01,4.5-.21,6.75-.14.99.03,1.98.11,2.93.41,1.29.4,2.13,1.21,2.38,2.57.02.1.06.19.1.28v41.91Z"/>
  <path d="m933.2,487.81c-.29,1.3-1.2,1.99-2.4,2.36-.74.23-1.5.31-2.27.33-1.21.02-2.42.01-3.63.1-1.36.1-2.72-.01-4.06-.25-.17-.03-.34-.07-.51-.11-2.19-.61-2.91-1.83-2.91-3.64.02-4.07,0-8.13,0-12.2,0-2.61.04-5.23,0-7.84-.03-1.81.91-2.95,2.59-3.52,1.16-.39,2.37-.5,3.58-.55,1.75-.07,3.51-.1,5.26.12.62.08,1.22.18,1.81.37,1.25.41,2.17,1.15,2.54,2.46v22.36Z"/>
  <path d="m835.23,485.9c-.08.1-.14.15-.16.21-1.15,3.16-2.61,6.19-3.89,9.29-.97,2.35-1.97,4.69-2.96,7.03-1.65,3.88-3.33,7.76-4.96,11.65-.63,1.5-1.25,3.01-1.89,4.51-.8,1.87-2.18,2.87-4.19,3.06-.3.03-.59.08-.89.08-2.25.01-4.51.01-6.76.01-.75,0-1.48-.13-2.19-.38-2.13-.73-3.22-2.9-2.44-5,.81-2.17,1.69-4.32,2.55-6.48,1.72-4.26,3.54-8.48,5.35-12.69,2-4.65,4.03-9.29,6.01-13.94,2.09-4.91,4.05-9.87,6.24-14.73.46-1.01.92-2.03,1.48-2.99,1.49-2.58,2.72-3.25,5.86-3,2.03.16,4.06.1,6.09,0,.95-.05,1.88.01,2.8.25,1.09.29,1.82,1.06,2.44,1.95.62.9,1.06,1.89,1.49,2.89,2.26,5.34,4.54,10.68,6.79,16.02,1.68,3.98,3.32,7.98,5,11.96,2.94,6.96,5.89,13.91,8.86,20.86,1.82,4.24,3.67,8.47,5.53,12.7.77,1.76,1.67,3.47,2.37,5.27.48,1.22.86,2.47,1.01,3.78.21,1.73-.56,3.19-2.05,3.8-.37.15-.76.23-1.15.26-.84.06-1.67.15-2.52.2-6.43.37-12.87.28-19.3.3-4.48.01-8.96,0-13.44,0-8.64-.01-17.28-.02-25.93-.04-1.53,0-3.06-.16-4.59-.33-1.04-.12-2.08-.12-3.11-.02-1.21.12-2.42.12-3.63-.07-.77-.13-1.46-.44-2.11-.87-.84-.55-1.6-2.32-1.2-3.44,1.04-2.96,2.07-5.92,3.67-8.64.4-.68.85-1.33,1.44-1.88.35-.33.74-.57,1.23-.64.71-.11,1.42-.2,2.14-.23,4.28-.21,8.56-.18,12.85-.17,11.34,0,22.68.02,34.02.04.27,0,.55,0,.82-.01.31-.02.45-.19.35-.5-.1-.3-.2-.61-.32-.91-1.7-4.29-3.51-8.54-5.29-12.8-2.62-6.26-5.36-12.48-7.89-18.78-.9-2.24-1.81-4.49-2.93-6.64-.17-.32-.32-.66-.61-.94Z"/>
  <path d="m111.15,462.78c5.92,0,11.84,0,17.75,0,3.65,0,7.12.77,10.45,2.22,1.96.85,3.83,1.86,5.56,3.12,3.75,2.71,6.42,6.26,8.1,10.55,1.03,2.64,1.6,5.38,1.83,8.21.29,3.61-.1,7.14-1.19,10.59-1.21,3.82-3.3,7.1-6.28,9.8-1.05.95-2.24,1.71-3.5,2.36-1.09.58-2.19,1.14-3.29,1.72-.61.32-.62.35-.31.96.64,1.26,1.43,2.43,2.2,3.6,2.67,4.07,5.36,8.12,8.03,12.19,1.49,2.27,2.97,4.55,4.43,6.84.61.96,1.06,1.99,1.26,3.14.37,2.15-.81,3.36-2.49,3.97-.46.17-.96.26-1.46.25-2.33-.03-4.65.22-6.98.16-.82-.02-1.63-.13-2.43-.25-1.62-.25-2.82-1.12-3.74-2.44-1.14-1.65-2.1-3.4-3.17-5.1-2.05-3.26-4.13-6.51-6.19-9.76-1.61-2.55-3.2-5.1-4.8-7.66-.38-.61-.79-1.19-1.25-1.75-.35-.43-.78-.62-1.36-.62-5.62.01-11.24,0-16.86.01-.81,0-.86.06-.86.91,0,6.91,0,13.82,0,20.73,0,.62-.04,1.23-.14,1.84-.36,2.38-1.9,3.85-4.3,3.91-1.71.04-3.41.18-5.12.15-1.23-.03-2.47-.1-3.68-.41-.73-.19-1.37-.56-1.92-1.08-.58-.56-.88-1.24-.93-2.04-.02-.32-.01-.64-.01-.96,0-11.6-.01-23.2-.02-34.8,0-1.92.66-2.89,2.46-3.61.79-.32,1.61-.47,2.46-.5,6.36-.21,12.72-.15,19.09-.08,3.19.03,6.39.05,9.58.12,2.92.07,5.84,0,8.71-.65,1.7-.38,3.32-.97,4.75-2.01,1.77-1.28,2.72-3.03,3.02-5.16.28-2.03.09-4.04-.5-6-.78-2.63-2.5-4.43-5-5.52-1.6-.7-3.3-1.04-5.03-1.23-2.36-.25-4.74-.36-7.12-.28-5.2.17-10.4.01-15.59.16-3.12.09-6.24.09-9.36.09-1.19,0-2.37-.11-3.55-.28-.64-.09-1.26-.26-1.86-.51-1-.42-1.65-1.14-1.95-2.18-.32-1.13-.38-2.3-.32-3.45.08-1.8.11-3.6.11-5.4,0-1.19.44-2.15,1.32-2.94.76-.68,1.65-.95,2.66-.95,1.83,0,3.66,0,5.5,0,4.43,0,8.86,0,13.3,0Z"/>
  <path d="m234.58,470.21c0,1.28,0,2.57,0,3.85,0,.72-.11,1.43-.26,2.13-.19.85-.69,1.46-1.47,1.84-.54.26-1.1.44-1.67.63-1.08.36-2.17.71-3.23,1.09-4.89,1.78-8.51,5.03-11.04,9.52-1.88,3.35-2.9,6.95-3.28,10.75-.43,4.32.08,8.52,1.56,12.6,1.07,2.93,2.62,5.58,4.74,7.88,2.62,2.83,5.82,4.71,9.52,5.77.98.28,1.95.57,2.89.96,1.27.52,2.08,1.38,2.15,2.83.02.49.1.98.08,1.48-.07,2.27.24,4.53.03,6.8-.06.64-.14,1.27-.34,1.89-.43,1.36-1.38,2.11-2.76,2.38-1.14.22-2.27.13-3.39-.07-2.24-.4-4.34-1.18-6.39-2.13-3.68-1.7-7.11-3.79-10.26-6.35-2.31-1.88-4.34-4.02-6.03-6.5-1.46-2.15-2.88-4.31-4.08-6.62-1.83-3.52-2.95-7.26-3.5-11.18-.28-2.03-.41-4.07-.47-6.12-.13-4.62.35-9.16,1.67-13.6,1.53-5.13,4.02-9.75,7.51-13.82,4.93-5.75,11.09-9.7,18.17-12.28,1.68-.61,3.41-1.03,5.2-1.15.75-.05,1.48.05,2.21.22,1.23.29,2.54,1.84,2.45,3.26-.08,1.3-.02,2.61-.02,3.92,0,0,0,0,0,0Z"/>
  <path d="m240.96,534.53c.06-1.18-.08-2.71.13-4.23.19-1.37.83-2.4,2.13-2.99.93-.42,1.9-.71,2.88-.98,4.06-1.13,7.42-3.3,10.14-6.51,1.43-1.69,2.71-3.45,3.67-5.45.91-1.89,1.4-3.9,1.68-5.96.43-3.17.48-6.36.27-9.53-.26-4-1.64-7.66-3.91-10.96-2.07-3.03-4.7-5.45-7.96-7.18-1.74-.92-3.61-1.49-5.48-2.06-.54-.17-1.09-.33-1.61-.55-1.02-.44-1.61-1.2-1.75-2.3-.08-.64-.17-1.27-.17-1.92,0-2.44,0-4.89,0-7.33,0-.22,0-.44.04-.66.22-1.79,1.21-2.78,3.02-3.02,1.58-.21,3.11.05,4.62.44,5.7,1.47,10.83,4.07,15.32,7.86,6.61,5.58,11.02,12.54,13.02,20.97.73,3.08,1.08,6.21,1.18,9.38.14,4.73-.45,9.35-1.78,13.88-1.41,4.82-3.71,9.2-6.84,13.12-2.42,3.03-5.34,5.54-8.5,7.79-2.71,1.92-5.57,3.6-8.67,4.81-1.73.68-3.51,1.2-5.37,1.42-.94.11-1.89.15-2.82.02-1.28-.17-2.26-.82-2.78-2.06-.29-.69-.44-1.42-.45-2.16-.01-1.16,0-2.32,0-3.83Z"/>
  <path d="m351.3,543.05c-9.36,0-18.71,0-28.07,0-.52,0-1.04,0-1.55-.12-1.03-.22-1.8-.76-2.3-1.7-.57-1.07-.82-2.23-.85-3.42-.04-1.87-.02-3.75,0-5.62.02-1.32.5-2.5,1.29-3.56,1.56-2.1,3.25-4.1,4.93-6.11,2.61-3.1,5.29-6.14,7.7-9.39.82-1.11,1.7-2.19,2.83-3.01,1.11-.81,2.31-1.25,3.7-1.33,2.18-.12,4.35-.12,6.53-.1,1.44.01,2.86.22,4.21.77,1.31.53,2.18,1.4,2.44,2.84.11.62.03,1.18-.26,1.72-.6,1.14-1.29,2.22-2.08,3.24-1.74,2.28-3.67,4.4-5.52,6.58-.77.9-1.51,1.83-2.26,2.75-.06.08-.12.16-.17.24-.11.19-.32.37-.23.6.12.29.42.2.66.2,1.93,0,3.86,0,5.79,0,9.06,0,18.12,0,27.18,0,.59,0,1.19-.04,1.78-.08,1.61-.11,3.22-.03,4.76.51,1.21.42,1.95,1.22,2.12,2.51.04.29.09.59.09.88.02,2.12.02,4.24.04,6.37,0,.77-.12,1.52-.31,2.27-.5,1.91-1.6,2.83-3.58,2.96-.32.02-.64.01-.97.01-9.31,0-18.62,0-27.92,0Z"/>
  <path d="m459.8,542.74c-7.62,0-15.25.01-22.87-.01-1.28,0-2.57-.02-3.84-.25-2.24-.4-3.38-1.57-3.74-3.8-.1-.61-.15-1.22-.14-1.84.01-1.75,0-3.5.03-5.25.01-.97.15-1.92.59-2.8.56-1.13,1.46-1.75,2.72-1.91,1.25-.15,2.51-.22,3.77-.25,15.96-.36,31.92-.12,47.89-.14,1.08,0,2.18.06,3.23.41,1.28.43,2.08,1.29,2.43,2.57.17.62.29,1.25.29,1.9,0,2.07,0,4.14,0,6.22,0,.65-.12,1.27-.29,1.9-.41,1.57-1.49,2.45-3,2.88-.45.13-.92.22-1.39.23-1.16.04-2.32.15-3.48.15-7.4-.01-14.8,0-22.2,0Z"/>
  <path d="m471.51,510.31c-.54,0-1.09,0-1.63,0-9.6-.1-19.2-.15-28.8-.08-2.12.02-4.25-.01-6.37.22-.51.06-1.04.04-1.56,0-1.86-.13-3.19-1.21-3.72-3-.29-.98-.3-2-.35-3-.06-1.43.17-2.86.12-4.29-.02-.54,0-1.09.02-1.63.06-2.1,1.27-3.52,3.34-3.94.64-.13,1.28-.15,1.92-.15,11.78,0,23.56,0,35.34,0,3.49,0,6.98,0,10.47,0,.55,0,1.09.03,1.63.11,2.03.31,3.21,1.46,3.31,3.47.09,2.07.29,4.13.33,6.2.01.69-.03,1.38-.12,2.07-.32,2.52-1.93,3.99-4.49,4.02-1.78.02-3.56,0-5.35,0-1.36,0-2.72,0-4.08,0v-.03Z"/>
  <path d="m738.99,532.23c0-1.65.06-3.31-.01-4.96-.12-2.62,1.69-3.97,3.93-4.21.05,0,.1,0,.15,0,2.53.03,5.05-.22,7.57-.14.99.03,1.97.14,2.94.39,1.67.43,2.62,1.46,2.87,3.18.16,1.1.17,2.22.21,3.32.08,2.12.05,4.24.03,6.37-.01,1.11-.22,2.2-.54,3.27-.42,1.38-1.4,2.11-2.76,2.39-.53.11-1.07.16-1.62.18-1.66.04-3.32-.02-4.97.13-1.38.12-2.78,0-4.14-.22-2.45-.4-3.6-1.78-3.65-4.27-.02-.91,0-1.83,0-2.74,0-.89,0-1.78,0-2.67h0Z"/>
  <path d="m538.68,478.66c-1.66,0-3.32.01-4.97,0-.9,0-1.77-.15-2.59-.55-.83-.4-1.37-1.02-1.65-1.89-.32-1-.36-2.04-.38-3.07-.04-2.15-.02-4.29-.01-6.44.01-2.02,1.24-3.47,3.24-3.82,2.32-.41,4.67-.45,7.03-.44,1.36,0,2.72-.02,4.08.16.96.13,1.9.3,2.76.79,1.25.72,1.84,1.84,1.94,3.22.14,1.97.19,3.94.13,5.91-.03,1.03-.09,2.07-.39,3.07-.59,1.97-1.9,3-3.97,3.04-1.73.03-3.46,0-5.2,0h0Z"/>
  <path d="m641.71,478.66c-1.58,0-3.17,0-4.75,0-.7,0-1.38-.09-2.06-.25-1.45-.33-2.34-1.21-2.62-2.69-.18-.95-.2-1.91-.24-2.87-.08-2.22.06-4.44.09-6.66.02-1.12.54-1.98,1.48-2.58,1.05-.66,2.24-.9,3.46-1.02,2.59-.25,5.19-.16,7.79-.13.94,0,1.88.15,2.79.36,2.25.53,3.48,2.03,3.52,4.33.04,2,.03,4,.03,5.99,0,.82-.13,1.62-.36,2.41-.56,1.97-1.97,3.05-4.02,3.09-.87.02-1.73,0-2.6.01-.84,0-1.68,0-2.52,0h0Z"/>
</svg>